%TF.GenerationSoftware,KiCad,Pcbnew,(5.99.0-11593-g5155093ec0)*%
%TF.CreationDate,2021-08-09T21:00:43+02:00*%
%TF.ProjectId,flatlight_rev21_ledside,666c6174-6c69-4676-9874-5f7265763231,rev?*%
%TF.SameCoordinates,Original*%
%TF.FileFunction,Legend,Top*%
%TF.FilePolarity,Positive*%
%FSLAX46Y46*%
G04 Gerber Fmt 4.6, Leading zero omitted, Abs format (unit mm)*
G04 Created by KiCad (PCBNEW (5.99.0-11593-g5155093ec0)) date 2021-08-09 21:00:43*
%MOMM*%
%LPD*%
G01*
G04 APERTURE LIST*
%ADD10C,0.150000*%
%ADD11C,0.120000*%
G04 APERTURE END LIST*
D10*
%TO.C,D14*%
X203800000Y-42757142D02*
X203847619Y-42804761D01*
X203800000Y-42852380D01*
X203752380Y-42804761D01*
X203800000Y-42757142D01*
X203800000Y-42852380D01*
%TO.C,D18*%
X239800000Y-42757142D02*
X239847619Y-42804761D01*
X239800000Y-42852380D01*
X239752380Y-42804761D01*
X239800000Y-42757142D01*
X239800000Y-42852380D01*
%TO.C,D9*%
X179600000Y-32357142D02*
X179647619Y-32404761D01*
X179600000Y-32452380D01*
X179552380Y-32404761D01*
X179600000Y-32357142D01*
X179600000Y-32452380D01*
%TO.C,D6*%
X206600000Y-32357142D02*
X206647619Y-32404761D01*
X206600000Y-32452380D01*
X206552380Y-32404761D01*
X206600000Y-32357142D01*
X206600000Y-32452380D01*
%TO.C,D4*%
X224600000Y-32357142D02*
X224647619Y-32404761D01*
X224600000Y-32452380D01*
X224552380Y-32404761D01*
X224600000Y-32357142D01*
X224600000Y-32452380D01*
%TO.C,D11*%
X176800000Y-42757142D02*
X176847619Y-42804761D01*
X176800000Y-42852380D01*
X176752380Y-42804761D01*
X176800000Y-42757142D01*
X176800000Y-42852380D01*
%TO.C,D15*%
X212800000Y-42757142D02*
X212847619Y-42804761D01*
X212800000Y-42852380D01*
X212752380Y-42804761D01*
X212800000Y-42757142D01*
X212800000Y-42852380D01*
%TO.C,D12*%
X185800000Y-42757142D02*
X185847619Y-42804761D01*
X185800000Y-42852380D01*
X185752380Y-42804761D01*
X185800000Y-42757142D01*
X185800000Y-42852380D01*
%TO.C,D8*%
X188600000Y-32357142D02*
X188647619Y-32404761D01*
X188600000Y-32452380D01*
X188552380Y-32404761D01*
X188600000Y-32357142D01*
X188600000Y-32452380D01*
%TO.C,D5*%
X215600000Y-32357142D02*
X215647619Y-32404761D01*
X215600000Y-32452380D01*
X215552380Y-32404761D01*
X215600000Y-32357142D01*
X215600000Y-32452380D01*
%TO.C,D3*%
X233600000Y-32357142D02*
X233647619Y-32404761D01*
X233600000Y-32452380D01*
X233552380Y-32404761D01*
X233600000Y-32357142D01*
X233600000Y-32452380D01*
%TO.C,D13*%
X194800000Y-42757142D02*
X194847619Y-42804761D01*
X194800000Y-42852380D01*
X194752380Y-42804761D01*
X194800000Y-42757142D01*
X194800000Y-42852380D01*
%TO.C,D16*%
X221700000Y-43057142D02*
X221747619Y-43104761D01*
X221700000Y-43152380D01*
X221652380Y-43104761D01*
X221700000Y-43057142D01*
X221700000Y-43152380D01*
%TO.C,D7*%
X197600000Y-32357142D02*
X197647619Y-32404761D01*
X197600000Y-32452380D01*
X197552380Y-32404761D01*
X197600000Y-32357142D01*
X197600000Y-32452380D01*
%TO.C,D10*%
X170600000Y-32357142D02*
X170647619Y-32404761D01*
X170600000Y-32452380D01*
X170552380Y-32404761D01*
X170600000Y-32357142D01*
X170600000Y-32452380D01*
%TO.C,D17*%
X230850000Y-42757142D02*
X230897619Y-42804761D01*
X230850000Y-42852380D01*
X230802380Y-42804761D01*
X230850000Y-42757142D01*
X230850000Y-42852380D01*
D11*
%TO.C,R25*%
X244222500Y-36962742D02*
X244222500Y-37437258D01*
X243177500Y-36962742D02*
X243177500Y-37437258D01*
%TO.C,D20*%
X240200000Y-87800000D02*
X243400000Y-87800000D01*
X243400000Y-84200000D02*
X243400000Y-87800000D01*
X240200000Y-84200000D02*
X240200000Y-87800000D01*
%TO.C,C31*%
X220035000Y-79261252D02*
X220035000Y-78738748D01*
X218565000Y-79261252D02*
X218565000Y-78738748D01*
%TO.C,D27*%
X167000000Y-87800000D02*
X170200000Y-87800000D01*
X170200000Y-84200000D02*
X170200000Y-87800000D01*
X167000000Y-84200000D02*
X167000000Y-87800000D01*
%TO.C,D25*%
X210200000Y-87800000D02*
X213400000Y-87800000D01*
X210200000Y-84200000D02*
X210200000Y-87800000D01*
X213400000Y-84200000D02*
X213400000Y-87800000D01*
%TO.C,R28*%
X247862258Y-81077500D02*
X247387742Y-81077500D01*
X247862258Y-82122500D02*
X247387742Y-82122500D01*
%TO.C,R29*%
X247862258Y-79277500D02*
X247387742Y-79277500D01*
X247862258Y-80322500D02*
X247387742Y-80322500D01*
%TO.C,R26*%
X238677500Y-86062742D02*
X238677500Y-86537258D01*
X239722500Y-86062742D02*
X239722500Y-86537258D01*
%TO.C,D24*%
X232700000Y-87800000D02*
X235900000Y-87800000D01*
X232700000Y-84200000D02*
X232700000Y-87800000D01*
X235900000Y-84200000D02*
X235900000Y-87800000D01*
%TO.C,D26*%
X189500000Y-87800000D02*
X192700000Y-87800000D01*
X189500000Y-84200000D02*
X189500000Y-87800000D01*
X192700000Y-84200000D02*
X192700000Y-87800000D01*
%TO.C,C39*%
X227535000Y-79261252D02*
X227535000Y-78738748D01*
X226065000Y-79261252D02*
X226065000Y-78738748D01*
%TO.C,C36*%
X167865000Y-79261252D02*
X167865000Y-78738748D01*
X169335000Y-79261252D02*
X169335000Y-78738748D01*
%TO.C,D21*%
X225200000Y-84200000D02*
X225200000Y-87800000D01*
X225200000Y-87800000D02*
X228400000Y-87800000D01*
X228400000Y-84200000D02*
X228400000Y-87800000D01*
%TO.C,C34*%
X182865000Y-79261252D02*
X182865000Y-78738748D01*
X184335000Y-79261252D02*
X184335000Y-78738748D01*
%TO.C,TP10*%
X163025000Y-54950000D02*
X163025000Y-56850000D01*
X161125000Y-56850000D02*
X161125000Y-54950000D01*
X163025000Y-56850000D02*
X161125000Y-56850000D01*
X161125000Y-54950000D02*
X163025000Y-54950000D01*
%TO.C,TP9*%
X244650000Y-87450000D02*
X244650000Y-85550000D01*
X246550000Y-87450000D02*
X244650000Y-87450000D01*
X246550000Y-85550000D02*
X246550000Y-87450000D01*
X244650000Y-85550000D02*
X246550000Y-85550000D01*
%TO.C,C38*%
X175365000Y-79261252D02*
X175365000Y-78738748D01*
X176835000Y-79261252D02*
X176835000Y-78738748D01*
D10*
%TO.C,Q4*%
X242951504Y-82249888D02*
X243500000Y-82249888D01*
X242951504Y-81649888D02*
X242951504Y-82249888D01*
D11*
%TO.C,C30*%
X197865000Y-79261252D02*
X197865000Y-78738748D01*
X199335000Y-79261252D02*
X199335000Y-78738748D01*
%TO.C,D28*%
X217700000Y-84200000D02*
X217700000Y-87800000D01*
X217700000Y-87800000D02*
X220900000Y-87800000D01*
X220900000Y-84200000D02*
X220900000Y-87800000D01*
%TO.C,D22*%
X174500000Y-84200000D02*
X174500000Y-87800000D01*
X177700000Y-84200000D02*
X177700000Y-87800000D01*
X174500000Y-87800000D02*
X177700000Y-87800000D01*
%TO.C,D35*%
X161325000Y-57450000D02*
X163925000Y-57450000D01*
X163925000Y-57450000D02*
X163925000Y-58450000D01*
X163925000Y-61150000D02*
X163925000Y-60150000D01*
X161325000Y-61150000D02*
X163925000Y-61150000D01*
%TO.C,C37*%
X233565000Y-79261252D02*
X233565000Y-78738748D01*
X235035000Y-79261252D02*
X235035000Y-78738748D01*
%TO.C,D19*%
X182000000Y-87800000D02*
X185200000Y-87800000D01*
X185200000Y-84200000D02*
X185200000Y-87800000D01*
X182000000Y-84200000D02*
X182000000Y-87800000D01*
%TO.C,C32*%
X211065000Y-79261252D02*
X211065000Y-78738748D01*
X212535000Y-79261252D02*
X212535000Y-78738748D01*
%TO.C,R24*%
X246022500Y-37437258D02*
X246022500Y-36962742D01*
X244977500Y-37437258D02*
X244977500Y-36962742D01*
%TO.C,C33*%
X191835000Y-79261252D02*
X191835000Y-78738748D01*
X190365000Y-79261252D02*
X190365000Y-78738748D01*
D10*
%TO.C,Q3*%
X239951504Y-38199888D02*
X239951504Y-38799888D01*
X239951504Y-38799888D02*
X240500000Y-38799888D01*
D11*
%TO.C,C35*%
X242535000Y-79311252D02*
X242535000Y-78788748D01*
X241065000Y-79311252D02*
X241065000Y-78788748D01*
%TO.C,D23*%
X200200000Y-84200000D02*
X200200000Y-87800000D01*
X197000000Y-87800000D02*
X200200000Y-87800000D01*
X197000000Y-84200000D02*
X197000000Y-87800000D01*
%TD*%
M02*
