%TF.GenerationSoftware,KiCad,Pcbnew,(5.99.0-11593-g5155093ec0)*%
%TF.CreationDate,2021-08-09T21:00:43+02:00*%
%TF.ProjectId,flatlight_rev21_ledside,666c6174-6c69-4676-9874-5f7265763231,rev?*%
%TF.SameCoordinates,Original*%
%TF.FileFunction,Copper,L3,Inr*%
%TF.FilePolarity,Positive*%
%FSLAX46Y46*%
G04 Gerber Fmt 4.6, Leading zero omitted, Abs format (unit mm)*
G04 Created by KiCad (PCBNEW (5.99.0-11593-g5155093ec0)) date 2021-08-09 21:00:43*
%MOMM*%
%LPD*%
G01*
G04 APERTURE LIST*
%TA.AperFunction,ComponentPad*%
%ADD10C,0.700000*%
%TD*%
%TA.AperFunction,ComponentPad*%
%ADD11C,4.400000*%
%TD*%
%TA.AperFunction,ComponentPad*%
%ADD12C,1.500000*%
%TD*%
%TA.AperFunction,ComponentPad*%
%ADD13R,1.000000X1.000000*%
%TD*%
%TA.AperFunction,ComponentPad*%
%ADD14O,1.000000X1.000000*%
%TD*%
%TA.AperFunction,ViaPad*%
%ADD15C,0.600000*%
%TD*%
%TA.AperFunction,ViaPad*%
%ADD16C,0.450000*%
%TD*%
%TA.AperFunction,ViaPad*%
%ADD17C,1.000000*%
%TD*%
%TA.AperFunction,Conductor*%
%ADD18C,0.600000*%
%TD*%
%TA.AperFunction,Conductor*%
%ADD19C,0.800000*%
%TD*%
G04 APERTURE END LIST*
D10*
%TO.N,GND*%
%TO.C,H18*%
X254350000Y-29300000D03*
X252700000Y-30950000D03*
X251050000Y-29300000D03*
X252700000Y-27650000D03*
D11*
X252700000Y-29300000D03*
D10*
X251533274Y-30466726D03*
X253866726Y-30466726D03*
X251533274Y-28133274D03*
X253866726Y-28133274D03*
%TD*%
D12*
%TO.N,LS_SYS*%
%TO.C,H7*%
X205200000Y-82300000D03*
%TD*%
D10*
%TO.N,LS_SYS*%
%TO.C,H16*%
X206366726Y-88133274D03*
X203550000Y-89300000D03*
X206366726Y-90466726D03*
X205200000Y-90950000D03*
D11*
X205200000Y-89300000D03*
D10*
X206850000Y-89300000D03*
X204033274Y-88133274D03*
X205200000Y-87650000D03*
X204033274Y-90466726D03*
%TD*%
D12*
%TO.N,GND*%
%TO.C,H14*%
X186475000Y-59675000D03*
%TD*%
D10*
%TO.N,GND*%
%TO.C,H19*%
X251533274Y-90466726D03*
X251533274Y-88133274D03*
X253866726Y-88133274D03*
X254350000Y-89300000D03*
D11*
X252700000Y-89300000D03*
D10*
X253866726Y-90466726D03*
X251050000Y-89300000D03*
X252700000Y-90950000D03*
X252700000Y-87650000D03*
%TD*%
%TO.N,GND*%
%TO.C,H20*%
X157700000Y-90950000D03*
X159350000Y-89300000D03*
D11*
X157700000Y-89300000D03*
D10*
X156050000Y-89300000D03*
X158866726Y-90466726D03*
X156533274Y-90466726D03*
X157700000Y-87650000D03*
X156533274Y-88133274D03*
X158866726Y-88133274D03*
%TD*%
%TO.N,GND*%
%TO.C,H17*%
X157700000Y-27650000D03*
X156533274Y-28133274D03*
X159350000Y-29300000D03*
X157700000Y-30950000D03*
X158866726Y-30466726D03*
X156050000Y-29300000D03*
D11*
X157700000Y-29300000D03*
D10*
X158866726Y-28133274D03*
X156533274Y-30466726D03*
%TD*%
%TO.N,LS_SYS*%
%TO.C,H15*%
X204033274Y-28133274D03*
X205200000Y-27650000D03*
X206366726Y-30466726D03*
X203550000Y-29300000D03*
X205200000Y-30950000D03*
X206366726Y-28133274D03*
X206850000Y-29300000D03*
X204033274Y-30466726D03*
D11*
X205200000Y-29300000D03*
%TD*%
D13*
%TO.N,GND*%
%TO.C,J4*%
X253700000Y-53575000D03*
D14*
%TO.N,LS_LED_PWM*%
X253700000Y-54845000D03*
%TO.N,LS_FLASH_EN*%
X253700000Y-56115000D03*
%TO.N,LS_TORCH_EN*%
X253700000Y-57385000D03*
%TO.N,LS_WS_LDAT*%
X253700000Y-58655000D03*
%TO.N,LS_WS_POWER*%
X253700000Y-59925000D03*
%TO.N,LS_XP_LED_NTC*%
X253700000Y-61195000D03*
%TO.N,LS_JS_LED_NTC*%
X253700000Y-62465000D03*
%TO.N,+3V3*%
X253700000Y-63735000D03*
%TO.N,GND*%
X253700000Y-65005000D03*
%TD*%
D15*
%TO.N,GND*%
X175450000Y-27550000D03*
X254450000Y-68250000D03*
X254000000Y-48800000D03*
X254500000Y-50300000D03*
X162000000Y-90550000D03*
X209400000Y-28050000D03*
X253950000Y-75750000D03*
X253950000Y-84750000D03*
X243850000Y-27550000D03*
X227350000Y-28050000D03*
X236350000Y-28050000D03*
X253950000Y-78750000D03*
X242350000Y-28050000D03*
X170950000Y-28050000D03*
X225850000Y-27550000D03*
X167950000Y-28050000D03*
D16*
X162575000Y-67925000D03*
D15*
X164950000Y-28050000D03*
X254500000Y-35300000D03*
X197950000Y-28050000D03*
X230350000Y-28050000D03*
X228850000Y-27550000D03*
X253950000Y-69750000D03*
X188950000Y-28050000D03*
X187450000Y-27550000D03*
X254500000Y-38300000D03*
X254500000Y-41300000D03*
X163450000Y-27550000D03*
X190450000Y-27550000D03*
X245350000Y-28050000D03*
X196450000Y-27550000D03*
X254000000Y-45750000D03*
X163500000Y-91050000D03*
D16*
X168700000Y-71150000D03*
D15*
X254000000Y-33800000D03*
X254450000Y-86200000D03*
X200950000Y-28050000D03*
X212350000Y-28050000D03*
X213850000Y-27550000D03*
X160500000Y-27550000D03*
X234850000Y-27550000D03*
X166450000Y-27550000D03*
X253950000Y-72750000D03*
X181450000Y-27550000D03*
X248350000Y-28050000D03*
X254000000Y-51800000D03*
D16*
X166575000Y-71150000D03*
D15*
X254500000Y-44300000D03*
X254450000Y-77250000D03*
D16*
X162100000Y-67925000D03*
D15*
X224350000Y-28050000D03*
X215350000Y-28050000D03*
X254450000Y-80250000D03*
X231850000Y-27550000D03*
X254000000Y-36800000D03*
X199450000Y-27550000D03*
X250100000Y-91050000D03*
X246850000Y-27550000D03*
X254500000Y-47300000D03*
X182950000Y-28050000D03*
X178450000Y-27550000D03*
X169450000Y-27550000D03*
X254000000Y-42800000D03*
X172450000Y-27550000D03*
X233350000Y-28050000D03*
D16*
X165550000Y-67950000D03*
D15*
X179950000Y-28050000D03*
X194950000Y-28050000D03*
X254450000Y-83250000D03*
X176950000Y-28050000D03*
X240850000Y-27550000D03*
D16*
X165075000Y-67950000D03*
D15*
X254450000Y-71250000D03*
X248800000Y-90550000D03*
X210850000Y-27550000D03*
X254500000Y-32300000D03*
X219850000Y-27550000D03*
X239350000Y-28050000D03*
X173950000Y-28050000D03*
X249850000Y-27550000D03*
X237850000Y-27550000D03*
X218350000Y-28050000D03*
X216850000Y-27550000D03*
X166500000Y-91050000D03*
X254450000Y-74250000D03*
X184450000Y-27550000D03*
X253950000Y-81750000D03*
X221350000Y-28050000D03*
X160500000Y-91050000D03*
X253950000Y-66750000D03*
X222850000Y-27550000D03*
X254000000Y-39800000D03*
X191950000Y-28050000D03*
X247425000Y-91050000D03*
X185950000Y-28050000D03*
D16*
X163825000Y-67925000D03*
D15*
X165000000Y-90550000D03*
X161950000Y-28050000D03*
X193450000Y-27550000D03*
%TO.N,+3V3*%
X239200000Y-84300000D03*
D16*
X168500000Y-57000000D03*
%TO.N,LS_SYS*%
X205700000Y-32700000D03*
X205200000Y-32700000D03*
X205700000Y-42100000D03*
X204000000Y-82300000D03*
X205200000Y-83500000D03*
X204700000Y-42100000D03*
X205200000Y-81100000D03*
D17*
X168125000Y-81875000D03*
D16*
X206400000Y-82300000D03*
X205200000Y-42100000D03*
X204700000Y-32700000D03*
D15*
%TO.N,Net-(C47-Pad2)*%
X159925000Y-59350000D03*
X159925000Y-60600000D03*
X159925000Y-58725000D03*
X159925000Y-59975000D03*
X159925000Y-58100000D03*
%TO.N,LS_WS_LDAT*%
X237000000Y-35600000D03*
D16*
%TO.N,Net-(D35-Pad1)*%
X165025000Y-66125000D03*
X164350000Y-66125000D03*
D15*
%TO.N,LS_JS_LED_NTC*%
X239200000Y-88200000D03*
D16*
%TO.N,LS_XP_LED_NTC*%
X166000000Y-55800000D03*
D15*
%TO.N,LS_WS_POWER*%
X247000000Y-36400000D03*
%TO.N,LS_PWM_PWR*%
X225200000Y-90550000D03*
X201000000Y-90550000D03*
X238700000Y-91050000D03*
X234200000Y-90550000D03*
X196500000Y-91050000D03*
X177000000Y-90550000D03*
X192000000Y-90550000D03*
X214700000Y-91050000D03*
X211700000Y-91050000D03*
X228200000Y-90550000D03*
X223700000Y-91050000D03*
X208700000Y-91050000D03*
X231200000Y-90550000D03*
X183000000Y-90550000D03*
X181500000Y-91050000D03*
X174000000Y-90550000D03*
X222200000Y-90550000D03*
X235700000Y-91050000D03*
X190500000Y-91050000D03*
X189000000Y-90550000D03*
X195000000Y-90550000D03*
X232700000Y-91050000D03*
X169500000Y-91050000D03*
X237200000Y-90550000D03*
X180000000Y-90550000D03*
X199500000Y-91050000D03*
X172500000Y-91050000D03*
X210200000Y-90550000D03*
X241700000Y-91050000D03*
X217700000Y-91050000D03*
X193500000Y-91050000D03*
X229700000Y-91050000D03*
X187500000Y-91050000D03*
X168000000Y-90550000D03*
X175500000Y-91050000D03*
X198000000Y-90550000D03*
X243200000Y-90550000D03*
X244650000Y-91050000D03*
X216200000Y-90550000D03*
X213200000Y-90550000D03*
X240200000Y-90550000D03*
X219200000Y-90550000D03*
X184500000Y-91050000D03*
X171000000Y-90550000D03*
X186000000Y-90550000D03*
X178500000Y-91050000D03*
X220700000Y-91050000D03*
X226700000Y-91050000D03*
D17*
%TO.N,PAD*%
X156450000Y-68300000D03*
X155950000Y-48800000D03*
X156450000Y-77300000D03*
X156450000Y-62300000D03*
X155950000Y-42800000D03*
X155950000Y-66800000D03*
X155950000Y-51800000D03*
X156450000Y-83300000D03*
X155950000Y-39800000D03*
X156450000Y-80300000D03*
X155950000Y-84800000D03*
X156450000Y-56300000D03*
X155950000Y-33800000D03*
X155950000Y-72800000D03*
X156450000Y-65300000D03*
X156450000Y-50300000D03*
X156450000Y-44300000D03*
X156450000Y-41300000D03*
X155950000Y-75800000D03*
X156450000Y-38300000D03*
X155950000Y-36800000D03*
X155950000Y-60800000D03*
X155950000Y-63800000D03*
X155950000Y-81800000D03*
X156450000Y-53300000D03*
X156450000Y-71300000D03*
X155950000Y-57800000D03*
X155950000Y-54800000D03*
X155950000Y-78800000D03*
X155950000Y-45800000D03*
X155950000Y-69800000D03*
X156450000Y-35300000D03*
X156450000Y-47300000D03*
X156450000Y-74300000D03*
%TD*%
D18*
%TO.N,+3V3*%
X241194308Y-57800000D02*
X246344308Y-62950000D01*
X246344308Y-62950000D02*
X251150000Y-62950000D01*
X251935000Y-63735000D02*
X253700000Y-63735000D01*
X251150000Y-62950000D02*
X251935000Y-63735000D01*
X168500000Y-57000000D02*
X169300000Y-57800000D01*
X169300000Y-57800000D02*
X241194308Y-57800000D01*
%TO.N,LS_XP_LED_NTC*%
X246675480Y-62150480D02*
X251049520Y-62150480D01*
X166000000Y-55800000D02*
X166300000Y-56100000D01*
X169849040Y-57000000D02*
X241525000Y-57000000D01*
X252005000Y-61195000D02*
X253700000Y-61195000D01*
X166300000Y-56100000D02*
X168949040Y-56100000D01*
X251049520Y-62150480D02*
X252005000Y-61195000D01*
X168949040Y-56100000D02*
X169849040Y-57000000D01*
X241525000Y-57000000D02*
X246675480Y-62150480D01*
D19*
%TO.N,LS_WS_POWER*%
X248125000Y-59925000D02*
X247000000Y-58800000D01*
X247000000Y-58800000D02*
X247000000Y-36400000D01*
X253700000Y-59925000D02*
X248125000Y-59925000D01*
%TD*%
%TA.AperFunction,Conductor*%
%TO.N,GND*%
G36*
X252680182Y-27001953D02*
G01*
X252685813Y-27001963D01*
X252699642Y-27005143D01*
X252713483Y-27002011D01*
X252727668Y-27002036D01*
X252727667Y-27002796D01*
X252735559Y-27002151D01*
X252888227Y-27011386D01*
X252969627Y-27016310D01*
X252984731Y-27018144D01*
X253242928Y-27065460D01*
X253257701Y-27069101D01*
X253508322Y-27147198D01*
X253522540Y-27152591D01*
X253761922Y-27260327D01*
X253775375Y-27267388D01*
X254000029Y-27403196D01*
X254012543Y-27411833D01*
X254219188Y-27573729D01*
X254230576Y-27583819D01*
X254416181Y-27769424D01*
X254426271Y-27780812D01*
X254588167Y-27987457D01*
X254596804Y-27999971D01*
X254732612Y-28224625D01*
X254739676Y-28238084D01*
X254847408Y-28477456D01*
X254852804Y-28491683D01*
X254930899Y-28742299D01*
X254934540Y-28757072D01*
X254981856Y-29015269D01*
X254983690Y-29030373D01*
X254997831Y-29264145D01*
X254998061Y-29271972D01*
X254998037Y-29285815D01*
X254994857Y-29299642D01*
X254997989Y-29313482D01*
X254997980Y-29318371D01*
X255000000Y-29336448D01*
X255000000Y-89262976D01*
X254998047Y-89280182D01*
X254998037Y-89285813D01*
X254994857Y-89299642D01*
X254997989Y-89313483D01*
X254997964Y-89327668D01*
X254997204Y-89327667D01*
X254997849Y-89335562D01*
X254983690Y-89569627D01*
X254981856Y-89584731D01*
X254934540Y-89842928D01*
X254930899Y-89857701D01*
X254859002Y-90088428D01*
X254852804Y-90108317D01*
X254847409Y-90122540D01*
X254826517Y-90168963D01*
X254739676Y-90361916D01*
X254732612Y-90375375D01*
X254596804Y-90600029D01*
X254588167Y-90612543D01*
X254426271Y-90819188D01*
X254416181Y-90830576D01*
X254230576Y-91016181D01*
X254219188Y-91026271D01*
X254012543Y-91188167D01*
X254000029Y-91196804D01*
X253775375Y-91332612D01*
X253761922Y-91339673D01*
X253522540Y-91447409D01*
X253508322Y-91452802D01*
X253336353Y-91506390D01*
X253257701Y-91530899D01*
X253242928Y-91534540D01*
X252984731Y-91581856D01*
X252969627Y-91583690D01*
X252735855Y-91597831D01*
X252728028Y-91598061D01*
X252714185Y-91598037D01*
X252700358Y-91594857D01*
X252686518Y-91597989D01*
X252681629Y-91597980D01*
X252663552Y-91600000D01*
X247126000Y-91600000D01*
X247057879Y-91579998D01*
X247011386Y-91526342D01*
X247000000Y-91474000D01*
X247000000Y-84850000D01*
X245276000Y-84850000D01*
X245207879Y-84829998D01*
X245161386Y-84776342D01*
X245150000Y-84724000D01*
X245150000Y-82050000D01*
X244926000Y-82050000D01*
X244857879Y-82029998D01*
X244811386Y-81976342D01*
X244800000Y-81924000D01*
X244800000Y-79626000D01*
X244820002Y-79557879D01*
X244873658Y-79511386D01*
X244926000Y-79500000D01*
X245150000Y-79500000D01*
X245150000Y-78900000D01*
X208426000Y-78900000D01*
X208357879Y-78879998D01*
X208311386Y-78826342D01*
X208300000Y-78774000D01*
X208300000Y-65270975D01*
X252727601Y-65270975D01*
X252756552Y-65371941D01*
X252761067Y-65383345D01*
X252845794Y-65548207D01*
X252852435Y-65558512D01*
X252967568Y-65703772D01*
X252976091Y-65712598D01*
X253117245Y-65832730D01*
X253127317Y-65839730D01*
X253289116Y-65930156D01*
X253300356Y-65935067D01*
X253428768Y-65976790D01*
X253442867Y-65977193D01*
X253446000Y-65970821D01*
X253446000Y-65277115D01*
X253444659Y-65272548D01*
X253954000Y-65272548D01*
X253954000Y-65962564D01*
X253957973Y-65976095D01*
X253966188Y-65977276D01*
X254060337Y-65950989D01*
X254071787Y-65946548D01*
X254237226Y-65862979D01*
X254247585Y-65856404D01*
X254393639Y-65742295D01*
X254402527Y-65733831D01*
X254523643Y-65593517D01*
X254530711Y-65583497D01*
X254622262Y-65422337D01*
X254627256Y-65411121D01*
X254672142Y-65276190D01*
X254672643Y-65262097D01*
X254666454Y-65259000D01*
X253972115Y-65259000D01*
X253956876Y-65263475D01*
X253955671Y-65264865D01*
X253954000Y-65272548D01*
X253444659Y-65272548D01*
X253441525Y-65261876D01*
X253440135Y-65260671D01*
X253432452Y-65259000D01*
X252742282Y-65259000D01*
X252728751Y-65262973D01*
X252727601Y-65270975D01*
X208300000Y-65270975D01*
X208300000Y-58426500D01*
X208320002Y-58358379D01*
X208373658Y-58311886D01*
X208426000Y-58300500D01*
X240934804Y-58300500D01*
X241002925Y-58320502D01*
X241023899Y-58337405D01*
X245940773Y-63254278D01*
X245948240Y-63263624D01*
X245948630Y-63263292D01*
X245954448Y-63270128D01*
X245959238Y-63277720D01*
X245965966Y-63283662D01*
X245965967Y-63283663D01*
X245998917Y-63312763D01*
X246004605Y-63318110D01*
X246015815Y-63329320D01*
X246019401Y-63332008D01*
X246019404Y-63332010D01*
X246023985Y-63335444D01*
X246031826Y-63341827D01*
X246066696Y-63372623D01*
X246074821Y-63376438D01*
X246077991Y-63378520D01*
X246090978Y-63386323D01*
X246094302Y-63388143D01*
X246101484Y-63393526D01*
X246109885Y-63396675D01*
X246109886Y-63396676D01*
X246145044Y-63409856D01*
X246154361Y-63413783D01*
X246188342Y-63429737D01*
X246188345Y-63429738D01*
X246196471Y-63433553D01*
X246205345Y-63434935D01*
X246208958Y-63436039D01*
X246223615Y-63439885D01*
X246227318Y-63440699D01*
X246235728Y-63443852D01*
X246282151Y-63447302D01*
X246292164Y-63448452D01*
X246305317Y-63450500D01*
X246320512Y-63450500D01*
X246329850Y-63450846D01*
X246378700Y-63454476D01*
X246387476Y-63452603D01*
X246396433Y-63451992D01*
X246396433Y-63451998D01*
X246410626Y-63450500D01*
X250890496Y-63450500D01*
X250958617Y-63470502D01*
X250979591Y-63487405D01*
X251531466Y-64039280D01*
X251538932Y-64048624D01*
X251539322Y-64048292D01*
X251545140Y-64055128D01*
X251549930Y-64062720D01*
X251556658Y-64068662D01*
X251556659Y-64068663D01*
X251589600Y-64097755D01*
X251595288Y-64103102D01*
X251606507Y-64114321D01*
X251610095Y-64117010D01*
X251610096Y-64117011D01*
X251614684Y-64120450D01*
X251622523Y-64126832D01*
X251657388Y-64157623D01*
X251665506Y-64161434D01*
X251668659Y-64163506D01*
X251681680Y-64171329D01*
X251684989Y-64173141D01*
X251692176Y-64178527D01*
X251700581Y-64181678D01*
X251700583Y-64181679D01*
X251735737Y-64194857D01*
X251745057Y-64198784D01*
X251787163Y-64218553D01*
X251796035Y-64219934D01*
X251799658Y-64221042D01*
X251814317Y-64224888D01*
X251818014Y-64225701D01*
X251826420Y-64228852D01*
X251872843Y-64232302D01*
X251882856Y-64233452D01*
X251896009Y-64235500D01*
X251911204Y-64235500D01*
X251920542Y-64235846D01*
X251969392Y-64239476D01*
X251978168Y-64237603D01*
X251987125Y-64236992D01*
X251987125Y-64236998D01*
X252001318Y-64235500D01*
X252761076Y-64235500D01*
X252829197Y-64255502D01*
X252875690Y-64309158D01*
X252885794Y-64379432D01*
X252865043Y-64432682D01*
X252861291Y-64438162D01*
X252771998Y-64600585D01*
X252767166Y-64611858D01*
X252728506Y-64733731D01*
X252728202Y-64747831D01*
X252734763Y-64751000D01*
X254658183Y-64751000D01*
X254671714Y-64747027D01*
X254672806Y-64739433D01*
X254638231Y-64624919D01*
X254633560Y-64613586D01*
X254546540Y-64449923D01*
X254539751Y-64439706D01*
X254422603Y-64296067D01*
X254413959Y-64287363D01*
X254347576Y-64232447D01*
X254307838Y-64173614D01*
X254306215Y-64102635D01*
X254316089Y-64078108D01*
X254318361Y-64074947D01*
X254321192Y-64067904D01*
X254321194Y-64067901D01*
X254378766Y-63924687D01*
X254378767Y-63924685D01*
X254381601Y-63917634D01*
X254405490Y-63749778D01*
X254405645Y-63735000D01*
X254385276Y-63566680D01*
X254325345Y-63408077D01*
X254277509Y-63338475D01*
X254233614Y-63274608D01*
X254233613Y-63274607D01*
X254229312Y-63268349D01*
X254223637Y-63263292D01*
X254145663Y-63193820D01*
X254108107Y-63133570D01*
X254109088Y-63062580D01*
X254147652Y-63003933D01*
X254213648Y-62947567D01*
X254213651Y-62947564D01*
X254219423Y-62942634D01*
X254318361Y-62804947D01*
X254326237Y-62785356D01*
X254378766Y-62654687D01*
X254378767Y-62654685D01*
X254381601Y-62647634D01*
X254393857Y-62561520D01*
X254404909Y-62483862D01*
X254404909Y-62483859D01*
X254405490Y-62479778D01*
X254405645Y-62465000D01*
X254403840Y-62450080D01*
X254386188Y-62304220D01*
X254385276Y-62296680D01*
X254325345Y-62138077D01*
X254229312Y-61998349D01*
X254145663Y-61923820D01*
X254108107Y-61863570D01*
X254109088Y-61792580D01*
X254147652Y-61733933D01*
X254213648Y-61677567D01*
X254213651Y-61677564D01*
X254219423Y-61672634D01*
X254318361Y-61534947D01*
X254381601Y-61377634D01*
X254405490Y-61209778D01*
X254405645Y-61195000D01*
X254385276Y-61026680D01*
X254325345Y-60868077D01*
X254317554Y-60856741D01*
X254233614Y-60734608D01*
X254233613Y-60734607D01*
X254229312Y-60728349D01*
X254187372Y-60690981D01*
X254145663Y-60653820D01*
X254108107Y-60593570D01*
X254109088Y-60522580D01*
X254147652Y-60463933D01*
X254213648Y-60407567D01*
X254213651Y-60407564D01*
X254219423Y-60402634D01*
X254318361Y-60264947D01*
X254381601Y-60107634D01*
X254405490Y-59939778D01*
X254405645Y-59925000D01*
X254385276Y-59756680D01*
X254325345Y-59598077D01*
X254229312Y-59458349D01*
X254145663Y-59383820D01*
X254108107Y-59323570D01*
X254109088Y-59252580D01*
X254147652Y-59193933D01*
X254213648Y-59137567D01*
X254213651Y-59137564D01*
X254219423Y-59132634D01*
X254318361Y-58994947D01*
X254326237Y-58975356D01*
X254378766Y-58844687D01*
X254378767Y-58844685D01*
X254381601Y-58837634D01*
X254405490Y-58669778D01*
X254405645Y-58655000D01*
X254403840Y-58640080D01*
X254397558Y-58588170D01*
X254385276Y-58486680D01*
X254325345Y-58328077D01*
X254229312Y-58188349D01*
X254145663Y-58113820D01*
X254108107Y-58053570D01*
X254109088Y-57982580D01*
X254147652Y-57923933D01*
X254213648Y-57867567D01*
X254213651Y-57867564D01*
X254219423Y-57862634D01*
X254318361Y-57724947D01*
X254326237Y-57705356D01*
X254378766Y-57574687D01*
X254378767Y-57574685D01*
X254381601Y-57567634D01*
X254405490Y-57399778D01*
X254405645Y-57385000D01*
X254403840Y-57370080D01*
X254386188Y-57224220D01*
X254385276Y-57216680D01*
X254325345Y-57058077D01*
X254229312Y-56918349D01*
X254145663Y-56843820D01*
X254108107Y-56783570D01*
X254109088Y-56712580D01*
X254147652Y-56653933D01*
X254213648Y-56597567D01*
X254213651Y-56597564D01*
X254219423Y-56592634D01*
X254318361Y-56454947D01*
X254326237Y-56435356D01*
X254378766Y-56304687D01*
X254378767Y-56304685D01*
X254381601Y-56297634D01*
X254405490Y-56129778D01*
X254405645Y-56115000D01*
X254403840Y-56100080D01*
X254386188Y-55954220D01*
X254385276Y-55946680D01*
X254325345Y-55788077D01*
X254229312Y-55648349D01*
X254145663Y-55573820D01*
X254108107Y-55513570D01*
X254109088Y-55442580D01*
X254147652Y-55383933D01*
X254213648Y-55327567D01*
X254213651Y-55327564D01*
X254219423Y-55322634D01*
X254318361Y-55184947D01*
X254326237Y-55165356D01*
X254378766Y-55034687D01*
X254378767Y-55034685D01*
X254381601Y-55027634D01*
X254405490Y-54859778D01*
X254405645Y-54845000D01*
X254404751Y-54837611D01*
X254386189Y-54684223D01*
X254386189Y-54684221D01*
X254385276Y-54676680D01*
X254382591Y-54669574D01*
X254381687Y-54665894D01*
X254384863Y-54594969D01*
X254425880Y-54537019D01*
X254443542Y-54525319D01*
X254453649Y-54519786D01*
X254555724Y-54443285D01*
X254568285Y-54430724D01*
X254644786Y-54328649D01*
X254653324Y-54313054D01*
X254698478Y-54192606D01*
X254702105Y-54177351D01*
X254707631Y-54126486D01*
X254708000Y-54119672D01*
X254708000Y-53847115D01*
X254703525Y-53831876D01*
X254702135Y-53830671D01*
X254694452Y-53829000D01*
X252710116Y-53829000D01*
X252694877Y-53833475D01*
X252693672Y-53834865D01*
X252692001Y-53842548D01*
X252692001Y-54119669D01*
X252692371Y-54126490D01*
X252697895Y-54177352D01*
X252701521Y-54192604D01*
X252746676Y-54313054D01*
X252755214Y-54328649D01*
X252831715Y-54430724D01*
X252844276Y-54443285D01*
X252946353Y-54519787D01*
X252956523Y-54525355D01*
X253006670Y-54575612D01*
X253021685Y-54645003D01*
X253018516Y-54664405D01*
X253016524Y-54669513D01*
X252994394Y-54837611D01*
X253012999Y-55006135D01*
X253071266Y-55165356D01*
X253075502Y-55171659D01*
X253075502Y-55171660D01*
X253088574Y-55191113D01*
X253165830Y-55306083D01*
X253171446Y-55311193D01*
X253254958Y-55387184D01*
X253291880Y-55447824D01*
X253290157Y-55518800D01*
X253252987Y-55575326D01*
X253175604Y-55642831D01*
X253078113Y-55781547D01*
X253016524Y-55939513D01*
X252994394Y-56107611D01*
X253012999Y-56276135D01*
X253071266Y-56435356D01*
X253075502Y-56441659D01*
X253075502Y-56441660D01*
X253088574Y-56461113D01*
X253165830Y-56576083D01*
X253171446Y-56581193D01*
X253254958Y-56657184D01*
X253291880Y-56717824D01*
X253290157Y-56788800D01*
X253252987Y-56845326D01*
X253175604Y-56912831D01*
X253078113Y-57051547D01*
X253016524Y-57209513D01*
X252994394Y-57377611D01*
X253012999Y-57546135D01*
X253071266Y-57705356D01*
X253075502Y-57711659D01*
X253075502Y-57711660D01*
X253088574Y-57731113D01*
X253165830Y-57846083D01*
X253171446Y-57851193D01*
X253254958Y-57927184D01*
X253291880Y-57987824D01*
X253290157Y-58058800D01*
X253252987Y-58115326D01*
X253175604Y-58182831D01*
X253171237Y-58189045D01*
X253084903Y-58311886D01*
X253078113Y-58321547D01*
X253016524Y-58479513D01*
X253015532Y-58487046D01*
X253015532Y-58487047D01*
X253010423Y-58525858D01*
X252994394Y-58647611D01*
X253012999Y-58816135D01*
X253020867Y-58837634D01*
X253064462Y-58956762D01*
X253071266Y-58975356D01*
X253075502Y-58981659D01*
X253075502Y-58981660D01*
X253151805Y-59095211D01*
X253165830Y-59116083D01*
X253167945Y-59118007D01*
X253196479Y-59180805D01*
X253186242Y-59251060D01*
X253139648Y-59304627D01*
X253071728Y-59324500D01*
X248425925Y-59324500D01*
X248357804Y-59304498D01*
X248336830Y-59287595D01*
X247637405Y-58588170D01*
X247603379Y-58525858D01*
X247600500Y-58499075D01*
X247600500Y-53030328D01*
X252692000Y-53030328D01*
X252692000Y-53302885D01*
X252696475Y-53318124D01*
X252697865Y-53319329D01*
X252705548Y-53321000D01*
X253427885Y-53321000D01*
X253443124Y-53316525D01*
X253444329Y-53315135D01*
X253446000Y-53307452D01*
X253446000Y-52585116D01*
X253444659Y-52580548D01*
X253954000Y-52580548D01*
X253954000Y-53302885D01*
X253958475Y-53318124D01*
X253959865Y-53319329D01*
X253967548Y-53321000D01*
X254689884Y-53321000D01*
X254705123Y-53316525D01*
X254706328Y-53315135D01*
X254707999Y-53307452D01*
X254707999Y-53030331D01*
X254707629Y-53023510D01*
X254702105Y-52972648D01*
X254698479Y-52957396D01*
X254653324Y-52836946D01*
X254644786Y-52821351D01*
X254568285Y-52719276D01*
X254555724Y-52706715D01*
X254453649Y-52630214D01*
X254438054Y-52621676D01*
X254317606Y-52576522D01*
X254302351Y-52572895D01*
X254251486Y-52567369D01*
X254244672Y-52567000D01*
X253972115Y-52567000D01*
X253956876Y-52571475D01*
X253955671Y-52572865D01*
X253954000Y-52580548D01*
X253444659Y-52580548D01*
X253441525Y-52569877D01*
X253440135Y-52568672D01*
X253432452Y-52567001D01*
X253155331Y-52567001D01*
X253148510Y-52567371D01*
X253097648Y-52572895D01*
X253082396Y-52576521D01*
X252961946Y-52621676D01*
X252946351Y-52630214D01*
X252844276Y-52706715D01*
X252831715Y-52719276D01*
X252755214Y-52821351D01*
X252746676Y-52836946D01*
X252701522Y-52957394D01*
X252697895Y-52972649D01*
X252692369Y-53023514D01*
X252692000Y-53030328D01*
X247600500Y-53030328D01*
X247600500Y-36360639D01*
X247585044Y-36243238D01*
X247524536Y-36097159D01*
X247428282Y-35971718D01*
X247302841Y-35875464D01*
X247156762Y-35814956D01*
X247000000Y-35794318D01*
X246843238Y-35814956D01*
X246697159Y-35875464D01*
X246571718Y-35971718D01*
X246475464Y-36097159D01*
X246414956Y-36243238D01*
X246399500Y-36360639D01*
X246399500Y-58752381D01*
X246398422Y-58768827D01*
X246394318Y-58800000D01*
X246399500Y-58839361D01*
X246414956Y-58956762D01*
X246475464Y-59102841D01*
X246571718Y-59228282D01*
X246578264Y-59233305D01*
X246596671Y-59247429D01*
X246609062Y-59258297D01*
X247666703Y-60315938D01*
X247677570Y-60328328D01*
X247696718Y-60353282D01*
X247761035Y-60402634D01*
X247822159Y-60449536D01*
X247968238Y-60510044D01*
X248125000Y-60530682D01*
X248133188Y-60529604D01*
X248156173Y-60526578D01*
X248172619Y-60525500D01*
X251686612Y-60525500D01*
X251754733Y-60545502D01*
X251801226Y-60599158D01*
X251811330Y-60669432D01*
X251781836Y-60734012D01*
X251747702Y-60759521D01*
X251748305Y-60760464D01*
X251740739Y-60765302D01*
X251732572Y-60769016D01*
X251725777Y-60774871D01*
X251725774Y-60774873D01*
X251697325Y-60799387D01*
X251689405Y-60805675D01*
X251678664Y-60813522D01*
X251667921Y-60824265D01*
X251661075Y-60830623D01*
X251623963Y-60862600D01*
X251619080Y-60870134D01*
X251613181Y-60876896D01*
X251613176Y-60876892D01*
X251604200Y-60887986D01*
X250879111Y-61613075D01*
X250816799Y-61647101D01*
X250790016Y-61649980D01*
X246934984Y-61649980D01*
X246866863Y-61629978D01*
X246845889Y-61613075D01*
X241928534Y-56695720D01*
X241921068Y-56686376D01*
X241920678Y-56686708D01*
X241914860Y-56679872D01*
X241910070Y-56672280D01*
X241870399Y-56637244D01*
X241864712Y-56631898D01*
X241853494Y-56620680D01*
X241849905Y-56617990D01*
X241845316Y-56614550D01*
X241837477Y-56608168D01*
X241809339Y-56583318D01*
X241802612Y-56577377D01*
X241794489Y-56573563D01*
X241791336Y-56571492D01*
X241778324Y-56563673D01*
X241775005Y-56561856D01*
X241767824Y-56556474D01*
X241724261Y-56540143D01*
X241714947Y-56536217D01*
X241680966Y-56520263D01*
X241680963Y-56520262D01*
X241672837Y-56516447D01*
X241663963Y-56515065D01*
X241660350Y-56513961D01*
X241645693Y-56510115D01*
X241641990Y-56509301D01*
X241633580Y-56506148D01*
X241587157Y-56502698D01*
X241577144Y-56501548D01*
X241563991Y-56499500D01*
X241548796Y-56499500D01*
X241539459Y-56499154D01*
X241524036Y-56498008D01*
X241490608Y-56495524D01*
X241481832Y-56497397D01*
X241472875Y-56498008D01*
X241472875Y-56498002D01*
X241458682Y-56499500D01*
X208426000Y-56499500D01*
X208357879Y-56479498D01*
X208311386Y-56425842D01*
X208300000Y-56373500D01*
X208300000Y-35593823D01*
X236494391Y-35593823D01*
X236495555Y-35602725D01*
X236495555Y-35602728D01*
X236496814Y-35612354D01*
X236512980Y-35735979D01*
X236570720Y-35867203D01*
X236576497Y-35874076D01*
X236576498Y-35874077D01*
X236577664Y-35875464D01*
X236662970Y-35976948D01*
X236782313Y-36056390D01*
X236919157Y-36099142D01*
X236928129Y-36099306D01*
X236928132Y-36099307D01*
X236993463Y-36100504D01*
X237062499Y-36101770D01*
X237071533Y-36099307D01*
X237192158Y-36066421D01*
X237192160Y-36066420D01*
X237200817Y-36064060D01*
X237322991Y-35989045D01*
X237332750Y-35978264D01*
X237413178Y-35889407D01*
X237419200Y-35882754D01*
X237454089Y-35810743D01*
X237477795Y-35761814D01*
X237477795Y-35761813D01*
X237481710Y-35753733D01*
X237505496Y-35612354D01*
X237505647Y-35600000D01*
X237485323Y-35458082D01*
X237425984Y-35327572D01*
X237407598Y-35306234D01*
X237338260Y-35225763D01*
X237338257Y-35225760D01*
X237332400Y-35218963D01*
X237212095Y-35140985D01*
X237074739Y-35099907D01*
X237065763Y-35099852D01*
X237065762Y-35099852D01*
X237005555Y-35099484D01*
X236931376Y-35099031D01*
X236793529Y-35138428D01*
X236672280Y-35214930D01*
X236577377Y-35322388D01*
X236516447Y-35452163D01*
X236494391Y-35593823D01*
X208300000Y-35593823D01*
X208300000Y-27126000D01*
X208320002Y-27057879D01*
X208373658Y-27011386D01*
X208426000Y-27000000D01*
X252662976Y-27000000D01*
X252680182Y-27001953D01*
G37*
%TD.AperFunction*%
%TD*%
%TA.AperFunction,Conductor*%
%TO.N,GND*%
G36*
X202042121Y-58320502D02*
G01*
X202088614Y-58374158D01*
X202100000Y-58426500D01*
X202100000Y-78774000D01*
X202079998Y-78842121D01*
X202026342Y-78888614D01*
X201974000Y-78900000D01*
X166900000Y-78900000D01*
X166900000Y-91474000D01*
X166879998Y-91542121D01*
X166826342Y-91588614D01*
X166774000Y-91600000D01*
X157737024Y-91600000D01*
X157719818Y-91598047D01*
X157714187Y-91598037D01*
X157700358Y-91594857D01*
X157686517Y-91597989D01*
X157672332Y-91597964D01*
X157672333Y-91597204D01*
X157664441Y-91597849D01*
X157496228Y-91587674D01*
X157430373Y-91583690D01*
X157415269Y-91581856D01*
X157157072Y-91534540D01*
X157142299Y-91530899D01*
X157063647Y-91506390D01*
X156891678Y-91452802D01*
X156877460Y-91447409D01*
X156638078Y-91339673D01*
X156624625Y-91332612D01*
X156399971Y-91196804D01*
X156387457Y-91188167D01*
X156180812Y-91026271D01*
X156169424Y-91016181D01*
X155983819Y-90830576D01*
X155973729Y-90819188D01*
X155811833Y-90612543D01*
X155803196Y-90600029D01*
X155667388Y-90375375D01*
X155660324Y-90361916D01*
X155573484Y-90168963D01*
X155552591Y-90122540D01*
X155547196Y-90108317D01*
X155540999Y-90088428D01*
X155469101Y-89857701D01*
X155465460Y-89842928D01*
X155418144Y-89584731D01*
X155416310Y-89569627D01*
X155402188Y-89336169D01*
X155402784Y-89314157D01*
X155403530Y-89307670D01*
X155405142Y-89300716D01*
X155405143Y-89300000D01*
X155403154Y-89291282D01*
X155400000Y-89263267D01*
X155400000Y-86726000D01*
X155420002Y-86657879D01*
X155473658Y-86611386D01*
X155526000Y-86600000D01*
X158700000Y-86600000D01*
X158700000Y-66826000D01*
X158720002Y-66757879D01*
X158773658Y-66711386D01*
X158826000Y-66700000D01*
X169575000Y-66700000D01*
X169575000Y-58426500D01*
X169595002Y-58358379D01*
X169648658Y-58311886D01*
X169701000Y-58300500D01*
X201974000Y-58300500D01*
X202042121Y-58320502D01*
G37*
%TD.AperFunction*%
%TA.AperFunction,Conductor*%
G36*
X202042121Y-27020002D02*
G01*
X202088614Y-27073658D01*
X202100000Y-27126000D01*
X202100000Y-56373500D01*
X202079998Y-56441621D01*
X202026342Y-56488114D01*
X201974000Y-56499500D01*
X170108544Y-56499500D01*
X170040423Y-56479498D01*
X170019449Y-56462595D01*
X169611905Y-56055051D01*
X169577879Y-55992739D01*
X169575000Y-55965956D01*
X169575000Y-51800000D01*
X158826000Y-51800000D01*
X158757879Y-51779998D01*
X158711386Y-51726342D01*
X158700000Y-51674000D01*
X158700000Y-32000000D01*
X155526000Y-32000000D01*
X155457879Y-31979998D01*
X155411386Y-31926342D01*
X155400000Y-31874000D01*
X155400000Y-29337312D01*
X155403254Y-29308860D01*
X155405142Y-29300716D01*
X155405143Y-29300000D01*
X155403560Y-29293060D01*
X155402769Y-29285990D01*
X155403963Y-29285856D01*
X155402168Y-29264153D01*
X155416310Y-29030373D01*
X155418144Y-29015269D01*
X155465460Y-28757072D01*
X155469101Y-28742299D01*
X155547196Y-28491683D01*
X155552592Y-28477456D01*
X155660324Y-28238084D01*
X155667388Y-28224625D01*
X155803196Y-27999971D01*
X155811833Y-27987457D01*
X155973729Y-27780812D01*
X155983819Y-27769424D01*
X156169424Y-27583819D01*
X156180812Y-27573729D01*
X156387457Y-27411833D01*
X156399971Y-27403196D01*
X156624625Y-27267388D01*
X156638078Y-27260327D01*
X156877460Y-27152591D01*
X156891678Y-27147198D01*
X157142299Y-27069101D01*
X157157072Y-27065460D01*
X157415269Y-27018144D01*
X157430373Y-27016310D01*
X157664145Y-27002169D01*
X157671972Y-27001939D01*
X157685815Y-27001963D01*
X157699642Y-27005143D01*
X157713482Y-27002011D01*
X157718371Y-27002020D01*
X157736448Y-27000000D01*
X201974000Y-27000000D01*
X202042121Y-27020002D01*
G37*
%TD.AperFunction*%
%TD*%
%TA.AperFunction,Conductor*%
%TO.N,LS_PWM_PWR*%
G36*
X202042121Y-85420002D02*
G01*
X202088614Y-85473658D01*
X202100000Y-85526000D01*
X202100000Y-91674000D01*
X202079998Y-91742121D01*
X202026342Y-91788614D01*
X201974000Y-91800000D01*
X167626000Y-91800000D01*
X167557879Y-91779998D01*
X167511386Y-91726342D01*
X167500000Y-91674000D01*
X167500000Y-85526000D01*
X167520002Y-85457879D01*
X167573658Y-85411386D01*
X167626000Y-85400000D01*
X201974000Y-85400000D01*
X202042121Y-85420002D01*
G37*
%TD.AperFunction*%
%TD*%
%TA.AperFunction,Conductor*%
%TO.N,PAD*%
G36*
X157642121Y-33020002D02*
G01*
X157688614Y-33073658D01*
X157700000Y-33126000D01*
X157700000Y-52400000D01*
X168849000Y-52400000D01*
X168917121Y-52420002D01*
X168963614Y-52473658D01*
X168975000Y-52526000D01*
X168975000Y-55473500D01*
X168954998Y-55541621D01*
X168901342Y-55588114D01*
X168849000Y-55599500D01*
X166559504Y-55599500D01*
X166491383Y-55579498D01*
X166470409Y-55562595D01*
X166328494Y-55420680D01*
X166242824Y-55356474D01*
X166108580Y-55306148D01*
X165965608Y-55295524D01*
X165956834Y-55297397D01*
X165956833Y-55297397D01*
X165918955Y-55305483D01*
X165825401Y-55325454D01*
X165699229Y-55393532D01*
X165597237Y-55494286D01*
X165592879Y-55502132D01*
X165538796Y-55599500D01*
X165527622Y-55619616D01*
X165495981Y-55759447D01*
X165504859Y-55902538D01*
X165553540Y-56037387D01*
X165618522Y-56126336D01*
X165896466Y-56404280D01*
X165903932Y-56413624D01*
X165904322Y-56413292D01*
X165910140Y-56420128D01*
X165914930Y-56427720D01*
X165921658Y-56433662D01*
X165921659Y-56433663D01*
X165954600Y-56462755D01*
X165960288Y-56468102D01*
X165971506Y-56479320D01*
X165975094Y-56482009D01*
X165975095Y-56482010D01*
X165979684Y-56485450D01*
X165987523Y-56491832D01*
X166022388Y-56522623D01*
X166030511Y-56526437D01*
X166033664Y-56528508D01*
X166046676Y-56536327D01*
X166049994Y-56538143D01*
X166057176Y-56543526D01*
X166100741Y-56559858D01*
X166110050Y-56563780D01*
X166152163Y-56583553D01*
X166161036Y-56584935D01*
X166164658Y-56586042D01*
X166179328Y-56589891D01*
X166183017Y-56590702D01*
X166191419Y-56593852D01*
X166200364Y-56594517D01*
X166200374Y-56594519D01*
X166237828Y-56597302D01*
X166247855Y-56598452D01*
X166261009Y-56600500D01*
X166276204Y-56600500D01*
X166285542Y-56600846D01*
X166334392Y-56604476D01*
X166343168Y-56602603D01*
X166352125Y-56601992D01*
X166352125Y-56601998D01*
X166366318Y-56600500D01*
X167935211Y-56600500D01*
X168003332Y-56620502D01*
X168049825Y-56674158D01*
X168059929Y-56744432D01*
X168045359Y-56787683D01*
X168027622Y-56819616D01*
X167995981Y-56959447D01*
X168004859Y-57102538D01*
X168053540Y-57237387D01*
X168058836Y-57244636D01*
X168111298Y-57316447D01*
X168118522Y-57326336D01*
X168511150Y-57718963D01*
X168896466Y-58104279D01*
X168903933Y-58113623D01*
X168904322Y-58113292D01*
X168910140Y-58120128D01*
X168914930Y-58127720D01*
X168921658Y-58133662D01*
X168921659Y-58133663D01*
X168932407Y-58143155D01*
X168970226Y-58203241D01*
X168975000Y-58237597D01*
X168975000Y-65974000D01*
X168954998Y-66042121D01*
X168901342Y-66088614D01*
X168849000Y-66100000D01*
X165559459Y-66100000D01*
X165491338Y-66079998D01*
X165444845Y-66026342D01*
X165440169Y-66010829D01*
X165439335Y-66011100D01*
X165436270Y-66001667D01*
X165434719Y-65991874D01*
X165373528Y-65871780D01*
X165278220Y-65776472D01*
X165158126Y-65715281D01*
X165148337Y-65713731D01*
X165148335Y-65713730D01*
X165034793Y-65695747D01*
X165025000Y-65694196D01*
X165015207Y-65695747D01*
X164901665Y-65713730D01*
X164901663Y-65713731D01*
X164891874Y-65715281D01*
X164771780Y-65776472D01*
X164764764Y-65783488D01*
X164761564Y-65785813D01*
X164694697Y-65809673D01*
X164625545Y-65793595D01*
X164613436Y-65785813D01*
X164610236Y-65783488D01*
X164603220Y-65776472D01*
X164483126Y-65715281D01*
X164473337Y-65713731D01*
X164473335Y-65713730D01*
X164359793Y-65695747D01*
X164350000Y-65694196D01*
X164340207Y-65695747D01*
X164226665Y-65713730D01*
X164226663Y-65713731D01*
X164216874Y-65715281D01*
X164096780Y-65776472D01*
X164001472Y-65871780D01*
X163940281Y-65991874D01*
X163938730Y-66001667D01*
X163935665Y-66011100D01*
X163932271Y-66009997D01*
X163909568Y-66057874D01*
X163849296Y-66095394D01*
X163815541Y-66100000D01*
X157700000Y-66100000D01*
X157700000Y-85474000D01*
X157679998Y-85542121D01*
X157626342Y-85588614D01*
X157574000Y-85600000D01*
X155326000Y-85600000D01*
X155257879Y-85579998D01*
X155211386Y-85526342D01*
X155200000Y-85474000D01*
X155200000Y-59300000D01*
X157188482Y-59300000D01*
X157189560Y-59308188D01*
X157194431Y-59345184D01*
X157208467Y-59451802D01*
X157267061Y-59593259D01*
X157360269Y-59714731D01*
X157481741Y-59807939D01*
X157489367Y-59811098D01*
X157489369Y-59811099D01*
X157508538Y-59819039D01*
X157623198Y-59866533D01*
X157631382Y-59867610D01*
X157631384Y-59867611D01*
X157732797Y-59880962D01*
X157736884Y-59881500D01*
X157813116Y-59881500D01*
X157817203Y-59880962D01*
X157918616Y-59867611D01*
X157918618Y-59867610D01*
X157926802Y-59866533D01*
X158041462Y-59819039D01*
X158060631Y-59811099D01*
X158060633Y-59811098D01*
X158068259Y-59807939D01*
X158189731Y-59714731D01*
X158282939Y-59593259D01*
X158341533Y-59451802D01*
X158355570Y-59345184D01*
X158360440Y-59308188D01*
X158361518Y-59300000D01*
X158348638Y-59202163D01*
X158342611Y-59156384D01*
X158342610Y-59156382D01*
X158341533Y-59148198D01*
X158316673Y-59088182D01*
X158286099Y-59014369D01*
X158286098Y-59014367D01*
X158282939Y-59006741D01*
X158189731Y-58885269D01*
X158068259Y-58792061D01*
X158060633Y-58788902D01*
X158060631Y-58788901D01*
X157934428Y-58736626D01*
X157934429Y-58736626D01*
X157926802Y-58733467D01*
X157918618Y-58732390D01*
X157918616Y-58732389D01*
X157817203Y-58719038D01*
X157817202Y-58719038D01*
X157813116Y-58718500D01*
X157736884Y-58718500D01*
X157732798Y-58719038D01*
X157732797Y-58719038D01*
X157631384Y-58732389D01*
X157631382Y-58732390D01*
X157623198Y-58733467D01*
X157615571Y-58736626D01*
X157615572Y-58736626D01*
X157489369Y-58788901D01*
X157489367Y-58788902D01*
X157481741Y-58792061D01*
X157360269Y-58885269D01*
X157267061Y-59006741D01*
X157263902Y-59014367D01*
X157263901Y-59014369D01*
X157233327Y-59088182D01*
X157208467Y-59148198D01*
X157207390Y-59156382D01*
X157207389Y-59156384D01*
X157201362Y-59202163D01*
X157188482Y-59300000D01*
X155200000Y-59300000D01*
X155200000Y-58093823D01*
X159419391Y-58093823D01*
X159420555Y-58102725D01*
X159420555Y-58102728D01*
X159425842Y-58143155D01*
X159437980Y-58235979D01*
X159490832Y-58356093D01*
X159494081Y-58363477D01*
X159503209Y-58433884D01*
X159492809Y-58467768D01*
X159441447Y-58577163D01*
X159419391Y-58718823D01*
X159420555Y-58727725D01*
X159420555Y-58727728D01*
X159421306Y-58733467D01*
X159437980Y-58860979D01*
X159490832Y-58981093D01*
X159494081Y-58988477D01*
X159503209Y-59058884D01*
X159492809Y-59092768D01*
X159441447Y-59202163D01*
X159419391Y-59343823D01*
X159420555Y-59352725D01*
X159420555Y-59352728D01*
X159421814Y-59362354D01*
X159437980Y-59485979D01*
X159490832Y-59606093D01*
X159494081Y-59613477D01*
X159503209Y-59683884D01*
X159492809Y-59717768D01*
X159441447Y-59827163D01*
X159419391Y-59968823D01*
X159420555Y-59977725D01*
X159420555Y-59977728D01*
X159421814Y-59987354D01*
X159437980Y-60110979D01*
X159490832Y-60231093D01*
X159494081Y-60238477D01*
X159503209Y-60308884D01*
X159492809Y-60342768D01*
X159441447Y-60452163D01*
X159419391Y-60593823D01*
X159420555Y-60602725D01*
X159420555Y-60602728D01*
X159421814Y-60612354D01*
X159437980Y-60735979D01*
X159495720Y-60867203D01*
X159501497Y-60874076D01*
X159501498Y-60874077D01*
X159508792Y-60882754D01*
X159587970Y-60976948D01*
X159707313Y-61056390D01*
X159844157Y-61099142D01*
X159853129Y-61099306D01*
X159853132Y-61099307D01*
X159918463Y-61100504D01*
X159987499Y-61101770D01*
X159996533Y-61099307D01*
X160117158Y-61066421D01*
X160117160Y-61066420D01*
X160125817Y-61064060D01*
X160247991Y-60989045D01*
X160344200Y-60882754D01*
X160406710Y-60753733D01*
X160430496Y-60612354D01*
X160430647Y-60600000D01*
X160410323Y-60458082D01*
X160355808Y-60338182D01*
X160345822Y-60267891D01*
X160357117Y-60231093D01*
X160402795Y-60136814D01*
X160402795Y-60136813D01*
X160406710Y-60128733D01*
X160430496Y-59987354D01*
X160430647Y-59975000D01*
X160415268Y-59867611D01*
X160411596Y-59841968D01*
X160411595Y-59841965D01*
X160410323Y-59833082D01*
X160355808Y-59713182D01*
X160345822Y-59642891D01*
X160357117Y-59606093D01*
X160402795Y-59511814D01*
X160402795Y-59511813D01*
X160406710Y-59503733D01*
X160430496Y-59362354D01*
X160430647Y-59350000D01*
X160423487Y-59300000D01*
X165788482Y-59300000D01*
X165789560Y-59308188D01*
X165794431Y-59345184D01*
X165808467Y-59451802D01*
X165867061Y-59593259D01*
X165960269Y-59714731D01*
X166081741Y-59807939D01*
X166089367Y-59811098D01*
X166089369Y-59811099D01*
X166108538Y-59819039D01*
X166223198Y-59866533D01*
X166231382Y-59867610D01*
X166231384Y-59867611D01*
X166332797Y-59880962D01*
X166336884Y-59881500D01*
X166413116Y-59881500D01*
X166417203Y-59880962D01*
X166518616Y-59867611D01*
X166518618Y-59867610D01*
X166526802Y-59866533D01*
X166641462Y-59819039D01*
X166660631Y-59811099D01*
X166660633Y-59811098D01*
X166668259Y-59807939D01*
X166789731Y-59714731D01*
X166882939Y-59593259D01*
X166941533Y-59451802D01*
X166955570Y-59345184D01*
X166960440Y-59308188D01*
X166961518Y-59300000D01*
X166948638Y-59202163D01*
X166942611Y-59156384D01*
X166942610Y-59156382D01*
X166941533Y-59148198D01*
X166916673Y-59088182D01*
X166886099Y-59014369D01*
X166886098Y-59014367D01*
X166882939Y-59006741D01*
X166789731Y-58885269D01*
X166668259Y-58792061D01*
X166660633Y-58788902D01*
X166660631Y-58788901D01*
X166534428Y-58736626D01*
X166534429Y-58736626D01*
X166526802Y-58733467D01*
X166518618Y-58732390D01*
X166518616Y-58732389D01*
X166417203Y-58719038D01*
X166417202Y-58719038D01*
X166413116Y-58718500D01*
X166336884Y-58718500D01*
X166332798Y-58719038D01*
X166332797Y-58719038D01*
X166231384Y-58732389D01*
X166231382Y-58732390D01*
X166223198Y-58733467D01*
X166215571Y-58736626D01*
X166215572Y-58736626D01*
X166089369Y-58788901D01*
X166089367Y-58788902D01*
X166081741Y-58792061D01*
X165960269Y-58885269D01*
X165867061Y-59006741D01*
X165863902Y-59014367D01*
X165863901Y-59014369D01*
X165833327Y-59088182D01*
X165808467Y-59148198D01*
X165807390Y-59156382D01*
X165807389Y-59156384D01*
X165801362Y-59202163D01*
X165788482Y-59300000D01*
X160423487Y-59300000D01*
X160410323Y-59208082D01*
X160386818Y-59156384D01*
X160355808Y-59088182D01*
X160345822Y-59017891D01*
X160357117Y-58981093D01*
X160402795Y-58886814D01*
X160402795Y-58886813D01*
X160406710Y-58878733D01*
X160430496Y-58737354D01*
X160430647Y-58725000D01*
X160410323Y-58583082D01*
X160355808Y-58463182D01*
X160345822Y-58392891D01*
X160357117Y-58356093D01*
X160402795Y-58261814D01*
X160402795Y-58261813D01*
X160406710Y-58253733D01*
X160430496Y-58112354D01*
X160430647Y-58100000D01*
X160410323Y-57958082D01*
X160350984Y-57827572D01*
X160268096Y-57731376D01*
X160263260Y-57725763D01*
X160263257Y-57725760D01*
X160257400Y-57718963D01*
X160137095Y-57640985D01*
X159999739Y-57599907D01*
X159990763Y-57599852D01*
X159990762Y-57599852D01*
X159930555Y-57599484D01*
X159856376Y-57599031D01*
X159718529Y-57638428D01*
X159597280Y-57714930D01*
X159502377Y-57822388D01*
X159441447Y-57952163D01*
X159419391Y-58093823D01*
X155200000Y-58093823D01*
X155200000Y-33126000D01*
X155220002Y-33057879D01*
X155273658Y-33011386D01*
X155326000Y-33000000D01*
X157574000Y-33000000D01*
X157642121Y-33020002D01*
G37*
%TD.AperFunction*%
%TD*%
%TA.AperFunction,Conductor*%
%TO.N,LS_SYS*%
G36*
X207642121Y-58320502D02*
G01*
X207688614Y-58374158D01*
X207700000Y-58426500D01*
X207700000Y-79500000D01*
X242774000Y-79500000D01*
X242842121Y-79520002D01*
X242888614Y-79573658D01*
X242900000Y-79626000D01*
X242900000Y-84724000D01*
X242879998Y-84792121D01*
X242826342Y-84838614D01*
X242774000Y-84850000D01*
X239661302Y-84850000D01*
X239593181Y-84829998D01*
X239546688Y-84776342D01*
X239536584Y-84706068D01*
X239567887Y-84639445D01*
X239613176Y-84589411D01*
X239613181Y-84589404D01*
X239619200Y-84582754D01*
X239681710Y-84453733D01*
X239705496Y-84312354D01*
X239705647Y-84300000D01*
X239685323Y-84158082D01*
X239625984Y-84027572D01*
X239607598Y-84006234D01*
X239538260Y-83925763D01*
X239538257Y-83925760D01*
X239532400Y-83918963D01*
X239412095Y-83840985D01*
X239274739Y-83799907D01*
X239265763Y-83799852D01*
X239265762Y-83799852D01*
X239205555Y-83799484D01*
X239131376Y-83799031D01*
X238993529Y-83838428D01*
X238872280Y-83914930D01*
X238777377Y-84022388D01*
X238716447Y-84152163D01*
X238694391Y-84293823D01*
X238695555Y-84302725D01*
X238695555Y-84302728D01*
X238696814Y-84312354D01*
X238712980Y-84435979D01*
X238770720Y-84567203D01*
X238776497Y-84574076D01*
X238776498Y-84574077D01*
X238834371Y-84642925D01*
X238862892Y-84707940D01*
X238851736Y-84778055D01*
X238804444Y-84831007D01*
X238737920Y-84850000D01*
X207700000Y-84850000D01*
X207700000Y-91474000D01*
X207679998Y-91542121D01*
X207626342Y-91588614D01*
X207574000Y-91600000D01*
X202826000Y-91600000D01*
X202757879Y-91579998D01*
X202711386Y-91526342D01*
X202700000Y-91474000D01*
X202700000Y-84850000D01*
X167626000Y-84850000D01*
X167557879Y-84829998D01*
X167511386Y-84776342D01*
X167500000Y-84724000D01*
X167500000Y-83350161D01*
X204514393Y-83350161D01*
X204523687Y-83362175D01*
X204564088Y-83390464D01*
X204573584Y-83395947D01*
X204763113Y-83484326D01*
X204773405Y-83488072D01*
X204975401Y-83542196D01*
X204986196Y-83544099D01*
X205194525Y-83562326D01*
X205205475Y-83562326D01*
X205413804Y-83544099D01*
X205424599Y-83542196D01*
X205626595Y-83488072D01*
X205636887Y-83484326D01*
X205826416Y-83395947D01*
X205835912Y-83390464D01*
X205877148Y-83361590D01*
X205885523Y-83351112D01*
X205878457Y-83337668D01*
X205212811Y-82672021D01*
X205198868Y-82664408D01*
X205197034Y-82664539D01*
X205190420Y-82668790D01*
X204520820Y-83338391D01*
X204514393Y-83350161D01*
X167500000Y-83350161D01*
X167500000Y-82294525D01*
X203937674Y-82294525D01*
X203937674Y-82305475D01*
X203955901Y-82513804D01*
X203957804Y-82524599D01*
X204011928Y-82726595D01*
X204015674Y-82736887D01*
X204104054Y-82926417D01*
X204109534Y-82935907D01*
X204138411Y-82977149D01*
X204148887Y-82985523D01*
X204162334Y-82978455D01*
X204827979Y-82312811D01*
X204834356Y-82301132D01*
X205564408Y-82301132D01*
X205564539Y-82302966D01*
X205568790Y-82309580D01*
X206238391Y-82979180D01*
X206250161Y-82985607D01*
X206262176Y-82976311D01*
X206290466Y-82935907D01*
X206295946Y-82926417D01*
X206384326Y-82736887D01*
X206388072Y-82726595D01*
X206442196Y-82524599D01*
X206444099Y-82513804D01*
X206462326Y-82305475D01*
X206462326Y-82294525D01*
X206444099Y-82086196D01*
X206442196Y-82075401D01*
X206388072Y-81873405D01*
X206384326Y-81863113D01*
X206295946Y-81673583D01*
X206290466Y-81664093D01*
X206261589Y-81622851D01*
X206251113Y-81614477D01*
X206237666Y-81621545D01*
X205572021Y-82287189D01*
X205564408Y-82301132D01*
X204834356Y-82301132D01*
X204835592Y-82298868D01*
X204835461Y-82297034D01*
X204831210Y-82290420D01*
X204161609Y-81620820D01*
X204149839Y-81614393D01*
X204137824Y-81623689D01*
X204109534Y-81664093D01*
X204104054Y-81673583D01*
X204015674Y-81863113D01*
X204011928Y-81873405D01*
X203957804Y-82075401D01*
X203955901Y-82086196D01*
X203937674Y-82294525D01*
X167500000Y-82294525D01*
X167500000Y-81248887D01*
X204514477Y-81248887D01*
X204521545Y-81262334D01*
X205187189Y-81927979D01*
X205201132Y-81935592D01*
X205202966Y-81935461D01*
X205209580Y-81931210D01*
X205879180Y-81261609D01*
X205885607Y-81249839D01*
X205876313Y-81237825D01*
X205835912Y-81209536D01*
X205826416Y-81204053D01*
X205636887Y-81115674D01*
X205626595Y-81111928D01*
X205424599Y-81057804D01*
X205413804Y-81055901D01*
X205205475Y-81037674D01*
X205194525Y-81037674D01*
X204986196Y-81055901D01*
X204975401Y-81057804D01*
X204773405Y-81111928D01*
X204763113Y-81115674D01*
X204573583Y-81204054D01*
X204564093Y-81209534D01*
X204522851Y-81238411D01*
X204514477Y-81248887D01*
X167500000Y-81248887D01*
X167500000Y-79626000D01*
X167520002Y-79557879D01*
X167573658Y-79511386D01*
X167626000Y-79500000D01*
X202700000Y-79500000D01*
X202700000Y-58426500D01*
X202720002Y-58358379D01*
X202773658Y-58311886D01*
X202826000Y-58300500D01*
X207574000Y-58300500D01*
X207642121Y-58320502D01*
G37*
%TD.AperFunction*%
%TA.AperFunction,Conductor*%
G36*
X207642121Y-27020002D02*
G01*
X207688614Y-27073658D01*
X207700000Y-27126000D01*
X207700000Y-56373500D01*
X207679998Y-56441621D01*
X207626342Y-56488114D01*
X207574000Y-56499500D01*
X202826000Y-56499500D01*
X202757879Y-56479498D01*
X202711386Y-56425842D01*
X202700000Y-56373500D01*
X202700000Y-27126000D01*
X202720002Y-27057879D01*
X202773658Y-27011386D01*
X202826000Y-27000000D01*
X207574000Y-27000000D01*
X207642121Y-27020002D01*
G37*
%TD.AperFunction*%
%TD*%
%TA.AperFunction,Conductor*%
%TO.N,LS_PWM_PWR*%
G36*
X246342121Y-85420002D02*
G01*
X246388614Y-85473658D01*
X246400000Y-85526000D01*
X246400000Y-91674000D01*
X246379998Y-91742121D01*
X246326342Y-91788614D01*
X246274000Y-91800000D01*
X208426000Y-91800000D01*
X208357879Y-91779998D01*
X208311386Y-91726342D01*
X208300000Y-91674000D01*
X208300000Y-88193823D01*
X238694391Y-88193823D01*
X238695555Y-88202725D01*
X238695555Y-88202728D01*
X238696814Y-88212354D01*
X238712980Y-88335979D01*
X238770720Y-88467203D01*
X238776497Y-88474076D01*
X238776498Y-88474077D01*
X238783792Y-88482754D01*
X238862970Y-88576948D01*
X238982313Y-88656390D01*
X239119157Y-88699142D01*
X239128129Y-88699306D01*
X239128132Y-88699307D01*
X239193463Y-88700504D01*
X239262499Y-88701770D01*
X239271533Y-88699307D01*
X239392158Y-88666421D01*
X239392160Y-88666420D01*
X239400817Y-88664060D01*
X239522991Y-88589045D01*
X239619200Y-88482754D01*
X239681710Y-88353733D01*
X239705496Y-88212354D01*
X239705647Y-88200000D01*
X239685323Y-88058082D01*
X239625984Y-87927572D01*
X239607598Y-87906234D01*
X239538260Y-87825763D01*
X239538257Y-87825760D01*
X239532400Y-87818963D01*
X239412095Y-87740985D01*
X239274739Y-87699907D01*
X239265763Y-87699852D01*
X239265762Y-87699852D01*
X239205555Y-87699484D01*
X239131376Y-87699031D01*
X238993529Y-87738428D01*
X238872280Y-87814930D01*
X238777377Y-87922388D01*
X238716447Y-88052163D01*
X238694391Y-88193823D01*
X208300000Y-88193823D01*
X208300000Y-85526000D01*
X208320002Y-85457879D01*
X208373658Y-85411386D01*
X208426000Y-85400000D01*
X246274000Y-85400000D01*
X246342121Y-85420002D01*
G37*
%TD.AperFunction*%
%TD*%
M02*
