M48
; DRILL file {KiCad (5.99.0-11593-g5155093ec0)} date Mon Aug  9 21:00:47 2021
; FORMAT={-:-/ absolute / metric / decimal}
; #@! TF.CreationDate,2021-08-09T21:00:47+02:00
; #@! TF.GenerationSoftware,Kicad,Pcbnew,(5.99.0-11593-g5155093ec0)
; #@! TF.FileFunction,Plated,1,4,PTH
FMAT,2
METRIC
; #@! TA.AperFunction,Plated,PTH,ViaDrill
T1C0.200
; #@! TA.AperFunction,Plated,PTH,ViaDrill
T2C0.300
; #@! TA.AperFunction,Plated,PTH,ComponentDrill
T3C0.400
; #@! TA.AperFunction,Plated,PTH,ViaDrill
T4C0.600
; #@! TA.AperFunction,Plated,PTH,ComponentDrill
T5C0.650
; #@! TA.AperFunction,Plated,PTH,ViaDrill
T6C0.800
; #@! TA.AperFunction,Plated,PTH,ComponentDrill
T7C1.000
; #@! TA.AperFunction,Plated,PTH,ComponentDrill
T8C2.200
%
G90
G05
T1
X162.1Y-67.925
X162.575Y-67.925
X163.825Y-67.925
X164.35Y-66.125
X165.025Y-66.125
X165.075Y-67.95
X165.55Y-67.95
X166.0Y-55.8
X166.575Y-71.15
X168.5Y-57.0
X168.7Y-71.15
X204.0Y-82.3
X204.7Y-32.7
X204.7Y-42.1
X205.2Y-32.7
X205.2Y-42.1
X205.2Y-81.1
X205.2Y-83.5
X205.7Y-32.7
X205.7Y-42.1
X206.4Y-82.3
T2
X159.925Y-58.1
X159.925Y-58.725
X159.925Y-59.35
X159.925Y-59.975
X159.925Y-60.6
X160.5Y-27.55
X160.5Y-91.05
X161.95Y-28.05
X162.0Y-90.55
X163.45Y-27.55
X163.5Y-91.05
X164.95Y-28.05
X165.0Y-90.55
X166.45Y-27.55
X166.5Y-91.05
X167.95Y-28.05
X168.0Y-90.55
X169.45Y-27.55
X169.5Y-91.05
X170.95Y-28.05
X171.0Y-90.55
X172.45Y-27.55
X172.5Y-91.05
X173.95Y-28.05
X174.0Y-90.55
X175.45Y-27.55
X175.5Y-91.05
X176.95Y-28.05
X177.0Y-90.55
X178.45Y-27.55
X178.5Y-91.05
X179.95Y-28.05
X180.0Y-90.55
X181.45Y-27.55
X181.5Y-91.05
X182.95Y-28.05
X183.0Y-90.55
X184.45Y-27.55
X184.5Y-91.05
X185.95Y-28.05
X186.0Y-90.55
X187.45Y-27.55
X187.5Y-91.05
X188.95Y-28.05
X189.0Y-90.55
X190.45Y-27.55
X190.5Y-91.05
X191.95Y-28.05
X192.0Y-90.55
X193.45Y-27.55
X193.5Y-91.05
X194.95Y-28.05
X195.0Y-90.55
X196.45Y-27.55
X196.5Y-91.05
X197.95Y-28.05
X198.0Y-90.55
X199.45Y-27.55
X199.5Y-91.05
X200.95Y-28.05
X201.0Y-90.55
X208.7Y-91.05
X209.4Y-28.05
X210.2Y-90.55
X210.85Y-27.55
X211.7Y-91.05
X212.35Y-28.05
X213.2Y-90.55
X213.85Y-27.55
X214.7Y-91.05
X215.35Y-28.05
X216.2Y-90.55
X216.85Y-27.55
X217.7Y-91.05
X218.35Y-28.05
X219.2Y-90.55
X219.85Y-27.55
X220.7Y-91.05
X221.35Y-28.05
X222.2Y-90.55
X222.85Y-27.55
X223.7Y-91.05
X224.35Y-28.05
X225.2Y-90.55
X225.85Y-27.55
X226.7Y-91.05
X227.35Y-28.05
X228.2Y-90.55
X228.85Y-27.55
X229.7Y-91.05
X230.35Y-28.05
X231.2Y-90.55
X231.85Y-27.55
X232.7Y-91.05
X233.35Y-28.05
X234.2Y-90.55
X234.85Y-27.55
X235.7Y-91.05
X236.35Y-28.05
X237.0Y-35.6
X237.2Y-90.55
X237.85Y-27.55
X238.7Y-91.05
X239.2Y-84.3
X239.2Y-88.2
X239.35Y-28.05
X240.2Y-90.55
X240.85Y-27.55
X241.7Y-91.05
X242.35Y-28.05
X243.2Y-90.55
X243.85Y-27.55
X244.65Y-91.05
X245.35Y-28.05
X246.85Y-27.55
X247.0Y-36.4
X247.425Y-91.05
X248.35Y-28.05
X248.8Y-90.55
X249.85Y-27.55
X250.1Y-91.05
X253.95Y-66.75
X253.95Y-69.75
X253.95Y-72.75
X253.95Y-75.75
X253.95Y-78.75
X253.95Y-81.75
X253.95Y-84.75
X254.0Y-33.8
X254.0Y-36.8
X254.0Y-39.8
X254.0Y-42.8
X254.0Y-45.75
X254.0Y-48.8
X254.0Y-51.8
X254.45Y-68.25
X254.45Y-71.25
X254.45Y-74.25
X254.45Y-77.25
X254.45Y-80.25
X254.45Y-83.25
X254.45Y-86.2
X254.5Y-32.3
X254.5Y-35.3
X254.5Y-38.3
X254.5Y-41.3
X254.5Y-44.3
X254.5Y-47.3
X254.5Y-50.3
T3
X156.05Y-29.3
X156.05Y-89.3
X156.533Y-28.133
X156.533Y-30.467
X156.533Y-88.133
X156.533Y-90.467
X157.7Y-27.65
X157.7Y-30.95
X157.7Y-87.65
X157.7Y-90.95
X158.867Y-28.133
X158.867Y-30.467
X158.867Y-88.133
X158.867Y-90.467
X159.35Y-29.3
X159.35Y-89.3
X203.55Y-29.3
X203.55Y-89.3
X204.033Y-28.133
X204.033Y-30.467
X204.033Y-88.133
X204.033Y-90.467
X205.2Y-27.65
X205.2Y-30.95
X205.2Y-87.65
X205.2Y-90.95
X206.367Y-28.133
X206.367Y-30.467
X206.367Y-88.133
X206.367Y-90.467
X206.85Y-29.3
X206.85Y-89.3
X251.05Y-29.3
X251.05Y-89.3
X251.533Y-28.133
X251.533Y-30.467
X251.533Y-88.133
X251.533Y-90.467
X252.7Y-27.65
X252.7Y-30.95
X252.7Y-87.65
X252.7Y-90.95
X253.867Y-28.133
X253.867Y-30.467
X253.867Y-88.133
X253.867Y-90.467
X254.35Y-29.3
X254.35Y-89.3
T4
X168.125Y-81.875
T5
X253.7Y-53.575
X253.7Y-54.845
X253.7Y-56.115
X253.7Y-57.385
X253.7Y-58.655
X253.7Y-59.925
X253.7Y-61.195
X253.7Y-62.465
X253.7Y-63.735
X253.7Y-65.005
T6
X155.95Y-33.8
X155.95Y-36.8
X155.95Y-39.8
X155.95Y-42.8
X155.95Y-45.8
X155.95Y-48.8
X155.95Y-51.8
X155.95Y-54.8
X155.95Y-57.8
X155.95Y-60.8
X155.95Y-63.8
X155.95Y-66.8
X155.95Y-69.8
X155.95Y-72.8
X155.95Y-75.8
X155.95Y-78.8
X155.95Y-81.8
X155.95Y-84.8
X156.45Y-35.3
X156.45Y-38.3
X156.45Y-41.3
X156.45Y-44.3
X156.45Y-47.3
X156.45Y-50.3
X156.45Y-53.3
X156.45Y-56.3
X156.45Y-62.3
X156.45Y-65.3
X156.45Y-68.3
X156.45Y-71.3
X156.45Y-74.3
X156.45Y-77.3
X156.45Y-80.3
X156.45Y-83.3
T7
X186.475Y-59.675
X205.2Y-82.3
T8
X157.7Y-29.3
X157.7Y-89.3
X205.2Y-29.3
X205.2Y-89.3
X252.7Y-29.3
X252.7Y-89.3
T0
M30
