%TF.GenerationSoftware,KiCad,Pcbnew,(5.99.0-11174-ge2a2c3282a)*%
%TF.CreationDate,2021-07-05T21:59:08+02:00*%
%TF.ProjectId,flatlight_rev20_ESIDE,666c6174-6c69-4676-9874-5f7265763230,rev?*%
%TF.SameCoordinates,Original*%
%TF.FileFunction,Copper,L2,Inr*%
%TF.FilePolarity,Positive*%
%FSLAX46Y46*%
G04 Gerber Fmt 4.6, Leading zero omitted, Abs format (unit mm)*
G04 Created by KiCad (PCBNEW (5.99.0-11174-ge2a2c3282a)) date 2021-07-05 21:59:08*
%MOMM*%
%LPD*%
G01*
G04 APERTURE LIST*
%TA.AperFunction,ComponentPad*%
%ADD10C,4.400000*%
%TD*%
%TA.AperFunction,ComponentPad*%
%ADD11C,0.700000*%
%TD*%
%TA.AperFunction,ComponentPad*%
%ADD12C,0.500000*%
%TD*%
%TA.AperFunction,ComponentPad*%
%ADD13C,1.500000*%
%TD*%
%TA.AperFunction,ComponentPad*%
%ADD14R,1.350000X1.350000*%
%TD*%
%TA.AperFunction,ComponentPad*%
%ADD15O,1.350000X1.350000*%
%TD*%
%TA.AperFunction,ComponentPad*%
%ADD16O,2.300000X1.300000*%
%TD*%
%TA.AperFunction,ComponentPad*%
%ADD17O,2.600000X1.300000*%
%TD*%
%TA.AperFunction,ComponentPad*%
%ADD18R,0.500000X0.900000*%
%TD*%
%TA.AperFunction,ViaPad*%
%ADD19C,0.450000*%
%TD*%
%TA.AperFunction,ViaPad*%
%ADD20C,1.000000*%
%TD*%
%TA.AperFunction,Conductor*%
%ADD21C,0.200000*%
%TD*%
%TA.AperFunction,Conductor*%
%ADD22C,0.400000*%
%TD*%
%TA.AperFunction,Conductor*%
%ADD23C,0.600000*%
%TD*%
%TA.AperFunction,Conductor*%
%ADD24C,0.300000*%
%TD*%
%TA.AperFunction,Conductor*%
%ADD25C,0.250000*%
%TD*%
G04 APERTURE END LIST*
D10*
%TO.N,GND*%
%TO.C,H5*%
X42250000Y-127550000D03*
D11*
X42250000Y-129200000D03*
X40600000Y-127550000D03*
X43900000Y-127550000D03*
X41083274Y-126383274D03*
X43416726Y-128716726D03*
X43416726Y-126383274D03*
X42250000Y-125900000D03*
X41083274Y-128716726D03*
%TD*%
%TO.N,+BATT*%
%TO.C,H6*%
X90916726Y-68716726D03*
D10*
X89750000Y-67550000D03*
D11*
X89750000Y-65900000D03*
X88583274Y-66383274D03*
X88100000Y-67550000D03*
X89750000Y-69200000D03*
X88583274Y-68716726D03*
X91400000Y-67550000D03*
X90916726Y-66383274D03*
%TD*%
%TO.N,GND*%
%TO.C,H4*%
X40550000Y-67500000D03*
D10*
X42200000Y-67500000D03*
D11*
X42200000Y-65850000D03*
X41033274Y-66333274D03*
X41033274Y-68666726D03*
X42200000Y-69150000D03*
X43850000Y-67500000D03*
X43366726Y-66333274D03*
X43366726Y-68666726D03*
%TD*%
%TO.N,GND*%
%TO.C,H3*%
X138416726Y-66383274D03*
X136083274Y-66383274D03*
D10*
X137250000Y-67550000D03*
D11*
X137250000Y-69200000D03*
X138900000Y-67550000D03*
X137250000Y-65900000D03*
X135600000Y-67550000D03*
X136083274Y-68716726D03*
X138416726Y-68716726D03*
%TD*%
%TO.N,GND*%
%TO.C,H2*%
X136083274Y-128716726D03*
X136083274Y-126383274D03*
X137250000Y-129200000D03*
D10*
X137250000Y-127550000D03*
D11*
X138900000Y-127550000D03*
X138416726Y-128716726D03*
X135600000Y-127550000D03*
X137250000Y-125900000D03*
X138416726Y-126383274D03*
%TD*%
%TO.N,+BATT*%
%TO.C,H1*%
X90916726Y-128716726D03*
X91400000Y-127550000D03*
X90916726Y-126383274D03*
X89750000Y-129200000D03*
X89750000Y-125900000D03*
D10*
X89750000Y-127550000D03*
D11*
X88100000Y-127550000D03*
X88583274Y-126383274D03*
X88583274Y-128716726D03*
%TD*%
D12*
%TO.N,GND*%
%TO.C,U6*%
X121850000Y-118500000D03*
X121850000Y-120850000D03*
X120650000Y-117350000D03*
X120650000Y-118500000D03*
X124150000Y-119700000D03*
X124150000Y-120850000D03*
X124150000Y-117350000D03*
X122925000Y-119700000D03*
X122925000Y-117350000D03*
X124150000Y-118500000D03*
X120650000Y-120850000D03*
X122925000Y-118500000D03*
X121850000Y-117350000D03*
X122925000Y-120850000D03*
X121850000Y-119700000D03*
X120650000Y-119700000D03*
%TD*%
D13*
%TO.N,GND*%
%TO.C,H17*%
X41700000Y-72000000D03*
%TD*%
%TO.N,GND*%
%TO.C,H18*%
X41700000Y-89500000D03*
%TD*%
D14*
%TO.N,GND*%
%TO.C,J1*%
X138050000Y-104550000D03*
D15*
%TO.N,ES_LED_PWM*%
X138050000Y-102550000D03*
%TO.N,+3V3*%
X138050000Y-100550000D03*
%TO.N,ES_LED_NTC*%
X138050000Y-98550000D03*
%TO.N,GND*%
X138050000Y-96550000D03*
%TO.N,ES_WS_SDAT*%
X138050000Y-94550000D03*
%TO.N,ES_WS_LDAT*%
X138050000Y-92550000D03*
%TO.N,ES_WS_POWER*%
X138050000Y-90550000D03*
%TD*%
D16*
%TO.N,GNDPWR*%
%TO.C,J2*%
X46510000Y-121120000D03*
D17*
X42685000Y-112480000D03*
D16*
X46510000Y-112480000D03*
D17*
X42685000Y-121120000D03*
%TD*%
D18*
%TO.N,GND*%
%TO.C,AE1*%
X134150000Y-123400000D03*
%TD*%
D19*
%TO.N,GND*%
X97950000Y-107050000D03*
X111750000Y-129550000D03*
X123950000Y-128350000D03*
X87750000Y-117850000D03*
X84250000Y-129550000D03*
X40450000Y-88250000D03*
X110150000Y-119450000D03*
X114250000Y-129550000D03*
X131850000Y-125550000D03*
X53050000Y-108250000D03*
X91300000Y-115250000D03*
X50200000Y-65850000D03*
X124250000Y-129550000D03*
X99350000Y-107050000D03*
X94450000Y-113450000D03*
X55200000Y-65850000D03*
X122400000Y-124950000D03*
X130250000Y-125550000D03*
X119450000Y-128350000D03*
X138150000Y-124750000D03*
X52700000Y-65850000D03*
X85100000Y-114050000D03*
X116100000Y-65850000D03*
X79650000Y-112550000D03*
X44350000Y-129550000D03*
X133150000Y-124450000D03*
X95600000Y-129550000D03*
X85100000Y-112550000D03*
X134050000Y-113450000D03*
X133150000Y-123550000D03*
X138950000Y-75550000D03*
X121100000Y-65850000D03*
X87750000Y-120550000D03*
X74750000Y-114450000D03*
X82700000Y-65850000D03*
X129250000Y-129550000D03*
X126250000Y-126850000D03*
X109650000Y-111950000D03*
X117750000Y-111650000D03*
X40450000Y-108250000D03*
X59350000Y-129550000D03*
X121250000Y-124950000D03*
X46850000Y-129550000D03*
X126100000Y-65850000D03*
X81550000Y-111350000D03*
X40450000Y-93250000D03*
X129150000Y-122050000D03*
X40450000Y-100750000D03*
X101750000Y-111950000D03*
X76850000Y-129550000D03*
X125450000Y-124950000D03*
X92150000Y-118450000D03*
X78425000Y-122475000D03*
X115900000Y-127550000D03*
X65900000Y-114475000D03*
X47700000Y-65850000D03*
X40450000Y-70750000D03*
X91825000Y-87350000D03*
X79650000Y-111350000D03*
X136750000Y-124750000D03*
X135350000Y-124750000D03*
X101750000Y-107050000D03*
X121850000Y-128350000D03*
X129150000Y-122750000D03*
X106750000Y-129550000D03*
X123600000Y-65850000D03*
X139350000Y-108950000D03*
X93100000Y-129550000D03*
X93600000Y-65850000D03*
X133150000Y-122750000D03*
X86250000Y-117850000D03*
X40450000Y-110750000D03*
X128600000Y-65850000D03*
X119250000Y-126650000D03*
X105350000Y-111950000D03*
X52100000Y-115950000D03*
X66350000Y-115125000D03*
X134050000Y-111750000D03*
X86350000Y-107050000D03*
X133150000Y-122050000D03*
X70100000Y-119550000D03*
X119250000Y-125500000D03*
X40450000Y-73250000D03*
X138950000Y-83050000D03*
X87550000Y-107050000D03*
X94450000Y-111750000D03*
X121750000Y-129550000D03*
X139350000Y-124750000D03*
X127750000Y-122050000D03*
X50550000Y-118750000D03*
X80200000Y-65850000D03*
X87050000Y-114050000D03*
X74750000Y-113400000D03*
X40550000Y-122650000D03*
X108600000Y-65850000D03*
X138950000Y-88050000D03*
X83450000Y-111350000D03*
X85100000Y-117850000D03*
X134050000Y-114950000D03*
X56400000Y-117150000D03*
X77750000Y-117850000D03*
X81550000Y-112550000D03*
X112050000Y-111950000D03*
X93450000Y-113450000D03*
X51850000Y-129550000D03*
X56850000Y-129550000D03*
X134050000Y-117850000D03*
X138950000Y-80550000D03*
X68950000Y-111350000D03*
X40450000Y-95750000D03*
X134250000Y-129550000D03*
X102950000Y-107050000D03*
X40450000Y-103250000D03*
X83050000Y-122350000D03*
X71850000Y-129550000D03*
X134050000Y-116350000D03*
X49350000Y-129550000D03*
X138950000Y-85550000D03*
X116500000Y-125000000D03*
X100650000Y-107050000D03*
X129150000Y-124350000D03*
X134050000Y-124750000D03*
X40550000Y-125150000D03*
X134050000Y-109150000D03*
X75250000Y-111350000D03*
X81500000Y-122375000D03*
X124550000Y-124950000D03*
X70050000Y-124250000D03*
X66850000Y-129550000D03*
X113050000Y-119450000D03*
X93450000Y-111750000D03*
X118150000Y-127550000D03*
X60200000Y-65850000D03*
X40450000Y-90750000D03*
X93450000Y-115250000D03*
X117000000Y-127550000D03*
X92150000Y-119550000D03*
X116750000Y-129550000D03*
X111100000Y-65850000D03*
X64675000Y-115100000D03*
X98100000Y-129550000D03*
X86750000Y-129550000D03*
X91300000Y-114550000D03*
X85100000Y-120550000D03*
X85100000Y-121450000D03*
X128450000Y-122050000D03*
X138950000Y-73050000D03*
X69350000Y-129550000D03*
X114650000Y-119450000D03*
X65200000Y-65850000D03*
X80750000Y-117850000D03*
X112050000Y-116250000D03*
X110150000Y-116400000D03*
X40450000Y-105750000D03*
X96750000Y-107050000D03*
X106100000Y-65850000D03*
X64350000Y-129550000D03*
X138950000Y-78050000D03*
X126750000Y-129550000D03*
X133600000Y-65850000D03*
X70200000Y-65850000D03*
X75200000Y-65850000D03*
X119250000Y-129550000D03*
X86250000Y-120550000D03*
X46350000Y-108250000D03*
X80100000Y-122400000D03*
X85100000Y-122350000D03*
X129150000Y-123550000D03*
X131100000Y-65850000D03*
X138950000Y-106350000D03*
X74350000Y-129550000D03*
X110150000Y-118000000D03*
X131750000Y-129550000D03*
X62700000Y-65850000D03*
X85100000Y-111350000D03*
X61850000Y-129550000D03*
X135050000Y-108950000D03*
X134050000Y-119350000D03*
X126350000Y-127850000D03*
X79250000Y-117850000D03*
X72700000Y-65850000D03*
X138950000Y-108350000D03*
X77150000Y-122375000D03*
X83450000Y-112550000D03*
X92150000Y-117150000D03*
X120250000Y-124950000D03*
X98600000Y-65850000D03*
X82250000Y-117850000D03*
X66200000Y-119550000D03*
X85200000Y-65850000D03*
X113600000Y-65850000D03*
X56850000Y-117150000D03*
X90750000Y-119550000D03*
X127050000Y-122050000D03*
X49850000Y-108250000D03*
X79250000Y-129550000D03*
X134050000Y-120450000D03*
X103600000Y-65850000D03*
X77350000Y-112550000D03*
X81750000Y-129550000D03*
D20*
X63900000Y-108950000D03*
D19*
X112050000Y-114050000D03*
X125450000Y-128350000D03*
X87750000Y-109050000D03*
X77700000Y-65850000D03*
X70550000Y-111350000D03*
X65050000Y-114450000D03*
X57700000Y-65850000D03*
X96100000Y-65850000D03*
X101100000Y-65850000D03*
X65475000Y-115100000D03*
X54350000Y-129550000D03*
X137650000Y-108950000D03*
X77350000Y-111350000D03*
X138950000Y-70550000D03*
X45200000Y-65850000D03*
X134050000Y-110250000D03*
X40450000Y-98250000D03*
X107150000Y-100350000D03*
X42350000Y-108250000D03*
X67700000Y-65850000D03*
X118600000Y-65850000D03*
X113850000Y-119450000D03*
%TO.N,+BATT*%
X41750000Y-81100000D03*
X42250000Y-86100000D03*
X42250000Y-82100000D03*
D20*
X71900000Y-108950000D03*
D19*
X41750000Y-85100000D03*
X42250000Y-78100000D03*
X41750000Y-79100000D03*
X41750000Y-83100000D03*
X41750000Y-77100000D03*
X42250000Y-84100000D03*
X42250000Y-80100000D03*
X42250000Y-76100000D03*
%TO.N,EN*%
X128575000Y-127525000D03*
X109150000Y-128850000D03*
%TO.N,Net-(C1-Pad1)*%
X76150000Y-112550000D03*
X68550000Y-119550000D03*
%TO.N,LX*%
X78650000Y-114600000D03*
X78650000Y-114000000D03*
X73550000Y-118300000D03*
X78650000Y-113400000D03*
X78650000Y-116400000D03*
X73550000Y-119100000D03*
X78650000Y-115800000D03*
X73550000Y-117500000D03*
X78650000Y-115200000D03*
%TO.N,GNDPWR*%
X40750000Y-114550000D03*
X40750000Y-116750000D03*
X40750000Y-118950000D03*
X48850000Y-120550000D03*
X51800000Y-120550000D03*
X40750000Y-112450000D03*
X40750000Y-121150000D03*
X48850000Y-121550000D03*
%TO.N,CC1*%
X62100000Y-116250000D03*
X62100000Y-118900000D03*
D20*
%TO.N,SYS*%
X75900000Y-108950000D03*
D19*
%TO.N,TX*%
X102150000Y-127900000D03*
X121900000Y-124400000D03*
%TO.N,RX*%
X100150000Y-127900000D03*
X121400000Y-123825500D03*
%TO.N,ES_LED_NTC*%
X130600000Y-110400000D03*
%TO.N,STAT*%
X107850000Y-114050000D03*
X66950000Y-120800000D03*
%TO.N,INOK*%
X67750000Y-120200000D03*
X112450000Y-120300000D03*
%TO.N,DISP_BACKLIGHT*%
X126550000Y-113050000D03*
X104350000Y-107050000D03*
%TO.N,DISP_RESET*%
X106400000Y-106150000D03*
X106350000Y-100350000D03*
%TO.N,GPIO46*%
X124400000Y-124100000D03*
X113450000Y-125000000D03*
%TO.N,GPIO45*%
X114950000Y-125000000D03*
X122750000Y-124200000D03*
%TO.N,SCL*%
X89800000Y-108900000D03*
X121575500Y-113400000D03*
%TO.N,IMU_INT2*%
X122694534Y-113425253D03*
X93450000Y-112600000D03*
%TO.N,SDA*%
X120900000Y-113100000D03*
X88750000Y-109000000D03*
%TO.N,IMU_INT1*%
X122100000Y-112750000D03*
X86950000Y-108250000D03*
%TO.N,BNT_DIG3*%
X129550000Y-118344313D03*
X101050000Y-115200000D03*
%TO.N,BNT_DIG2*%
X129950000Y-117650000D03*
X102750000Y-115000000D03*
%TO.N,BNT_DIG1*%
X103450000Y-114700000D03*
X129950000Y-116950000D03*
%TO.N,GPIO0*%
X130370000Y-118325735D03*
X111950000Y-125050000D03*
%TO.N,ENBST*%
X71850000Y-125050000D03*
X111550000Y-121000000D03*
%TO.N,SPIQ*%
X116400000Y-118750000D03*
X111050000Y-117435502D03*
%TO.N,SPICS0*%
X117185967Y-117930598D03*
X111450000Y-116850000D03*
%TO.N,SPIWP*%
X111500000Y-118000000D03*
X116950000Y-117274500D03*
%TO.N,+3V3*%
X130600000Y-113000000D03*
X128550000Y-126450000D03*
X118150000Y-123550000D03*
X131450000Y-113700000D03*
D20*
X79900000Y-108950000D03*
D19*
X101950000Y-114800000D03*
X131450000Y-113000000D03*
X128550000Y-125900000D03*
X88800000Y-119200000D03*
X106400000Y-113400000D03*
X117600000Y-123550000D03*
X132300000Y-113000000D03*
X116500000Y-123550000D03*
X128543750Y-125400000D03*
X88800000Y-118700000D03*
X88800000Y-119650000D03*
X117050000Y-123550000D03*
%TO.N,ITOPOFF*%
X77300000Y-127250000D03*
X112450000Y-121500000D03*
%TO.N,Net-(R6-Pad2)*%
X88600000Y-107050000D03*
X88575000Y-79550000D03*
%TO.N,U_N*%
X52900000Y-117924980D03*
X120150000Y-112800000D03*
%TO.N,U_P*%
X119700000Y-113500000D03*
X52850000Y-116375020D03*
D20*
%TO.N,CHG_Supply*%
X67900000Y-108950000D03*
D19*
X48600000Y-114450000D03*
X49600000Y-118900000D03*
X49600000Y-114450000D03*
X49100000Y-118700000D03*
X49100000Y-114650000D03*
X48600000Y-118900000D03*
%TD*%
D21*
%TO.N,EN*%
X109250000Y-128950000D02*
X127150000Y-128950000D01*
X109150000Y-128850000D02*
X109250000Y-128950000D01*
X127150000Y-128950000D02*
X128575000Y-127525000D01*
D22*
%TO.N,Net-(C1-Pad1)*%
X69750000Y-112550000D02*
X76150000Y-112550000D01*
X68550000Y-113750000D02*
X69750000Y-112550000D01*
X68550000Y-119550000D02*
X68550000Y-113750000D01*
D23*
%TO.N,CC1*%
X62100000Y-118900000D02*
X62100000Y-116250000D01*
D21*
%TO.N,TX*%
X121900000Y-124400000D02*
X118950000Y-124400000D01*
X116900000Y-126450000D02*
X102750000Y-126450000D01*
X118950000Y-124400000D02*
X116900000Y-126450000D01*
X102750000Y-126450000D02*
X102150000Y-127050000D01*
X102150000Y-127050000D02*
X102150000Y-127900000D01*
%TO.N,RX*%
X116700000Y-126050000D02*
X100700000Y-126050000D01*
X100150000Y-126600000D02*
X100150000Y-127900000D01*
X118924500Y-123825500D02*
X116700000Y-126050000D01*
X121400000Y-123825500D02*
X118924500Y-123825500D01*
X100700000Y-126050000D02*
X100150000Y-126600000D01*
D23*
%TO.N,ES_LED_NTC*%
X130600000Y-102500000D02*
X134550000Y-98550000D01*
X130600000Y-110400000D02*
X130600000Y-102500000D01*
X134550000Y-98550000D02*
X138050000Y-98550000D01*
D21*
%TO.N,STAT*%
X68050481Y-113543091D02*
X68050481Y-118949519D01*
X66950000Y-120050000D02*
X66950000Y-120800000D01*
X68050481Y-118949519D02*
X66950000Y-120050000D01*
X90099980Y-111950000D02*
X69643572Y-111950000D01*
X92199980Y-114050000D02*
X90099980Y-111950000D01*
X69643572Y-111950000D02*
X68050481Y-113543091D01*
X107850000Y-114050000D02*
X92199980Y-114050000D01*
D22*
%TO.N,INOK*%
X68250000Y-123550000D02*
X87840017Y-123550000D01*
X67750000Y-120200000D02*
X67750000Y-123050000D01*
D24*
X112350000Y-120400000D02*
X112450000Y-120300000D01*
X90990017Y-120400000D02*
X112350000Y-120400000D01*
D22*
X87840017Y-123550000D02*
X90990017Y-120400000D01*
X67750000Y-123050000D02*
X68250000Y-123550000D01*
%TO.N,DISP_BACKLIGHT*%
X126550000Y-107450000D02*
X126550000Y-113050000D01*
X104350000Y-107050000D02*
X126150000Y-107050000D01*
X126150000Y-107050000D02*
X126550000Y-107450000D01*
D25*
%TO.N,DISP_RESET*%
X106400000Y-106150000D02*
X106350000Y-106100000D01*
D22*
X106350000Y-106100000D02*
X106350000Y-100350000D01*
D21*
%TO.N,GPIO46*%
X114200000Y-122400000D02*
X113450000Y-123150000D01*
X113450000Y-123150000D02*
X113450000Y-125000000D01*
X123700000Y-122400000D02*
X114200000Y-122400000D01*
X124400000Y-123100000D02*
X123700000Y-122400000D01*
X124400000Y-124100000D02*
X124400000Y-123100000D01*
%TO.N,GPIO45*%
X122750000Y-124200000D02*
X122750000Y-123050000D01*
X122500000Y-122800000D02*
X115550000Y-122800000D01*
X122750000Y-123050000D02*
X122500000Y-122800000D01*
X115550000Y-122800000D02*
X114950000Y-123400000D01*
X114950000Y-123400000D02*
X114950000Y-125000000D01*
D25*
%TO.N,SCL*%
X121025000Y-108900000D02*
X121600000Y-109475000D01*
D21*
X121575489Y-112582739D02*
X121600000Y-112558228D01*
X121600000Y-113041772D02*
X121575489Y-113017261D01*
X121575489Y-113017261D02*
X121575489Y-112582739D01*
X121575500Y-113400000D02*
X121600000Y-113375500D01*
X121600000Y-113375500D02*
X121600000Y-113041772D01*
D25*
X89800000Y-108900000D02*
X121025000Y-108900000D01*
D21*
X121600000Y-112558228D02*
X121600000Y-109475000D01*
D24*
%TO.N,IMU_INT2*%
X122694534Y-113425253D02*
X122694534Y-114005466D01*
X111414017Y-112600000D02*
X93450000Y-112600000D01*
X122350000Y-114350000D02*
X113164017Y-114350000D01*
X113164017Y-114350000D02*
X111414017Y-112600000D01*
X122694534Y-114005466D02*
X122350000Y-114350000D01*
D25*
%TO.N,SDA*%
X120900000Y-109550000D02*
X121100000Y-109750000D01*
D21*
X121100000Y-109750000D02*
X121100000Y-112900000D01*
D25*
X89300000Y-109550000D02*
X120900000Y-109550000D01*
X88750000Y-109000000D02*
X89300000Y-109550000D01*
D21*
X121100000Y-112900000D02*
X120900000Y-113100000D01*
%TO.N,IMU_INT1*%
X122100000Y-109236424D02*
X122100000Y-112750000D01*
D25*
X121113576Y-108250000D02*
X122100000Y-109236424D01*
X86950000Y-108250000D02*
X121113576Y-108250000D01*
D21*
%TO.N,BNT_DIG3*%
X101700031Y-115650031D02*
X126855718Y-115650031D01*
X101050000Y-115200000D02*
X101250000Y-115200000D01*
X101250000Y-115200000D02*
X101700031Y-115650031D01*
X126855718Y-115650031D02*
X129550000Y-118344313D01*
%TO.N,BNT_DIG2*%
X129421401Y-117650000D02*
X129950000Y-117650000D01*
X102750000Y-115000000D02*
X103000011Y-115250011D01*
X103000011Y-115250011D02*
X127021412Y-115250011D01*
X127021412Y-115250011D02*
X129421401Y-117650000D01*
%TO.N,BNT_DIG1*%
X103600000Y-114850000D02*
X127250000Y-114850000D01*
X127250000Y-114850000D02*
X129350000Y-116950000D01*
X129350000Y-116950000D02*
X129950000Y-116950000D01*
X103450000Y-114700000D02*
X103600000Y-114850000D01*
%TO.N,GPIO0*%
X126125000Y-122000000D02*
X126675000Y-121450000D01*
X129650000Y-121450000D02*
X130370000Y-120730000D01*
X111950000Y-125050000D02*
X111950000Y-124050000D01*
X111950000Y-124050000D02*
X114000000Y-122000000D01*
X126675000Y-121450000D02*
X129650000Y-121450000D01*
X130370000Y-120730000D02*
X130370000Y-118325735D01*
X114000000Y-122000000D02*
X126125000Y-122000000D01*
D24*
%TO.N,ENBST*%
X72750000Y-124150000D02*
X71850000Y-125050000D01*
X91238573Y-121000000D02*
X88088573Y-124150000D01*
X88088573Y-124150000D02*
X72750000Y-124150000D01*
X111550000Y-121000000D02*
X91238573Y-121000000D01*
D21*
%TO.N,SPIQ*%
X111382739Y-117425489D02*
X111817261Y-117425489D01*
X116400000Y-118115714D02*
X116400000Y-118750000D01*
X111050000Y-117435502D02*
X111372726Y-117435502D01*
X111817261Y-117425489D02*
X111827274Y-117435502D01*
X111827274Y-117435502D02*
X112285502Y-117435502D01*
X112285502Y-117435502D02*
X112300000Y-117450000D01*
X111372726Y-117435502D02*
X111382739Y-117425489D01*
X115734286Y-117450000D02*
X116400000Y-118115714D01*
X112300000Y-117450000D02*
X115734286Y-117450000D01*
%TO.N,SPICS0*%
X111450000Y-116850000D02*
X111500000Y-116900000D01*
X111500000Y-116900000D02*
X115750000Y-116900000D01*
X116850000Y-118000000D02*
X117116565Y-118000000D01*
X115750000Y-116900000D02*
X116850000Y-118000000D01*
X117116565Y-118000000D02*
X117185967Y-117930598D01*
%TO.N,SPIWP*%
X117273380Y-117274500D02*
X116950000Y-117274500D01*
X117778065Y-117779185D02*
X117273380Y-117274500D01*
X117778065Y-118213707D02*
X117778065Y-117779185D01*
X114858228Y-117950000D02*
X116182739Y-119274511D01*
X116182739Y-119274511D02*
X116717261Y-119274511D01*
X116717261Y-119274511D02*
X117778065Y-118213707D01*
X111550000Y-117950000D02*
X114858228Y-117950000D01*
X111500000Y-118000000D02*
X111550000Y-117950000D01*
D24*
%TO.N,ITOPOFF*%
X112450000Y-121500000D02*
X112349980Y-121600020D01*
X91487109Y-121600020D02*
X88337129Y-124750000D01*
X112349980Y-121600020D02*
X91487109Y-121600020D01*
X88337129Y-124750000D02*
X77950000Y-124750000D01*
X77300000Y-125400000D02*
X77300000Y-127250000D01*
X77950000Y-124750000D02*
X77300000Y-125400000D01*
D25*
%TO.N,Net-(R6-Pad2)*%
X88600000Y-107050000D02*
X88575000Y-107025000D01*
X88575000Y-107025000D02*
X88575000Y-79550000D01*
D22*
%TO.N,U_N*%
X51450735Y-117425001D02*
X52400021Y-117425001D01*
X83324266Y-106850000D02*
X52275734Y-106850000D01*
X50700000Y-116674266D02*
X51450735Y-117425001D01*
X52275734Y-106850000D02*
X50700000Y-108425734D01*
X115599265Y-112574999D02*
X113274746Y-110250480D01*
X50700000Y-108425734D02*
X50700000Y-116674266D01*
X86724746Y-110250480D02*
X83324266Y-106850000D01*
X120150000Y-112800000D02*
X119924999Y-112574999D01*
X119924999Y-112574999D02*
X115599265Y-112574999D01*
X52400021Y-117425001D02*
X52900000Y-117924980D01*
X113274746Y-110250480D02*
X86724746Y-110250480D01*
%TO.N,U_P*%
X51300000Y-116425734D02*
X51699265Y-116824999D01*
X119375001Y-113175001D02*
X115350735Y-113175001D01*
X115350735Y-113175001D02*
X113025734Y-110850000D01*
X51300000Y-108674266D02*
X51300000Y-116425734D01*
X86475734Y-110850000D02*
X83075734Y-107450000D01*
X119700000Y-113500000D02*
X119375001Y-113175001D01*
X52400021Y-116824999D02*
X52850000Y-116375020D01*
X83075734Y-107450000D02*
X52524266Y-107450000D01*
X51699265Y-116824999D02*
X52400021Y-116824999D01*
X113025734Y-110850000D02*
X86475734Y-110850000D01*
X52524266Y-107450000D02*
X51300000Y-108674266D01*
%TD*%
%TA.AperFunction,Conductor*%
%TO.N,+BATT*%
G36*
X42592121Y-75370002D02*
G01*
X42638614Y-75423658D01*
X42650000Y-75476000D01*
X42650000Y-86524000D01*
X42629998Y-86592121D01*
X42576342Y-86638614D01*
X42524000Y-86650000D01*
X40076000Y-86650000D01*
X40007879Y-86629998D01*
X39961386Y-86576342D01*
X39950000Y-86524000D01*
X39950000Y-75476000D01*
X39970002Y-75407879D01*
X40023658Y-75361386D01*
X40076000Y-75350000D01*
X42524000Y-75350000D01*
X42592121Y-75370002D01*
G37*
%TD.AperFunction*%
%TD*%
%TA.AperFunction,Conductor*%
%TO.N,GNDPWR*%
G36*
X41268777Y-111770002D02*
G01*
X41315270Y-111823658D01*
X41325374Y-111893932D01*
X41302592Y-111950061D01*
X41291488Y-111965344D01*
X41287067Y-111977736D01*
X41296210Y-111980000D01*
X44071045Y-111980000D01*
X44083668Y-111976293D01*
X44080125Y-111967565D01*
X44067408Y-111950061D01*
X44043549Y-111883193D01*
X44059630Y-111814042D01*
X44110544Y-111764562D01*
X44169344Y-111750000D01*
X45175656Y-111750000D01*
X45243777Y-111770002D01*
X45290270Y-111823658D01*
X45300374Y-111893932D01*
X45277592Y-111950061D01*
X45266488Y-111965344D01*
X45262067Y-111977736D01*
X45271210Y-111980000D01*
X46884000Y-111980000D01*
X46952121Y-112000002D01*
X46998614Y-112053658D01*
X47010000Y-112106000D01*
X47010000Y-113365885D01*
X47014475Y-113381124D01*
X47015865Y-113382329D01*
X47023548Y-113384000D01*
X47054281Y-113384000D01*
X47060840Y-113383656D01*
X47192428Y-113369826D01*
X47205271Y-113367096D01*
X47373439Y-113312455D01*
X47385447Y-113307109D01*
X47538575Y-113218700D01*
X47549205Y-113210976D01*
X47680611Y-113092659D01*
X47689402Y-113082896D01*
X47772064Y-112969120D01*
X47828286Y-112925766D01*
X47899022Y-112919690D01*
X47961814Y-112952822D01*
X47996725Y-113014642D01*
X48000000Y-113043181D01*
X48000000Y-119650000D01*
X52924000Y-119650000D01*
X52992121Y-119670002D01*
X53038614Y-119723658D01*
X53050000Y-119776000D01*
X53050000Y-121724000D01*
X53029998Y-121792121D01*
X52976342Y-121838614D01*
X52924000Y-121850000D01*
X47844344Y-121850000D01*
X47776223Y-121829998D01*
X47729730Y-121776342D01*
X47719626Y-121706068D01*
X47742408Y-121649939D01*
X47753512Y-121634656D01*
X47757933Y-121622264D01*
X47748790Y-121620000D01*
X45273955Y-121620000D01*
X45261332Y-121623707D01*
X45264875Y-121632435D01*
X45277592Y-121649939D01*
X45301451Y-121716807D01*
X45285370Y-121785958D01*
X45234456Y-121835438D01*
X45175656Y-121850000D01*
X44169344Y-121850000D01*
X44101223Y-121829998D01*
X44054730Y-121776342D01*
X44044626Y-121706068D01*
X44067408Y-121649939D01*
X44078512Y-121634656D01*
X44082933Y-121622264D01*
X44073790Y-121620000D01*
X41298955Y-121620000D01*
X41286332Y-121623707D01*
X41289875Y-121632435D01*
X41302592Y-121649939D01*
X41326451Y-121716807D01*
X41310370Y-121785958D01*
X41259456Y-121835438D01*
X41200656Y-121850000D01*
X40076000Y-121850000D01*
X40007879Y-121829998D01*
X39961386Y-121776342D01*
X39950000Y-121724000D01*
X39950000Y-120617736D01*
X41287067Y-120617736D01*
X41296210Y-120620000D01*
X42166885Y-120620000D01*
X42182124Y-120615525D01*
X42183329Y-120614135D01*
X42185000Y-120606452D01*
X42185000Y-120234115D01*
X42183659Y-120229548D01*
X43185000Y-120229548D01*
X43185000Y-120601885D01*
X43189475Y-120617124D01*
X43190865Y-120618329D01*
X43198548Y-120620000D01*
X44071045Y-120620000D01*
X44078754Y-120617736D01*
X45262067Y-120617736D01*
X45271210Y-120620000D01*
X45991885Y-120620000D01*
X46007124Y-120615525D01*
X46008329Y-120614135D01*
X46010000Y-120606452D01*
X46010000Y-120444193D01*
X46030002Y-120376072D01*
X46068766Y-120337631D01*
X46105030Y-120314750D01*
X46112625Y-120309958D01*
X46183640Y-120229548D01*
X47010000Y-120229548D01*
X47010000Y-120601885D01*
X47014475Y-120617124D01*
X47015865Y-120618329D01*
X47023548Y-120620000D01*
X47746045Y-120620000D01*
X47758668Y-120616293D01*
X47755125Y-120607565D01*
X47689402Y-120517104D01*
X47680611Y-120507341D01*
X47549205Y-120389024D01*
X47538575Y-120381300D01*
X47385447Y-120292891D01*
X47373439Y-120287545D01*
X47205271Y-120232904D01*
X47192428Y-120230174D01*
X47060840Y-120216344D01*
X47054281Y-120216000D01*
X47028115Y-120216000D01*
X47012876Y-120220475D01*
X47011671Y-120221865D01*
X47010000Y-120229548D01*
X46183640Y-120229548D01*
X46207501Y-120202531D01*
X46268412Y-120072794D01*
X46285500Y-119963045D01*
X46285500Y-119640086D01*
X46270182Y-119533123D01*
X46210860Y-119402651D01*
X46117303Y-119294074D01*
X45997033Y-119216118D01*
X45988436Y-119213547D01*
X45988434Y-119213546D01*
X45878951Y-119180804D01*
X45859718Y-119175052D01*
X45850742Y-119174997D01*
X45850741Y-119174997D01*
X45789027Y-119174620D01*
X45716396Y-119174177D01*
X45707765Y-119176644D01*
X45707763Y-119176644D01*
X45587223Y-119211094D01*
X45587220Y-119211095D01*
X45578589Y-119213562D01*
X45457375Y-119290042D01*
X45362499Y-119397469D01*
X45301588Y-119527206D01*
X45284500Y-119636955D01*
X45284500Y-119959914D01*
X45299818Y-120066877D01*
X45359140Y-120197349D01*
X45365001Y-120204151D01*
X45420450Y-120268502D01*
X45449764Y-120333164D01*
X45439465Y-120403410D01*
X45409307Y-120444387D01*
X45339389Y-120507341D01*
X45330598Y-120517104D01*
X45266488Y-120605344D01*
X45262067Y-120617736D01*
X44078754Y-120617736D01*
X44083668Y-120616293D01*
X44080125Y-120607565D01*
X44014402Y-120517104D01*
X44005611Y-120507341D01*
X43874205Y-120389024D01*
X43863575Y-120381300D01*
X43710447Y-120292891D01*
X43698439Y-120287545D01*
X43530271Y-120232904D01*
X43517428Y-120230174D01*
X43385840Y-120216344D01*
X43379281Y-120216000D01*
X43203115Y-120216000D01*
X43187876Y-120220475D01*
X43186671Y-120221865D01*
X43185000Y-120229548D01*
X42183659Y-120229548D01*
X42180525Y-120218876D01*
X42179135Y-120217671D01*
X42171452Y-120216000D01*
X41990719Y-120216000D01*
X41984160Y-120216344D01*
X41852572Y-120230174D01*
X41839729Y-120232904D01*
X41671561Y-120287545D01*
X41659553Y-120292891D01*
X41506425Y-120381300D01*
X41495795Y-120389024D01*
X41364389Y-120507341D01*
X41355598Y-120517104D01*
X41291488Y-120605344D01*
X41287067Y-120617736D01*
X39950000Y-120617736D01*
X39950000Y-112983707D01*
X41286332Y-112983707D01*
X41289875Y-112992435D01*
X41355598Y-113082896D01*
X41364389Y-113092659D01*
X41495795Y-113210976D01*
X41506425Y-113218700D01*
X41659553Y-113307109D01*
X41671561Y-113312455D01*
X41839729Y-113367096D01*
X41852572Y-113369826D01*
X41984160Y-113383656D01*
X41990719Y-113384000D01*
X42166885Y-113384000D01*
X42182124Y-113379525D01*
X42183329Y-113378135D01*
X42185000Y-113370452D01*
X42185000Y-112998115D01*
X42183659Y-112993548D01*
X43185000Y-112993548D01*
X43185000Y-113365885D01*
X43189475Y-113381124D01*
X43190865Y-113382329D01*
X43198548Y-113384000D01*
X43379281Y-113384000D01*
X43385840Y-113383656D01*
X43517428Y-113369826D01*
X43530271Y-113367096D01*
X43698439Y-113312455D01*
X43710447Y-113307109D01*
X43863575Y-113218700D01*
X43874205Y-113210976D01*
X44005611Y-113092659D01*
X44014402Y-113082896D01*
X44078512Y-112994656D01*
X44082418Y-112983707D01*
X45261332Y-112983707D01*
X45264875Y-112992435D01*
X45330598Y-113082896D01*
X45339389Y-113092659D01*
X45475703Y-113215396D01*
X45474119Y-113217155D01*
X45510872Y-113264833D01*
X45516936Y-113335570D01*
X45483795Y-113398357D01*
X45475698Y-113405981D01*
X45404074Y-113467697D01*
X45326118Y-113587967D01*
X45323547Y-113596564D01*
X45323546Y-113596566D01*
X45298503Y-113680304D01*
X45285052Y-113725282D01*
X45284177Y-113868604D01*
X45323562Y-114006411D01*
X45400042Y-114127625D01*
X45507469Y-114222501D01*
X45637206Y-114283412D01*
X45646074Y-114284793D01*
X45646075Y-114284793D01*
X45656750Y-114286455D01*
X45746955Y-114300500D01*
X45819914Y-114300500D01*
X45861643Y-114294524D01*
X45917991Y-114286455D01*
X45917994Y-114286454D01*
X45926877Y-114285182D01*
X46057349Y-114225860D01*
X46165926Y-114132303D01*
X46243882Y-114012033D01*
X46248146Y-113997777D01*
X46282375Y-113883321D01*
X46284948Y-113874718D01*
X46285823Y-113731396D01*
X46246438Y-113593589D01*
X46169958Y-113472375D01*
X46062531Y-113377499D01*
X46062839Y-113377150D01*
X46020868Y-113327721D01*
X46010000Y-113276529D01*
X46010000Y-112998115D01*
X46005525Y-112982876D01*
X46004135Y-112981671D01*
X45996452Y-112980000D01*
X45273955Y-112980000D01*
X45261332Y-112983707D01*
X44082418Y-112983707D01*
X44082933Y-112982264D01*
X44073790Y-112980000D01*
X43203115Y-112980000D01*
X43187876Y-112984475D01*
X43186671Y-112985865D01*
X43185000Y-112993548D01*
X42183659Y-112993548D01*
X42180525Y-112982876D01*
X42179135Y-112981671D01*
X42171452Y-112980000D01*
X41298955Y-112980000D01*
X41286332Y-112983707D01*
X39950000Y-112983707D01*
X39950000Y-111876000D01*
X39970002Y-111807879D01*
X40023658Y-111761386D01*
X40076000Y-111750000D01*
X41200656Y-111750000D01*
X41268777Y-111770002D01*
G37*
%TD.AperFunction*%
%TD*%
%TA.AperFunction,Conductor*%
%TO.N,CHG_Supply*%
G36*
X50241621Y-113720002D02*
G01*
X50288114Y-113773658D01*
X50299500Y-113826000D01*
X50299500Y-114948310D01*
X50279498Y-115016431D01*
X50262595Y-115037405D01*
X49800000Y-115500000D01*
X49800000Y-119024000D01*
X49779998Y-119092121D01*
X49726342Y-119138614D01*
X49674000Y-119150000D01*
X48526000Y-119150000D01*
X48457879Y-119129998D01*
X48411386Y-119076342D01*
X48400000Y-119024000D01*
X48400000Y-113826000D01*
X48420002Y-113757879D01*
X48473658Y-113711386D01*
X48526000Y-113700000D01*
X50173500Y-113700000D01*
X50241621Y-113720002D01*
G37*
%TD.AperFunction*%
%TD*%
%TA.AperFunction,Conductor*%
%TO.N,GND*%
G36*
X85350605Y-111649500D02*
G01*
X69694539Y-111649500D01*
X69692858Y-111649377D01*
X69688200Y-111647777D01*
X69676875Y-111648202D01*
X69676872Y-111648202D01*
X69644678Y-111649411D01*
X69639951Y-111649500D01*
X69616726Y-111649500D01*
X69611331Y-111650505D01*
X69605541Y-111650880D01*
X69576410Y-111651974D01*
X69565722Y-111656566D01*
X69561110Y-111657605D01*
X69549459Y-111661144D01*
X69545032Y-111662853D01*
X69533593Y-111664983D01*
X69512620Y-111677911D01*
X69496260Y-111686409D01*
X69484987Y-111691252D01*
X69483775Y-111691773D01*
X69473624Y-111696134D01*
X69467146Y-111701455D01*
X69464954Y-111703647D01*
X69462691Y-111705699D01*
X69462449Y-111705433D01*
X69456293Y-111710299D01*
X69448263Y-111717580D01*
X69438361Y-111723684D01*
X69431320Y-111732944D01*
X69422717Y-111744257D01*
X69411516Y-111757085D01*
X67874037Y-113294563D01*
X67872757Y-113295668D01*
X67868334Y-113297830D01*
X67860621Y-113306145D01*
X67838701Y-113329775D01*
X67835420Y-113333180D01*
X67819012Y-113349588D01*
X67815904Y-113354119D01*
X67812091Y-113358460D01*
X67792254Y-113379846D01*
X67787943Y-113390653D01*
X67785403Y-113394670D01*
X67779680Y-113405388D01*
X67777756Y-113409730D01*
X67771177Y-113419320D01*
X67768491Y-113430637D01*
X67765489Y-113443286D01*
X67759926Y-113460874D01*
X67750799Y-113483752D01*
X67749981Y-113492095D01*
X67749981Y-113495178D01*
X67749831Y-113498247D01*
X67749473Y-113498229D01*
X67748561Y-113506016D01*
X67748031Y-113516848D01*
X67745345Y-113528168D01*
X67746914Y-113539697D01*
X67746914Y-113539699D01*
X67748830Y-113553776D01*
X67749981Y-113570767D01*
X67749981Y-118772857D01*
X67729979Y-118840978D01*
X67713076Y-118861953D01*
X66773552Y-119801476D01*
X66772277Y-119802577D01*
X66767853Y-119804739D01*
X66760147Y-119813046D01*
X66760145Y-119813048D01*
X66738220Y-119836684D01*
X66734939Y-119840089D01*
X66718531Y-119856497D01*
X66715423Y-119861028D01*
X66711610Y-119865369D01*
X66691773Y-119886755D01*
X66687462Y-119897562D01*
X66684922Y-119901579D01*
X66679199Y-119912297D01*
X66677275Y-119916639D01*
X66670696Y-119926229D01*
X66668010Y-119937546D01*
X66665008Y-119950195D01*
X66659445Y-119967783D01*
X66650318Y-119990661D01*
X66649500Y-119999004D01*
X66649500Y-120002087D01*
X66649350Y-120005156D01*
X66648992Y-120005138D01*
X66648080Y-120012925D01*
X66647550Y-120023757D01*
X66644864Y-120035077D01*
X66646433Y-120046606D01*
X66646433Y-120046608D01*
X66648349Y-120060685D01*
X66649500Y-120077676D01*
X66649500Y-120446562D01*
X66629498Y-120514683D01*
X66612595Y-120535657D01*
X66601472Y-120546780D01*
X66540281Y-120666874D01*
X66519196Y-120800000D01*
X66540281Y-120933126D01*
X66601472Y-121053220D01*
X66696780Y-121148528D01*
X66816874Y-121209719D01*
X66826663Y-121211269D01*
X66826665Y-121211270D01*
X66940207Y-121229253D01*
X66950000Y-121230804D01*
X66959793Y-121229253D01*
X67073335Y-121211270D01*
X67073337Y-121211269D01*
X67083126Y-121209719D01*
X67166298Y-121167341D01*
X67236074Y-121154237D01*
X67301858Y-121180937D01*
X67342765Y-121238964D01*
X67349500Y-121279608D01*
X67349500Y-122986521D01*
X67349498Y-122986551D01*
X67349493Y-122986566D01*
X67349493Y-123113434D01*
X67352557Y-123122864D01*
X67352557Y-123122865D01*
X67356291Y-123134357D01*
X67360904Y-123153571D01*
X67364347Y-123175306D01*
X67368848Y-123184139D01*
X67368848Y-123184140D01*
X67374334Y-123194907D01*
X67381898Y-123213168D01*
X67388697Y-123234093D01*
X67401632Y-123251896D01*
X67411958Y-123268748D01*
X67421944Y-123288347D01*
X67511653Y-123378056D01*
X67511668Y-123378063D01*
X67511692Y-123378084D01*
X67921916Y-123788308D01*
X67921937Y-123788332D01*
X67921944Y-123788347D01*
X68011653Y-123878056D01*
X68020493Y-123882560D01*
X68031252Y-123888042D01*
X68048104Y-123898368D01*
X68065907Y-123911303D01*
X68086839Y-123918104D01*
X68105096Y-123925667D01*
X68124694Y-123935653D01*
X68134482Y-123937203D01*
X68134484Y-123937204D01*
X68146419Y-123939094D01*
X68165636Y-123943707D01*
X68186566Y-123950508D01*
X68313434Y-123950508D01*
X68313451Y-123950503D01*
X68313485Y-123950500D01*
X72149628Y-123950500D01*
X72217749Y-123970502D01*
X72264242Y-124024158D01*
X72274346Y-124094432D01*
X72244852Y-124159012D01*
X72238723Y-124165595D01*
X71801863Y-124602455D01*
X71732482Y-124637808D01*
X71726670Y-124638729D01*
X71726668Y-124638730D01*
X71716874Y-124640281D01*
X71704164Y-124646757D01*
X62442499Y-124647166D01*
X62445501Y-119264717D01*
X62516559Y-119184259D01*
X62522501Y-119177531D01*
X62552956Y-119112663D01*
X62579597Y-119055920D01*
X62579597Y-119055919D01*
X62583412Y-119047794D01*
X62600500Y-118938045D01*
X62600500Y-116215086D01*
X62585182Y-116108123D01*
X62525860Y-115977651D01*
X62519999Y-115970849D01*
X62447386Y-115886578D01*
X62450000Y-111200000D01*
X85350503Y-111200000D01*
X85350605Y-111649500D01*
G37*
%TD.AperFunction*%
%TA.AperFunction,Conductor*%
G36*
X77467749Y-124520502D02*
G01*
X77514242Y-124574158D01*
X77524346Y-124644432D01*
X77523402Y-124646500D01*
X72748971Y-124646711D01*
X72858277Y-124537405D01*
X72920589Y-124503379D01*
X72947372Y-124500500D01*
X77399628Y-124500500D01*
X77467749Y-124520502D01*
G37*
%TD.AperFunction*%
%TA.AperFunction,Conductor*%
G36*
X85353206Y-123149500D02*
G01*
X68468082Y-123149500D01*
X68399961Y-123129498D01*
X68378987Y-123112595D01*
X68187405Y-122921013D01*
X68153379Y-122858701D01*
X68150500Y-122831918D01*
X68150500Y-120376435D01*
X68156296Y-120339844D01*
X68159719Y-120333126D01*
X68180804Y-120200000D01*
X68159719Y-120066874D01*
X68158893Y-120065252D01*
X68156994Y-119998776D01*
X68193656Y-119937978D01*
X68257369Y-119906653D01*
X68327902Y-119914747D01*
X68336056Y-119918541D01*
X68398182Y-119950195D01*
X68416874Y-119959719D01*
X68426663Y-119961269D01*
X68426665Y-119961270D01*
X68540207Y-119979253D01*
X68550000Y-119980804D01*
X68559793Y-119979253D01*
X68673335Y-119961270D01*
X68673337Y-119961269D01*
X68683126Y-119959719D01*
X68803220Y-119898528D01*
X68898528Y-119803220D01*
X68959719Y-119683126D01*
X68980804Y-119550000D01*
X68977258Y-119527613D01*
X68961270Y-119426666D01*
X68961270Y-119426665D01*
X68959719Y-119416874D01*
X68956296Y-119410156D01*
X68950500Y-119373565D01*
X68950500Y-117100000D01*
X72950000Y-117100000D01*
X72950000Y-119700000D01*
X75250000Y-119700000D01*
X75268627Y-119680256D01*
X77712702Y-117089536D01*
X77773998Y-117053711D01*
X77804354Y-117050000D01*
X79400000Y-117050000D01*
X79400000Y-112750000D01*
X77500000Y-112750000D01*
X72950000Y-117100000D01*
X68950500Y-117100000D01*
X68950500Y-113968083D01*
X68970502Y-113899962D01*
X68987405Y-113878987D01*
X69878989Y-112987404D01*
X69941301Y-112953379D01*
X69968084Y-112950500D01*
X75973565Y-112950500D01*
X76010156Y-112956296D01*
X76016874Y-112959719D01*
X76026665Y-112961270D01*
X76026666Y-112961270D01*
X76140207Y-112979253D01*
X76150000Y-112980804D01*
X76159793Y-112979253D01*
X76273335Y-112961270D01*
X76273337Y-112961269D01*
X76283126Y-112959719D01*
X76403220Y-112898528D01*
X76498528Y-112803220D01*
X76559719Y-112683126D01*
X76580804Y-112550000D01*
X76559719Y-112416874D01*
X76557540Y-112412597D01*
X76555593Y-112344469D01*
X76592255Y-112283671D01*
X76655967Y-112252346D01*
X76677454Y-112250500D01*
X85350741Y-112250500D01*
X85353206Y-123149500D01*
G37*
%TD.AperFunction*%
%TD*%
%TA.AperFunction,Conductor*%
%TO.N,GND*%
G36*
X82925773Y-107870502D02*
G01*
X82946747Y-107887405D01*
X86147650Y-111088308D01*
X86147671Y-111088332D01*
X86147678Y-111088347D01*
X86237387Y-111178056D01*
X86246221Y-111182557D01*
X86246222Y-111182558D01*
X86256992Y-111188046D01*
X86273849Y-111198375D01*
X86291641Y-111211302D01*
X86312562Y-111218100D01*
X86330822Y-111225664D01*
X86341590Y-111231150D01*
X86350428Y-111235653D01*
X86372159Y-111239095D01*
X86391376Y-111243708D01*
X86412300Y-111250507D01*
X86539168Y-111250507D01*
X86539183Y-111250502D01*
X86539213Y-111250500D01*
X112807652Y-111250500D01*
X112875773Y-111270502D01*
X112896747Y-111287405D01*
X115022651Y-113413309D01*
X115022672Y-113413333D01*
X115022679Y-113413348D01*
X115112388Y-113503057D01*
X115127968Y-113510995D01*
X115131987Y-113513043D01*
X115148839Y-113523369D01*
X115166642Y-113536304D01*
X115187567Y-113543103D01*
X115205828Y-113550667D01*
X115216595Y-113556153D01*
X115225429Y-113560654D01*
X115247164Y-113564097D01*
X115266376Y-113568710D01*
X115287301Y-113575508D01*
X115414169Y-113575508D01*
X115414184Y-113575503D01*
X115414214Y-113575501D01*
X119156919Y-113575501D01*
X119225040Y-113595503D01*
X119246014Y-113612406D01*
X119300630Y-113667022D01*
X119323802Y-113698915D01*
X119330773Y-113712595D01*
X119351472Y-113753220D01*
X119382657Y-113784405D01*
X119416683Y-113846717D01*
X119411618Y-113917532D01*
X119369071Y-113974368D01*
X119302551Y-113999179D01*
X119293562Y-113999500D01*
X113361389Y-113999500D01*
X113293268Y-113979498D01*
X113272294Y-113962595D01*
X111698309Y-112388610D01*
X111684957Y-112372078D01*
X111682606Y-112369494D01*
X111676956Y-112360744D01*
X111652016Y-112341083D01*
X111648356Y-112337830D01*
X111648254Y-112337951D01*
X111644297Y-112334598D01*
X111640617Y-112330918D01*
X111636384Y-112327893D01*
X111627038Y-112321214D01*
X111622288Y-112317648D01*
X111593457Y-112294919D01*
X111593456Y-112294918D01*
X111585280Y-112288473D01*
X111577299Y-112285670D01*
X111570415Y-112280751D01*
X111525242Y-112267242D01*
X111519594Y-112265406D01*
X111482619Y-112252421D01*
X111482618Y-112252421D01*
X111475138Y-112249794D01*
X111471744Y-112249500D01*
X111469034Y-112249500D01*
X111466303Y-112249382D01*
X111466309Y-112249252D01*
X111464761Y-112249155D01*
X111458573Y-112247304D01*
X111407105Y-112249326D01*
X111405137Y-112249403D01*
X111400191Y-112249500D01*
X93729600Y-112249500D01*
X93672397Y-112235767D01*
X93654457Y-112226626D01*
X93583126Y-112190281D01*
X93573337Y-112188731D01*
X93573335Y-112188730D01*
X93459793Y-112170747D01*
X93450000Y-112169196D01*
X93440207Y-112170747D01*
X93326665Y-112188730D01*
X93326663Y-112188731D01*
X93316874Y-112190281D01*
X93196780Y-112251472D01*
X93101472Y-112346780D01*
X93040281Y-112466874D01*
X93038731Y-112476663D01*
X93038730Y-112476665D01*
X93027625Y-112546780D01*
X93019196Y-112600000D01*
X93020747Y-112609793D01*
X93032677Y-112685114D01*
X93040281Y-112733126D01*
X93101472Y-112853220D01*
X93196780Y-112948528D01*
X93316874Y-113009719D01*
X93326663Y-113011269D01*
X93326665Y-113011270D01*
X93440207Y-113029253D01*
X93450000Y-113030804D01*
X93459793Y-113029253D01*
X93573335Y-113011270D01*
X93573337Y-113011269D01*
X93583126Y-113009719D01*
X93672398Y-112964233D01*
X93729600Y-112950500D01*
X105948706Y-112950500D01*
X106016827Y-112970502D01*
X106063320Y-113024158D01*
X106073424Y-113094432D01*
X106052658Y-113145594D01*
X106051472Y-113146780D01*
X105990281Y-113266874D01*
X105988731Y-113276663D01*
X105988730Y-113276665D01*
X105976605Y-113353220D01*
X105969196Y-113400000D01*
X105970747Y-113409793D01*
X105986574Y-113509719D01*
X105990281Y-113533126D01*
X105994782Y-113541959D01*
X105994783Y-113541963D01*
X106007182Y-113566298D01*
X106020286Y-113636075D01*
X105993585Y-113701860D01*
X105935557Y-113742765D01*
X105894915Y-113749500D01*
X92376641Y-113749500D01*
X92308520Y-113729498D01*
X92287546Y-113712595D01*
X91334746Y-112759794D01*
X90348508Y-111773556D01*
X90347403Y-111772276D01*
X90345241Y-111767853D01*
X90313296Y-111738220D01*
X90309891Y-111734939D01*
X90293483Y-111718531D01*
X90288952Y-111715423D01*
X90284611Y-111711610D01*
X90263225Y-111691773D01*
X90252418Y-111687462D01*
X90248401Y-111684922D01*
X90237683Y-111679199D01*
X90233341Y-111677275D01*
X90223751Y-111670696D01*
X90199786Y-111665008D01*
X90182197Y-111659445D01*
X90159319Y-111650318D01*
X90150976Y-111649500D01*
X90147893Y-111649500D01*
X90144824Y-111649350D01*
X90144842Y-111648992D01*
X90137055Y-111648080D01*
X90126223Y-111647550D01*
X90114903Y-111644864D01*
X90103374Y-111646433D01*
X90103372Y-111646433D01*
X90089295Y-111648349D01*
X90072304Y-111649500D01*
X69694539Y-111649500D01*
X69692858Y-111649377D01*
X69688200Y-111647777D01*
X69676875Y-111648202D01*
X69676872Y-111648202D01*
X69644678Y-111649411D01*
X69639951Y-111649500D01*
X69616726Y-111649500D01*
X69611331Y-111650505D01*
X69605541Y-111650880D01*
X69576410Y-111651974D01*
X69565722Y-111656566D01*
X69561110Y-111657605D01*
X69549459Y-111661144D01*
X69545032Y-111662853D01*
X69533593Y-111664983D01*
X69512620Y-111677911D01*
X69496260Y-111686409D01*
X69484987Y-111691252D01*
X69483775Y-111691773D01*
X69473624Y-111696134D01*
X69467146Y-111701455D01*
X69464954Y-111703647D01*
X69462691Y-111705699D01*
X69462449Y-111705433D01*
X69456293Y-111710299D01*
X69448263Y-111717580D01*
X69438361Y-111723684D01*
X69431320Y-111732944D01*
X69422717Y-111744257D01*
X69411516Y-111757085D01*
X69155506Y-112013095D01*
X69093194Y-112047121D01*
X69066411Y-112050000D01*
X63750000Y-112050000D01*
X63750000Y-124050000D01*
X72050128Y-124050000D01*
X72118249Y-124070002D01*
X72164742Y-124123658D01*
X72174846Y-124193932D01*
X72145352Y-124258512D01*
X72139223Y-124265095D01*
X71801863Y-124602455D01*
X71732482Y-124637808D01*
X71726670Y-124638729D01*
X71726668Y-124638730D01*
X71716874Y-124640281D01*
X71596780Y-124701472D01*
X71501472Y-124796780D01*
X71440281Y-124916874D01*
X71438731Y-124926663D01*
X71438730Y-124926665D01*
X71427115Y-125000000D01*
X71419196Y-125050000D01*
X71420747Y-125059793D01*
X71437859Y-125167831D01*
X71440281Y-125183126D01*
X71501472Y-125303220D01*
X71596780Y-125398528D01*
X71716874Y-125459719D01*
X71726663Y-125461269D01*
X71726665Y-125461270D01*
X71840207Y-125479253D01*
X71850000Y-125480804D01*
X71859793Y-125479253D01*
X71973335Y-125461270D01*
X71973337Y-125461269D01*
X71983126Y-125459719D01*
X72103220Y-125398528D01*
X72198528Y-125303220D01*
X72259719Y-125183126D01*
X72262142Y-125167831D01*
X72262192Y-125167518D01*
X72297545Y-125098137D01*
X72858277Y-124537405D01*
X72920589Y-124503379D01*
X72947372Y-124500500D01*
X77399628Y-124500500D01*
X77467749Y-124520502D01*
X77514242Y-124574158D01*
X77524346Y-124644432D01*
X77494852Y-124709012D01*
X77488723Y-124715595D01*
X77088610Y-125115708D01*
X77072078Y-125129060D01*
X77069494Y-125131411D01*
X77060744Y-125137061D01*
X77054297Y-125145239D01*
X77041083Y-125162001D01*
X77037830Y-125165661D01*
X77037951Y-125165763D01*
X77034598Y-125169720D01*
X77030918Y-125173400D01*
X77027894Y-125177632D01*
X77027893Y-125177633D01*
X77021214Y-125186979D01*
X77017651Y-125191725D01*
X76988473Y-125228737D01*
X76985670Y-125236718D01*
X76980751Y-125243602D01*
X76977084Y-125255865D01*
X76967242Y-125288775D01*
X76965406Y-125294423D01*
X76959855Y-125310231D01*
X76949794Y-125338879D01*
X76949500Y-125342273D01*
X76949500Y-125344983D01*
X76949382Y-125347714D01*
X76949252Y-125347708D01*
X76949155Y-125349256D01*
X76947304Y-125355444D01*
X76947713Y-125365848D01*
X76949403Y-125408880D01*
X76949500Y-125413826D01*
X76949500Y-126970400D01*
X76935767Y-127027602D01*
X76890281Y-127116874D01*
X76888731Y-127126663D01*
X76888730Y-127126665D01*
X76872561Y-127228755D01*
X76869196Y-127250000D01*
X76890281Y-127383126D01*
X76951472Y-127503220D01*
X77046780Y-127598528D01*
X77166874Y-127659719D01*
X77176663Y-127661269D01*
X77176665Y-127661270D01*
X77290207Y-127679253D01*
X77300000Y-127680804D01*
X77309793Y-127679253D01*
X77423335Y-127661270D01*
X77423337Y-127661269D01*
X77433126Y-127659719D01*
X77553220Y-127598528D01*
X77648528Y-127503220D01*
X77709719Y-127383126D01*
X77730804Y-127250000D01*
X77727439Y-127228755D01*
X77711270Y-127126665D01*
X77711269Y-127126663D01*
X77709719Y-127116874D01*
X77664233Y-127027602D01*
X77650500Y-126970400D01*
X77650500Y-125597372D01*
X77670502Y-125529251D01*
X77687405Y-125508277D01*
X78058277Y-125137405D01*
X78120589Y-125103379D01*
X78147372Y-125100500D01*
X88134369Y-125100500D01*
X88202490Y-125120502D01*
X88248983Y-125174158D01*
X88259087Y-125244432D01*
X88229593Y-125309012D01*
X88211334Y-125326261D01*
X88101147Y-125411270D01*
X87971513Y-125511282D01*
X87968812Y-125513941D01*
X87968805Y-125513947D01*
X87767013Y-125712595D01*
X87739469Y-125739710D01*
X87737105Y-125742677D01*
X87737102Y-125742680D01*
X87611740Y-125900000D01*
X87536548Y-125994360D01*
X87365690Y-126271544D01*
X87229369Y-126567247D01*
X87228210Y-126570848D01*
X87228207Y-126570854D01*
X87134685Y-126861270D01*
X87129560Y-126877185D01*
X87128841Y-126880901D01*
X87128839Y-126880909D01*
X87068428Y-127193151D01*
X87068427Y-127193160D01*
X87067709Y-127196870D01*
X87067442Y-127200646D01*
X87067441Y-127200651D01*
X87044980Y-127517880D01*
X87044712Y-127521669D01*
X87048762Y-127603028D01*
X87057407Y-127776665D01*
X87060902Y-127846879D01*
X87061543Y-127850610D01*
X87061544Y-127850618D01*
X87113542Y-128153220D01*
X87116045Y-128167789D01*
X87117133Y-128171428D01*
X87117134Y-128171431D01*
X87198884Y-128444782D01*
X87209341Y-128479749D01*
X87210854Y-128483220D01*
X87210856Y-128483226D01*
X87242356Y-128555498D01*
X87339439Y-128778242D01*
X87504455Y-129058944D01*
X87506756Y-129061959D01*
X87699698Y-129314775D01*
X87699703Y-129314781D01*
X87701998Y-129317788D01*
X87929208Y-129551025D01*
X88182792Y-129755276D01*
X88281908Y-129817090D01*
X88329122Y-129870107D01*
X88340178Y-129940238D01*
X88311564Y-130005213D01*
X88252364Y-130044403D01*
X88215229Y-130050000D01*
X42274169Y-130050000D01*
X42250000Y-130047295D01*
X42250000Y-130045000D01*
X42149074Y-130043241D01*
X42143084Y-130042992D01*
X42047524Y-130036729D01*
X42039320Y-130035921D01*
X41810092Y-130005742D01*
X41801959Y-130004399D01*
X41724685Y-129989029D01*
X41716670Y-129987161D01*
X41541551Y-129940238D01*
X41493304Y-129927310D01*
X41485421Y-129924919D01*
X41410795Y-129899586D01*
X41403122Y-129896698D01*
X41189480Y-129808205D01*
X41181994Y-129804813D01*
X41111306Y-129769954D01*
X41104035Y-129766067D01*
X40903810Y-129650466D01*
X40896809Y-129646113D01*
X40842035Y-129609515D01*
X40831286Y-129602333D01*
X40824592Y-129597535D01*
X40641160Y-129456782D01*
X40634787Y-129451552D01*
X40575533Y-129399588D01*
X40569515Y-129393951D01*
X40406049Y-129230485D01*
X40400412Y-129224467D01*
X40348448Y-129165213D01*
X40343218Y-129158840D01*
X40202465Y-128975408D01*
X40197661Y-128968705D01*
X40153887Y-128903191D01*
X40149534Y-128896190D01*
X40033933Y-128695965D01*
X40030046Y-128688694D01*
X40029967Y-128688534D01*
X39995187Y-128618006D01*
X39991795Y-128610520D01*
X39903302Y-128396878D01*
X39900414Y-128389205D01*
X39875081Y-128314579D01*
X39872690Y-128306696D01*
X39855225Y-128241517D01*
X39812839Y-128083330D01*
X39810971Y-128075315D01*
X39795601Y-127998041D01*
X39794258Y-127989908D01*
X39764079Y-127760680D01*
X39763271Y-127752475D01*
X39757008Y-127656916D01*
X39756759Y-127650926D01*
X39755000Y-127550000D01*
X39752768Y-127550000D01*
X39750000Y-127531874D01*
X39750000Y-122476000D01*
X39770002Y-122407879D01*
X39823658Y-122361386D01*
X39876000Y-122350000D01*
X53650000Y-122350000D01*
X53650000Y-119150000D01*
X50226000Y-119150000D01*
X50157879Y-119129998D01*
X50111386Y-119076342D01*
X50100000Y-119024000D01*
X50100000Y-116911299D01*
X50120002Y-116843178D01*
X50173658Y-116796685D01*
X50243932Y-116786581D01*
X50308512Y-116816075D01*
X50336634Y-116852011D01*
X50338697Y-116858359D01*
X50351632Y-116876162D01*
X50361958Y-116893014D01*
X50371944Y-116912613D01*
X50461653Y-117002322D01*
X50461668Y-117002329D01*
X50461692Y-117002350D01*
X51122651Y-117663309D01*
X51122672Y-117663333D01*
X51122679Y-117663348D01*
X51212388Y-117753057D01*
X51222372Y-117758144D01*
X51231987Y-117763043D01*
X51248839Y-117773369D01*
X51266642Y-117786304D01*
X51287574Y-117793105D01*
X51305831Y-117800668D01*
X51325429Y-117810654D01*
X51335217Y-117812204D01*
X51335219Y-117812205D01*
X51347154Y-117814095D01*
X51366371Y-117818708D01*
X51387301Y-117825509D01*
X51514169Y-117825509D01*
X51514186Y-117825504D01*
X51514220Y-117825501D01*
X52181939Y-117825501D01*
X52250060Y-117845503D01*
X52271034Y-117862406D01*
X52500630Y-118092002D01*
X52523802Y-118123895D01*
X52546230Y-118167911D01*
X52551472Y-118178200D01*
X52646780Y-118273508D01*
X52766874Y-118334699D01*
X52776663Y-118336249D01*
X52776665Y-118336250D01*
X52890207Y-118354233D01*
X52900000Y-118355784D01*
X52909793Y-118354233D01*
X53023335Y-118336250D01*
X53023337Y-118336249D01*
X53033126Y-118334699D01*
X53153220Y-118273508D01*
X53248528Y-118178200D01*
X53309719Y-118058106D01*
X53330804Y-117924980D01*
X53318216Y-117845503D01*
X53311270Y-117801645D01*
X53311269Y-117801643D01*
X53309719Y-117791854D01*
X53248528Y-117671760D01*
X53153220Y-117576452D01*
X53144387Y-117571951D01*
X53144385Y-117571950D01*
X53098915Y-117548782D01*
X53067022Y-117525610D01*
X52755508Y-117214096D01*
X52721482Y-117151784D01*
X52726547Y-117080969D01*
X52755508Y-117035906D01*
X53017025Y-116774389D01*
X53048917Y-116751217D01*
X53103220Y-116723548D01*
X53198528Y-116628240D01*
X53259719Y-116508146D01*
X53270714Y-116438730D01*
X53279253Y-116384813D01*
X53280804Y-116375020D01*
X53275302Y-116340281D01*
X53261270Y-116251685D01*
X53261269Y-116251683D01*
X53259719Y-116241894D01*
X53244464Y-116211955D01*
X61599500Y-116211955D01*
X61599500Y-118934914D01*
X61603461Y-118962574D01*
X61612258Y-119024000D01*
X61614818Y-119041877D01*
X61674140Y-119172349D01*
X61767697Y-119280926D01*
X61887967Y-119358882D01*
X61896564Y-119361453D01*
X61896566Y-119361454D01*
X61980304Y-119386497D01*
X62025282Y-119399948D01*
X62034258Y-119400003D01*
X62034259Y-119400003D01*
X62095973Y-119400380D01*
X62168604Y-119400823D01*
X62177235Y-119398356D01*
X62177237Y-119398356D01*
X62297777Y-119363906D01*
X62297780Y-119363905D01*
X62306411Y-119361438D01*
X62427625Y-119284958D01*
X62522501Y-119177531D01*
X62558370Y-119101132D01*
X62579597Y-119055920D01*
X62579597Y-119055919D01*
X62583412Y-119047794D01*
X62600500Y-118938045D01*
X62600500Y-116215086D01*
X62588406Y-116130633D01*
X62586455Y-116117009D01*
X62586454Y-116117006D01*
X62585182Y-116108123D01*
X62525860Y-115977651D01*
X62432303Y-115869074D01*
X62312033Y-115791118D01*
X62303436Y-115788547D01*
X62303434Y-115788546D01*
X62219696Y-115763503D01*
X62174718Y-115750052D01*
X62165742Y-115749997D01*
X62165741Y-115749997D01*
X62104027Y-115749620D01*
X62031396Y-115749177D01*
X62022765Y-115751644D01*
X62022763Y-115751644D01*
X61902223Y-115786094D01*
X61902220Y-115786095D01*
X61893589Y-115788562D01*
X61772375Y-115865042D01*
X61677499Y-115972469D01*
X61616588Y-116102206D01*
X61599500Y-116211955D01*
X53244464Y-116211955D01*
X53198528Y-116121800D01*
X53103220Y-116026492D01*
X52983126Y-115965301D01*
X52973337Y-115963751D01*
X52973335Y-115963750D01*
X52859793Y-115945767D01*
X52850000Y-115944216D01*
X52840207Y-115945767D01*
X52726665Y-115963750D01*
X52726663Y-115963751D01*
X52716874Y-115965301D01*
X52596780Y-116026492D01*
X52501472Y-116121800D01*
X52488744Y-116146780D01*
X52473803Y-116176103D01*
X52450632Y-116207995D01*
X52271034Y-116387594D01*
X52208722Y-116421619D01*
X52181938Y-116424499D01*
X51917347Y-116424499D01*
X51849226Y-116404497D01*
X51828252Y-116387594D01*
X51737405Y-116296747D01*
X51703379Y-116234435D01*
X51700500Y-116207652D01*
X51700500Y-115676000D01*
X51720502Y-115607879D01*
X51774158Y-115561386D01*
X51826500Y-115550000D01*
X52500000Y-115550000D01*
X52500000Y-112900000D01*
X51826500Y-112900000D01*
X51758379Y-112879998D01*
X51711886Y-112826342D01*
X51700500Y-112774000D01*
X51700500Y-108942611D01*
X67194394Y-108942611D01*
X67212999Y-109111135D01*
X67220867Y-109132634D01*
X67267561Y-109260231D01*
X67271266Y-109270356D01*
X67275502Y-109276659D01*
X67275502Y-109276660D01*
X67288574Y-109296113D01*
X67365830Y-109411083D01*
X67371442Y-109416190D01*
X67371445Y-109416193D01*
X67485612Y-109520077D01*
X67485616Y-109520080D01*
X67491233Y-109525191D01*
X67497906Y-109528814D01*
X67497910Y-109528817D01*
X67633558Y-109602467D01*
X67633560Y-109602468D01*
X67640235Y-109606092D01*
X67647584Y-109608020D01*
X67796883Y-109647188D01*
X67796885Y-109647188D01*
X67804233Y-109649116D01*
X67890609Y-109650473D01*
X67966161Y-109651660D01*
X67966164Y-109651660D01*
X67973760Y-109651779D01*
X67981165Y-109650083D01*
X67981166Y-109650083D01*
X68047524Y-109634885D01*
X68139029Y-109613928D01*
X68290498Y-109537747D01*
X68419423Y-109427634D01*
X68518361Y-109289947D01*
X68526237Y-109270356D01*
X68578766Y-109139687D01*
X68578767Y-109139685D01*
X68581601Y-109132634D01*
X68605490Y-108964778D01*
X68605645Y-108950000D01*
X68604751Y-108942611D01*
X71194394Y-108942611D01*
X71212999Y-109111135D01*
X71220867Y-109132634D01*
X71267561Y-109260231D01*
X71271266Y-109270356D01*
X71275502Y-109276659D01*
X71275502Y-109276660D01*
X71288574Y-109296113D01*
X71365830Y-109411083D01*
X71371442Y-109416190D01*
X71371445Y-109416193D01*
X71485612Y-109520077D01*
X71485616Y-109520080D01*
X71491233Y-109525191D01*
X71497906Y-109528814D01*
X71497910Y-109528817D01*
X71633558Y-109602467D01*
X71633560Y-109602468D01*
X71640235Y-109606092D01*
X71647584Y-109608020D01*
X71796883Y-109647188D01*
X71796885Y-109647188D01*
X71804233Y-109649116D01*
X71890609Y-109650473D01*
X71966161Y-109651660D01*
X71966164Y-109651660D01*
X71973760Y-109651779D01*
X71981165Y-109650083D01*
X71981166Y-109650083D01*
X72047524Y-109634885D01*
X72139029Y-109613928D01*
X72290498Y-109537747D01*
X72419423Y-109427634D01*
X72518361Y-109289947D01*
X72526237Y-109270356D01*
X72578766Y-109139687D01*
X72578767Y-109139685D01*
X72581601Y-109132634D01*
X72605490Y-108964778D01*
X72605645Y-108950000D01*
X72604751Y-108942611D01*
X75194394Y-108942611D01*
X75212999Y-109111135D01*
X75220867Y-109132634D01*
X75267561Y-109260231D01*
X75271266Y-109270356D01*
X75275502Y-109276659D01*
X75275502Y-109276660D01*
X75288574Y-109296113D01*
X75365830Y-109411083D01*
X75371442Y-109416190D01*
X75371445Y-109416193D01*
X75485612Y-109520077D01*
X75485616Y-109520080D01*
X75491233Y-109525191D01*
X75497906Y-109528814D01*
X75497910Y-109528817D01*
X75633558Y-109602467D01*
X75633560Y-109602468D01*
X75640235Y-109606092D01*
X75647584Y-109608020D01*
X75796883Y-109647188D01*
X75796885Y-109647188D01*
X75804233Y-109649116D01*
X75890609Y-109650473D01*
X75966161Y-109651660D01*
X75966164Y-109651660D01*
X75973760Y-109651779D01*
X75981165Y-109650083D01*
X75981166Y-109650083D01*
X76047524Y-109634885D01*
X76139029Y-109613928D01*
X76290498Y-109537747D01*
X76419423Y-109427634D01*
X76518361Y-109289947D01*
X76526237Y-109270356D01*
X76578766Y-109139687D01*
X76578767Y-109139685D01*
X76581601Y-109132634D01*
X76605490Y-108964778D01*
X76605645Y-108950000D01*
X76604751Y-108942611D01*
X79194394Y-108942611D01*
X79212999Y-109111135D01*
X79220867Y-109132634D01*
X79267561Y-109260231D01*
X79271266Y-109270356D01*
X79275502Y-109276659D01*
X79275502Y-109276660D01*
X79288574Y-109296113D01*
X79365830Y-109411083D01*
X79371442Y-109416190D01*
X79371445Y-109416193D01*
X79485612Y-109520077D01*
X79485616Y-109520080D01*
X79491233Y-109525191D01*
X79497906Y-109528814D01*
X79497910Y-109528817D01*
X79633558Y-109602467D01*
X79633560Y-109602468D01*
X79640235Y-109606092D01*
X79647584Y-109608020D01*
X79796883Y-109647188D01*
X79796885Y-109647188D01*
X79804233Y-109649116D01*
X79890609Y-109650473D01*
X79966161Y-109651660D01*
X79966164Y-109651660D01*
X79973760Y-109651779D01*
X79981165Y-109650083D01*
X79981166Y-109650083D01*
X80047524Y-109634885D01*
X80139029Y-109613928D01*
X80290498Y-109537747D01*
X80419423Y-109427634D01*
X80518361Y-109289947D01*
X80526237Y-109270356D01*
X80578766Y-109139687D01*
X80578767Y-109139685D01*
X80581601Y-109132634D01*
X80605490Y-108964778D01*
X80605645Y-108950000D01*
X80603840Y-108935080D01*
X80595903Y-108869497D01*
X80585276Y-108781680D01*
X80525345Y-108623077D01*
X80429312Y-108483349D01*
X80316825Y-108383126D01*
X80308392Y-108375612D01*
X80308388Y-108375610D01*
X80302721Y-108370560D01*
X80269309Y-108352869D01*
X80211292Y-108322151D01*
X80152881Y-108291224D01*
X79988441Y-108249919D01*
X79980843Y-108249879D01*
X79980841Y-108249879D01*
X79903668Y-108249475D01*
X79818895Y-108249031D01*
X79811508Y-108250805D01*
X79811504Y-108250805D01*
X79723249Y-108271994D01*
X79654032Y-108288612D01*
X79647288Y-108292093D01*
X79647285Y-108292094D01*
X79529536Y-108352869D01*
X79503369Y-108366375D01*
X79497647Y-108371367D01*
X79497645Y-108371368D01*
X79492780Y-108375612D01*
X79375604Y-108477831D01*
X79352833Y-108510231D01*
X79292904Y-108595502D01*
X79278113Y-108616547D01*
X79216524Y-108774513D01*
X79215532Y-108782046D01*
X79215532Y-108782047D01*
X79199079Y-108907025D01*
X79194394Y-108942611D01*
X76604751Y-108942611D01*
X76603840Y-108935080D01*
X76595903Y-108869497D01*
X76585276Y-108781680D01*
X76525345Y-108623077D01*
X76429312Y-108483349D01*
X76316825Y-108383126D01*
X76308392Y-108375612D01*
X76308388Y-108375610D01*
X76302721Y-108370560D01*
X76269309Y-108352869D01*
X76211292Y-108322151D01*
X76152881Y-108291224D01*
X75988441Y-108249919D01*
X75980843Y-108249879D01*
X75980841Y-108249879D01*
X75903668Y-108249475D01*
X75818895Y-108249031D01*
X75811508Y-108250805D01*
X75811504Y-108250805D01*
X75723249Y-108271994D01*
X75654032Y-108288612D01*
X75647288Y-108292093D01*
X75647285Y-108292094D01*
X75529536Y-108352869D01*
X75503369Y-108366375D01*
X75497647Y-108371367D01*
X75497645Y-108371368D01*
X75492780Y-108375612D01*
X75375604Y-108477831D01*
X75352833Y-108510231D01*
X75292904Y-108595502D01*
X75278113Y-108616547D01*
X75216524Y-108774513D01*
X75215532Y-108782046D01*
X75215532Y-108782047D01*
X75199079Y-108907025D01*
X75194394Y-108942611D01*
X72604751Y-108942611D01*
X72603840Y-108935080D01*
X72595903Y-108869497D01*
X72585276Y-108781680D01*
X72525345Y-108623077D01*
X72429312Y-108483349D01*
X72316825Y-108383126D01*
X72308392Y-108375612D01*
X72308388Y-108375610D01*
X72302721Y-108370560D01*
X72269309Y-108352869D01*
X72211292Y-108322151D01*
X72152881Y-108291224D01*
X71988441Y-108249919D01*
X71980843Y-108249879D01*
X71980841Y-108249879D01*
X71903668Y-108249475D01*
X71818895Y-108249031D01*
X71811508Y-108250805D01*
X71811504Y-108250805D01*
X71723249Y-108271994D01*
X71654032Y-108288612D01*
X71647288Y-108292093D01*
X71647285Y-108292094D01*
X71529536Y-108352869D01*
X71503369Y-108366375D01*
X71497647Y-108371367D01*
X71497645Y-108371368D01*
X71492780Y-108375612D01*
X71375604Y-108477831D01*
X71352833Y-108510231D01*
X71292904Y-108595502D01*
X71278113Y-108616547D01*
X71216524Y-108774513D01*
X71215532Y-108782046D01*
X71215532Y-108782047D01*
X71199079Y-108907025D01*
X71194394Y-108942611D01*
X68604751Y-108942611D01*
X68603840Y-108935080D01*
X68595903Y-108869497D01*
X68585276Y-108781680D01*
X68525345Y-108623077D01*
X68429312Y-108483349D01*
X68316825Y-108383126D01*
X68308392Y-108375612D01*
X68308388Y-108375610D01*
X68302721Y-108370560D01*
X68269309Y-108352869D01*
X68211292Y-108322151D01*
X68152881Y-108291224D01*
X67988441Y-108249919D01*
X67980843Y-108249879D01*
X67980841Y-108249879D01*
X67903668Y-108249475D01*
X67818895Y-108249031D01*
X67811508Y-108250805D01*
X67811504Y-108250805D01*
X67723249Y-108271994D01*
X67654032Y-108288612D01*
X67647288Y-108292093D01*
X67647285Y-108292094D01*
X67529536Y-108352869D01*
X67503369Y-108366375D01*
X67497647Y-108371367D01*
X67497645Y-108371368D01*
X67492780Y-108375612D01*
X67375604Y-108477831D01*
X67352833Y-108510231D01*
X67292904Y-108595502D01*
X67278113Y-108616547D01*
X67216524Y-108774513D01*
X67215532Y-108782046D01*
X67215532Y-108782047D01*
X67199079Y-108907025D01*
X67194394Y-108942611D01*
X51700500Y-108942611D01*
X51700500Y-108892348D01*
X51720502Y-108824227D01*
X51737401Y-108803257D01*
X52653256Y-107887403D01*
X52715566Y-107853379D01*
X52742349Y-107850500D01*
X82857652Y-107850500D01*
X82925773Y-107870502D01*
G37*
%TD.AperFunction*%
%TA.AperFunction,Conductor*%
G36*
X88280251Y-65070002D02*
G01*
X88326744Y-65123658D01*
X88336848Y-65193932D01*
X88307354Y-65258512D01*
X88276552Y-65284285D01*
X88232585Y-65310442D01*
X88232574Y-65310450D01*
X88229319Y-65312386D01*
X87971513Y-65511282D01*
X87968812Y-65513941D01*
X87968805Y-65513947D01*
X87815603Y-65664762D01*
X87739469Y-65739710D01*
X87737105Y-65742677D01*
X87737102Y-65742680D01*
X87609123Y-65903284D01*
X87536548Y-65994360D01*
X87365690Y-66271544D01*
X87229369Y-66567247D01*
X87228210Y-66570848D01*
X87228207Y-66570854D01*
X87183142Y-66710795D01*
X87129560Y-66877185D01*
X87128841Y-66880901D01*
X87128839Y-66880909D01*
X87068428Y-67193151D01*
X87068427Y-67193160D01*
X87067709Y-67196870D01*
X87067442Y-67200646D01*
X87067441Y-67200651D01*
X87054271Y-67386656D01*
X87044712Y-67521669D01*
X87060902Y-67846879D01*
X87061543Y-67850610D01*
X87061544Y-67850618D01*
X87076030Y-67934916D01*
X87116045Y-68167789D01*
X87117133Y-68171428D01*
X87117134Y-68171431D01*
X87140697Y-68250218D01*
X87209341Y-68479749D01*
X87339439Y-68778242D01*
X87504455Y-69058944D01*
X87506756Y-69061959D01*
X87699698Y-69314775D01*
X87699703Y-69314781D01*
X87701998Y-69317788D01*
X87929208Y-69551025D01*
X88182792Y-69755276D01*
X88459078Y-69927583D01*
X88754063Y-70065451D01*
X89063474Y-70166881D01*
X89382830Y-70230405D01*
X89386602Y-70230692D01*
X89386610Y-70230693D01*
X89703728Y-70254815D01*
X89703733Y-70254815D01*
X89707505Y-70255102D01*
X90032795Y-70240615D01*
X90353989Y-70187154D01*
X90666434Y-70095493D01*
X90965604Y-69966959D01*
X90968882Y-69965055D01*
X90968888Y-69965052D01*
X91132708Y-69869897D01*
X91247165Y-69803415D01*
X91507040Y-69607230D01*
X91741464Y-69381245D01*
X91743862Y-69378300D01*
X91944643Y-69131678D01*
X91944647Y-69131672D01*
X91947040Y-69128733D01*
X92120792Y-68853354D01*
X92260202Y-68559095D01*
X92363251Y-68250218D01*
X92428446Y-67931199D01*
X92454843Y-67606658D01*
X92455436Y-67550000D01*
X92445589Y-67386656D01*
X92436069Y-67228755D01*
X92436069Y-67228751D01*
X92435841Y-67224977D01*
X92431399Y-67200651D01*
X92378025Y-66908404D01*
X92377342Y-66904663D01*
X92280784Y-66593696D01*
X92147567Y-66296582D01*
X91979621Y-66017624D01*
X91977294Y-66014640D01*
X91977289Y-66014633D01*
X91781713Y-65763858D01*
X91781711Y-65763856D01*
X91779377Y-65760863D01*
X91549738Y-65530018D01*
X91514788Y-65502465D01*
X91297010Y-65330783D01*
X91294029Y-65328433D01*
X91220444Y-65283605D01*
X91172675Y-65231082D01*
X91160884Y-65161072D01*
X91188817Y-65095801D01*
X91247603Y-65055992D01*
X91285997Y-65050000D01*
X137225831Y-65050000D01*
X137250000Y-65052705D01*
X137250000Y-65055000D01*
X137350926Y-65056759D01*
X137356916Y-65057008D01*
X137452475Y-65063271D01*
X137460680Y-65064079D01*
X137689908Y-65094258D01*
X137698041Y-65095601D01*
X137775315Y-65110971D01*
X137783330Y-65112839D01*
X137952586Y-65158191D01*
X138006696Y-65172690D01*
X138014579Y-65175081D01*
X138089205Y-65200414D01*
X138096878Y-65203302D01*
X138310520Y-65291795D01*
X138318006Y-65295187D01*
X138381418Y-65326458D01*
X138388694Y-65330046D01*
X138395965Y-65333933D01*
X138596190Y-65449534D01*
X138603191Y-65453887D01*
X138645464Y-65482132D01*
X138668714Y-65497667D01*
X138675408Y-65502465D01*
X138858840Y-65643218D01*
X138865213Y-65648448D01*
X138924467Y-65700412D01*
X138930485Y-65706049D01*
X139093951Y-65869515D01*
X139099588Y-65875533D01*
X139151552Y-65934787D01*
X139156782Y-65941160D01*
X139297535Y-66124592D01*
X139302339Y-66131295D01*
X139346113Y-66196809D01*
X139350466Y-66203810D01*
X139466067Y-66404035D01*
X139469954Y-66411306D01*
X139504808Y-66481982D01*
X139508205Y-66489480D01*
X139596698Y-66703122D01*
X139599586Y-66710795D01*
X139624917Y-66785416D01*
X139627310Y-66793304D01*
X139687161Y-67016670D01*
X139689029Y-67024685D01*
X139704399Y-67101959D01*
X139705742Y-67110092D01*
X139735921Y-67339320D01*
X139736729Y-67347524D01*
X139742992Y-67443084D01*
X139743241Y-67449074D01*
X139745000Y-67550000D01*
X139747232Y-67550000D01*
X139750000Y-67568126D01*
X139750000Y-109024000D01*
X139729998Y-109092121D01*
X139676342Y-109138614D01*
X139624000Y-109150000D01*
X134350000Y-109150000D01*
X134350000Y-124350000D01*
X139624000Y-124350000D01*
X139692121Y-124370002D01*
X139738614Y-124423658D01*
X139750000Y-124476000D01*
X139750000Y-127525831D01*
X139747295Y-127550000D01*
X139745000Y-127550000D01*
X139743241Y-127650926D01*
X139742992Y-127656916D01*
X139736729Y-127752475D01*
X139735921Y-127760680D01*
X139705742Y-127989908D01*
X139704399Y-127998041D01*
X139689029Y-128075315D01*
X139687161Y-128083330D01*
X139644775Y-128241517D01*
X139627310Y-128306696D01*
X139624919Y-128314579D01*
X139599586Y-128389205D01*
X139596698Y-128396878D01*
X139508205Y-128610520D01*
X139504813Y-128618006D01*
X139470033Y-128688534D01*
X139469954Y-128688694D01*
X139466067Y-128695965D01*
X139350466Y-128896190D01*
X139346113Y-128903191D01*
X139302339Y-128968705D01*
X139297535Y-128975408D01*
X139156782Y-129158840D01*
X139151552Y-129165213D01*
X139099588Y-129224467D01*
X139093951Y-129230485D01*
X138930485Y-129393951D01*
X138924467Y-129399588D01*
X138865213Y-129451552D01*
X138858840Y-129456782D01*
X138675408Y-129597535D01*
X138668714Y-129602333D01*
X138657965Y-129609515D01*
X138603191Y-129646113D01*
X138596190Y-129650466D01*
X138395965Y-129766067D01*
X138388694Y-129769954D01*
X138318006Y-129804813D01*
X138310520Y-129808205D01*
X138096878Y-129896698D01*
X138089205Y-129899586D01*
X138014579Y-129924919D01*
X138006696Y-129927310D01*
X137958449Y-129940238D01*
X137783330Y-129987161D01*
X137775315Y-129989029D01*
X137698041Y-130004399D01*
X137689908Y-130005742D01*
X137460680Y-130035921D01*
X137452476Y-130036729D01*
X137356916Y-130042992D01*
X137350926Y-130043241D01*
X137296189Y-130044195D01*
X137266504Y-130044712D01*
X137266501Y-130044712D01*
X137250000Y-130045000D01*
X137250000Y-130047232D01*
X137231874Y-130050000D01*
X91290427Y-130050000D01*
X91222306Y-130029998D01*
X91175813Y-129976342D01*
X91165709Y-129906068D01*
X91195203Y-129841488D01*
X91227141Y-129815046D01*
X91238908Y-129808211D01*
X91247165Y-129803415D01*
X91507040Y-129607230D01*
X91685455Y-129435238D01*
X91738730Y-129383881D01*
X91738733Y-129383877D01*
X91741464Y-129381245D01*
X91743862Y-129378300D01*
X91944643Y-129131678D01*
X91944647Y-129131672D01*
X91947040Y-129128733D01*
X92120792Y-128853354D01*
X92122381Y-128850000D01*
X108719196Y-128850000D01*
X108720747Y-128859793D01*
X108727621Y-128903191D01*
X108740281Y-128983126D01*
X108801472Y-129103220D01*
X108896780Y-129198528D01*
X109016874Y-129259719D01*
X109026663Y-129261269D01*
X109026665Y-129261270D01*
X109140207Y-129279253D01*
X109150000Y-129280804D01*
X109159793Y-129279253D01*
X109273334Y-129261270D01*
X109273335Y-129261270D01*
X109283126Y-129259719D01*
X109289844Y-129256296D01*
X109326435Y-129250500D01*
X127099033Y-129250500D01*
X127100714Y-129250623D01*
X127105372Y-129252223D01*
X127116697Y-129251798D01*
X127116700Y-129251798D01*
X127148894Y-129250589D01*
X127153621Y-129250500D01*
X127176846Y-129250500D01*
X127182241Y-129249495D01*
X127188031Y-129249120D01*
X127217162Y-129248026D01*
X127227850Y-129243434D01*
X127232462Y-129242395D01*
X127244113Y-129238856D01*
X127248540Y-129237147D01*
X127259979Y-129235017D01*
X127280952Y-129222089D01*
X127297312Y-129213591D01*
X127319948Y-129203866D01*
X127326426Y-129198545D01*
X127328618Y-129196353D01*
X127330881Y-129194301D01*
X127331123Y-129194567D01*
X127337279Y-129189701D01*
X127345309Y-129182420D01*
X127355211Y-129176316D01*
X127370855Y-129155743D01*
X127382056Y-129142915D01*
X128539119Y-127985852D01*
X128608503Y-127950498D01*
X128698334Y-127936270D01*
X128698335Y-127936270D01*
X128708126Y-127934719D01*
X128828220Y-127873528D01*
X128923528Y-127778220D01*
X128984719Y-127658126D01*
X128987627Y-127639769D01*
X129004253Y-127534793D01*
X129005804Y-127525000D01*
X128984719Y-127391874D01*
X128923528Y-127271780D01*
X128828220Y-127176472D01*
X128708126Y-127115281D01*
X128698335Y-127113730D01*
X128698334Y-127113730D01*
X128674588Y-127109969D01*
X128610435Y-127079556D01*
X128572908Y-127019288D01*
X128573922Y-126948299D01*
X128613155Y-126889127D01*
X128664359Y-126865744D01*
X128663901Y-126864335D01*
X128673334Y-126861270D01*
X128683126Y-126859719D01*
X128803220Y-126798528D01*
X128898528Y-126703220D01*
X128959719Y-126583126D01*
X128962496Y-126565596D01*
X128979253Y-126459793D01*
X128980804Y-126450000D01*
X128975322Y-126415387D01*
X128961270Y-126326665D01*
X128961269Y-126326663D01*
X128959719Y-126316874D01*
X128916577Y-126232203D01*
X128903473Y-126162426D01*
X128916577Y-126117797D01*
X128955218Y-126041959D01*
X128959719Y-126033126D01*
X128962175Y-126017624D01*
X128979253Y-125909793D01*
X128980804Y-125900000D01*
X128979253Y-125890207D01*
X128961270Y-125776665D01*
X128961269Y-125776663D01*
X128959719Y-125766874D01*
X128926190Y-125701070D01*
X128913086Y-125631293D01*
X128926190Y-125586664D01*
X128948968Y-125541959D01*
X128953469Y-125533126D01*
X128965096Y-125459719D01*
X128973003Y-125409793D01*
X128974554Y-125400000D01*
X128967497Y-125355444D01*
X128955020Y-125276665D01*
X128955019Y-125276663D01*
X128953469Y-125266874D01*
X128892278Y-125146780D01*
X128796970Y-125051472D01*
X128676876Y-124990281D01*
X128667087Y-124988731D01*
X128667085Y-124988730D01*
X128553543Y-124970747D01*
X128543750Y-124969196D01*
X128533957Y-124970747D01*
X128420415Y-124988730D01*
X128420413Y-124988731D01*
X128410624Y-124990281D01*
X128290530Y-125051472D01*
X128195222Y-125146780D01*
X128134031Y-125266874D01*
X128132481Y-125276663D01*
X128132480Y-125276665D01*
X128120003Y-125355444D01*
X128112946Y-125400000D01*
X128114497Y-125409793D01*
X128122405Y-125459719D01*
X128134031Y-125533126D01*
X128138532Y-125541959D01*
X128167560Y-125598930D01*
X128180664Y-125668707D01*
X128167560Y-125713336D01*
X128140281Y-125766874D01*
X128138731Y-125776663D01*
X128138730Y-125776665D01*
X128120747Y-125890207D01*
X128119196Y-125900000D01*
X128120747Y-125909793D01*
X128137826Y-126017624D01*
X128140281Y-126033126D01*
X128144782Y-126041959D01*
X128183423Y-126117797D01*
X128196527Y-126187574D01*
X128183423Y-126232203D01*
X128140281Y-126316874D01*
X128138731Y-126326663D01*
X128138730Y-126326665D01*
X128124678Y-126415387D01*
X128119196Y-126450000D01*
X128120747Y-126459793D01*
X128137505Y-126565596D01*
X128140281Y-126583126D01*
X128201472Y-126703220D01*
X128296780Y-126798528D01*
X128416874Y-126859719D01*
X128426665Y-126861270D01*
X128426666Y-126861270D01*
X128450412Y-126865031D01*
X128514565Y-126895444D01*
X128552092Y-126955712D01*
X128551078Y-127026701D01*
X128511845Y-127085873D01*
X128460641Y-127109256D01*
X128461099Y-127110665D01*
X128451666Y-127113730D01*
X128441874Y-127115281D01*
X128321780Y-127176472D01*
X128226472Y-127271780D01*
X128165281Y-127391874D01*
X128163730Y-127401665D01*
X128163730Y-127401666D01*
X128149502Y-127491497D01*
X128114148Y-127560881D01*
X127062433Y-128612595D01*
X127000121Y-128646621D01*
X126973338Y-128649500D01*
X109599113Y-128649500D01*
X109530992Y-128629498D01*
X109500548Y-128600745D01*
X109498528Y-128596780D01*
X109403220Y-128501472D01*
X109283126Y-128440281D01*
X109273337Y-128438731D01*
X109273335Y-128438730D01*
X109159793Y-128420747D01*
X109150000Y-128419196D01*
X109140207Y-128420747D01*
X109026665Y-128438730D01*
X109026663Y-128438731D01*
X109016874Y-128440281D01*
X108896780Y-128501472D01*
X108801472Y-128596780D01*
X108740281Y-128716874D01*
X108738731Y-128726663D01*
X108738730Y-128726665D01*
X108720747Y-128840207D01*
X108719196Y-128850000D01*
X92122381Y-128850000D01*
X92260202Y-128559095D01*
X92363251Y-128250218D01*
X92428446Y-127931199D01*
X92454843Y-127606658D01*
X92455322Y-127560881D01*
X92455413Y-127552221D01*
X92455413Y-127552214D01*
X92455436Y-127550000D01*
X92454233Y-127530035D01*
X92436069Y-127228755D01*
X92436069Y-127228751D01*
X92435841Y-127224977D01*
X92431399Y-127200651D01*
X92394872Y-127000650D01*
X92377342Y-126904663D01*
X92280784Y-126593696D01*
X92276920Y-126585077D01*
X92236277Y-126494432D01*
X92147567Y-126296582D01*
X91979621Y-126017624D01*
X91977294Y-126014640D01*
X91977289Y-126014633D01*
X91781713Y-125763858D01*
X91781711Y-125763856D01*
X91779377Y-125760863D01*
X91549738Y-125530018D01*
X91487311Y-125480804D01*
X91297010Y-125330783D01*
X91294029Y-125328433D01*
X91015954Y-125159029D01*
X90882030Y-125098137D01*
X90722994Y-125025827D01*
X90722986Y-125025824D01*
X90719542Y-125024258D01*
X90409085Y-124926073D01*
X90267071Y-124899368D01*
X90092805Y-124866597D01*
X90092800Y-124866596D01*
X90089081Y-124865897D01*
X89764166Y-124844601D01*
X89760386Y-124844809D01*
X89760385Y-124844809D01*
X89663156Y-124850160D01*
X89439045Y-124862494D01*
X89435318Y-124863155D01*
X89435314Y-124863155D01*
X89182043Y-124908041D01*
X89118429Y-124919315D01*
X88946564Y-124971696D01*
X88875572Y-124972422D01*
X88815456Y-124934652D01*
X88785304Y-124870376D01*
X88794688Y-124800002D01*
X88820734Y-124762077D01*
X90283692Y-123299118D01*
X98245700Y-123299118D01*
X98276090Y-123500058D01*
X98346263Y-123690782D01*
X98349621Y-123696198D01*
X98349623Y-123696202D01*
X98449990Y-123858078D01*
X98449993Y-123858082D01*
X98453353Y-123863501D01*
X98457739Y-123868139D01*
X98581492Y-123999004D01*
X98592986Y-124011159D01*
X98733850Y-124109793D01*
X98753652Y-124123658D01*
X98759457Y-124127723D01*
X98945967Y-124208433D01*
X98952215Y-124209738D01*
X98952214Y-124209738D01*
X99140152Y-124249001D01*
X99140156Y-124249001D01*
X99144897Y-124249992D01*
X99149734Y-124250245D01*
X99149738Y-124250246D01*
X99150988Y-124250311D01*
X99154591Y-124250500D01*
X99299224Y-124250500D01*
X99383309Y-124241959D01*
X99445835Y-124235608D01*
X99445836Y-124235608D01*
X99452184Y-124234963D01*
X99646109Y-124174191D01*
X99823852Y-124075666D01*
X99978155Y-123943412D01*
X100102712Y-123782834D01*
X100192437Y-123600489D01*
X100195657Y-123588128D01*
X100242054Y-123410009D01*
X100242054Y-123410006D01*
X100243664Y-123403827D01*
X100249151Y-123299118D01*
X104245700Y-123299118D01*
X104276090Y-123500058D01*
X104346263Y-123690782D01*
X104349621Y-123696198D01*
X104349623Y-123696202D01*
X104449990Y-123858078D01*
X104449993Y-123858082D01*
X104453353Y-123863501D01*
X104457739Y-123868139D01*
X104581492Y-123999004D01*
X104592986Y-124011159D01*
X104733850Y-124109793D01*
X104753652Y-124123658D01*
X104759457Y-124127723D01*
X104945967Y-124208433D01*
X104952215Y-124209738D01*
X104952214Y-124209738D01*
X105140152Y-124249001D01*
X105140156Y-124249001D01*
X105144897Y-124249992D01*
X105149734Y-124250245D01*
X105149738Y-124250246D01*
X105150988Y-124250311D01*
X105154591Y-124250500D01*
X105299224Y-124250500D01*
X105383309Y-124241959D01*
X105445835Y-124235608D01*
X105445836Y-124235608D01*
X105452184Y-124234963D01*
X105646109Y-124174191D01*
X105823852Y-124075666D01*
X105978155Y-123943412D01*
X106102712Y-123782834D01*
X106192437Y-123600489D01*
X106195657Y-123588128D01*
X106242054Y-123410009D01*
X106242054Y-123410006D01*
X106243664Y-123403827D01*
X106250443Y-123274471D01*
X106253966Y-123207263D01*
X106253966Y-123207259D01*
X106254300Y-123200882D01*
X106223910Y-122999942D01*
X106153737Y-122809218D01*
X106150379Y-122803802D01*
X106150377Y-122803798D01*
X106050010Y-122641922D01*
X106050007Y-122641918D01*
X106046647Y-122636499D01*
X105907014Y-122488841D01*
X105740543Y-122372277D01*
X105578658Y-122302223D01*
X105559889Y-122294101D01*
X105559888Y-122294101D01*
X105554033Y-122291567D01*
X105493462Y-122278913D01*
X105359848Y-122250999D01*
X105359844Y-122250999D01*
X105355103Y-122250008D01*
X105350266Y-122249755D01*
X105350262Y-122249754D01*
X105349012Y-122249689D01*
X105345409Y-122249500D01*
X105200776Y-122249500D01*
X105127952Y-122256897D01*
X105054165Y-122264392D01*
X105054164Y-122264392D01*
X105047816Y-122265037D01*
X104853891Y-122325809D01*
X104676148Y-122424334D01*
X104521845Y-122556588D01*
X104397288Y-122717166D01*
X104307563Y-122899511D01*
X104305954Y-122905689D01*
X104305953Y-122905691D01*
X104264016Y-123066691D01*
X104256336Y-123096173D01*
X104253438Y-123151476D01*
X104246900Y-123276229D01*
X104245700Y-123299118D01*
X100249151Y-123299118D01*
X100250443Y-123274471D01*
X100253966Y-123207263D01*
X100253966Y-123207259D01*
X100254300Y-123200882D01*
X100223910Y-122999942D01*
X100153737Y-122809218D01*
X100150379Y-122803802D01*
X100150377Y-122803798D01*
X100050010Y-122641922D01*
X100050007Y-122641918D01*
X100046647Y-122636499D01*
X99907014Y-122488841D01*
X99740543Y-122372277D01*
X99578658Y-122302223D01*
X99559889Y-122294101D01*
X99559888Y-122294101D01*
X99554033Y-122291567D01*
X99493462Y-122278913D01*
X99359848Y-122250999D01*
X99359844Y-122250999D01*
X99355103Y-122250008D01*
X99350266Y-122249755D01*
X99350262Y-122249754D01*
X99349012Y-122249689D01*
X99345409Y-122249500D01*
X99200776Y-122249500D01*
X99127952Y-122256897D01*
X99054165Y-122264392D01*
X99054164Y-122264392D01*
X99047816Y-122265037D01*
X98853891Y-122325809D01*
X98676148Y-122424334D01*
X98521845Y-122556588D01*
X98397288Y-122717166D01*
X98307563Y-122899511D01*
X98305954Y-122905689D01*
X98305953Y-122905691D01*
X98264016Y-123066691D01*
X98256336Y-123096173D01*
X98253438Y-123151476D01*
X98246900Y-123276229D01*
X98245700Y-123299118D01*
X90283692Y-123299118D01*
X91595385Y-121987425D01*
X91657697Y-121953399D01*
X91684480Y-121950520D01*
X112298433Y-121950520D01*
X112319570Y-121952769D01*
X112323054Y-121952933D01*
X112333234Y-121955125D01*
X112364765Y-121951393D01*
X112369652Y-121951105D01*
X112369639Y-121950948D01*
X112374819Y-121950520D01*
X112380019Y-121950520D01*
X112396511Y-121947775D01*
X112402328Y-121946947D01*
X112449162Y-121941404D01*
X112456788Y-121937742D01*
X112465133Y-121936353D01*
X112474296Y-121931409D01*
X112484151Y-121928035D01*
X112484611Y-121929378D01*
X112507193Y-121921746D01*
X112573334Y-121911270D01*
X112583126Y-121909719D01*
X112703220Y-121848528D01*
X112798528Y-121753220D01*
X112859719Y-121633126D01*
X112871346Y-121559719D01*
X112879253Y-121509793D01*
X112880804Y-121500000D01*
X112859719Y-121366874D01*
X112798528Y-121246780D01*
X112703220Y-121151472D01*
X112583126Y-121090281D01*
X112573337Y-121088731D01*
X112573335Y-121088730D01*
X112459793Y-121070747D01*
X112450000Y-121069196D01*
X112440207Y-121070747D01*
X112326665Y-121088730D01*
X112326663Y-121088731D01*
X112316874Y-121090281D01*
X112196780Y-121151472D01*
X112185861Y-121162391D01*
X112123549Y-121196417D01*
X112052734Y-121191352D01*
X111995898Y-121148805D01*
X111971087Y-121082285D01*
X111972317Y-121053585D01*
X111979253Y-121009793D01*
X111980804Y-121000000D01*
X111973389Y-120953182D01*
X111964366Y-120896210D01*
X111970794Y-120846472D01*
X119896015Y-120846472D01*
X119911060Y-120999913D01*
X119913971Y-121013605D01*
X119962636Y-121159897D01*
X119968507Y-121172604D01*
X120014477Y-121248509D01*
X120024886Y-121258026D01*
X120033503Y-121254365D01*
X120425056Y-120862812D01*
X120432670Y-120848868D01*
X120432539Y-120847035D01*
X120428288Y-120840420D01*
X120037064Y-120449196D01*
X120024684Y-120442436D01*
X120016313Y-120448702D01*
X119977782Y-120508490D01*
X119971555Y-120521035D01*
X119918827Y-120665904D01*
X119915533Y-120679518D01*
X119896211Y-120832475D01*
X119896015Y-120846472D01*
X111970794Y-120846472D01*
X111973466Y-120825799D01*
X112019188Y-120771485D01*
X112088815Y-120750500D01*
X112298453Y-120750500D01*
X112319590Y-120752749D01*
X112323074Y-120752913D01*
X112333254Y-120755105D01*
X112364785Y-120751373D01*
X112369672Y-120751085D01*
X112369659Y-120750928D01*
X112374839Y-120750500D01*
X112380039Y-120750500D01*
X112396531Y-120747755D01*
X112402348Y-120746927D01*
X112449182Y-120741384D01*
X112456808Y-120737722D01*
X112465153Y-120736333D01*
X112474319Y-120731388D01*
X112484166Y-120728016D01*
X112484629Y-120729368D01*
X112507167Y-120721750D01*
X112583126Y-120709719D01*
X112703220Y-120648528D01*
X112798528Y-120553220D01*
X112859719Y-120433126D01*
X112867519Y-120383882D01*
X112879253Y-120309793D01*
X112880804Y-120300000D01*
X112874815Y-120262188D01*
X112861270Y-120176665D01*
X112861269Y-120176663D01*
X112859719Y-120166874D01*
X112798528Y-120046780D01*
X112703220Y-119951472D01*
X112583126Y-119890281D01*
X112573337Y-119888731D01*
X112573335Y-119888730D01*
X112459793Y-119870747D01*
X112450000Y-119869196D01*
X112440207Y-119870747D01*
X112326665Y-119888730D01*
X112326663Y-119888731D01*
X112316874Y-119890281D01*
X112196780Y-119951472D01*
X112135657Y-120012595D01*
X112073345Y-120046621D01*
X112046562Y-120049500D01*
X91222145Y-120049500D01*
X91174330Y-120038020D01*
X91174110Y-120038697D01*
X91053451Y-119999492D01*
X90926583Y-119999492D01*
X90917150Y-120002557D01*
X90815353Y-120035633D01*
X90815351Y-120035634D01*
X90805924Y-120038697D01*
X90729143Y-120094482D01*
X87711030Y-123112595D01*
X87648718Y-123146621D01*
X87621935Y-123149500D01*
X83876000Y-123149500D01*
X83807879Y-123129498D01*
X83761386Y-123075842D01*
X83750000Y-123023500D01*
X83750000Y-118700000D01*
X88369196Y-118700000D01*
X88370747Y-118709793D01*
X88380848Y-118773566D01*
X88390281Y-118833126D01*
X88420685Y-118892797D01*
X88433789Y-118962574D01*
X88420685Y-119007202D01*
X88390281Y-119066874D01*
X88388731Y-119076663D01*
X88388730Y-119076665D01*
X88377115Y-119150000D01*
X88369196Y-119200000D01*
X88370747Y-119209793D01*
X88386574Y-119309719D01*
X88390281Y-119333126D01*
X88403831Y-119359719D01*
X88407947Y-119367797D01*
X88421051Y-119437573D01*
X88407947Y-119482202D01*
X88390281Y-119516874D01*
X88388731Y-119526663D01*
X88388730Y-119526665D01*
X88380891Y-119576162D01*
X88369196Y-119650000D01*
X88370747Y-119659793D01*
X88388075Y-119769196D01*
X88390281Y-119783126D01*
X88451472Y-119903220D01*
X88546780Y-119998528D01*
X88666874Y-120059719D01*
X88676663Y-120061269D01*
X88676665Y-120061270D01*
X88790207Y-120079253D01*
X88800000Y-120080804D01*
X88809793Y-120079253D01*
X88923335Y-120061270D01*
X88923337Y-120061269D01*
X88933126Y-120059719D01*
X89053220Y-119998528D01*
X89148528Y-119903220D01*
X89209719Y-119783126D01*
X89211926Y-119769196D01*
X89223444Y-119696472D01*
X119896015Y-119696472D01*
X119911060Y-119849913D01*
X119913971Y-119863605D01*
X119962636Y-120009897D01*
X119968507Y-120022604D01*
X120014477Y-120098509D01*
X120024886Y-120108026D01*
X120033503Y-120104365D01*
X120425056Y-119712812D01*
X120432670Y-119698868D01*
X120432539Y-119697035D01*
X120428288Y-119690420D01*
X120037064Y-119299196D01*
X120024684Y-119292436D01*
X120016313Y-119298702D01*
X119977782Y-119358490D01*
X119971555Y-119371035D01*
X119918827Y-119515904D01*
X119915533Y-119529518D01*
X119896211Y-119682475D01*
X119896015Y-119696472D01*
X89223444Y-119696472D01*
X89229253Y-119659793D01*
X89230804Y-119650000D01*
X89219109Y-119576162D01*
X89211270Y-119526665D01*
X89211269Y-119526663D01*
X89209719Y-119516874D01*
X89192053Y-119482202D01*
X89178949Y-119412427D01*
X89192053Y-119367797D01*
X89196169Y-119359719D01*
X89209719Y-119333126D01*
X89213427Y-119309719D01*
X89229253Y-119209793D01*
X89230804Y-119200000D01*
X89222885Y-119150000D01*
X89211270Y-119076665D01*
X89211269Y-119076663D01*
X89209719Y-119066874D01*
X89179315Y-119007202D01*
X89166211Y-118937426D01*
X89179315Y-118892797D01*
X89209719Y-118833126D01*
X89219153Y-118773566D01*
X89229253Y-118709793D01*
X89230804Y-118700000D01*
X89217514Y-118616087D01*
X89211270Y-118576665D01*
X89211269Y-118576663D01*
X89209719Y-118566874D01*
X89148528Y-118446780D01*
X89053220Y-118351472D01*
X88933126Y-118290281D01*
X88923337Y-118288731D01*
X88923335Y-118288730D01*
X88809793Y-118270747D01*
X88800000Y-118269196D01*
X88790207Y-118270747D01*
X88676665Y-118288730D01*
X88676663Y-118288731D01*
X88666874Y-118290281D01*
X88546780Y-118351472D01*
X88451472Y-118446780D01*
X88390281Y-118566874D01*
X88388731Y-118576663D01*
X88388730Y-118576665D01*
X88382486Y-118616087D01*
X88369196Y-118700000D01*
X83750000Y-118700000D01*
X83750000Y-117435502D01*
X110619196Y-117435502D01*
X110620747Y-117445295D01*
X110637138Y-117548782D01*
X110640281Y-117568628D01*
X110701472Y-117688722D01*
X110796780Y-117784030D01*
X110916874Y-117845221D01*
X110926663Y-117846771D01*
X110926665Y-117846772D01*
X110964934Y-117852833D01*
X111029087Y-117883246D01*
X111066614Y-117943514D01*
X111068718Y-117980289D01*
X111070747Y-117980289D01*
X111070747Y-117990207D01*
X111069196Y-118000000D01*
X111070747Y-118009793D01*
X111083805Y-118092235D01*
X111090281Y-118133126D01*
X111151472Y-118253220D01*
X111246780Y-118348528D01*
X111366874Y-118409719D01*
X111376663Y-118411269D01*
X111376665Y-118411270D01*
X111490207Y-118429253D01*
X111500000Y-118430804D01*
X111509793Y-118429253D01*
X111623335Y-118411270D01*
X111623337Y-118411269D01*
X111633126Y-118409719D01*
X111753220Y-118348528D01*
X111814343Y-118287405D01*
X111876655Y-118253379D01*
X111903438Y-118250500D01*
X114681567Y-118250500D01*
X114749688Y-118270502D01*
X114770662Y-118287405D01*
X115934209Y-119450952D01*
X115935316Y-119452234D01*
X115937478Y-119456658D01*
X115945793Y-119464371D01*
X115969436Y-119486303D01*
X115972841Y-119489584D01*
X115989236Y-119505979D01*
X115993763Y-119509084D01*
X115998104Y-119512896D01*
X116019494Y-119532738D01*
X116030299Y-119537049D01*
X116034312Y-119539586D01*
X116045033Y-119545310D01*
X116049374Y-119547234D01*
X116058968Y-119553815D01*
X116082924Y-119559500D01*
X116100518Y-119565065D01*
X116115137Y-119570897D01*
X116115141Y-119570898D01*
X116123400Y-119574193D01*
X116131743Y-119575011D01*
X116134825Y-119575011D01*
X116137895Y-119575161D01*
X116137878Y-119575519D01*
X116145655Y-119576429D01*
X116156493Y-119576959D01*
X116167815Y-119579646D01*
X116179344Y-119578077D01*
X116179345Y-119578077D01*
X116193415Y-119576162D01*
X116210406Y-119575011D01*
X116666294Y-119575011D01*
X116667975Y-119575134D01*
X116672633Y-119576734D01*
X116683958Y-119576309D01*
X116683961Y-119576309D01*
X116716155Y-119575100D01*
X116720882Y-119575011D01*
X116744107Y-119575011D01*
X116749502Y-119574006D01*
X116755292Y-119573631D01*
X116784423Y-119572537D01*
X116795111Y-119567945D01*
X116799723Y-119566906D01*
X116811374Y-119563367D01*
X116815801Y-119561658D01*
X116827240Y-119559528D01*
X116848213Y-119546600D01*
X116864573Y-119538102D01*
X116876162Y-119533123D01*
X116879042Y-119531886D01*
X116879043Y-119531885D01*
X116887209Y-119528377D01*
X116893687Y-119523056D01*
X116895879Y-119520864D01*
X116898142Y-119518812D01*
X116898384Y-119519078D01*
X116904540Y-119514212D01*
X116912570Y-119506931D01*
X116922472Y-119500827D01*
X116938116Y-119480254D01*
X116949317Y-119467426D01*
X117315611Y-119101132D01*
X120267330Y-119101132D01*
X120267461Y-119102965D01*
X120271712Y-119109580D01*
X120773037Y-119610905D01*
X120807063Y-119673217D01*
X120801998Y-119744032D01*
X120773037Y-119789095D01*
X120299944Y-120262188D01*
X120292330Y-120276132D01*
X120292461Y-120277965D01*
X120296712Y-120284580D01*
X121237188Y-121225056D01*
X121251132Y-121232670D01*
X121252965Y-121232539D01*
X121259580Y-121228288D01*
X121636736Y-120851132D01*
X122067330Y-120851132D01*
X122067461Y-120852965D01*
X122071712Y-120859580D01*
X122374688Y-121162556D01*
X122388632Y-121170170D01*
X122390465Y-121170039D01*
X122397080Y-121165788D01*
X122700056Y-120862812D01*
X122707670Y-120848868D01*
X122707539Y-120847035D01*
X122703288Y-120840420D01*
X122400312Y-120537444D01*
X122386368Y-120529830D01*
X122384535Y-120529961D01*
X122377920Y-120534212D01*
X122074944Y-120837188D01*
X122067330Y-120851132D01*
X121636736Y-120851132D01*
X122200056Y-120287812D01*
X122207670Y-120273868D01*
X122207539Y-120272035D01*
X122203288Y-120265420D01*
X121726963Y-119789095D01*
X121692937Y-119726783D01*
X121694772Y-119701132D01*
X122067330Y-119701132D01*
X122067461Y-119702965D01*
X122071712Y-119709580D01*
X122374688Y-120012556D01*
X122388632Y-120020170D01*
X122390465Y-120020039D01*
X122397080Y-120015788D01*
X122700056Y-119712812D01*
X122707670Y-119698868D01*
X122707539Y-119697035D01*
X122703288Y-119690420D01*
X122400312Y-119387444D01*
X122386368Y-119379830D01*
X122384535Y-119379961D01*
X122377920Y-119384212D01*
X122074944Y-119687188D01*
X122067330Y-119701132D01*
X121694772Y-119701132D01*
X121698002Y-119655968D01*
X121726963Y-119610905D01*
X122225056Y-119112812D01*
X122231434Y-119101132D01*
X122542330Y-119101132D01*
X122542461Y-119102965D01*
X122546712Y-119109580D01*
X123048037Y-119610905D01*
X123082063Y-119673217D01*
X123076998Y-119744032D01*
X123048037Y-119789095D01*
X122574944Y-120262188D01*
X122567330Y-120276132D01*
X122567461Y-120277965D01*
X122571712Y-120284580D01*
X123524688Y-121237556D01*
X123538632Y-121245170D01*
X123540465Y-121245039D01*
X123547080Y-121240788D01*
X123936736Y-120851132D01*
X124367330Y-120851132D01*
X124367461Y-120852965D01*
X124371712Y-120859580D01*
X124762901Y-121250769D01*
X124774195Y-121256937D01*
X124786740Y-121246984D01*
X124817384Y-121200861D01*
X124823785Y-121188407D01*
X124878534Y-121044280D01*
X124882014Y-121030726D01*
X124903901Y-120874996D01*
X124904507Y-120867114D01*
X124904691Y-120853963D01*
X124904304Y-120846062D01*
X124886775Y-120689783D01*
X124883674Y-120676137D01*
X124832971Y-120530539D01*
X124826921Y-120517911D01*
X124785488Y-120451603D01*
X124774951Y-120442235D01*
X124765903Y-120446229D01*
X124374944Y-120837188D01*
X124367330Y-120851132D01*
X123936736Y-120851132D01*
X124500056Y-120287812D01*
X124507670Y-120273868D01*
X124507539Y-120272035D01*
X124503288Y-120265420D01*
X124026963Y-119789095D01*
X123992937Y-119726783D01*
X123994772Y-119701132D01*
X124367330Y-119701132D01*
X124367461Y-119702965D01*
X124371712Y-119709580D01*
X124762901Y-120100769D01*
X124774195Y-120106937D01*
X124786740Y-120096984D01*
X124817384Y-120050861D01*
X124823785Y-120038407D01*
X124878534Y-119894280D01*
X124882014Y-119880726D01*
X124903901Y-119724996D01*
X124904507Y-119717114D01*
X124904691Y-119703963D01*
X124904304Y-119696062D01*
X124886775Y-119539783D01*
X124883674Y-119526137D01*
X124832971Y-119380539D01*
X124826921Y-119367911D01*
X124785488Y-119301603D01*
X124774951Y-119292235D01*
X124765903Y-119296229D01*
X124374944Y-119687188D01*
X124367330Y-119701132D01*
X123994772Y-119701132D01*
X123998002Y-119655968D01*
X124026963Y-119610905D01*
X124525056Y-119112812D01*
X124532670Y-119098868D01*
X124532539Y-119097035D01*
X124528288Y-119090420D01*
X124026963Y-118589095D01*
X123992937Y-118526783D01*
X123994772Y-118501132D01*
X124367330Y-118501132D01*
X124367461Y-118502965D01*
X124371712Y-118509580D01*
X124762901Y-118900769D01*
X124774195Y-118906937D01*
X124786740Y-118896984D01*
X124817384Y-118850861D01*
X124823785Y-118838407D01*
X124878534Y-118694280D01*
X124882014Y-118680726D01*
X124903901Y-118524996D01*
X124904507Y-118517114D01*
X124904691Y-118503963D01*
X124904304Y-118496062D01*
X124886775Y-118339783D01*
X124883674Y-118326137D01*
X124832971Y-118180539D01*
X124826921Y-118167911D01*
X124785488Y-118101603D01*
X124774951Y-118092235D01*
X124765903Y-118096229D01*
X124374944Y-118487188D01*
X124367330Y-118501132D01*
X123994772Y-118501132D01*
X123998002Y-118455968D01*
X124026963Y-118410905D01*
X124500056Y-117937812D01*
X124507670Y-117923868D01*
X124507539Y-117922035D01*
X124503288Y-117915420D01*
X123939000Y-117351132D01*
X124367330Y-117351132D01*
X124367461Y-117352965D01*
X124371712Y-117359580D01*
X124762901Y-117750769D01*
X124774195Y-117756937D01*
X124786740Y-117746984D01*
X124817384Y-117700861D01*
X124823785Y-117688407D01*
X124878534Y-117544280D01*
X124882014Y-117530726D01*
X124903901Y-117374996D01*
X124904507Y-117367114D01*
X124904691Y-117353963D01*
X124904304Y-117346062D01*
X124886775Y-117189783D01*
X124883674Y-117176137D01*
X124832971Y-117030539D01*
X124826921Y-117017911D01*
X124785488Y-116951603D01*
X124774951Y-116942235D01*
X124765903Y-116946229D01*
X124374944Y-117337188D01*
X124367330Y-117351132D01*
X123939000Y-117351132D01*
X123550312Y-116962444D01*
X123536368Y-116954830D01*
X123534535Y-116954961D01*
X123527920Y-116959212D01*
X122574944Y-117912188D01*
X122567330Y-117926132D01*
X122567461Y-117927965D01*
X122571712Y-117934580D01*
X123048037Y-118410905D01*
X123082063Y-118473217D01*
X123076998Y-118544032D01*
X123048037Y-118589095D01*
X122549944Y-119087188D01*
X122542330Y-119101132D01*
X122231434Y-119101132D01*
X122232670Y-119098868D01*
X122232539Y-119097035D01*
X122228288Y-119090420D01*
X121726963Y-118589095D01*
X121692937Y-118526783D01*
X121694772Y-118501132D01*
X122067330Y-118501132D01*
X122067461Y-118502965D01*
X122071712Y-118509580D01*
X122374688Y-118812556D01*
X122388632Y-118820170D01*
X122390465Y-118820039D01*
X122397080Y-118815788D01*
X122700056Y-118512812D01*
X122707670Y-118498868D01*
X122707539Y-118497035D01*
X122703288Y-118490420D01*
X122400312Y-118187444D01*
X122386368Y-118179830D01*
X122384535Y-118179961D01*
X122377920Y-118184212D01*
X122074944Y-118487188D01*
X122067330Y-118501132D01*
X121694772Y-118501132D01*
X121698002Y-118455968D01*
X121726963Y-118410905D01*
X122200056Y-117937812D01*
X122207670Y-117923868D01*
X122207539Y-117922035D01*
X122203288Y-117915420D01*
X121639000Y-117351132D01*
X122067330Y-117351132D01*
X122067461Y-117352965D01*
X122071712Y-117359580D01*
X122374688Y-117662556D01*
X122388632Y-117670170D01*
X122390465Y-117670039D01*
X122397080Y-117665788D01*
X122700056Y-117362812D01*
X122707670Y-117348868D01*
X122707539Y-117347035D01*
X122703288Y-117340420D01*
X122400312Y-117037444D01*
X122386368Y-117029830D01*
X122384535Y-117029961D01*
X122377920Y-117034212D01*
X122074944Y-117337188D01*
X122067330Y-117351132D01*
X121639000Y-117351132D01*
X121262812Y-116974944D01*
X121248868Y-116967330D01*
X121247035Y-116967461D01*
X121240420Y-116971712D01*
X120299944Y-117912188D01*
X120292330Y-117926132D01*
X120292461Y-117927965D01*
X120296712Y-117934580D01*
X120773037Y-118410905D01*
X120807063Y-118473217D01*
X120801998Y-118544032D01*
X120773037Y-118589095D01*
X120274944Y-119087188D01*
X120267330Y-119101132D01*
X117315611Y-119101132D01*
X117920271Y-118496472D01*
X119896015Y-118496472D01*
X119911060Y-118649913D01*
X119913971Y-118663605D01*
X119962636Y-118809897D01*
X119968507Y-118822604D01*
X120014477Y-118898509D01*
X120024886Y-118908026D01*
X120033503Y-118904365D01*
X120425056Y-118512812D01*
X120432670Y-118498868D01*
X120432539Y-118497035D01*
X120428288Y-118490420D01*
X120037064Y-118099196D01*
X120024684Y-118092436D01*
X120016313Y-118098702D01*
X119977782Y-118158490D01*
X119971555Y-118171035D01*
X119918827Y-118315904D01*
X119915533Y-118329518D01*
X119896211Y-118482475D01*
X119896015Y-118496472D01*
X117920271Y-118496472D01*
X117954506Y-118462237D01*
X117955788Y-118461130D01*
X117960212Y-118458968D01*
X117989857Y-118427010D01*
X117993138Y-118423605D01*
X118009533Y-118407210D01*
X118012638Y-118402683D01*
X118016450Y-118398342D01*
X118036292Y-118376952D01*
X118040603Y-118366147D01*
X118043140Y-118362134D01*
X118048864Y-118351413D01*
X118050788Y-118347072D01*
X118057369Y-118337478D01*
X118063054Y-118313522D01*
X118068619Y-118295928D01*
X118074451Y-118281309D01*
X118074452Y-118281305D01*
X118077747Y-118273046D01*
X118078565Y-118264703D01*
X118078565Y-118261621D01*
X118078715Y-118258551D01*
X118079073Y-118258568D01*
X118079983Y-118250791D01*
X118080513Y-118239953D01*
X118083200Y-118228631D01*
X118079716Y-118203031D01*
X118078565Y-118186040D01*
X118078565Y-117830151D01*
X118078688Y-117828472D01*
X118080288Y-117823813D01*
X118078995Y-117789367D01*
X118078654Y-117780300D01*
X118078565Y-117775572D01*
X118078565Y-117752339D01*
X118077559Y-117746941D01*
X118077183Y-117741138D01*
X118076090Y-117712022D01*
X118071497Y-117701332D01*
X118070455Y-117696707D01*
X118066920Y-117685071D01*
X118065213Y-117680646D01*
X118063082Y-117669206D01*
X118050159Y-117648241D01*
X118041652Y-117631863D01*
X118035444Y-117617411D01*
X118035439Y-117617404D01*
X118031931Y-117609237D01*
X118026610Y-117602759D01*
X118024418Y-117600567D01*
X118022366Y-117598304D01*
X118022632Y-117598062D01*
X118017772Y-117591914D01*
X118010487Y-117583881D01*
X118004381Y-117573974D01*
X117983808Y-117558330D01*
X117970980Y-117547129D01*
X117770323Y-117346472D01*
X119896015Y-117346472D01*
X119911060Y-117499913D01*
X119913971Y-117513605D01*
X119962636Y-117659897D01*
X119968507Y-117672604D01*
X120014477Y-117748509D01*
X120024886Y-117758026D01*
X120033503Y-117754365D01*
X120425056Y-117362812D01*
X120432670Y-117348868D01*
X120432539Y-117347035D01*
X120428288Y-117340420D01*
X120037064Y-116949196D01*
X120024684Y-116942436D01*
X120016313Y-116948702D01*
X119977782Y-117008490D01*
X119971555Y-117021035D01*
X119918827Y-117165904D01*
X119915533Y-117179518D01*
X119896211Y-117332475D01*
X119896015Y-117346472D01*
X117770323Y-117346472D01*
X117521907Y-117098056D01*
X117520803Y-117096776D01*
X117518641Y-117092353D01*
X117510332Y-117084646D01*
X117510330Y-117084643D01*
X117486696Y-117062720D01*
X117483291Y-117059439D01*
X117466883Y-117043031D01*
X117462352Y-117039923D01*
X117458011Y-117036110D01*
X117436625Y-117016273D01*
X117425818Y-117011962D01*
X117421801Y-117009422D01*
X117411083Y-117003699D01*
X117406741Y-117001775D01*
X117397151Y-116995196D01*
X117373186Y-116989508D01*
X117355597Y-116983945D01*
X117332719Y-116974818D01*
X117324376Y-116974000D01*
X117321293Y-116974000D01*
X117318224Y-116973850D01*
X117318242Y-116973492D01*
X117310454Y-116972580D01*
X117299624Y-116972051D01*
X117288303Y-116969364D01*
X117288195Y-116969379D01*
X117228209Y-116948532D01*
X117212331Y-116935083D01*
X117203220Y-116925972D01*
X117083126Y-116864781D01*
X117073337Y-116863231D01*
X117073335Y-116863230D01*
X116959793Y-116845247D01*
X116950000Y-116843696D01*
X116940207Y-116845247D01*
X116826665Y-116863230D01*
X116826663Y-116863231D01*
X116816874Y-116864781D01*
X116696780Y-116925972D01*
X116601472Y-117021280D01*
X116596973Y-117030110D01*
X116596970Y-117030114D01*
X116577181Y-117068954D01*
X116528434Y-117120569D01*
X116459519Y-117137636D01*
X116392317Y-117114736D01*
X116375819Y-117100847D01*
X115999953Y-116724981D01*
X120242119Y-116724981D01*
X120245943Y-116733811D01*
X120637188Y-117125056D01*
X120651132Y-117132670D01*
X120652965Y-117132539D01*
X120659580Y-117128288D01*
X121050861Y-116737007D01*
X121057428Y-116724981D01*
X121442119Y-116724981D01*
X121445943Y-116733811D01*
X121837188Y-117125056D01*
X121851132Y-117132670D01*
X121852965Y-117132539D01*
X121859580Y-117128288D01*
X122250861Y-116737007D01*
X122257428Y-116724981D01*
X122517119Y-116724981D01*
X122520943Y-116733811D01*
X122912188Y-117125056D01*
X122926132Y-117132670D01*
X122927965Y-117132539D01*
X122934580Y-117128288D01*
X123325861Y-116737007D01*
X123332428Y-116724981D01*
X123742119Y-116724981D01*
X123745943Y-116733811D01*
X124137188Y-117125056D01*
X124151132Y-117132670D01*
X124152965Y-117132539D01*
X124159580Y-117128288D01*
X124550861Y-116737007D01*
X124557621Y-116724627D01*
X124551528Y-116716487D01*
X124486810Y-116675416D01*
X124474217Y-116669274D01*
X124328981Y-116617557D01*
X124315356Y-116614361D01*
X124162262Y-116596106D01*
X124148265Y-116596008D01*
X123994929Y-116612125D01*
X123981265Y-116615130D01*
X123835315Y-116664814D01*
X123822643Y-116670778D01*
X123751561Y-116714508D01*
X123742119Y-116724981D01*
X123332428Y-116724981D01*
X123332621Y-116724627D01*
X123326528Y-116716487D01*
X123261810Y-116675416D01*
X123249217Y-116669274D01*
X123103981Y-116617557D01*
X123090356Y-116614361D01*
X122937262Y-116596106D01*
X122923265Y-116596008D01*
X122769929Y-116612125D01*
X122756265Y-116615130D01*
X122610315Y-116664814D01*
X122597643Y-116670778D01*
X122526561Y-116714508D01*
X122517119Y-116724981D01*
X122257428Y-116724981D01*
X122257621Y-116724627D01*
X122251528Y-116716487D01*
X122186810Y-116675416D01*
X122174217Y-116669274D01*
X122028981Y-116617557D01*
X122015356Y-116614361D01*
X121862262Y-116596106D01*
X121848265Y-116596008D01*
X121694929Y-116612125D01*
X121681265Y-116615130D01*
X121535315Y-116664814D01*
X121522643Y-116670778D01*
X121451561Y-116714508D01*
X121442119Y-116724981D01*
X121057428Y-116724981D01*
X121057621Y-116724627D01*
X121051528Y-116716487D01*
X120986810Y-116675416D01*
X120974217Y-116669274D01*
X120828981Y-116617557D01*
X120815356Y-116614361D01*
X120662262Y-116596106D01*
X120648265Y-116596008D01*
X120494929Y-116612125D01*
X120481265Y-116615130D01*
X120335315Y-116664814D01*
X120322643Y-116670778D01*
X120251561Y-116714508D01*
X120242119Y-116724981D01*
X115999953Y-116724981D01*
X115998528Y-116723556D01*
X115997423Y-116722276D01*
X115995261Y-116717853D01*
X115963316Y-116688220D01*
X115959911Y-116684939D01*
X115943503Y-116668531D01*
X115938972Y-116665423D01*
X115934631Y-116661610D01*
X115913245Y-116641773D01*
X115902438Y-116637462D01*
X115898421Y-116634922D01*
X115887703Y-116629199D01*
X115883361Y-116627275D01*
X115873771Y-116620696D01*
X115849806Y-116615008D01*
X115832217Y-116609445D01*
X115809339Y-116600318D01*
X115800996Y-116599500D01*
X115797913Y-116599500D01*
X115794844Y-116599350D01*
X115794862Y-116598992D01*
X115787075Y-116598080D01*
X115776243Y-116597550D01*
X115764923Y-116594864D01*
X115753394Y-116596433D01*
X115753392Y-116596433D01*
X115739315Y-116598349D01*
X115722324Y-116599500D01*
X111853438Y-116599500D01*
X111785317Y-116579498D01*
X111764343Y-116562595D01*
X111703220Y-116501472D01*
X111583126Y-116440281D01*
X111573337Y-116438731D01*
X111573335Y-116438730D01*
X111459793Y-116420747D01*
X111450000Y-116419196D01*
X111440207Y-116420747D01*
X111326665Y-116438730D01*
X111326663Y-116438731D01*
X111316874Y-116440281D01*
X111196780Y-116501472D01*
X111101472Y-116596780D01*
X111040281Y-116716874D01*
X111038731Y-116726663D01*
X111038730Y-116726665D01*
X111027640Y-116796685D01*
X111019196Y-116850000D01*
X111020747Y-116859793D01*
X111020747Y-116859794D01*
X111024141Y-116881223D01*
X111015041Y-116951634D01*
X110969319Y-117005948D01*
X110935441Y-117019141D01*
X110936099Y-117021167D01*
X110926666Y-117024232D01*
X110916874Y-117025783D01*
X110796780Y-117086974D01*
X110701472Y-117182282D01*
X110640281Y-117302376D01*
X110638731Y-117312165D01*
X110638730Y-117312167D01*
X110628779Y-117374996D01*
X110619196Y-117435502D01*
X83750000Y-117435502D01*
X83750000Y-112376500D01*
X83770002Y-112308379D01*
X83823658Y-112261886D01*
X83876000Y-112250500D01*
X89923319Y-112250500D01*
X89991440Y-112270502D01*
X90012414Y-112287405D01*
X91951450Y-114226441D01*
X91952557Y-114227723D01*
X91954719Y-114232147D01*
X91963034Y-114239860D01*
X91986677Y-114261792D01*
X91990082Y-114265073D01*
X92006477Y-114281468D01*
X92011004Y-114284573D01*
X92015345Y-114288385D01*
X92036735Y-114308227D01*
X92047540Y-114312538D01*
X92051553Y-114315075D01*
X92062274Y-114320799D01*
X92066615Y-114322723D01*
X92076209Y-114329304D01*
X92097704Y-114334405D01*
X92100165Y-114334989D01*
X92117759Y-114340554D01*
X92132378Y-114346386D01*
X92132382Y-114346387D01*
X92140641Y-114349682D01*
X92148984Y-114350500D01*
X92152066Y-114350500D01*
X92155136Y-114350650D01*
X92155119Y-114351008D01*
X92162896Y-114351918D01*
X92173734Y-114352448D01*
X92185056Y-114355135D01*
X92196585Y-114353566D01*
X92196586Y-114353566D01*
X92210656Y-114351651D01*
X92227647Y-114350500D01*
X101498706Y-114350500D01*
X101566827Y-114370502D01*
X101613320Y-114424158D01*
X101623424Y-114494432D01*
X101602658Y-114545594D01*
X101601472Y-114546780D01*
X101540281Y-114666874D01*
X101538730Y-114676665D01*
X101538730Y-114676666D01*
X101521313Y-114786636D01*
X101490901Y-114850789D01*
X101430633Y-114888317D01*
X101359644Y-114887303D01*
X101319247Y-114862942D01*
X101318252Y-114864311D01*
X101310231Y-114858483D01*
X101303220Y-114851472D01*
X101183126Y-114790281D01*
X101173337Y-114788731D01*
X101173335Y-114788730D01*
X101059793Y-114770747D01*
X101050000Y-114769196D01*
X101040207Y-114770747D01*
X100926665Y-114788730D01*
X100926663Y-114788731D01*
X100916874Y-114790281D01*
X100796780Y-114851472D01*
X100701472Y-114946780D01*
X100640281Y-115066874D01*
X100638731Y-115076663D01*
X100638730Y-115076665D01*
X100629788Y-115133126D01*
X100619196Y-115200000D01*
X100640281Y-115333126D01*
X100701472Y-115453220D01*
X100796780Y-115548528D01*
X100916874Y-115609719D01*
X100926663Y-115611269D01*
X100926665Y-115611270D01*
X101040207Y-115629253D01*
X101050000Y-115630804D01*
X101164279Y-115612704D01*
X101234690Y-115621804D01*
X101273085Y-115648057D01*
X101451507Y-115826478D01*
X101452608Y-115827754D01*
X101454770Y-115832178D01*
X101463077Y-115839884D01*
X101463079Y-115839886D01*
X101486715Y-115861811D01*
X101490120Y-115865092D01*
X101506528Y-115881500D01*
X101511059Y-115884608D01*
X101515400Y-115888421D01*
X101536786Y-115908258D01*
X101547593Y-115912569D01*
X101551610Y-115915109D01*
X101562328Y-115920832D01*
X101566670Y-115922756D01*
X101576260Y-115929335D01*
X101587577Y-115932021D01*
X101600226Y-115935023D01*
X101617814Y-115940586D01*
X101640692Y-115949713D01*
X101649035Y-115950531D01*
X101652118Y-115950531D01*
X101655187Y-115950681D01*
X101655169Y-115951039D01*
X101662956Y-115951951D01*
X101673788Y-115952481D01*
X101685108Y-115955167D01*
X101696637Y-115953598D01*
X101696639Y-115953598D01*
X101710716Y-115951682D01*
X101727707Y-115950531D01*
X126679057Y-115950531D01*
X126747178Y-115970533D01*
X126768152Y-115987436D01*
X129089148Y-118308432D01*
X129124502Y-118377816D01*
X129137873Y-118462237D01*
X129140281Y-118477439D01*
X129201472Y-118597533D01*
X129296780Y-118692841D01*
X129416874Y-118754032D01*
X129426663Y-118755582D01*
X129426665Y-118755583D01*
X129540207Y-118773566D01*
X129550000Y-118775117D01*
X129559793Y-118773566D01*
X129673335Y-118755583D01*
X129673337Y-118755582D01*
X129683126Y-118754032D01*
X129803220Y-118692841D01*
X129854405Y-118641656D01*
X129916717Y-118607630D01*
X129987532Y-118612695D01*
X130044368Y-118655242D01*
X130069179Y-118721762D01*
X130069500Y-118730751D01*
X130069500Y-120553338D01*
X130049498Y-120621459D01*
X130032595Y-120642434D01*
X129562432Y-121112596D01*
X129500120Y-121146621D01*
X129473337Y-121149500D01*
X126725966Y-121149500D01*
X126724287Y-121149377D01*
X126719628Y-121147777D01*
X126708304Y-121148202D01*
X126708300Y-121148202D01*
X126676115Y-121149411D01*
X126671387Y-121149500D01*
X126648154Y-121149500D01*
X126642756Y-121150506D01*
X126636957Y-121150882D01*
X126607837Y-121151975D01*
X126597147Y-121156568D01*
X126592522Y-121157610D01*
X126580886Y-121161145D01*
X126576461Y-121162852D01*
X126565021Y-121164983D01*
X126544056Y-121177906D01*
X126527678Y-121186413D01*
X126513226Y-121192621D01*
X126513219Y-121192626D01*
X126505052Y-121196134D01*
X126498574Y-121201455D01*
X126496382Y-121203647D01*
X126494119Y-121205699D01*
X126493877Y-121205433D01*
X126487729Y-121210293D01*
X126479696Y-121217578D01*
X126469789Y-121223684D01*
X126459241Y-121237556D01*
X126454149Y-121244252D01*
X126442947Y-121257082D01*
X126037432Y-121662596D01*
X125975120Y-121696621D01*
X125948337Y-121699500D01*
X124638917Y-121699500D01*
X124570796Y-121679498D01*
X124524303Y-121625842D01*
X124514199Y-121555568D01*
X124546522Y-121487831D01*
X124558198Y-121475238D01*
X124554694Y-121466826D01*
X124162812Y-121074944D01*
X124148868Y-121067330D01*
X124147035Y-121067461D01*
X124140420Y-121071712D01*
X123749226Y-121462906D01*
X123742466Y-121475286D01*
X123759463Y-121497991D01*
X123784274Y-121564511D01*
X123769183Y-121633885D01*
X123718981Y-121684087D01*
X123658595Y-121699500D01*
X123413917Y-121699500D01*
X123345796Y-121679498D01*
X123299303Y-121625842D01*
X123289199Y-121555568D01*
X123321522Y-121487831D01*
X123333198Y-121475238D01*
X123329694Y-121466826D01*
X122937812Y-121074944D01*
X122923868Y-121067330D01*
X122922035Y-121067461D01*
X122915420Y-121071712D01*
X122524226Y-121462906D01*
X122517466Y-121475286D01*
X122534463Y-121497991D01*
X122559274Y-121564511D01*
X122544183Y-121633885D01*
X122493981Y-121684087D01*
X122433595Y-121699500D01*
X122338917Y-121699500D01*
X122270796Y-121679498D01*
X122224303Y-121625842D01*
X122214199Y-121555568D01*
X122246522Y-121487831D01*
X122258198Y-121475238D01*
X122254693Y-121466825D01*
X121862812Y-121074944D01*
X121848868Y-121067330D01*
X121847035Y-121067461D01*
X121840420Y-121071712D01*
X121449226Y-121462906D01*
X121442466Y-121475286D01*
X121459463Y-121497991D01*
X121484274Y-121564511D01*
X121469183Y-121633885D01*
X121418981Y-121684087D01*
X121358595Y-121699500D01*
X121138917Y-121699500D01*
X121070796Y-121679498D01*
X121024303Y-121625842D01*
X121014199Y-121555568D01*
X121046522Y-121487831D01*
X121058198Y-121475238D01*
X121054694Y-121466826D01*
X120662812Y-121074944D01*
X120648868Y-121067330D01*
X120647035Y-121067461D01*
X120640420Y-121071712D01*
X120249226Y-121462906D01*
X120242466Y-121475286D01*
X120259463Y-121497991D01*
X120284274Y-121564511D01*
X120269183Y-121633885D01*
X120218981Y-121684087D01*
X120158595Y-121699500D01*
X114050967Y-121699500D01*
X114049286Y-121699377D01*
X114044628Y-121697777D01*
X114033303Y-121698202D01*
X114033300Y-121698202D01*
X114001106Y-121699411D01*
X113996379Y-121699500D01*
X113973154Y-121699500D01*
X113967759Y-121700505D01*
X113961969Y-121700880D01*
X113932838Y-121701974D01*
X113922150Y-121706566D01*
X113917538Y-121707605D01*
X113905887Y-121711144D01*
X113901460Y-121712853D01*
X113890021Y-121714983D01*
X113869048Y-121727911D01*
X113852688Y-121736409D01*
X113845426Y-121739529D01*
X113838755Y-121742395D01*
X113830052Y-121746134D01*
X113823574Y-121751455D01*
X113821382Y-121753647D01*
X113819119Y-121755699D01*
X113818877Y-121755433D01*
X113812721Y-121760299D01*
X113804691Y-121767580D01*
X113794789Y-121773684D01*
X113779145Y-121794257D01*
X113767944Y-121807085D01*
X112765810Y-122809218D01*
X111773556Y-123801472D01*
X111772276Y-123802577D01*
X111767853Y-123804739D01*
X111760140Y-123813054D01*
X111738220Y-123836684D01*
X111734939Y-123840089D01*
X111718531Y-123856497D01*
X111715423Y-123861028D01*
X111711610Y-123865369D01*
X111691773Y-123886755D01*
X111687462Y-123897562D01*
X111684922Y-123901579D01*
X111679199Y-123912297D01*
X111677275Y-123916639D01*
X111670696Y-123926229D01*
X111668010Y-123937546D01*
X111665008Y-123950195D01*
X111659445Y-123967783D01*
X111650318Y-123990661D01*
X111649500Y-123999004D01*
X111649500Y-124002087D01*
X111649350Y-124005156D01*
X111648992Y-124005138D01*
X111648080Y-124012925D01*
X111647550Y-124023757D01*
X111644864Y-124035077D01*
X111646433Y-124046606D01*
X111646433Y-124046608D01*
X111648349Y-124060685D01*
X111649500Y-124077676D01*
X111649500Y-124696562D01*
X111629498Y-124764683D01*
X111612595Y-124785657D01*
X111601472Y-124796780D01*
X111540281Y-124916874D01*
X111538731Y-124926663D01*
X111538730Y-124926665D01*
X111527115Y-125000000D01*
X111519196Y-125050000D01*
X111520747Y-125059793D01*
X111537859Y-125167831D01*
X111540281Y-125183126D01*
X111601472Y-125303220D01*
X111696780Y-125398528D01*
X111816874Y-125459719D01*
X111826663Y-125461269D01*
X111826665Y-125461270D01*
X111940207Y-125479253D01*
X111950000Y-125480804D01*
X111959793Y-125479253D01*
X112073335Y-125461270D01*
X112073337Y-125461269D01*
X112083126Y-125459719D01*
X112203220Y-125398528D01*
X112298528Y-125303220D01*
X112359719Y-125183126D01*
X112362142Y-125167831D01*
X112379253Y-125059793D01*
X112380804Y-125050000D01*
X112372885Y-125000000D01*
X112361270Y-124926665D01*
X112361269Y-124926663D01*
X112359719Y-124916874D01*
X112298528Y-124796780D01*
X112287405Y-124785657D01*
X112253379Y-124723345D01*
X112250500Y-124696562D01*
X112250500Y-124226661D01*
X112270502Y-124158540D01*
X112287405Y-124137566D01*
X112934405Y-123490566D01*
X112996717Y-123456540D01*
X113067532Y-123461605D01*
X113124368Y-123504152D01*
X113149179Y-123570672D01*
X113149500Y-123579661D01*
X113149500Y-124646562D01*
X113129498Y-124714683D01*
X113112595Y-124735657D01*
X113101472Y-124746780D01*
X113040281Y-124866874D01*
X113019196Y-125000000D01*
X113020747Y-125009793D01*
X113038282Y-125120502D01*
X113040281Y-125133126D01*
X113101472Y-125253220D01*
X113196780Y-125348528D01*
X113316874Y-125409719D01*
X113326663Y-125411269D01*
X113326665Y-125411270D01*
X113440207Y-125429253D01*
X113450000Y-125430804D01*
X113459793Y-125429253D01*
X113573335Y-125411270D01*
X113573337Y-125411269D01*
X113583126Y-125409719D01*
X113703220Y-125348528D01*
X113798528Y-125253220D01*
X113859719Y-125133126D01*
X113861719Y-125120502D01*
X113879253Y-125009793D01*
X113880804Y-125000000D01*
X113859719Y-124866874D01*
X113798528Y-124746780D01*
X113787405Y-124735657D01*
X113753379Y-124673345D01*
X113750500Y-124646562D01*
X113750500Y-123326661D01*
X113770502Y-123258540D01*
X113787405Y-123237566D01*
X114287566Y-122737405D01*
X114349878Y-122703379D01*
X114376661Y-122700500D01*
X114920338Y-122700500D01*
X114988459Y-122720502D01*
X115034952Y-122774158D01*
X115045056Y-122844432D01*
X115015562Y-122909012D01*
X115009439Y-122915589D01*
X114773552Y-123151476D01*
X114772277Y-123152577D01*
X114767853Y-123154739D01*
X114760147Y-123163046D01*
X114760145Y-123163048D01*
X114738220Y-123186684D01*
X114734939Y-123190089D01*
X114718531Y-123206497D01*
X114715423Y-123211028D01*
X114711610Y-123215369D01*
X114691773Y-123236755D01*
X114687462Y-123247562D01*
X114684922Y-123251579D01*
X114679199Y-123262297D01*
X114677275Y-123266639D01*
X114670696Y-123276229D01*
X114668010Y-123287546D01*
X114665008Y-123300195D01*
X114659445Y-123317783D01*
X114650318Y-123340661D01*
X114649500Y-123349004D01*
X114649500Y-123352087D01*
X114649350Y-123355156D01*
X114648992Y-123355138D01*
X114648080Y-123362925D01*
X114647550Y-123373757D01*
X114644864Y-123385077D01*
X114646433Y-123396606D01*
X114646433Y-123396608D01*
X114648349Y-123410685D01*
X114649500Y-123427676D01*
X114649500Y-124646562D01*
X114629498Y-124714683D01*
X114612595Y-124735657D01*
X114601472Y-124746780D01*
X114540281Y-124866874D01*
X114519196Y-125000000D01*
X114520747Y-125009793D01*
X114538282Y-125120502D01*
X114540281Y-125133126D01*
X114601472Y-125253220D01*
X114696780Y-125348528D01*
X114816874Y-125409719D01*
X114826663Y-125411269D01*
X114826665Y-125411270D01*
X114940207Y-125429253D01*
X114950000Y-125430804D01*
X114959793Y-125429253D01*
X115073335Y-125411270D01*
X115073337Y-125411269D01*
X115083126Y-125409719D01*
X115203220Y-125348528D01*
X115298528Y-125253220D01*
X115359719Y-125133126D01*
X115361719Y-125120502D01*
X115379253Y-125009793D01*
X115380804Y-125000000D01*
X115359719Y-124866874D01*
X115298528Y-124746780D01*
X115287405Y-124735657D01*
X115253379Y-124673345D01*
X115250500Y-124646562D01*
X115250500Y-123576661D01*
X115270502Y-123508540D01*
X115287405Y-123487566D01*
X115637566Y-123137405D01*
X115699878Y-123103379D01*
X115726661Y-123100500D01*
X116048706Y-123100500D01*
X116116827Y-123120502D01*
X116163320Y-123174158D01*
X116173424Y-123244432D01*
X116152658Y-123295594D01*
X116151472Y-123296780D01*
X116090281Y-123416874D01*
X116088731Y-123426663D01*
X116088730Y-123426665D01*
X116073428Y-123523277D01*
X116069196Y-123550000D01*
X116070747Y-123559793D01*
X116072067Y-123568124D01*
X116090281Y-123683126D01*
X116151472Y-123803220D01*
X116246780Y-123898528D01*
X116366874Y-123959719D01*
X116376663Y-123961269D01*
X116376665Y-123961270D01*
X116490207Y-123979253D01*
X116500000Y-123980804D01*
X116509793Y-123979253D01*
X116623335Y-123961270D01*
X116623337Y-123961269D01*
X116633126Y-123959719D01*
X116717797Y-123916577D01*
X116787574Y-123903473D01*
X116832203Y-123916577D01*
X116916874Y-123959719D01*
X116926663Y-123961269D01*
X116926665Y-123961270D01*
X117040207Y-123979253D01*
X117050000Y-123980804D01*
X117059793Y-123979253D01*
X117173335Y-123961270D01*
X117173337Y-123961269D01*
X117183126Y-123959719D01*
X117267797Y-123916577D01*
X117337574Y-123903473D01*
X117382203Y-123916577D01*
X117466874Y-123959719D01*
X117476663Y-123961269D01*
X117476665Y-123961270D01*
X117590207Y-123979253D01*
X117600000Y-123980804D01*
X117609793Y-123979253D01*
X117723335Y-123961270D01*
X117723337Y-123961269D01*
X117733126Y-123959719D01*
X117817797Y-123916577D01*
X117887574Y-123903473D01*
X117932203Y-123916577D01*
X118016874Y-123959719D01*
X118026665Y-123961270D01*
X118026666Y-123961270D01*
X118073425Y-123968676D01*
X118137578Y-123999089D01*
X118175105Y-124059357D01*
X118174091Y-124130346D01*
X118142809Y-124182219D01*
X116612433Y-125712595D01*
X116550121Y-125746621D01*
X116523338Y-125749500D01*
X100750966Y-125749500D01*
X100749287Y-125749377D01*
X100744628Y-125747777D01*
X100733304Y-125748202D01*
X100733300Y-125748202D01*
X100701115Y-125749411D01*
X100696387Y-125749500D01*
X100673154Y-125749500D01*
X100667756Y-125750506D01*
X100661957Y-125750882D01*
X100632837Y-125751975D01*
X100622147Y-125756568D01*
X100617522Y-125757610D01*
X100605886Y-125761145D01*
X100601461Y-125762852D01*
X100590021Y-125764983D01*
X100569056Y-125777906D01*
X100552678Y-125786413D01*
X100538226Y-125792621D01*
X100538219Y-125792626D01*
X100530052Y-125796134D01*
X100523574Y-125801455D01*
X100521382Y-125803647D01*
X100519119Y-125805699D01*
X100518877Y-125805433D01*
X100512729Y-125810293D01*
X100504696Y-125817578D01*
X100494789Y-125823684D01*
X100479149Y-125844252D01*
X100467947Y-125857082D01*
X99973552Y-126351476D01*
X99972277Y-126352577D01*
X99967853Y-126354739D01*
X99960147Y-126363046D01*
X99960145Y-126363048D01*
X99938220Y-126386684D01*
X99934939Y-126390089D01*
X99918531Y-126406497D01*
X99915423Y-126411028D01*
X99911610Y-126415369D01*
X99891773Y-126436755D01*
X99887462Y-126447562D01*
X99884922Y-126451579D01*
X99879199Y-126462297D01*
X99877275Y-126466639D01*
X99870696Y-126476229D01*
X99868010Y-126487546D01*
X99865008Y-126500195D01*
X99859445Y-126517783D01*
X99850318Y-126540661D01*
X99849500Y-126549004D01*
X99849500Y-126552087D01*
X99849350Y-126555156D01*
X99848992Y-126555138D01*
X99848080Y-126562925D01*
X99847550Y-126573757D01*
X99844864Y-126585077D01*
X99846433Y-126596606D01*
X99846433Y-126596608D01*
X99848349Y-126610685D01*
X99849500Y-126627676D01*
X99849500Y-127546562D01*
X99829498Y-127614683D01*
X99812595Y-127635657D01*
X99801472Y-127646780D01*
X99740281Y-127766874D01*
X99738731Y-127776663D01*
X99738730Y-127776665D01*
X99727017Y-127850618D01*
X99719196Y-127900000D01*
X99720747Y-127909793D01*
X99732794Y-127985852D01*
X99740281Y-128033126D01*
X99801472Y-128153220D01*
X99896780Y-128248528D01*
X100016874Y-128309719D01*
X100026663Y-128311269D01*
X100026665Y-128311270D01*
X100140207Y-128329253D01*
X100150000Y-128330804D01*
X100159793Y-128329253D01*
X100273335Y-128311270D01*
X100273337Y-128311269D01*
X100283126Y-128309719D01*
X100403220Y-128248528D01*
X100498528Y-128153220D01*
X100559719Y-128033126D01*
X100567207Y-127985852D01*
X100579253Y-127909793D01*
X100580804Y-127900000D01*
X100572983Y-127850618D01*
X100561270Y-127776665D01*
X100561269Y-127776663D01*
X100559719Y-127766874D01*
X100498528Y-127646780D01*
X100487405Y-127635657D01*
X100453379Y-127573345D01*
X100450500Y-127546562D01*
X100450500Y-126776661D01*
X100470502Y-126708540D01*
X100487405Y-126687566D01*
X100787566Y-126387405D01*
X100849878Y-126353379D01*
X100876661Y-126350500D01*
X102120338Y-126350500D01*
X102188459Y-126370502D01*
X102234952Y-126424158D01*
X102245056Y-126494432D01*
X102215562Y-126559012D01*
X102209439Y-126565589D01*
X101973552Y-126801476D01*
X101972277Y-126802577D01*
X101967853Y-126804739D01*
X101960147Y-126813046D01*
X101960145Y-126813048D01*
X101938220Y-126836684D01*
X101934939Y-126840089D01*
X101918531Y-126856497D01*
X101915423Y-126861028D01*
X101911610Y-126865369D01*
X101891773Y-126886755D01*
X101887462Y-126897562D01*
X101884922Y-126901579D01*
X101879199Y-126912297D01*
X101877275Y-126916639D01*
X101870696Y-126926229D01*
X101868010Y-126937546D01*
X101865008Y-126950195D01*
X101859445Y-126967783D01*
X101850318Y-126990661D01*
X101849500Y-126999004D01*
X101849500Y-127002087D01*
X101849350Y-127005156D01*
X101848992Y-127005138D01*
X101848080Y-127012925D01*
X101847550Y-127023757D01*
X101844864Y-127035077D01*
X101846433Y-127046606D01*
X101846433Y-127046608D01*
X101848349Y-127060685D01*
X101849500Y-127077676D01*
X101849500Y-127546562D01*
X101829498Y-127614683D01*
X101812595Y-127635657D01*
X101801472Y-127646780D01*
X101740281Y-127766874D01*
X101738731Y-127776663D01*
X101738730Y-127776665D01*
X101727017Y-127850618D01*
X101719196Y-127900000D01*
X101720747Y-127909793D01*
X101732794Y-127985852D01*
X101740281Y-128033126D01*
X101801472Y-128153220D01*
X101896780Y-128248528D01*
X102016874Y-128309719D01*
X102026663Y-128311269D01*
X102026665Y-128311270D01*
X102140207Y-128329253D01*
X102150000Y-128330804D01*
X102159793Y-128329253D01*
X102273335Y-128311270D01*
X102273337Y-128311269D01*
X102283126Y-128309719D01*
X102403220Y-128248528D01*
X102498528Y-128153220D01*
X102559719Y-128033126D01*
X102567207Y-127985852D01*
X102579253Y-127909793D01*
X102580804Y-127900000D01*
X102572983Y-127850618D01*
X102561270Y-127776665D01*
X102561269Y-127776663D01*
X102559719Y-127766874D01*
X102498528Y-127646780D01*
X102487405Y-127635657D01*
X102453379Y-127573345D01*
X102450500Y-127546562D01*
X102450500Y-127226661D01*
X102470502Y-127158540D01*
X102487405Y-127137566D01*
X102837566Y-126787405D01*
X102899878Y-126753379D01*
X102926661Y-126750500D01*
X116849033Y-126750500D01*
X116850714Y-126750623D01*
X116855372Y-126752223D01*
X116866697Y-126751798D01*
X116866700Y-126751798D01*
X116898894Y-126750589D01*
X116903621Y-126750500D01*
X116926846Y-126750500D01*
X116932241Y-126749495D01*
X116938031Y-126749120D01*
X116967162Y-126748026D01*
X116977850Y-126743434D01*
X116982462Y-126742395D01*
X116994113Y-126738856D01*
X116998540Y-126737147D01*
X117009979Y-126735017D01*
X117030952Y-126722089D01*
X117047312Y-126713591D01*
X117069948Y-126703866D01*
X117076426Y-126698545D01*
X117078618Y-126696353D01*
X117080881Y-126694301D01*
X117081123Y-126694567D01*
X117087279Y-126689701D01*
X117095309Y-126682420D01*
X117105211Y-126676316D01*
X117120855Y-126655743D01*
X117132056Y-126642915D01*
X118524971Y-125250000D01*
X120750000Y-125250000D01*
X120750000Y-128150000D01*
X124950000Y-128150000D01*
X124950000Y-125250000D01*
X120750000Y-125250000D01*
X118524971Y-125250000D01*
X119037566Y-124737405D01*
X119099878Y-124703379D01*
X119126661Y-124700500D01*
X121546562Y-124700500D01*
X121614683Y-124720502D01*
X121635657Y-124737405D01*
X121646780Y-124748528D01*
X121766874Y-124809719D01*
X121776663Y-124811269D01*
X121776665Y-124811270D01*
X121890207Y-124829253D01*
X121900000Y-124830804D01*
X121909793Y-124829253D01*
X122023335Y-124811270D01*
X122023337Y-124811269D01*
X122033126Y-124809719D01*
X122153220Y-124748528D01*
X122248528Y-124653220D01*
X122259644Y-124631405D01*
X122288928Y-124573931D01*
X122337676Y-124522315D01*
X122406591Y-124505249D01*
X122473793Y-124528150D01*
X122489053Y-124540997D01*
X122489769Y-124541517D01*
X122496780Y-124548528D01*
X122616874Y-124609719D01*
X122626663Y-124611269D01*
X122626665Y-124611270D01*
X122740207Y-124629253D01*
X122750000Y-124630804D01*
X122759793Y-124629253D01*
X122873335Y-124611270D01*
X122873337Y-124611269D01*
X122883126Y-124609719D01*
X123003220Y-124548528D01*
X123098528Y-124453220D01*
X123159719Y-124333126D01*
X123175267Y-124234963D01*
X123179253Y-124209793D01*
X123180804Y-124200000D01*
X123176226Y-124171093D01*
X123161270Y-124076665D01*
X123161269Y-124076663D01*
X123159719Y-124066874D01*
X123098528Y-123946780D01*
X123087405Y-123935657D01*
X123053379Y-123873345D01*
X123050500Y-123846562D01*
X123050500Y-123100966D01*
X123050623Y-123099287D01*
X123052223Y-123094628D01*
X123050589Y-123051115D01*
X123050500Y-123046387D01*
X123050500Y-123023154D01*
X123049494Y-123017756D01*
X123049118Y-123011953D01*
X123048667Y-122999942D01*
X123048025Y-122982837D01*
X123043432Y-122972147D01*
X123042390Y-122967522D01*
X123038855Y-122955886D01*
X123037148Y-122951461D01*
X123035017Y-122940021D01*
X123022094Y-122919056D01*
X123013587Y-122902678D01*
X123003866Y-122880050D01*
X123006213Y-122879042D01*
X122991351Y-122823406D01*
X123013020Y-122755797D01*
X123067801Y-122710636D01*
X123117313Y-122700500D01*
X123523339Y-122700500D01*
X123591460Y-122720502D01*
X123612434Y-122737405D01*
X124062595Y-123187566D01*
X124096621Y-123249878D01*
X124099500Y-123276661D01*
X124099500Y-123746562D01*
X124079498Y-123814683D01*
X124062595Y-123835657D01*
X124051472Y-123846780D01*
X123990281Y-123966874D01*
X123988731Y-123976663D01*
X123988730Y-123976665D01*
X123973050Y-124075666D01*
X123969196Y-124100000D01*
X123970747Y-124109793D01*
X123986577Y-124209738D01*
X123990281Y-124233126D01*
X124051472Y-124353220D01*
X124146780Y-124448528D01*
X124266874Y-124509719D01*
X124276663Y-124511269D01*
X124276665Y-124511270D01*
X124390207Y-124529253D01*
X124400000Y-124530804D01*
X124409793Y-124529253D01*
X124523335Y-124511270D01*
X124523337Y-124511269D01*
X124533126Y-124509719D01*
X124653220Y-124448528D01*
X124748528Y-124353220D01*
X124809719Y-124233126D01*
X124813424Y-124209738D01*
X124829253Y-124109793D01*
X124830804Y-124100000D01*
X124826950Y-124075666D01*
X124811270Y-123976665D01*
X124811269Y-123976663D01*
X124809719Y-123966874D01*
X124748528Y-123846780D01*
X124737405Y-123835657D01*
X124703379Y-123773345D01*
X124700500Y-123746562D01*
X124700500Y-123150966D01*
X124700623Y-123149287D01*
X124702223Y-123144628D01*
X124700589Y-123101115D01*
X124700500Y-123096387D01*
X124700500Y-123073154D01*
X124699494Y-123067756D01*
X124699118Y-123061953D01*
X124698622Y-123048745D01*
X124698025Y-123032837D01*
X124693432Y-123022147D01*
X124692390Y-123017522D01*
X124688852Y-123005875D01*
X124687146Y-123001455D01*
X124685017Y-122990021D01*
X124672093Y-122969054D01*
X124663589Y-122952683D01*
X124653866Y-122930051D01*
X124648545Y-122923574D01*
X124646363Y-122921392D01*
X124644308Y-122919126D01*
X124644574Y-122918885D01*
X124639701Y-122912721D01*
X124632419Y-122904689D01*
X124626316Y-122894789D01*
X124617060Y-122887750D01*
X124617056Y-122887746D01*
X124605742Y-122879143D01*
X124592915Y-122867943D01*
X124240567Y-122515595D01*
X124206541Y-122453283D01*
X124211606Y-122382468D01*
X124254153Y-122325632D01*
X124320673Y-122300821D01*
X124329662Y-122300500D01*
X126074033Y-122300500D01*
X126075714Y-122300623D01*
X126080372Y-122302223D01*
X126091697Y-122301798D01*
X126091700Y-122301798D01*
X126123894Y-122300589D01*
X126128621Y-122300500D01*
X126151846Y-122300500D01*
X126157241Y-122299495D01*
X126163031Y-122299120D01*
X126192162Y-122298026D01*
X126202850Y-122293434D01*
X126207462Y-122292395D01*
X126219113Y-122288856D01*
X126223540Y-122287147D01*
X126234979Y-122285017D01*
X126255952Y-122272089D01*
X126272312Y-122263591D01*
X126294948Y-122253866D01*
X126301426Y-122248545D01*
X126303618Y-122246353D01*
X126305881Y-122244301D01*
X126306123Y-122244567D01*
X126312279Y-122239701D01*
X126320309Y-122232420D01*
X126330211Y-122226316D01*
X126345855Y-122205743D01*
X126357056Y-122192915D01*
X126762566Y-121787405D01*
X126824878Y-121753379D01*
X126851661Y-121750500D01*
X129599033Y-121750500D01*
X129600714Y-121750623D01*
X129605372Y-121752223D01*
X129616697Y-121751798D01*
X129616700Y-121751798D01*
X129648894Y-121750589D01*
X129653621Y-121750500D01*
X129676846Y-121750500D01*
X129682241Y-121749495D01*
X129688031Y-121749120D01*
X129717162Y-121748026D01*
X129727850Y-121743434D01*
X129732462Y-121742395D01*
X129744113Y-121738856D01*
X129748540Y-121737147D01*
X129759979Y-121735017D01*
X129780952Y-121722089D01*
X129797312Y-121713591D01*
X129808585Y-121708748D01*
X129811781Y-121707375D01*
X129811782Y-121707374D01*
X129819948Y-121703866D01*
X129826426Y-121698545D01*
X129828618Y-121696353D01*
X129830881Y-121694301D01*
X129831123Y-121694567D01*
X129837279Y-121689701D01*
X129845309Y-121682420D01*
X129855211Y-121676316D01*
X129870855Y-121655743D01*
X129882056Y-121642915D01*
X130546441Y-120978530D01*
X130547723Y-120977423D01*
X130552147Y-120975261D01*
X130581792Y-120943303D01*
X130585073Y-120939898D01*
X130601469Y-120923502D01*
X130604573Y-120918977D01*
X130608405Y-120914614D01*
X130620314Y-120901776D01*
X130620315Y-120901774D01*
X130628227Y-120893245D01*
X130632538Y-120882439D01*
X130635078Y-120878421D01*
X130640799Y-120867706D01*
X130642723Y-120863365D01*
X130649305Y-120853770D01*
X130654993Y-120829801D01*
X130660553Y-120812220D01*
X130669682Y-120789339D01*
X130670500Y-120780996D01*
X130670500Y-120777914D01*
X130670650Y-120774844D01*
X130671008Y-120774862D01*
X130671920Y-120767075D01*
X130672450Y-120756243D01*
X130675136Y-120744923D01*
X130671651Y-120719315D01*
X130670500Y-120702324D01*
X130670500Y-118679173D01*
X130690502Y-118611052D01*
X130707405Y-118590078D01*
X130718528Y-118578955D01*
X130779719Y-118458861D01*
X130781633Y-118446780D01*
X130799253Y-118335528D01*
X130800804Y-118325735D01*
X130798870Y-118313522D01*
X130781270Y-118202400D01*
X130781269Y-118202398D01*
X130779719Y-118192609D01*
X130718528Y-118072515D01*
X130623220Y-117977207D01*
X130503126Y-117916016D01*
X130493335Y-117914465D01*
X130493334Y-117914465D01*
X130467145Y-117910317D01*
X130402992Y-117879904D01*
X130365465Y-117819636D01*
X130362407Y-117766158D01*
X130379253Y-117659794D01*
X130379253Y-117659793D01*
X130380804Y-117650000D01*
X130377931Y-117631863D01*
X130361270Y-117526665D01*
X130361269Y-117526663D01*
X130359719Y-117516874D01*
X130298528Y-117396780D01*
X130290843Y-117389095D01*
X130290286Y-117388075D01*
X130285689Y-117381748D01*
X130286507Y-117381154D01*
X130256817Y-117326783D01*
X130261882Y-117255968D01*
X130285984Y-117218466D01*
X130285689Y-117218252D01*
X130289432Y-117213100D01*
X130290843Y-117210905D01*
X130298528Y-117203220D01*
X130359719Y-117083126D01*
X130361926Y-117069196D01*
X130379253Y-116959793D01*
X130380804Y-116950000D01*
X130374674Y-116911299D01*
X130361270Y-116826665D01*
X130361269Y-116826663D01*
X130359719Y-116816874D01*
X130298528Y-116696780D01*
X130203220Y-116601472D01*
X130083126Y-116540281D01*
X130073337Y-116538731D01*
X130073335Y-116538730D01*
X129959793Y-116520747D01*
X129950000Y-116519196D01*
X129940207Y-116520747D01*
X129826665Y-116538730D01*
X129826663Y-116538731D01*
X129816874Y-116540281D01*
X129696780Y-116601472D01*
X129685657Y-116612595D01*
X129623345Y-116646621D01*
X129596562Y-116649500D01*
X129526661Y-116649500D01*
X129458540Y-116629498D01*
X129437566Y-116612595D01*
X128473029Y-115648057D01*
X127498528Y-114673556D01*
X127497423Y-114672276D01*
X127495261Y-114667853D01*
X127463316Y-114638220D01*
X127459911Y-114634939D01*
X127443503Y-114618531D01*
X127438972Y-114615423D01*
X127434631Y-114611610D01*
X127413245Y-114591773D01*
X127402438Y-114587462D01*
X127398421Y-114584922D01*
X127387703Y-114579199D01*
X127383361Y-114577275D01*
X127373771Y-114570696D01*
X127349806Y-114565008D01*
X127332217Y-114559445D01*
X127309339Y-114550318D01*
X127300996Y-114549500D01*
X127297913Y-114549500D01*
X127294844Y-114549350D01*
X127294862Y-114548992D01*
X127287075Y-114548080D01*
X127276243Y-114547550D01*
X127264923Y-114544864D01*
X127253394Y-114546433D01*
X127253392Y-114546433D01*
X127239315Y-114548349D01*
X127222324Y-114549500D01*
X122950372Y-114549500D01*
X122882251Y-114529498D01*
X122835758Y-114475842D01*
X122825654Y-114405568D01*
X122855148Y-114340988D01*
X122861277Y-114334405D01*
X122905924Y-114289758D01*
X122922456Y-114276406D01*
X122925040Y-114274055D01*
X122933790Y-114268405D01*
X122953451Y-114243465D01*
X122956704Y-114239805D01*
X122956583Y-114239703D01*
X122959936Y-114235746D01*
X122963616Y-114232066D01*
X122972813Y-114219196D01*
X122973320Y-114218487D01*
X122976886Y-114213737D01*
X122999615Y-114184906D01*
X122999616Y-114184905D01*
X123006061Y-114176729D01*
X123008864Y-114168748D01*
X123013783Y-114161864D01*
X123027304Y-114116651D01*
X123029116Y-114111077D01*
X123044740Y-114066587D01*
X123045034Y-114063193D01*
X123045034Y-114060483D01*
X123045152Y-114057752D01*
X123045282Y-114057758D01*
X123045379Y-114056214D01*
X123047231Y-114050022D01*
X123045131Y-113996561D01*
X123045034Y-113991615D01*
X123045034Y-113704853D01*
X123058767Y-113647650D01*
X123104253Y-113558379D01*
X123106188Y-113546166D01*
X123123787Y-113435046D01*
X123125338Y-113425253D01*
X123115040Y-113360231D01*
X123105804Y-113301918D01*
X123105803Y-113301916D01*
X123104253Y-113292127D01*
X123043062Y-113172033D01*
X122947754Y-113076725D01*
X122827660Y-113015534D01*
X122817871Y-113013984D01*
X122817869Y-113013983D01*
X122704327Y-112996000D01*
X122694534Y-112994449D01*
X122658167Y-113000209D01*
X122587757Y-112991110D01*
X122533443Y-112945388D01*
X122512470Y-112877560D01*
X122514008Y-112856050D01*
X122529253Y-112759794D01*
X122529253Y-112759793D01*
X122530804Y-112750000D01*
X122522641Y-112698459D01*
X122511270Y-112626665D01*
X122511269Y-112626663D01*
X122509719Y-112616874D01*
X122448528Y-112496780D01*
X122437405Y-112485657D01*
X122403379Y-112423345D01*
X122400500Y-112396562D01*
X122400500Y-109390080D01*
X122412304Y-109336833D01*
X122419238Y-109321963D01*
X122429242Y-109207618D01*
X122413804Y-109150000D01*
X122402388Y-109107397D01*
X122399535Y-109096749D01*
X122350214Y-109026311D01*
X121357511Y-108033608D01*
X121350084Y-108025504D01*
X121344716Y-108019106D01*
X121326017Y-107996822D01*
X121316467Y-107991308D01*
X121293392Y-107977985D01*
X121284124Y-107972081D01*
X121262283Y-107956789D01*
X121262282Y-107956789D01*
X121253251Y-107950465D01*
X121242604Y-107947613D01*
X121239448Y-107946141D01*
X121236162Y-107944945D01*
X121226614Y-107939432D01*
X121215757Y-107937518D01*
X121215755Y-107937517D01*
X121198210Y-107934424D01*
X121189508Y-107932889D01*
X121178776Y-107930510D01*
X121153032Y-107923611D01*
X121153027Y-107923611D01*
X121142381Y-107920758D01*
X121131401Y-107921719D01*
X121131393Y-107921718D01*
X121105086Y-107924020D01*
X121094104Y-107924500D01*
X87273216Y-107924500D01*
X87206724Y-107904976D01*
X87203220Y-107901472D01*
X87194384Y-107896970D01*
X87194383Y-107896969D01*
X87108832Y-107853379D01*
X87083126Y-107840281D01*
X87073337Y-107838731D01*
X87073335Y-107838730D01*
X86959793Y-107820747D01*
X86950000Y-107819196D01*
X86940207Y-107820747D01*
X86826665Y-107838730D01*
X86826663Y-107838731D01*
X86816874Y-107840281D01*
X86696780Y-107901472D01*
X86601472Y-107996780D01*
X86540281Y-108116874D01*
X86519196Y-108250000D01*
X86520747Y-108259793D01*
X86538419Y-108371368D01*
X86540281Y-108383126D01*
X86601472Y-108503220D01*
X86696780Y-108598528D01*
X86816874Y-108659719D01*
X86826663Y-108661269D01*
X86826665Y-108661270D01*
X86940207Y-108679253D01*
X86950000Y-108680804D01*
X86959793Y-108679253D01*
X87073335Y-108661270D01*
X87073337Y-108661269D01*
X87083126Y-108659719D01*
X87146050Y-108627658D01*
X87194383Y-108603031D01*
X87194384Y-108603030D01*
X87203220Y-108598528D01*
X87203864Y-108597884D01*
X87266021Y-108575706D01*
X87273216Y-108575500D01*
X88283130Y-108575500D01*
X88351251Y-108595502D01*
X88397744Y-108649158D01*
X88407848Y-108719432D01*
X88395397Y-108758703D01*
X88340281Y-108866874D01*
X88338731Y-108876663D01*
X88338730Y-108876665D01*
X88324752Y-108964921D01*
X88319196Y-109000000D01*
X88340281Y-109133126D01*
X88401472Y-109253220D01*
X88496780Y-109348528D01*
X88616874Y-109409719D01*
X88626663Y-109411269D01*
X88626665Y-109411270D01*
X88674487Y-109418844D01*
X88738640Y-109449256D01*
X88743871Y-109454198D01*
X88924558Y-109634885D01*
X88958584Y-109697197D01*
X88953519Y-109768012D01*
X88910972Y-109824848D01*
X88844452Y-109849659D01*
X88835463Y-109849980D01*
X86942828Y-109849980D01*
X86874707Y-109829978D01*
X86853733Y-109813075D01*
X83652350Y-106611692D01*
X83652329Y-106611668D01*
X83652322Y-106611653D01*
X83562613Y-106521944D01*
X83543012Y-106511957D01*
X83526162Y-106501632D01*
X83508359Y-106488697D01*
X83487434Y-106481898D01*
X83469173Y-106474334D01*
X83458406Y-106468848D01*
X83458405Y-106468848D01*
X83449572Y-106464347D01*
X83427837Y-106460904D01*
X83408623Y-106456291D01*
X83397131Y-106452557D01*
X83397130Y-106452557D01*
X83387700Y-106449493D01*
X83260832Y-106449493D01*
X83260817Y-106449498D01*
X83260787Y-106449500D01*
X52339213Y-106449500D01*
X52339183Y-106449498D01*
X52339168Y-106449493D01*
X52212300Y-106449493D01*
X52191376Y-106456292D01*
X52172159Y-106460905D01*
X52150428Y-106464347D01*
X52141591Y-106468850D01*
X52141590Y-106468850D01*
X52130822Y-106474336D01*
X52112562Y-106481900D01*
X52091641Y-106488698D01*
X52083618Y-106494527D01*
X52083616Y-106494528D01*
X52073847Y-106501626D01*
X52056988Y-106511957D01*
X52037387Y-106521944D01*
X51947678Y-106611653D01*
X51947671Y-106611666D01*
X51947652Y-106611689D01*
X50461692Y-108097650D01*
X50461668Y-108097671D01*
X50461653Y-108097678D01*
X50371944Y-108187387D01*
X50367440Y-108196227D01*
X50361958Y-108206986D01*
X50351632Y-108223838D01*
X50338697Y-108241641D01*
X50331898Y-108262566D01*
X50324334Y-108280827D01*
X50319979Y-108289375D01*
X50314347Y-108300428D01*
X50310904Y-108322163D01*
X50306291Y-108341375D01*
X50299493Y-108362300D01*
X50299493Y-108489168D01*
X50299498Y-108489183D01*
X50299500Y-108489213D01*
X50299500Y-112774000D01*
X50279498Y-112842121D01*
X50225842Y-112888614D01*
X50173500Y-112900000D01*
X48676000Y-112900000D01*
X48607879Y-112879998D01*
X48561386Y-112826342D01*
X48550000Y-112774000D01*
X48550000Y-111250000D01*
X39876000Y-111250000D01*
X39807879Y-111229998D01*
X39761386Y-111176342D01*
X39750000Y-111124000D01*
X39750000Y-90483846D01*
X40933631Y-90483846D01*
X40942926Y-90495860D01*
X41068103Y-90583510D01*
X41077599Y-90588993D01*
X41265860Y-90676780D01*
X41276152Y-90680526D01*
X41476796Y-90734288D01*
X41487591Y-90736191D01*
X41694525Y-90754296D01*
X41705475Y-90754296D01*
X41912409Y-90736191D01*
X41923204Y-90734288D01*
X42123848Y-90680526D01*
X42134140Y-90676780D01*
X42322401Y-90588993D01*
X42331897Y-90583510D01*
X42457911Y-90495274D01*
X42466286Y-90484797D01*
X42459217Y-90471349D01*
X41712812Y-89724944D01*
X41698868Y-89717330D01*
X41697035Y-89717461D01*
X41690420Y-89721712D01*
X40940061Y-90472071D01*
X40933631Y-90483846D01*
X39750000Y-90483846D01*
X39750000Y-89494525D01*
X40445704Y-89494525D01*
X40445704Y-89505475D01*
X40463809Y-89712409D01*
X40465712Y-89723204D01*
X40519474Y-89923848D01*
X40523220Y-89934140D01*
X40611007Y-90122400D01*
X40616490Y-90131895D01*
X40704727Y-90257910D01*
X40715204Y-90266285D01*
X40728651Y-90259217D01*
X41475056Y-89512812D01*
X41481434Y-89501132D01*
X41917330Y-89501132D01*
X41917461Y-89502965D01*
X41921712Y-89509580D01*
X42672070Y-90259938D01*
X42683845Y-90266368D01*
X42695860Y-90257072D01*
X42783510Y-90131895D01*
X42788993Y-90122400D01*
X42876780Y-89934140D01*
X42880526Y-89923848D01*
X42934288Y-89723204D01*
X42936191Y-89712409D01*
X42954296Y-89505475D01*
X42954296Y-89494525D01*
X42936191Y-89287591D01*
X42934288Y-89276796D01*
X42880526Y-89076152D01*
X42876780Y-89065860D01*
X42788993Y-88877600D01*
X42783510Y-88868105D01*
X42695273Y-88742090D01*
X42684796Y-88733715D01*
X42671349Y-88740783D01*
X41924944Y-89487188D01*
X41917330Y-89501132D01*
X41481434Y-89501132D01*
X41482670Y-89498868D01*
X41482539Y-89497035D01*
X41478288Y-89490420D01*
X40727930Y-88740062D01*
X40716155Y-88733632D01*
X40704140Y-88742928D01*
X40616490Y-88868105D01*
X40611007Y-88877600D01*
X40523220Y-89065860D01*
X40519474Y-89076152D01*
X40465712Y-89276796D01*
X40463809Y-89287591D01*
X40445704Y-89494525D01*
X39750000Y-89494525D01*
X39750000Y-88515204D01*
X40933715Y-88515204D01*
X40940783Y-88528651D01*
X41687188Y-89275056D01*
X41701132Y-89282670D01*
X41702965Y-89282539D01*
X41709580Y-89278288D01*
X42459939Y-88527929D01*
X42466369Y-88516154D01*
X42457074Y-88504140D01*
X42331897Y-88416490D01*
X42322401Y-88411007D01*
X42134140Y-88323220D01*
X42123848Y-88319474D01*
X41923204Y-88265712D01*
X41912409Y-88263809D01*
X41705475Y-88245704D01*
X41694525Y-88245704D01*
X41487591Y-88263809D01*
X41476796Y-88265712D01*
X41276152Y-88319474D01*
X41265860Y-88323220D01*
X41077600Y-88411007D01*
X41068105Y-88416490D01*
X40942090Y-88504727D01*
X40933715Y-88515204D01*
X39750000Y-88515204D01*
X39750000Y-87276000D01*
X39770002Y-87207879D01*
X39823658Y-87161386D01*
X39876000Y-87150000D01*
X43150000Y-87150000D01*
X43150000Y-79550000D01*
X88144196Y-79550000D01*
X88145747Y-79559793D01*
X88163075Y-79669196D01*
X88165281Y-79683126D01*
X88226472Y-79803220D01*
X88227116Y-79803864D01*
X88249294Y-79866021D01*
X88249500Y-79873216D01*
X88249500Y-106770400D01*
X88235767Y-106827602D01*
X88190281Y-106916874D01*
X88169196Y-107050000D01*
X88170747Y-107059793D01*
X88180597Y-107121981D01*
X88190281Y-107183126D01*
X88251472Y-107303220D01*
X88346780Y-107398528D01*
X88466874Y-107459719D01*
X88476663Y-107461269D01*
X88476665Y-107461270D01*
X88590207Y-107479253D01*
X88600000Y-107480804D01*
X88609793Y-107479253D01*
X88723335Y-107461270D01*
X88723337Y-107461269D01*
X88733126Y-107459719D01*
X88853220Y-107398528D01*
X88948528Y-107303220D01*
X89009719Y-107183126D01*
X89019404Y-107121981D01*
X89029253Y-107059793D01*
X89030804Y-107050000D01*
X103919196Y-107050000D01*
X103920747Y-107059793D01*
X103930597Y-107121981D01*
X103940281Y-107183126D01*
X104001472Y-107303220D01*
X104096780Y-107398528D01*
X104216874Y-107459719D01*
X104226663Y-107461269D01*
X104226665Y-107461270D01*
X104340207Y-107479253D01*
X104350000Y-107480804D01*
X104359793Y-107479253D01*
X104473334Y-107461270D01*
X104473335Y-107461270D01*
X104483126Y-107459719D01*
X104489844Y-107456296D01*
X104526435Y-107450500D01*
X125931917Y-107450500D01*
X126000038Y-107470502D01*
X126021013Y-107487405D01*
X126112596Y-107578989D01*
X126146621Y-107641301D01*
X126149500Y-107668084D01*
X126149500Y-112873565D01*
X126143704Y-112910156D01*
X126140281Y-112916874D01*
X126138730Y-112926665D01*
X126138730Y-112926666D01*
X126124812Y-113014542D01*
X126119196Y-113050000D01*
X126120747Y-113059793D01*
X126137414Y-113165022D01*
X126140281Y-113183126D01*
X126201472Y-113303220D01*
X126296780Y-113398528D01*
X126416874Y-113459719D01*
X126426663Y-113461269D01*
X126426665Y-113461270D01*
X126540207Y-113479253D01*
X126550000Y-113480804D01*
X126559793Y-113479253D01*
X126673335Y-113461270D01*
X126673337Y-113461269D01*
X126683126Y-113459719D01*
X126803220Y-113398528D01*
X126898528Y-113303220D01*
X126959719Y-113183126D01*
X126962587Y-113165022D01*
X126979253Y-113059793D01*
X126980804Y-113050000D01*
X126975188Y-113014542D01*
X126972885Y-113000000D01*
X130169196Y-113000000D01*
X130170747Y-113009793D01*
X130182452Y-113083693D01*
X130190281Y-113133126D01*
X130251472Y-113253220D01*
X130346780Y-113348528D01*
X130466874Y-113409719D01*
X130476663Y-113411269D01*
X130476665Y-113411270D01*
X130590207Y-113429253D01*
X130600000Y-113430804D01*
X130609793Y-113429253D01*
X130723335Y-113411270D01*
X130723337Y-113411269D01*
X130733126Y-113409719D01*
X130853220Y-113348528D01*
X130898909Y-113302839D01*
X130961221Y-113268813D01*
X131032036Y-113273878D01*
X131088872Y-113316425D01*
X131113683Y-113382945D01*
X131100271Y-113449137D01*
X131040281Y-113566874D01*
X131038731Y-113576663D01*
X131038730Y-113576665D01*
X131027487Y-113647650D01*
X131019196Y-113700000D01*
X131020747Y-113709793D01*
X131036574Y-113809719D01*
X131040281Y-113833126D01*
X131101472Y-113953220D01*
X131196780Y-114048528D01*
X131316874Y-114109719D01*
X131326663Y-114111269D01*
X131326665Y-114111270D01*
X131440207Y-114129253D01*
X131450000Y-114130804D01*
X131459793Y-114129253D01*
X131573335Y-114111270D01*
X131573337Y-114111269D01*
X131583126Y-114109719D01*
X131703220Y-114048528D01*
X131798528Y-113953220D01*
X131859719Y-113833126D01*
X131863427Y-113809719D01*
X131879253Y-113709793D01*
X131880804Y-113700000D01*
X131872513Y-113647650D01*
X131861270Y-113576665D01*
X131861269Y-113576663D01*
X131859719Y-113566874D01*
X131799729Y-113449137D01*
X131786625Y-113379360D01*
X131813325Y-113313575D01*
X131871353Y-113272669D01*
X131942284Y-113269629D01*
X132001091Y-113302839D01*
X132046780Y-113348528D01*
X132166874Y-113409719D01*
X132176663Y-113411269D01*
X132176665Y-113411270D01*
X132290207Y-113429253D01*
X132300000Y-113430804D01*
X132309793Y-113429253D01*
X132423335Y-113411270D01*
X132423337Y-113411269D01*
X132433126Y-113409719D01*
X132553220Y-113348528D01*
X132648528Y-113253220D01*
X132709719Y-113133126D01*
X132717549Y-113083693D01*
X132729253Y-113009793D01*
X132730804Y-113000000D01*
X132727764Y-112980804D01*
X132711270Y-112876665D01*
X132711269Y-112876663D01*
X132709719Y-112866874D01*
X132648528Y-112746780D01*
X132553220Y-112651472D01*
X132433126Y-112590281D01*
X132423337Y-112588731D01*
X132423335Y-112588730D01*
X132309793Y-112570747D01*
X132300000Y-112569196D01*
X132290207Y-112570747D01*
X132176665Y-112588730D01*
X132176663Y-112588731D01*
X132166874Y-112590281D01*
X132046780Y-112651472D01*
X131964095Y-112734157D01*
X131901783Y-112768183D01*
X131830968Y-112763118D01*
X131785905Y-112734157D01*
X131703220Y-112651472D01*
X131583126Y-112590281D01*
X131573337Y-112588731D01*
X131573335Y-112588730D01*
X131459793Y-112570747D01*
X131450000Y-112569196D01*
X131440207Y-112570747D01*
X131326665Y-112588730D01*
X131326663Y-112588731D01*
X131316874Y-112590281D01*
X131196780Y-112651472D01*
X131114095Y-112734157D01*
X131051783Y-112768183D01*
X130980968Y-112763118D01*
X130935905Y-112734157D01*
X130853220Y-112651472D01*
X130733126Y-112590281D01*
X130723337Y-112588731D01*
X130723335Y-112588730D01*
X130609793Y-112570747D01*
X130600000Y-112569196D01*
X130590207Y-112570747D01*
X130476665Y-112588730D01*
X130476663Y-112588731D01*
X130466874Y-112590281D01*
X130346780Y-112651472D01*
X130251472Y-112746780D01*
X130190281Y-112866874D01*
X130188731Y-112876663D01*
X130188730Y-112876665D01*
X130172236Y-112980804D01*
X130169196Y-113000000D01*
X126972885Y-113000000D01*
X126961270Y-112926666D01*
X126961270Y-112926665D01*
X126959719Y-112916874D01*
X126956296Y-112910156D01*
X126950500Y-112873565D01*
X126950500Y-107513479D01*
X126950502Y-107513449D01*
X126950507Y-107513434D01*
X126950507Y-107386566D01*
X126943708Y-107365642D01*
X126939095Y-107346425D01*
X126937204Y-107334487D01*
X126935653Y-107324694D01*
X126928284Y-107310231D01*
X126925664Y-107305088D01*
X126918098Y-107286824D01*
X126914366Y-107275338D01*
X126911302Y-107265907D01*
X126898374Y-107248113D01*
X126888043Y-107231254D01*
X126882560Y-107220493D01*
X126878056Y-107211653D01*
X126788347Y-107121944D01*
X126788331Y-107121936D01*
X126788313Y-107121920D01*
X126478082Y-106811690D01*
X126478064Y-106811669D01*
X126478056Y-106811653D01*
X126388347Y-106721944D01*
X126368749Y-106711958D01*
X126351896Y-106701632D01*
X126334093Y-106688697D01*
X126313168Y-106681898D01*
X126294907Y-106674334D01*
X126284140Y-106668848D01*
X126284139Y-106668848D01*
X126275306Y-106664347D01*
X126253571Y-106660904D01*
X126234357Y-106656291D01*
X126222865Y-106652557D01*
X126222864Y-106652557D01*
X126213434Y-106649493D01*
X126086566Y-106649493D01*
X126086551Y-106649498D01*
X126086521Y-106649500D01*
X106806438Y-106649500D01*
X106738317Y-106629498D01*
X106691824Y-106575842D01*
X106681720Y-106505568D01*
X106711214Y-106440988D01*
X106717343Y-106434405D01*
X106748528Y-106403220D01*
X106809719Y-106283126D01*
X106830804Y-106150000D01*
X106809719Y-106016874D01*
X106764233Y-105927602D01*
X106750500Y-105870400D01*
X106750500Y-102534382D01*
X130095671Y-102534382D01*
X130097544Y-102543159D01*
X130098155Y-102552114D01*
X130098075Y-102552119D01*
X130099500Y-102565618D01*
X130099500Y-110434914D01*
X130114818Y-110541877D01*
X130174140Y-110672349D01*
X130267697Y-110780926D01*
X130387967Y-110858882D01*
X130396564Y-110861453D01*
X130396566Y-110861454D01*
X130480304Y-110886497D01*
X130525282Y-110899948D01*
X130534258Y-110900003D01*
X130534259Y-110900003D01*
X130595973Y-110900380D01*
X130668604Y-110900823D01*
X130677235Y-110898356D01*
X130677237Y-110898356D01*
X130797777Y-110863906D01*
X130797780Y-110863905D01*
X130806411Y-110861438D01*
X130927625Y-110784958D01*
X131022501Y-110677531D01*
X131083412Y-110547794D01*
X131100500Y-110438045D01*
X131100500Y-104713548D01*
X136870000Y-104713548D01*
X136870000Y-105222743D01*
X136870161Y-105227251D01*
X136874658Y-105290131D01*
X136877043Y-105303351D01*
X136913096Y-105426135D01*
X136920510Y-105442369D01*
X136988472Y-105548121D01*
X137000158Y-105561608D01*
X137095165Y-105643932D01*
X137110173Y-105653577D01*
X137224529Y-105705801D01*
X137241642Y-105710826D01*
X137370554Y-105729361D01*
X137379495Y-105730000D01*
X137881885Y-105730000D01*
X137897124Y-105725525D01*
X137898329Y-105724135D01*
X137900000Y-105716452D01*
X137900000Y-104718115D01*
X137898659Y-104713548D01*
X138200000Y-104713548D01*
X138200000Y-105711885D01*
X138204475Y-105727124D01*
X138205865Y-105728329D01*
X138213548Y-105730000D01*
X138722743Y-105730000D01*
X138727251Y-105729839D01*
X138790131Y-105725342D01*
X138803351Y-105722957D01*
X138926135Y-105686904D01*
X138942369Y-105679490D01*
X139048121Y-105611528D01*
X139061608Y-105599842D01*
X139143932Y-105504835D01*
X139153577Y-105489827D01*
X139205801Y-105375471D01*
X139210826Y-105358358D01*
X139229361Y-105229446D01*
X139230000Y-105220503D01*
X139230000Y-104718115D01*
X139225525Y-104702876D01*
X139224135Y-104701671D01*
X139216452Y-104700000D01*
X138218115Y-104700000D01*
X138202876Y-104704475D01*
X138201671Y-104705865D01*
X138200000Y-104713548D01*
X137898659Y-104713548D01*
X137895525Y-104702876D01*
X137894135Y-104701671D01*
X137886452Y-104700000D01*
X136888115Y-104700000D01*
X136872876Y-104704475D01*
X136871671Y-104705865D01*
X136870000Y-104713548D01*
X131100500Y-104713548D01*
X131100500Y-103879495D01*
X136870000Y-103879495D01*
X136870000Y-104381885D01*
X136874475Y-104397124D01*
X136875865Y-104398329D01*
X136883548Y-104400000D01*
X139211885Y-104400000D01*
X139227124Y-104395525D01*
X139228329Y-104394135D01*
X139230000Y-104386452D01*
X139230000Y-103877257D01*
X139229839Y-103872749D01*
X139225342Y-103809869D01*
X139222957Y-103796649D01*
X139186904Y-103673865D01*
X139179490Y-103657631D01*
X139111528Y-103551879D01*
X139099842Y-103538392D01*
X139004835Y-103456068D01*
X138989827Y-103446423D01*
X138875471Y-103394199D01*
X138858351Y-103389172D01*
X138750395Y-103373650D01*
X138685814Y-103344157D01*
X138647431Y-103284431D01*
X138647431Y-103213435D01*
X138674691Y-103164623D01*
X138676517Y-103162596D01*
X138762195Y-103067440D01*
X138854214Y-102908059D01*
X138911085Y-102733029D01*
X138928681Y-102565618D01*
X138929632Y-102556565D01*
X138930322Y-102550000D01*
X138929632Y-102543435D01*
X138911775Y-102373535D01*
X138911775Y-102373534D01*
X138911085Y-102366971D01*
X138854214Y-102191941D01*
X138762195Y-102032560D01*
X138639050Y-101895793D01*
X138633708Y-101891912D01*
X138633706Y-101891910D01*
X138495503Y-101791500D01*
X138495502Y-101791499D01*
X138490161Y-101787619D01*
X138484133Y-101784935D01*
X138484131Y-101784934D01*
X138328065Y-101715449D01*
X138328064Y-101715449D01*
X138322034Y-101712764D01*
X138232026Y-101693632D01*
X138148476Y-101675872D01*
X138148471Y-101675872D01*
X138142019Y-101674500D01*
X138141155Y-101674500D01*
X138077467Y-101648298D01*
X138049622Y-101608398D01*
X138029786Y-101642013D01*
X137966375Y-101673944D01*
X137962509Y-101674500D01*
X137957981Y-101674500D01*
X137951529Y-101675872D01*
X137951524Y-101675872D01*
X137867974Y-101693632D01*
X137777966Y-101712764D01*
X137771936Y-101715449D01*
X137771935Y-101715449D01*
X137615869Y-101784934D01*
X137615867Y-101784935D01*
X137609839Y-101787619D01*
X137604498Y-101791499D01*
X137604497Y-101791500D01*
X137466294Y-101891910D01*
X137466292Y-101891912D01*
X137460950Y-101895793D01*
X137337805Y-102032560D01*
X137245786Y-102191941D01*
X137188915Y-102366971D01*
X137188225Y-102373534D01*
X137188225Y-102373535D01*
X137170368Y-102543435D01*
X137169678Y-102550000D01*
X137170368Y-102556565D01*
X137171320Y-102565618D01*
X137188915Y-102733029D01*
X137245786Y-102908059D01*
X137337805Y-103067440D01*
X137423487Y-103162600D01*
X137454202Y-103226604D01*
X137445438Y-103297058D01*
X137399976Y-103351589D01*
X137338839Y-103372586D01*
X137309868Y-103374658D01*
X137296649Y-103377043D01*
X137173865Y-103413096D01*
X137157631Y-103420510D01*
X137051879Y-103488472D01*
X137038392Y-103500158D01*
X136956068Y-103595165D01*
X136946423Y-103610173D01*
X136894199Y-103724529D01*
X136889174Y-103741642D01*
X136870639Y-103870554D01*
X136870000Y-103879495D01*
X131100500Y-103879495D01*
X131100500Y-102759504D01*
X131120502Y-102691383D01*
X131137405Y-102670409D01*
X133257814Y-100550000D01*
X137169678Y-100550000D01*
X137188915Y-100733029D01*
X137245786Y-100908059D01*
X137337805Y-101067440D01*
X137460950Y-101204207D01*
X137466292Y-101208088D01*
X137466294Y-101208090D01*
X137604497Y-101308500D01*
X137609839Y-101312381D01*
X137615867Y-101315065D01*
X137615869Y-101315066D01*
X137771935Y-101384551D01*
X137777966Y-101387236D01*
X137867974Y-101406368D01*
X137951524Y-101424128D01*
X137951529Y-101424128D01*
X137957981Y-101425500D01*
X137958845Y-101425500D01*
X138022533Y-101451702D01*
X138050378Y-101491602D01*
X138070214Y-101457987D01*
X138133625Y-101426056D01*
X138137491Y-101425500D01*
X138142019Y-101425500D01*
X138148471Y-101424128D01*
X138148476Y-101424128D01*
X138232026Y-101406368D01*
X138322034Y-101387236D01*
X138328065Y-101384551D01*
X138484131Y-101315066D01*
X138484133Y-101315065D01*
X138490161Y-101312381D01*
X138495503Y-101308500D01*
X138633706Y-101208090D01*
X138633708Y-101208088D01*
X138639050Y-101204207D01*
X138762195Y-101067440D01*
X138854214Y-100908059D01*
X138911085Y-100733029D01*
X138930322Y-100550000D01*
X138911085Y-100366971D01*
X138854214Y-100191941D01*
X138762195Y-100032560D01*
X138734204Y-100001472D01*
X138643472Y-99900704D01*
X138643471Y-99900703D01*
X138639050Y-99895793D01*
X138633708Y-99891912D01*
X138633706Y-99891910D01*
X138495503Y-99791500D01*
X138495502Y-99791499D01*
X138490161Y-99787619D01*
X138484133Y-99784935D01*
X138484131Y-99784934D01*
X138328065Y-99715449D01*
X138328064Y-99715449D01*
X138322034Y-99712764D01*
X138232026Y-99693632D01*
X138148476Y-99675872D01*
X138148471Y-99675872D01*
X138142019Y-99674500D01*
X138141155Y-99674500D01*
X138077467Y-99648298D01*
X138049622Y-99608398D01*
X138029786Y-99642013D01*
X137966375Y-99673944D01*
X137962509Y-99674500D01*
X137957981Y-99674500D01*
X137951529Y-99675872D01*
X137951524Y-99675872D01*
X137867974Y-99693632D01*
X137777966Y-99712764D01*
X137771936Y-99715449D01*
X137771935Y-99715449D01*
X137615869Y-99784934D01*
X137615867Y-99784935D01*
X137609839Y-99787619D01*
X137604498Y-99791499D01*
X137604497Y-99791500D01*
X137466294Y-99891910D01*
X137466292Y-99891912D01*
X137460950Y-99895793D01*
X137456529Y-99900703D01*
X137456528Y-99900704D01*
X137365797Y-100001472D01*
X137337805Y-100032560D01*
X137245786Y-100191941D01*
X137188915Y-100366971D01*
X137169678Y-100550000D01*
X133257814Y-100550000D01*
X134720409Y-99087405D01*
X134782721Y-99053379D01*
X134809504Y-99050500D01*
X137266454Y-99050500D01*
X137334575Y-99070502D01*
X137360090Y-99092190D01*
X137460950Y-99204207D01*
X137466292Y-99208088D01*
X137466294Y-99208090D01*
X137604497Y-99308500D01*
X137609839Y-99312381D01*
X137615867Y-99315065D01*
X137615869Y-99315066D01*
X137771935Y-99384551D01*
X137777966Y-99387236D01*
X137867974Y-99406368D01*
X137951524Y-99424128D01*
X137951529Y-99424128D01*
X137957981Y-99425500D01*
X137958845Y-99425500D01*
X138022533Y-99451702D01*
X138050378Y-99491602D01*
X138070214Y-99457987D01*
X138133625Y-99426056D01*
X138137491Y-99425500D01*
X138142019Y-99425500D01*
X138148471Y-99424128D01*
X138148476Y-99424128D01*
X138232026Y-99406368D01*
X138322034Y-99387236D01*
X138328065Y-99384551D01*
X138484131Y-99315066D01*
X138484133Y-99315065D01*
X138490161Y-99312381D01*
X138495503Y-99308500D01*
X138633706Y-99208090D01*
X138633708Y-99208088D01*
X138639050Y-99204207D01*
X138762195Y-99067440D01*
X138854214Y-98908059D01*
X138911085Y-98733029D01*
X138930322Y-98550000D01*
X138911085Y-98366971D01*
X138854214Y-98191941D01*
X138762195Y-98032560D01*
X138639050Y-97895793D01*
X138633708Y-97891912D01*
X138633706Y-97891910D01*
X138542673Y-97825771D01*
X138499319Y-97769549D01*
X138493244Y-97698813D01*
X138526375Y-97636021D01*
X138555167Y-97613901D01*
X138713342Y-97525318D01*
X138722817Y-97518806D01*
X138879972Y-97388101D01*
X138888101Y-97379972D01*
X139018806Y-97222817D01*
X139025316Y-97213345D01*
X139125195Y-97034998D01*
X139129871Y-97024495D01*
X139195574Y-96830942D01*
X139198259Y-96819759D01*
X139213023Y-96717929D01*
X139211037Y-96703993D01*
X139197469Y-96700000D01*
X136900341Y-96700000D01*
X136885301Y-96704416D01*
X136883249Y-96715602D01*
X136884116Y-96728829D01*
X136885917Y-96740201D01*
X136936229Y-96938303D01*
X136940070Y-96949150D01*
X137025643Y-97134772D01*
X137031394Y-97144733D01*
X137149359Y-97311651D01*
X137156837Y-97320406D01*
X137303241Y-97463026D01*
X137312185Y-97470269D01*
X137482132Y-97583824D01*
X137492245Y-97589315D01*
X137534076Y-97607287D01*
X137588769Y-97652555D01*
X137610307Y-97720206D01*
X137591850Y-97788761D01*
X137558400Y-97824991D01*
X137502702Y-97865458D01*
X137460950Y-97895793D01*
X137456529Y-97900703D01*
X137456528Y-97900704D01*
X137360090Y-98007810D01*
X137299644Y-98045050D01*
X137266454Y-98049500D01*
X134619526Y-98049500D01*
X134608293Y-98048245D01*
X134608246Y-98048828D01*
X134599295Y-98048108D01*
X134590541Y-98046127D01*
X134540075Y-98049258D01*
X134532273Y-98049500D01*
X134515086Y-98049500D01*
X134507022Y-98050655D01*
X134503966Y-98051092D01*
X134493916Y-98052121D01*
X134456450Y-98054446D01*
X134456449Y-98054446D01*
X134447491Y-98055002D01*
X134439049Y-98058050D01*
X134435353Y-98058815D01*
X134420649Y-98062481D01*
X134417010Y-98063545D01*
X134408123Y-98064818D01*
X134374733Y-98079999D01*
X134365782Y-98084069D01*
X134356417Y-98087881D01*
X134321127Y-98100621D01*
X134321124Y-98100623D01*
X134312683Y-98103670D01*
X134305433Y-98108967D01*
X134302070Y-98110755D01*
X134289025Y-98118378D01*
X134285829Y-98120422D01*
X134277651Y-98124140D01*
X134270848Y-98130002D01*
X134242421Y-98154497D01*
X134234506Y-98160782D01*
X134222995Y-98169191D01*
X134211530Y-98180656D01*
X134204683Y-98187014D01*
X134169074Y-98217697D01*
X134164190Y-98225231D01*
X134158291Y-98231994D01*
X134158230Y-98231941D01*
X134149692Y-98242494D01*
X130295252Y-102096934D01*
X130286422Y-102103989D01*
X130286802Y-102104436D01*
X130279971Y-102110250D01*
X130272375Y-102115042D01*
X130266432Y-102121771D01*
X130266431Y-102121772D01*
X130238903Y-102152942D01*
X130233557Y-102158629D01*
X130221405Y-102170781D01*
X130218721Y-102174362D01*
X130218715Y-102174369D01*
X130214666Y-102179772D01*
X130208284Y-102187611D01*
X130177499Y-102222469D01*
X130173685Y-102230594D01*
X130171605Y-102233760D01*
X130163814Y-102246726D01*
X130161988Y-102250061D01*
X130156602Y-102257247D01*
X130153452Y-102265649D01*
X130153450Y-102265653D01*
X130140274Y-102300801D01*
X130136348Y-102310118D01*
X130116588Y-102352206D01*
X130115207Y-102361075D01*
X130114101Y-102364693D01*
X130110253Y-102379359D01*
X130109442Y-102383049D01*
X130106292Y-102391451D01*
X130105627Y-102400397D01*
X130105627Y-102400398D01*
X130102846Y-102437828D01*
X130101692Y-102447877D01*
X130099500Y-102461955D01*
X130099500Y-102478173D01*
X130099154Y-102487510D01*
X130095671Y-102534382D01*
X106750500Y-102534382D01*
X106750500Y-100526435D01*
X106756296Y-100489844D01*
X106759719Y-100483126D01*
X106780804Y-100350000D01*
X106759719Y-100216874D01*
X106698528Y-100096780D01*
X106603220Y-100001472D01*
X106483126Y-99940281D01*
X106473337Y-99938731D01*
X106473335Y-99938730D01*
X106359793Y-99920747D01*
X106350000Y-99919196D01*
X106340207Y-99920747D01*
X106226665Y-99938730D01*
X106226663Y-99938731D01*
X106216874Y-99940281D01*
X106096780Y-100001472D01*
X106001472Y-100096780D01*
X105940281Y-100216874D01*
X105919196Y-100350000D01*
X105940281Y-100483126D01*
X105943704Y-100489844D01*
X105949500Y-100526435D01*
X105949500Y-106131568D01*
X105964347Y-106225306D01*
X105968848Y-106234140D01*
X105968849Y-106234143D01*
X105984073Y-106264021D01*
X105989225Y-106276457D01*
X105990281Y-106283126D01*
X106051472Y-106403220D01*
X106082657Y-106434405D01*
X106116683Y-106496717D01*
X106111618Y-106567532D01*
X106069071Y-106624368D01*
X106002551Y-106649179D01*
X105993562Y-106649500D01*
X104526435Y-106649500D01*
X104489844Y-106643704D01*
X104483126Y-106640281D01*
X104473335Y-106638730D01*
X104473334Y-106638730D01*
X104359793Y-106620747D01*
X104350000Y-106619196D01*
X104340207Y-106620747D01*
X104226665Y-106638730D01*
X104226663Y-106638731D01*
X104216874Y-106640281D01*
X104096780Y-106701472D01*
X104001472Y-106796780D01*
X103940281Y-106916874D01*
X103919196Y-107050000D01*
X89030804Y-107050000D01*
X89009719Y-106916874D01*
X88948528Y-106796780D01*
X88937405Y-106785657D01*
X88903379Y-106723345D01*
X88900500Y-106696562D01*
X88900500Y-79873216D01*
X88920024Y-79806724D01*
X88923528Y-79803220D01*
X88984719Y-79683126D01*
X88986926Y-79669196D01*
X89004253Y-79559793D01*
X89005804Y-79550000D01*
X88999424Y-79509719D01*
X88986270Y-79426665D01*
X88986269Y-79426663D01*
X88984719Y-79416874D01*
X88923528Y-79296780D01*
X88828220Y-79201472D01*
X88708126Y-79140281D01*
X88698337Y-79138731D01*
X88698335Y-79138730D01*
X88584793Y-79120747D01*
X88575000Y-79119196D01*
X88565207Y-79120747D01*
X88451665Y-79138730D01*
X88451663Y-79138731D01*
X88441874Y-79140281D01*
X88321780Y-79201472D01*
X88226472Y-79296780D01*
X88165281Y-79416874D01*
X88163731Y-79426663D01*
X88163730Y-79426665D01*
X88150576Y-79509719D01*
X88144196Y-79550000D01*
X43150000Y-79550000D01*
X43150000Y-74850000D01*
X39876000Y-74850000D01*
X39807879Y-74829998D01*
X39761386Y-74776342D01*
X39750000Y-74724000D01*
X39750000Y-72983846D01*
X40933631Y-72983846D01*
X40942926Y-72995860D01*
X41068103Y-73083510D01*
X41077599Y-73088993D01*
X41265860Y-73176780D01*
X41276152Y-73180526D01*
X41476796Y-73234288D01*
X41487591Y-73236191D01*
X41694525Y-73254296D01*
X41705475Y-73254296D01*
X41912409Y-73236191D01*
X41923204Y-73234288D01*
X42123848Y-73180526D01*
X42134140Y-73176780D01*
X42322401Y-73088993D01*
X42331897Y-73083510D01*
X42457911Y-72995274D01*
X42466286Y-72984797D01*
X42459217Y-72971349D01*
X41712812Y-72224944D01*
X41698868Y-72217330D01*
X41697035Y-72217461D01*
X41690420Y-72221712D01*
X40940061Y-72972071D01*
X40933631Y-72983846D01*
X39750000Y-72983846D01*
X39750000Y-71994525D01*
X40445704Y-71994525D01*
X40445704Y-72005475D01*
X40463809Y-72212409D01*
X40465712Y-72223204D01*
X40519474Y-72423848D01*
X40523220Y-72434140D01*
X40611007Y-72622400D01*
X40616490Y-72631895D01*
X40704727Y-72757910D01*
X40715204Y-72766285D01*
X40728651Y-72759217D01*
X41475056Y-72012812D01*
X41481434Y-72001132D01*
X41917330Y-72001132D01*
X41917461Y-72002965D01*
X41921712Y-72009580D01*
X42672070Y-72759938D01*
X42683845Y-72766368D01*
X42695860Y-72757072D01*
X42783510Y-72631895D01*
X42788993Y-72622400D01*
X42869384Y-72450000D01*
X103250000Y-72450000D01*
X103250000Y-98650000D01*
X132550000Y-98650000D01*
X132550000Y-96382012D01*
X136886597Y-96382012D01*
X136889040Y-96396431D01*
X136901781Y-96400000D01*
X139198136Y-96400000D01*
X139212681Y-96395729D01*
X139214744Y-96383595D01*
X139210803Y-96340714D01*
X139208704Y-96329391D01*
X139153226Y-96132679D01*
X139149102Y-96121932D01*
X139058698Y-95938613D01*
X139052688Y-95928806D01*
X138930389Y-95765027D01*
X138922699Y-95756487D01*
X138772599Y-95617735D01*
X138763474Y-95610734D01*
X138590607Y-95501663D01*
X138580357Y-95496441D01*
X138570814Y-95492633D01*
X138514955Y-95448811D01*
X138491656Y-95381747D01*
X138508313Y-95312732D01*
X138543445Y-95273668D01*
X138633706Y-95208090D01*
X138633708Y-95208088D01*
X138639050Y-95204207D01*
X138762195Y-95067440D01*
X138854214Y-94908059D01*
X138911085Y-94733029D01*
X138930322Y-94550000D01*
X138911085Y-94366971D01*
X138854214Y-94191941D01*
X138762195Y-94032560D01*
X138639050Y-93895793D01*
X138633708Y-93891912D01*
X138633706Y-93891910D01*
X138495503Y-93791500D01*
X138495502Y-93791499D01*
X138490161Y-93787619D01*
X138484133Y-93784935D01*
X138484131Y-93784934D01*
X138328065Y-93715449D01*
X138328064Y-93715449D01*
X138322034Y-93712764D01*
X138232026Y-93693632D01*
X138148476Y-93675872D01*
X138148471Y-93675872D01*
X138142019Y-93674500D01*
X138141155Y-93674500D01*
X138077467Y-93648298D01*
X138049622Y-93608398D01*
X138029786Y-93642013D01*
X137966375Y-93673944D01*
X137962509Y-93674500D01*
X137957981Y-93674500D01*
X137951529Y-93675872D01*
X137951524Y-93675872D01*
X137867974Y-93693632D01*
X137777966Y-93712764D01*
X137771936Y-93715449D01*
X137771935Y-93715449D01*
X137615869Y-93784934D01*
X137615867Y-93784935D01*
X137609839Y-93787619D01*
X137604498Y-93791499D01*
X137604497Y-93791500D01*
X137466294Y-93891910D01*
X137466292Y-93891912D01*
X137460950Y-93895793D01*
X137337805Y-94032560D01*
X137245786Y-94191941D01*
X137188915Y-94366971D01*
X137169678Y-94550000D01*
X137188915Y-94733029D01*
X137245786Y-94908059D01*
X137337805Y-95067440D01*
X137460950Y-95204207D01*
X137466292Y-95208088D01*
X137466294Y-95208090D01*
X137555455Y-95272869D01*
X137598809Y-95329091D01*
X137604884Y-95399827D01*
X137571753Y-95462619D01*
X137541590Y-95484260D01*
X137541982Y-95484919D01*
X137361361Y-95592377D01*
X137352049Y-95599141D01*
X137198375Y-95733911D01*
X137190458Y-95742254D01*
X137063914Y-95902773D01*
X137057652Y-95912416D01*
X136962480Y-96093311D01*
X136958079Y-96103935D01*
X136897466Y-96299140D01*
X136895074Y-96310394D01*
X136886597Y-96382012D01*
X132550000Y-96382012D01*
X132550000Y-92550000D01*
X137169678Y-92550000D01*
X137188915Y-92733029D01*
X137245786Y-92908059D01*
X137337805Y-93067440D01*
X137460950Y-93204207D01*
X137466292Y-93208088D01*
X137466294Y-93208090D01*
X137604497Y-93308500D01*
X137609839Y-93312381D01*
X137615867Y-93315065D01*
X137615869Y-93315066D01*
X137771935Y-93384551D01*
X137777966Y-93387236D01*
X137867973Y-93406368D01*
X137951524Y-93424128D01*
X137951529Y-93424128D01*
X137957981Y-93425500D01*
X137958845Y-93425500D01*
X138022533Y-93451702D01*
X138050378Y-93491602D01*
X138070214Y-93457987D01*
X138133625Y-93426056D01*
X138137491Y-93425500D01*
X138142019Y-93425500D01*
X138148471Y-93424128D01*
X138148476Y-93424128D01*
X138232027Y-93406368D01*
X138322034Y-93387236D01*
X138328065Y-93384551D01*
X138484131Y-93315066D01*
X138484133Y-93315065D01*
X138490161Y-93312381D01*
X138495503Y-93308500D01*
X138633706Y-93208090D01*
X138633708Y-93208088D01*
X138639050Y-93204207D01*
X138762195Y-93067440D01*
X138854214Y-92908059D01*
X138911085Y-92733029D01*
X138930322Y-92550000D01*
X138911085Y-92366971D01*
X138854214Y-92191941D01*
X138762195Y-92032560D01*
X138639050Y-91895793D01*
X138633708Y-91891912D01*
X138633706Y-91891910D01*
X138495503Y-91791500D01*
X138495502Y-91791499D01*
X138490161Y-91787619D01*
X138484133Y-91784935D01*
X138484131Y-91784934D01*
X138328065Y-91715449D01*
X138328064Y-91715449D01*
X138322034Y-91712764D01*
X138232026Y-91693632D01*
X138148476Y-91675872D01*
X138148471Y-91675872D01*
X138142019Y-91674500D01*
X138141155Y-91674500D01*
X138077467Y-91648298D01*
X138049622Y-91608398D01*
X138029786Y-91642013D01*
X137966375Y-91673944D01*
X137962509Y-91674500D01*
X137957981Y-91674500D01*
X137951529Y-91675872D01*
X137951524Y-91675872D01*
X137867974Y-91693632D01*
X137777966Y-91712764D01*
X137771936Y-91715449D01*
X137771935Y-91715449D01*
X137615869Y-91784934D01*
X137615867Y-91784935D01*
X137609839Y-91787619D01*
X137604498Y-91791499D01*
X137604497Y-91791500D01*
X137466294Y-91891910D01*
X137466292Y-91891912D01*
X137460950Y-91895793D01*
X137337805Y-92032560D01*
X137245786Y-92191941D01*
X137188915Y-92366971D01*
X137169678Y-92550000D01*
X132550000Y-92550000D01*
X132550000Y-90550000D01*
X137169678Y-90550000D01*
X137188915Y-90733029D01*
X137245786Y-90908059D01*
X137337805Y-91067440D01*
X137460950Y-91204207D01*
X137466292Y-91208088D01*
X137466294Y-91208090D01*
X137604497Y-91308500D01*
X137609839Y-91312381D01*
X137615867Y-91315065D01*
X137615869Y-91315066D01*
X137771935Y-91384551D01*
X137777966Y-91387236D01*
X137867973Y-91406368D01*
X137951524Y-91424128D01*
X137951529Y-91424128D01*
X137957981Y-91425500D01*
X137958845Y-91425500D01*
X138022533Y-91451702D01*
X138050378Y-91491602D01*
X138070214Y-91457987D01*
X138133625Y-91426056D01*
X138137491Y-91425500D01*
X138142019Y-91425500D01*
X138148471Y-91424128D01*
X138148476Y-91424128D01*
X138232027Y-91406368D01*
X138322034Y-91387236D01*
X138328065Y-91384551D01*
X138484131Y-91315066D01*
X138484133Y-91315065D01*
X138490161Y-91312381D01*
X138495503Y-91308500D01*
X138633706Y-91208090D01*
X138633708Y-91208088D01*
X138639050Y-91204207D01*
X138762195Y-91067440D01*
X138854214Y-90908059D01*
X138911085Y-90733029D01*
X138930322Y-90550000D01*
X138922131Y-90472071D01*
X138911775Y-90373535D01*
X138911775Y-90373534D01*
X138911085Y-90366971D01*
X138854214Y-90191941D01*
X138762195Y-90032560D01*
X138639050Y-89895793D01*
X138633708Y-89891912D01*
X138633706Y-89891910D01*
X138495503Y-89791500D01*
X138495502Y-89791499D01*
X138490161Y-89787619D01*
X138484133Y-89784935D01*
X138484131Y-89784934D01*
X138328065Y-89715449D01*
X138328064Y-89715449D01*
X138322034Y-89712764D01*
X138232026Y-89693632D01*
X138148476Y-89675872D01*
X138148471Y-89675872D01*
X138142019Y-89674500D01*
X137957981Y-89674500D01*
X137951529Y-89675872D01*
X137951524Y-89675872D01*
X137867974Y-89693632D01*
X137777966Y-89712764D01*
X137771936Y-89715449D01*
X137771935Y-89715449D01*
X137615869Y-89784934D01*
X137615867Y-89784935D01*
X137609839Y-89787619D01*
X137604498Y-89791499D01*
X137604497Y-89791500D01*
X137466294Y-89891910D01*
X137466292Y-89891912D01*
X137460950Y-89895793D01*
X137337805Y-90032560D01*
X137245786Y-90191941D01*
X137188915Y-90366971D01*
X137188225Y-90373534D01*
X137188225Y-90373535D01*
X137177869Y-90472071D01*
X137169678Y-90550000D01*
X132550000Y-90550000D01*
X132550000Y-72450000D01*
X103250000Y-72450000D01*
X42869384Y-72450000D01*
X42876780Y-72434140D01*
X42880526Y-72423848D01*
X42934288Y-72223204D01*
X42936191Y-72212409D01*
X42954296Y-72005475D01*
X42954296Y-71994525D01*
X42936191Y-71787591D01*
X42934288Y-71776796D01*
X42880526Y-71576152D01*
X42876780Y-71565860D01*
X42788993Y-71377600D01*
X42783510Y-71368105D01*
X42695273Y-71242090D01*
X42684796Y-71233715D01*
X42671349Y-71240783D01*
X41924944Y-71987188D01*
X41917330Y-72001132D01*
X41481434Y-72001132D01*
X41482670Y-71998868D01*
X41482539Y-71997035D01*
X41478288Y-71990420D01*
X40727930Y-71240062D01*
X40716155Y-71233632D01*
X40704140Y-71242928D01*
X40616490Y-71368105D01*
X40611007Y-71377600D01*
X40523220Y-71565860D01*
X40519474Y-71576152D01*
X40465712Y-71776796D01*
X40463809Y-71787591D01*
X40445704Y-71994525D01*
X39750000Y-71994525D01*
X39750000Y-71015204D01*
X40933715Y-71015204D01*
X40940783Y-71028651D01*
X41687188Y-71775056D01*
X41701132Y-71782670D01*
X41702965Y-71782539D01*
X41709580Y-71778288D01*
X42459939Y-71027929D01*
X42466369Y-71016154D01*
X42457074Y-71004140D01*
X42331897Y-70916490D01*
X42322401Y-70911007D01*
X42134140Y-70823220D01*
X42123848Y-70819474D01*
X41923204Y-70765712D01*
X41912409Y-70763809D01*
X41705475Y-70745704D01*
X41694525Y-70745704D01*
X41487591Y-70763809D01*
X41476796Y-70765712D01*
X41276152Y-70819474D01*
X41265860Y-70823220D01*
X41077600Y-70911007D01*
X41068105Y-70916490D01*
X40942090Y-71004727D01*
X40933715Y-71015204D01*
X39750000Y-71015204D01*
X39750000Y-67574169D01*
X39752705Y-67550000D01*
X39755000Y-67550000D01*
X39756759Y-67449074D01*
X39757008Y-67443084D01*
X39763271Y-67347524D01*
X39764079Y-67339320D01*
X39794258Y-67110092D01*
X39795601Y-67101959D01*
X39810971Y-67024685D01*
X39812839Y-67016670D01*
X39872690Y-66793304D01*
X39875083Y-66785416D01*
X39900414Y-66710795D01*
X39903302Y-66703122D01*
X39991795Y-66489480D01*
X39995192Y-66481982D01*
X40030046Y-66411306D01*
X40033933Y-66404035D01*
X40149534Y-66203810D01*
X40153887Y-66196809D01*
X40197661Y-66131295D01*
X40202465Y-66124592D01*
X40343218Y-65941160D01*
X40348448Y-65934787D01*
X40400412Y-65875533D01*
X40406049Y-65869515D01*
X40569515Y-65706049D01*
X40575533Y-65700412D01*
X40634787Y-65648448D01*
X40641160Y-65643218D01*
X40824592Y-65502465D01*
X40831286Y-65497667D01*
X40854536Y-65482132D01*
X40896809Y-65453887D01*
X40903810Y-65449534D01*
X41104035Y-65333933D01*
X41111306Y-65330046D01*
X41118582Y-65326458D01*
X41181994Y-65295187D01*
X41189480Y-65291795D01*
X41403122Y-65203302D01*
X41410795Y-65200414D01*
X41485421Y-65175081D01*
X41493304Y-65172690D01*
X41547414Y-65158191D01*
X41716670Y-65112839D01*
X41724685Y-65110971D01*
X41801959Y-65095601D01*
X41810092Y-65094258D01*
X42039320Y-65064079D01*
X42047525Y-65063271D01*
X42143084Y-65057008D01*
X42149074Y-65056759D01*
X42203811Y-65055805D01*
X42233496Y-65055288D01*
X42233499Y-65055288D01*
X42250000Y-65055000D01*
X42250000Y-65052768D01*
X42268126Y-65050000D01*
X88212130Y-65050000D01*
X88280251Y-65070002D01*
G37*
%TD.AperFunction*%
%TA.AperFunction,Conductor*%
G36*
X111284766Y-112970502D02*
G01*
X111305740Y-112987405D01*
X112652740Y-114334405D01*
X112686766Y-114396717D01*
X112681701Y-114467532D01*
X112639154Y-114524368D01*
X112572634Y-114549179D01*
X112563645Y-114549500D01*
X108256438Y-114549500D01*
X108188317Y-114529498D01*
X108141824Y-114475842D01*
X108131720Y-114405568D01*
X108161214Y-114340988D01*
X108167343Y-114334405D01*
X108198528Y-114303220D01*
X108259719Y-114183126D01*
X108262433Y-114165994D01*
X108279253Y-114059793D01*
X108280804Y-114050000D01*
X108268825Y-113974368D01*
X108261270Y-113926665D01*
X108261269Y-113926663D01*
X108259719Y-113916874D01*
X108198528Y-113796780D01*
X108103220Y-113701472D01*
X107983126Y-113640281D01*
X107973337Y-113638731D01*
X107973335Y-113638730D01*
X107859793Y-113620747D01*
X107850000Y-113619196D01*
X107840207Y-113620747D01*
X107726665Y-113638730D01*
X107726663Y-113638731D01*
X107716874Y-113640281D01*
X107596780Y-113701472D01*
X107585657Y-113712595D01*
X107523345Y-113746621D01*
X107496562Y-113749500D01*
X106905085Y-113749500D01*
X106836964Y-113729498D01*
X106790471Y-113675842D01*
X106780367Y-113605568D01*
X106792818Y-113566298D01*
X106805217Y-113541963D01*
X106805218Y-113541959D01*
X106809719Y-113533126D01*
X106813427Y-113509719D01*
X106829253Y-113409793D01*
X106830804Y-113400000D01*
X106823395Y-113353220D01*
X106811270Y-113276665D01*
X106811269Y-113276663D01*
X106809719Y-113266874D01*
X106748528Y-113146780D01*
X106747721Y-113145973D01*
X106725499Y-113083693D01*
X106741580Y-113014542D01*
X106792494Y-112965061D01*
X106851294Y-112950500D01*
X111216645Y-112950500D01*
X111284766Y-112970502D01*
G37*
%TD.AperFunction*%
%TA.AperFunction,Conductor*%
G36*
X120741621Y-109895502D02*
G01*
X120788114Y-109949158D01*
X120799500Y-110001500D01*
X120799500Y-112596444D01*
X120779498Y-112664565D01*
X120730711Y-112708707D01*
X120724157Y-112712046D01*
X120654383Y-112725155D01*
X120588596Y-112698459D01*
X120554681Y-112656986D01*
X120520655Y-112590207D01*
X120498528Y-112546780D01*
X120403220Y-112451472D01*
X120348917Y-112423803D01*
X120317025Y-112400632D01*
X120253081Y-112336689D01*
X120253063Y-112336668D01*
X120253055Y-112336652D01*
X120163346Y-112246943D01*
X120143748Y-112236957D01*
X120126895Y-112226631D01*
X120109092Y-112213696D01*
X120088167Y-112206897D01*
X120069906Y-112199333D01*
X120059139Y-112193847D01*
X120059138Y-112193847D01*
X120050305Y-112189346D01*
X120028570Y-112185903D01*
X120009356Y-112181290D01*
X119997864Y-112177556D01*
X119997863Y-112177556D01*
X119988433Y-112174492D01*
X119861565Y-112174492D01*
X119861550Y-112174497D01*
X119861520Y-112174499D01*
X115817348Y-112174499D01*
X115749227Y-112154497D01*
X115728253Y-112137594D01*
X113681253Y-110090595D01*
X113647228Y-110028283D01*
X113652292Y-109957468D01*
X113694839Y-109900632D01*
X113761359Y-109875821D01*
X113770348Y-109875500D01*
X120673500Y-109875500D01*
X120741621Y-109895502D01*
G37*
%TD.AperFunction*%
%TD*%
%TA.AperFunction,Conductor*%
%TO.N,LX*%
G36*
X78942121Y-113070002D02*
G01*
X78988614Y-113123658D01*
X79000000Y-113176000D01*
X79000000Y-116624000D01*
X78979998Y-116692121D01*
X78926342Y-116738614D01*
X78874000Y-116750000D01*
X77650000Y-116750000D01*
X77643060Y-116757357D01*
X77643059Y-116757357D01*
X75187298Y-119360464D01*
X75126002Y-119396289D01*
X75095646Y-119400000D01*
X73376000Y-119400000D01*
X73307879Y-119379998D01*
X73261386Y-119326342D01*
X73250000Y-119274000D01*
X73250000Y-117253936D01*
X73270002Y-117185815D01*
X73289025Y-117162769D01*
X73713975Y-116757357D01*
X77563489Y-113084833D01*
X77626583Y-113052284D01*
X77650463Y-113050000D01*
X78874000Y-113050000D01*
X78942121Y-113070002D01*
G37*
%TD.AperFunction*%
%TD*%
M02*
