%TF.GenerationSoftware,KiCad,Pcbnew,(5.99.0-11174-ge2a2c3282a)*%
%TF.CreationDate,2021-07-05T21:59:08+02:00*%
%TF.ProjectId,flatlight_rev20_ESIDE,666c6174-6c69-4676-9874-5f7265763230,rev?*%
%TF.SameCoordinates,Original*%
%TF.FileFunction,Copper,L3,Inr*%
%TF.FilePolarity,Positive*%
%FSLAX46Y46*%
G04 Gerber Fmt 4.6, Leading zero omitted, Abs format (unit mm)*
G04 Created by KiCad (PCBNEW (5.99.0-11174-ge2a2c3282a)) date 2021-07-05 21:59:08*
%MOMM*%
%LPD*%
G01*
G04 APERTURE LIST*
%TA.AperFunction,ComponentPad*%
%ADD10C,4.400000*%
%TD*%
%TA.AperFunction,ComponentPad*%
%ADD11C,0.700000*%
%TD*%
%TA.AperFunction,ComponentPad*%
%ADD12C,0.500000*%
%TD*%
%TA.AperFunction,ComponentPad*%
%ADD13C,1.500000*%
%TD*%
%TA.AperFunction,ComponentPad*%
%ADD14R,1.350000X1.350000*%
%TD*%
%TA.AperFunction,ComponentPad*%
%ADD15O,1.350000X1.350000*%
%TD*%
%TA.AperFunction,ComponentPad*%
%ADD16O,2.300000X1.300000*%
%TD*%
%TA.AperFunction,ComponentPad*%
%ADD17O,2.600000X1.300000*%
%TD*%
%TA.AperFunction,ComponentPad*%
%ADD18R,0.500000X0.900000*%
%TD*%
%TA.AperFunction,ViaPad*%
%ADD19C,0.450000*%
%TD*%
%TA.AperFunction,ViaPad*%
%ADD20C,1.000000*%
%TD*%
%TA.AperFunction,Conductor*%
%ADD21C,1.000000*%
%TD*%
G04 APERTURE END LIST*
D10*
%TO.N,GND*%
%TO.C,H5*%
X42250000Y-127550000D03*
D11*
X42250000Y-129200000D03*
X40600000Y-127550000D03*
X43900000Y-127550000D03*
X41083274Y-126383274D03*
X43416726Y-128716726D03*
X43416726Y-126383274D03*
X42250000Y-125900000D03*
X41083274Y-128716726D03*
%TD*%
%TO.N,+BATT*%
%TO.C,H6*%
X90916726Y-68716726D03*
D10*
X89750000Y-67550000D03*
D11*
X89750000Y-65900000D03*
X88583274Y-66383274D03*
X88100000Y-67550000D03*
X89750000Y-69200000D03*
X88583274Y-68716726D03*
X91400000Y-67550000D03*
X90916726Y-66383274D03*
%TD*%
%TO.N,GND*%
%TO.C,H4*%
X40550000Y-67500000D03*
D10*
X42200000Y-67500000D03*
D11*
X42200000Y-65850000D03*
X41033274Y-66333274D03*
X41033274Y-68666726D03*
X42200000Y-69150000D03*
X43850000Y-67500000D03*
X43366726Y-66333274D03*
X43366726Y-68666726D03*
%TD*%
%TO.N,GND*%
%TO.C,H3*%
X138416726Y-66383274D03*
X136083274Y-66383274D03*
D10*
X137250000Y-67550000D03*
D11*
X137250000Y-69200000D03*
X138900000Y-67550000D03*
X137250000Y-65900000D03*
X135600000Y-67550000D03*
X136083274Y-68716726D03*
X138416726Y-68716726D03*
%TD*%
%TO.N,GND*%
%TO.C,H2*%
X136083274Y-128716726D03*
X136083274Y-126383274D03*
X137250000Y-129200000D03*
D10*
X137250000Y-127550000D03*
D11*
X138900000Y-127550000D03*
X138416726Y-128716726D03*
X135600000Y-127550000D03*
X137250000Y-125900000D03*
X138416726Y-126383274D03*
%TD*%
%TO.N,+BATT*%
%TO.C,H1*%
X90916726Y-128716726D03*
X91400000Y-127550000D03*
X90916726Y-126383274D03*
X89750000Y-129200000D03*
X89750000Y-125900000D03*
D10*
X89750000Y-127550000D03*
D11*
X88100000Y-127550000D03*
X88583274Y-126383274D03*
X88583274Y-128716726D03*
%TD*%
D12*
%TO.N,GND*%
%TO.C,U6*%
X121850000Y-118500000D03*
X121850000Y-120850000D03*
X120650000Y-117350000D03*
X120650000Y-118500000D03*
X124150000Y-119700000D03*
X124150000Y-120850000D03*
X124150000Y-117350000D03*
X122925000Y-119700000D03*
X122925000Y-117350000D03*
X124150000Y-118500000D03*
X120650000Y-120850000D03*
X122925000Y-118500000D03*
X121850000Y-117350000D03*
X122925000Y-120850000D03*
X121850000Y-119700000D03*
X120650000Y-119700000D03*
%TD*%
D13*
%TO.N,GND*%
%TO.C,H17*%
X41700000Y-72000000D03*
%TD*%
%TO.N,GND*%
%TO.C,H18*%
X41700000Y-89500000D03*
%TD*%
D14*
%TO.N,GND*%
%TO.C,J1*%
X138050000Y-104550000D03*
D15*
%TO.N,ES_LED_PWM*%
X138050000Y-102550000D03*
%TO.N,+3V3*%
X138050000Y-100550000D03*
%TO.N,ES_LED_NTC*%
X138050000Y-98550000D03*
%TO.N,GND*%
X138050000Y-96550000D03*
%TO.N,ES_WS_SDAT*%
X138050000Y-94550000D03*
%TO.N,ES_WS_LDAT*%
X138050000Y-92550000D03*
%TO.N,ES_WS_POWER*%
X138050000Y-90550000D03*
%TD*%
D16*
%TO.N,GNDPWR*%
%TO.C,J2*%
X46510000Y-121120000D03*
D17*
X42685000Y-112480000D03*
D16*
X46510000Y-112480000D03*
D17*
X42685000Y-121120000D03*
%TD*%
D18*
%TO.N,GND*%
%TO.C,AE1*%
X134150000Y-123400000D03*
%TD*%
D19*
%TO.N,GND*%
X97950000Y-107050000D03*
X111750000Y-129550000D03*
X123950000Y-128350000D03*
X87750000Y-117850000D03*
X84250000Y-129550000D03*
X40450000Y-88250000D03*
X110150000Y-119450000D03*
X114250000Y-129550000D03*
X131850000Y-125550000D03*
X53050000Y-108250000D03*
X91300000Y-115250000D03*
X50200000Y-65850000D03*
X124250000Y-129550000D03*
X99350000Y-107050000D03*
X94450000Y-113450000D03*
X55200000Y-65850000D03*
X122400000Y-124950000D03*
X130250000Y-125550000D03*
X119450000Y-128350000D03*
X138150000Y-124750000D03*
X52700000Y-65850000D03*
X85100000Y-114050000D03*
X116100000Y-65850000D03*
X79650000Y-112550000D03*
X44350000Y-129550000D03*
X133150000Y-124450000D03*
X95600000Y-129550000D03*
X85100000Y-112550000D03*
X134050000Y-113450000D03*
X133150000Y-123550000D03*
X138950000Y-75550000D03*
X121100000Y-65850000D03*
X87750000Y-120550000D03*
X74750000Y-114450000D03*
X82700000Y-65850000D03*
X129250000Y-129550000D03*
X126250000Y-126850000D03*
X109650000Y-111950000D03*
X117750000Y-111650000D03*
X40450000Y-108250000D03*
X59350000Y-129550000D03*
X121250000Y-124950000D03*
X46850000Y-129550000D03*
X126100000Y-65850000D03*
X81550000Y-111350000D03*
X40450000Y-93250000D03*
X129150000Y-122050000D03*
X40450000Y-100750000D03*
X101750000Y-111950000D03*
X76850000Y-129550000D03*
X125450000Y-124950000D03*
X92150000Y-118450000D03*
X78425000Y-122475000D03*
X115900000Y-127550000D03*
X65900000Y-114475000D03*
X47700000Y-65850000D03*
X40450000Y-70750000D03*
X91825000Y-87350000D03*
X79650000Y-111350000D03*
X136750000Y-124750000D03*
X135350000Y-124750000D03*
X101750000Y-107050000D03*
X121850000Y-128350000D03*
X129150000Y-122750000D03*
X106750000Y-129550000D03*
X123600000Y-65850000D03*
X139350000Y-108950000D03*
X93100000Y-129550000D03*
X93600000Y-65850000D03*
X133150000Y-122750000D03*
X86250000Y-117850000D03*
X40450000Y-110750000D03*
X128600000Y-65850000D03*
X119250000Y-126650000D03*
X105350000Y-111950000D03*
X52100000Y-115950000D03*
X66350000Y-115125000D03*
X134050000Y-111750000D03*
X86350000Y-107050000D03*
X133150000Y-122050000D03*
X70100000Y-119550000D03*
X119250000Y-125500000D03*
X40450000Y-73250000D03*
X138950000Y-83050000D03*
X87550000Y-107050000D03*
X94450000Y-111750000D03*
X121750000Y-129550000D03*
X139350000Y-124750000D03*
X127750000Y-122050000D03*
X50550000Y-118750000D03*
X80200000Y-65850000D03*
X87050000Y-114050000D03*
X74750000Y-113400000D03*
X40550000Y-122650000D03*
X108600000Y-65850000D03*
X138950000Y-88050000D03*
X83450000Y-111350000D03*
X85100000Y-117850000D03*
X134050000Y-114950000D03*
X56400000Y-117150000D03*
X77750000Y-117850000D03*
X81550000Y-112550000D03*
X112050000Y-111950000D03*
X93450000Y-113450000D03*
X51850000Y-129550000D03*
X56850000Y-129550000D03*
X134050000Y-117850000D03*
X138950000Y-80550000D03*
X68950000Y-111350000D03*
X40450000Y-95750000D03*
X134250000Y-129550000D03*
X102950000Y-107050000D03*
X40450000Y-103250000D03*
X83050000Y-122350000D03*
X71850000Y-129550000D03*
X134050000Y-116350000D03*
X49350000Y-129550000D03*
X138950000Y-85550000D03*
X116500000Y-125000000D03*
X100650000Y-107050000D03*
X129150000Y-124350000D03*
X134050000Y-124750000D03*
X40550000Y-125150000D03*
X134050000Y-109150000D03*
X75250000Y-111350000D03*
X81500000Y-122375000D03*
X124550000Y-124950000D03*
X70050000Y-124250000D03*
X66850000Y-129550000D03*
X113050000Y-119450000D03*
X93450000Y-111750000D03*
X118150000Y-127550000D03*
X60200000Y-65850000D03*
X40450000Y-90750000D03*
X93450000Y-115250000D03*
X117000000Y-127550000D03*
X92150000Y-119550000D03*
X116750000Y-129550000D03*
X111100000Y-65850000D03*
X64675000Y-115100000D03*
X98100000Y-129550000D03*
X86750000Y-129550000D03*
X91300000Y-114550000D03*
X85100000Y-120550000D03*
X85100000Y-121450000D03*
X128450000Y-122050000D03*
X138950000Y-73050000D03*
X69350000Y-129550000D03*
X114650000Y-119450000D03*
X65200000Y-65850000D03*
X80750000Y-117850000D03*
X112050000Y-116250000D03*
X110150000Y-116400000D03*
X40450000Y-105750000D03*
X96750000Y-107050000D03*
X106100000Y-65850000D03*
X64350000Y-129550000D03*
X138950000Y-78050000D03*
X126750000Y-129550000D03*
X133600000Y-65850000D03*
X70200000Y-65850000D03*
X75200000Y-65850000D03*
X119250000Y-129550000D03*
X86250000Y-120550000D03*
X46350000Y-108250000D03*
X80100000Y-122400000D03*
X85100000Y-122350000D03*
X129150000Y-123550000D03*
X131100000Y-65850000D03*
X138950000Y-106350000D03*
X74350000Y-129550000D03*
X110150000Y-118000000D03*
X131750000Y-129550000D03*
X62700000Y-65850000D03*
X85100000Y-111350000D03*
X61850000Y-129550000D03*
X135050000Y-108950000D03*
X134050000Y-119350000D03*
X126350000Y-127850000D03*
X79250000Y-117850000D03*
X72700000Y-65850000D03*
X138950000Y-108350000D03*
X77150000Y-122375000D03*
X83450000Y-112550000D03*
X92150000Y-117150000D03*
X120250000Y-124950000D03*
X98600000Y-65850000D03*
X82250000Y-117850000D03*
X66200000Y-119550000D03*
X85200000Y-65850000D03*
X113600000Y-65850000D03*
X56850000Y-117150000D03*
X90750000Y-119550000D03*
X127050000Y-122050000D03*
X49850000Y-108250000D03*
X79250000Y-129550000D03*
X134050000Y-120450000D03*
X103600000Y-65850000D03*
X77350000Y-112550000D03*
X81750000Y-129550000D03*
D20*
X63900000Y-108950000D03*
D19*
X112050000Y-114050000D03*
X125450000Y-128350000D03*
X87750000Y-109050000D03*
X77700000Y-65850000D03*
X70550000Y-111350000D03*
X65050000Y-114450000D03*
X57700000Y-65850000D03*
X96100000Y-65850000D03*
X101100000Y-65850000D03*
X65475000Y-115100000D03*
X54350000Y-129550000D03*
X137650000Y-108950000D03*
X77350000Y-111350000D03*
X138950000Y-70550000D03*
X45200000Y-65850000D03*
X134050000Y-110250000D03*
X40450000Y-98250000D03*
X107150000Y-100350000D03*
X42350000Y-108250000D03*
X67700000Y-65850000D03*
X118600000Y-65850000D03*
X113850000Y-119450000D03*
%TO.N,+BATT*%
X41750000Y-81100000D03*
X42250000Y-86100000D03*
X42250000Y-82100000D03*
D20*
X71900000Y-108950000D03*
D19*
X41750000Y-85100000D03*
X42250000Y-78100000D03*
X41750000Y-79100000D03*
X41750000Y-83100000D03*
X41750000Y-77100000D03*
X42250000Y-84100000D03*
X42250000Y-80100000D03*
X42250000Y-76100000D03*
%TO.N,EN*%
X128575000Y-127525000D03*
X109150000Y-128850000D03*
%TO.N,Net-(C1-Pad1)*%
X76150000Y-112550000D03*
X68550000Y-119550000D03*
%TO.N,LX*%
X78650000Y-114600000D03*
X78650000Y-114000000D03*
X73550000Y-118300000D03*
X78650000Y-113400000D03*
X78650000Y-116400000D03*
X73550000Y-119100000D03*
X78650000Y-115800000D03*
X73550000Y-117500000D03*
X78650000Y-115200000D03*
%TO.N,GNDPWR*%
X40750000Y-114550000D03*
X40750000Y-116750000D03*
X40750000Y-118950000D03*
X48850000Y-120550000D03*
X51800000Y-120550000D03*
X40750000Y-112450000D03*
X40750000Y-121150000D03*
X48850000Y-121550000D03*
%TO.N,CC1*%
X62100000Y-116250000D03*
X62100000Y-118900000D03*
D20*
%TO.N,SYS*%
X75900000Y-108950000D03*
D19*
%TO.N,TX*%
X102150000Y-127900000D03*
X121900000Y-124400000D03*
%TO.N,RX*%
X100150000Y-127900000D03*
X121400000Y-123825500D03*
%TO.N,ES_LED_NTC*%
X130600000Y-110400000D03*
%TO.N,STAT*%
X107850000Y-114050000D03*
X66950000Y-120800000D03*
%TO.N,INOK*%
X67750000Y-120200000D03*
X112450000Y-120300000D03*
%TO.N,DISP_BACKLIGHT*%
X126550000Y-113050000D03*
X104350000Y-107050000D03*
%TO.N,DISP_RESET*%
X106400000Y-106150000D03*
X106350000Y-100350000D03*
%TO.N,GPIO46*%
X124400000Y-124100000D03*
X113450000Y-125000000D03*
%TO.N,GPIO45*%
X114950000Y-125000000D03*
X122750000Y-124200000D03*
%TO.N,SCL*%
X89800000Y-108900000D03*
X121575500Y-113400000D03*
%TO.N,IMU_INT2*%
X122694534Y-113425253D03*
X93450000Y-112600000D03*
%TO.N,SDA*%
X120900000Y-113100000D03*
X88750000Y-109000000D03*
%TO.N,IMU_INT1*%
X122100000Y-112750000D03*
X86950000Y-108250000D03*
%TO.N,BNT_DIG3*%
X129550000Y-118344313D03*
X101050000Y-115200000D03*
%TO.N,BNT_DIG2*%
X129950000Y-117650000D03*
X102750000Y-115000000D03*
%TO.N,BNT_DIG1*%
X103450000Y-114700000D03*
X129950000Y-116950000D03*
%TO.N,GPIO0*%
X130370000Y-118325735D03*
X111950000Y-125050000D03*
%TO.N,ENBST*%
X71850000Y-125050000D03*
X111550000Y-121000000D03*
%TO.N,SPIQ*%
X116400000Y-118750000D03*
X111050000Y-117435502D03*
%TO.N,SPICS0*%
X117185967Y-117930598D03*
X111450000Y-116850000D03*
%TO.N,SPIWP*%
X111500000Y-118000000D03*
X116950000Y-117274500D03*
%TO.N,+3V3*%
X130600000Y-113000000D03*
X128550000Y-126450000D03*
X118150000Y-123550000D03*
X131450000Y-113700000D03*
D20*
X79900000Y-108950000D03*
D19*
X101950000Y-114800000D03*
X131450000Y-113000000D03*
X128550000Y-125900000D03*
X88800000Y-119200000D03*
X106400000Y-113400000D03*
X117600000Y-123550000D03*
X132300000Y-113000000D03*
X116500000Y-123550000D03*
X128543750Y-125400000D03*
X88800000Y-118700000D03*
X88800000Y-119650000D03*
X117050000Y-123550000D03*
%TO.N,ITOPOFF*%
X77300000Y-127250000D03*
X112450000Y-121500000D03*
%TO.N,Net-(R6-Pad2)*%
X88600000Y-107050000D03*
X88575000Y-79550000D03*
%TO.N,U_N*%
X52900000Y-117924980D03*
X120150000Y-112800000D03*
%TO.N,U_P*%
X119700000Y-113500000D03*
X52850000Y-116375020D03*
D20*
%TO.N,CHG_Supply*%
X67900000Y-108950000D03*
D19*
X48600000Y-114450000D03*
X49600000Y-118900000D03*
X49600000Y-114450000D03*
X49100000Y-118700000D03*
X49100000Y-114650000D03*
X48600000Y-118900000D03*
%TD*%
D21*
%TO.N,+3V3*%
X132300000Y-102600000D02*
X132300000Y-113400000D01*
X132300000Y-113400000D02*
X131550000Y-114150000D01*
X134350000Y-100550000D02*
X132300000Y-102600000D01*
X138050000Y-100550000D02*
X134350000Y-100550000D01*
%TD*%
%TA.AperFunction,Conductor*%
%TO.N,+BATT*%
G36*
X42650000Y-86650000D02*
G01*
X40076000Y-86650000D01*
X40007879Y-86629998D01*
X39961386Y-86576342D01*
X39950000Y-86524000D01*
X39950000Y-75476000D01*
X39970002Y-75407879D01*
X40023658Y-75361386D01*
X40076000Y-75350000D01*
X42650000Y-75350000D01*
X42650000Y-86650000D01*
G37*
%TD.AperFunction*%
%TD*%
%TA.AperFunction,Conductor*%
%TO.N,GNDPWR*%
G36*
X41268777Y-111770002D02*
G01*
X41315270Y-111823658D01*
X41325374Y-111893932D01*
X41302592Y-111950061D01*
X41291488Y-111965344D01*
X41287067Y-111977736D01*
X41296210Y-111980000D01*
X44071045Y-111980000D01*
X44083668Y-111976293D01*
X44080125Y-111967565D01*
X44067408Y-111950061D01*
X44043549Y-111883193D01*
X44059630Y-111814042D01*
X44110544Y-111764562D01*
X44169344Y-111750000D01*
X45175656Y-111750000D01*
X45243777Y-111770002D01*
X45290270Y-111823658D01*
X45300374Y-111893932D01*
X45277592Y-111950061D01*
X45266488Y-111965344D01*
X45262067Y-111977736D01*
X45271210Y-111980000D01*
X46884000Y-111980000D01*
X46952121Y-112000002D01*
X46998614Y-112053658D01*
X47010000Y-112106000D01*
X47010000Y-113365885D01*
X47014475Y-113381124D01*
X47015865Y-113382329D01*
X47023548Y-113384000D01*
X47054281Y-113384000D01*
X47060840Y-113383656D01*
X47192428Y-113369826D01*
X47205271Y-113367096D01*
X47373439Y-113312455D01*
X47385447Y-113307109D01*
X47538575Y-113218700D01*
X47549205Y-113210976D01*
X47680611Y-113092659D01*
X47689402Y-113082896D01*
X47772064Y-112969120D01*
X47828286Y-112925766D01*
X47899022Y-112919690D01*
X47961814Y-112952822D01*
X47996725Y-113014642D01*
X48000000Y-113043181D01*
X48000000Y-119650000D01*
X52924000Y-119650000D01*
X52992121Y-119670002D01*
X53038614Y-119723658D01*
X53050000Y-119776000D01*
X53050000Y-121724000D01*
X53029998Y-121792121D01*
X52976342Y-121838614D01*
X52924000Y-121850000D01*
X47844344Y-121850000D01*
X47776223Y-121829998D01*
X47729730Y-121776342D01*
X47719626Y-121706068D01*
X47742408Y-121649939D01*
X47753512Y-121634656D01*
X47757933Y-121622264D01*
X47748790Y-121620000D01*
X45273955Y-121620000D01*
X45261332Y-121623707D01*
X45264875Y-121632435D01*
X45277592Y-121649939D01*
X45301451Y-121716807D01*
X45285370Y-121785958D01*
X45234456Y-121835438D01*
X45175656Y-121850000D01*
X44169344Y-121850000D01*
X44101223Y-121829998D01*
X44054730Y-121776342D01*
X44044626Y-121706068D01*
X44067408Y-121649939D01*
X44078512Y-121634656D01*
X44082933Y-121622264D01*
X44073790Y-121620000D01*
X41298955Y-121620000D01*
X41286332Y-121623707D01*
X41289875Y-121632435D01*
X41302592Y-121649939D01*
X41326451Y-121716807D01*
X41310370Y-121785958D01*
X41259456Y-121835438D01*
X41200656Y-121850000D01*
X40076000Y-121850000D01*
X40007879Y-121829998D01*
X39961386Y-121776342D01*
X39950000Y-121724000D01*
X39950000Y-120617736D01*
X41287067Y-120617736D01*
X41296210Y-120620000D01*
X42166885Y-120620000D01*
X42182124Y-120615525D01*
X42183329Y-120614135D01*
X42185000Y-120606452D01*
X42185000Y-120234115D01*
X42183659Y-120229548D01*
X43185000Y-120229548D01*
X43185000Y-120601885D01*
X43189475Y-120617124D01*
X43190865Y-120618329D01*
X43198548Y-120620000D01*
X44071045Y-120620000D01*
X44078754Y-120617736D01*
X45262067Y-120617736D01*
X45271210Y-120620000D01*
X45991885Y-120620000D01*
X46007124Y-120615525D01*
X46008329Y-120614135D01*
X46010000Y-120606452D01*
X46010000Y-120444193D01*
X46030002Y-120376072D01*
X46068766Y-120337631D01*
X46105030Y-120314750D01*
X46112625Y-120309958D01*
X46183640Y-120229548D01*
X47010000Y-120229548D01*
X47010000Y-120601885D01*
X47014475Y-120617124D01*
X47015865Y-120618329D01*
X47023548Y-120620000D01*
X47746045Y-120620000D01*
X47758668Y-120616293D01*
X47755125Y-120607565D01*
X47689402Y-120517104D01*
X47680611Y-120507341D01*
X47549205Y-120389024D01*
X47538575Y-120381300D01*
X47385447Y-120292891D01*
X47373439Y-120287545D01*
X47205271Y-120232904D01*
X47192428Y-120230174D01*
X47060840Y-120216344D01*
X47054281Y-120216000D01*
X47028115Y-120216000D01*
X47012876Y-120220475D01*
X47011671Y-120221865D01*
X47010000Y-120229548D01*
X46183640Y-120229548D01*
X46207501Y-120202531D01*
X46268412Y-120072794D01*
X46285500Y-119963045D01*
X46285500Y-119640086D01*
X46270182Y-119533123D01*
X46210860Y-119402651D01*
X46117303Y-119294074D01*
X45997033Y-119216118D01*
X45988436Y-119213547D01*
X45988434Y-119213546D01*
X45878951Y-119180804D01*
X45859718Y-119175052D01*
X45850742Y-119174997D01*
X45850741Y-119174997D01*
X45789027Y-119174620D01*
X45716396Y-119174177D01*
X45707765Y-119176644D01*
X45707763Y-119176644D01*
X45587223Y-119211094D01*
X45587220Y-119211095D01*
X45578589Y-119213562D01*
X45457375Y-119290042D01*
X45362499Y-119397469D01*
X45301588Y-119527206D01*
X45284500Y-119636955D01*
X45284500Y-119959914D01*
X45299818Y-120066877D01*
X45359140Y-120197349D01*
X45365001Y-120204151D01*
X45420450Y-120268502D01*
X45449764Y-120333164D01*
X45439465Y-120403410D01*
X45409307Y-120444387D01*
X45339389Y-120507341D01*
X45330598Y-120517104D01*
X45266488Y-120605344D01*
X45262067Y-120617736D01*
X44078754Y-120617736D01*
X44083668Y-120616293D01*
X44080125Y-120607565D01*
X44014402Y-120517104D01*
X44005611Y-120507341D01*
X43874205Y-120389024D01*
X43863575Y-120381300D01*
X43710447Y-120292891D01*
X43698439Y-120287545D01*
X43530271Y-120232904D01*
X43517428Y-120230174D01*
X43385840Y-120216344D01*
X43379281Y-120216000D01*
X43203115Y-120216000D01*
X43187876Y-120220475D01*
X43186671Y-120221865D01*
X43185000Y-120229548D01*
X42183659Y-120229548D01*
X42180525Y-120218876D01*
X42179135Y-120217671D01*
X42171452Y-120216000D01*
X41990719Y-120216000D01*
X41984160Y-120216344D01*
X41852572Y-120230174D01*
X41839729Y-120232904D01*
X41671561Y-120287545D01*
X41659553Y-120292891D01*
X41506425Y-120381300D01*
X41495795Y-120389024D01*
X41364389Y-120507341D01*
X41355598Y-120517104D01*
X41291488Y-120605344D01*
X41287067Y-120617736D01*
X39950000Y-120617736D01*
X39950000Y-112983707D01*
X41286332Y-112983707D01*
X41289875Y-112992435D01*
X41355598Y-113082896D01*
X41364389Y-113092659D01*
X41495795Y-113210976D01*
X41506425Y-113218700D01*
X41659553Y-113307109D01*
X41671561Y-113312455D01*
X41839729Y-113367096D01*
X41852572Y-113369826D01*
X41984160Y-113383656D01*
X41990719Y-113384000D01*
X42166885Y-113384000D01*
X42182124Y-113379525D01*
X42183329Y-113378135D01*
X42185000Y-113370452D01*
X42185000Y-112998115D01*
X42183659Y-112993548D01*
X43185000Y-112993548D01*
X43185000Y-113365885D01*
X43189475Y-113381124D01*
X43190865Y-113382329D01*
X43198548Y-113384000D01*
X43379281Y-113384000D01*
X43385840Y-113383656D01*
X43517428Y-113369826D01*
X43530271Y-113367096D01*
X43698439Y-113312455D01*
X43710447Y-113307109D01*
X43863575Y-113218700D01*
X43874205Y-113210976D01*
X44005611Y-113092659D01*
X44014402Y-113082896D01*
X44078512Y-112994656D01*
X44082418Y-112983707D01*
X45261332Y-112983707D01*
X45264875Y-112992435D01*
X45330598Y-113082896D01*
X45339389Y-113092659D01*
X45475703Y-113215396D01*
X45474119Y-113217155D01*
X45510872Y-113264833D01*
X45516936Y-113335570D01*
X45483795Y-113398357D01*
X45475698Y-113405981D01*
X45404074Y-113467697D01*
X45326118Y-113587967D01*
X45323547Y-113596564D01*
X45323546Y-113596566D01*
X45298503Y-113680304D01*
X45285052Y-113725282D01*
X45284177Y-113868604D01*
X45323562Y-114006411D01*
X45400042Y-114127625D01*
X45507469Y-114222501D01*
X45637206Y-114283412D01*
X45646074Y-114284793D01*
X45646075Y-114284793D01*
X45656750Y-114286455D01*
X45746955Y-114300500D01*
X45819914Y-114300500D01*
X45861643Y-114294524D01*
X45917991Y-114286455D01*
X45917994Y-114286454D01*
X45926877Y-114285182D01*
X46057349Y-114225860D01*
X46165926Y-114132303D01*
X46243882Y-114012033D01*
X46248146Y-113997777D01*
X46282375Y-113883321D01*
X46284948Y-113874718D01*
X46285823Y-113731396D01*
X46246438Y-113593589D01*
X46169958Y-113472375D01*
X46062531Y-113377499D01*
X46062839Y-113377150D01*
X46020868Y-113327721D01*
X46010000Y-113276529D01*
X46010000Y-112998115D01*
X46005525Y-112982876D01*
X46004135Y-112981671D01*
X45996452Y-112980000D01*
X45273955Y-112980000D01*
X45261332Y-112983707D01*
X44082418Y-112983707D01*
X44082933Y-112982264D01*
X44073790Y-112980000D01*
X43203115Y-112980000D01*
X43187876Y-112984475D01*
X43186671Y-112985865D01*
X43185000Y-112993548D01*
X42183659Y-112993548D01*
X42180525Y-112982876D01*
X42179135Y-112981671D01*
X42171452Y-112980000D01*
X41298955Y-112980000D01*
X41286332Y-112983707D01*
X39950000Y-112983707D01*
X39950000Y-111876000D01*
X39970002Y-111807879D01*
X40023658Y-111761386D01*
X40076000Y-111750000D01*
X41200656Y-111750000D01*
X41268777Y-111770002D01*
G37*
%TD.AperFunction*%
%TD*%
%TA.AperFunction,Conductor*%
%TO.N,CHG_Supply*%
G36*
X52042121Y-113720002D02*
G01*
X52088614Y-113773658D01*
X52100000Y-113826000D01*
X52100000Y-114774000D01*
X52079998Y-114842121D01*
X52026342Y-114888614D01*
X51974000Y-114900000D01*
X50400000Y-114900000D01*
X49800000Y-115500000D01*
X49800000Y-119024000D01*
X49779998Y-119092121D01*
X49726342Y-119138614D01*
X49674000Y-119150000D01*
X48526000Y-119150000D01*
X48457879Y-119129998D01*
X48411386Y-119076342D01*
X48400000Y-119024000D01*
X48400000Y-113826000D01*
X48420002Y-113757879D01*
X48473658Y-113711386D01*
X48526000Y-113700000D01*
X51974000Y-113700000D01*
X52042121Y-113720002D01*
G37*
%TD.AperFunction*%
%TD*%
%TA.AperFunction,Conductor*%
%TO.N,GND*%
G36*
X46779640Y-122302460D02*
G01*
X53024940Y-122349067D01*
X53092910Y-122369576D01*
X53139001Y-122423577D01*
X53150000Y-122475063D01*
X53150000Y-128750000D01*
X86924000Y-128750000D01*
X86992121Y-128770002D01*
X87038614Y-128823658D01*
X87050000Y-128876000D01*
X87050000Y-129924000D01*
X87029998Y-129992121D01*
X86976342Y-130038614D01*
X86924000Y-130050000D01*
X42274169Y-130050000D01*
X42250000Y-130047295D01*
X42250000Y-130045000D01*
X42149074Y-130043241D01*
X42143084Y-130042992D01*
X42047524Y-130036729D01*
X42039320Y-130035921D01*
X41810092Y-130005742D01*
X41801959Y-130004399D01*
X41724685Y-129989029D01*
X41716670Y-129987161D01*
X41547414Y-129941809D01*
X41493304Y-129927310D01*
X41485421Y-129924919D01*
X41410795Y-129899586D01*
X41403122Y-129896698D01*
X41189480Y-129808205D01*
X41181994Y-129804813D01*
X41111306Y-129769954D01*
X41104035Y-129766067D01*
X40903810Y-129650466D01*
X40896809Y-129646113D01*
X40854536Y-129617868D01*
X40831286Y-129602333D01*
X40824592Y-129597535D01*
X40641160Y-129456782D01*
X40634787Y-129451552D01*
X40575533Y-129399588D01*
X40569515Y-129393951D01*
X40406049Y-129230485D01*
X40400412Y-129224467D01*
X40348448Y-129165213D01*
X40343218Y-129158840D01*
X40202465Y-128975408D01*
X40197661Y-128968705D01*
X40153887Y-128903191D01*
X40149534Y-128896190D01*
X40033933Y-128695965D01*
X40030046Y-128688694D01*
X39995192Y-128618018D01*
X39991795Y-128610520D01*
X39903302Y-128396878D01*
X39900414Y-128389205D01*
X39875081Y-128314579D01*
X39872690Y-128306696D01*
X39858191Y-128252586D01*
X39812839Y-128083330D01*
X39810971Y-128075315D01*
X39795601Y-127998041D01*
X39794258Y-127989908D01*
X39764079Y-127760680D01*
X39763271Y-127752475D01*
X39757008Y-127656916D01*
X39756759Y-127650926D01*
X39755000Y-127550000D01*
X39752768Y-127550000D01*
X39750000Y-127531874D01*
X39750000Y-122376943D01*
X39770002Y-122308822D01*
X39823658Y-122262329D01*
X39876939Y-122250947D01*
X46779640Y-122302460D01*
G37*
%TD.AperFunction*%
%TD*%
%TA.AperFunction,Conductor*%
%TO.N,GND*%
G36*
X86192121Y-65070002D02*
G01*
X86238614Y-65123658D01*
X86250000Y-65176000D01*
X86250000Y-74724000D01*
X86229998Y-74792121D01*
X86176342Y-74838614D01*
X86124000Y-74850000D01*
X39876000Y-74850000D01*
X39807879Y-74829998D01*
X39761386Y-74776342D01*
X39750000Y-74724000D01*
X39750000Y-72923322D01*
X41206562Y-72923322D01*
X41211471Y-72929880D01*
X41272227Y-72963835D01*
X41283455Y-72968740D01*
X41467578Y-73028564D01*
X41479552Y-73031197D01*
X41671792Y-73054121D01*
X41684041Y-73054378D01*
X41877071Y-73039525D01*
X41889151Y-73037394D01*
X42075607Y-72985334D01*
X42087040Y-72980900D01*
X42183550Y-72932149D01*
X42193834Y-72922504D01*
X42191596Y-72915860D01*
X41712812Y-72437076D01*
X41698868Y-72429462D01*
X41697035Y-72429593D01*
X41690420Y-72433844D01*
X41213322Y-72910942D01*
X41206562Y-72923322D01*
X39750000Y-72923322D01*
X39750000Y-71991413D01*
X40645538Y-71991413D01*
X40661736Y-72184321D01*
X40663951Y-72196386D01*
X40717311Y-72382475D01*
X40721829Y-72393887D01*
X40767869Y-72483470D01*
X40777590Y-72493691D01*
X40784389Y-72491347D01*
X41262924Y-72012812D01*
X41269302Y-72001132D01*
X42129462Y-72001132D01*
X42129593Y-72002965D01*
X42133844Y-72009580D01*
X42611035Y-72486771D01*
X42623415Y-72493531D01*
X42630148Y-72488490D01*
X42660818Y-72434501D01*
X42665810Y-72423291D01*
X42726915Y-72239604D01*
X42729635Y-72227632D01*
X42754228Y-72032963D01*
X42754719Y-72025936D01*
X42755032Y-72003505D01*
X42754739Y-71996513D01*
X42735588Y-71801201D01*
X42733205Y-71789164D01*
X42677252Y-71603839D01*
X42672577Y-71592498D01*
X42632203Y-71516564D01*
X42622341Y-71506481D01*
X42615215Y-71509049D01*
X42137076Y-71987188D01*
X42129462Y-72001132D01*
X41269302Y-72001132D01*
X41270538Y-71998868D01*
X41270407Y-71997035D01*
X41266156Y-71990420D01*
X40789115Y-71513379D01*
X40776735Y-71506619D01*
X40770347Y-71511401D01*
X40733204Y-71578964D01*
X40728376Y-71590228D01*
X40669837Y-71774766D01*
X40667289Y-71786755D01*
X40645709Y-71979144D01*
X40645538Y-71991413D01*
X39750000Y-71991413D01*
X39750000Y-71077642D01*
X41206414Y-71077642D01*
X41208867Y-71084603D01*
X41687188Y-71562924D01*
X41701132Y-71570538D01*
X41702965Y-71570407D01*
X41709580Y-71566156D01*
X42186602Y-71089134D01*
X42193362Y-71076754D01*
X42188703Y-71070531D01*
X42114280Y-71030291D01*
X42102974Y-71025538D01*
X41918040Y-70968291D01*
X41906027Y-70965825D01*
X41713494Y-70945589D01*
X41701226Y-70945504D01*
X41508439Y-70963048D01*
X41496383Y-70965348D01*
X41310679Y-71020004D01*
X41299295Y-71024603D01*
X41216563Y-71067854D01*
X41206414Y-71077642D01*
X39750000Y-71077642D01*
X39750000Y-67574169D01*
X39752705Y-67550000D01*
X39755000Y-67550000D01*
X39756759Y-67449074D01*
X39757008Y-67443084D01*
X39763271Y-67347524D01*
X39764079Y-67339320D01*
X39794258Y-67110092D01*
X39795601Y-67101959D01*
X39810971Y-67024685D01*
X39812839Y-67016670D01*
X39872690Y-66793304D01*
X39875083Y-66785416D01*
X39900414Y-66710795D01*
X39903302Y-66703122D01*
X39991795Y-66489480D01*
X39995192Y-66481982D01*
X40030046Y-66411306D01*
X40033933Y-66404035D01*
X40149534Y-66203810D01*
X40153887Y-66196809D01*
X40197661Y-66131295D01*
X40202465Y-66124592D01*
X40343218Y-65941160D01*
X40348448Y-65934787D01*
X40400412Y-65875533D01*
X40406049Y-65869515D01*
X40569515Y-65706049D01*
X40575533Y-65700412D01*
X40634787Y-65648448D01*
X40641160Y-65643218D01*
X40824592Y-65502465D01*
X40831286Y-65497667D01*
X40854536Y-65482132D01*
X40896809Y-65453887D01*
X40903810Y-65449534D01*
X41104035Y-65333933D01*
X41111306Y-65330046D01*
X41111466Y-65329967D01*
X41181994Y-65295187D01*
X41189480Y-65291795D01*
X41403122Y-65203302D01*
X41410795Y-65200414D01*
X41485421Y-65175081D01*
X41493304Y-65172690D01*
X41547414Y-65158191D01*
X41716670Y-65112839D01*
X41724685Y-65110971D01*
X41801959Y-65095601D01*
X41810092Y-65094258D01*
X42039320Y-65064079D01*
X42047525Y-65063271D01*
X42143084Y-65057008D01*
X42149074Y-65056759D01*
X42203811Y-65055805D01*
X42233496Y-65055288D01*
X42233499Y-65055288D01*
X42250000Y-65055000D01*
X42250000Y-65052768D01*
X42268126Y-65050000D01*
X86124000Y-65050000D01*
X86192121Y-65070002D01*
G37*
%TD.AperFunction*%
%TD*%
%TA.AperFunction,Conductor*%
%TO.N,GND*%
G36*
X53092121Y-87170002D02*
G01*
X53138614Y-87223658D01*
X53150000Y-87276000D01*
X53150000Y-115847728D01*
X53129998Y-115915849D01*
X53076342Y-115962342D01*
X53006068Y-115972446D01*
X52989661Y-115968631D01*
X52983126Y-115965301D01*
X52850000Y-115944216D01*
X52840207Y-115945767D01*
X52726665Y-115963750D01*
X52726663Y-115963751D01*
X52716874Y-115965301D01*
X52596780Y-116026492D01*
X52501472Y-116121800D01*
X52440281Y-116241894D01*
X52438731Y-116251683D01*
X52438730Y-116251685D01*
X52424698Y-116340281D01*
X52419196Y-116375020D01*
X52420747Y-116384813D01*
X52423386Y-116401472D01*
X52440281Y-116508146D01*
X52501472Y-116628240D01*
X52596780Y-116723548D01*
X52716874Y-116784739D01*
X52726663Y-116786289D01*
X52726665Y-116786290D01*
X52840207Y-116804273D01*
X52850000Y-116805824D01*
X52983126Y-116784739D01*
X52987712Y-116782402D01*
X53056033Y-116780452D01*
X53116830Y-116817115D01*
X53148155Y-116880828D01*
X53150000Y-116902312D01*
X53150000Y-117386245D01*
X53129998Y-117454366D01*
X53076342Y-117500859D01*
X53004290Y-117510694D01*
X52900000Y-117494176D01*
X52890207Y-117495727D01*
X52776665Y-117513710D01*
X52776663Y-117513711D01*
X52766874Y-117515261D01*
X52646780Y-117576452D01*
X52551472Y-117671760D01*
X52490281Y-117791854D01*
X52469196Y-117924980D01*
X52490281Y-118058106D01*
X52551472Y-118178200D01*
X52646780Y-118273508D01*
X52766874Y-118334699D01*
X52776663Y-118336249D01*
X52776665Y-118336250D01*
X52890207Y-118354233D01*
X52900000Y-118355784D01*
X53004290Y-118339266D01*
X53074700Y-118348366D01*
X53129014Y-118394087D01*
X53150000Y-118463715D01*
X53150000Y-119024000D01*
X53129998Y-119092121D01*
X53076342Y-119138614D01*
X53024000Y-119150000D01*
X50226000Y-119150000D01*
X50157879Y-119129998D01*
X50111386Y-119076342D01*
X50100000Y-119024000D01*
X50100000Y-116002190D01*
X50120002Y-115934069D01*
X50136905Y-115913095D01*
X50463095Y-115586905D01*
X50525407Y-115552879D01*
X50552190Y-115550000D01*
X52550000Y-115550000D01*
X52550000Y-112900000D01*
X48676000Y-112900000D01*
X48607879Y-112879998D01*
X48561386Y-112826342D01*
X48550000Y-112774000D01*
X48550000Y-111250000D01*
X48536092Y-111250158D01*
X39877432Y-111348552D01*
X39809088Y-111329325D01*
X39761989Y-111276201D01*
X39750000Y-111222560D01*
X39750000Y-90423322D01*
X41206562Y-90423322D01*
X41211471Y-90429880D01*
X41272227Y-90463835D01*
X41283455Y-90468740D01*
X41467578Y-90528564D01*
X41479552Y-90531197D01*
X41671792Y-90554121D01*
X41684041Y-90554378D01*
X41877071Y-90539525D01*
X41889151Y-90537394D01*
X42075607Y-90485334D01*
X42087040Y-90480900D01*
X42183550Y-90432149D01*
X42193834Y-90422504D01*
X42191596Y-90415860D01*
X41712812Y-89937076D01*
X41698868Y-89929462D01*
X41697035Y-89929593D01*
X41690420Y-89933844D01*
X41213322Y-90410942D01*
X41206562Y-90423322D01*
X39750000Y-90423322D01*
X39750000Y-89491413D01*
X40645538Y-89491413D01*
X40661736Y-89684321D01*
X40663951Y-89696386D01*
X40717311Y-89882475D01*
X40721829Y-89893887D01*
X40767869Y-89983470D01*
X40777590Y-89993691D01*
X40784389Y-89991347D01*
X41262924Y-89512812D01*
X41269302Y-89501132D01*
X42129462Y-89501132D01*
X42129593Y-89502965D01*
X42133844Y-89509580D01*
X42611035Y-89986771D01*
X42623415Y-89993531D01*
X42630148Y-89988490D01*
X42660818Y-89934501D01*
X42665810Y-89923291D01*
X42726915Y-89739604D01*
X42729635Y-89727632D01*
X42754228Y-89532963D01*
X42754719Y-89525936D01*
X42755032Y-89503505D01*
X42754739Y-89496513D01*
X42735588Y-89301201D01*
X42733205Y-89289164D01*
X42677252Y-89103839D01*
X42672577Y-89092498D01*
X42632203Y-89016564D01*
X42622341Y-89006481D01*
X42615215Y-89009049D01*
X42137076Y-89487188D01*
X42129462Y-89501132D01*
X41269302Y-89501132D01*
X41270538Y-89498868D01*
X41270407Y-89497035D01*
X41266156Y-89490420D01*
X40789115Y-89013379D01*
X40776735Y-89006619D01*
X40770347Y-89011401D01*
X40733204Y-89078964D01*
X40728376Y-89090228D01*
X40669837Y-89274766D01*
X40667289Y-89286755D01*
X40645709Y-89479144D01*
X40645538Y-89491413D01*
X39750000Y-89491413D01*
X39750000Y-88577642D01*
X41206414Y-88577642D01*
X41208867Y-88584603D01*
X41687188Y-89062924D01*
X41701132Y-89070538D01*
X41702965Y-89070407D01*
X41709580Y-89066156D01*
X42186602Y-88589134D01*
X42193362Y-88576754D01*
X42188703Y-88570531D01*
X42114280Y-88530291D01*
X42102974Y-88525538D01*
X41918040Y-88468291D01*
X41906027Y-88465825D01*
X41713494Y-88445589D01*
X41701226Y-88445504D01*
X41508439Y-88463048D01*
X41496383Y-88465348D01*
X41310679Y-88520004D01*
X41299295Y-88524603D01*
X41216563Y-88567854D01*
X41206414Y-88577642D01*
X39750000Y-88577642D01*
X39750000Y-87276000D01*
X39770002Y-87207879D01*
X39823658Y-87161386D01*
X39876000Y-87150000D01*
X53024000Y-87150000D01*
X53092121Y-87170002D01*
G37*
%TD.AperFunction*%
%TD*%
%TA.AperFunction,Conductor*%
%TO.N,+BATT*%
G36*
X92692121Y-65270002D02*
G01*
X92738614Y-65323658D01*
X92750000Y-65376000D01*
X92750000Y-110324000D01*
X92729998Y-110392121D01*
X92676342Y-110438614D01*
X92624000Y-110450000D01*
X61750000Y-110450000D01*
X61750000Y-115969418D01*
X61736267Y-116026621D01*
X61690281Y-116116874D01*
X61669196Y-116250000D01*
X61670747Y-116259793D01*
X61686574Y-116359719D01*
X61690281Y-116383126D01*
X61694782Y-116391959D01*
X61736267Y-116473379D01*
X61750000Y-116530582D01*
X61750000Y-118619418D01*
X61736267Y-118676621D01*
X61690281Y-118766874D01*
X61688731Y-118776663D01*
X61688730Y-118776665D01*
X61682362Y-118816874D01*
X61669196Y-118900000D01*
X61690281Y-119033126D01*
X61715757Y-119083126D01*
X61736267Y-119123379D01*
X61750000Y-119180582D01*
X61750000Y-125150000D01*
X71346189Y-125150000D01*
X71414310Y-125170002D01*
X71458456Y-125218797D01*
X71501472Y-125303220D01*
X71596780Y-125398528D01*
X71716874Y-125459719D01*
X71726663Y-125461269D01*
X71726665Y-125461270D01*
X71840207Y-125479253D01*
X71850000Y-125480804D01*
X71859793Y-125479253D01*
X71973335Y-125461270D01*
X71973337Y-125461269D01*
X71983126Y-125459719D01*
X72103220Y-125398528D01*
X72198528Y-125303220D01*
X72241544Y-125218797D01*
X72290293Y-125167182D01*
X72353811Y-125150000D01*
X91824000Y-125150000D01*
X91892121Y-125170002D01*
X91938614Y-125223658D01*
X91950000Y-125276000D01*
X91950000Y-129724000D01*
X91929998Y-129792121D01*
X91876342Y-129838614D01*
X91824000Y-129850000D01*
X87676000Y-129850000D01*
X87607879Y-129829998D01*
X87561386Y-129776342D01*
X87550000Y-129724000D01*
X87550000Y-128250000D01*
X53826000Y-128250000D01*
X53757879Y-128229998D01*
X53711386Y-128176342D01*
X53700000Y-128124000D01*
X53700000Y-127250000D01*
X76869196Y-127250000D01*
X76890281Y-127383126D01*
X76951472Y-127503220D01*
X77046780Y-127598528D01*
X77166874Y-127659719D01*
X77176663Y-127661269D01*
X77176665Y-127661270D01*
X77290207Y-127679253D01*
X77300000Y-127680804D01*
X77309793Y-127679253D01*
X77423335Y-127661270D01*
X77423337Y-127661269D01*
X77433126Y-127659719D01*
X77553220Y-127598528D01*
X77648528Y-127503220D01*
X77709719Y-127383126D01*
X77730804Y-127250000D01*
X77709719Y-127116874D01*
X77648528Y-126996780D01*
X77553220Y-126901472D01*
X77433126Y-126840281D01*
X77423337Y-126838731D01*
X77423335Y-126838730D01*
X77309793Y-126820747D01*
X77300000Y-126819196D01*
X77290207Y-126820747D01*
X77176665Y-126838730D01*
X77176663Y-126838731D01*
X77166874Y-126840281D01*
X77046780Y-126901472D01*
X76951472Y-126996780D01*
X76890281Y-127116874D01*
X76869196Y-127250000D01*
X53700000Y-127250000D01*
X53700000Y-117150000D01*
X55969196Y-117150000D01*
X55990281Y-117283126D01*
X56051472Y-117403220D01*
X56146780Y-117498528D01*
X56266874Y-117559719D01*
X56276663Y-117561269D01*
X56276665Y-117561270D01*
X56390207Y-117579253D01*
X56400000Y-117580804D01*
X56409793Y-117579253D01*
X56523335Y-117561270D01*
X56523337Y-117561269D01*
X56533126Y-117559719D01*
X56567798Y-117542053D01*
X56637573Y-117528949D01*
X56682202Y-117542053D01*
X56716874Y-117559719D01*
X56726663Y-117561269D01*
X56726665Y-117561270D01*
X56840207Y-117579253D01*
X56850000Y-117580804D01*
X56859793Y-117579253D01*
X56973335Y-117561270D01*
X56973337Y-117561269D01*
X56983126Y-117559719D01*
X57103220Y-117498528D01*
X57198528Y-117403220D01*
X57259719Y-117283126D01*
X57280804Y-117150000D01*
X57272652Y-117098528D01*
X57261270Y-117026665D01*
X57261269Y-117026663D01*
X57259719Y-117016874D01*
X57198528Y-116896780D01*
X57103220Y-116801472D01*
X56983126Y-116740281D01*
X56973337Y-116738731D01*
X56973335Y-116738730D01*
X56859793Y-116720747D01*
X56850000Y-116719196D01*
X56840207Y-116720747D01*
X56726665Y-116738730D01*
X56726663Y-116738731D01*
X56716874Y-116740281D01*
X56682202Y-116757947D01*
X56612427Y-116771051D01*
X56567798Y-116757947D01*
X56533126Y-116740281D01*
X56523337Y-116738731D01*
X56523335Y-116738730D01*
X56409793Y-116720747D01*
X56400000Y-116719196D01*
X56390207Y-116720747D01*
X56276665Y-116738730D01*
X56276663Y-116738731D01*
X56266874Y-116740281D01*
X56146780Y-116801472D01*
X56051472Y-116896780D01*
X55990281Y-117016874D01*
X55988731Y-117026663D01*
X55988730Y-117026665D01*
X55977348Y-117098528D01*
X55969196Y-117150000D01*
X53700000Y-117150000D01*
X53700000Y-108942611D01*
X63194394Y-108942611D01*
X63212999Y-109111135D01*
X63220867Y-109132634D01*
X63267561Y-109260231D01*
X63271266Y-109270356D01*
X63275502Y-109276659D01*
X63275502Y-109276660D01*
X63287415Y-109294388D01*
X63365830Y-109411083D01*
X63371442Y-109416190D01*
X63371445Y-109416193D01*
X63485612Y-109520077D01*
X63485616Y-109520080D01*
X63491233Y-109525191D01*
X63497906Y-109528814D01*
X63497910Y-109528817D01*
X63633558Y-109602467D01*
X63633560Y-109602468D01*
X63640235Y-109606092D01*
X63647584Y-109608020D01*
X63796883Y-109647188D01*
X63796885Y-109647188D01*
X63804233Y-109649116D01*
X63890609Y-109650473D01*
X63966161Y-109651660D01*
X63966164Y-109651660D01*
X63973760Y-109651779D01*
X63981165Y-109650083D01*
X63981166Y-109650083D01*
X64041586Y-109636245D01*
X64139029Y-109613928D01*
X64290498Y-109537747D01*
X64381857Y-109459719D01*
X64413651Y-109432564D01*
X64413652Y-109432563D01*
X64419423Y-109427634D01*
X64518361Y-109289947D01*
X64526237Y-109270356D01*
X64578766Y-109139687D01*
X64578767Y-109139685D01*
X64581601Y-109132634D01*
X64605490Y-108964778D01*
X64605645Y-108950000D01*
X64604751Y-108942611D01*
X67194394Y-108942611D01*
X67212999Y-109111135D01*
X67220867Y-109132634D01*
X67267561Y-109260231D01*
X67271266Y-109270356D01*
X67275502Y-109276659D01*
X67275502Y-109276660D01*
X67287415Y-109294388D01*
X67365830Y-109411083D01*
X67371442Y-109416190D01*
X67371445Y-109416193D01*
X67485612Y-109520077D01*
X67485616Y-109520080D01*
X67491233Y-109525191D01*
X67497906Y-109528814D01*
X67497910Y-109528817D01*
X67633558Y-109602467D01*
X67633560Y-109602468D01*
X67640235Y-109606092D01*
X67647584Y-109608020D01*
X67796883Y-109647188D01*
X67796885Y-109647188D01*
X67804233Y-109649116D01*
X67890609Y-109650473D01*
X67966161Y-109651660D01*
X67966164Y-109651660D01*
X67973760Y-109651779D01*
X67981165Y-109650083D01*
X67981166Y-109650083D01*
X68041586Y-109636245D01*
X68139029Y-109613928D01*
X68290498Y-109537747D01*
X68381857Y-109459719D01*
X68413651Y-109432564D01*
X68413652Y-109432563D01*
X68419423Y-109427634D01*
X68518361Y-109289947D01*
X68526237Y-109270356D01*
X68578766Y-109139687D01*
X68578767Y-109139685D01*
X68581601Y-109132634D01*
X68605490Y-108964778D01*
X68605645Y-108950000D01*
X68604751Y-108942611D01*
X75194394Y-108942611D01*
X75212999Y-109111135D01*
X75220867Y-109132634D01*
X75267561Y-109260231D01*
X75271266Y-109270356D01*
X75275502Y-109276659D01*
X75275502Y-109276660D01*
X75287415Y-109294388D01*
X75365830Y-109411083D01*
X75371442Y-109416190D01*
X75371445Y-109416193D01*
X75485612Y-109520077D01*
X75485616Y-109520080D01*
X75491233Y-109525191D01*
X75497906Y-109528814D01*
X75497910Y-109528817D01*
X75633558Y-109602467D01*
X75633560Y-109602468D01*
X75640235Y-109606092D01*
X75647584Y-109608020D01*
X75796883Y-109647188D01*
X75796885Y-109647188D01*
X75804233Y-109649116D01*
X75890609Y-109650473D01*
X75966161Y-109651660D01*
X75966164Y-109651660D01*
X75973760Y-109651779D01*
X75981165Y-109650083D01*
X75981166Y-109650083D01*
X76041586Y-109636245D01*
X76139029Y-109613928D01*
X76290498Y-109537747D01*
X76381857Y-109459719D01*
X76413651Y-109432564D01*
X76413652Y-109432563D01*
X76419423Y-109427634D01*
X76518361Y-109289947D01*
X76526237Y-109270356D01*
X76578766Y-109139687D01*
X76578767Y-109139685D01*
X76581601Y-109132634D01*
X76605490Y-108964778D01*
X76605645Y-108950000D01*
X76604751Y-108942611D01*
X79194394Y-108942611D01*
X79212999Y-109111135D01*
X79220867Y-109132634D01*
X79267561Y-109260231D01*
X79271266Y-109270356D01*
X79275502Y-109276659D01*
X79275502Y-109276660D01*
X79287415Y-109294388D01*
X79365830Y-109411083D01*
X79371442Y-109416190D01*
X79371445Y-109416193D01*
X79485612Y-109520077D01*
X79485616Y-109520080D01*
X79491233Y-109525191D01*
X79497906Y-109528814D01*
X79497910Y-109528817D01*
X79633558Y-109602467D01*
X79633560Y-109602468D01*
X79640235Y-109606092D01*
X79647584Y-109608020D01*
X79796883Y-109647188D01*
X79796885Y-109647188D01*
X79804233Y-109649116D01*
X79890609Y-109650473D01*
X79966161Y-109651660D01*
X79966164Y-109651660D01*
X79973760Y-109651779D01*
X79981165Y-109650083D01*
X79981166Y-109650083D01*
X80041586Y-109636245D01*
X80139029Y-109613928D01*
X80290498Y-109537747D01*
X80381857Y-109459719D01*
X80413651Y-109432564D01*
X80413652Y-109432563D01*
X80419423Y-109427634D01*
X80518361Y-109289947D01*
X80526237Y-109270356D01*
X80578766Y-109139687D01*
X80578767Y-109139685D01*
X80581601Y-109132634D01*
X80593361Y-109050000D01*
X87319196Y-109050000D01*
X87320747Y-109059793D01*
X87334981Y-109149661D01*
X87340281Y-109183126D01*
X87401472Y-109303220D01*
X87496780Y-109398528D01*
X87616874Y-109459719D01*
X87626663Y-109461269D01*
X87626665Y-109461270D01*
X87740207Y-109479253D01*
X87750000Y-109480804D01*
X87759793Y-109479253D01*
X87873335Y-109461270D01*
X87873337Y-109461269D01*
X87883126Y-109459719D01*
X88003220Y-109398528D01*
X88098528Y-109303220D01*
X88150471Y-109201276D01*
X88199219Y-109149661D01*
X88268134Y-109132595D01*
X88335336Y-109155496D01*
X88375005Y-109201276D01*
X88401472Y-109253220D01*
X88496780Y-109348528D01*
X88616874Y-109409719D01*
X88626663Y-109411269D01*
X88626665Y-109411270D01*
X88740207Y-109429253D01*
X88750000Y-109430804D01*
X88759793Y-109429253D01*
X88873335Y-109411270D01*
X88873337Y-109411269D01*
X88883126Y-109409719D01*
X89003220Y-109348528D01*
X89098528Y-109253220D01*
X89159719Y-109133126D01*
X89165812Y-109094656D01*
X89196224Y-109030503D01*
X89256492Y-108992975D01*
X89327481Y-108993989D01*
X89386654Y-109033221D01*
X89402528Y-109057163D01*
X89421390Y-109094181D01*
X89451472Y-109153220D01*
X89546780Y-109248528D01*
X89666874Y-109309719D01*
X89676663Y-109311269D01*
X89676665Y-109311270D01*
X89790207Y-109329253D01*
X89800000Y-109330804D01*
X89809793Y-109329253D01*
X89923335Y-109311270D01*
X89923337Y-109311269D01*
X89933126Y-109309719D01*
X90053220Y-109248528D01*
X90148528Y-109153220D01*
X90209719Y-109033126D01*
X90219898Y-108968862D01*
X90229253Y-108909793D01*
X90230804Y-108900000D01*
X90215855Y-108805613D01*
X90211270Y-108776665D01*
X90211269Y-108776663D01*
X90209719Y-108766874D01*
X90148528Y-108646780D01*
X90053220Y-108551472D01*
X89933126Y-108490281D01*
X89923337Y-108488731D01*
X89923335Y-108488730D01*
X89809793Y-108470747D01*
X89800000Y-108469196D01*
X89790207Y-108470747D01*
X89676665Y-108488730D01*
X89676663Y-108488731D01*
X89666874Y-108490281D01*
X89546780Y-108551472D01*
X89451472Y-108646780D01*
X89390281Y-108766874D01*
X89388730Y-108776665D01*
X89388730Y-108776666D01*
X89384188Y-108805344D01*
X89353776Y-108869497D01*
X89293508Y-108907025D01*
X89222519Y-108906011D01*
X89163346Y-108866779D01*
X89147472Y-108842837D01*
X89116310Y-108781680D01*
X89098528Y-108746780D01*
X89003220Y-108651472D01*
X88883126Y-108590281D01*
X88873337Y-108588731D01*
X88873335Y-108588730D01*
X88759793Y-108570747D01*
X88750000Y-108569196D01*
X88740207Y-108570747D01*
X88626665Y-108588730D01*
X88626663Y-108588731D01*
X88616874Y-108590281D01*
X88496780Y-108651472D01*
X88401472Y-108746780D01*
X88349529Y-108848724D01*
X88300781Y-108900339D01*
X88231866Y-108917405D01*
X88164664Y-108894504D01*
X88124995Y-108848724D01*
X88120017Y-108838954D01*
X88098528Y-108796780D01*
X88003220Y-108701472D01*
X87883126Y-108640281D01*
X87873337Y-108638731D01*
X87873335Y-108638730D01*
X87759793Y-108620747D01*
X87750000Y-108619196D01*
X87740207Y-108620747D01*
X87626665Y-108638730D01*
X87626663Y-108638731D01*
X87616874Y-108640281D01*
X87496780Y-108701472D01*
X87401472Y-108796780D01*
X87340281Y-108916874D01*
X87338731Y-108926663D01*
X87338730Y-108926665D01*
X87320747Y-109040207D01*
X87319196Y-109050000D01*
X80593361Y-109050000D01*
X80605490Y-108964778D01*
X80605645Y-108950000D01*
X80603840Y-108935080D01*
X80595903Y-108869497D01*
X80585276Y-108781680D01*
X80525345Y-108623077D01*
X80489379Y-108570747D01*
X80433614Y-108489608D01*
X80433613Y-108489607D01*
X80429312Y-108483349D01*
X80316825Y-108383126D01*
X80308392Y-108375612D01*
X80308388Y-108375610D01*
X80302721Y-108370560D01*
X80152881Y-108291224D01*
X79988763Y-108250000D01*
X86519196Y-108250000D01*
X86520747Y-108259793D01*
X86538419Y-108371368D01*
X86540281Y-108383126D01*
X86601472Y-108503220D01*
X86696780Y-108598528D01*
X86816874Y-108659719D01*
X86826663Y-108661269D01*
X86826665Y-108661270D01*
X86940207Y-108679253D01*
X86950000Y-108680804D01*
X86959793Y-108679253D01*
X87073335Y-108661270D01*
X87073337Y-108661269D01*
X87083126Y-108659719D01*
X87203220Y-108598528D01*
X87298528Y-108503220D01*
X87359719Y-108383126D01*
X87361582Y-108371368D01*
X87379253Y-108259793D01*
X87380804Y-108250000D01*
X87359719Y-108116874D01*
X87298528Y-107996780D01*
X87203220Y-107901472D01*
X87083126Y-107840281D01*
X87073337Y-107838731D01*
X87073335Y-107838730D01*
X86959793Y-107820747D01*
X86950000Y-107819196D01*
X86940207Y-107820747D01*
X86826665Y-107838730D01*
X86826663Y-107838731D01*
X86816874Y-107840281D01*
X86696780Y-107901472D01*
X86601472Y-107996780D01*
X86540281Y-108116874D01*
X86519196Y-108250000D01*
X79988763Y-108250000D01*
X79988441Y-108249919D01*
X79980843Y-108249879D01*
X79980841Y-108249879D01*
X79903668Y-108249475D01*
X79818895Y-108249031D01*
X79811508Y-108250805D01*
X79811504Y-108250805D01*
X79668162Y-108285220D01*
X79654032Y-108288612D01*
X79647288Y-108292093D01*
X79647285Y-108292094D01*
X79642089Y-108294776D01*
X79503369Y-108366375D01*
X79497647Y-108371367D01*
X79497645Y-108371368D01*
X79492780Y-108375612D01*
X79375604Y-108477831D01*
X79352833Y-108510231D01*
X79293410Y-108594782D01*
X79278113Y-108616547D01*
X79216524Y-108774513D01*
X79215532Y-108782046D01*
X79215532Y-108782047D01*
X79199079Y-108907025D01*
X79194394Y-108942611D01*
X76604751Y-108942611D01*
X76603840Y-108935080D01*
X76595903Y-108869497D01*
X76585276Y-108781680D01*
X76525345Y-108623077D01*
X76489379Y-108570747D01*
X76433614Y-108489608D01*
X76433613Y-108489607D01*
X76429312Y-108483349D01*
X76316825Y-108383126D01*
X76308392Y-108375612D01*
X76308388Y-108375610D01*
X76302721Y-108370560D01*
X76152881Y-108291224D01*
X75988441Y-108249919D01*
X75980843Y-108249879D01*
X75980841Y-108249879D01*
X75903668Y-108249475D01*
X75818895Y-108249031D01*
X75811508Y-108250805D01*
X75811504Y-108250805D01*
X75668162Y-108285220D01*
X75654032Y-108288612D01*
X75647288Y-108292093D01*
X75647285Y-108292094D01*
X75642089Y-108294776D01*
X75503369Y-108366375D01*
X75497647Y-108371367D01*
X75497645Y-108371368D01*
X75492780Y-108375612D01*
X75375604Y-108477831D01*
X75352833Y-108510231D01*
X75293410Y-108594782D01*
X75278113Y-108616547D01*
X75216524Y-108774513D01*
X75215532Y-108782046D01*
X75215532Y-108782047D01*
X75199079Y-108907025D01*
X75194394Y-108942611D01*
X68604751Y-108942611D01*
X68603840Y-108935080D01*
X68595903Y-108869497D01*
X68585276Y-108781680D01*
X68525345Y-108623077D01*
X68489379Y-108570747D01*
X68433614Y-108489608D01*
X68433613Y-108489607D01*
X68429312Y-108483349D01*
X68316825Y-108383126D01*
X68308392Y-108375612D01*
X68308388Y-108375610D01*
X68302721Y-108370560D01*
X68152881Y-108291224D01*
X67988441Y-108249919D01*
X67980843Y-108249879D01*
X67980841Y-108249879D01*
X67903668Y-108249475D01*
X67818895Y-108249031D01*
X67811508Y-108250805D01*
X67811504Y-108250805D01*
X67668162Y-108285220D01*
X67654032Y-108288612D01*
X67647288Y-108292093D01*
X67647285Y-108292094D01*
X67642089Y-108294776D01*
X67503369Y-108366375D01*
X67497647Y-108371367D01*
X67497645Y-108371368D01*
X67492780Y-108375612D01*
X67375604Y-108477831D01*
X67352833Y-108510231D01*
X67293410Y-108594782D01*
X67278113Y-108616547D01*
X67216524Y-108774513D01*
X67215532Y-108782046D01*
X67215532Y-108782047D01*
X67199079Y-108907025D01*
X67194394Y-108942611D01*
X64604751Y-108942611D01*
X64603840Y-108935080D01*
X64595903Y-108869497D01*
X64585276Y-108781680D01*
X64525345Y-108623077D01*
X64489379Y-108570747D01*
X64433614Y-108489608D01*
X64433613Y-108489607D01*
X64429312Y-108483349D01*
X64316825Y-108383126D01*
X64308392Y-108375612D01*
X64308388Y-108375610D01*
X64302721Y-108370560D01*
X64152881Y-108291224D01*
X63988441Y-108249919D01*
X63980843Y-108249879D01*
X63980841Y-108249879D01*
X63903668Y-108249475D01*
X63818895Y-108249031D01*
X63811508Y-108250805D01*
X63811504Y-108250805D01*
X63668162Y-108285220D01*
X63654032Y-108288612D01*
X63647288Y-108292093D01*
X63647285Y-108292094D01*
X63642089Y-108294776D01*
X63503369Y-108366375D01*
X63497647Y-108371367D01*
X63497645Y-108371368D01*
X63492780Y-108375612D01*
X63375604Y-108477831D01*
X63352833Y-108510231D01*
X63293410Y-108594782D01*
X63278113Y-108616547D01*
X63216524Y-108774513D01*
X63215532Y-108782046D01*
X63215532Y-108782047D01*
X63199079Y-108907025D01*
X63194394Y-108942611D01*
X53700000Y-108942611D01*
X53700000Y-107050000D01*
X85919196Y-107050000D01*
X85920747Y-107059793D01*
X85928046Y-107105874D01*
X85940281Y-107183126D01*
X86001472Y-107303220D01*
X86096780Y-107398528D01*
X86216874Y-107459719D01*
X86226663Y-107461269D01*
X86226665Y-107461270D01*
X86340207Y-107479253D01*
X86350000Y-107480804D01*
X86359793Y-107479253D01*
X86473335Y-107461270D01*
X86473337Y-107461269D01*
X86483126Y-107459719D01*
X86603220Y-107398528D01*
X86698528Y-107303220D01*
X86759719Y-107183126D01*
X86771955Y-107105874D01*
X86779253Y-107059793D01*
X86780804Y-107050000D01*
X87119196Y-107050000D01*
X87120747Y-107059793D01*
X87128046Y-107105874D01*
X87140281Y-107183126D01*
X87201472Y-107303220D01*
X87296780Y-107398528D01*
X87416874Y-107459719D01*
X87426663Y-107461269D01*
X87426665Y-107461270D01*
X87540207Y-107479253D01*
X87550000Y-107480804D01*
X87559793Y-107479253D01*
X87673335Y-107461270D01*
X87673337Y-107461269D01*
X87683126Y-107459719D01*
X87803220Y-107398528D01*
X87898528Y-107303220D01*
X87959719Y-107183126D01*
X87960902Y-107183729D01*
X87995241Y-107133511D01*
X88060638Y-107105874D01*
X88130594Y-107117981D01*
X88182900Y-107165987D01*
X88190044Y-107181631D01*
X88190281Y-107183126D01*
X88194581Y-107191565D01*
X88194585Y-107191574D01*
X88235538Y-107271948D01*
X88251472Y-107303220D01*
X88346780Y-107398528D01*
X88466874Y-107459719D01*
X88476663Y-107461269D01*
X88476665Y-107461270D01*
X88590207Y-107479253D01*
X88600000Y-107480804D01*
X88609793Y-107479253D01*
X88723335Y-107461270D01*
X88723337Y-107461269D01*
X88733126Y-107459719D01*
X88853220Y-107398528D01*
X88948528Y-107303220D01*
X89009719Y-107183126D01*
X89021955Y-107105874D01*
X89029253Y-107059793D01*
X89030804Y-107050000D01*
X89029253Y-107040207D01*
X89011270Y-106926665D01*
X89011269Y-106926663D01*
X89009719Y-106916874D01*
X88948528Y-106796780D01*
X88853220Y-106701472D01*
X88733126Y-106640281D01*
X88723337Y-106638731D01*
X88723335Y-106638730D01*
X88609793Y-106620747D01*
X88600000Y-106619196D01*
X88590207Y-106620747D01*
X88476665Y-106638730D01*
X88476663Y-106638731D01*
X88466874Y-106640281D01*
X88346780Y-106701472D01*
X88251472Y-106796780D01*
X88190281Y-106916874D01*
X88189098Y-106916271D01*
X88154759Y-106966489D01*
X88089362Y-106994126D01*
X88019406Y-106982019D01*
X87967100Y-106934013D01*
X87959956Y-106918369D01*
X87959719Y-106916874D01*
X87955219Y-106908041D01*
X87903028Y-106805612D01*
X87898528Y-106796780D01*
X87803220Y-106701472D01*
X87683126Y-106640281D01*
X87673337Y-106638731D01*
X87673335Y-106638730D01*
X87559793Y-106620747D01*
X87550000Y-106619196D01*
X87540207Y-106620747D01*
X87426665Y-106638730D01*
X87426663Y-106638731D01*
X87416874Y-106640281D01*
X87296780Y-106701472D01*
X87201472Y-106796780D01*
X87140281Y-106916874D01*
X87138731Y-106926663D01*
X87138730Y-106926665D01*
X87120747Y-107040207D01*
X87119196Y-107050000D01*
X86780804Y-107050000D01*
X86779253Y-107040207D01*
X86761270Y-106926665D01*
X86761269Y-106926663D01*
X86759719Y-106916874D01*
X86698528Y-106796780D01*
X86603220Y-106701472D01*
X86483126Y-106640281D01*
X86473337Y-106638731D01*
X86473335Y-106638730D01*
X86359793Y-106620747D01*
X86350000Y-106619196D01*
X86340207Y-106620747D01*
X86226665Y-106638730D01*
X86226663Y-106638731D01*
X86216874Y-106640281D01*
X86096780Y-106701472D01*
X86001472Y-106796780D01*
X85940281Y-106916874D01*
X85938731Y-106926663D01*
X85938730Y-106926665D01*
X85920747Y-107040207D01*
X85919196Y-107050000D01*
X53700000Y-107050000D01*
X53700000Y-87350000D01*
X91394196Y-87350000D01*
X91415281Y-87483126D01*
X91476472Y-87603220D01*
X91571780Y-87698528D01*
X91691874Y-87759719D01*
X91701663Y-87761269D01*
X91701665Y-87761270D01*
X91815207Y-87779253D01*
X91825000Y-87780804D01*
X91834793Y-87779253D01*
X91948335Y-87761270D01*
X91948337Y-87761269D01*
X91958126Y-87759719D01*
X92078220Y-87698528D01*
X92173528Y-87603220D01*
X92234719Y-87483126D01*
X92255804Y-87350000D01*
X92234719Y-87216874D01*
X92173528Y-87096780D01*
X92078220Y-87001472D01*
X91958126Y-86940281D01*
X91948337Y-86938731D01*
X91948335Y-86938730D01*
X91834793Y-86920747D01*
X91825000Y-86919196D01*
X91815207Y-86920747D01*
X91701665Y-86938730D01*
X91701663Y-86938731D01*
X91691874Y-86940281D01*
X91571780Y-87001472D01*
X91476472Y-87096780D01*
X91415281Y-87216874D01*
X91394196Y-87350000D01*
X53700000Y-87350000D01*
X53700000Y-86650000D01*
X40076000Y-86650000D01*
X40007879Y-86629998D01*
X39961386Y-86576342D01*
X39950000Y-86524000D01*
X39950000Y-79550000D01*
X88144196Y-79550000D01*
X88165281Y-79683126D01*
X88226472Y-79803220D01*
X88321780Y-79898528D01*
X88441874Y-79959719D01*
X88451663Y-79961269D01*
X88451665Y-79961270D01*
X88565207Y-79979253D01*
X88575000Y-79980804D01*
X88584793Y-79979253D01*
X88698335Y-79961270D01*
X88698337Y-79961269D01*
X88708126Y-79959719D01*
X88828220Y-79898528D01*
X88923528Y-79803220D01*
X88984719Y-79683126D01*
X89005804Y-79550000D01*
X88984719Y-79416874D01*
X88923528Y-79296780D01*
X88828220Y-79201472D01*
X88708126Y-79140281D01*
X88698337Y-79138731D01*
X88698335Y-79138730D01*
X88584793Y-79120747D01*
X88575000Y-79119196D01*
X88565207Y-79120747D01*
X88451665Y-79138730D01*
X88451663Y-79138731D01*
X88441874Y-79140281D01*
X88321780Y-79201472D01*
X88226472Y-79296780D01*
X88165281Y-79416874D01*
X88144196Y-79550000D01*
X39950000Y-79550000D01*
X39950000Y-75476000D01*
X39970002Y-75407879D01*
X40023658Y-75361386D01*
X40076000Y-75350000D01*
X86750000Y-75350000D01*
X86750000Y-65376000D01*
X86770002Y-65307879D01*
X86823658Y-65261386D01*
X86876000Y-65250000D01*
X92624000Y-65250000D01*
X92692121Y-65270002D01*
G37*
%TD.AperFunction*%
%TD*%
%TA.AperFunction,Conductor*%
%TO.N,GND*%
G36*
X137250000Y-65052705D02*
G01*
X137250000Y-65055000D01*
X137350926Y-65056759D01*
X137356916Y-65057008D01*
X137452475Y-65063271D01*
X137460680Y-65064079D01*
X137689908Y-65094258D01*
X137698041Y-65095601D01*
X137775315Y-65110971D01*
X137783330Y-65112839D01*
X137952586Y-65158191D01*
X138006696Y-65172690D01*
X138014579Y-65175081D01*
X138089205Y-65200414D01*
X138096878Y-65203302D01*
X138310520Y-65291795D01*
X138318006Y-65295187D01*
X138388534Y-65329967D01*
X138388694Y-65330046D01*
X138395965Y-65333933D01*
X138596190Y-65449534D01*
X138603191Y-65453887D01*
X138645464Y-65482132D01*
X138668714Y-65497667D01*
X138675408Y-65502465D01*
X138858840Y-65643218D01*
X138865213Y-65648448D01*
X138924467Y-65700412D01*
X138930485Y-65706049D01*
X139093951Y-65869515D01*
X139099588Y-65875533D01*
X139151552Y-65934787D01*
X139156782Y-65941160D01*
X139297535Y-66124592D01*
X139302339Y-66131295D01*
X139346113Y-66196809D01*
X139350466Y-66203810D01*
X139466067Y-66404035D01*
X139469954Y-66411306D01*
X139504808Y-66481982D01*
X139508205Y-66489480D01*
X139596698Y-66703122D01*
X139599586Y-66710795D01*
X139624917Y-66785416D01*
X139627310Y-66793304D01*
X139687161Y-67016670D01*
X139689029Y-67024685D01*
X139704399Y-67101959D01*
X139705742Y-67110092D01*
X139735921Y-67339320D01*
X139736729Y-67347524D01*
X139742992Y-67443084D01*
X139743241Y-67449074D01*
X139745000Y-67550000D01*
X139747232Y-67550000D01*
X139750000Y-67568126D01*
X139750000Y-108924005D01*
X139729998Y-108992126D01*
X139676342Y-109038619D01*
X139624006Y-109050005D01*
X138117515Y-109050063D01*
X134421800Y-109050206D01*
X134421799Y-109050206D01*
X134403683Y-109050207D01*
X134400000Y-114550238D01*
X134400000Y-124450000D01*
X139624000Y-124450000D01*
X139692121Y-124470002D01*
X139738614Y-124523658D01*
X139750000Y-124576000D01*
X139750000Y-127525831D01*
X139747295Y-127550000D01*
X139745000Y-127550000D01*
X139743241Y-127650926D01*
X139742992Y-127656916D01*
X139742049Y-127671314D01*
X139736729Y-127752475D01*
X139735921Y-127760680D01*
X139705742Y-127989908D01*
X139704399Y-127998041D01*
X139689029Y-128075315D01*
X139687161Y-128083330D01*
X139644775Y-128241517D01*
X139627310Y-128306696D01*
X139624919Y-128314579D01*
X139599586Y-128389205D01*
X139596698Y-128396878D01*
X139508205Y-128610520D01*
X139504808Y-128618018D01*
X139469954Y-128688694D01*
X139466067Y-128695965D01*
X139350466Y-128896190D01*
X139346113Y-128903191D01*
X139302339Y-128968705D01*
X139297535Y-128975408D01*
X139156782Y-129158840D01*
X139151552Y-129165213D01*
X139099588Y-129224467D01*
X139093951Y-129230485D01*
X138930485Y-129393951D01*
X138924467Y-129399588D01*
X138865213Y-129451552D01*
X138858840Y-129456782D01*
X138675408Y-129597535D01*
X138668714Y-129602333D01*
X138645464Y-129617868D01*
X138603191Y-129646113D01*
X138596190Y-129650466D01*
X138395965Y-129766067D01*
X138388694Y-129769954D01*
X138318006Y-129804813D01*
X138310520Y-129808205D01*
X138096878Y-129896698D01*
X138089205Y-129899586D01*
X138014579Y-129924919D01*
X138006696Y-129927310D01*
X137952586Y-129941809D01*
X137783330Y-129987161D01*
X137775315Y-129989029D01*
X137698041Y-130004399D01*
X137689908Y-130005742D01*
X137460680Y-130035921D01*
X137452476Y-130036729D01*
X137356916Y-130042992D01*
X137350926Y-130043241D01*
X137296189Y-130044195D01*
X137266504Y-130044712D01*
X137266501Y-130044712D01*
X137250000Y-130045000D01*
X137250000Y-130047232D01*
X137231874Y-130050000D01*
X92576000Y-130050000D01*
X92507879Y-130029998D01*
X92461386Y-129976342D01*
X92450000Y-129924000D01*
X92450000Y-128850000D01*
X108719196Y-128850000D01*
X108720747Y-128859793D01*
X108727621Y-128903191D01*
X108740281Y-128983126D01*
X108801472Y-129103220D01*
X108896780Y-129198528D01*
X109016874Y-129259719D01*
X109026663Y-129261269D01*
X109026665Y-129261270D01*
X109140207Y-129279253D01*
X109150000Y-129280804D01*
X109159793Y-129279253D01*
X109273335Y-129261270D01*
X109273337Y-129261269D01*
X109283126Y-129259719D01*
X109403220Y-129198528D01*
X109498528Y-129103220D01*
X109559719Y-128983126D01*
X109572380Y-128903191D01*
X109579253Y-128859793D01*
X109580804Y-128850000D01*
X109559719Y-128716874D01*
X109498528Y-128596780D01*
X109403220Y-128501472D01*
X109283126Y-128440281D01*
X109273337Y-128438731D01*
X109273335Y-128438730D01*
X109159793Y-128420747D01*
X109150000Y-128419196D01*
X109140207Y-128420747D01*
X109026665Y-128438730D01*
X109026663Y-128438731D01*
X109016874Y-128440281D01*
X108896780Y-128501472D01*
X108801472Y-128596780D01*
X108740281Y-128716874D01*
X108719196Y-128850000D01*
X92450000Y-128850000D01*
X92450000Y-127900000D01*
X99719196Y-127900000D01*
X99720747Y-127909793D01*
X99724941Y-127936270D01*
X99740281Y-128033126D01*
X99801472Y-128153220D01*
X99896780Y-128248528D01*
X100016874Y-128309719D01*
X100026663Y-128311269D01*
X100026665Y-128311270D01*
X100140207Y-128329253D01*
X100150000Y-128330804D01*
X100159793Y-128329253D01*
X100273335Y-128311270D01*
X100273337Y-128311269D01*
X100283126Y-128309719D01*
X100403220Y-128248528D01*
X100498528Y-128153220D01*
X100559719Y-128033126D01*
X100575060Y-127936270D01*
X100579253Y-127909793D01*
X100580804Y-127900000D01*
X101719196Y-127900000D01*
X101720747Y-127909793D01*
X101724941Y-127936270D01*
X101740281Y-128033126D01*
X101801472Y-128153220D01*
X101896780Y-128248528D01*
X102016874Y-128309719D01*
X102026663Y-128311269D01*
X102026665Y-128311270D01*
X102140207Y-128329253D01*
X102150000Y-128330804D01*
X102159793Y-128329253D01*
X102273335Y-128311270D01*
X102273337Y-128311269D01*
X102283126Y-128309719D01*
X102403220Y-128248528D01*
X102498528Y-128153220D01*
X102559719Y-128033126D01*
X102575060Y-127936270D01*
X102579253Y-127909793D01*
X102580804Y-127900000D01*
X102575501Y-127866517D01*
X102561270Y-127776665D01*
X102561269Y-127776663D01*
X102559719Y-127766874D01*
X102498528Y-127646780D01*
X102403220Y-127551472D01*
X102283126Y-127490281D01*
X102273337Y-127488731D01*
X102273335Y-127488730D01*
X102159793Y-127470747D01*
X102150000Y-127469196D01*
X102140207Y-127470747D01*
X102026665Y-127488730D01*
X102026663Y-127488731D01*
X102016874Y-127490281D01*
X101896780Y-127551472D01*
X101801472Y-127646780D01*
X101740281Y-127766874D01*
X101738731Y-127776663D01*
X101738730Y-127776665D01*
X101724499Y-127866517D01*
X101719196Y-127900000D01*
X100580804Y-127900000D01*
X100575501Y-127866517D01*
X100561270Y-127776665D01*
X100561269Y-127776663D01*
X100559719Y-127766874D01*
X100498528Y-127646780D01*
X100403220Y-127551472D01*
X100283126Y-127490281D01*
X100273337Y-127488731D01*
X100273335Y-127488730D01*
X100159793Y-127470747D01*
X100150000Y-127469196D01*
X100140207Y-127470747D01*
X100026665Y-127488730D01*
X100026663Y-127488731D01*
X100016874Y-127490281D01*
X99896780Y-127551472D01*
X99801472Y-127646780D01*
X99740281Y-127766874D01*
X99738731Y-127776663D01*
X99738730Y-127776665D01*
X99724499Y-127866517D01*
X99719196Y-127900000D01*
X92450000Y-127900000D01*
X92450000Y-127671314D01*
X92450415Y-127661099D01*
X92454661Y-127608893D01*
X92454843Y-127606658D01*
X92455347Y-127558483D01*
X92455413Y-127552221D01*
X92455413Y-127552214D01*
X92455436Y-127550000D01*
X92455254Y-127546972D01*
X92450228Y-127463615D01*
X92450000Y-127456032D01*
X92450000Y-124650000D01*
X85476000Y-124650000D01*
X85407879Y-124629998D01*
X85361386Y-124576342D01*
X85350000Y-124524000D01*
X85350000Y-123299118D01*
X98245700Y-123299118D01*
X98276090Y-123500058D01*
X98346263Y-123690782D01*
X98349621Y-123696198D01*
X98349623Y-123696202D01*
X98449990Y-123858078D01*
X98449993Y-123858082D01*
X98453353Y-123863501D01*
X98457739Y-123868139D01*
X98573243Y-123990281D01*
X98592986Y-124011159D01*
X98759457Y-124127723D01*
X98945967Y-124208433D01*
X98952215Y-124209738D01*
X98952214Y-124209738D01*
X99140152Y-124249001D01*
X99140156Y-124249001D01*
X99144897Y-124249992D01*
X99149734Y-124250245D01*
X99149738Y-124250246D01*
X99150988Y-124250311D01*
X99154591Y-124250500D01*
X99299224Y-124250500D01*
X99404348Y-124239822D01*
X99445835Y-124235608D01*
X99445836Y-124235608D01*
X99452184Y-124234963D01*
X99646109Y-124174191D01*
X99823852Y-124075666D01*
X99978155Y-123943412D01*
X100102712Y-123782834D01*
X100192437Y-123600489D01*
X100199785Y-123572280D01*
X100242054Y-123410009D01*
X100242054Y-123410006D01*
X100243664Y-123403827D01*
X100254300Y-123200882D01*
X100223910Y-122999942D01*
X100153737Y-122809218D01*
X100150379Y-122803802D01*
X100150377Y-122803798D01*
X100050010Y-122641922D01*
X100050007Y-122641918D01*
X100046647Y-122636499D01*
X99907014Y-122488841D01*
X99740543Y-122372277D01*
X99554033Y-122291567D01*
X99508214Y-122281995D01*
X99359848Y-122250999D01*
X99359844Y-122250999D01*
X99355103Y-122250008D01*
X99350266Y-122249755D01*
X99350262Y-122249754D01*
X99349012Y-122249689D01*
X99345409Y-122249500D01*
X99200776Y-122249500D01*
X99186019Y-122250999D01*
X99054165Y-122264392D01*
X99054164Y-122264392D01*
X99047816Y-122265037D01*
X98853891Y-122325809D01*
X98676148Y-122424334D01*
X98521845Y-122556588D01*
X98397288Y-122717166D01*
X98307563Y-122899511D01*
X98305954Y-122905689D01*
X98305953Y-122905691D01*
X98279758Y-123006257D01*
X98256336Y-123096173D01*
X98245700Y-123299118D01*
X85350000Y-123299118D01*
X85350000Y-114550000D01*
X87950000Y-114550000D01*
X87950000Y-120550000D01*
X105924000Y-120550000D01*
X105992121Y-120570002D01*
X106038614Y-120623658D01*
X106050000Y-120676000D01*
X106050000Y-122346917D01*
X106029998Y-122415038D01*
X105976342Y-122461531D01*
X105906068Y-122471635D01*
X105851730Y-122450130D01*
X105745778Y-122375942D01*
X105745773Y-122375939D01*
X105740543Y-122372277D01*
X105554033Y-122291567D01*
X105508214Y-122281995D01*
X105359848Y-122250999D01*
X105359844Y-122250999D01*
X105355103Y-122250008D01*
X105350266Y-122249755D01*
X105350262Y-122249754D01*
X105349012Y-122249689D01*
X105345409Y-122249500D01*
X105200776Y-122249500D01*
X105186019Y-122250999D01*
X105054165Y-122264392D01*
X105054164Y-122264392D01*
X105047816Y-122265037D01*
X104853891Y-122325809D01*
X104676148Y-122424334D01*
X104521845Y-122556588D01*
X104397288Y-122717166D01*
X104307563Y-122899511D01*
X104305954Y-122905689D01*
X104305953Y-122905691D01*
X104279758Y-123006257D01*
X104256336Y-123096173D01*
X104245700Y-123299118D01*
X104276090Y-123500058D01*
X104346263Y-123690782D01*
X104349621Y-123696198D01*
X104349623Y-123696202D01*
X104449990Y-123858078D01*
X104449993Y-123858082D01*
X104453353Y-123863501D01*
X104457739Y-123868139D01*
X104573243Y-123990281D01*
X104592986Y-124011159D01*
X104759457Y-124127723D01*
X104945967Y-124208433D01*
X104952215Y-124209738D01*
X104952214Y-124209738D01*
X105140152Y-124249001D01*
X105140156Y-124249001D01*
X105144897Y-124249992D01*
X105149734Y-124250245D01*
X105149738Y-124250246D01*
X105150988Y-124250311D01*
X105154591Y-124250500D01*
X105299224Y-124250500D01*
X105404348Y-124239822D01*
X105445835Y-124235608D01*
X105445836Y-124235608D01*
X105452184Y-124234963D01*
X105646109Y-124174191D01*
X105823852Y-124075666D01*
X105828700Y-124071511D01*
X105842004Y-124060109D01*
X105906743Y-124030965D01*
X105976961Y-124041449D01*
X106030365Y-124088232D01*
X106050000Y-124155778D01*
X106050000Y-124650000D01*
X111470647Y-124650000D01*
X111538768Y-124670002D01*
X111585261Y-124723658D01*
X111595365Y-124793932D01*
X111582915Y-124833201D01*
X111540281Y-124916874D01*
X111538731Y-124926663D01*
X111538730Y-124926665D01*
X111527115Y-125000000D01*
X111519196Y-125050000D01*
X111540281Y-125183126D01*
X111601472Y-125303220D01*
X111696780Y-125398528D01*
X111816874Y-125459719D01*
X111826663Y-125461269D01*
X111826665Y-125461270D01*
X111940207Y-125479253D01*
X111950000Y-125480804D01*
X111959793Y-125479253D01*
X112073335Y-125461270D01*
X112073337Y-125461269D01*
X112083126Y-125459719D01*
X112203220Y-125398528D01*
X112298528Y-125303220D01*
X112359719Y-125183126D01*
X112380804Y-125050000D01*
X112372885Y-125000000D01*
X112361270Y-124926665D01*
X112361269Y-124926663D01*
X112359719Y-124916874D01*
X112317086Y-124833202D01*
X112303982Y-124763427D01*
X112330682Y-124697642D01*
X112388709Y-124656735D01*
X112429353Y-124650000D01*
X112945170Y-124650000D01*
X113013291Y-124670002D01*
X113059784Y-124723658D01*
X113069888Y-124793932D01*
X113057437Y-124833202D01*
X113044783Y-124858038D01*
X113040281Y-124866874D01*
X113019196Y-125000000D01*
X113040281Y-125133126D01*
X113101472Y-125253220D01*
X113196780Y-125348528D01*
X113316874Y-125409719D01*
X113326663Y-125411269D01*
X113326665Y-125411270D01*
X113440207Y-125429253D01*
X113450000Y-125430804D01*
X113459793Y-125429253D01*
X113573335Y-125411270D01*
X113573337Y-125411269D01*
X113583126Y-125409719D01*
X113703220Y-125348528D01*
X113798528Y-125253220D01*
X113859719Y-125133126D01*
X113880804Y-125000000D01*
X113859719Y-124866874D01*
X113855217Y-124858038D01*
X113842563Y-124833202D01*
X113829459Y-124763425D01*
X113856160Y-124697641D01*
X113914187Y-124656735D01*
X113954830Y-124650000D01*
X114445170Y-124650000D01*
X114513291Y-124670002D01*
X114559784Y-124723658D01*
X114569888Y-124793932D01*
X114557437Y-124833202D01*
X114544783Y-124858038D01*
X114540281Y-124866874D01*
X114519196Y-125000000D01*
X114540281Y-125133126D01*
X114601472Y-125253220D01*
X114696780Y-125348528D01*
X114816874Y-125409719D01*
X114826663Y-125411269D01*
X114826665Y-125411270D01*
X114940207Y-125429253D01*
X114950000Y-125430804D01*
X114959793Y-125429253D01*
X115073335Y-125411270D01*
X115073337Y-125411269D01*
X115083126Y-125409719D01*
X115203220Y-125348528D01*
X115298528Y-125253220D01*
X115300169Y-125250000D01*
X120750000Y-125250000D01*
X120750000Y-128150000D01*
X124950000Y-128150000D01*
X124950000Y-125250000D01*
X120750000Y-125250000D01*
X115300169Y-125250000D01*
X115359719Y-125133126D01*
X115380804Y-125000000D01*
X115359719Y-124866874D01*
X115355217Y-124858038D01*
X115342563Y-124833202D01*
X115329459Y-124763425D01*
X115356160Y-124697641D01*
X115414187Y-124656735D01*
X115454830Y-124650000D01*
X121496062Y-124650000D01*
X121564183Y-124670002D01*
X121585157Y-124686905D01*
X121646780Y-124748528D01*
X121766874Y-124809719D01*
X121776663Y-124811269D01*
X121776665Y-124811270D01*
X121890207Y-124829253D01*
X121900000Y-124830804D01*
X121909793Y-124829253D01*
X122023335Y-124811270D01*
X122023337Y-124811269D01*
X122033126Y-124809719D01*
X122153220Y-124748528D01*
X122214843Y-124686905D01*
X122277155Y-124652879D01*
X122303938Y-124650000D01*
X126524000Y-124650000D01*
X126592121Y-124670002D01*
X126638614Y-124723658D01*
X126650000Y-124776000D01*
X126650000Y-127150000D01*
X128082908Y-127150000D01*
X128151029Y-127170002D01*
X128197522Y-127223658D01*
X128207626Y-127293932D01*
X128195175Y-127333202D01*
X128169783Y-127383038D01*
X128165281Y-127391874D01*
X128163731Y-127401663D01*
X128163730Y-127401665D01*
X128149695Y-127490281D01*
X128144196Y-127525000D01*
X128145747Y-127534793D01*
X128162374Y-127639769D01*
X128165281Y-127658126D01*
X128226472Y-127778220D01*
X128321780Y-127873528D01*
X128441874Y-127934719D01*
X128451663Y-127936269D01*
X128451665Y-127936270D01*
X128565207Y-127954253D01*
X128575000Y-127955804D01*
X128584793Y-127954253D01*
X128698335Y-127936270D01*
X128698337Y-127936269D01*
X128708126Y-127934719D01*
X128828220Y-127873528D01*
X128923528Y-127778220D01*
X128984719Y-127658126D01*
X128987627Y-127639769D01*
X129004253Y-127534793D01*
X129005804Y-127525000D01*
X129000305Y-127490281D01*
X128986270Y-127401665D01*
X128986269Y-127401663D01*
X128984719Y-127391874D01*
X128980217Y-127383038D01*
X128954825Y-127333202D01*
X128941721Y-127263425D01*
X128968422Y-127197641D01*
X129026449Y-127156735D01*
X129067092Y-127150000D01*
X129250000Y-127150000D01*
X129250000Y-124700000D01*
X128476000Y-124700000D01*
X128407879Y-124679998D01*
X128361386Y-124626342D01*
X128350000Y-124574000D01*
X128350000Y-122550000D01*
X109776000Y-122550000D01*
X109707879Y-122529998D01*
X109661386Y-122476342D01*
X109650000Y-122424000D01*
X109650000Y-121000000D01*
X111119196Y-121000000D01*
X111120747Y-121009793D01*
X111132229Y-121082285D01*
X111140281Y-121133126D01*
X111201472Y-121253220D01*
X111296780Y-121348528D01*
X111416874Y-121409719D01*
X111426663Y-121411269D01*
X111426665Y-121411270D01*
X111540207Y-121429253D01*
X111550000Y-121430804D01*
X111559793Y-121429253D01*
X111673335Y-121411270D01*
X111673337Y-121411269D01*
X111683126Y-121409719D01*
X111803220Y-121348528D01*
X111814139Y-121337609D01*
X111876451Y-121303583D01*
X111947266Y-121308648D01*
X112004102Y-121351195D01*
X112028913Y-121417715D01*
X112027683Y-121446415D01*
X112019196Y-121500000D01*
X112020747Y-121509793D01*
X112035659Y-121603942D01*
X112040281Y-121633126D01*
X112101472Y-121753220D01*
X112196780Y-121848528D01*
X112316874Y-121909719D01*
X112326663Y-121911269D01*
X112326665Y-121911270D01*
X112440207Y-121929253D01*
X112450000Y-121930804D01*
X112459793Y-121929253D01*
X112573335Y-121911270D01*
X112573337Y-121911269D01*
X112583126Y-121909719D01*
X112703220Y-121848528D01*
X112798528Y-121753220D01*
X112859719Y-121633126D01*
X112864342Y-121603942D01*
X112879253Y-121509793D01*
X112880804Y-121500000D01*
X112876890Y-121475286D01*
X120242466Y-121475286D01*
X120248911Y-121483896D01*
X120303812Y-121519822D01*
X120316300Y-121526130D01*
X120460810Y-121579872D01*
X120474392Y-121583259D01*
X120627214Y-121603649D01*
X120641204Y-121603942D01*
X120794751Y-121589969D01*
X120808462Y-121587154D01*
X120955089Y-121539512D01*
X120967839Y-121533728D01*
X121048609Y-121485580D01*
X121058153Y-121475286D01*
X121442466Y-121475286D01*
X121448911Y-121483896D01*
X121503812Y-121519822D01*
X121516300Y-121526130D01*
X121660810Y-121579872D01*
X121674392Y-121583259D01*
X121827214Y-121603649D01*
X121841204Y-121603942D01*
X121994751Y-121589969D01*
X122008462Y-121587154D01*
X122155089Y-121539512D01*
X122167839Y-121533728D01*
X122248609Y-121485580D01*
X122258153Y-121475286D01*
X122517466Y-121475286D01*
X122523911Y-121483896D01*
X122578812Y-121519822D01*
X122591300Y-121526130D01*
X122735810Y-121579872D01*
X122749392Y-121583259D01*
X122902214Y-121603649D01*
X122916204Y-121603942D01*
X123069751Y-121589969D01*
X123083462Y-121587154D01*
X123230089Y-121539512D01*
X123242839Y-121533728D01*
X123323609Y-121485580D01*
X123333153Y-121475286D01*
X123742466Y-121475286D01*
X123748911Y-121483896D01*
X123803812Y-121519822D01*
X123816300Y-121526130D01*
X123960810Y-121579872D01*
X123974392Y-121583259D01*
X124127214Y-121603649D01*
X124141204Y-121603942D01*
X124294751Y-121589969D01*
X124308462Y-121587154D01*
X124455089Y-121539512D01*
X124467839Y-121533728D01*
X124548609Y-121485580D01*
X124558198Y-121475238D01*
X124554694Y-121466826D01*
X124162812Y-121074944D01*
X124148868Y-121067330D01*
X124147035Y-121067461D01*
X124140420Y-121071712D01*
X123749226Y-121462906D01*
X123742466Y-121475286D01*
X123333153Y-121475286D01*
X123333198Y-121475238D01*
X123329694Y-121466826D01*
X122937812Y-121074944D01*
X122923868Y-121067330D01*
X122922035Y-121067461D01*
X122915420Y-121071712D01*
X122524226Y-121462906D01*
X122517466Y-121475286D01*
X122258153Y-121475286D01*
X122258198Y-121475238D01*
X122254693Y-121466825D01*
X121862812Y-121074944D01*
X121848868Y-121067330D01*
X121847035Y-121067461D01*
X121840420Y-121071712D01*
X121449226Y-121462906D01*
X121442466Y-121475286D01*
X121058153Y-121475286D01*
X121058198Y-121475238D01*
X121054694Y-121466826D01*
X120662812Y-121074944D01*
X120648868Y-121067330D01*
X120647035Y-121067461D01*
X120640420Y-121071712D01*
X120249226Y-121462906D01*
X120242466Y-121475286D01*
X112876890Y-121475286D01*
X112872317Y-121446415D01*
X112861270Y-121376665D01*
X112861269Y-121376663D01*
X112859719Y-121366874D01*
X112798528Y-121246780D01*
X112703220Y-121151472D01*
X112583126Y-121090281D01*
X112573337Y-121088731D01*
X112573335Y-121088730D01*
X112459793Y-121070747D01*
X112450000Y-121069196D01*
X112440207Y-121070747D01*
X112326665Y-121088730D01*
X112326663Y-121088731D01*
X112316874Y-121090281D01*
X112196780Y-121151472D01*
X112185861Y-121162391D01*
X112123549Y-121196417D01*
X112052734Y-121191352D01*
X111995898Y-121148805D01*
X111971087Y-121082285D01*
X111972317Y-121053585D01*
X111979253Y-121009793D01*
X111980804Y-121000000D01*
X111959719Y-120866874D01*
X111949324Y-120846472D01*
X119896015Y-120846472D01*
X119911060Y-120999913D01*
X119913971Y-121013605D01*
X119962636Y-121159897D01*
X119968507Y-121172604D01*
X120014477Y-121248509D01*
X120024886Y-121258026D01*
X120033503Y-121254365D01*
X120425056Y-120862812D01*
X120432670Y-120848868D01*
X120432539Y-120847035D01*
X120428288Y-120840420D01*
X120037064Y-120449196D01*
X120024684Y-120442436D01*
X120016313Y-120448702D01*
X119977782Y-120508490D01*
X119971555Y-120521035D01*
X119918827Y-120665904D01*
X119915533Y-120679518D01*
X119896211Y-120832475D01*
X119896015Y-120846472D01*
X111949324Y-120846472D01*
X111898528Y-120746780D01*
X111803220Y-120651472D01*
X111683126Y-120590281D01*
X111673337Y-120588731D01*
X111673335Y-120588730D01*
X111559793Y-120570747D01*
X111550000Y-120569196D01*
X111540207Y-120570747D01*
X111426665Y-120588730D01*
X111426663Y-120588731D01*
X111416874Y-120590281D01*
X111296780Y-120651472D01*
X111201472Y-120746780D01*
X111140281Y-120866874D01*
X111119196Y-121000000D01*
X109650000Y-121000000D01*
X109650000Y-120300000D01*
X112019196Y-120300000D01*
X112040281Y-120433126D01*
X112101472Y-120553220D01*
X112196780Y-120648528D01*
X112316874Y-120709719D01*
X112326663Y-120711269D01*
X112326665Y-120711270D01*
X112440207Y-120729253D01*
X112450000Y-120730804D01*
X112459793Y-120729253D01*
X112573335Y-120711270D01*
X112573337Y-120711269D01*
X112583126Y-120709719D01*
X112703220Y-120648528D01*
X112798528Y-120553220D01*
X112859719Y-120433126D01*
X112880804Y-120300000D01*
X112859719Y-120166874D01*
X112798528Y-120046780D01*
X112703220Y-119951472D01*
X112583126Y-119890281D01*
X112573337Y-119888731D01*
X112573335Y-119888730D01*
X112459793Y-119870747D01*
X112450000Y-119869196D01*
X112440207Y-119870747D01*
X112326665Y-119888730D01*
X112326663Y-119888731D01*
X112316874Y-119890281D01*
X112196780Y-119951472D01*
X112101472Y-120046780D01*
X112040281Y-120166874D01*
X112019196Y-120300000D01*
X109650000Y-120300000D01*
X109650000Y-119696472D01*
X119896015Y-119696472D01*
X119911060Y-119849913D01*
X119913971Y-119863605D01*
X119962636Y-120009897D01*
X119968507Y-120022604D01*
X120014477Y-120098509D01*
X120024886Y-120108026D01*
X120033503Y-120104365D01*
X120425056Y-119712812D01*
X120432670Y-119698868D01*
X120432539Y-119697035D01*
X120428288Y-119690420D01*
X120037064Y-119299196D01*
X120024684Y-119292436D01*
X120016313Y-119298702D01*
X119977782Y-119358490D01*
X119971555Y-119371035D01*
X119918827Y-119515904D01*
X119915533Y-119529518D01*
X119896211Y-119682475D01*
X119896015Y-119696472D01*
X109650000Y-119696472D01*
X109650000Y-118750000D01*
X115969196Y-118750000D01*
X115990281Y-118883126D01*
X116051472Y-119003220D01*
X116146780Y-119098528D01*
X116266874Y-119159719D01*
X116276663Y-119161269D01*
X116276665Y-119161270D01*
X116390207Y-119179253D01*
X116400000Y-119180804D01*
X116409793Y-119179253D01*
X116523335Y-119161270D01*
X116523337Y-119161269D01*
X116533126Y-119159719D01*
X116648109Y-119101132D01*
X120267330Y-119101132D01*
X120267461Y-119102965D01*
X120271712Y-119109580D01*
X120773037Y-119610905D01*
X120807063Y-119673217D01*
X120801998Y-119744032D01*
X120773037Y-119789095D01*
X120299944Y-120262188D01*
X120292330Y-120276132D01*
X120292461Y-120277965D01*
X120296712Y-120284580D01*
X121237188Y-121225056D01*
X121251132Y-121232670D01*
X121252965Y-121232539D01*
X121259580Y-121228288D01*
X121636736Y-120851132D01*
X122067330Y-120851132D01*
X122067461Y-120852965D01*
X122071712Y-120859580D01*
X122374688Y-121162556D01*
X122388632Y-121170170D01*
X122390465Y-121170039D01*
X122397080Y-121165788D01*
X122700056Y-120862812D01*
X122707670Y-120848868D01*
X122707539Y-120847035D01*
X122703288Y-120840420D01*
X122400312Y-120537444D01*
X122386368Y-120529830D01*
X122384535Y-120529961D01*
X122377920Y-120534212D01*
X122074944Y-120837188D01*
X122067330Y-120851132D01*
X121636736Y-120851132D01*
X122200056Y-120287812D01*
X122207670Y-120273868D01*
X122207539Y-120272035D01*
X122203288Y-120265420D01*
X121726963Y-119789095D01*
X121692937Y-119726783D01*
X121694772Y-119701132D01*
X122067330Y-119701132D01*
X122067461Y-119702965D01*
X122071712Y-119709580D01*
X122374688Y-120012556D01*
X122388632Y-120020170D01*
X122390465Y-120020039D01*
X122397080Y-120015788D01*
X122700056Y-119712812D01*
X122707670Y-119698868D01*
X122707539Y-119697035D01*
X122703288Y-119690420D01*
X122400312Y-119387444D01*
X122386368Y-119379830D01*
X122384535Y-119379961D01*
X122377920Y-119384212D01*
X122074944Y-119687188D01*
X122067330Y-119701132D01*
X121694772Y-119701132D01*
X121698002Y-119655968D01*
X121726963Y-119610905D01*
X122225056Y-119112812D01*
X122231434Y-119101132D01*
X122542330Y-119101132D01*
X122542461Y-119102965D01*
X122546712Y-119109580D01*
X123048037Y-119610905D01*
X123082063Y-119673217D01*
X123076998Y-119744032D01*
X123048037Y-119789095D01*
X122574944Y-120262188D01*
X122567330Y-120276132D01*
X122567461Y-120277965D01*
X122571712Y-120284580D01*
X123524688Y-121237556D01*
X123538632Y-121245170D01*
X123540465Y-121245039D01*
X123547080Y-121240788D01*
X123936736Y-120851132D01*
X124367330Y-120851132D01*
X124367461Y-120852965D01*
X124371712Y-120859580D01*
X124762901Y-121250769D01*
X124774195Y-121256937D01*
X124786740Y-121246984D01*
X124817384Y-121200861D01*
X124823785Y-121188407D01*
X124878534Y-121044280D01*
X124882014Y-121030726D01*
X124903901Y-120874996D01*
X124904507Y-120867114D01*
X124904691Y-120853963D01*
X124904304Y-120846062D01*
X124886775Y-120689783D01*
X124883674Y-120676137D01*
X124832971Y-120530539D01*
X124826921Y-120517911D01*
X124785488Y-120451603D01*
X124774951Y-120442235D01*
X124765903Y-120446229D01*
X124374944Y-120837188D01*
X124367330Y-120851132D01*
X123936736Y-120851132D01*
X124500056Y-120287812D01*
X124507670Y-120273868D01*
X124507539Y-120272035D01*
X124503288Y-120265420D01*
X124026963Y-119789095D01*
X123992937Y-119726783D01*
X123994772Y-119701132D01*
X124367330Y-119701132D01*
X124367461Y-119702965D01*
X124371712Y-119709580D01*
X124762901Y-120100769D01*
X124774195Y-120106937D01*
X124786740Y-120096984D01*
X124817384Y-120050861D01*
X124823785Y-120038407D01*
X124878534Y-119894280D01*
X124882014Y-119880726D01*
X124903901Y-119724996D01*
X124904507Y-119717114D01*
X124904691Y-119703963D01*
X124904304Y-119696062D01*
X124886775Y-119539783D01*
X124883674Y-119526137D01*
X124832971Y-119380539D01*
X124826921Y-119367911D01*
X124785488Y-119301603D01*
X124774951Y-119292235D01*
X124765903Y-119296229D01*
X124374944Y-119687188D01*
X124367330Y-119701132D01*
X123994772Y-119701132D01*
X123998002Y-119655968D01*
X124026963Y-119610905D01*
X124525056Y-119112812D01*
X124532670Y-119098868D01*
X124532539Y-119097035D01*
X124528288Y-119090420D01*
X124026963Y-118589095D01*
X123992937Y-118526783D01*
X123994772Y-118501132D01*
X124367330Y-118501132D01*
X124367461Y-118502965D01*
X124371712Y-118509580D01*
X124762901Y-118900769D01*
X124774195Y-118906937D01*
X124786740Y-118896984D01*
X124817384Y-118850861D01*
X124823785Y-118838407D01*
X124878534Y-118694280D01*
X124882014Y-118680726D01*
X124903901Y-118524996D01*
X124904507Y-118517114D01*
X124904691Y-118503963D01*
X124904304Y-118496062D01*
X124887283Y-118344313D01*
X129119196Y-118344313D01*
X129120747Y-118354106D01*
X129137339Y-118458861D01*
X129140281Y-118477439D01*
X129201472Y-118597533D01*
X129296780Y-118692841D01*
X129416874Y-118754032D01*
X129426663Y-118755582D01*
X129426665Y-118755583D01*
X129540207Y-118773566D01*
X129550000Y-118775117D01*
X129559793Y-118773566D01*
X129673335Y-118755583D01*
X129673337Y-118755582D01*
X129683126Y-118754032D01*
X129803220Y-118692841D01*
X129880194Y-118615867D01*
X129942506Y-118581841D01*
X130013321Y-118586906D01*
X130058384Y-118615867D01*
X130116780Y-118674263D01*
X130236874Y-118735454D01*
X130246663Y-118737004D01*
X130246665Y-118737005D01*
X130360207Y-118754988D01*
X130370000Y-118756539D01*
X130379793Y-118754988D01*
X130493335Y-118737005D01*
X130493337Y-118737004D01*
X130503126Y-118735454D01*
X130623220Y-118674263D01*
X130718528Y-118578955D01*
X130779719Y-118458861D01*
X130781633Y-118446780D01*
X130799253Y-118335528D01*
X130800804Y-118325735D01*
X130793422Y-118279126D01*
X130781270Y-118202400D01*
X130781269Y-118202398D01*
X130779719Y-118192609D01*
X130718528Y-118072515D01*
X130623220Y-117977207D01*
X130503126Y-117916016D01*
X130493335Y-117914465D01*
X130493334Y-117914465D01*
X130467145Y-117910317D01*
X130402992Y-117879904D01*
X130365465Y-117819636D01*
X130362407Y-117766158D01*
X130379253Y-117659794D01*
X130379253Y-117659793D01*
X130380804Y-117650000D01*
X130375422Y-117616017D01*
X130361270Y-117526665D01*
X130361269Y-117526663D01*
X130359719Y-117516874D01*
X130298528Y-117396780D01*
X130290843Y-117389095D01*
X130290286Y-117388075D01*
X130285689Y-117381748D01*
X130286507Y-117381154D01*
X130256817Y-117326783D01*
X130261882Y-117255968D01*
X130285984Y-117218466D01*
X130285689Y-117218252D01*
X130289432Y-117213100D01*
X130290843Y-117210905D01*
X130298528Y-117203220D01*
X130359719Y-117083126D01*
X130368089Y-117030284D01*
X130379253Y-116959793D01*
X130380804Y-116950000D01*
X130359719Y-116816874D01*
X130298528Y-116696780D01*
X130203220Y-116601472D01*
X130083126Y-116540281D01*
X130073337Y-116538731D01*
X130073335Y-116538730D01*
X129959793Y-116520747D01*
X129950000Y-116519196D01*
X129940207Y-116520747D01*
X129826665Y-116538730D01*
X129826663Y-116538731D01*
X129816874Y-116540281D01*
X129696780Y-116601472D01*
X129601472Y-116696780D01*
X129540281Y-116816874D01*
X129519196Y-116950000D01*
X129520747Y-116959793D01*
X129531912Y-117030284D01*
X129540281Y-117083126D01*
X129601472Y-117203220D01*
X129609157Y-117210905D01*
X129609714Y-117211925D01*
X129614311Y-117218252D01*
X129613493Y-117218846D01*
X129643183Y-117273217D01*
X129638118Y-117344032D01*
X129614016Y-117381534D01*
X129614311Y-117381748D01*
X129610568Y-117386900D01*
X129609157Y-117389095D01*
X129601472Y-117396780D01*
X129540281Y-117516874D01*
X129538731Y-117526663D01*
X129538730Y-117526665D01*
X129524578Y-117616017D01*
X129519196Y-117650000D01*
X129520747Y-117659793D01*
X129540281Y-117783126D01*
X129537452Y-117783574D01*
X129539041Y-117838994D01*
X129502385Y-117899795D01*
X129436888Y-117931424D01*
X129426666Y-117933043D01*
X129426665Y-117933043D01*
X129416874Y-117934594D01*
X129296780Y-117995785D01*
X129201472Y-118091093D01*
X129140281Y-118211187D01*
X129138731Y-118220976D01*
X129138730Y-118220978D01*
X129123174Y-118319196D01*
X129119196Y-118344313D01*
X124887283Y-118344313D01*
X124886775Y-118339783D01*
X124883674Y-118326137D01*
X124832971Y-118180539D01*
X124826921Y-118167911D01*
X124785488Y-118101603D01*
X124774951Y-118092235D01*
X124765903Y-118096229D01*
X124374944Y-118487188D01*
X124367330Y-118501132D01*
X123994772Y-118501132D01*
X123998002Y-118455968D01*
X124026963Y-118410905D01*
X124500056Y-117937812D01*
X124507670Y-117923868D01*
X124507539Y-117922035D01*
X124503288Y-117915420D01*
X123939000Y-117351132D01*
X124367330Y-117351132D01*
X124367461Y-117352965D01*
X124371712Y-117359580D01*
X124762901Y-117750769D01*
X124774195Y-117756937D01*
X124786740Y-117746984D01*
X124817384Y-117700861D01*
X124823785Y-117688407D01*
X124878534Y-117544280D01*
X124882014Y-117530726D01*
X124903901Y-117374996D01*
X124904507Y-117367114D01*
X124904691Y-117353963D01*
X124904304Y-117346062D01*
X124886775Y-117189783D01*
X124883674Y-117176137D01*
X124832971Y-117030539D01*
X124826921Y-117017911D01*
X124785488Y-116951603D01*
X124774951Y-116942235D01*
X124765903Y-116946229D01*
X124374944Y-117337188D01*
X124367330Y-117351132D01*
X123939000Y-117351132D01*
X123550312Y-116962444D01*
X123536368Y-116954830D01*
X123534535Y-116954961D01*
X123527920Y-116959212D01*
X122574944Y-117912188D01*
X122567330Y-117926132D01*
X122567461Y-117927965D01*
X122571712Y-117934580D01*
X123048037Y-118410905D01*
X123082063Y-118473217D01*
X123076998Y-118544032D01*
X123048037Y-118589095D01*
X122549944Y-119087188D01*
X122542330Y-119101132D01*
X122231434Y-119101132D01*
X122232670Y-119098868D01*
X122232539Y-119097035D01*
X122228288Y-119090420D01*
X121726963Y-118589095D01*
X121692937Y-118526783D01*
X121694772Y-118501132D01*
X122067330Y-118501132D01*
X122067461Y-118502965D01*
X122071712Y-118509580D01*
X122374688Y-118812556D01*
X122388632Y-118820170D01*
X122390465Y-118820039D01*
X122397080Y-118815788D01*
X122700056Y-118512812D01*
X122707670Y-118498868D01*
X122707539Y-118497035D01*
X122703288Y-118490420D01*
X122400312Y-118187444D01*
X122386368Y-118179830D01*
X122384535Y-118179961D01*
X122377920Y-118184212D01*
X122074944Y-118487188D01*
X122067330Y-118501132D01*
X121694772Y-118501132D01*
X121698002Y-118455968D01*
X121726963Y-118410905D01*
X122200056Y-117937812D01*
X122207670Y-117923868D01*
X122207539Y-117922035D01*
X122203288Y-117915420D01*
X121639000Y-117351132D01*
X122067330Y-117351132D01*
X122067461Y-117352965D01*
X122071712Y-117359580D01*
X122374688Y-117662556D01*
X122388632Y-117670170D01*
X122390465Y-117670039D01*
X122397080Y-117665788D01*
X122700056Y-117362812D01*
X122707670Y-117348868D01*
X122707539Y-117347035D01*
X122703288Y-117340420D01*
X122400312Y-117037444D01*
X122386368Y-117029830D01*
X122384535Y-117029961D01*
X122377920Y-117034212D01*
X122074944Y-117337188D01*
X122067330Y-117351132D01*
X121639000Y-117351132D01*
X121262812Y-116974944D01*
X121248868Y-116967330D01*
X121247035Y-116967461D01*
X121240420Y-116971712D01*
X120299944Y-117912188D01*
X120292330Y-117926132D01*
X120292461Y-117927965D01*
X120296712Y-117934580D01*
X120773037Y-118410905D01*
X120807063Y-118473217D01*
X120801998Y-118544032D01*
X120773037Y-118589095D01*
X120274944Y-119087188D01*
X120267330Y-119101132D01*
X116648109Y-119101132D01*
X116653220Y-119098528D01*
X116748528Y-119003220D01*
X116809719Y-118883126D01*
X116830804Y-118750000D01*
X116819521Y-118678763D01*
X116811270Y-118626665D01*
X116811269Y-118626663D01*
X116809719Y-118616874D01*
X116748528Y-118496780D01*
X116748220Y-118496472D01*
X119896015Y-118496472D01*
X119911060Y-118649913D01*
X119913971Y-118663605D01*
X119962636Y-118809897D01*
X119968507Y-118822604D01*
X120014477Y-118898509D01*
X120024886Y-118908026D01*
X120033503Y-118904365D01*
X120425056Y-118512812D01*
X120432670Y-118498868D01*
X120432539Y-118497035D01*
X120428288Y-118490420D01*
X120037064Y-118099196D01*
X120024684Y-118092436D01*
X120016313Y-118098702D01*
X119977782Y-118158490D01*
X119971555Y-118171035D01*
X119918827Y-118315904D01*
X119915533Y-118329518D01*
X119896211Y-118482475D01*
X119896015Y-118496472D01*
X116748220Y-118496472D01*
X116653220Y-118401472D01*
X116533126Y-118340281D01*
X116523337Y-118338731D01*
X116523335Y-118338730D01*
X116409793Y-118320747D01*
X116400000Y-118319196D01*
X116390207Y-118320747D01*
X116276665Y-118338730D01*
X116276663Y-118338731D01*
X116266874Y-118340281D01*
X116146780Y-118401472D01*
X116051472Y-118496780D01*
X115990281Y-118616874D01*
X115988731Y-118626663D01*
X115988730Y-118626665D01*
X115980479Y-118678763D01*
X115969196Y-118750000D01*
X109650000Y-118750000D01*
X109650000Y-117435502D01*
X110619196Y-117435502D01*
X110620747Y-117445295D01*
X110636425Y-117544280D01*
X110640281Y-117568628D01*
X110701472Y-117688722D01*
X110796780Y-117784030D01*
X110916874Y-117845221D01*
X110926663Y-117846771D01*
X110926665Y-117846772D01*
X110964934Y-117852833D01*
X111029087Y-117883246D01*
X111066614Y-117943514D01*
X111068718Y-117980289D01*
X111070747Y-117980289D01*
X111070747Y-117990207D01*
X111069196Y-118000000D01*
X111070747Y-118009793D01*
X111083805Y-118092235D01*
X111090281Y-118133126D01*
X111151472Y-118253220D01*
X111246780Y-118348528D01*
X111366874Y-118409719D01*
X111376663Y-118411269D01*
X111376665Y-118411270D01*
X111490207Y-118429253D01*
X111500000Y-118430804D01*
X111509793Y-118429253D01*
X111623335Y-118411270D01*
X111623337Y-118411269D01*
X111633126Y-118409719D01*
X111753220Y-118348528D01*
X111848528Y-118253220D01*
X111909719Y-118133126D01*
X111916196Y-118092235D01*
X111929253Y-118009793D01*
X111930804Y-118000000D01*
X111921158Y-117939095D01*
X111911270Y-117876665D01*
X111911269Y-117876663D01*
X111909719Y-117866874D01*
X111848528Y-117746780D01*
X111753220Y-117651472D01*
X111633126Y-117590281D01*
X111623337Y-117588731D01*
X111623335Y-117588730D01*
X111585066Y-117582669D01*
X111520913Y-117552256D01*
X111483386Y-117491988D01*
X111481282Y-117455213D01*
X111479253Y-117455213D01*
X111479253Y-117445295D01*
X111480804Y-117435502D01*
X111475859Y-117404279D01*
X111484959Y-117333868D01*
X111530681Y-117279554D01*
X111543659Y-117274500D01*
X116519196Y-117274500D01*
X116520747Y-117284293D01*
X116537453Y-117389769D01*
X116540281Y-117407626D01*
X116601472Y-117527720D01*
X116696780Y-117623028D01*
X116705613Y-117627529D01*
X116705615Y-117627530D01*
X116719105Y-117634404D01*
X116770720Y-117683153D01*
X116787785Y-117752068D01*
X116781734Y-117785606D01*
X116780748Y-117788640D01*
X116776248Y-117797472D01*
X116774698Y-117807261D01*
X116774697Y-117807263D01*
X116756760Y-117920517D01*
X116755163Y-117930598D01*
X116756714Y-117940391D01*
X116765488Y-117995785D01*
X116776248Y-118063724D01*
X116837439Y-118183818D01*
X116932747Y-118279126D01*
X117052841Y-118340317D01*
X117062630Y-118341867D01*
X117062632Y-118341868D01*
X117176174Y-118359851D01*
X117185967Y-118361402D01*
X117195760Y-118359851D01*
X117309302Y-118341868D01*
X117309304Y-118341867D01*
X117319093Y-118340317D01*
X117439187Y-118279126D01*
X117534495Y-118183818D01*
X117595686Y-118063724D01*
X117606447Y-117995785D01*
X117615220Y-117940391D01*
X117616771Y-117930598D01*
X117615174Y-117920517D01*
X117597237Y-117807263D01*
X117597236Y-117807261D01*
X117595686Y-117797472D01*
X117534495Y-117677378D01*
X117439187Y-117582070D01*
X117430354Y-117577569D01*
X117430352Y-117577568D01*
X117416862Y-117570694D01*
X117365247Y-117521945D01*
X117348182Y-117453030D01*
X117354233Y-117419492D01*
X117355219Y-117416458D01*
X117359719Y-117407626D01*
X117362548Y-117389769D01*
X117369405Y-117346472D01*
X119896015Y-117346472D01*
X119911060Y-117499913D01*
X119913971Y-117513605D01*
X119962636Y-117659897D01*
X119968507Y-117672604D01*
X120014477Y-117748509D01*
X120024886Y-117758026D01*
X120033503Y-117754365D01*
X120425056Y-117362812D01*
X120432670Y-117348868D01*
X120432539Y-117347035D01*
X120428288Y-117340420D01*
X120037064Y-116949196D01*
X120024684Y-116942436D01*
X120016313Y-116948702D01*
X119977782Y-117008490D01*
X119971555Y-117021035D01*
X119918827Y-117165904D01*
X119915533Y-117179518D01*
X119896211Y-117332475D01*
X119896015Y-117346472D01*
X117369405Y-117346472D01*
X117379253Y-117284293D01*
X117380804Y-117274500D01*
X117370625Y-117210231D01*
X117361270Y-117151165D01*
X117361269Y-117151163D01*
X117359719Y-117141374D01*
X117298528Y-117021280D01*
X117203220Y-116925972D01*
X117083126Y-116864781D01*
X117073337Y-116863231D01*
X117073335Y-116863230D01*
X116959793Y-116845247D01*
X116950000Y-116843696D01*
X116940207Y-116845247D01*
X116826665Y-116863230D01*
X116826663Y-116863231D01*
X116816874Y-116864781D01*
X116696780Y-116925972D01*
X116601472Y-117021280D01*
X116540281Y-117141374D01*
X116538731Y-117151163D01*
X116538730Y-117151165D01*
X116529375Y-117210231D01*
X116519196Y-117274500D01*
X111543659Y-117274500D01*
X111564559Y-117266361D01*
X111563901Y-117264335D01*
X111573334Y-117261270D01*
X111583126Y-117259719D01*
X111703220Y-117198528D01*
X111798528Y-117103220D01*
X111859719Y-116983126D01*
X111866196Y-116942235D01*
X111879253Y-116859793D01*
X111880804Y-116850000D01*
X111861003Y-116724981D01*
X120242119Y-116724981D01*
X120245943Y-116733811D01*
X120637188Y-117125056D01*
X120651132Y-117132670D01*
X120652965Y-117132539D01*
X120659580Y-117128288D01*
X121050861Y-116737007D01*
X121057428Y-116724981D01*
X121442119Y-116724981D01*
X121445943Y-116733811D01*
X121837188Y-117125056D01*
X121851132Y-117132670D01*
X121852965Y-117132539D01*
X121859580Y-117128288D01*
X122250861Y-116737007D01*
X122257428Y-116724981D01*
X122517119Y-116724981D01*
X122520943Y-116733811D01*
X122912188Y-117125056D01*
X122926132Y-117132670D01*
X122927965Y-117132539D01*
X122934580Y-117128288D01*
X123325861Y-116737007D01*
X123332428Y-116724981D01*
X123742119Y-116724981D01*
X123745943Y-116733811D01*
X124137188Y-117125056D01*
X124151132Y-117132670D01*
X124152965Y-117132539D01*
X124159580Y-117128288D01*
X124550861Y-116737007D01*
X124557621Y-116724627D01*
X124551528Y-116716487D01*
X124486810Y-116675416D01*
X124474217Y-116669274D01*
X124328981Y-116617557D01*
X124315356Y-116614361D01*
X124162262Y-116596106D01*
X124148265Y-116596008D01*
X123994929Y-116612125D01*
X123981265Y-116615130D01*
X123835315Y-116664814D01*
X123822643Y-116670778D01*
X123751561Y-116714508D01*
X123742119Y-116724981D01*
X123332428Y-116724981D01*
X123332621Y-116724627D01*
X123326528Y-116716487D01*
X123261810Y-116675416D01*
X123249217Y-116669274D01*
X123103981Y-116617557D01*
X123090356Y-116614361D01*
X122937262Y-116596106D01*
X122923265Y-116596008D01*
X122769929Y-116612125D01*
X122756265Y-116615130D01*
X122610315Y-116664814D01*
X122597643Y-116670778D01*
X122526561Y-116714508D01*
X122517119Y-116724981D01*
X122257428Y-116724981D01*
X122257621Y-116724627D01*
X122251528Y-116716487D01*
X122186810Y-116675416D01*
X122174217Y-116669274D01*
X122028981Y-116617557D01*
X122015356Y-116614361D01*
X121862262Y-116596106D01*
X121848265Y-116596008D01*
X121694929Y-116612125D01*
X121681265Y-116615130D01*
X121535315Y-116664814D01*
X121522643Y-116670778D01*
X121451561Y-116714508D01*
X121442119Y-116724981D01*
X121057428Y-116724981D01*
X121057621Y-116724627D01*
X121051528Y-116716487D01*
X120986810Y-116675416D01*
X120974217Y-116669274D01*
X120828981Y-116617557D01*
X120815356Y-116614361D01*
X120662262Y-116596106D01*
X120648265Y-116596008D01*
X120494929Y-116612125D01*
X120481265Y-116615130D01*
X120335315Y-116664814D01*
X120322643Y-116670778D01*
X120251561Y-116714508D01*
X120242119Y-116724981D01*
X111861003Y-116724981D01*
X111859719Y-116716874D01*
X111798528Y-116596780D01*
X111703220Y-116501472D01*
X111583126Y-116440281D01*
X111573337Y-116438731D01*
X111573335Y-116438730D01*
X111459793Y-116420747D01*
X111450000Y-116419196D01*
X111440207Y-116420747D01*
X111326665Y-116438730D01*
X111326663Y-116438731D01*
X111316874Y-116440281D01*
X111196780Y-116501472D01*
X111101472Y-116596780D01*
X111040281Y-116716874D01*
X111019196Y-116850000D01*
X111020747Y-116859793D01*
X111020747Y-116859794D01*
X111024141Y-116881223D01*
X111015041Y-116951634D01*
X110969319Y-117005948D01*
X110935441Y-117019141D01*
X110936099Y-117021167D01*
X110926666Y-117024232D01*
X110916874Y-117025783D01*
X110796780Y-117086974D01*
X110701472Y-117182282D01*
X110640281Y-117302376D01*
X110638731Y-117312165D01*
X110638730Y-117312167D01*
X110628779Y-117374996D01*
X110619196Y-117435502D01*
X109650000Y-117435502D01*
X109650000Y-116076000D01*
X109670002Y-116007879D01*
X109723658Y-115961386D01*
X109776000Y-115950000D01*
X133300000Y-115950000D01*
X133300000Y-104713548D01*
X136870000Y-104713548D01*
X136870000Y-105222743D01*
X136870161Y-105227251D01*
X136874658Y-105290131D01*
X136877043Y-105303351D01*
X136913096Y-105426135D01*
X136920510Y-105442369D01*
X136988472Y-105548121D01*
X137000158Y-105561608D01*
X137095165Y-105643932D01*
X137110173Y-105653577D01*
X137224529Y-105705801D01*
X137241642Y-105710826D01*
X137370554Y-105729361D01*
X137379495Y-105730000D01*
X137881885Y-105730000D01*
X137897124Y-105725525D01*
X137898329Y-105724135D01*
X137900000Y-105716452D01*
X137900000Y-104718115D01*
X137898659Y-104713548D01*
X138200000Y-104713548D01*
X138200000Y-105711885D01*
X138204475Y-105727124D01*
X138205865Y-105728329D01*
X138213548Y-105730000D01*
X138722743Y-105730000D01*
X138727251Y-105729839D01*
X138790131Y-105725342D01*
X138803351Y-105722957D01*
X138926135Y-105686904D01*
X138942369Y-105679490D01*
X139048121Y-105611528D01*
X139061608Y-105599842D01*
X139143932Y-105504835D01*
X139153577Y-105489827D01*
X139205801Y-105375471D01*
X139210826Y-105358358D01*
X139229361Y-105229446D01*
X139230000Y-105220503D01*
X139230000Y-104718115D01*
X139225525Y-104702876D01*
X139224135Y-104701671D01*
X139216452Y-104700000D01*
X138218115Y-104700000D01*
X138202876Y-104704475D01*
X138201671Y-104705865D01*
X138200000Y-104713548D01*
X137898659Y-104713548D01*
X137895525Y-104702876D01*
X137894135Y-104701671D01*
X137886452Y-104700000D01*
X136888115Y-104700000D01*
X136872876Y-104704475D01*
X136871671Y-104705865D01*
X136870000Y-104713548D01*
X133300000Y-104713548D01*
X133300000Y-103879495D01*
X136870000Y-103879495D01*
X136870000Y-104381885D01*
X136874475Y-104397124D01*
X136875865Y-104398329D01*
X136883548Y-104400000D01*
X139211885Y-104400000D01*
X139227124Y-104395525D01*
X139228329Y-104394135D01*
X139230000Y-104386452D01*
X139230000Y-103877257D01*
X139229839Y-103872749D01*
X139225342Y-103809869D01*
X139222957Y-103796649D01*
X139186904Y-103673865D01*
X139179490Y-103657631D01*
X139111528Y-103551879D01*
X139099842Y-103538392D01*
X139004835Y-103456068D01*
X138989827Y-103446423D01*
X138875471Y-103394199D01*
X138858351Y-103389172D01*
X138750395Y-103373650D01*
X138685814Y-103344157D01*
X138647431Y-103284431D01*
X138647431Y-103213435D01*
X138674691Y-103164623D01*
X138676517Y-103162596D01*
X138762195Y-103067440D01*
X138854214Y-102908059D01*
X138911085Y-102733029D01*
X138930322Y-102550000D01*
X138911085Y-102366971D01*
X138854214Y-102191941D01*
X138762195Y-102032560D01*
X138639050Y-101895793D01*
X138633708Y-101891912D01*
X138633706Y-101891910D01*
X138495503Y-101791500D01*
X138495502Y-101791499D01*
X138490161Y-101787619D01*
X138484133Y-101784935D01*
X138484131Y-101784934D01*
X138328065Y-101715449D01*
X138328064Y-101715449D01*
X138322034Y-101712764D01*
X138232026Y-101693632D01*
X138148476Y-101675872D01*
X138148471Y-101675872D01*
X138142019Y-101674500D01*
X138141155Y-101674500D01*
X138077467Y-101648298D01*
X138049622Y-101608398D01*
X138029786Y-101642013D01*
X137966375Y-101673944D01*
X137962509Y-101674500D01*
X137957981Y-101674500D01*
X137951529Y-101675872D01*
X137951524Y-101675872D01*
X137867974Y-101693632D01*
X137777966Y-101712764D01*
X137771936Y-101715449D01*
X137771935Y-101715449D01*
X137615869Y-101784934D01*
X137615867Y-101784935D01*
X137609839Y-101787619D01*
X137604498Y-101791499D01*
X137604497Y-101791500D01*
X137466294Y-101891910D01*
X137466292Y-101891912D01*
X137460950Y-101895793D01*
X137337805Y-102032560D01*
X137245786Y-102191941D01*
X137188915Y-102366971D01*
X137169678Y-102550000D01*
X137188915Y-102733029D01*
X137245786Y-102908059D01*
X137337805Y-103067440D01*
X137423487Y-103162600D01*
X137454202Y-103226604D01*
X137445438Y-103297058D01*
X137399976Y-103351589D01*
X137338839Y-103372586D01*
X137309868Y-103374658D01*
X137296649Y-103377043D01*
X137173865Y-103413096D01*
X137157631Y-103420510D01*
X137051879Y-103488472D01*
X137038392Y-103500158D01*
X136956068Y-103595165D01*
X136946423Y-103610173D01*
X136894199Y-103724529D01*
X136889174Y-103741642D01*
X136870639Y-103870554D01*
X136870000Y-103879495D01*
X133300000Y-103879495D01*
X133300000Y-103002190D01*
X133320002Y-102934069D01*
X133336905Y-102913095D01*
X134813095Y-101436905D01*
X134875407Y-101402879D01*
X134902190Y-101400000D01*
X137824770Y-101400000D01*
X137850967Y-101402754D01*
X137951515Y-101424127D01*
X137951528Y-101424128D01*
X137957981Y-101425500D01*
X137958845Y-101425500D01*
X138022533Y-101451702D01*
X138050378Y-101491602D01*
X138070214Y-101457987D01*
X138133625Y-101426056D01*
X138137491Y-101425500D01*
X138142019Y-101425500D01*
X138148472Y-101424128D01*
X138148485Y-101424127D01*
X138249033Y-101402754D01*
X138275230Y-101400000D01*
X138600000Y-101400000D01*
X138600000Y-101294537D01*
X138620002Y-101226416D01*
X138638603Y-101204532D01*
X138639050Y-101204207D01*
X138762195Y-101067440D01*
X138854214Y-100908059D01*
X138911085Y-100733029D01*
X138930322Y-100550000D01*
X138911085Y-100366971D01*
X138854214Y-100191941D01*
X138762195Y-100032560D01*
X138740516Y-100008483D01*
X138643474Y-99900706D01*
X138643472Y-99900704D01*
X138639050Y-99895793D01*
X138639438Y-99895444D01*
X138604450Y-99838654D01*
X138600000Y-99805463D01*
X138600000Y-99650000D01*
X138284640Y-99650000D01*
X138216519Y-99629998D01*
X138170026Y-99576342D01*
X138159922Y-99506068D01*
X138189416Y-99441488D01*
X138249142Y-99403104D01*
X138258443Y-99400754D01*
X138315568Y-99388611D01*
X138315573Y-99388609D01*
X138322034Y-99387236D01*
X138328065Y-99384551D01*
X138484131Y-99315066D01*
X138484133Y-99315065D01*
X138490161Y-99312381D01*
X138495503Y-99308500D01*
X138633706Y-99208090D01*
X138633708Y-99208088D01*
X138639050Y-99204207D01*
X138762195Y-99067440D01*
X138854214Y-98908059D01*
X138911085Y-98733029D01*
X138930322Y-98550000D01*
X138911085Y-98366971D01*
X138854214Y-98191941D01*
X138762195Y-98032560D01*
X138639050Y-97895793D01*
X138633708Y-97891912D01*
X138633706Y-97891910D01*
X138542673Y-97825771D01*
X138499319Y-97769549D01*
X138493244Y-97698813D01*
X138526375Y-97636021D01*
X138555167Y-97613901D01*
X138713342Y-97525318D01*
X138722817Y-97518806D01*
X138879972Y-97388101D01*
X138888101Y-97379972D01*
X139018806Y-97222817D01*
X139025316Y-97213345D01*
X139125195Y-97034998D01*
X139129871Y-97024495D01*
X139195574Y-96830942D01*
X139198259Y-96819759D01*
X139213023Y-96717929D01*
X139211037Y-96703993D01*
X139197469Y-96700000D01*
X136900341Y-96700000D01*
X136885301Y-96704416D01*
X136883249Y-96715602D01*
X136884116Y-96728829D01*
X136885917Y-96740201D01*
X136936229Y-96938303D01*
X136940070Y-96949150D01*
X137025643Y-97134772D01*
X137031394Y-97144733D01*
X137149359Y-97311651D01*
X137156837Y-97320406D01*
X137303241Y-97463026D01*
X137312185Y-97470269D01*
X137482132Y-97583824D01*
X137492245Y-97589315D01*
X137534076Y-97607287D01*
X137588769Y-97652555D01*
X137610307Y-97720206D01*
X137591850Y-97788761D01*
X137558400Y-97824991D01*
X137502702Y-97865458D01*
X137460950Y-97895793D01*
X137337805Y-98032560D01*
X137245786Y-98191941D01*
X137188915Y-98366971D01*
X137169678Y-98550000D01*
X137188915Y-98733029D01*
X137245786Y-98908059D01*
X137337805Y-99067440D01*
X137460950Y-99204207D01*
X137466292Y-99208088D01*
X137466294Y-99208090D01*
X137604497Y-99308500D01*
X137609839Y-99312381D01*
X137615867Y-99315065D01*
X137615869Y-99315066D01*
X137771935Y-99384551D01*
X137777966Y-99387236D01*
X137784427Y-99388609D01*
X137784432Y-99388611D01*
X137841557Y-99400754D01*
X137904031Y-99434482D01*
X137938352Y-99496632D01*
X137933624Y-99567471D01*
X137891348Y-99624508D01*
X137824946Y-99649635D01*
X137815360Y-99650000D01*
X133650000Y-99650000D01*
X131300000Y-102000000D01*
X131300000Y-111924000D01*
X131279998Y-111992121D01*
X131226342Y-112038614D01*
X131174000Y-112050000D01*
X129800000Y-112050000D01*
X129800000Y-112574000D01*
X129779998Y-112642121D01*
X129726342Y-112688614D01*
X129674000Y-112700000D01*
X126830582Y-112700000D01*
X126773379Y-112686267D01*
X126735318Y-112666874D01*
X126683126Y-112640281D01*
X126673337Y-112638731D01*
X126673335Y-112638730D01*
X126559793Y-112620747D01*
X126550000Y-112619196D01*
X126540207Y-112620747D01*
X126426665Y-112638730D01*
X126426663Y-112638731D01*
X126416874Y-112640281D01*
X126364682Y-112666874D01*
X126326621Y-112686267D01*
X126269418Y-112700000D01*
X122626642Y-112700000D01*
X122558521Y-112679998D01*
X122512028Y-112626342D01*
X122510664Y-112622838D01*
X122509719Y-112616874D01*
X122496132Y-112590207D01*
X122453028Y-112505612D01*
X122448528Y-112496780D01*
X122353220Y-112401472D01*
X122233126Y-112340281D01*
X122223337Y-112338731D01*
X122223335Y-112338730D01*
X122109793Y-112320747D01*
X122100000Y-112319196D01*
X122090207Y-112320747D01*
X121976665Y-112338730D01*
X121976663Y-112338731D01*
X121966874Y-112340281D01*
X121846780Y-112401472D01*
X121751472Y-112496780D01*
X121746972Y-112505612D01*
X121703869Y-112590207D01*
X121690281Y-112616874D01*
X121690215Y-112617290D01*
X121653116Y-112671543D01*
X121587719Y-112699179D01*
X121573358Y-112700000D01*
X121077975Y-112700000D01*
X121040575Y-112694076D01*
X121033126Y-112690281D01*
X120966563Y-112679738D01*
X120909793Y-112670747D01*
X120900000Y-112669196D01*
X120890207Y-112670747D01*
X120833437Y-112679738D01*
X120766874Y-112690281D01*
X120759425Y-112694076D01*
X120722025Y-112700000D01*
X120653811Y-112700000D01*
X120585690Y-112679998D01*
X120541544Y-112631203D01*
X120512397Y-112574000D01*
X120498528Y-112546780D01*
X120403220Y-112451472D01*
X120283126Y-112390281D01*
X120273337Y-112388731D01*
X120273335Y-112388730D01*
X120159793Y-112370747D01*
X120150000Y-112369196D01*
X120140207Y-112370747D01*
X120026665Y-112388730D01*
X120026663Y-112388731D01*
X120016874Y-112390281D01*
X119896780Y-112451472D01*
X119801472Y-112546780D01*
X119787603Y-112574000D01*
X119758456Y-112631203D01*
X119709707Y-112682818D01*
X119646189Y-112700000D01*
X100450000Y-112700000D01*
X100450000Y-114424000D01*
X100429998Y-114492121D01*
X100376342Y-114538614D01*
X100324000Y-114550000D01*
X87950000Y-114550000D01*
X85350000Y-114550000D01*
X85350000Y-112600000D01*
X93019196Y-112600000D01*
X93020747Y-112609793D01*
X93035268Y-112701472D01*
X93040281Y-112733126D01*
X93101472Y-112853220D01*
X93196780Y-112948528D01*
X93316874Y-113009719D01*
X93326663Y-113011269D01*
X93326665Y-113011270D01*
X93440207Y-113029253D01*
X93450000Y-113030804D01*
X93459793Y-113029253D01*
X93573335Y-113011270D01*
X93573337Y-113011269D01*
X93583126Y-113009719D01*
X93703220Y-112948528D01*
X93798528Y-112853220D01*
X93859719Y-112733126D01*
X93864733Y-112701472D01*
X93879253Y-112609793D01*
X93880804Y-112600000D01*
X93872375Y-112546780D01*
X93861270Y-112476665D01*
X93861269Y-112476663D01*
X93859719Y-112466874D01*
X93798528Y-112346780D01*
X93703220Y-112251472D01*
X93583126Y-112190281D01*
X93573337Y-112188731D01*
X93573335Y-112188730D01*
X93459793Y-112170747D01*
X93450000Y-112169196D01*
X93440207Y-112170747D01*
X93326665Y-112188730D01*
X93326663Y-112188731D01*
X93316874Y-112190281D01*
X93196780Y-112251472D01*
X93101472Y-112346780D01*
X93040281Y-112466874D01*
X93038731Y-112476663D01*
X93038730Y-112476665D01*
X93027625Y-112546780D01*
X93019196Y-112600000D01*
X85350000Y-112600000D01*
X85350000Y-111276000D01*
X85370002Y-111207879D01*
X85423658Y-111161386D01*
X85476000Y-111150000D01*
X93250000Y-111150000D01*
X93250000Y-110400000D01*
X130169196Y-110400000D01*
X130190281Y-110533126D01*
X130251472Y-110653220D01*
X130346780Y-110748528D01*
X130466874Y-110809719D01*
X130476663Y-110811269D01*
X130476665Y-110811270D01*
X130590207Y-110829253D01*
X130600000Y-110830804D01*
X130609793Y-110829253D01*
X130723335Y-110811270D01*
X130723337Y-110811269D01*
X130733126Y-110809719D01*
X130853220Y-110748528D01*
X130948528Y-110653220D01*
X131009719Y-110533126D01*
X131030804Y-110400000D01*
X131009719Y-110266874D01*
X130948528Y-110146780D01*
X130853220Y-110051472D01*
X130733126Y-109990281D01*
X130723337Y-109988731D01*
X130723335Y-109988730D01*
X130609793Y-109970747D01*
X130600000Y-109969196D01*
X130590207Y-109970747D01*
X130476665Y-109988730D01*
X130476663Y-109988731D01*
X130466874Y-109990281D01*
X130346780Y-110051472D01*
X130251472Y-110146780D01*
X130190281Y-110266874D01*
X130169196Y-110400000D01*
X93250000Y-110400000D01*
X93250000Y-107050000D01*
X103919196Y-107050000D01*
X103940281Y-107183126D01*
X104001472Y-107303220D01*
X104096780Y-107398528D01*
X104216874Y-107459719D01*
X104226663Y-107461269D01*
X104226665Y-107461270D01*
X104340207Y-107479253D01*
X104350000Y-107480804D01*
X104359793Y-107479253D01*
X104473335Y-107461270D01*
X104473337Y-107461269D01*
X104483126Y-107459719D01*
X104603220Y-107398528D01*
X104698528Y-107303220D01*
X104759719Y-107183126D01*
X104780804Y-107050000D01*
X104759719Y-106916874D01*
X104698528Y-106796780D01*
X104603220Y-106701472D01*
X104483126Y-106640281D01*
X104473337Y-106638731D01*
X104473335Y-106638730D01*
X104359793Y-106620747D01*
X104350000Y-106619196D01*
X104340207Y-106620747D01*
X104226665Y-106638730D01*
X104226663Y-106638731D01*
X104216874Y-106640281D01*
X104096780Y-106701472D01*
X104001472Y-106796780D01*
X103940281Y-106916874D01*
X103919196Y-107050000D01*
X93250000Y-107050000D01*
X93250000Y-106150000D01*
X105969196Y-106150000D01*
X105990281Y-106283126D01*
X106051472Y-106403220D01*
X106146780Y-106498528D01*
X106266874Y-106559719D01*
X106276663Y-106561269D01*
X106276665Y-106561270D01*
X106390207Y-106579253D01*
X106400000Y-106580804D01*
X106409793Y-106579253D01*
X106523335Y-106561270D01*
X106523337Y-106561269D01*
X106533126Y-106559719D01*
X106653220Y-106498528D01*
X106748528Y-106403220D01*
X106809719Y-106283126D01*
X106830804Y-106150000D01*
X106809719Y-106016874D01*
X106748528Y-105896780D01*
X106653220Y-105801472D01*
X106533126Y-105740281D01*
X106523337Y-105738731D01*
X106523335Y-105738730D01*
X106409793Y-105720747D01*
X106400000Y-105719196D01*
X106390207Y-105720747D01*
X106276665Y-105738730D01*
X106276663Y-105738731D01*
X106266874Y-105740281D01*
X106146780Y-105801472D01*
X106051472Y-105896780D01*
X105990281Y-106016874D01*
X105969196Y-106150000D01*
X93250000Y-106150000D01*
X93250000Y-100350000D01*
X105919196Y-100350000D01*
X105920747Y-100359793D01*
X105922924Y-100373535D01*
X105940281Y-100483126D01*
X106001472Y-100603220D01*
X106096780Y-100698528D01*
X106216874Y-100759719D01*
X106226663Y-100761269D01*
X106226665Y-100761270D01*
X106340207Y-100779253D01*
X106350000Y-100780804D01*
X106359793Y-100779253D01*
X106473335Y-100761270D01*
X106473337Y-100761269D01*
X106483126Y-100759719D01*
X106603220Y-100698528D01*
X106698528Y-100603220D01*
X106759719Y-100483126D01*
X106777077Y-100373535D01*
X106779253Y-100359793D01*
X106780804Y-100350000D01*
X106759719Y-100216874D01*
X106698528Y-100096780D01*
X106603220Y-100001472D01*
X106483126Y-99940281D01*
X106473337Y-99938731D01*
X106473335Y-99938730D01*
X106359793Y-99920747D01*
X106350000Y-99919196D01*
X106340207Y-99920747D01*
X106226665Y-99938730D01*
X106226663Y-99938731D01*
X106216874Y-99940281D01*
X106096780Y-100001472D01*
X106001472Y-100096780D01*
X105940281Y-100216874D01*
X105919196Y-100350000D01*
X93250000Y-100350000D01*
X93250000Y-72450000D01*
X103250000Y-72450000D01*
X103250000Y-98650000D01*
X132550000Y-98650000D01*
X132550000Y-96382012D01*
X136886597Y-96382012D01*
X136889040Y-96396431D01*
X136901781Y-96400000D01*
X139198136Y-96400000D01*
X139212681Y-96395729D01*
X139214744Y-96383595D01*
X139210803Y-96340714D01*
X139208704Y-96329391D01*
X139153226Y-96132679D01*
X139149102Y-96121932D01*
X139058698Y-95938613D01*
X139052688Y-95928806D01*
X138930389Y-95765027D01*
X138922699Y-95756487D01*
X138772599Y-95617735D01*
X138763474Y-95610734D01*
X138590607Y-95501663D01*
X138580357Y-95496441D01*
X138570814Y-95492633D01*
X138514955Y-95448811D01*
X138491656Y-95381747D01*
X138508313Y-95312732D01*
X138543445Y-95273668D01*
X138633706Y-95208090D01*
X138633708Y-95208088D01*
X138639050Y-95204207D01*
X138762195Y-95067440D01*
X138854214Y-94908059D01*
X138911085Y-94733029D01*
X138930322Y-94550000D01*
X138911085Y-94366971D01*
X138854214Y-94191941D01*
X138762195Y-94032560D01*
X138639050Y-93895793D01*
X138633708Y-93891912D01*
X138633706Y-93891910D01*
X138495503Y-93791500D01*
X138495502Y-93791499D01*
X138490161Y-93787619D01*
X138484133Y-93784935D01*
X138484131Y-93784934D01*
X138328065Y-93715449D01*
X138328064Y-93715449D01*
X138322034Y-93712764D01*
X138232026Y-93693632D01*
X138148476Y-93675872D01*
X138148471Y-93675872D01*
X138142019Y-93674500D01*
X138141155Y-93674500D01*
X138077467Y-93648298D01*
X138049622Y-93608398D01*
X138029786Y-93642013D01*
X137966375Y-93673944D01*
X137962509Y-93674500D01*
X137957981Y-93674500D01*
X137951529Y-93675872D01*
X137951524Y-93675872D01*
X137867974Y-93693632D01*
X137777966Y-93712764D01*
X137771936Y-93715449D01*
X137771935Y-93715449D01*
X137615869Y-93784934D01*
X137615867Y-93784935D01*
X137609839Y-93787619D01*
X137604498Y-93791499D01*
X137604497Y-93791500D01*
X137466294Y-93891910D01*
X137466292Y-93891912D01*
X137460950Y-93895793D01*
X137337805Y-94032560D01*
X137245786Y-94191941D01*
X137188915Y-94366971D01*
X137169678Y-94550000D01*
X137188915Y-94733029D01*
X137245786Y-94908059D01*
X137337805Y-95067440D01*
X137460950Y-95204207D01*
X137466292Y-95208088D01*
X137466294Y-95208090D01*
X137555455Y-95272869D01*
X137598809Y-95329091D01*
X137604884Y-95399827D01*
X137571753Y-95462619D01*
X137541590Y-95484260D01*
X137541982Y-95484919D01*
X137361361Y-95592377D01*
X137352049Y-95599141D01*
X137198375Y-95733911D01*
X137190458Y-95742254D01*
X137063914Y-95902773D01*
X137057652Y-95912416D01*
X136962480Y-96093311D01*
X136958079Y-96103935D01*
X136897466Y-96299140D01*
X136895074Y-96310394D01*
X136886597Y-96382012D01*
X132550000Y-96382012D01*
X132550000Y-92550000D01*
X137169678Y-92550000D01*
X137188915Y-92733029D01*
X137245786Y-92908059D01*
X137337805Y-93067440D01*
X137460950Y-93204207D01*
X137466292Y-93208088D01*
X137466294Y-93208090D01*
X137604497Y-93308500D01*
X137609839Y-93312381D01*
X137615867Y-93315065D01*
X137615869Y-93315066D01*
X137771935Y-93384551D01*
X137777966Y-93387236D01*
X137867973Y-93406368D01*
X137951524Y-93424128D01*
X137951529Y-93424128D01*
X137957981Y-93425500D01*
X137958845Y-93425500D01*
X138022533Y-93451702D01*
X138050378Y-93491602D01*
X138070214Y-93457987D01*
X138133625Y-93426056D01*
X138137491Y-93425500D01*
X138142019Y-93425500D01*
X138148471Y-93424128D01*
X138148476Y-93424128D01*
X138232027Y-93406368D01*
X138322034Y-93387236D01*
X138328065Y-93384551D01*
X138484131Y-93315066D01*
X138484133Y-93315065D01*
X138490161Y-93312381D01*
X138495503Y-93308500D01*
X138633706Y-93208090D01*
X138633708Y-93208088D01*
X138639050Y-93204207D01*
X138762195Y-93067440D01*
X138854214Y-92908059D01*
X138911085Y-92733029D01*
X138930322Y-92550000D01*
X138911085Y-92366971D01*
X138854214Y-92191941D01*
X138762195Y-92032560D01*
X138639050Y-91895793D01*
X138633708Y-91891912D01*
X138633706Y-91891910D01*
X138495503Y-91791500D01*
X138495502Y-91791499D01*
X138490161Y-91787619D01*
X138484133Y-91784935D01*
X138484131Y-91784934D01*
X138328065Y-91715449D01*
X138328064Y-91715449D01*
X138322034Y-91712764D01*
X138232026Y-91693632D01*
X138148476Y-91675872D01*
X138148471Y-91675872D01*
X138142019Y-91674500D01*
X138141155Y-91674500D01*
X138077467Y-91648298D01*
X138049622Y-91608398D01*
X138029786Y-91642013D01*
X137966375Y-91673944D01*
X137962509Y-91674500D01*
X137957981Y-91674500D01*
X137951529Y-91675872D01*
X137951524Y-91675872D01*
X137867974Y-91693632D01*
X137777966Y-91712764D01*
X137771936Y-91715449D01*
X137771935Y-91715449D01*
X137615869Y-91784934D01*
X137615867Y-91784935D01*
X137609839Y-91787619D01*
X137604498Y-91791499D01*
X137604497Y-91791500D01*
X137466294Y-91891910D01*
X137466292Y-91891912D01*
X137460950Y-91895793D01*
X137337805Y-92032560D01*
X137245786Y-92191941D01*
X137188915Y-92366971D01*
X137169678Y-92550000D01*
X132550000Y-92550000D01*
X132550000Y-90550000D01*
X137169678Y-90550000D01*
X137188915Y-90733029D01*
X137245786Y-90908059D01*
X137337805Y-91067440D01*
X137460950Y-91204207D01*
X137466292Y-91208088D01*
X137466294Y-91208090D01*
X137604497Y-91308500D01*
X137609839Y-91312381D01*
X137615867Y-91315065D01*
X137615869Y-91315066D01*
X137771935Y-91384551D01*
X137777966Y-91387236D01*
X137867973Y-91406368D01*
X137951524Y-91424128D01*
X137951529Y-91424128D01*
X137957981Y-91425500D01*
X137958845Y-91425500D01*
X138022533Y-91451702D01*
X138050378Y-91491602D01*
X138070214Y-91457987D01*
X138133625Y-91426056D01*
X138137491Y-91425500D01*
X138142019Y-91425500D01*
X138148471Y-91424128D01*
X138148476Y-91424128D01*
X138232027Y-91406368D01*
X138322034Y-91387236D01*
X138328065Y-91384551D01*
X138484131Y-91315066D01*
X138484133Y-91315065D01*
X138490161Y-91312381D01*
X138495503Y-91308500D01*
X138633706Y-91208090D01*
X138633708Y-91208088D01*
X138639050Y-91204207D01*
X138762195Y-91067440D01*
X138854214Y-90908059D01*
X138911085Y-90733029D01*
X138930322Y-90550000D01*
X138911085Y-90366971D01*
X138854214Y-90191941D01*
X138762195Y-90032560D01*
X138639050Y-89895793D01*
X138633708Y-89891912D01*
X138633706Y-89891910D01*
X138495503Y-89791500D01*
X138495502Y-89791499D01*
X138490161Y-89787619D01*
X138484133Y-89784935D01*
X138484131Y-89784934D01*
X138328065Y-89715449D01*
X138328064Y-89715449D01*
X138322034Y-89712764D01*
X138232026Y-89693632D01*
X138148476Y-89675872D01*
X138148471Y-89675872D01*
X138142019Y-89674500D01*
X137957981Y-89674500D01*
X137951529Y-89675872D01*
X137951524Y-89675872D01*
X137867974Y-89693632D01*
X137777966Y-89712764D01*
X137771936Y-89715449D01*
X137771935Y-89715449D01*
X137615869Y-89784934D01*
X137615867Y-89784935D01*
X137609839Y-89787619D01*
X137604498Y-89791499D01*
X137604497Y-89791500D01*
X137466294Y-89891910D01*
X137466292Y-89891912D01*
X137460950Y-89895793D01*
X137337805Y-90032560D01*
X137245786Y-90191941D01*
X137188915Y-90366971D01*
X137169678Y-90550000D01*
X132550000Y-90550000D01*
X132550000Y-72450000D01*
X103250000Y-72450000D01*
X93250000Y-72450000D01*
X93250000Y-65176000D01*
X93270002Y-65107879D01*
X93323658Y-65061386D01*
X93376000Y-65050000D01*
X137225831Y-65050000D01*
X137250000Y-65052705D01*
G37*
%TD.AperFunction*%
%TD*%
%TA.AperFunction,Conductor*%
%TO.N,+3V3*%
G36*
X132742121Y-112670002D02*
G01*
X132788614Y-112723658D01*
X132800000Y-112776000D01*
X132800000Y-115174000D01*
X132779998Y-115242121D01*
X132726342Y-115288614D01*
X132674000Y-115300000D01*
X109150000Y-115300000D01*
X109150000Y-123050000D01*
X127724000Y-123050000D01*
X127792121Y-123070002D01*
X127838614Y-123123658D01*
X127850000Y-123176000D01*
X127850000Y-125150000D01*
X128624000Y-125150000D01*
X128692121Y-125170002D01*
X128738614Y-125223658D01*
X128750000Y-125276000D01*
X128750000Y-126574000D01*
X128729998Y-126642121D01*
X128676342Y-126688614D01*
X128624000Y-126700000D01*
X127376000Y-126700000D01*
X127307879Y-126679998D01*
X127261386Y-126626342D01*
X127250000Y-126574000D01*
X127250000Y-124100000D01*
X124938419Y-124100000D01*
X124870298Y-124079998D01*
X124823805Y-124026342D01*
X124813971Y-123993713D01*
X124811271Y-123976670D01*
X124811270Y-123976667D01*
X124809719Y-123966874D01*
X124748528Y-123846780D01*
X124653220Y-123751472D01*
X124533126Y-123690281D01*
X124523337Y-123688731D01*
X124523335Y-123688730D01*
X124409793Y-123670747D01*
X124400000Y-123669196D01*
X124390207Y-123670747D01*
X124276665Y-123688730D01*
X124276663Y-123688731D01*
X124266874Y-123690281D01*
X124146780Y-123751472D01*
X124051472Y-123846780D01*
X123990281Y-123966874D01*
X123988730Y-123976667D01*
X123988729Y-123976670D01*
X123986029Y-123993713D01*
X123955616Y-124057865D01*
X123895347Y-124095391D01*
X123861581Y-124100000D01*
X123253811Y-124100000D01*
X123185690Y-124079998D01*
X123141544Y-124031203D01*
X123122986Y-123994782D01*
X123098528Y-123946780D01*
X123003220Y-123851472D01*
X122883126Y-123790281D01*
X122873337Y-123788731D01*
X122873335Y-123788730D01*
X122759793Y-123770747D01*
X122750000Y-123769196D01*
X122740207Y-123770747D01*
X122626665Y-123788730D01*
X122626663Y-123788731D01*
X122616874Y-123790281D01*
X122496780Y-123851472D01*
X122401472Y-123946780D01*
X122396971Y-123955613D01*
X122396970Y-123955615D01*
X122361072Y-124026069D01*
X122312324Y-124077685D01*
X122243409Y-124094751D01*
X122176207Y-124071850D01*
X122160947Y-124059003D01*
X122160230Y-124058482D01*
X122153220Y-124051472D01*
X122033126Y-123990281D01*
X122023337Y-123988731D01*
X122023335Y-123988730D01*
X121947189Y-123976670D01*
X121934744Y-123974699D01*
X121870591Y-123944287D01*
X121833064Y-123884019D01*
X121830845Y-123845211D01*
X121829253Y-123845211D01*
X121829253Y-123835293D01*
X121830804Y-123825500D01*
X121824980Y-123788730D01*
X121811270Y-123702165D01*
X121811269Y-123702163D01*
X121809719Y-123692374D01*
X121748528Y-123572280D01*
X121653220Y-123476972D01*
X121533126Y-123415781D01*
X121523337Y-123414231D01*
X121523335Y-123414230D01*
X121409793Y-123396247D01*
X121400000Y-123394696D01*
X121390207Y-123396247D01*
X121276665Y-123414230D01*
X121276663Y-123414231D01*
X121266874Y-123415781D01*
X121146780Y-123476972D01*
X121051472Y-123572280D01*
X120990281Y-123692374D01*
X120988731Y-123702163D01*
X120988730Y-123702165D01*
X120975020Y-123788730D01*
X120969196Y-123825500D01*
X120970747Y-123835293D01*
X120989594Y-123954289D01*
X120980494Y-124024700D01*
X120934772Y-124079015D01*
X120865145Y-124100000D01*
X106726000Y-124100000D01*
X106657879Y-124079998D01*
X106611386Y-124026342D01*
X106600000Y-123974000D01*
X106600000Y-120050000D01*
X92555938Y-120050000D01*
X92487817Y-120029998D01*
X92441324Y-119976342D01*
X92431220Y-119906068D01*
X92460714Y-119841488D01*
X92466843Y-119834905D01*
X92498528Y-119803220D01*
X92559719Y-119683126D01*
X92580804Y-119550000D01*
X92559719Y-119416874D01*
X92498528Y-119296780D01*
X92403220Y-119201472D01*
X92283126Y-119140281D01*
X92273337Y-119138731D01*
X92273335Y-119138730D01*
X92183166Y-119124449D01*
X92150619Y-119109020D01*
X92116834Y-119124449D01*
X92026665Y-119138730D01*
X92026663Y-119138731D01*
X92016874Y-119140281D01*
X91896780Y-119201472D01*
X91801472Y-119296780D01*
X91740281Y-119416874D01*
X91719196Y-119550000D01*
X91740281Y-119683126D01*
X91801472Y-119803220D01*
X91833157Y-119834905D01*
X91867183Y-119897217D01*
X91862118Y-119968032D01*
X91819571Y-120024868D01*
X91753051Y-120049679D01*
X91744062Y-120050000D01*
X91155938Y-120050000D01*
X91087817Y-120029998D01*
X91041324Y-119976342D01*
X91031220Y-119906068D01*
X91060714Y-119841488D01*
X91066843Y-119834905D01*
X91098528Y-119803220D01*
X91159719Y-119683126D01*
X91180804Y-119550000D01*
X91159719Y-119416874D01*
X91098528Y-119296780D01*
X91003220Y-119201472D01*
X90883126Y-119140281D01*
X90873337Y-119138731D01*
X90873335Y-119138730D01*
X90759793Y-119120747D01*
X90750000Y-119119196D01*
X90740207Y-119120747D01*
X90626665Y-119138730D01*
X90626663Y-119138731D01*
X90616874Y-119140281D01*
X90496780Y-119201472D01*
X90401472Y-119296780D01*
X90340281Y-119416874D01*
X90319196Y-119550000D01*
X90340281Y-119683126D01*
X90401472Y-119803220D01*
X90433157Y-119834905D01*
X90467183Y-119897217D01*
X90462118Y-119968032D01*
X90419571Y-120024868D01*
X90353051Y-120049679D01*
X90344062Y-120050000D01*
X88576000Y-120050000D01*
X88507879Y-120029998D01*
X88461386Y-119976342D01*
X88450000Y-119924000D01*
X88450000Y-118450000D01*
X91719196Y-118450000D01*
X91720747Y-118459793D01*
X91726235Y-118494440D01*
X91740281Y-118583126D01*
X91801472Y-118703220D01*
X91896780Y-118798528D01*
X92016874Y-118859719D01*
X92026663Y-118861269D01*
X92026665Y-118861270D01*
X92116834Y-118875551D01*
X92149381Y-118890980D01*
X92183166Y-118875551D01*
X92273335Y-118861270D01*
X92273337Y-118861269D01*
X92283126Y-118859719D01*
X92403220Y-118798528D01*
X92498528Y-118703220D01*
X92559719Y-118583126D01*
X92573766Y-118494440D01*
X92579253Y-118459793D01*
X92580804Y-118450000D01*
X92568491Y-118372259D01*
X92561270Y-118326665D01*
X92561269Y-118326663D01*
X92559719Y-118316874D01*
X92498528Y-118196780D01*
X92403220Y-118101472D01*
X92283126Y-118040281D01*
X92273337Y-118038731D01*
X92273335Y-118038730D01*
X92159793Y-118020747D01*
X92150000Y-118019196D01*
X92140207Y-118020747D01*
X92026665Y-118038730D01*
X92026663Y-118038731D01*
X92016874Y-118040281D01*
X91896780Y-118101472D01*
X91801472Y-118196780D01*
X91740281Y-118316874D01*
X91738731Y-118326663D01*
X91738730Y-118326665D01*
X91731509Y-118372259D01*
X91719196Y-118450000D01*
X88450000Y-118450000D01*
X88450000Y-117150000D01*
X91719196Y-117150000D01*
X91720747Y-117159793D01*
X91736574Y-117259719D01*
X91740281Y-117283126D01*
X91801472Y-117403220D01*
X91896780Y-117498528D01*
X92016874Y-117559719D01*
X92026663Y-117561269D01*
X92026665Y-117561270D01*
X92140207Y-117579253D01*
X92150000Y-117580804D01*
X92159793Y-117579253D01*
X92273335Y-117561270D01*
X92273337Y-117561269D01*
X92283126Y-117559719D01*
X92403220Y-117498528D01*
X92498528Y-117403220D01*
X92559719Y-117283126D01*
X92563427Y-117259719D01*
X92579253Y-117159793D01*
X92580804Y-117150000D01*
X92559719Y-117016874D01*
X92498528Y-116896780D01*
X92403220Y-116801472D01*
X92283126Y-116740281D01*
X92273337Y-116738731D01*
X92273335Y-116738730D01*
X92159793Y-116720747D01*
X92150000Y-116719196D01*
X92140207Y-116720747D01*
X92026665Y-116738730D01*
X92026663Y-116738731D01*
X92016874Y-116740281D01*
X91896780Y-116801472D01*
X91801472Y-116896780D01*
X91740281Y-117016874D01*
X91719196Y-117150000D01*
X88450000Y-117150000D01*
X88450000Y-115176000D01*
X88470002Y-115107879D01*
X88523658Y-115061386D01*
X88576000Y-115050000D01*
X90753345Y-115050000D01*
X90821466Y-115070002D01*
X90867959Y-115123658D01*
X90877794Y-115195710D01*
X90877115Y-115200000D01*
X90869196Y-115250000D01*
X90890281Y-115383126D01*
X90951472Y-115503220D01*
X91046780Y-115598528D01*
X91166874Y-115659719D01*
X91176663Y-115661269D01*
X91176665Y-115661270D01*
X91290207Y-115679253D01*
X91300000Y-115680804D01*
X91309793Y-115679253D01*
X91423335Y-115661270D01*
X91423337Y-115661269D01*
X91433126Y-115659719D01*
X91553220Y-115598528D01*
X91648528Y-115503220D01*
X91709719Y-115383126D01*
X91730804Y-115250000D01*
X91722885Y-115200000D01*
X91722206Y-115195710D01*
X91731306Y-115125299D01*
X91777029Y-115070985D01*
X91846655Y-115050000D01*
X92903345Y-115050000D01*
X92971466Y-115070002D01*
X93017959Y-115123658D01*
X93027794Y-115195710D01*
X93027115Y-115200000D01*
X93019196Y-115250000D01*
X93040281Y-115383126D01*
X93101472Y-115503220D01*
X93196780Y-115598528D01*
X93316874Y-115659719D01*
X93326663Y-115661269D01*
X93326665Y-115661270D01*
X93440207Y-115679253D01*
X93450000Y-115680804D01*
X93459793Y-115679253D01*
X93573335Y-115661270D01*
X93573337Y-115661269D01*
X93583126Y-115659719D01*
X93703220Y-115598528D01*
X93798528Y-115503220D01*
X93859719Y-115383126D01*
X93880804Y-115250000D01*
X93872885Y-115200000D01*
X93872206Y-115195710D01*
X93881306Y-115125299D01*
X93927029Y-115070985D01*
X93996655Y-115050000D01*
X100495426Y-115050000D01*
X100563547Y-115070002D01*
X100610040Y-115123658D01*
X100617772Y-115180289D01*
X100620747Y-115180289D01*
X100620747Y-115190207D01*
X100619196Y-115200000D01*
X100620747Y-115209793D01*
X100628736Y-115260231D01*
X100640281Y-115333126D01*
X100701472Y-115453220D01*
X100796780Y-115548528D01*
X100916874Y-115609719D01*
X100926663Y-115611269D01*
X100926665Y-115611270D01*
X101040207Y-115629253D01*
X101050000Y-115630804D01*
X101059793Y-115629253D01*
X101173335Y-115611270D01*
X101173337Y-115611269D01*
X101183126Y-115609719D01*
X101303220Y-115548528D01*
X101398528Y-115453220D01*
X101459719Y-115333126D01*
X101471265Y-115260231D01*
X101479253Y-115209793D01*
X101480804Y-115200000D01*
X101470212Y-115133126D01*
X101461270Y-115076665D01*
X101461269Y-115076663D01*
X101459719Y-115066874D01*
X101425645Y-115000000D01*
X102319196Y-115000000D01*
X102320747Y-115009793D01*
X102336876Y-115111625D01*
X102340281Y-115133126D01*
X102401472Y-115253220D01*
X102496780Y-115348528D01*
X102616874Y-115409719D01*
X102626663Y-115411269D01*
X102626665Y-115411270D01*
X102740207Y-115429253D01*
X102750000Y-115430804D01*
X102759793Y-115429253D01*
X102873335Y-115411270D01*
X102873337Y-115411269D01*
X102883126Y-115409719D01*
X103003220Y-115348528D01*
X103098528Y-115253220D01*
X103144375Y-115163240D01*
X103193123Y-115111625D01*
X103262038Y-115094559D01*
X103298003Y-115104011D01*
X103298607Y-115102153D01*
X103308040Y-115105218D01*
X103316874Y-115109719D01*
X103326663Y-115111269D01*
X103326665Y-115111270D01*
X103440207Y-115129253D01*
X103450000Y-115130804D01*
X103459793Y-115129253D01*
X103573335Y-115111270D01*
X103573337Y-115111269D01*
X103583126Y-115109719D01*
X103703220Y-115048528D01*
X103798528Y-114953220D01*
X103859719Y-114833126D01*
X103861926Y-114819196D01*
X103879253Y-114709793D01*
X103880804Y-114700000D01*
X103872211Y-114645743D01*
X103861270Y-114576665D01*
X103861269Y-114576663D01*
X103859719Y-114566874D01*
X103798528Y-114446780D01*
X103703220Y-114351472D01*
X103583126Y-114290281D01*
X103573337Y-114288731D01*
X103573335Y-114288730D01*
X103459793Y-114270747D01*
X103450000Y-114269196D01*
X103440207Y-114270747D01*
X103326665Y-114288730D01*
X103326663Y-114288731D01*
X103316874Y-114290281D01*
X103196780Y-114351472D01*
X103101472Y-114446780D01*
X103096972Y-114455612D01*
X103055625Y-114536760D01*
X103006877Y-114588375D01*
X102937962Y-114605441D01*
X102901997Y-114595989D01*
X102901393Y-114597847D01*
X102891959Y-114594781D01*
X102883126Y-114590281D01*
X102873337Y-114588731D01*
X102873335Y-114588730D01*
X102759793Y-114570747D01*
X102750000Y-114569196D01*
X102740207Y-114570747D01*
X102626665Y-114588730D01*
X102626663Y-114588731D01*
X102616874Y-114590281D01*
X102496780Y-114651472D01*
X102401472Y-114746780D01*
X102340281Y-114866874D01*
X102338731Y-114876663D01*
X102338730Y-114876665D01*
X102328004Y-114944388D01*
X102319196Y-115000000D01*
X101425645Y-115000000D01*
X101398528Y-114946780D01*
X101303220Y-114851472D01*
X101183126Y-114790281D01*
X101173337Y-114788731D01*
X101173335Y-114788730D01*
X101056289Y-114770192D01*
X100992136Y-114739780D01*
X100954609Y-114679511D01*
X100950000Y-114645743D01*
X100950000Y-114050000D01*
X107419196Y-114050000D01*
X107420747Y-114059793D01*
X107430156Y-114119196D01*
X107440281Y-114183126D01*
X107501472Y-114303220D01*
X107596780Y-114398528D01*
X107716874Y-114459719D01*
X107726663Y-114461269D01*
X107726665Y-114461270D01*
X107840207Y-114479253D01*
X107850000Y-114480804D01*
X107859793Y-114479253D01*
X107973335Y-114461270D01*
X107973337Y-114461269D01*
X107983126Y-114459719D01*
X108103220Y-114398528D01*
X108198528Y-114303220D01*
X108259719Y-114183126D01*
X108269845Y-114119196D01*
X108279253Y-114059793D01*
X108280804Y-114050000D01*
X111619196Y-114050000D01*
X111620747Y-114059793D01*
X111630156Y-114119196D01*
X111640281Y-114183126D01*
X111701472Y-114303220D01*
X111796780Y-114398528D01*
X111916874Y-114459719D01*
X111926663Y-114461269D01*
X111926665Y-114461270D01*
X112040207Y-114479253D01*
X112050000Y-114480804D01*
X112059793Y-114479253D01*
X112173335Y-114461270D01*
X112173337Y-114461269D01*
X112183126Y-114459719D01*
X112303220Y-114398528D01*
X112398528Y-114303220D01*
X112459719Y-114183126D01*
X112469845Y-114119196D01*
X112479253Y-114059793D01*
X112480804Y-114050000D01*
X112479253Y-114040207D01*
X112461270Y-113926665D01*
X112461269Y-113926663D01*
X112459719Y-113916874D01*
X112398528Y-113796780D01*
X112303220Y-113701472D01*
X112183126Y-113640281D01*
X112173337Y-113638731D01*
X112173335Y-113638730D01*
X112059793Y-113620747D01*
X112050000Y-113619196D01*
X112040207Y-113620747D01*
X111926665Y-113638730D01*
X111926663Y-113638731D01*
X111916874Y-113640281D01*
X111796780Y-113701472D01*
X111701472Y-113796780D01*
X111640281Y-113916874D01*
X111638731Y-113926663D01*
X111638730Y-113926665D01*
X111620747Y-114040207D01*
X111619196Y-114050000D01*
X108280804Y-114050000D01*
X108279253Y-114040207D01*
X108261270Y-113926665D01*
X108261269Y-113926663D01*
X108259719Y-113916874D01*
X108198528Y-113796780D01*
X108103220Y-113701472D01*
X107983126Y-113640281D01*
X107973337Y-113638731D01*
X107973335Y-113638730D01*
X107859793Y-113620747D01*
X107850000Y-113619196D01*
X107840207Y-113620747D01*
X107726665Y-113638730D01*
X107726663Y-113638731D01*
X107716874Y-113640281D01*
X107596780Y-113701472D01*
X107501472Y-113796780D01*
X107440281Y-113916874D01*
X107438731Y-113926663D01*
X107438730Y-113926665D01*
X107420747Y-114040207D01*
X107419196Y-114050000D01*
X100950000Y-114050000D01*
X100950000Y-113276000D01*
X100970002Y-113207879D01*
X101023658Y-113161386D01*
X101076000Y-113150000D01*
X119195170Y-113150000D01*
X119263291Y-113170002D01*
X119309784Y-113223658D01*
X119319888Y-113293932D01*
X119307437Y-113333202D01*
X119297238Y-113353220D01*
X119290281Y-113366874D01*
X119288731Y-113376663D01*
X119288730Y-113376665D01*
X119276289Y-113455218D01*
X119269196Y-113500000D01*
X119270747Y-113509793D01*
X119288075Y-113619196D01*
X119290281Y-113633126D01*
X119351472Y-113753220D01*
X119446780Y-113848528D01*
X119566874Y-113909719D01*
X119576663Y-113911269D01*
X119576665Y-113911270D01*
X119690207Y-113929253D01*
X119700000Y-113930804D01*
X119709793Y-113929253D01*
X119823335Y-113911270D01*
X119823337Y-113911269D01*
X119833126Y-113909719D01*
X119953220Y-113848528D01*
X120048528Y-113753220D01*
X120109719Y-113633126D01*
X120111926Y-113619196D01*
X120129253Y-113509793D01*
X120130804Y-113500000D01*
X120109719Y-113366874D01*
X120113175Y-113366327D01*
X120111648Y-113313132D01*
X120148303Y-113252330D01*
X120213802Y-113220699D01*
X120273334Y-113211270D01*
X120273335Y-113211270D01*
X120283126Y-113209719D01*
X120291957Y-113205219D01*
X120291961Y-113205218D01*
X120325848Y-113187951D01*
X120395625Y-113174846D01*
X120461410Y-113201545D01*
X120495319Y-113243014D01*
X120551472Y-113353220D01*
X120646780Y-113448528D01*
X120766874Y-113509719D01*
X120776663Y-113511269D01*
X120776665Y-113511270D01*
X120890207Y-113529253D01*
X120900000Y-113530804D01*
X120909793Y-113529253D01*
X121023334Y-113511270D01*
X121023335Y-113511270D01*
X121033126Y-113509719D01*
X121036836Y-113507829D01*
X121104611Y-113505891D01*
X121165410Y-113542552D01*
X121184849Y-113570549D01*
X121226972Y-113653220D01*
X121322280Y-113748528D01*
X121442374Y-113809719D01*
X121452163Y-113811269D01*
X121452165Y-113811270D01*
X121565707Y-113829253D01*
X121575500Y-113830804D01*
X121585293Y-113829253D01*
X121698835Y-113811270D01*
X121698837Y-113811269D01*
X121708626Y-113809719D01*
X121828720Y-113748528D01*
X121924028Y-113653220D01*
X121985219Y-113533126D01*
X121988927Y-113509719D01*
X122004753Y-113409793D01*
X122006304Y-113400000D01*
X122002608Y-113376665D01*
X121994420Y-113324963D01*
X122003520Y-113254552D01*
X122049242Y-113200238D01*
X122100625Y-113184752D01*
X122100000Y-113180804D01*
X122136367Y-113175044D01*
X122206777Y-113184143D01*
X122261091Y-113229865D01*
X122282064Y-113297693D01*
X122280526Y-113319203D01*
X122265281Y-113415459D01*
X122263730Y-113425253D01*
X122265281Y-113435046D01*
X122280448Y-113530804D01*
X122284815Y-113558379D01*
X122346006Y-113678473D01*
X122441314Y-113773781D01*
X122561408Y-113834972D01*
X122571197Y-113836522D01*
X122571199Y-113836523D01*
X122684741Y-113854506D01*
X122694534Y-113856057D01*
X122704327Y-113854506D01*
X122817869Y-113836523D01*
X122817871Y-113836522D01*
X122827660Y-113834972D01*
X122947754Y-113773781D01*
X123043062Y-113678473D01*
X123104253Y-113558379D01*
X123108621Y-113530804D01*
X123123787Y-113435046D01*
X123125338Y-113425253D01*
X123123787Y-113415459D01*
X123104821Y-113295710D01*
X123113921Y-113225299D01*
X123159643Y-113170985D01*
X123229270Y-113150000D01*
X126046189Y-113150000D01*
X126114310Y-113170002D01*
X126158456Y-113218797D01*
X126201472Y-113303220D01*
X126296780Y-113398528D01*
X126416874Y-113459719D01*
X126426663Y-113461269D01*
X126426665Y-113461270D01*
X126540207Y-113479253D01*
X126550000Y-113480804D01*
X126559793Y-113479253D01*
X126673335Y-113461270D01*
X126673337Y-113461269D01*
X126683126Y-113459719D01*
X126803220Y-113398528D01*
X126898528Y-113303220D01*
X126941544Y-113218797D01*
X126990293Y-113167182D01*
X127053811Y-113150000D01*
X130300000Y-113150000D01*
X130300000Y-112776000D01*
X130320002Y-112707879D01*
X130373658Y-112661386D01*
X130426000Y-112650000D01*
X132674000Y-112650000D01*
X132742121Y-112670002D01*
G37*
%TD.AperFunction*%
%TD*%
%TA.AperFunction,Conductor*%
%TO.N,GND*%
G36*
X85353544Y-124646154D02*
G01*
X85350000Y-124646154D01*
X72017957Y-124646743D01*
X71985820Y-124641654D01*
X71983126Y-124640281D01*
X71850000Y-124619196D01*
X71840207Y-124620747D01*
X71726670Y-124638729D01*
X71726667Y-124638730D01*
X71716874Y-124640281D01*
X71714156Y-124641666D01*
X71682010Y-124646758D01*
X68993761Y-124646877D01*
X62568575Y-124647160D01*
X62500453Y-124627161D01*
X62453958Y-124573507D01*
X62442569Y-124521090D01*
X62444645Y-120800000D01*
X66519196Y-120800000D01*
X66540281Y-120933126D01*
X66601472Y-121053220D01*
X66696780Y-121148528D01*
X66816874Y-121209719D01*
X66826663Y-121211269D01*
X66826665Y-121211270D01*
X66940207Y-121229253D01*
X66950000Y-121230804D01*
X66959793Y-121229253D01*
X67073335Y-121211270D01*
X67073337Y-121211269D01*
X67083126Y-121209719D01*
X67203220Y-121148528D01*
X67298528Y-121053220D01*
X67359719Y-120933126D01*
X67380804Y-120800000D01*
X67365982Y-120706417D01*
X67375082Y-120636006D01*
X67420804Y-120581692D01*
X67488632Y-120560719D01*
X67547632Y-120574439D01*
X67616874Y-120609719D01*
X67626663Y-120611269D01*
X67626665Y-120611270D01*
X67740207Y-120629253D01*
X67750000Y-120630804D01*
X67759793Y-120629253D01*
X67873335Y-120611270D01*
X67873337Y-120611269D01*
X67883126Y-120609719D01*
X68003220Y-120548528D01*
X68098528Y-120453220D01*
X68159719Y-120333126D01*
X68180804Y-120200000D01*
X68159719Y-120066874D01*
X68158893Y-120065252D01*
X68156994Y-119998776D01*
X68193656Y-119937978D01*
X68257369Y-119906653D01*
X68327902Y-119914747D01*
X68336056Y-119918541D01*
X68408038Y-119955217D01*
X68416874Y-119959719D01*
X68426663Y-119961269D01*
X68426665Y-119961270D01*
X68540207Y-119979253D01*
X68550000Y-119980804D01*
X68559793Y-119979253D01*
X68673335Y-119961270D01*
X68673337Y-119961269D01*
X68683126Y-119959719D01*
X68803220Y-119898528D01*
X68898528Y-119803220D01*
X68959719Y-119683126D01*
X68980804Y-119550000D01*
X68974424Y-119509719D01*
X68961270Y-119426665D01*
X68961269Y-119426663D01*
X68959719Y-119416874D01*
X68898528Y-119296780D01*
X68803220Y-119201472D01*
X68683126Y-119140281D01*
X68673337Y-119138731D01*
X68673335Y-119138730D01*
X68559793Y-119120747D01*
X68550000Y-119119196D01*
X68540207Y-119120747D01*
X68426665Y-119138730D01*
X68426663Y-119138731D01*
X68416874Y-119140281D01*
X68296780Y-119201472D01*
X68201472Y-119296780D01*
X68140281Y-119416874D01*
X68138731Y-119426663D01*
X68138730Y-119426665D01*
X68125576Y-119509719D01*
X68119196Y-119550000D01*
X68140281Y-119683126D01*
X68141107Y-119684748D01*
X68143006Y-119751224D01*
X68106344Y-119812022D01*
X68042631Y-119843347D01*
X67972098Y-119835253D01*
X67963944Y-119831459D01*
X67891962Y-119794783D01*
X67891961Y-119794783D01*
X67883126Y-119790281D01*
X67873337Y-119788731D01*
X67873335Y-119788730D01*
X67759793Y-119770747D01*
X67750000Y-119769196D01*
X67740207Y-119770747D01*
X67626665Y-119788730D01*
X67626663Y-119788731D01*
X67616874Y-119790281D01*
X67496780Y-119851472D01*
X67401472Y-119946780D01*
X67340281Y-120066874D01*
X67319196Y-120200000D01*
X67320747Y-120209793D01*
X67334018Y-120293583D01*
X67324918Y-120363994D01*
X67279196Y-120418308D01*
X67211368Y-120439281D01*
X67152368Y-120425561D01*
X67083126Y-120390281D01*
X67073337Y-120388731D01*
X67073335Y-120388730D01*
X66959793Y-120370747D01*
X66950000Y-120369196D01*
X66940207Y-120370747D01*
X66826665Y-120388730D01*
X66826663Y-120388731D01*
X66816874Y-120390281D01*
X66696780Y-120451472D01*
X66601472Y-120546780D01*
X66540281Y-120666874D01*
X66519196Y-120800000D01*
X62444645Y-120800000D01*
X62445544Y-119189258D01*
X62459277Y-119132126D01*
X62505217Y-119041962D01*
X62505217Y-119041961D01*
X62509719Y-119033126D01*
X62530804Y-118900000D01*
X62509719Y-118766874D01*
X62459599Y-118668507D01*
X62445866Y-118611236D01*
X62446709Y-117100000D01*
X72950000Y-117100000D01*
X72950000Y-119700000D01*
X75250000Y-119700000D01*
X75268627Y-119680256D01*
X77712702Y-117089536D01*
X77773998Y-117053711D01*
X77804354Y-117050000D01*
X79400000Y-117050000D01*
X79400000Y-112750000D01*
X77500000Y-112750000D01*
X72950000Y-117100000D01*
X62446709Y-117100000D01*
X62447023Y-116536354D01*
X62460756Y-116479221D01*
X62505218Y-116391959D01*
X62509719Y-116383126D01*
X62530804Y-116250000D01*
X62509719Y-116116874D01*
X62505217Y-116108038D01*
X62461076Y-116021405D01*
X62447343Y-115964133D01*
X62449247Y-112550000D01*
X75719196Y-112550000D01*
X75740281Y-112683126D01*
X75801472Y-112803220D01*
X75896780Y-112898528D01*
X76016874Y-112959719D01*
X76026663Y-112961269D01*
X76026665Y-112961270D01*
X76140207Y-112979253D01*
X76150000Y-112980804D01*
X76159793Y-112979253D01*
X76273335Y-112961270D01*
X76273337Y-112961269D01*
X76283126Y-112959719D01*
X76403220Y-112898528D01*
X76498528Y-112803220D01*
X76559719Y-112683126D01*
X76580804Y-112550000D01*
X76559719Y-112416874D01*
X76498528Y-112296780D01*
X76403220Y-112201472D01*
X76283126Y-112140281D01*
X76273337Y-112138731D01*
X76273335Y-112138730D01*
X76159793Y-112120747D01*
X76150000Y-112119196D01*
X76140207Y-112120747D01*
X76026665Y-112138730D01*
X76026663Y-112138731D01*
X76016874Y-112140281D01*
X75896780Y-112201472D01*
X75801472Y-112296780D01*
X75740281Y-112416874D01*
X75719196Y-112550000D01*
X62449247Y-112550000D01*
X62449930Y-111325930D01*
X62469970Y-111257820D01*
X62523652Y-111211357D01*
X62575930Y-111200000D01*
X85350503Y-111200000D01*
X85353544Y-124646154D01*
G37*
%TD.AperFunction*%
%TD*%
%TA.AperFunction,Conductor*%
%TO.N,LX*%
G36*
X78942121Y-113070002D02*
G01*
X78988614Y-113123658D01*
X79000000Y-113176000D01*
X79000000Y-116624000D01*
X78979998Y-116692121D01*
X78926342Y-116738614D01*
X78874000Y-116750000D01*
X77650000Y-116750000D01*
X77643060Y-116757357D01*
X77643059Y-116757357D01*
X75187298Y-119360464D01*
X75126002Y-119396289D01*
X75095646Y-119400000D01*
X73376000Y-119400000D01*
X73307879Y-119379998D01*
X73261386Y-119326342D01*
X73250000Y-119274000D01*
X73250000Y-117253936D01*
X73270002Y-117185815D01*
X73289025Y-117162769D01*
X73713975Y-116757357D01*
X77563489Y-113084833D01*
X77626583Y-113052284D01*
X77650463Y-113050000D01*
X78874000Y-113050000D01*
X78942121Y-113070002D01*
G37*
%TD.AperFunction*%
%TD*%
M02*
