%TF.GenerationSoftware,KiCad,Pcbnew,(5.99.0-11174-ge2a2c3282a)*%
%TF.CreationDate,2021-07-05T21:59:09+02:00*%
%TF.ProjectId,flatlight_rev20_ESIDE,666c6174-6c69-4676-9874-5f7265763230,rev?*%
%TF.SameCoordinates,Original*%
%TF.FileFunction,Soldermask,Top*%
%TF.FilePolarity,Negative*%
%FSLAX46Y46*%
G04 Gerber Fmt 4.6, Leading zero omitted, Abs format (unit mm)*
G04 Created by KiCad (PCBNEW (5.99.0-11174-ge2a2c3282a)) date 2021-07-05 21:59:09*
%MOMM*%
%LPD*%
G01*
G04 APERTURE LIST*
G04 Aperture macros list*
%AMRoundRect*
0 Rectangle with rounded corners*
0 $1 Rounding radius*
0 $2 $3 $4 $5 $6 $7 $8 $9 X,Y pos of 4 corners*
0 Add a 4 corners polygon primitive as box body*
4,1,4,$2,$3,$4,$5,$6,$7,$8,$9,$2,$3,0*
0 Add four circle primitives for the rounded corners*
1,1,$1+$1,$2,$3*
1,1,$1+$1,$4,$5*
1,1,$1+$1,$6,$7*
1,1,$1+$1,$8,$9*
0 Add four rect primitives between the rounded corners*
20,1,$1+$1,$2,$3,$4,$5,0*
20,1,$1+$1,$4,$5,$6,$7,0*
20,1,$1+$1,$6,$7,$8,$9,0*
20,1,$1+$1,$8,$9,$2,$3,0*%
%AMRotRect*
0 Rectangle, with rotation*
0 The origin of the aperture is its center*
0 $1 length*
0 $2 width*
0 $3 Rotation angle, in degrees counterclockwise*
0 Add horizontal line*
21,1,$1,$2,0,0,$3*%
%AMFreePoly0*
4,1,6,0.100000,-0.050000,-0.100000,-0.050000,-0.100000,0.475000,0.000000,0.575000,0.100000,0.575000,0.100000,-0.050000,0.100000,-0.050000,$1*%
%AMFreePoly1*
4,1,7,0.100000,0.575000,0.100000,-0.050000,-0.100000,-0.050000,-0.100000,0.575000,-0.050000,0.625000,0.050000,0.625000,0.100000,0.575000,0.100000,0.575000,$1*%
%AMFreePoly2*
4,1,6,0.100000,0.475000,0.100000,-0.050000,-0.100000,-0.050000,-0.100000,0.575000,0.000000,0.575000,0.100000,0.475000,0.100000,0.475000,$1*%
%AMFreePoly3*
4,1,7,0.100000,1.200000,0.100000,-0.075000,-0.100000,-0.075000,-0.100000,1.200000,-0.050000,1.250000,0.050000,1.250000,0.100000,1.200000,0.100000,1.200000,$1*%
%AMFreePoly4*
4,1,10,0.050000,-0.300000,-0.450000,-0.300000,-0.600000,-0.150000,-0.600000,0.050000,-1.475000,0.050000,-1.525000,0.100000,-1.525000,0.250000,-1.475000,0.300000,0.050000,0.300000,0.050000,-0.300000,0.050000,-0.300000,$1*%
%AMFreePoly5*
4,1,9,0.050000,-0.300000,-1.475000,-0.300000,-1.525000,-0.250000,-1.525000,-0.100000,-1.475000,-0.050000,-0.600000,-0.050000,-0.600000,0.300000,0.050000,0.300000,0.050000,-0.300000,0.050000,-0.300000,$1*%
%AMFreePoly6*
4,1,7,0.050000,-0.100000,-0.575000,-0.100000,-0.625000,-0.050000,-0.625000,0.050000,-0.575000,0.100000,0.050000,0.100000,0.050000,-0.100000,0.050000,-0.100000,$1*%
%AMFreePoly7*
4,1,9,0.100000,-0.400000,0.350000,-0.650000,0.800000,-0.650000,0.800000,-0.850000,-0.050000,-0.850000,-0.100000,-0.800000,-0.100000,0.050000,0.100000,0.050000,0.100000,-0.400000,0.100000,-0.400000,$1*%
%AMFreePoly8*
4,1,7,0.300000,-1.000000,0.250000,-1.050000,-0.250000,-1.050000,-0.300000,-1.000000,-0.300000,0.050000,0.300000,0.050000,0.300000,-1.000000,0.300000,-1.000000,$1*%
%AMFreePoly9*
4,1,7,0.100000,-1.000000,0.050000,-1.050000,-0.050000,-1.050000,-0.100000,-1.000000,-0.100000,0.050000,0.100000,0.050000,0.100000,-1.000000,0.100000,-1.000000,$1*%
%AMFreePoly10*
4,1,10,0.300000,-1.000000,0.250000,-1.050000,0.100000,-1.050000,0.050000,-1.000000,0.050000,-0.550000,-0.200000,-0.550000,-0.300000,-0.450000,-0.300000,0.050000,0.300000,0.050000,0.300000,-1.000000,0.300000,-1.000000,$1*%
%AMFreePoly11*
4,1,5,0.110000,-0.125000,-0.110000,-0.125000,-0.110000,0.125000,0.360000,0.125000,0.110000,-0.125000,0.110000,-0.125000,$1*%
%AMFreePoly12*
4,1,6,0.290000,-0.055000,0.290000,-0.125000,-0.110000,-0.125000,-0.110000,0.125000,0.110000,0.125000,0.290000,-0.055000,0.290000,-0.055000,$1*%
%AMFreePoly13*
4,1,6,0.110000,-0.125000,-0.290000,-0.125000,-0.290000,-0.055000,-0.110000,0.125000,0.110000,0.125000,0.110000,-0.125000,0.110000,-0.125000,$1*%
%AMFreePoly14*
4,1,6,0.110000,-0.125000,-0.110000,-0.125000,-0.290000,0.055000,-0.290000,0.125000,0.110000,0.125000,0.110000,-0.125000,0.110000,-0.125000,$1*%
G04 Aperture macros list end*
%ADD10RoundRect,0.140000X-0.140000X-0.170000X0.140000X-0.170000X0.140000X0.170000X-0.140000X0.170000X0*%
%ADD11RoundRect,0.140000X0.140000X0.170000X-0.140000X0.170000X-0.140000X-0.170000X0.140000X-0.170000X0*%
%ADD12RoundRect,0.250000X0.250000X0.475000X-0.250000X0.475000X-0.250000X-0.475000X0.250000X-0.475000X0*%
%ADD13RoundRect,0.225000X-0.250000X0.225000X-0.250000X-0.225000X0.250000X-0.225000X0.250000X0.225000X0*%
%ADD14RoundRect,0.225000X0.250000X-0.225000X0.250000X0.225000X-0.250000X0.225000X-0.250000X-0.225000X0*%
%ADD15RoundRect,0.140000X0.170000X-0.140000X0.170000X0.140000X-0.170000X0.140000X-0.170000X-0.140000X0*%
%ADD16RoundRect,0.250000X-0.250000X-0.475000X0.250000X-0.475000X0.250000X0.475000X-0.250000X0.475000X0*%
%ADD17RoundRect,0.250000X-0.475000X0.250000X-0.475000X-0.250000X0.475000X-0.250000X0.475000X0.250000X0*%
%ADD18RoundRect,0.250000X-0.325000X-1.100000X0.325000X-1.100000X0.325000X1.100000X-0.325000X1.100000X0*%
%ADD19RoundRect,0.225000X-0.225000X-0.250000X0.225000X-0.250000X0.225000X0.250000X-0.225000X0.250000X0*%
%ADD20RoundRect,0.140000X-0.170000X0.140000X-0.170000X-0.140000X0.170000X-0.140000X0.170000X0.140000X0*%
%ADD21C,4.400000*%
%ADD22C,0.700000*%
%ADD23RoundRect,0.218750X0.218750X0.256250X-0.218750X0.256250X-0.218750X-0.256250X0.218750X-0.256250X0*%
%ADD24R,0.980000X3.700000*%
%ADD25RoundRect,0.218750X-0.256250X0.218750X-0.256250X-0.218750X0.256250X-0.218750X0.256250X0.218750X0*%
%ADD26R,0.400000X0.425000*%
%ADD27R,0.950000X1.100000*%
%ADD28R,0.480000X0.800000*%
%ADD29RoundRect,0.200000X0.275000X-0.200000X0.275000X0.200000X-0.275000X0.200000X-0.275000X-0.200000X0*%
%ADD30RoundRect,0.200000X0.200000X0.275000X-0.200000X0.275000X-0.200000X-0.275000X0.200000X-0.275000X0*%
%ADD31RoundRect,0.200000X-0.200000X-0.275000X0.200000X-0.275000X0.200000X0.275000X-0.200000X0.275000X0*%
%ADD32RoundRect,0.200000X-0.275000X0.200000X-0.275000X-0.200000X0.275000X-0.200000X0.275000X0.200000X0*%
%ADD33R,0.300000X0.500000*%
%ADD34R,0.675000X0.250000*%
%ADD35R,0.250000X0.675000*%
%ADD36RoundRect,0.050000X0.387500X0.050000X-0.387500X0.050000X-0.387500X-0.050000X0.387500X-0.050000X0*%
%ADD37RoundRect,0.050000X0.050000X0.387500X-0.050000X0.387500X-0.050000X-0.387500X0.050000X-0.387500X0*%
%ADD38R,4.000000X4.000000*%
%ADD39FreePoly0,270.000000*%
%ADD40FreePoly1,270.000000*%
%ADD41FreePoly2,270.000000*%
%ADD42FreePoly0,0.000000*%
%ADD43FreePoly1,0.000000*%
%ADD44FreePoly3,0.000000*%
%ADD45FreePoly2,0.000000*%
%ADD46FreePoly4,0.000000*%
%ADD47R,0.100000X0.100000*%
%ADD48FreePoly5,0.000000*%
%ADD49FreePoly6,0.000000*%
%ADD50FreePoly7,0.000000*%
%ADD51FreePoly8,0.000000*%
%ADD52FreePoly9,0.000000*%
%ADD53FreePoly10,0.000000*%
%ADD54R,0.750000X0.300000*%
%ADD55R,1.750000X1.450000*%
%ADD56FreePoly11,180.000000*%
%ADD57FreePoly12,180.000000*%
%ADD58FreePoly13,180.000000*%
%ADD59FreePoly14,180.000000*%
%ADD60RotRect,0.480000X0.480000X225.000000*%
%ADD61R,1.150000X1.000000*%
%ADD62C,1.500000*%
%ADD63R,1.350000X1.350000*%
%ADD64O,1.350000X1.350000*%
%ADD65C,1.600000*%
%ADD66R,1.400000X1.300000*%
%ADD67RoundRect,0.250000X0.450000X-0.350000X0.450000X0.350000X-0.450000X0.350000X-0.450000X-0.350000X0*%
%ADD68R,2.000000X1.000000*%
%ADD69C,0.600000*%
%ADD70O,0.600000X0.850000*%
%ADD71R,1.000000X0.520000*%
%ADD72R,1.000000X0.270000*%
%ADD73O,2.300000X1.300000*%
%ADD74O,2.600000X1.300000*%
%ADD75RoundRect,0.150000X-0.512500X-0.150000X0.512500X-0.150000X0.512500X0.150000X-0.512500X0.150000X0*%
%ADD76R,0.500000X0.300000*%
%ADD77RoundRect,0.160000X0.160000X-0.222500X0.160000X0.222500X-0.160000X0.222500X-0.160000X-0.222500X0*%
%ADD78R,0.800000X0.200000*%
%ADD79R,0.800000X0.600000*%
%ADD80R,3.500000X0.350000*%
%ADD81C,0.450000*%
%ADD82C,1.000000*%
G04 APERTURE END LIST*
D10*
%TO.C,C26*%
X129470000Y-127550000D03*
X130430000Y-127550000D03*
%TD*%
D11*
%TO.C,C27*%
X90230000Y-115250000D03*
X89270000Y-115250000D03*
%TD*%
%TO.C,C17*%
X130430000Y-126450000D03*
X129470000Y-126450000D03*
%TD*%
D12*
%TO.C,C7*%
X74100000Y-127250000D03*
X72200000Y-127250000D03*
%TD*%
D13*
%TO.C,C1*%
X76150000Y-113425000D03*
X76150000Y-114975000D03*
%TD*%
D14*
%TO.C,C23*%
X131850000Y-124475000D03*
X131850000Y-122925000D03*
%TD*%
D15*
%TO.C,C16*%
X118150000Y-126630000D03*
X118150000Y-125670000D03*
%TD*%
D14*
%TO.C,C22*%
X130250000Y-124475000D03*
X130250000Y-122925000D03*
%TD*%
D15*
%TO.C,C12*%
X117000000Y-126630000D03*
X117000000Y-125670000D03*
%TD*%
D16*
%TO.C,C5*%
X80200000Y-119550000D03*
X82100000Y-119550000D03*
%TD*%
%TO.C,C10*%
X66000000Y-116850000D03*
X67900000Y-116850000D03*
%TD*%
D17*
%TO.C,C6*%
X78250000Y-119300000D03*
X78250000Y-121200000D03*
%TD*%
D16*
%TO.C,C8*%
X71650000Y-112350000D03*
X73550000Y-112350000D03*
%TD*%
D12*
%TO.C,C2*%
X90700000Y-117800000D03*
X88800000Y-117800000D03*
%TD*%
D18*
%TO.C,C9*%
X70525000Y-115150000D03*
X73475000Y-115150000D03*
%TD*%
D16*
%TO.C,C3*%
X44300000Y-85400000D03*
X46200000Y-85400000D03*
%TD*%
%TO.C,C4*%
X44300000Y-83100000D03*
X46200000Y-83100000D03*
%TD*%
D10*
%TO.C,C20*%
X113520000Y-113550000D03*
X114480000Y-113550000D03*
%TD*%
D19*
%TO.C,C21*%
X113225000Y-115250000D03*
X114775000Y-115250000D03*
%TD*%
D13*
%TO.C,C24*%
X125350000Y-125875000D03*
X125350000Y-127425000D03*
%TD*%
%TO.C,C25*%
X120250000Y-125925000D03*
X120250000Y-127475000D03*
%TD*%
D11*
%TO.C,C18*%
X131930000Y-116750000D03*
X130970000Y-116750000D03*
%TD*%
D14*
%TO.C,C19*%
X132300000Y-115275000D03*
X132300000Y-113725000D03*
%TD*%
D20*
%TO.C,C13*%
X119050000Y-111320000D03*
X119050000Y-112280000D03*
%TD*%
D21*
%TO.C,H5*%
X42250000Y-127550000D03*
D22*
X42250000Y-129200000D03*
X40600000Y-127550000D03*
X43900000Y-127550000D03*
X41083274Y-126383274D03*
X43416726Y-128716726D03*
X43416726Y-126383274D03*
X42250000Y-125900000D03*
X41083274Y-128716726D03*
%TD*%
%TO.C,H6*%
X90916726Y-68716726D03*
D21*
X89750000Y-67550000D03*
D22*
X89750000Y-65900000D03*
X88583274Y-66383274D03*
X88100000Y-67550000D03*
X89750000Y-69200000D03*
X88583274Y-68716726D03*
X91400000Y-67550000D03*
X90916726Y-66383274D03*
%TD*%
%TO.C,H4*%
X40550000Y-67500000D03*
D21*
X42200000Y-67500000D03*
D22*
X42200000Y-65850000D03*
X41033274Y-66333274D03*
X41033274Y-68666726D03*
X42200000Y-69150000D03*
X43850000Y-67500000D03*
X43366726Y-66333274D03*
X43366726Y-68666726D03*
%TD*%
%TO.C,H3*%
X138416726Y-66383274D03*
X136083274Y-66383274D03*
D21*
X137250000Y-67550000D03*
D22*
X137250000Y-69200000D03*
X138900000Y-67550000D03*
X137250000Y-65900000D03*
X135600000Y-67550000D03*
X136083274Y-68716726D03*
X138416726Y-68716726D03*
%TD*%
%TO.C,H2*%
X136083274Y-128716726D03*
X136083274Y-126383274D03*
X137250000Y-129200000D03*
D21*
X137250000Y-127550000D03*
D22*
X138900000Y-127550000D03*
X138416726Y-128716726D03*
X135600000Y-127550000D03*
X137250000Y-125900000D03*
X138416726Y-126383274D03*
%TD*%
%TO.C,H1*%
X90916726Y-128716726D03*
X91400000Y-127550000D03*
X90916726Y-126383274D03*
X89750000Y-129200000D03*
X89750000Y-125900000D03*
D21*
X89750000Y-127550000D03*
D22*
X88100000Y-127550000D03*
X88583274Y-126383274D03*
X88583274Y-128716726D03*
%TD*%
D23*
%TO.C,L3*%
X131837500Y-121300000D03*
X130262500Y-121300000D03*
%TD*%
D24*
%TO.C,L1*%
X80485000Y-114900000D03*
X78115000Y-114900000D03*
%TD*%
D25*
%TO.C,L2*%
X130600000Y-113712500D03*
X130600000Y-115287500D03*
%TD*%
D26*
%TO.C,Q1*%
X99301504Y-110949888D03*
X99951504Y-112849888D03*
X99951504Y-110949888D03*
D27*
X99651504Y-111899888D03*
D26*
X99301504Y-112849888D03*
D28*
X100651504Y-111899888D03*
D26*
X100601504Y-110949888D03*
X100601504Y-112849888D03*
%TD*%
D29*
%TO.C,R5*%
X127400000Y-127525000D03*
X127400000Y-125875000D03*
%TD*%
D30*
%TO.C,R1*%
X80075000Y-127250000D03*
X78425000Y-127250000D03*
%TD*%
D31*
%TO.C,R2*%
X78425000Y-125650000D03*
X80075000Y-125650000D03*
%TD*%
D32*
%TO.C,R7*%
X104350000Y-111075000D03*
X104350000Y-112725000D03*
%TD*%
%TO.C,R8*%
X102800000Y-111075000D03*
X102800000Y-112725000D03*
%TD*%
D29*
%TO.C,R9*%
X106400000Y-112725000D03*
X106400000Y-111075000D03*
%TD*%
%TO.C,R3*%
X113450000Y-127525000D03*
X113450000Y-125875000D03*
%TD*%
%TO.C,R4*%
X114950000Y-127525000D03*
X114950000Y-125875000D03*
%TD*%
D33*
%TO.C,RN1*%
X121100000Y-112150000D03*
X121600000Y-112150000D03*
X122100000Y-112150000D03*
X122600000Y-112150000D03*
X122600000Y-111150000D03*
X122100000Y-111150000D03*
X121600000Y-111150000D03*
X121100000Y-111150000D03*
%TD*%
D34*
%TO.C,U7*%
X88487500Y-111587500D03*
X88487500Y-112087500D03*
X88487500Y-112587500D03*
X88487500Y-113087500D03*
D35*
X89250000Y-113350000D03*
X89750000Y-113350000D03*
X90250000Y-113350000D03*
D34*
X91012500Y-113087500D03*
X91012500Y-112587500D03*
X91012500Y-112087500D03*
X91012500Y-111587500D03*
D35*
X90250000Y-111325000D03*
X89750000Y-111325000D03*
X89250000Y-111325000D03*
%TD*%
D36*
%TO.C,U6*%
X125837500Y-121700000D03*
X125837500Y-121300000D03*
X125837500Y-120900000D03*
X125837500Y-120500000D03*
X125837500Y-120100000D03*
X125837500Y-119700000D03*
X125837500Y-119300000D03*
X125837500Y-118900000D03*
X125837500Y-118500000D03*
X125837500Y-118100000D03*
X125837500Y-117700000D03*
X125837500Y-117300000D03*
X125837500Y-116900000D03*
X125837500Y-116500000D03*
D37*
X125000000Y-115662500D03*
X124600000Y-115662500D03*
X124200000Y-115662500D03*
X123800000Y-115662500D03*
X123400000Y-115662500D03*
X123000000Y-115662500D03*
X122600000Y-115662500D03*
X122200000Y-115662500D03*
X121800000Y-115662500D03*
X121400000Y-115662500D03*
X121000000Y-115662500D03*
X120600000Y-115662500D03*
X120200000Y-115662500D03*
X119800000Y-115662500D03*
D36*
X118962500Y-116500000D03*
X118962500Y-116900000D03*
X118962500Y-117300000D03*
X118962500Y-117700000D03*
X118962500Y-118100000D03*
X118962500Y-118500000D03*
X118962500Y-118900000D03*
X118962500Y-119300000D03*
X118962500Y-119700000D03*
X118962500Y-120100000D03*
X118962500Y-120500000D03*
X118962500Y-120900000D03*
X118962500Y-121300000D03*
X118962500Y-121700000D03*
D37*
X119800000Y-122537500D03*
X120200000Y-122537500D03*
X120600000Y-122537500D03*
X121000000Y-122537500D03*
X121400000Y-122537500D03*
X121800000Y-122537500D03*
X122200000Y-122537500D03*
X122600000Y-122537500D03*
X123000000Y-122537500D03*
X123400000Y-122537500D03*
X123800000Y-122537500D03*
X124200000Y-122537500D03*
X124600000Y-122537500D03*
X125000000Y-122537500D03*
D38*
X122400000Y-119100000D03*
%TD*%
D39*
%TO.C,U3*%
X71400000Y-120300000D03*
D40*
X71400000Y-120700000D03*
X71400000Y-121100000D03*
X71400000Y-121500000D03*
X71400000Y-121900000D03*
D41*
X71400000Y-122300000D03*
D42*
X72150000Y-123050000D03*
D43*
X72550000Y-123050000D03*
D44*
X72950000Y-123025000D03*
D43*
X73350000Y-123050000D03*
X73750000Y-123050000D03*
D45*
X74150000Y-123050000D03*
D46*
X74900000Y-122100000D03*
D47*
X74800000Y-122100000D03*
D48*
X74900000Y-121300000D03*
D47*
X74800000Y-121300000D03*
D49*
X74900000Y-120700000D03*
D47*
X74875000Y-120300000D03*
D50*
X74150000Y-119550000D03*
D51*
X73550000Y-119550000D03*
D47*
X73550000Y-119650000D03*
D52*
X72950000Y-119550000D03*
D53*
X72350000Y-119550000D03*
D47*
X72350000Y-119650000D03*
%TD*%
D54*
%TO.C,U5*%
X112550000Y-116937500D03*
X112550000Y-117437500D03*
X112550000Y-117937500D03*
X112550000Y-118437500D03*
X115450000Y-118437500D03*
X115450000Y-117937500D03*
X115450000Y-117437500D03*
X115450000Y-116937500D03*
D55*
X114000000Y-117687500D03*
%TD*%
D56*
%TO.C,U2*%
X87390000Y-119575000D03*
D57*
X87390000Y-118925000D03*
D58*
X86310000Y-118925000D03*
D59*
X86310000Y-119575000D03*
D60*
X86850000Y-119250000D03*
%TD*%
D61*
%TO.C,Y1*%
X121925000Y-127400000D03*
X123675000Y-127400000D03*
X123675000Y-126000000D03*
X121925000Y-126000000D03*
%TD*%
D30*
%TO.C,R6*%
X97325000Y-111900000D03*
X95675000Y-111900000D03*
%TD*%
D62*
%TO.C,H17*%
X41700000Y-72000000D03*
%TD*%
%TO.C,H18*%
X41700000Y-89500000D03*
%TD*%
D63*
%TO.C,J1*%
X138050000Y-104550000D03*
D64*
X138050000Y-102550000D03*
X138050000Y-100550000D03*
X138050000Y-98550000D03*
X138050000Y-96550000D03*
X138050000Y-94550000D03*
X138050000Y-92550000D03*
X138050000Y-90550000D03*
%TD*%
D33*
%TO.C,RN6*%
X125900000Y-111150000D03*
X125400000Y-111150000D03*
X124900000Y-111150000D03*
X124400000Y-111150000D03*
X124400000Y-112150000D03*
X124900000Y-112150000D03*
X125400000Y-112150000D03*
X125900000Y-112150000D03*
%TD*%
D65*
%TO.C,SW4*%
X105250000Y-123250000D03*
D66*
X107750000Y-126450000D03*
D65*
X99250000Y-123250000D03*
D66*
X96750000Y-126450000D03*
X106250000Y-120150000D03*
X103750000Y-120150000D03*
X100750000Y-120150000D03*
X98250000Y-120150000D03*
%TD*%
D17*
%TO.C,C28*%
X83500000Y-113950000D03*
X83500000Y-115850000D03*
%TD*%
D67*
%TO.C,F1*%
X51350000Y-114300000D03*
X51350000Y-112300000D03*
%TD*%
D29*
%TO.C,R10*%
X116187500Y-112575000D03*
X116187500Y-110925000D03*
%TD*%
D68*
%TO.C,J2*%
X42685000Y-118200000D03*
D69*
X45785000Y-113800000D03*
D70*
X45785000Y-119800000D03*
D68*
X42685000Y-115400000D03*
D71*
X46885000Y-113700000D03*
X46885000Y-114450000D03*
D72*
X46885000Y-115050000D03*
X46885000Y-116550000D03*
X46885000Y-117550000D03*
X46885000Y-118550000D03*
D71*
X46885000Y-119150000D03*
X46885000Y-119900000D03*
X46885000Y-119900000D03*
X46885000Y-119150000D03*
D72*
X46885000Y-118050000D03*
X46885000Y-117050000D03*
X46885000Y-116050000D03*
X46885000Y-115550000D03*
D71*
X46885000Y-114450000D03*
X46885000Y-113700000D03*
D73*
X46510000Y-121120000D03*
D74*
X42685000Y-112480000D03*
D73*
X46510000Y-112480000D03*
D74*
X42685000Y-121120000D03*
%TD*%
D75*
%TO.C,U1*%
X58112500Y-116200000D03*
X58112500Y-117150000D03*
X58112500Y-118100000D03*
X60387500Y-118100000D03*
X60387500Y-117150000D03*
X60387500Y-116200000D03*
%TD*%
D76*
%TO.C,RN3*%
X114400000Y-121900000D03*
X114400000Y-121400000D03*
X114400000Y-120900000D03*
X114400000Y-120400000D03*
X113400000Y-120400000D03*
X113400000Y-120900000D03*
X113400000Y-121400000D03*
X113400000Y-121900000D03*
%TD*%
D67*
%TO.C,FB1*%
X50250000Y-123050000D03*
X50250000Y-121050000D03*
%TD*%
D30*
%TO.C,R19*%
X55325000Y-118200000D03*
X53675000Y-118200000D03*
%TD*%
D77*
%TO.C,D1*%
X52700000Y-122622500D03*
X52700000Y-121477500D03*
%TD*%
D30*
%TO.C,R20*%
X55325000Y-116100000D03*
X53675000Y-116100000D03*
%TD*%
%TO.C,R18*%
X67775000Y-125350000D03*
X66125000Y-125350000D03*
%TD*%
D33*
%TO.C,RN5*%
X103000000Y-116350000D03*
X102500000Y-116350000D03*
X102000000Y-116350000D03*
X101500000Y-116350000D03*
X101500000Y-117350000D03*
X102000000Y-117350000D03*
X102500000Y-117350000D03*
X103000000Y-117350000D03*
%TD*%
D78*
%TO.C,BT1*%
X44450000Y-79550000D03*
X44450000Y-75550000D03*
X44450000Y-75150000D03*
X44450000Y-79150000D03*
X46050000Y-75150000D03*
X46050000Y-79150000D03*
X46050000Y-79550000D03*
X46050000Y-75550000D03*
D79*
X46050000Y-78550000D03*
X46050000Y-74550000D03*
X44450000Y-78550000D03*
X44450000Y-74550000D03*
X44450000Y-80150000D03*
X44450000Y-76150000D03*
X46050000Y-76150000D03*
X46050000Y-80150000D03*
%TD*%
D33*
%TO.C,RN4*%
X127250000Y-112150000D03*
X127750000Y-112150000D03*
X128250000Y-112150000D03*
X128750000Y-112150000D03*
X128750000Y-111150000D03*
X128250000Y-111150000D03*
X127750000Y-111150000D03*
X127250000Y-111150000D03*
%TD*%
D30*
%TO.C,R17*%
X67775000Y-123650000D03*
X66125000Y-123650000D03*
%TD*%
%TO.C,R13*%
X132225000Y-111600000D03*
X130575000Y-111600000D03*
%TD*%
D80*
%TO.C,TFT1*%
X91800000Y-78800000D03*
X91800000Y-79500000D03*
X91800000Y-80200000D03*
X91800000Y-80900000D03*
X91800000Y-81600000D03*
X91800000Y-82300000D03*
X91800000Y-83000000D03*
X91800000Y-83700000D03*
X91800000Y-84400000D03*
X91800000Y-85100000D03*
X91800000Y-85800000D03*
X91800000Y-86500000D03*
%TD*%
D81*
X97950000Y-107050000D03*
X111750000Y-129550000D03*
X123950000Y-128350000D03*
X87750000Y-117850000D03*
X84250000Y-129550000D03*
X40450000Y-88250000D03*
X110150000Y-119450000D03*
X114250000Y-129550000D03*
X131850000Y-125550000D03*
X53050000Y-108250000D03*
X91300000Y-115250000D03*
X50200000Y-65850000D03*
X124250000Y-129550000D03*
X99350000Y-107050000D03*
X94450000Y-113450000D03*
X55200000Y-65850000D03*
X122400000Y-124950000D03*
X130250000Y-125550000D03*
X119450000Y-128350000D03*
X138150000Y-124750000D03*
X52700000Y-65850000D03*
X85100000Y-114050000D03*
X116100000Y-65850000D03*
X79650000Y-112550000D03*
X44350000Y-129550000D03*
X133150000Y-124450000D03*
X95600000Y-129550000D03*
X85100000Y-112550000D03*
X134050000Y-113450000D03*
X133150000Y-123550000D03*
X138950000Y-75550000D03*
X121100000Y-65850000D03*
X87750000Y-120550000D03*
X74750000Y-114450000D03*
X82700000Y-65850000D03*
X129250000Y-129550000D03*
X126250000Y-126850000D03*
X109650000Y-111950000D03*
X117750000Y-111650000D03*
X40450000Y-108250000D03*
X59350000Y-129550000D03*
X121250000Y-124950000D03*
X46850000Y-129550000D03*
X126100000Y-65850000D03*
X81550000Y-111350000D03*
X40450000Y-93250000D03*
X129150000Y-122050000D03*
X40450000Y-100750000D03*
X101750000Y-111950000D03*
X76850000Y-129550000D03*
X125450000Y-124950000D03*
X92150000Y-118450000D03*
X78425000Y-122475000D03*
X115900000Y-127550000D03*
X65900000Y-114475000D03*
X47700000Y-65850000D03*
X40450000Y-70750000D03*
X91825000Y-87350000D03*
X79650000Y-111350000D03*
X136750000Y-124750000D03*
X135350000Y-124750000D03*
X101750000Y-107050000D03*
X121850000Y-128350000D03*
X129150000Y-122750000D03*
X106750000Y-129550000D03*
X123600000Y-65850000D03*
X139350000Y-108950000D03*
X93100000Y-129550000D03*
X93600000Y-65850000D03*
X133150000Y-122750000D03*
X86250000Y-117850000D03*
X40450000Y-110750000D03*
X128600000Y-65850000D03*
X119250000Y-126650000D03*
X105350000Y-111950000D03*
X52100000Y-115950000D03*
X66350000Y-115125000D03*
X134050000Y-111750000D03*
X86350000Y-107050000D03*
X133150000Y-122050000D03*
X70100000Y-119550000D03*
X119250000Y-125500000D03*
X40450000Y-73250000D03*
X138950000Y-83050000D03*
X87550000Y-107050000D03*
X94450000Y-111750000D03*
X121750000Y-129550000D03*
X139350000Y-124750000D03*
X127750000Y-122050000D03*
X50550000Y-118750000D03*
X80200000Y-65850000D03*
X87050000Y-114050000D03*
X74750000Y-113400000D03*
X40550000Y-122650000D03*
X108600000Y-65850000D03*
X138950000Y-88050000D03*
X83450000Y-111350000D03*
X85100000Y-117850000D03*
X134050000Y-114950000D03*
X56400000Y-117150000D03*
X77750000Y-117850000D03*
X81550000Y-112550000D03*
X112050000Y-111950000D03*
X93450000Y-113450000D03*
X51850000Y-129550000D03*
X56850000Y-129550000D03*
X134050000Y-117850000D03*
X138950000Y-80550000D03*
X68950000Y-111350000D03*
X40450000Y-95750000D03*
X134250000Y-129550000D03*
X102950000Y-107050000D03*
X40450000Y-103250000D03*
X83050000Y-122350000D03*
X71850000Y-129550000D03*
X134050000Y-116350000D03*
X49350000Y-129550000D03*
X138950000Y-85550000D03*
X116500000Y-125000000D03*
X100650000Y-107050000D03*
X129150000Y-124350000D03*
X134050000Y-124750000D03*
X40550000Y-125150000D03*
X134050000Y-109150000D03*
X75250000Y-111350000D03*
X81500000Y-122375000D03*
X124550000Y-124950000D03*
X70050000Y-124250000D03*
X66850000Y-129550000D03*
X113050000Y-119450000D03*
X93450000Y-111750000D03*
X118150000Y-127550000D03*
X60200000Y-65850000D03*
X40450000Y-90750000D03*
X93450000Y-115250000D03*
X117000000Y-127550000D03*
X92150000Y-119550000D03*
X116750000Y-129550000D03*
X111100000Y-65850000D03*
X64675000Y-115100000D03*
X98100000Y-129550000D03*
X86750000Y-129550000D03*
X91300000Y-114550000D03*
X85100000Y-120550000D03*
X85100000Y-121450000D03*
X128450000Y-122050000D03*
X138950000Y-73050000D03*
X69350000Y-129550000D03*
X114650000Y-119450000D03*
X65200000Y-65850000D03*
X80750000Y-117850000D03*
X112050000Y-116250000D03*
X110150000Y-116400000D03*
X40450000Y-105750000D03*
X96750000Y-107050000D03*
X106100000Y-65850000D03*
X64350000Y-129550000D03*
X138950000Y-78050000D03*
X126750000Y-129550000D03*
X133600000Y-65850000D03*
X70200000Y-65850000D03*
X75200000Y-65850000D03*
X119250000Y-129550000D03*
X86250000Y-120550000D03*
X46350000Y-108250000D03*
X80100000Y-122400000D03*
X85100000Y-122350000D03*
X129150000Y-123550000D03*
X131100000Y-65850000D03*
X138950000Y-106350000D03*
X74350000Y-129550000D03*
X110150000Y-118000000D03*
X131750000Y-129550000D03*
X62700000Y-65850000D03*
X85100000Y-111350000D03*
X61850000Y-129550000D03*
X135050000Y-108950000D03*
X134050000Y-119350000D03*
X126350000Y-127850000D03*
X79250000Y-117850000D03*
X72700000Y-65850000D03*
X138950000Y-108350000D03*
X77150000Y-122375000D03*
X83450000Y-112550000D03*
X92150000Y-117150000D03*
X120250000Y-124950000D03*
X98600000Y-65850000D03*
X82250000Y-117850000D03*
X66200000Y-119550000D03*
X85200000Y-65850000D03*
X113600000Y-65850000D03*
X56850000Y-117150000D03*
X90750000Y-119550000D03*
X127050000Y-122050000D03*
X49850000Y-108250000D03*
X79250000Y-129550000D03*
X134050000Y-120450000D03*
X103600000Y-65850000D03*
X77350000Y-112550000D03*
X81750000Y-129550000D03*
D82*
X63900000Y-108950000D03*
D81*
X112050000Y-114050000D03*
X125450000Y-128350000D03*
X87750000Y-109050000D03*
X77700000Y-65850000D03*
X70550000Y-111350000D03*
X65050000Y-114450000D03*
X57700000Y-65850000D03*
X96100000Y-65850000D03*
X101100000Y-65850000D03*
X65475000Y-115100000D03*
X54350000Y-129550000D03*
X137650000Y-108950000D03*
X77350000Y-111350000D03*
X138950000Y-70550000D03*
X45200000Y-65850000D03*
X134050000Y-110250000D03*
X40450000Y-98250000D03*
X107150000Y-100350000D03*
X42350000Y-108250000D03*
X67700000Y-65850000D03*
X118600000Y-65850000D03*
X113850000Y-119450000D03*
X41750000Y-81100000D03*
X42250000Y-86100000D03*
X42250000Y-82100000D03*
D82*
X71900000Y-108950000D03*
D81*
X41750000Y-85100000D03*
X42250000Y-78100000D03*
X41750000Y-79100000D03*
X41750000Y-83100000D03*
X41750000Y-77100000D03*
X42250000Y-84100000D03*
X42250000Y-80100000D03*
X42250000Y-76100000D03*
X128575000Y-127525000D03*
X109150000Y-128850000D03*
X76150000Y-112550000D03*
X68550000Y-119550000D03*
X78650000Y-114600000D03*
X78650000Y-114000000D03*
X73550000Y-118300000D03*
X78650000Y-113400000D03*
X78650000Y-116400000D03*
X73550000Y-119100000D03*
X78650000Y-115800000D03*
X73550000Y-117500000D03*
X78650000Y-115200000D03*
X40750000Y-114550000D03*
X40750000Y-116750000D03*
X40750000Y-118950000D03*
X48850000Y-120550000D03*
X51800000Y-120550000D03*
X40750000Y-112450000D03*
X40750000Y-121150000D03*
X48850000Y-121550000D03*
X62100000Y-116250000D03*
X62100000Y-118900000D03*
D82*
X75900000Y-108950000D03*
D81*
X102150000Y-127900000D03*
X121900000Y-124400000D03*
X100150000Y-127900000D03*
X121400000Y-123825500D03*
X130600000Y-110400000D03*
X107850000Y-114050000D03*
X66950000Y-120800000D03*
X67750000Y-120200000D03*
X112450000Y-120300000D03*
X126550000Y-113050000D03*
X104350000Y-107050000D03*
X106400000Y-106150000D03*
X106350000Y-100350000D03*
X124400000Y-124100000D03*
X113450000Y-125000000D03*
X114950000Y-125000000D03*
X122750000Y-124200000D03*
X89800000Y-108900000D03*
X121575500Y-113400000D03*
X122694534Y-113425253D03*
X93450000Y-112600000D03*
X120900000Y-113100000D03*
X88750000Y-109000000D03*
X122100000Y-112750000D03*
X86950000Y-108250000D03*
X129550000Y-118344313D03*
X101050000Y-115200000D03*
X129950000Y-117650000D03*
X102750000Y-115000000D03*
X103450000Y-114700000D03*
X129950000Y-116950000D03*
X130370000Y-118325735D03*
X111950000Y-125050000D03*
X71850000Y-125050000D03*
X111550000Y-121000000D03*
X116400000Y-118750000D03*
X111050000Y-117435502D03*
X117185967Y-117930598D03*
X111450000Y-116850000D03*
X111500000Y-118000000D03*
X116950000Y-117274500D03*
X130600000Y-113000000D03*
X128550000Y-126450000D03*
X118150000Y-123550000D03*
X131450000Y-113700000D03*
D82*
X79900000Y-108950000D03*
D81*
X101950000Y-114800000D03*
X131450000Y-113000000D03*
X128550000Y-125900000D03*
X88800000Y-119200000D03*
X106400000Y-113400000D03*
X117600000Y-123550000D03*
X132300000Y-113000000D03*
X116500000Y-123550000D03*
X128543750Y-125400000D03*
X88800000Y-118700000D03*
X88800000Y-119650000D03*
X117050000Y-123550000D03*
X77300000Y-127250000D03*
X112450000Y-121500000D03*
X88600000Y-107050000D03*
X88575000Y-79550000D03*
X52900000Y-117924980D03*
X120150000Y-112800000D03*
X119700000Y-113500000D03*
X52850000Y-116375020D03*
D82*
X67900000Y-108950000D03*
D81*
X48600000Y-114450000D03*
X49600000Y-118900000D03*
X49600000Y-114450000D03*
X49100000Y-118700000D03*
X49100000Y-114650000D03*
X48600000Y-118900000D03*
M02*
