M48
; DRILL file {KiCad (5.99.0-11174-ge2a2c3282a)} date Mon Jul  5 21:58:59 2021
; FORMAT={-:-/ absolute / metric / decimal}
; #@! TF.CreationDate,2021-07-05T21:58:59+02:00
; #@! TF.GenerationSoftware,Kicad,Pcbnew,(5.99.0-11174-ge2a2c3282a)
; #@! TF.FileFunction,Plated,1,4,PTH
FMAT,2
METRIC
; #@! TA.AperFunction,Plated,PTH,ViaDrill
T1C0.200
; #@! TA.AperFunction,Plated,PTH,ComponentDrill
T2C0.200
; #@! TA.AperFunction,Plated,PTH,ComponentDrill
T3C0.300
; #@! TA.AperFunction,Plated,PTH,ComponentDrill
T4C0.400
; #@! TA.AperFunction,Plated,PTH,ViaDrill
T5C0.600
; #@! TA.AperFunction,Plated,PTH,ComponentDrill
T6C0.600
; #@! TA.AperFunction,Plated,PTH,ComponentDrill
T7C0.800
; #@! TA.AperFunction,Plated,PTH,ComponentDrill
T8C1.000
; #@! TA.AperFunction,Plated,PTH,ComponentDrill
T9C2.200
%
G90
G05
T1
X40.45Y-70.75
X40.45Y-73.25
X40.45Y-88.25
X40.45Y-90.75
X40.45Y-93.25
X40.45Y-95.75
X40.45Y-98.25
X40.45Y-100.75
X40.45Y-103.25
X40.45Y-105.75
X40.45Y-108.25
X40.45Y-110.75
X40.55Y-122.65
X40.55Y-125.15
X40.75Y-112.45
X40.75Y-114.55
X40.75Y-116.75
X40.75Y-118.95
X40.75Y-121.15
X41.75Y-77.1
X41.75Y-79.1
X41.75Y-81.1
X41.75Y-83.1
X41.75Y-85.1
X42.25Y-76.1
X42.25Y-78.1
X42.25Y-80.1
X42.25Y-82.1
X42.25Y-84.1
X42.25Y-86.1
X42.35Y-108.25
X44.35Y-129.55
X45.2Y-65.85
X46.35Y-108.25
X46.85Y-129.55
X47.7Y-65.85
X48.6Y-114.45
X48.6Y-118.9
X48.85Y-120.55
X48.85Y-121.55
X49.1Y-114.65
X49.1Y-118.7
X49.35Y-129.55
X49.6Y-114.45
X49.6Y-118.9
X49.85Y-108.25
X50.2Y-65.85
X50.55Y-118.75
X51.8Y-120.55
X51.85Y-129.55
X52.1Y-115.95
X52.7Y-65.85
X52.85Y-116.375
X52.9Y-117.925
X53.05Y-108.25
X54.35Y-129.55
X55.2Y-65.85
X56.4Y-117.15
X56.85Y-117.15
X56.85Y-129.55
X57.7Y-65.85
X59.35Y-129.55
X60.2Y-65.85
X61.85Y-129.55
X62.1Y-116.25
X62.1Y-118.9
X62.7Y-65.85
X64.35Y-129.55
X64.675Y-115.1
X65.05Y-114.45
X65.2Y-65.85
X65.475Y-115.1
X65.9Y-114.475
X66.2Y-119.55
X66.35Y-115.125
X66.85Y-129.55
X66.95Y-120.8
X67.7Y-65.85
X67.75Y-120.2
X68.55Y-119.55
X68.95Y-111.35
X69.35Y-129.55
X70.05Y-124.25
X70.1Y-119.55
X70.2Y-65.85
X70.55Y-111.35
X71.85Y-125.05
X71.85Y-129.55
X72.7Y-65.85
X73.55Y-117.5
X73.55Y-118.3
X73.55Y-119.1
X74.35Y-129.55
X74.75Y-113.4
X74.75Y-114.45
X75.2Y-65.85
X75.25Y-111.35
X76.15Y-112.55
X76.85Y-129.55
X77.15Y-122.375
X77.3Y-127.25
X77.35Y-111.35
X77.35Y-112.55
X77.7Y-65.85
X77.75Y-117.85
X78.425Y-122.475
X78.65Y-113.4
X78.65Y-114.0
X78.65Y-114.6
X78.65Y-115.2
X78.65Y-115.8
X78.65Y-116.4
X79.25Y-117.85
X79.25Y-129.55
X79.65Y-111.35
X79.65Y-112.55
X80.1Y-122.4
X80.2Y-65.85
X80.75Y-117.85
X81.5Y-122.375
X81.55Y-111.35
X81.55Y-112.55
X81.75Y-129.55
X82.25Y-117.85
X82.7Y-65.85
X83.05Y-122.35
X83.45Y-111.35
X83.45Y-112.55
X84.25Y-129.55
X85.1Y-111.35
X85.1Y-112.55
X85.1Y-114.05
X85.1Y-117.85
X85.1Y-120.55
X85.1Y-121.45
X85.1Y-122.35
X85.2Y-65.85
X86.25Y-117.85
X86.25Y-120.55
X86.35Y-107.05
X86.75Y-129.55
X86.95Y-108.25
X87.05Y-114.05
X87.55Y-107.05
X87.75Y-109.05
X87.75Y-117.85
X87.75Y-120.55
X88.575Y-79.55
X88.6Y-107.05
X88.75Y-109.0
X88.8Y-118.7
X88.8Y-119.2
X88.8Y-119.65
X89.8Y-108.9
X90.75Y-119.55
X91.3Y-114.55
X91.3Y-115.25
X91.825Y-87.35
X92.15Y-117.15
X92.15Y-118.45
X92.15Y-119.55
X93.1Y-129.55
X93.45Y-111.75
X93.45Y-112.6
X93.45Y-113.45
X93.45Y-115.25
X93.6Y-65.85
X94.45Y-111.75
X94.45Y-113.45
X95.6Y-129.55
X96.1Y-65.85
X96.75Y-107.05
X97.95Y-107.05
X98.1Y-129.55
X98.6Y-65.85
X99.35Y-107.05
X100.15Y-127.9
X100.65Y-107.05
X101.05Y-115.2
X101.1Y-65.85
X101.75Y-107.05
X101.75Y-111.95
X101.95Y-114.8
X102.15Y-127.9
X102.75Y-115.0
X102.95Y-107.05
X103.45Y-114.7
X103.6Y-65.85
X104.35Y-107.05
X105.35Y-111.95
X106.1Y-65.85
X106.35Y-100.35
X106.4Y-106.15
X106.4Y-113.4
X106.75Y-129.55
X107.15Y-100.35
X107.85Y-114.05
X108.6Y-65.85
X109.15Y-128.85
X109.65Y-111.95
X110.15Y-116.4
X110.15Y-118.0
X110.15Y-119.45
X111.05Y-117.436
X111.1Y-65.85
X111.45Y-116.85
X111.5Y-118.0
X111.55Y-121.0
X111.75Y-129.55
X111.95Y-125.05
X112.05Y-111.95
X112.05Y-114.05
X112.05Y-116.25
X112.45Y-120.3
X112.45Y-121.5
X113.05Y-119.45
X113.45Y-125.0
X113.6Y-65.85
X113.85Y-119.45
X114.25Y-129.55
X114.65Y-119.45
X114.95Y-125.0
X115.9Y-127.55
X116.1Y-65.85
X116.4Y-118.75
X116.5Y-123.55
X116.5Y-125.0
X116.75Y-129.55
X116.95Y-117.274
X117.0Y-127.55
X117.05Y-123.55
X117.186Y-117.931
X117.6Y-123.55
X117.75Y-111.65
X118.15Y-123.55
X118.15Y-127.55
X118.6Y-65.85
X119.25Y-125.5
X119.25Y-126.65
X119.25Y-129.55
X119.45Y-128.35
X119.7Y-113.5
X120.15Y-112.8
X120.25Y-124.95
X120.9Y-113.1
X121.1Y-65.85
X121.25Y-124.95
X121.4Y-123.825
X121.575Y-113.4
X121.75Y-129.55
X121.85Y-128.35
X121.9Y-124.4
X122.1Y-112.75
X122.4Y-124.95
X122.695Y-113.425
X122.75Y-124.2
X123.6Y-65.85
X123.95Y-128.35
X124.25Y-129.55
X124.4Y-124.1
X124.55Y-124.95
X125.45Y-124.95
X125.45Y-128.35
X126.1Y-65.85
X126.25Y-126.85
X126.35Y-127.85
X126.55Y-113.05
X126.75Y-129.55
X127.05Y-122.05
X127.75Y-122.05
X128.45Y-122.05
X128.544Y-125.4
X128.55Y-125.9
X128.55Y-126.45
X128.575Y-127.525
X128.6Y-65.85
X129.15Y-122.05
X129.15Y-122.75
X129.15Y-123.55
X129.15Y-124.35
X129.25Y-129.55
X129.55Y-118.344
X129.95Y-116.95
X129.95Y-117.65
X130.25Y-125.55
X130.37Y-118.326
X130.6Y-110.4
X130.6Y-113.0
X131.1Y-65.85
X131.45Y-113.0
X131.45Y-113.7
X131.75Y-129.55
X131.85Y-125.55
X132.3Y-113.0
X133.15Y-122.05
X133.15Y-122.75
X133.15Y-123.55
X133.15Y-124.45
X133.6Y-65.85
X134.05Y-109.15
X134.05Y-110.25
X134.05Y-111.75
X134.05Y-113.45
X134.05Y-114.95
X134.05Y-116.35
X134.05Y-117.85
X134.05Y-119.35
X134.05Y-120.45
X134.05Y-124.75
X134.25Y-129.55
X135.05Y-108.95
X135.35Y-124.75
X136.75Y-124.75
X137.65Y-108.95
X138.15Y-124.75
X138.95Y-70.55
X138.95Y-73.05
X138.95Y-75.55
X138.95Y-78.05
X138.95Y-80.55
X138.95Y-83.05
X138.95Y-85.55
X138.95Y-88.05
X138.95Y-106.35
X138.95Y-108.35
X139.35Y-108.95
X139.35Y-124.75
T2
X120.65Y-117.35
X120.65Y-118.5
X120.65Y-119.7
X120.65Y-120.85
X121.85Y-117.35
X121.85Y-118.5
X121.85Y-119.7
X121.85Y-120.85
X122.925Y-117.35
X122.925Y-118.5
X122.925Y-119.7
X122.925Y-120.85
X124.15Y-117.35
X124.15Y-118.5
X124.15Y-119.7
X124.15Y-120.85
T3
X134.15Y-123.4
T4
X40.55Y-67.5
X40.6Y-127.55
X41.033Y-66.333
X41.033Y-68.667
X41.083Y-126.383
X41.083Y-128.717
X42.2Y-65.85
X42.2Y-69.15
X42.25Y-125.9
X42.25Y-129.2
X43.367Y-66.333
X43.367Y-68.667
X43.417Y-126.383
X43.417Y-128.717
X43.85Y-67.5
X43.9Y-127.55
X88.1Y-67.55
X88.1Y-127.55
X88.583Y-66.383
X88.583Y-68.717
X88.583Y-126.383
X88.583Y-128.717
X89.75Y-65.9
X89.75Y-69.2
X89.75Y-125.9
X89.75Y-129.2
X90.917Y-66.383
X90.917Y-68.717
X90.917Y-126.383
X90.917Y-128.717
X91.4Y-67.55
X91.4Y-127.55
X135.6Y-67.55
X135.6Y-127.55
X136.083Y-66.383
X136.083Y-68.717
X136.083Y-126.383
X136.083Y-128.717
X137.25Y-65.9
X137.25Y-69.2
X137.25Y-125.9
X137.25Y-129.2
X138.417Y-66.383
X138.417Y-68.717
X138.417Y-126.383
X138.417Y-128.717
X138.9Y-67.55
X138.9Y-127.55
T5
X63.9Y-108.95
X67.9Y-108.95
X71.9Y-108.95
X75.9Y-108.95
X79.9Y-108.95
T7
X138.05Y-90.55
X138.05Y-92.55
X138.05Y-94.55
X138.05Y-96.55
X138.05Y-98.55
X138.05Y-100.55
X138.05Y-102.55
X138.05Y-104.55
T8
X41.7Y-72.0
X41.7Y-89.5
T9
X42.2Y-67.5
X42.25Y-127.55
X89.75Y-67.55
X89.75Y-127.55
X137.25Y-67.55
X137.25Y-127.55
T6
G00X43.335Y-112.48
M15
G01X42.035Y-112.48
M16
G05
G00X43.335Y-121.12
M15
G01X42.035Y-121.12
M16
G05
G00X47.01Y-112.48
M15
G01X46.01Y-112.48
M16
G05
G00X47.01Y-121.12
M15
G01X46.01Y-121.12
M16
G05
T0
M30
