%TF.GenerationSoftware,KiCad,Pcbnew,(5.99.0-11174-ge2a2c3282a)*%
%TF.CreationDate,2021-07-05T21:59:08+02:00*%
%TF.ProjectId,flatlight_rev20_ESIDE,666c6174-6c69-4676-9874-5f7265763230,rev?*%
%TF.SameCoordinates,Original*%
%TF.FileFunction,Legend,Bot*%
%TF.FilePolarity,Positive*%
%FSLAX46Y46*%
G04 Gerber Fmt 4.6, Leading zero omitted, Abs format (unit mm)*
G04 Created by KiCad (PCBNEW (5.99.0-11174-ge2a2c3282a)) date 2021-07-05 21:59:08*
%MOMM*%
%LPD*%
G01*
G04 APERTURE LIST*
%ADD10C,0.100000*%
%ADD11C,0.120000*%
G04 APERTURE END LIST*
D10*
%TO.C,J3*%
X102150000Y-130971428D02*
X102150000Y-131400000D01*
X102178571Y-131485714D01*
X102235714Y-131542857D01*
X102321428Y-131571428D01*
X102378571Y-131571428D01*
X101921428Y-130971428D02*
X101550000Y-130971428D01*
X101750000Y-131200000D01*
X101664285Y-131200000D01*
X101607142Y-131228571D01*
X101578571Y-131257142D01*
X101550000Y-131314285D01*
X101550000Y-131457142D01*
X101578571Y-131514285D01*
X101607142Y-131542857D01*
X101664285Y-131571428D01*
X101835714Y-131571428D01*
X101892857Y-131542857D01*
X101921428Y-131514285D01*
D11*
%TO.C,SW1*%
X110550000Y-125500000D02*
X110550000Y-128800000D01*
X113350000Y-128800000D02*
X113050000Y-128800000D01*
X110550000Y-128800000D02*
X110850000Y-128800000D01*
X113350000Y-125500000D02*
X113350000Y-128800000D01*
X113050000Y-125500000D02*
X113350000Y-125500000D01*
X110850000Y-125500000D02*
X110550000Y-125500000D01*
%TO.C,SW2*%
X109350000Y-128800000D02*
X109650000Y-128800000D01*
X106850000Y-125500000D02*
X107150000Y-125500000D01*
X107150000Y-128800000D02*
X106850000Y-128800000D01*
X109650000Y-125500000D02*
X109350000Y-125500000D01*
X109650000Y-128800000D02*
X109650000Y-125500000D01*
X106850000Y-128800000D02*
X106850000Y-125500000D01*
%TO.C,TP1*%
X79200000Y-108250000D02*
X79200000Y-109650000D01*
X80600000Y-108250000D02*
X79200000Y-108250000D01*
X79200000Y-109650000D02*
X80600000Y-109650000D01*
X80600000Y-109650000D02*
X80600000Y-108250000D01*
%TO.C,TP2*%
X72600000Y-108250000D02*
X71200000Y-108250000D01*
X71200000Y-109650000D02*
X72600000Y-109650000D01*
X72600000Y-109650000D02*
X72600000Y-108250000D01*
X71200000Y-108250000D02*
X71200000Y-109650000D01*
%TO.C,TP3*%
X68600000Y-109650000D02*
X68600000Y-108250000D01*
X68600000Y-108250000D02*
X67200000Y-108250000D01*
X67200000Y-109650000D02*
X68600000Y-109650000D01*
X67200000Y-108250000D02*
X67200000Y-109650000D01*
%TO.C,TP4*%
X64600000Y-109650000D02*
X64600000Y-108250000D01*
X64600000Y-108250000D02*
X63200000Y-108250000D01*
X63200000Y-109650000D02*
X64600000Y-109650000D01*
X63200000Y-108250000D02*
X63200000Y-109650000D01*
%TO.C,TP6*%
X76600000Y-109650000D02*
X76600000Y-108250000D01*
X76600000Y-108250000D02*
X75200000Y-108250000D01*
X75200000Y-109650000D02*
X76600000Y-109650000D01*
X75200000Y-108250000D02*
X75200000Y-109650000D01*
%TD*%
M02*
