%TF.GenerationSoftware,KiCad,Pcbnew,(5.99.0-11174-ge2a2c3282a)*%
%TF.CreationDate,2021-07-05T21:59:08+02:00*%
%TF.ProjectId,flatlight_rev20_ESIDE,666c6174-6c69-4676-9874-5f7265763230,rev?*%
%TF.SameCoordinates,Original*%
%TF.FileFunction,Paste,Top*%
%TF.FilePolarity,Positive*%
%FSLAX46Y46*%
G04 Gerber Fmt 4.6, Leading zero omitted, Abs format (unit mm)*
G04 Created by KiCad (PCBNEW (5.99.0-11174-ge2a2c3282a)) date 2021-07-05 21:59:08*
%MOMM*%
%LPD*%
G01*
G04 APERTURE LIST*
G04 Aperture macros list*
%AMRoundRect*
0 Rectangle with rounded corners*
0 $1 Rounding radius*
0 $2 $3 $4 $5 $6 $7 $8 $9 X,Y pos of 4 corners*
0 Add a 4 corners polygon primitive as box body*
4,1,4,$2,$3,$4,$5,$6,$7,$8,$9,$2,$3,0*
0 Add four circle primitives for the rounded corners*
1,1,$1+$1,$2,$3*
1,1,$1+$1,$4,$5*
1,1,$1+$1,$6,$7*
1,1,$1+$1,$8,$9*
0 Add four rect primitives between the rounded corners*
20,1,$1+$1,$2,$3,$4,$5,0*
20,1,$1+$1,$4,$5,$6,$7,0*
20,1,$1+$1,$6,$7,$8,$9,0*
20,1,$1+$1,$8,$9,$2,$3,0*%
%AMRotRect*
0 Rectangle, with rotation*
0 The origin of the aperture is its center*
0 $1 length*
0 $2 width*
0 $3 Rotation angle, in degrees counterclockwise*
0 Add horizontal line*
21,1,$1,$2,0,0,$3*%
%AMFreePoly0*
4,1,6,0.100000,-0.050000,-0.100000,-0.050000,-0.100000,0.475000,0.000000,0.575000,0.100000,0.575000,0.100000,-0.050000,0.100000,-0.050000,$1*%
%AMFreePoly1*
4,1,7,0.100000,0.575000,0.100000,-0.050000,-0.100000,-0.050000,-0.100000,0.575000,-0.050000,0.625000,0.050000,0.625000,0.100000,0.575000,0.100000,0.575000,$1*%
%AMFreePoly2*
4,1,6,0.100000,0.475000,0.100000,-0.050000,-0.100000,-0.050000,-0.100000,0.575000,0.000000,0.575000,0.100000,0.475000,0.100000,0.475000,$1*%
%AMFreePoly3*
4,1,7,0.100000,1.200000,0.100000,-0.075000,-0.100000,-0.075000,-0.100000,1.200000,-0.050000,1.250000,0.050000,1.250000,0.100000,1.200000,0.100000,1.200000,$1*%
%AMFreePoly4*
4,1,10,0.050000,-0.300000,-0.450000,-0.300000,-0.600000,-0.150000,-0.600000,0.050000,-1.475000,0.050000,-1.525000,0.100000,-1.525000,0.250000,-1.475000,0.300000,0.050000,0.300000,0.050000,-0.300000,0.050000,-0.300000,$1*%
%AMFreePoly5*
4,1,9,0.050000,-0.300000,-1.475000,-0.300000,-1.525000,-0.250000,-1.525000,-0.100000,-1.475000,-0.050000,-0.600000,-0.050000,-0.600000,0.300000,0.050000,0.300000,0.050000,-0.300000,0.050000,-0.300000,$1*%
%AMFreePoly6*
4,1,7,0.050000,-0.100000,-0.575000,-0.100000,-0.625000,-0.050000,-0.625000,0.050000,-0.575000,0.100000,0.050000,0.100000,0.050000,-0.100000,0.050000,-0.100000,$1*%
%AMFreePoly7*
4,1,9,0.100000,-0.400000,0.350000,-0.650000,0.800000,-0.650000,0.800000,-0.850000,-0.050000,-0.850000,-0.100000,-0.800000,-0.100000,0.050000,0.100000,0.050000,0.100000,-0.400000,0.100000,-0.400000,$1*%
%AMFreePoly8*
4,1,7,0.300000,-1.000000,0.250000,-1.050000,-0.250000,-1.050000,-0.300000,-1.000000,-0.300000,0.050000,0.300000,0.050000,0.300000,-1.000000,0.300000,-1.000000,$1*%
%AMFreePoly9*
4,1,7,0.100000,-1.000000,0.050000,-1.050000,-0.050000,-1.050000,-0.100000,-1.000000,-0.100000,0.050000,0.100000,0.050000,0.100000,-1.000000,0.100000,-1.000000,$1*%
%AMFreePoly10*
4,1,10,0.300000,-1.000000,0.250000,-1.050000,0.100000,-1.050000,0.050000,-1.000000,0.050000,-0.550000,-0.200000,-0.550000,-0.300000,-0.450000,-0.300000,0.050000,0.300000,0.050000,0.300000,-1.000000,0.300000,-1.000000,$1*%
%AMFreePoly11*
4,1,5,0.110000,-0.125000,-0.110000,-0.125000,-0.110000,0.125000,0.360000,0.125000,0.110000,-0.125000,0.110000,-0.125000,$1*%
%AMFreePoly12*
4,1,6,0.290000,-0.055000,0.290000,-0.125000,-0.110000,-0.125000,-0.110000,0.125000,0.110000,0.125000,0.290000,-0.055000,0.290000,-0.055000,$1*%
%AMFreePoly13*
4,1,6,0.110000,-0.125000,-0.290000,-0.125000,-0.290000,-0.055000,-0.110000,0.125000,0.110000,0.125000,0.110000,-0.125000,0.110000,-0.125000,$1*%
%AMFreePoly14*
4,1,6,0.110000,-0.125000,-0.110000,-0.125000,-0.290000,0.055000,-0.290000,0.125000,0.110000,0.125000,0.110000,-0.125000,0.110000,-0.125000,$1*%
G04 Aperture macros list end*
%ADD10RoundRect,0.140000X-0.140000X-0.170000X0.140000X-0.170000X0.140000X0.170000X-0.140000X0.170000X0*%
%ADD11RoundRect,0.140000X0.140000X0.170000X-0.140000X0.170000X-0.140000X-0.170000X0.140000X-0.170000X0*%
%ADD12RoundRect,0.250000X0.250000X0.475000X-0.250000X0.475000X-0.250000X-0.475000X0.250000X-0.475000X0*%
%ADD13RoundRect,0.225000X-0.250000X0.225000X-0.250000X-0.225000X0.250000X-0.225000X0.250000X0.225000X0*%
%ADD14RoundRect,0.225000X0.250000X-0.225000X0.250000X0.225000X-0.250000X0.225000X-0.250000X-0.225000X0*%
%ADD15RoundRect,0.140000X0.170000X-0.140000X0.170000X0.140000X-0.170000X0.140000X-0.170000X-0.140000X0*%
%ADD16RoundRect,0.250000X-0.250000X-0.475000X0.250000X-0.475000X0.250000X0.475000X-0.250000X0.475000X0*%
%ADD17RoundRect,0.250000X-0.475000X0.250000X-0.475000X-0.250000X0.475000X-0.250000X0.475000X0.250000X0*%
%ADD18RoundRect,0.250000X-0.325000X-1.100000X0.325000X-1.100000X0.325000X1.100000X-0.325000X1.100000X0*%
%ADD19RoundRect,0.225000X-0.225000X-0.250000X0.225000X-0.250000X0.225000X0.250000X-0.225000X0.250000X0*%
%ADD20RoundRect,0.140000X-0.170000X0.140000X-0.170000X-0.140000X0.170000X-0.140000X0.170000X0.140000X0*%
%ADD21RoundRect,0.218750X0.218750X0.256250X-0.218750X0.256250X-0.218750X-0.256250X0.218750X-0.256250X0*%
%ADD22R,0.980000X3.700000*%
%ADD23RoundRect,0.218750X-0.256250X0.218750X-0.256250X-0.218750X0.256250X-0.218750X0.256250X0.218750X0*%
%ADD24R,0.400000X0.425000*%
%ADD25R,0.950000X1.100000*%
%ADD26R,0.480000X0.800000*%
%ADD27RoundRect,0.200000X0.275000X-0.200000X0.275000X0.200000X-0.275000X0.200000X-0.275000X-0.200000X0*%
%ADD28RoundRect,0.200000X0.200000X0.275000X-0.200000X0.275000X-0.200000X-0.275000X0.200000X-0.275000X0*%
%ADD29RoundRect,0.200000X-0.200000X-0.275000X0.200000X-0.275000X0.200000X0.275000X-0.200000X0.275000X0*%
%ADD30RoundRect,0.200000X-0.275000X0.200000X-0.275000X-0.200000X0.275000X-0.200000X0.275000X0.200000X0*%
%ADD31R,0.300000X0.500000*%
%ADD32R,0.675000X0.250000*%
%ADD33R,0.250000X0.675000*%
%ADD34RoundRect,0.250000X0.292217X0.292217X-0.292217X0.292217X-0.292217X-0.292217X0.292217X-0.292217X0*%
%ADD35RoundRect,0.050000X0.387500X0.050000X-0.387500X0.050000X-0.387500X-0.050000X0.387500X-0.050000X0*%
%ADD36RoundRect,0.050000X0.050000X0.387500X-0.050000X0.387500X-0.050000X-0.387500X0.050000X-0.387500X0*%
%ADD37FreePoly0,270.000000*%
%ADD38FreePoly1,270.000000*%
%ADD39FreePoly2,270.000000*%
%ADD40FreePoly0,0.000000*%
%ADD41FreePoly1,0.000000*%
%ADD42FreePoly3,0.000000*%
%ADD43FreePoly2,0.000000*%
%ADD44FreePoly4,0.000000*%
%ADD45R,0.100000X0.100000*%
%ADD46FreePoly5,0.000000*%
%ADD47FreePoly6,0.000000*%
%ADD48FreePoly7,0.000000*%
%ADD49FreePoly8,0.000000*%
%ADD50FreePoly9,0.000000*%
%ADD51FreePoly10,0.000000*%
%ADD52R,0.710000X0.580000*%
%ADD53R,0.750000X0.300000*%
%ADD54FreePoly11,180.000000*%
%ADD55FreePoly12,180.000000*%
%ADD56FreePoly13,180.000000*%
%ADD57FreePoly14,180.000000*%
%ADD58RotRect,0.480000X0.480000X225.000000*%
%ADD59R,1.150000X1.000000*%
%ADD60R,1.400000X1.300000*%
%ADD61RoundRect,0.250000X0.450000X-0.350000X0.450000X0.350000X-0.450000X0.350000X-0.450000X-0.350000X0*%
%ADD62R,2.000000X1.000000*%
%ADD63R,1.000000X0.520000*%
%ADD64R,1.000000X0.270000*%
%ADD65RoundRect,0.150000X-0.512500X-0.150000X0.512500X-0.150000X0.512500X0.150000X-0.512500X0.150000X0*%
%ADD66R,0.500000X0.300000*%
%ADD67RoundRect,0.160000X0.160000X-0.222500X0.160000X0.222500X-0.160000X0.222500X-0.160000X-0.222500X0*%
%ADD68R,0.800000X0.200000*%
%ADD69R,0.800000X0.600000*%
%ADD70R,3.500000X0.350000*%
G04 APERTURE END LIST*
D10*
%TO.C,C26*%
X129470000Y-127550000D03*
X130430000Y-127550000D03*
%TD*%
D11*
%TO.C,C27*%
X90230000Y-115250000D03*
X89270000Y-115250000D03*
%TD*%
%TO.C,C17*%
X130430000Y-126450000D03*
X129470000Y-126450000D03*
%TD*%
D12*
%TO.C,C7*%
X74100000Y-127250000D03*
X72200000Y-127250000D03*
%TD*%
D13*
%TO.C,C1*%
X76150000Y-113425000D03*
X76150000Y-114975000D03*
%TD*%
D14*
%TO.C,C23*%
X131850000Y-124475000D03*
X131850000Y-122925000D03*
%TD*%
D15*
%TO.C,C16*%
X118150000Y-126630000D03*
X118150000Y-125670000D03*
%TD*%
D14*
%TO.C,C22*%
X130250000Y-124475000D03*
X130250000Y-122925000D03*
%TD*%
D15*
%TO.C,C12*%
X117000000Y-126630000D03*
X117000000Y-125670000D03*
%TD*%
D16*
%TO.C,C5*%
X80200000Y-119550000D03*
X82100000Y-119550000D03*
%TD*%
%TO.C,C10*%
X66000000Y-116850000D03*
X67900000Y-116850000D03*
%TD*%
D17*
%TO.C,C6*%
X78250000Y-119300000D03*
X78250000Y-121200000D03*
%TD*%
D16*
%TO.C,C8*%
X71650000Y-112350000D03*
X73550000Y-112350000D03*
%TD*%
D12*
%TO.C,C2*%
X90700000Y-117800000D03*
X88800000Y-117800000D03*
%TD*%
D18*
%TO.C,C9*%
X70525000Y-115150000D03*
X73475000Y-115150000D03*
%TD*%
D16*
%TO.C,C3*%
X44300000Y-85400000D03*
X46200000Y-85400000D03*
%TD*%
%TO.C,C4*%
X44300000Y-83100000D03*
X46200000Y-83100000D03*
%TD*%
D10*
%TO.C,C20*%
X113520000Y-113550000D03*
X114480000Y-113550000D03*
%TD*%
D19*
%TO.C,C21*%
X113225000Y-115250000D03*
X114775000Y-115250000D03*
%TD*%
D13*
%TO.C,C24*%
X125350000Y-125875000D03*
X125350000Y-127425000D03*
%TD*%
%TO.C,C25*%
X120250000Y-125925000D03*
X120250000Y-127475000D03*
%TD*%
D11*
%TO.C,C18*%
X131930000Y-116750000D03*
X130970000Y-116750000D03*
%TD*%
D14*
%TO.C,C19*%
X132300000Y-115275000D03*
X132300000Y-113725000D03*
%TD*%
D20*
%TO.C,C13*%
X119050000Y-111320000D03*
X119050000Y-112280000D03*
%TD*%
D21*
%TO.C,L3*%
X131837500Y-121300000D03*
X130262500Y-121300000D03*
%TD*%
D22*
%TO.C,L1*%
X80485000Y-114900000D03*
X78115000Y-114900000D03*
%TD*%
D23*
%TO.C,L2*%
X130600000Y-113712500D03*
X130600000Y-115287500D03*
%TD*%
D24*
%TO.C,Q1*%
X99301504Y-110949888D03*
X99951504Y-112849888D03*
X99951504Y-110949888D03*
D25*
X99651504Y-111899888D03*
D24*
X99301504Y-112849888D03*
D26*
X100651504Y-111899888D03*
D24*
X100601504Y-110949888D03*
X100601504Y-112849888D03*
%TD*%
D27*
%TO.C,R5*%
X127400000Y-127525000D03*
X127400000Y-125875000D03*
%TD*%
D28*
%TO.C,R1*%
X80075000Y-127250000D03*
X78425000Y-127250000D03*
%TD*%
D29*
%TO.C,R2*%
X78425000Y-125650000D03*
X80075000Y-125650000D03*
%TD*%
D30*
%TO.C,R7*%
X104350000Y-111075000D03*
X104350000Y-112725000D03*
%TD*%
%TO.C,R8*%
X102800000Y-111075000D03*
X102800000Y-112725000D03*
%TD*%
D27*
%TO.C,R9*%
X106400000Y-112725000D03*
X106400000Y-111075000D03*
%TD*%
%TO.C,R3*%
X113450000Y-127525000D03*
X113450000Y-125875000D03*
%TD*%
%TO.C,R4*%
X114950000Y-127525000D03*
X114950000Y-125875000D03*
%TD*%
D31*
%TO.C,RN1*%
X121100000Y-112150000D03*
X121600000Y-112150000D03*
X122100000Y-112150000D03*
X122600000Y-112150000D03*
X122600000Y-111150000D03*
X122100000Y-111150000D03*
X121600000Y-111150000D03*
X121100000Y-111150000D03*
%TD*%
D32*
%TO.C,U7*%
X88487500Y-111587500D03*
X88487500Y-112087500D03*
X88487500Y-112587500D03*
X88487500Y-113087500D03*
D33*
X89250000Y-113350000D03*
X89750000Y-113350000D03*
X90250000Y-113350000D03*
D32*
X91012500Y-113087500D03*
X91012500Y-112587500D03*
X91012500Y-112087500D03*
X91012500Y-111587500D03*
D33*
X90250000Y-111325000D03*
X89750000Y-111325000D03*
X89250000Y-111325000D03*
%TD*%
D34*
%TO.C,U6*%
X121762500Y-118462500D03*
X123037500Y-118462500D03*
X121762500Y-119737500D03*
X123037500Y-119737500D03*
D35*
X125837500Y-121700000D03*
X125837500Y-121300000D03*
X125837500Y-120900000D03*
X125837500Y-120500000D03*
X125837500Y-120100000D03*
X125837500Y-119700000D03*
X125837500Y-119300000D03*
X125837500Y-118900000D03*
X125837500Y-118500000D03*
X125837500Y-118100000D03*
X125837500Y-117700000D03*
X125837500Y-117300000D03*
X125837500Y-116900000D03*
X125837500Y-116500000D03*
D36*
X125000000Y-115662500D03*
X124600000Y-115662500D03*
X124200000Y-115662500D03*
X123800000Y-115662500D03*
X123400000Y-115662500D03*
X123000000Y-115662500D03*
X122600000Y-115662500D03*
X122200000Y-115662500D03*
X121800000Y-115662500D03*
X121400000Y-115662500D03*
X121000000Y-115662500D03*
X120600000Y-115662500D03*
X120200000Y-115662500D03*
X119800000Y-115662500D03*
D35*
X118962500Y-116500000D03*
X118962500Y-116900000D03*
X118962500Y-117300000D03*
X118962500Y-117700000D03*
X118962500Y-118100000D03*
X118962500Y-118500000D03*
X118962500Y-118900000D03*
X118962500Y-119300000D03*
X118962500Y-119700000D03*
X118962500Y-120100000D03*
X118962500Y-120500000D03*
X118962500Y-120900000D03*
X118962500Y-121300000D03*
X118962500Y-121700000D03*
D36*
X119800000Y-122537500D03*
X120200000Y-122537500D03*
X120600000Y-122537500D03*
X121000000Y-122537500D03*
X121400000Y-122537500D03*
X121800000Y-122537500D03*
X122200000Y-122537500D03*
X122600000Y-122537500D03*
X123000000Y-122537500D03*
X123400000Y-122537500D03*
X123800000Y-122537500D03*
X124200000Y-122537500D03*
X124600000Y-122537500D03*
X125000000Y-122537500D03*
%TD*%
D37*
%TO.C,U3*%
X71400000Y-120300000D03*
D38*
X71400000Y-120700000D03*
X71400000Y-121100000D03*
X71400000Y-121500000D03*
X71400000Y-121900000D03*
D39*
X71400000Y-122300000D03*
D40*
X72150000Y-123050000D03*
D41*
X72550000Y-123050000D03*
D42*
X72950000Y-123025000D03*
D41*
X73350000Y-123050000D03*
X73750000Y-123050000D03*
D43*
X74150000Y-123050000D03*
D44*
X74900000Y-122100000D03*
D45*
X74800000Y-122100000D03*
D46*
X74900000Y-121300000D03*
D45*
X74800000Y-121300000D03*
D47*
X74900000Y-120700000D03*
D45*
X74875000Y-120300000D03*
D48*
X74150000Y-119550000D03*
D49*
X73550000Y-119550000D03*
D45*
X73550000Y-119650000D03*
D50*
X72950000Y-119550000D03*
D51*
X72350000Y-119550000D03*
D45*
X72350000Y-119650000D03*
%TD*%
D52*
%TO.C,U5*%
X114437500Y-117325000D03*
X113562500Y-118050000D03*
X113562500Y-117325000D03*
X114437500Y-118050000D03*
D53*
X112550000Y-116937500D03*
X112550000Y-117437500D03*
X112550000Y-117937500D03*
X112550000Y-118437500D03*
X115450000Y-118437500D03*
X115450000Y-117937500D03*
X115450000Y-117437500D03*
X115450000Y-116937500D03*
%TD*%
D54*
%TO.C,U2*%
X87390000Y-119575000D03*
D55*
X87390000Y-118925000D03*
D56*
X86310000Y-118925000D03*
D57*
X86310000Y-119575000D03*
D58*
X86850000Y-119250000D03*
%TD*%
D59*
%TO.C,Y1*%
X121925000Y-127400000D03*
X123675000Y-127400000D03*
X123675000Y-126000000D03*
X121925000Y-126000000D03*
%TD*%
D28*
%TO.C,R6*%
X97325000Y-111900000D03*
X95675000Y-111900000D03*
%TD*%
D31*
%TO.C,RN6*%
X125900000Y-111150000D03*
X125400000Y-111150000D03*
X124900000Y-111150000D03*
X124400000Y-111150000D03*
X124400000Y-112150000D03*
X124900000Y-112150000D03*
X125400000Y-112150000D03*
X125900000Y-112150000D03*
%TD*%
D60*
%TO.C,SW4*%
X107750000Y-126450000D03*
X96750000Y-126450000D03*
X106250000Y-120150000D03*
X103750000Y-120150000D03*
X100750000Y-120150000D03*
X98250000Y-120150000D03*
%TD*%
D17*
%TO.C,C28*%
X83500000Y-113950000D03*
X83500000Y-115850000D03*
%TD*%
D61*
%TO.C,F1*%
X51350000Y-114300000D03*
X51350000Y-112300000D03*
%TD*%
D27*
%TO.C,R10*%
X116187500Y-112575000D03*
X116187500Y-110925000D03*
%TD*%
D62*
%TO.C,J2*%
X42685000Y-118200000D03*
X42685000Y-115400000D03*
D63*
X46885000Y-113700000D03*
X46885000Y-114450000D03*
D64*
X46885000Y-115050000D03*
X46885000Y-116550000D03*
X46885000Y-117550000D03*
X46885000Y-118550000D03*
D63*
X46885000Y-119150000D03*
X46885000Y-119900000D03*
X46885000Y-119900000D03*
X46885000Y-119150000D03*
D64*
X46885000Y-118050000D03*
X46885000Y-117050000D03*
X46885000Y-116050000D03*
X46885000Y-115550000D03*
D63*
X46885000Y-114450000D03*
X46885000Y-113700000D03*
%TD*%
D65*
%TO.C,U1*%
X58112500Y-116200000D03*
X58112500Y-117150000D03*
X58112500Y-118100000D03*
X60387500Y-118100000D03*
X60387500Y-117150000D03*
X60387500Y-116200000D03*
%TD*%
D66*
%TO.C,RN3*%
X114400000Y-121900000D03*
X114400000Y-121400000D03*
X114400000Y-120900000D03*
X114400000Y-120400000D03*
X113400000Y-120400000D03*
X113400000Y-120900000D03*
X113400000Y-121400000D03*
X113400000Y-121900000D03*
%TD*%
D61*
%TO.C,FB1*%
X50250000Y-123050000D03*
X50250000Y-121050000D03*
%TD*%
D28*
%TO.C,R19*%
X55325000Y-118200000D03*
X53675000Y-118200000D03*
%TD*%
D67*
%TO.C,D1*%
X52700000Y-122622500D03*
X52700000Y-121477500D03*
%TD*%
D28*
%TO.C,R20*%
X55325000Y-116100000D03*
X53675000Y-116100000D03*
%TD*%
%TO.C,R18*%
X67775000Y-125350000D03*
X66125000Y-125350000D03*
%TD*%
D31*
%TO.C,RN5*%
X103000000Y-116350000D03*
X102500000Y-116350000D03*
X102000000Y-116350000D03*
X101500000Y-116350000D03*
X101500000Y-117350000D03*
X102000000Y-117350000D03*
X102500000Y-117350000D03*
X103000000Y-117350000D03*
%TD*%
D68*
%TO.C,BT1*%
X44450000Y-79550000D03*
X44450000Y-75550000D03*
X44450000Y-75150000D03*
X44450000Y-79150000D03*
X46050000Y-75150000D03*
X46050000Y-79150000D03*
X46050000Y-79550000D03*
X46050000Y-75550000D03*
D69*
X46050000Y-78550000D03*
X46050000Y-74550000D03*
X44450000Y-78550000D03*
X44450000Y-74550000D03*
X44450000Y-80150000D03*
X44450000Y-76150000D03*
X46050000Y-76150000D03*
X46050000Y-80150000D03*
%TD*%
D31*
%TO.C,RN4*%
X127250000Y-112150000D03*
X127750000Y-112150000D03*
X128250000Y-112150000D03*
X128750000Y-112150000D03*
X128750000Y-111150000D03*
X128250000Y-111150000D03*
X127750000Y-111150000D03*
X127250000Y-111150000D03*
%TD*%
D28*
%TO.C,R17*%
X67775000Y-123650000D03*
X66125000Y-123650000D03*
%TD*%
%TO.C,R13*%
X132225000Y-111600000D03*
X130575000Y-111600000D03*
%TD*%
D70*
%TO.C,TFT1*%
X91800000Y-78800000D03*
X91800000Y-79500000D03*
X91800000Y-80200000D03*
X91800000Y-80900000D03*
X91800000Y-81600000D03*
X91800000Y-82300000D03*
X91800000Y-83000000D03*
X91800000Y-83700000D03*
X91800000Y-84400000D03*
X91800000Y-85100000D03*
X91800000Y-85800000D03*
X91800000Y-86500000D03*
%TD*%
M02*
