%TF.GenerationSoftware,KiCad,Pcbnew,(5.99.0-11174-ge2a2c3282a)*%
%TF.CreationDate,2021-07-05T22:54:39+02:00*%
%TF.ProjectId,flatlight_rev20_LEDSIDE,666c6174-6c69-4676-9874-5f7265763230,rev?*%
%TF.SameCoordinates,Original*%
%TF.FileFunction,Legend,Top*%
%TF.FilePolarity,Positive*%
%FSLAX46Y46*%
G04 Gerber Fmt 4.6, Leading zero omitted, Abs format (unit mm)*
G04 Created by KiCad (PCBNEW (5.99.0-11174-ge2a2c3282a)) date 2021-07-05 22:54:39*
%MOMM*%
%LPD*%
G01*
G04 APERTURE LIST*
%ADD10C,0.150000*%
%ADD11C,0.120000*%
G04 APERTURE END LIST*
D10*
%TO.C,D27*%
X180350000Y-115107142D02*
X180397619Y-115154761D01*
X180350000Y-115202380D01*
X180302380Y-115154761D01*
X180350000Y-115107142D01*
X180350000Y-115202380D01*
%TO.C,D29*%
X202350000Y-115107142D02*
X202397619Y-115154761D01*
X202350000Y-115202380D01*
X202302380Y-115154761D01*
X202350000Y-115107142D01*
X202350000Y-115202380D01*
%TO.C,D33*%
X246350000Y-115107142D02*
X246397619Y-115154761D01*
X246350000Y-115202380D01*
X246302380Y-115154761D01*
X246350000Y-115107142D01*
X246350000Y-115202380D01*
%TO.C,D24*%
X174150000Y-80707142D02*
X174197619Y-80754761D01*
X174150000Y-80802380D01*
X174102380Y-80754761D01*
X174150000Y-80707142D01*
X174150000Y-80802380D01*
%TO.C,D31*%
X224250000Y-115407142D02*
X224297619Y-115454761D01*
X224250000Y-115502380D01*
X224202380Y-115454761D01*
X224250000Y-115407142D01*
X224250000Y-115502380D01*
%TO.C,D20*%
X218150000Y-80707142D02*
X218197619Y-80754761D01*
X218150000Y-80802380D01*
X218102380Y-80754761D01*
X218150000Y-80707142D01*
X218150000Y-80802380D01*
%TO.C,D28*%
X191350000Y-115107142D02*
X191397619Y-115154761D01*
X191350000Y-115202380D01*
X191302380Y-115154761D01*
X191350000Y-115107142D01*
X191350000Y-115202380D01*
%TO.C,D22*%
X196150000Y-80707142D02*
X196197619Y-80754761D01*
X196150000Y-80802380D01*
X196102380Y-80754761D01*
X196150000Y-80707142D01*
X196150000Y-80802380D01*
%TO.C,D23*%
X185150000Y-80707142D02*
X185197619Y-80754761D01*
X185150000Y-80802380D01*
X185102380Y-80754761D01*
X185150000Y-80707142D01*
X185150000Y-80802380D01*
%TO.C,D25*%
X163150000Y-80707142D02*
X163197619Y-80754761D01*
X163150000Y-80802380D01*
X163102380Y-80754761D01*
X163150000Y-80707142D01*
X163150000Y-80802380D01*
%TO.C,D3*%
X229150000Y-80707142D02*
X229197619Y-80754761D01*
X229150000Y-80802380D01*
X229102380Y-80754761D01*
X229150000Y-80707142D01*
X229150000Y-80802380D01*
%TO.C,D21*%
X207150000Y-80707142D02*
X207197619Y-80754761D01*
X207150000Y-80802380D01*
X207102380Y-80754761D01*
X207150000Y-80707142D01*
X207150000Y-80802380D01*
%TO.C,D32*%
X235350000Y-115107142D02*
X235397619Y-115154761D01*
X235350000Y-115202380D01*
X235302380Y-115154761D01*
X235350000Y-115107142D01*
X235350000Y-115202380D01*
%TO.C,D2*%
X240150000Y-80707142D02*
X240197619Y-80754761D01*
X240150000Y-80802380D01*
X240102380Y-80754761D01*
X240150000Y-80707142D01*
X240150000Y-80802380D01*
%TO.C,D30*%
X213350000Y-115107142D02*
X213397619Y-115154761D01*
X213350000Y-115202380D01*
X213302380Y-115154761D01*
X213350000Y-115107142D01*
X213350000Y-115202380D01*
%TO.C,D26*%
X169350000Y-115107142D02*
X169397619Y-115154761D01*
X169350000Y-115202380D01*
X169302380Y-115154761D01*
X169350000Y-115107142D01*
X169350000Y-115202380D01*
%TO.C,Q2*%
X244201504Y-92549888D02*
X244201504Y-93149888D01*
X244201504Y-93149888D02*
X244750000Y-93149888D01*
D11*
%TO.C,R12*%
X248572500Y-91312742D02*
X248572500Y-91787258D01*
X247527500Y-91312742D02*
X247527500Y-91787258D01*
%TO.C,D4*%
X174000000Y-124800000D02*
X174000000Y-124300000D01*
X173500000Y-124800000D02*
X174000000Y-124800000D01*
%TO.C,TP5*%
X243150000Y-104550000D02*
X241250000Y-104550000D01*
X241250000Y-104550000D02*
X241250000Y-102650000D01*
X241250000Y-102650000D02*
X243150000Y-102650000D01*
X243150000Y-102650000D02*
X243150000Y-104550000D01*
%TO.C,D10*%
X167500000Y-124800000D02*
X167500000Y-124300000D01*
X167000000Y-124800000D02*
X167500000Y-124800000D01*
%TO.C,D7*%
X242000000Y-70300000D02*
X242000000Y-70800000D01*
X242500000Y-70300000D02*
X242000000Y-70300000D01*
%TO.C,R11*%
X249327500Y-91787258D02*
X249327500Y-91312742D01*
X250372500Y-91787258D02*
X250372500Y-91312742D01*
%TO.C,D8*%
X218000000Y-70300000D02*
X218000000Y-70800000D01*
X218500000Y-70300000D02*
X218000000Y-70300000D01*
%TO.C,D17*%
X236000000Y-70250000D02*
X235500000Y-70250000D01*
X235500000Y-70250000D02*
X235500000Y-70750000D01*
%TO.C,D15*%
X221500000Y-124800000D02*
X221500000Y-124300000D01*
X221000000Y-124800000D02*
X221500000Y-124800000D01*
%TO.C,D18*%
X171000000Y-70300000D02*
X170500000Y-70300000D01*
X170500000Y-70300000D02*
X170500000Y-70800000D01*
%TO.C,D9*%
X238500000Y-124800000D02*
X239000000Y-124800000D01*
X239000000Y-124800000D02*
X239000000Y-124300000D01*
%TO.C,D13*%
X197500000Y-124800000D02*
X198000000Y-124800000D01*
X198000000Y-124800000D02*
X198000000Y-124300000D01*
%TO.C,D11*%
X191000000Y-124800000D02*
X191500000Y-124800000D01*
X191500000Y-124800000D02*
X191500000Y-124300000D01*
%TO.C,D14*%
X164500000Y-70300000D02*
X164000000Y-70300000D01*
X164000000Y-70300000D02*
X164000000Y-70800000D01*
%TO.C,D16*%
X211500000Y-70300000D02*
X211500000Y-70800000D01*
X212000000Y-70300000D02*
X211500000Y-70300000D01*
%TO.C,R15*%
X249327500Y-103312742D02*
X249327500Y-103787258D01*
X250372500Y-103312742D02*
X250372500Y-103787258D01*
%TO.C,D5*%
X245500000Y-124800000D02*
X245500000Y-124300000D01*
X245000000Y-124800000D02*
X245500000Y-124800000D01*
%TO.C,R14*%
X241072500Y-122512742D02*
X241072500Y-122987258D01*
X240027500Y-122512742D02*
X240027500Y-122987258D01*
%TO.C,R16*%
X247527500Y-103312742D02*
X247527500Y-103787258D01*
X248572500Y-103312742D02*
X248572500Y-103787258D01*
%TO.C,D6*%
X188500000Y-70300000D02*
X188000000Y-70300000D01*
X188000000Y-70300000D02*
X188000000Y-70800000D01*
%TO.C,D12*%
X194500000Y-70300000D02*
X194500000Y-70800000D01*
X195000000Y-70300000D02*
X194500000Y-70300000D01*
%TO.C,D19*%
X215000000Y-124800000D02*
X215000000Y-124300000D01*
X214500000Y-124800000D02*
X215000000Y-124800000D01*
D10*
%TO.C,Q3*%
X244201504Y-104599888D02*
X244201504Y-105199888D01*
X244201504Y-105199888D02*
X244750000Y-105199888D01*
%TD*%
M02*
