M48
; DRILL file {KiCad (5.99.0-11174-ge2a2c3282a)} date Mon Jul  5 22:54:43 2021
; FORMAT={-:-/ absolute / metric / decimal}
; #@! TF.CreationDate,2021-07-05T22:54:43+02:00
; #@! TF.GenerationSoftware,Kicad,Pcbnew,(5.99.0-11174-ge2a2c3282a)
; #@! TF.FileFunction,Plated,1,4,PTH
FMAT,2
METRIC
; #@! TA.AperFunction,Plated,PTH,ViaDrill
T1C0.200
; #@! TA.AperFunction,Plated,PTH,ComponentDrill
T2C0.400
; #@! TA.AperFunction,Plated,PTH,ViaDrill
T3C0.600
; #@! TA.AperFunction,Plated,PTH,ViaDrill
T4C0.800
; #@! TA.AperFunction,Plated,PTH,ComponentDrill
T5C0.800
; #@! TA.AperFunction,Plated,PTH,ComponentDrill
T6C1.000
; #@! TA.AperFunction,Plated,PTH,ComponentDrill
T7C2.200
%
G90
G05
T1
X164.55Y-81.35
X164.55Y-110.05
X170.6Y-84.7
X170.6Y-110.6
X172.6Y-84.65
X172.6Y-110.55
X203.65Y-117.55
X203.85Y-77.55
X204.75Y-76.35
X204.75Y-78.75
X204.75Y-116.35
X204.75Y-118.75
X205.65Y-77.55
X205.75Y-117.55
X240.55Y-120.65
X240.55Y-124.8
X246.55Y-83.9
X246.65Y-101.65
X246.75Y-65.8
X246.75Y-129.3
X247.25Y-101.65
X247.85Y-101.65
X248.05Y-89.35
X248.65Y-89.35
X248.75Y-65.8
X248.75Y-129.3
X249.25Y-89.35
X254.0Y-72.55
X254.0Y-76.55
X254.0Y-80.55
X254.0Y-84.55
X254.0Y-88.55
X254.0Y-106.55
X254.0Y-110.55
X254.0Y-114.55
X254.0Y-118.55
X254.0Y-122.55
T2
X155.6Y-67.55
X155.6Y-127.55
X156.083Y-66.383
X156.083Y-68.717
X156.083Y-126.383
X156.083Y-128.717
X157.25Y-65.9
X157.25Y-69.2
X157.25Y-125.9
X157.25Y-129.2
X158.417Y-66.383
X158.417Y-68.717
X158.417Y-126.383
X158.417Y-128.717
X158.9Y-67.55
X158.9Y-127.55
X203.1Y-67.55
X203.1Y-127.55
X203.583Y-66.383
X203.583Y-68.717
X203.583Y-126.383
X203.583Y-128.717
X204.75Y-65.9
X204.75Y-69.2
X204.75Y-125.9
X204.75Y-129.2
X205.917Y-66.383
X205.917Y-68.717
X205.917Y-126.383
X205.917Y-128.717
X206.4Y-67.55
X206.4Y-127.55
X250.6Y-67.55
X250.6Y-127.55
X251.083Y-66.383
X251.083Y-68.717
X251.083Y-126.383
X251.083Y-128.717
X252.25Y-65.9
X252.25Y-69.2
X252.25Y-125.9
X252.25Y-129.2
X253.417Y-66.383
X253.417Y-68.717
X253.417Y-126.383
X253.417Y-128.717
X253.9Y-67.55
X253.9Y-127.55
T3
X171.65Y-84.1
X171.65Y-85.2
X171.65Y-110.0
X171.65Y-111.1
X204.75Y-77.55
X204.75Y-117.55
X247.75Y-69.05
X247.75Y-71.05
X247.75Y-124.05
X247.75Y-126.05
T4
X155.5Y-73.8
X155.5Y-76.8
X155.5Y-79.8
X155.5Y-82.8
X155.5Y-85.8
X155.5Y-88.8
X155.5Y-91.8
X155.5Y-94.8
X155.5Y-97.8
X155.5Y-100.8
X155.5Y-103.8
X155.5Y-106.8
X155.5Y-109.8
X155.5Y-112.8
X155.5Y-115.8
X155.5Y-118.8
X155.5Y-121.8
X156.0Y-72.3
X156.0Y-75.3
X156.0Y-78.3
X156.0Y-81.3
X156.0Y-84.3
X156.0Y-87.3
X156.0Y-90.3
X156.0Y-93.3
X156.0Y-96.3
X156.0Y-99.3
X156.0Y-102.3
X156.0Y-105.3
X156.0Y-108.3
X156.0Y-111.3
X156.0Y-114.3
X156.0Y-117.3
X156.0Y-120.3
X156.0Y-123.3
X160.05Y-129.3
X161.5Y-66.3
X161.55Y-128.8
X163.0Y-65.8
X163.05Y-129.3
X164.5Y-66.3
X164.55Y-128.8
X166.0Y-65.8
X166.05Y-129.3
X167.5Y-66.3
X167.55Y-128.8
X169.0Y-65.8
X169.05Y-129.3
X170.5Y-66.3
X170.55Y-128.8
X172.0Y-65.8
X172.05Y-129.3
X173.5Y-66.3
X173.55Y-128.8
X175.0Y-65.8
X175.05Y-129.3
X176.5Y-66.3
X176.55Y-128.8
X178.0Y-65.8
X178.05Y-129.3
X179.5Y-66.3
X179.55Y-128.8
X181.0Y-65.8
X181.05Y-129.3
X182.5Y-66.3
X182.55Y-128.8
X184.0Y-65.8
X184.05Y-129.3
X185.5Y-66.3
X185.55Y-128.8
X187.0Y-65.8
X187.05Y-129.3
X188.5Y-66.3
X188.55Y-128.8
X190.0Y-65.8
X190.05Y-129.3
X191.5Y-66.3
X191.55Y-128.8
X193.0Y-65.8
X193.05Y-129.3
X194.5Y-66.3
X194.55Y-128.8
X196.0Y-65.8
X196.05Y-129.3
X197.5Y-66.3
X197.55Y-128.8
X199.0Y-65.8
X199.05Y-129.3
X200.5Y-66.3
X200.55Y-128.8
X208.25Y-129.3
X209.0Y-66.3
X209.75Y-128.8
X210.5Y-65.8
X211.25Y-129.3
X212.0Y-66.3
X212.75Y-128.8
X213.5Y-65.8
X214.25Y-129.3
X215.0Y-66.3
X215.75Y-128.8
X216.5Y-65.8
X217.25Y-129.3
X218.0Y-66.3
X218.75Y-128.8
X219.5Y-65.8
X220.25Y-129.3
X221.0Y-66.3
X221.75Y-128.8
X222.5Y-65.8
X223.25Y-129.3
X224.0Y-66.3
X224.75Y-128.8
X225.5Y-65.8
X226.25Y-129.3
X227.0Y-66.3
X227.75Y-128.8
X228.5Y-65.8
X229.25Y-129.3
X230.0Y-66.3
X230.75Y-128.8
X231.5Y-65.8
X232.25Y-129.3
X233.0Y-66.3
X233.75Y-128.8
X234.5Y-65.8
X235.25Y-129.3
X236.0Y-66.3
X236.75Y-128.8
X237.5Y-65.8
X238.25Y-129.3
X239.0Y-66.3
X239.75Y-128.8
X240.5Y-65.8
X241.25Y-129.3
X242.0Y-66.3
X242.75Y-128.8
X243.5Y-65.8
X244.2Y-129.3
T5
X253.05Y-90.55
X253.05Y-92.55
X253.05Y-94.55
X253.05Y-96.55
X253.05Y-98.55
X253.05Y-100.55
X253.05Y-102.55
X253.05Y-104.55
T6
X204.75Y-74.55
X204.75Y-80.55
X204.75Y-114.55
X204.75Y-120.55
X247.75Y-74.35
X247.75Y-120.75
T7
X157.25Y-67.55
X157.25Y-127.55
X204.75Y-67.55
X204.75Y-127.55
X252.25Y-67.55
X252.25Y-127.55
T0
M30
