%TF.GenerationSoftware,KiCad,Pcbnew,(5.99.0-11174-ge2a2c3282a)*%
%TF.CreationDate,2021-07-05T22:54:39+02:00*%
%TF.ProjectId,flatlight_rev20_LEDSIDE,666c6174-6c69-4676-9874-5f7265763230,rev?*%
%TF.SameCoordinates,Original*%
%TF.FileFunction,Copper,L4,Bot*%
%TF.FilePolarity,Positive*%
%FSLAX46Y46*%
G04 Gerber Fmt 4.6, Leading zero omitted, Abs format (unit mm)*
G04 Created by KiCad (PCBNEW (5.99.0-11174-ge2a2c3282a)) date 2021-07-05 22:54:39*
%MOMM*%
%LPD*%
G01*
G04 APERTURE LIST*
%TA.AperFunction,ComponentPad*%
%ADD10C,1.500000*%
%TD*%
%TA.AperFunction,ComponentPad*%
%ADD11C,0.700000*%
%TD*%
%TA.AperFunction,ComponentPad*%
%ADD12C,4.400000*%
%TD*%
%TA.AperFunction,SMDPad,CuDef*%
%ADD13R,0.850000X1.600000*%
%TD*%
%TA.AperFunction,ComponentPad*%
%ADD14R,1.350000X1.350000*%
%TD*%
%TA.AperFunction,ComponentPad*%
%ADD15O,1.350000X1.350000*%
%TD*%
%TA.AperFunction,ViaPad*%
%ADD16C,0.450000*%
%TD*%
%TA.AperFunction,ViaPad*%
%ADD17C,1.000000*%
%TD*%
%TA.AperFunction,ViaPad*%
%ADD18C,0.500000*%
%TD*%
%TA.AperFunction,Conductor*%
%ADD19C,0.600000*%
%TD*%
%TA.AperFunction,Conductor*%
%ADD20C,0.200000*%
%TD*%
%TA.AperFunction,Conductor*%
%ADD21C,1.000000*%
%TD*%
%TA.AperFunction,Conductor*%
%ADD22C,0.400000*%
%TD*%
G04 APERTURE END LIST*
D10*
%TO.P,H14,1,1*%
%TO.N,+BATT*%
X204750000Y-114550000D03*
%TD*%
D11*
%TO.P,H10,1,1*%
%TO.N,GND*%
X158416726Y-68716726D03*
X157250000Y-65900000D03*
X158900000Y-67550000D03*
X156083274Y-66383274D03*
X156083274Y-68716726D03*
X155600000Y-67550000D03*
X158416726Y-66383274D03*
X157250000Y-69200000D03*
D12*
X157250000Y-67550000D03*
%TD*%
D11*
%TO.P,H9,1,1*%
%TO.N,GND*%
X158416726Y-126383274D03*
D12*
X157250000Y-127550000D03*
D11*
X158900000Y-127550000D03*
X157250000Y-125900000D03*
X157250000Y-129200000D03*
X158416726Y-128716726D03*
X156083274Y-128716726D03*
X155600000Y-127550000D03*
X156083274Y-126383274D03*
%TD*%
D10*
%TO.P,H19,1,1*%
%TO.N,GND*%
X247750000Y-120750000D03*
%TD*%
%TO.P,H20,1,1*%
%TO.N,GND*%
X247750000Y-74350000D03*
%TD*%
%TO.P,H16,1,1*%
%TO.N,+BATT*%
X204750000Y-80550000D03*
%TD*%
%TO.P,H15,1,1*%
%TO.N,+BATT*%
X204750000Y-74550000D03*
%TD*%
%TO.P,H13,1,1*%
%TO.N,+BATT*%
X204750000Y-120550000D03*
%TD*%
D11*
%TO.P,H7,1,1*%
%TO.N,+BATT*%
X203583274Y-68716726D03*
X205916726Y-68716726D03*
X203100000Y-67550000D03*
X204750000Y-69200000D03*
D12*
X204750000Y-67550000D03*
D11*
X206400000Y-67550000D03*
X204750000Y-65900000D03*
X203583274Y-66383274D03*
X205916726Y-66383274D03*
%TD*%
%TO.P,H11,1,1*%
%TO.N,+BATT*%
X203583274Y-128716726D03*
X205916726Y-128716726D03*
X203583274Y-126383274D03*
X205916726Y-126383274D03*
X206400000Y-127550000D03*
X203100000Y-127550000D03*
X204750000Y-125900000D03*
X204750000Y-129200000D03*
D12*
X204750000Y-127550000D03*
%TD*%
D11*
%TO.P,H12,1,1*%
%TO.N,GND*%
X251083274Y-66383274D03*
X252250000Y-65900000D03*
D12*
X252250000Y-67550000D03*
D11*
X252250000Y-69200000D03*
X250600000Y-67550000D03*
X251083274Y-68716726D03*
X253900000Y-67550000D03*
X253416726Y-68716726D03*
X253416726Y-66383274D03*
%TD*%
%TO.P,H8,1,1*%
%TO.N,GND*%
X253900000Y-127550000D03*
X253416726Y-126383274D03*
X251083274Y-128716726D03*
X252250000Y-129200000D03*
X252250000Y-125900000D03*
X253416726Y-128716726D03*
X250600000Y-127550000D03*
D12*
X252250000Y-127550000D03*
D11*
X251083274Y-126383274D03*
%TD*%
D13*
%TO.P,D35,1,DOUT*%
%TO.N,unconnected-(D35-Pad1)*%
X161825000Y-106500000D03*
%TO.P,D35,2,VSS*%
%TO.N,WS_GNDBUS*%
X160075000Y-106500000D03*
%TO.P,D35,3,DIN*%
%TO.N,Net-(D34-Pad1)*%
X160075000Y-103000000D03*
%TO.P,D35,4,VDD*%
%TO.N,+BATT*%
X161825000Y-103000000D03*
%TD*%
%TO.P,D34,1,DOUT*%
%TO.N,Net-(D34-Pad1)*%
X161825000Y-92100000D03*
%TO.P,D34,2,VSS*%
%TO.N,WS_GNDBUS*%
X160075000Y-92100000D03*
%TO.P,D34,3,DIN*%
%TO.N,LS_WS_SDAT*%
X160075000Y-88600000D03*
%TO.P,D34,4,VDD*%
%TO.N,+BATT*%
X161825000Y-88600000D03*
%TD*%
D14*
%TO.P,J5,1,Pin_1*%
%TO.N,GND*%
X253050000Y-104550000D03*
D15*
%TO.P,J5,2,Pin_2*%
%TO.N,LS_LED_PWM*%
X253050000Y-102550000D03*
%TO.P,J5,3,Pin_3*%
%TO.N,+3V3*%
X253050000Y-100550000D03*
%TO.P,J5,4,Pin_4*%
%TO.N,LS_LED_NTC*%
X253050000Y-98550000D03*
%TO.P,J5,5,Pin_5*%
%TO.N,GND*%
X253050000Y-96550000D03*
%TO.P,J5,6,Pin_6*%
%TO.N,LS_WS_SDAT*%
X253050000Y-94550000D03*
%TO.P,J5,7,Pin_7*%
%TO.N,LS_WS_LDAT*%
X253050000Y-92550000D03*
%TO.P,J5,8,Pin_8*%
%TO.N,LS_WS_POWER*%
X253050000Y-90550000D03*
%TD*%
D16*
%TO.N,GND*%
X254000000Y-122550000D03*
X248750000Y-65800000D03*
X247850000Y-101650000D03*
D17*
X247750000Y-71050000D03*
D16*
X249250000Y-89350000D03*
D17*
X247750000Y-69050000D03*
D18*
X246750000Y-129300000D03*
D17*
X247750000Y-126050000D03*
D16*
X248650000Y-89350000D03*
X246650000Y-101650000D03*
X254000000Y-114550000D03*
X254000000Y-84550000D03*
X254000000Y-110550000D03*
X254000000Y-76550000D03*
X254000000Y-118550000D03*
X254000000Y-106550000D03*
X247250000Y-101650000D03*
X246750000Y-65800000D03*
D17*
X247750000Y-124050000D03*
D16*
X254000000Y-80550000D03*
D18*
X248750000Y-129300000D03*
D16*
X248050000Y-89350000D03*
X254000000Y-72550000D03*
X254000000Y-88550000D03*
D17*
%TO.N,+BATT*%
X204750000Y-117550000D03*
D16*
X204750000Y-116350000D03*
X204750000Y-118750000D03*
X204750000Y-78750000D03*
D17*
X204750000Y-77550000D03*
D16*
X203850000Y-77550000D03*
X205650000Y-77550000D03*
X204750000Y-76350000D03*
X205750000Y-117550000D03*
X203650000Y-117550000D03*
%TO.N,LS_WS_LDAT*%
X246550000Y-83900000D03*
%TO.N,+3V3*%
X240550000Y-120650000D03*
D17*
%TO.N,Net-(D10-Pad1)*%
X227000000Y-66300000D03*
X197500000Y-66300000D03*
X235250000Y-129300000D03*
X191550000Y-128800000D03*
X193050000Y-129300000D03*
X244200000Y-129300000D03*
X156000000Y-120300000D03*
X155500000Y-88800000D03*
X155500000Y-85800000D03*
X164500000Y-66300000D03*
X224750000Y-128800000D03*
X182550000Y-128800000D03*
X214250000Y-129300000D03*
X188500000Y-66300000D03*
X155500000Y-103800000D03*
X179550000Y-128800000D03*
X224000000Y-66300000D03*
X156000000Y-108300000D03*
X187050000Y-129300000D03*
X190050000Y-129300000D03*
X220250000Y-129300000D03*
X232250000Y-129300000D03*
X222500000Y-65800000D03*
X190000000Y-65800000D03*
X239000000Y-66300000D03*
X229250000Y-129300000D03*
X178000000Y-65800000D03*
X164550000Y-128800000D03*
X155500000Y-121800000D03*
X163050000Y-129300000D03*
X181050000Y-129300000D03*
X156000000Y-87300000D03*
X228500000Y-65800000D03*
X155500000Y-109800000D03*
X211250000Y-129300000D03*
X233750000Y-128800000D03*
X226250000Y-129300000D03*
X191500000Y-66300000D03*
X156000000Y-102300000D03*
X209000000Y-66300000D03*
X155500000Y-82800000D03*
X236750000Y-128800000D03*
X155500000Y-106800000D03*
X156000000Y-75300000D03*
X196050000Y-129300000D03*
X216500000Y-65800000D03*
X155500000Y-97800000D03*
X187000000Y-65800000D03*
X155500000Y-112800000D03*
X243500000Y-65800000D03*
X155500000Y-100800000D03*
X242750000Y-128800000D03*
X169000000Y-65800000D03*
X156000000Y-81300000D03*
X200550000Y-128800000D03*
X194550000Y-128800000D03*
X242000000Y-66300000D03*
X184050000Y-129300000D03*
X197550000Y-128800000D03*
X212000000Y-66300000D03*
X199000000Y-65800000D03*
X237500000Y-65800000D03*
X156000000Y-105300000D03*
X155500000Y-79800000D03*
X167550000Y-128800000D03*
X170550000Y-128800000D03*
X175050000Y-129300000D03*
X225500000Y-65800000D03*
X167500000Y-66300000D03*
X179500000Y-66300000D03*
X156000000Y-111300000D03*
X194500000Y-66300000D03*
X155500000Y-115800000D03*
X161500000Y-66300000D03*
X178050000Y-129300000D03*
X233000000Y-66300000D03*
X219500000Y-65800000D03*
X156000000Y-117300000D03*
X231500000Y-65800000D03*
X175000000Y-65800000D03*
X213500000Y-65800000D03*
X239750000Y-128800000D03*
X156000000Y-96300000D03*
X185500000Y-66300000D03*
X200500000Y-66300000D03*
X155500000Y-73800000D03*
X212750000Y-128800000D03*
X227750000Y-128800000D03*
X155500000Y-76800000D03*
X156000000Y-99300000D03*
X218000000Y-66300000D03*
X156000000Y-72300000D03*
X156000000Y-78300000D03*
X170500000Y-66300000D03*
X221750000Y-128800000D03*
X173500000Y-66300000D03*
X160050000Y-129300000D03*
X173550000Y-128800000D03*
X166050000Y-129300000D03*
X215000000Y-66300000D03*
X163000000Y-65800000D03*
X209750000Y-128800000D03*
X240500000Y-65800000D03*
X156000000Y-123300000D03*
X155500000Y-94800000D03*
X156000000Y-93300000D03*
X166000000Y-65800000D03*
X176550000Y-128800000D03*
X155500000Y-91800000D03*
X230750000Y-128800000D03*
X176500000Y-66300000D03*
X210500000Y-65800000D03*
X223250000Y-129300000D03*
X221000000Y-66300000D03*
X185550000Y-128800000D03*
X181000000Y-65800000D03*
X155500000Y-118800000D03*
X156000000Y-114300000D03*
X169050000Y-129300000D03*
X236000000Y-66300000D03*
X172000000Y-65800000D03*
X182500000Y-66300000D03*
X196000000Y-65800000D03*
X156000000Y-84300000D03*
X241250000Y-129300000D03*
X234500000Y-65800000D03*
X193000000Y-65800000D03*
X238250000Y-129300000D03*
X218750000Y-128800000D03*
X217250000Y-129300000D03*
X172050000Y-129300000D03*
X161550000Y-128800000D03*
X230000000Y-66300000D03*
X184000000Y-65800000D03*
X208250000Y-129300000D03*
X215750000Y-128800000D03*
X199050000Y-129300000D03*
X156000000Y-90300000D03*
X188550000Y-128800000D03*
D16*
%TO.N,LS_LED_NTC*%
X240550000Y-124800000D03*
%TO.N,WS_GNDBUS*%
X172600000Y-110550000D03*
D17*
X171650000Y-111100000D03*
X171650000Y-84100000D03*
D16*
X170600000Y-84700000D03*
X170600000Y-110600000D03*
D17*
X171650000Y-110000000D03*
X171650000Y-85200000D03*
D16*
X172600000Y-84650000D03*
%TO.N,Net-(D25-Pad1)*%
X164550000Y-81350000D03*
X164550000Y-110050000D03*
%TD*%
D19*
%TO.N,+BATT*%
X161825000Y-88600000D02*
X161825000Y-87655000D01*
X161825000Y-89775000D02*
X163320000Y-91270000D01*
X161825000Y-98785000D02*
X161825000Y-103000000D01*
X163320000Y-91270000D02*
X163320000Y-97290000D01*
X161825000Y-88600000D02*
X161825000Y-89775000D01*
X202400000Y-87350000D02*
X204750000Y-89700000D01*
X162130000Y-87350000D02*
X202400000Y-87350000D01*
X161825000Y-87655000D02*
X162130000Y-87350000D01*
X163320000Y-97290000D02*
X161825000Y-98785000D01*
D20*
X204800000Y-117300000D02*
X204750000Y-117350000D01*
D19*
X204750000Y-89700000D02*
X204750000Y-114550000D01*
%TO.N,LS_WS_LDAT*%
X246550000Y-83900000D02*
X246550000Y-92250000D01*
X246550000Y-92250000D02*
X246850000Y-92550000D01*
X246850000Y-92550000D02*
X253250000Y-92550000D01*
%TO.N,LS_WS_SDAT*%
X243650000Y-93450000D02*
X243650000Y-87100000D01*
X244750000Y-94550000D02*
X243650000Y-93450000D01*
X160890000Y-86550000D02*
X160075000Y-87365000D01*
X253250000Y-94550000D02*
X244750000Y-94550000D01*
X243650000Y-87100000D02*
X243100000Y-86550000D01*
X160075000Y-87365000D02*
X160075000Y-88600000D01*
X243100000Y-86550000D02*
X160890000Y-86550000D01*
D21*
%TO.N,+3V3*%
X240550000Y-101850000D02*
X241850000Y-100550000D01*
X241850000Y-100550000D02*
X253250000Y-100550000D01*
X240550000Y-120650000D02*
X240550000Y-101850000D01*
%TO.N,LS_LED_NTC*%
X253200000Y-98500000D02*
X253250000Y-98550000D01*
X238450000Y-122700000D02*
X238450000Y-101450000D01*
X238450000Y-101450000D02*
X241400000Y-98500000D01*
X240550000Y-124800000D02*
X238450000Y-122700000D01*
X241400000Y-98500000D02*
X253200000Y-98500000D01*
D22*
%TO.N,Net-(D34-Pad1)*%
X161850000Y-96650000D02*
X160075000Y-98425000D01*
X161850000Y-92100000D02*
X161850000Y-96650000D01*
X160075000Y-98425000D02*
X160075000Y-103000000D01*
%TD*%
%TA.AperFunction,Conductor*%
%TO.N,GND*%
G36*
X252250000Y-65052705D02*
G01*
X252250000Y-65055000D01*
X252350926Y-65056759D01*
X252356916Y-65057008D01*
X252452475Y-65063271D01*
X252460680Y-65064079D01*
X252689908Y-65094258D01*
X252698041Y-65095601D01*
X252775315Y-65110971D01*
X252783330Y-65112839D01*
X252952586Y-65158191D01*
X253006696Y-65172690D01*
X253014579Y-65175081D01*
X253089205Y-65200414D01*
X253096878Y-65203302D01*
X253310520Y-65291795D01*
X253318006Y-65295187D01*
X253388534Y-65329967D01*
X253388694Y-65330046D01*
X253395965Y-65333933D01*
X253596190Y-65449534D01*
X253603191Y-65453887D01*
X253645464Y-65482132D01*
X253668714Y-65497667D01*
X253675408Y-65502465D01*
X253858840Y-65643218D01*
X253865213Y-65648448D01*
X253924467Y-65700412D01*
X253930485Y-65706049D01*
X254093951Y-65869515D01*
X254099588Y-65875533D01*
X254151552Y-65934787D01*
X254156782Y-65941160D01*
X254297535Y-66124592D01*
X254302339Y-66131295D01*
X254346113Y-66196809D01*
X254350466Y-66203810D01*
X254466067Y-66404035D01*
X254469954Y-66411306D01*
X254504808Y-66481982D01*
X254508205Y-66489480D01*
X254596698Y-66703122D01*
X254599586Y-66710795D01*
X254624917Y-66785416D01*
X254627310Y-66793304D01*
X254687161Y-67016670D01*
X254689029Y-67024685D01*
X254704399Y-67101959D01*
X254705742Y-67110092D01*
X254735921Y-67339320D01*
X254736729Y-67347524D01*
X254742992Y-67443084D01*
X254743241Y-67449074D01*
X254745000Y-67550000D01*
X254747232Y-67550000D01*
X254750000Y-67568126D01*
X254750000Y-127525831D01*
X254747295Y-127550000D01*
X254745000Y-127550000D01*
X254743241Y-127650926D01*
X254742992Y-127656916D01*
X254736729Y-127752475D01*
X254735921Y-127760680D01*
X254705742Y-127989908D01*
X254704399Y-127998041D01*
X254689029Y-128075315D01*
X254687161Y-128083330D01*
X254641809Y-128252586D01*
X254627310Y-128306696D01*
X254624919Y-128314579D01*
X254599586Y-128389205D01*
X254596698Y-128396878D01*
X254508205Y-128610520D01*
X254504808Y-128618018D01*
X254469954Y-128688694D01*
X254466067Y-128695965D01*
X254350466Y-128896190D01*
X254346113Y-128903191D01*
X254302339Y-128968705D01*
X254297535Y-128975408D01*
X254156782Y-129158840D01*
X254151552Y-129165213D01*
X254099588Y-129224467D01*
X254093951Y-129230485D01*
X253930485Y-129393951D01*
X253924467Y-129399588D01*
X253865213Y-129451552D01*
X253858840Y-129456782D01*
X253675408Y-129597535D01*
X253668714Y-129602333D01*
X253645464Y-129617868D01*
X253603191Y-129646113D01*
X253596190Y-129650466D01*
X253395965Y-129766067D01*
X253388694Y-129769954D01*
X253318006Y-129804813D01*
X253310520Y-129808205D01*
X253096878Y-129896698D01*
X253089205Y-129899586D01*
X253014579Y-129924919D01*
X253006696Y-129927310D01*
X252952586Y-129941809D01*
X252783330Y-129987161D01*
X252775315Y-129989029D01*
X252698041Y-130004399D01*
X252689908Y-130005742D01*
X252460680Y-130035921D01*
X252452476Y-130036729D01*
X252356916Y-130042992D01*
X252350926Y-130043241D01*
X252296189Y-130044195D01*
X252266504Y-130044712D01*
X252266501Y-130044712D01*
X252250000Y-130045000D01*
X252250000Y-130047232D01*
X252231874Y-130050000D01*
X246176000Y-130050000D01*
X246107879Y-130029998D01*
X246061386Y-129976342D01*
X246050000Y-129924000D01*
X246050000Y-121576508D01*
X247288322Y-121576508D01*
X247293231Y-121583066D01*
X247362450Y-121621751D01*
X247373689Y-121626661D01*
X247539155Y-121680424D01*
X247551129Y-121683057D01*
X247723896Y-121703659D01*
X247736145Y-121703916D01*
X247909624Y-121690567D01*
X247921694Y-121688439D01*
X248089278Y-121641649D01*
X248100700Y-121637219D01*
X248202334Y-121585879D01*
X248212618Y-121576234D01*
X248210380Y-121569590D01*
X247762812Y-121122022D01*
X247748868Y-121114408D01*
X247747035Y-121114539D01*
X247740420Y-121118790D01*
X247295082Y-121564128D01*
X247288322Y-121576508D01*
X246050000Y-121576508D01*
X246050000Y-120742815D01*
X246796012Y-120742815D01*
X246810570Y-120916181D01*
X246812785Y-120928248D01*
X246860738Y-121095484D01*
X246865257Y-121106896D01*
X246914223Y-121202173D01*
X246923942Y-121212392D01*
X246930742Y-121210048D01*
X247377978Y-120762812D01*
X247384356Y-120751132D01*
X248114408Y-120751132D01*
X248114539Y-120752965D01*
X248118790Y-120759580D01*
X248564121Y-121204911D01*
X248576501Y-121211671D01*
X248583234Y-121206630D01*
X248619025Y-121143627D01*
X248624014Y-121132421D01*
X248678928Y-120967342D01*
X248681648Y-120955371D01*
X248703783Y-120780157D01*
X248704274Y-120773130D01*
X248704548Y-120753505D01*
X248704255Y-120746512D01*
X248687018Y-120570717D01*
X248684635Y-120558682D01*
X248634350Y-120392131D01*
X248629677Y-120380792D01*
X248585675Y-120298035D01*
X248575815Y-120287954D01*
X248568688Y-120290522D01*
X248122022Y-120737188D01*
X248114408Y-120751132D01*
X247384356Y-120751132D01*
X247385592Y-120748868D01*
X247385461Y-120747035D01*
X247381210Y-120740420D01*
X246935830Y-120295040D01*
X246923450Y-120288280D01*
X246917062Y-120293062D01*
X246875563Y-120368547D01*
X246870734Y-120379813D01*
X246818125Y-120545658D01*
X246815577Y-120557647D01*
X246796183Y-120730547D01*
X246796012Y-120742815D01*
X246050000Y-120742815D01*
X246050000Y-119924081D01*
X247287800Y-119924081D01*
X247290254Y-119931044D01*
X247737188Y-120377978D01*
X247751132Y-120385592D01*
X247752965Y-120385461D01*
X247759580Y-120381210D01*
X248205037Y-119935753D01*
X248211797Y-119923373D01*
X248207138Y-119917150D01*
X248125341Y-119872923D01*
X248114034Y-119868170D01*
X247947833Y-119816722D01*
X247935822Y-119814256D01*
X247762792Y-119796070D01*
X247750524Y-119795985D01*
X247577265Y-119811753D01*
X247565216Y-119814051D01*
X247398315Y-119863173D01*
X247386940Y-119867768D01*
X247297949Y-119914292D01*
X247287800Y-119924081D01*
X246050000Y-119924081D01*
X246050000Y-104817548D01*
X252170000Y-104817548D01*
X252170000Y-105218813D01*
X252171207Y-105231067D01*
X252183184Y-105291279D01*
X252192499Y-105313768D01*
X252223150Y-105359641D01*
X252240359Y-105376850D01*
X252286232Y-105407501D01*
X252308721Y-105416816D01*
X252368933Y-105428793D01*
X252381187Y-105430000D01*
X252777885Y-105430000D01*
X252793124Y-105425525D01*
X252794329Y-105424135D01*
X252796000Y-105416452D01*
X252796000Y-104822115D01*
X252794659Y-104817548D01*
X253304000Y-104817548D01*
X253304000Y-105411885D01*
X253308475Y-105427124D01*
X253309865Y-105428329D01*
X253317548Y-105430000D01*
X253718813Y-105430000D01*
X253731067Y-105428793D01*
X253791279Y-105416816D01*
X253813768Y-105407501D01*
X253859641Y-105376850D01*
X253876850Y-105359641D01*
X253907501Y-105313768D01*
X253916816Y-105291279D01*
X253928793Y-105231067D01*
X253930000Y-105218813D01*
X253930000Y-104822115D01*
X253925525Y-104806876D01*
X253924135Y-104805671D01*
X253916452Y-104804000D01*
X253322115Y-104804000D01*
X253306876Y-104808475D01*
X253305671Y-104809865D01*
X253304000Y-104817548D01*
X252794659Y-104817548D01*
X252791525Y-104806876D01*
X252790135Y-104805671D01*
X252782452Y-104804000D01*
X252188115Y-104804000D01*
X252172876Y-104808475D01*
X252171671Y-104809865D01*
X252170000Y-104817548D01*
X246050000Y-104817548D01*
X246050000Y-102550000D01*
X252169678Y-102550000D01*
X252188915Y-102733029D01*
X252245786Y-102908059D01*
X252337805Y-103067440D01*
X252460950Y-103204207D01*
X252466292Y-103208088D01*
X252466294Y-103208090D01*
X252604497Y-103308500D01*
X252609839Y-103312381D01*
X252615867Y-103315065D01*
X252615869Y-103315066D01*
X252771935Y-103384551D01*
X252777966Y-103387236D01*
X252784427Y-103388609D01*
X252784432Y-103388611D01*
X252935648Y-103420754D01*
X252998122Y-103454482D01*
X253032443Y-103516632D01*
X253027715Y-103587471D01*
X252985439Y-103644508D01*
X252919037Y-103669635D01*
X252909451Y-103670000D01*
X252381187Y-103670000D01*
X252368933Y-103671207D01*
X252308721Y-103683184D01*
X252286232Y-103692499D01*
X252240359Y-103723150D01*
X252223150Y-103740359D01*
X252192499Y-103786232D01*
X252183184Y-103808721D01*
X252171207Y-103868933D01*
X252170000Y-103881187D01*
X252170000Y-104277885D01*
X252174475Y-104293124D01*
X252175865Y-104294329D01*
X252183548Y-104296000D01*
X253911885Y-104296000D01*
X253927124Y-104291525D01*
X253928329Y-104290135D01*
X253930000Y-104282452D01*
X253930000Y-103881187D01*
X253928793Y-103868933D01*
X253916816Y-103808721D01*
X253907501Y-103786232D01*
X253876850Y-103740359D01*
X253859641Y-103723150D01*
X253813768Y-103692499D01*
X253791279Y-103683184D01*
X253731067Y-103671207D01*
X253718813Y-103670000D01*
X253190549Y-103670000D01*
X253122428Y-103649998D01*
X253075935Y-103596342D01*
X253065831Y-103526068D01*
X253095325Y-103461488D01*
X253155051Y-103423104D01*
X253164352Y-103420754D01*
X253315568Y-103388611D01*
X253315573Y-103388609D01*
X253322034Y-103387236D01*
X253328065Y-103384551D01*
X253484131Y-103315066D01*
X253484133Y-103315065D01*
X253490161Y-103312381D01*
X253495503Y-103308500D01*
X253633706Y-103208090D01*
X253633708Y-103208088D01*
X253639050Y-103204207D01*
X253762195Y-103067440D01*
X253854214Y-102908059D01*
X253911085Y-102733029D01*
X253930322Y-102550000D01*
X253911085Y-102366971D01*
X253854214Y-102191941D01*
X253762195Y-102032560D01*
X253639050Y-101895793D01*
X253633708Y-101891912D01*
X253633706Y-101891910D01*
X253495503Y-101791500D01*
X253495502Y-101791499D01*
X253490161Y-101787619D01*
X253484133Y-101784935D01*
X253484131Y-101784934D01*
X253328065Y-101715449D01*
X253328064Y-101715449D01*
X253322034Y-101712764D01*
X253232026Y-101693632D01*
X253148476Y-101675872D01*
X253148471Y-101675872D01*
X253142019Y-101674500D01*
X253141155Y-101674500D01*
X253077467Y-101648298D01*
X253049622Y-101608398D01*
X253029786Y-101642013D01*
X252966375Y-101673944D01*
X252962509Y-101674500D01*
X252957981Y-101674500D01*
X252951529Y-101675872D01*
X252951524Y-101675872D01*
X252867974Y-101693632D01*
X252777966Y-101712764D01*
X252771936Y-101715449D01*
X252771935Y-101715449D01*
X252615869Y-101784934D01*
X252615867Y-101784935D01*
X252609839Y-101787619D01*
X252604498Y-101791499D01*
X252604497Y-101791500D01*
X252466294Y-101891910D01*
X252466292Y-101891912D01*
X252460950Y-101895793D01*
X252337805Y-102032560D01*
X252245786Y-102191941D01*
X252188915Y-102366971D01*
X252169678Y-102550000D01*
X246050000Y-102550000D01*
X246050000Y-101376500D01*
X246070002Y-101308379D01*
X246123658Y-101261886D01*
X246176000Y-101250500D01*
X252483727Y-101250500D01*
X252557788Y-101274564D01*
X252604497Y-101308500D01*
X252609839Y-101312381D01*
X252615867Y-101315065D01*
X252615869Y-101315066D01*
X252771935Y-101384551D01*
X252777966Y-101387236D01*
X252867974Y-101406368D01*
X252951524Y-101424128D01*
X252951529Y-101424128D01*
X252957981Y-101425500D01*
X252958845Y-101425500D01*
X253022533Y-101451702D01*
X253050378Y-101491602D01*
X253070214Y-101457987D01*
X253133625Y-101426056D01*
X253137491Y-101425500D01*
X253142019Y-101425500D01*
X253148471Y-101424128D01*
X253148476Y-101424128D01*
X253232026Y-101406368D01*
X253322034Y-101387236D01*
X253328065Y-101384551D01*
X253484131Y-101315066D01*
X253484133Y-101315065D01*
X253490161Y-101312381D01*
X253495503Y-101308500D01*
X253633706Y-101208090D01*
X253633708Y-101208088D01*
X253639050Y-101204207D01*
X253762195Y-101067440D01*
X253826921Y-100955332D01*
X253828865Y-100956455D01*
X253830110Y-100953053D01*
X253829322Y-100952636D01*
X253832364Y-100946891D01*
X253832365Y-100946889D01*
X253837581Y-100937037D01*
X253839817Y-100932994D01*
X253850912Y-100913778D01*
X253854214Y-100908059D01*
X253855934Y-100902764D01*
X253858279Y-100897945D01*
X253908641Y-100802829D01*
X253949937Y-100638423D01*
X253950824Y-100468912D01*
X253911252Y-100304082D01*
X253855662Y-100196379D01*
X253855642Y-100196338D01*
X253854214Y-100191941D01*
X253847754Y-100180751D01*
X253844909Y-100175545D01*
X253836991Y-100160203D01*
X253836989Y-100160200D01*
X253833505Y-100153450D01*
X253829539Y-100148904D01*
X253827362Y-100145433D01*
X253765496Y-100038278D01*
X253762195Y-100032560D01*
X253639050Y-99895793D01*
X253633708Y-99891912D01*
X253633706Y-99891910D01*
X253495503Y-99791500D01*
X253495502Y-99791499D01*
X253490161Y-99787619D01*
X253484133Y-99784935D01*
X253484131Y-99784934D01*
X253328065Y-99715449D01*
X253328064Y-99715449D01*
X253322034Y-99712764D01*
X253232026Y-99693632D01*
X253148476Y-99675872D01*
X253148471Y-99675872D01*
X253142019Y-99674500D01*
X253141155Y-99674500D01*
X253077467Y-99648298D01*
X253049622Y-99608398D01*
X253029786Y-99642013D01*
X252966375Y-99673944D01*
X252962509Y-99674500D01*
X252957981Y-99674500D01*
X252951529Y-99675872D01*
X252951524Y-99675872D01*
X252867974Y-99693632D01*
X252777966Y-99712764D01*
X252771936Y-99715449D01*
X252771935Y-99715449D01*
X252615869Y-99784934D01*
X252615867Y-99784935D01*
X252609839Y-99787619D01*
X252604498Y-99791499D01*
X252604497Y-99791500D01*
X252557788Y-99825436D01*
X252483727Y-99849500D01*
X246176000Y-99849500D01*
X246107879Y-99829498D01*
X246061386Y-99775842D01*
X246050000Y-99723500D01*
X246050000Y-99326500D01*
X246070002Y-99258379D01*
X246123658Y-99211886D01*
X246176000Y-99200500D01*
X252414908Y-99200500D01*
X252488969Y-99224564D01*
X252609839Y-99312381D01*
X252615867Y-99315065D01*
X252615869Y-99315066D01*
X252771935Y-99384551D01*
X252777966Y-99387236D01*
X252867974Y-99406368D01*
X252951524Y-99424128D01*
X252951529Y-99424128D01*
X252957981Y-99425500D01*
X252958845Y-99425500D01*
X253022533Y-99451702D01*
X253050378Y-99491602D01*
X253070214Y-99457987D01*
X253133625Y-99426056D01*
X253137491Y-99425500D01*
X253142019Y-99425500D01*
X253148471Y-99424128D01*
X253148476Y-99424128D01*
X253232026Y-99406368D01*
X253322034Y-99387236D01*
X253328065Y-99384551D01*
X253484131Y-99315066D01*
X253484133Y-99315065D01*
X253490161Y-99312381D01*
X253628481Y-99211886D01*
X253633706Y-99208090D01*
X253633708Y-99208088D01*
X253639050Y-99204207D01*
X253762195Y-99067440D01*
X253854214Y-98908059D01*
X253855572Y-98903880D01*
X253861598Y-98892426D01*
X253887499Y-98850159D01*
X253891466Y-98843686D01*
X253943004Y-98682197D01*
X253943521Y-98674616D01*
X253954018Y-98520653D01*
X253954018Y-98520649D01*
X253954534Y-98513077D01*
X253925390Y-98346088D01*
X253857254Y-98190872D01*
X253847508Y-98178170D01*
X253838351Y-98164466D01*
X253765496Y-98038278D01*
X253762195Y-98032560D01*
X253639050Y-97895793D01*
X253633708Y-97891912D01*
X253633706Y-97891910D01*
X253495503Y-97791500D01*
X253495502Y-97791499D01*
X253490161Y-97787619D01*
X253484133Y-97784935D01*
X253484131Y-97784934D01*
X253328065Y-97715449D01*
X253328064Y-97715449D01*
X253322034Y-97712764D01*
X253232026Y-97693632D01*
X253148476Y-97675872D01*
X253148471Y-97675872D01*
X253142019Y-97674500D01*
X252957981Y-97674500D01*
X252951529Y-97675872D01*
X252951524Y-97675872D01*
X252867974Y-97693632D01*
X252777966Y-97712764D01*
X252609839Y-97787619D01*
X252608920Y-97785554D01*
X252556879Y-97799500D01*
X246176000Y-97799500D01*
X246107879Y-97779498D01*
X246061386Y-97725842D01*
X246050000Y-97673500D01*
X246050000Y-96815000D01*
X252216074Y-96815000D01*
X252244202Y-96901571D01*
X252249548Y-96913578D01*
X252334909Y-97061427D01*
X252342630Y-97072053D01*
X252456864Y-97198923D01*
X252466630Y-97207717D01*
X252604748Y-97308065D01*
X252616120Y-97314631D01*
X252772089Y-97384073D01*
X252780043Y-97386658D01*
X252792341Y-97385719D01*
X252796000Y-97375764D01*
X252796000Y-96822115D01*
X252794659Y-96817548D01*
X253304000Y-96817548D01*
X253304000Y-97372444D01*
X253307973Y-97385975D01*
X253317738Y-97387379D01*
X253327911Y-97384073D01*
X253483880Y-97314631D01*
X253495252Y-97308065D01*
X253633370Y-97207717D01*
X253643136Y-97198923D01*
X253757370Y-97072053D01*
X253765091Y-97061427D01*
X253850452Y-96913578D01*
X253855798Y-96901571D01*
X253881901Y-96821232D01*
X253882304Y-96807133D01*
X253875932Y-96804000D01*
X253322115Y-96804000D01*
X253306876Y-96808475D01*
X253305671Y-96809865D01*
X253304000Y-96817548D01*
X252794659Y-96817548D01*
X252791525Y-96806876D01*
X252790135Y-96805671D01*
X252782452Y-96804000D01*
X252230615Y-96804000D01*
X252217084Y-96807973D01*
X252216074Y-96815000D01*
X246050000Y-96815000D01*
X246050000Y-96292867D01*
X252217696Y-96292867D01*
X252224068Y-96296000D01*
X252777885Y-96296000D01*
X252793124Y-96291525D01*
X252794329Y-96290135D01*
X252796000Y-96282452D01*
X252796000Y-95727556D01*
X252795025Y-95724236D01*
X253304000Y-95724236D01*
X253304000Y-96277885D01*
X253308475Y-96293124D01*
X253309865Y-96294329D01*
X253317548Y-96296000D01*
X253869385Y-96296000D01*
X253882916Y-96292027D01*
X253883926Y-96285000D01*
X253855798Y-96198429D01*
X253850452Y-96186422D01*
X253765091Y-96038573D01*
X253757370Y-96027947D01*
X253643136Y-95901077D01*
X253633370Y-95892283D01*
X253495252Y-95791935D01*
X253483880Y-95785369D01*
X253327911Y-95715927D01*
X253319957Y-95713342D01*
X253307659Y-95714281D01*
X253304000Y-95724236D01*
X252795025Y-95724236D01*
X252792027Y-95714025D01*
X252782262Y-95712621D01*
X252772089Y-95715927D01*
X252616120Y-95785369D01*
X252604748Y-95791935D01*
X252466630Y-95892283D01*
X252456864Y-95901077D01*
X252342630Y-96027947D01*
X252334909Y-96038573D01*
X252249548Y-96186422D01*
X252244202Y-96198429D01*
X252218099Y-96278768D01*
X252217696Y-96292867D01*
X246050000Y-96292867D01*
X246050000Y-95176500D01*
X246070002Y-95108379D01*
X246123658Y-95061886D01*
X246176000Y-95050500D01*
X252266454Y-95050500D01*
X252334575Y-95070502D01*
X252360090Y-95092190D01*
X252460950Y-95204207D01*
X252466292Y-95208088D01*
X252466294Y-95208090D01*
X252604497Y-95308500D01*
X252609839Y-95312381D01*
X252615867Y-95315065D01*
X252615869Y-95315066D01*
X252771935Y-95384551D01*
X252777966Y-95387236D01*
X252867973Y-95406368D01*
X252951524Y-95424128D01*
X252951529Y-95424128D01*
X252957981Y-95425500D01*
X253142019Y-95425500D01*
X253148471Y-95424128D01*
X253148476Y-95424128D01*
X253232027Y-95406368D01*
X253322034Y-95387236D01*
X253328065Y-95384551D01*
X253484131Y-95315066D01*
X253484133Y-95315065D01*
X253490161Y-95312381D01*
X253495503Y-95308500D01*
X253633706Y-95208090D01*
X253633708Y-95208088D01*
X253639050Y-95204207D01*
X253643472Y-95199296D01*
X253757776Y-95072348D01*
X253757777Y-95072347D01*
X253762195Y-95067440D01*
X253854214Y-94908059D01*
X253911085Y-94733029D01*
X253923112Y-94618604D01*
X253929632Y-94556565D01*
X253930322Y-94550000D01*
X253911085Y-94366971D01*
X253854214Y-94191941D01*
X253762195Y-94032560D01*
X253663998Y-93923500D01*
X253643472Y-93900704D01*
X253643471Y-93900703D01*
X253639050Y-93895793D01*
X253633708Y-93891912D01*
X253633706Y-93891910D01*
X253495503Y-93791500D01*
X253495502Y-93791499D01*
X253490161Y-93787619D01*
X253484133Y-93784935D01*
X253484131Y-93784934D01*
X253328065Y-93715449D01*
X253328064Y-93715449D01*
X253322034Y-93712764D01*
X253232026Y-93693632D01*
X253148476Y-93675872D01*
X253148471Y-93675872D01*
X253142019Y-93674500D01*
X253141155Y-93674500D01*
X253077467Y-93648298D01*
X253049622Y-93608398D01*
X253029786Y-93642013D01*
X252966375Y-93673944D01*
X252962509Y-93674500D01*
X252957981Y-93674500D01*
X252951529Y-93675872D01*
X252951524Y-93675872D01*
X252867974Y-93693632D01*
X252777966Y-93712764D01*
X252771936Y-93715449D01*
X252771935Y-93715449D01*
X252615869Y-93784934D01*
X252615867Y-93784935D01*
X252609839Y-93787619D01*
X252604498Y-93791499D01*
X252604497Y-93791500D01*
X252466294Y-93891910D01*
X252466292Y-93891912D01*
X252460950Y-93895793D01*
X252456529Y-93900703D01*
X252456528Y-93900704D01*
X252360090Y-94007810D01*
X252299644Y-94045050D01*
X252266454Y-94049500D01*
X246176000Y-94049500D01*
X246107879Y-94029498D01*
X246061386Y-93975842D01*
X246050000Y-93923500D01*
X246050000Y-92762004D01*
X246070002Y-92693883D01*
X246123658Y-92647390D01*
X246193932Y-92637286D01*
X246258512Y-92666780D01*
X246265095Y-92672909D01*
X246446934Y-92854748D01*
X246453989Y-92863578D01*
X246454436Y-92863198D01*
X246460250Y-92870029D01*
X246465042Y-92877625D01*
X246471771Y-92883568D01*
X246471772Y-92883569D01*
X246502942Y-92911097D01*
X246508629Y-92916443D01*
X246520781Y-92928595D01*
X246524362Y-92931279D01*
X246524369Y-92931285D01*
X246529772Y-92935334D01*
X246537611Y-92941716D01*
X246572469Y-92972501D01*
X246580594Y-92976315D01*
X246583760Y-92978395D01*
X246596726Y-92986186D01*
X246600061Y-92988012D01*
X246607247Y-92993398D01*
X246615649Y-92996548D01*
X246615653Y-92996550D01*
X246650801Y-93009726D01*
X246660118Y-93013652D01*
X246702206Y-93033412D01*
X246711075Y-93034793D01*
X246714693Y-93035899D01*
X246729359Y-93039747D01*
X246733049Y-93040558D01*
X246741451Y-93043708D01*
X246750397Y-93044373D01*
X246750398Y-93044373D01*
X246787828Y-93047154D01*
X246797877Y-93048308D01*
X246811955Y-93050500D01*
X246828173Y-93050500D01*
X246837510Y-93050846D01*
X246884382Y-93054329D01*
X246893158Y-93052456D01*
X246902115Y-93051845D01*
X246902120Y-93051925D01*
X246915619Y-93050500D01*
X252266454Y-93050500D01*
X252334575Y-93070502D01*
X252360090Y-93092190D01*
X252460950Y-93204207D01*
X252466292Y-93208088D01*
X252466294Y-93208090D01*
X252604497Y-93308500D01*
X252609839Y-93312381D01*
X252615867Y-93315065D01*
X252615869Y-93315066D01*
X252771935Y-93384551D01*
X252777966Y-93387236D01*
X252867973Y-93406368D01*
X252951524Y-93424128D01*
X252951529Y-93424128D01*
X252957981Y-93425500D01*
X252958845Y-93425500D01*
X253022533Y-93451702D01*
X253050378Y-93491602D01*
X253070214Y-93457987D01*
X253133625Y-93426056D01*
X253137491Y-93425500D01*
X253142019Y-93425500D01*
X253148471Y-93424128D01*
X253148476Y-93424128D01*
X253232027Y-93406368D01*
X253322034Y-93387236D01*
X253328065Y-93384551D01*
X253484131Y-93315066D01*
X253484133Y-93315065D01*
X253490161Y-93312381D01*
X253495503Y-93308500D01*
X253633706Y-93208090D01*
X253633708Y-93208088D01*
X253639050Y-93204207D01*
X253762195Y-93067440D01*
X253838467Y-92935334D01*
X253850910Y-92913782D01*
X253850911Y-92913781D01*
X253854214Y-92908059D01*
X253878394Y-92833640D01*
X253909045Y-92739308D01*
X253909045Y-92739306D01*
X253911085Y-92733029D01*
X253930322Y-92550000D01*
X253911085Y-92366971D01*
X253854214Y-92191941D01*
X253762195Y-92032560D01*
X253663998Y-91923500D01*
X253643472Y-91900704D01*
X253643471Y-91900703D01*
X253639050Y-91895793D01*
X253633708Y-91891912D01*
X253633706Y-91891910D01*
X253495503Y-91791500D01*
X253495502Y-91791499D01*
X253490161Y-91787619D01*
X253484133Y-91784935D01*
X253484131Y-91784934D01*
X253328065Y-91715449D01*
X253328064Y-91715449D01*
X253322034Y-91712764D01*
X253232026Y-91693632D01*
X253148476Y-91675872D01*
X253148471Y-91675872D01*
X253142019Y-91674500D01*
X253141155Y-91674500D01*
X253077467Y-91648298D01*
X253049622Y-91608398D01*
X253029786Y-91642013D01*
X252966375Y-91673944D01*
X252962509Y-91674500D01*
X252957981Y-91674500D01*
X252951529Y-91675872D01*
X252951524Y-91675872D01*
X252867974Y-91693632D01*
X252777966Y-91712764D01*
X252771936Y-91715449D01*
X252771935Y-91715449D01*
X252615869Y-91784934D01*
X252615867Y-91784935D01*
X252609839Y-91787619D01*
X252604498Y-91791499D01*
X252604497Y-91791500D01*
X252466294Y-91891910D01*
X252466292Y-91891912D01*
X252460950Y-91895793D01*
X252456529Y-91900703D01*
X252456528Y-91900704D01*
X252360090Y-92007810D01*
X252299644Y-92045050D01*
X252266454Y-92049500D01*
X247176500Y-92049500D01*
X247108379Y-92029498D01*
X247061886Y-91975842D01*
X247050500Y-91923500D01*
X247050500Y-90550000D01*
X252169678Y-90550000D01*
X252188915Y-90733029D01*
X252245786Y-90908059D01*
X252337805Y-91067440D01*
X252460950Y-91204207D01*
X252466292Y-91208088D01*
X252466294Y-91208090D01*
X252604497Y-91308500D01*
X252609839Y-91312381D01*
X252615867Y-91315065D01*
X252615869Y-91315066D01*
X252771935Y-91384551D01*
X252777966Y-91387236D01*
X252867973Y-91406368D01*
X252951524Y-91424128D01*
X252951529Y-91424128D01*
X252957981Y-91425500D01*
X252958845Y-91425500D01*
X253022533Y-91451702D01*
X253050378Y-91491602D01*
X253070214Y-91457987D01*
X253133625Y-91426056D01*
X253137491Y-91425500D01*
X253142019Y-91425500D01*
X253148471Y-91424128D01*
X253148476Y-91424128D01*
X253232027Y-91406368D01*
X253322034Y-91387236D01*
X253328065Y-91384551D01*
X253484131Y-91315066D01*
X253484133Y-91315065D01*
X253490161Y-91312381D01*
X253495503Y-91308500D01*
X253633706Y-91208090D01*
X253633708Y-91208088D01*
X253639050Y-91204207D01*
X253762195Y-91067440D01*
X253854214Y-90908059D01*
X253911085Y-90733029D01*
X253930322Y-90550000D01*
X253911085Y-90366971D01*
X253854214Y-90191941D01*
X253762195Y-90032560D01*
X253639050Y-89895793D01*
X253633708Y-89891912D01*
X253633706Y-89891910D01*
X253495503Y-89791500D01*
X253495502Y-89791499D01*
X253490161Y-89787619D01*
X253484133Y-89784935D01*
X253484131Y-89784934D01*
X253328065Y-89715449D01*
X253328064Y-89715449D01*
X253322034Y-89712764D01*
X253232026Y-89693632D01*
X253148476Y-89675872D01*
X253148471Y-89675872D01*
X253142019Y-89674500D01*
X252957981Y-89674500D01*
X252951529Y-89675872D01*
X252951524Y-89675872D01*
X252867974Y-89693632D01*
X252777966Y-89712764D01*
X252771936Y-89715449D01*
X252771935Y-89715449D01*
X252615869Y-89784934D01*
X252615867Y-89784935D01*
X252609839Y-89787619D01*
X252604498Y-89791499D01*
X252604497Y-89791500D01*
X252466294Y-89891910D01*
X252466292Y-89891912D01*
X252460950Y-89895793D01*
X252337805Y-90032560D01*
X252245786Y-90191941D01*
X252188915Y-90366971D01*
X252169678Y-90550000D01*
X247050500Y-90550000D01*
X247050500Y-83865086D01*
X247035182Y-83758123D01*
X246975860Y-83627651D01*
X246882303Y-83519074D01*
X246762033Y-83441118D01*
X246753436Y-83438547D01*
X246753434Y-83438546D01*
X246669696Y-83413503D01*
X246624718Y-83400052D01*
X246615742Y-83399997D01*
X246615741Y-83399997D01*
X246554027Y-83399620D01*
X246481396Y-83399177D01*
X246472765Y-83401644D01*
X246472763Y-83401644D01*
X246352223Y-83436094D01*
X246352220Y-83436095D01*
X246343589Y-83438562D01*
X246335995Y-83443353D01*
X246335996Y-83443353D01*
X246243235Y-83501880D01*
X246174950Y-83521314D01*
X246106998Y-83500745D01*
X246060954Y-83446703D01*
X246050000Y-83395318D01*
X246050000Y-75176508D01*
X247288322Y-75176508D01*
X247293231Y-75183066D01*
X247362450Y-75221751D01*
X247373689Y-75226661D01*
X247539155Y-75280424D01*
X247551129Y-75283057D01*
X247723896Y-75303659D01*
X247736145Y-75303916D01*
X247909624Y-75290567D01*
X247921694Y-75288439D01*
X248089278Y-75241649D01*
X248100700Y-75237219D01*
X248202334Y-75185879D01*
X248212618Y-75176234D01*
X248210380Y-75169590D01*
X247762812Y-74722022D01*
X247748868Y-74714408D01*
X247747035Y-74714539D01*
X247740420Y-74718790D01*
X247295082Y-75164128D01*
X247288322Y-75176508D01*
X246050000Y-75176508D01*
X246050000Y-74342815D01*
X246796012Y-74342815D01*
X246810570Y-74516181D01*
X246812785Y-74528248D01*
X246860738Y-74695484D01*
X246865257Y-74706896D01*
X246914223Y-74802173D01*
X246923942Y-74812392D01*
X246930742Y-74810048D01*
X247377978Y-74362812D01*
X247384356Y-74351132D01*
X248114408Y-74351132D01*
X248114539Y-74352965D01*
X248118790Y-74359580D01*
X248564121Y-74804911D01*
X248576501Y-74811671D01*
X248583234Y-74806630D01*
X248619025Y-74743627D01*
X248624014Y-74732421D01*
X248678928Y-74567342D01*
X248681648Y-74555371D01*
X248703783Y-74380157D01*
X248704274Y-74373130D01*
X248704548Y-74353505D01*
X248704255Y-74346512D01*
X248687018Y-74170717D01*
X248684635Y-74158682D01*
X248634350Y-73992131D01*
X248629677Y-73980792D01*
X248585675Y-73898035D01*
X248575815Y-73887954D01*
X248568688Y-73890522D01*
X248122022Y-74337188D01*
X248114408Y-74351132D01*
X247384356Y-74351132D01*
X247385592Y-74348868D01*
X247385461Y-74347035D01*
X247381210Y-74340420D01*
X246935830Y-73895040D01*
X246923450Y-73888280D01*
X246917062Y-73893062D01*
X246875563Y-73968547D01*
X246870734Y-73979813D01*
X246818125Y-74145658D01*
X246815577Y-74157647D01*
X246796183Y-74330547D01*
X246796012Y-74342815D01*
X246050000Y-74342815D01*
X246050000Y-73524081D01*
X247287800Y-73524081D01*
X247290254Y-73531044D01*
X247737188Y-73977978D01*
X247751132Y-73985592D01*
X247752965Y-73985461D01*
X247759580Y-73981210D01*
X248205037Y-73535753D01*
X248211797Y-73523373D01*
X248207138Y-73517150D01*
X248125341Y-73472923D01*
X248114034Y-73468170D01*
X247947833Y-73416722D01*
X247935822Y-73414256D01*
X247762792Y-73396070D01*
X247750524Y-73395985D01*
X247577265Y-73411753D01*
X247565216Y-73414051D01*
X247398315Y-73463173D01*
X247386940Y-73467768D01*
X247297949Y-73514292D01*
X247287800Y-73524081D01*
X246050000Y-73524081D01*
X246050000Y-65176000D01*
X246070002Y-65107879D01*
X246123658Y-65061386D01*
X246176000Y-65050000D01*
X252225831Y-65050000D01*
X252250000Y-65052705D01*
G37*
%TD.AperFunction*%
%TD*%
%TA.AperFunction,Conductor*%
%TO.N,GND*%
G36*
X242908617Y-87070502D02*
G01*
X242929591Y-87087405D01*
X243112595Y-87270409D01*
X243146621Y-87332721D01*
X243149500Y-87359504D01*
X243149500Y-93380480D01*
X243148245Y-93391709D01*
X243148829Y-93391756D01*
X243148109Y-93400703D01*
X243146128Y-93409459D01*
X243146684Y-93418419D01*
X243149258Y-93459909D01*
X243149500Y-93467711D01*
X243149500Y-93484914D01*
X243150135Y-93489350D01*
X243150136Y-93489361D01*
X243151093Y-93496042D01*
X243152124Y-93506098D01*
X243155003Y-93552509D01*
X243158052Y-93560955D01*
X243158825Y-93564687D01*
X243162479Y-93579345D01*
X243163546Y-93582992D01*
X243164818Y-93591877D01*
X243184068Y-93634214D01*
X243187881Y-93643581D01*
X243203670Y-93687318D01*
X243208968Y-93694570D01*
X243210748Y-93697917D01*
X243218391Y-93710998D01*
X243220426Y-93714180D01*
X243224140Y-93722349D01*
X243229998Y-93729148D01*
X243229999Y-93729149D01*
X243254494Y-93757576D01*
X243260780Y-93765491D01*
X243269191Y-93777005D01*
X243280656Y-93788470D01*
X243287014Y-93795317D01*
X243317697Y-93830926D01*
X243325231Y-93835810D01*
X243331994Y-93841709D01*
X243331941Y-93841770D01*
X243342494Y-93850308D01*
X244346934Y-94854748D01*
X244353989Y-94863578D01*
X244354436Y-94863198D01*
X244360250Y-94870029D01*
X244365042Y-94877625D01*
X244371771Y-94883568D01*
X244371772Y-94883569D01*
X244402942Y-94911097D01*
X244408629Y-94916443D01*
X244420781Y-94928595D01*
X244424362Y-94931279D01*
X244424369Y-94931285D01*
X244429772Y-94935334D01*
X244437611Y-94941716D01*
X244472469Y-94972501D01*
X244480594Y-94976315D01*
X244483760Y-94978395D01*
X244496726Y-94986186D01*
X244500061Y-94988012D01*
X244507247Y-94993398D01*
X244515649Y-94996548D01*
X244515653Y-94996550D01*
X244550801Y-95009726D01*
X244560118Y-95013652D01*
X244602206Y-95033412D01*
X244611075Y-95034793D01*
X244614693Y-95035899D01*
X244629359Y-95039747D01*
X244633049Y-95040558D01*
X244641451Y-95043708D01*
X244650397Y-95044373D01*
X244650398Y-95044373D01*
X244687828Y-95047154D01*
X244697877Y-95048308D01*
X244711955Y-95050500D01*
X244728173Y-95050500D01*
X244737510Y-95050846D01*
X244784382Y-95054329D01*
X244793159Y-95052456D01*
X244802114Y-95051845D01*
X244802119Y-95051925D01*
X244815618Y-95050500D01*
X246100000Y-95050500D01*
X246100000Y-97799500D01*
X241426534Y-97799500D01*
X241417964Y-97799208D01*
X241417935Y-97799206D01*
X241363077Y-97795466D01*
X241355600Y-97796771D01*
X241355597Y-97796771D01*
X241300871Y-97806322D01*
X241294348Y-97807285D01*
X241239258Y-97813952D01*
X241239257Y-97813952D01*
X241231715Y-97814865D01*
X241224608Y-97817551D01*
X241221232Y-97818380D01*
X241206878Y-97822306D01*
X241203572Y-97823304D01*
X241196088Y-97824610D01*
X241189133Y-97827663D01*
X241189130Y-97827664D01*
X241138294Y-97849980D01*
X241132186Y-97852473D01*
X241080247Y-97872099D01*
X241080244Y-97872100D01*
X241073145Y-97874783D01*
X241066891Y-97879081D01*
X241063894Y-97880648D01*
X241050779Y-97887948D01*
X241047828Y-97889693D01*
X241040872Y-97892747D01*
X240990780Y-97931183D01*
X240985480Y-97935034D01*
X240933444Y-97970797D01*
X240928394Y-97976465D01*
X240928393Y-97976466D01*
X240894156Y-98014893D01*
X240889174Y-98020169D01*
X237973433Y-100935910D01*
X237967168Y-100941763D01*
X237925711Y-100977928D01*
X237889416Y-101029570D01*
X237885485Y-101034863D01*
X237851225Y-101078558D01*
X237846541Y-101084532D01*
X237843418Y-101091448D01*
X237841652Y-101094364D01*
X237834206Y-101107418D01*
X237832605Y-101110403D01*
X237828240Y-101116615D01*
X237825482Y-101123690D01*
X237805314Y-101175418D01*
X237802757Y-101181501D01*
X237776783Y-101239026D01*
X237775399Y-101246492D01*
X237774380Y-101249745D01*
X237770286Y-101264115D01*
X237769424Y-101267474D01*
X237766665Y-101274549D01*
X237765674Y-101282078D01*
X237765673Y-101282081D01*
X237758427Y-101337121D01*
X237757396Y-101343630D01*
X237745892Y-101405702D01*
X237746329Y-101413282D01*
X237746329Y-101413283D01*
X237749291Y-101464650D01*
X237749500Y-101471903D01*
X237749500Y-122673466D01*
X237749208Y-122682036D01*
X237745466Y-122736923D01*
X237746771Y-122744400D01*
X237746771Y-122744403D01*
X237756322Y-122799129D01*
X237757285Y-122805652D01*
X237764865Y-122868285D01*
X237767551Y-122875392D01*
X237768380Y-122878768D01*
X237772306Y-122893122D01*
X237773304Y-122896428D01*
X237774610Y-122903912D01*
X237777663Y-122910867D01*
X237777664Y-122910870D01*
X237799980Y-122961706D01*
X237802473Y-122967814D01*
X237824783Y-123026855D01*
X237829081Y-123033109D01*
X237830648Y-123036106D01*
X237837948Y-123049221D01*
X237839693Y-123052172D01*
X237842747Y-123059128D01*
X237881183Y-123109220D01*
X237885034Y-123114520D01*
X237920797Y-123166556D01*
X237964904Y-123205853D01*
X237970160Y-123210817D01*
X240083887Y-125324543D01*
X240184532Y-125403459D01*
X240191449Y-125406582D01*
X240191452Y-125406584D01*
X240332102Y-125470090D01*
X240332104Y-125470091D01*
X240339026Y-125473216D01*
X240346497Y-125474601D01*
X240346498Y-125474601D01*
X240441000Y-125492116D01*
X240505702Y-125504108D01*
X240513282Y-125503671D01*
X240513283Y-125503671D01*
X240549326Y-125501593D01*
X240674933Y-125494350D01*
X240836952Y-125444506D01*
X240982405Y-125357454D01*
X240987798Y-125352117D01*
X240987802Y-125352114D01*
X241097498Y-125243560D01*
X241097499Y-125243559D01*
X241102895Y-125238219D01*
X241191466Y-125093685D01*
X241243003Y-124932197D01*
X241243926Y-124918654D01*
X241254017Y-124770653D01*
X241254017Y-124770649D01*
X241254533Y-124763077D01*
X241225389Y-124596088D01*
X241157253Y-124440871D01*
X241077197Y-124336541D01*
X239187405Y-122446748D01*
X239153379Y-122384436D01*
X239150500Y-122357653D01*
X239150500Y-101792347D01*
X239170502Y-101724226D01*
X239187405Y-101703252D01*
X241653252Y-99237405D01*
X241715564Y-99203379D01*
X241742347Y-99200500D01*
X246100000Y-99200500D01*
X246100000Y-99849500D01*
X241876534Y-99849500D01*
X241867964Y-99849208D01*
X241867935Y-99849206D01*
X241813077Y-99845466D01*
X241805600Y-99846771D01*
X241805597Y-99846771D01*
X241750871Y-99856322D01*
X241744348Y-99857285D01*
X241689258Y-99863952D01*
X241689257Y-99863952D01*
X241681715Y-99864865D01*
X241674608Y-99867551D01*
X241671232Y-99868380D01*
X241656866Y-99872310D01*
X241653573Y-99873304D01*
X241646088Y-99874610D01*
X241639138Y-99877661D01*
X241639131Y-99877663D01*
X241588275Y-99899988D01*
X241582167Y-99902481D01*
X241523145Y-99924783D01*
X241516884Y-99929086D01*
X241513845Y-99930675D01*
X241500777Y-99937949D01*
X241497830Y-99939692D01*
X241490872Y-99942746D01*
X241484845Y-99947371D01*
X241484841Y-99947373D01*
X241440799Y-99981167D01*
X241435464Y-99985043D01*
X241389704Y-100016494D01*
X241389701Y-100016497D01*
X241383444Y-100020797D01*
X241378395Y-100026464D01*
X241344156Y-100064893D01*
X241339174Y-100070169D01*
X240073433Y-101335910D01*
X240067168Y-101341763D01*
X240025711Y-101377928D01*
X240006191Y-101405702D01*
X239989416Y-101429570D01*
X239985485Y-101434863D01*
X239962130Y-101464650D01*
X239946541Y-101484532D01*
X239943418Y-101491448D01*
X239941652Y-101494364D01*
X239934206Y-101507418D01*
X239932605Y-101510403D01*
X239928240Y-101516615D01*
X239925482Y-101523690D01*
X239905314Y-101575418D01*
X239902757Y-101581501D01*
X239876783Y-101639026D01*
X239875399Y-101646492D01*
X239874380Y-101649745D01*
X239870286Y-101664115D01*
X239869424Y-101667474D01*
X239866665Y-101674549D01*
X239865674Y-101682078D01*
X239865673Y-101682081D01*
X239858427Y-101737121D01*
X239857396Y-101743630D01*
X239845892Y-101805702D01*
X239846329Y-101813282D01*
X239846329Y-101813283D01*
X239849291Y-101864650D01*
X239849500Y-101871903D01*
X239849500Y-120691317D01*
X239864865Y-120818285D01*
X239867550Y-120825390D01*
X239867550Y-120825391D01*
X239912307Y-120943837D01*
X239924783Y-120976855D01*
X239929082Y-120983110D01*
X239929084Y-120983114D01*
X239990320Y-121072212D01*
X240020797Y-121116556D01*
X240147362Y-121229321D01*
X240297171Y-121308641D01*
X240461577Y-121349937D01*
X240469175Y-121349977D01*
X240469177Y-121349977D01*
X240542208Y-121350359D01*
X240631088Y-121350824D01*
X240638467Y-121349052D01*
X240638471Y-121349052D01*
X240788539Y-121313024D01*
X240788543Y-121313023D01*
X240795918Y-121311252D01*
X240946550Y-121233505D01*
X240964940Y-121217463D01*
X241068564Y-121127066D01*
X241074289Y-121122072D01*
X241171760Y-120983385D01*
X241233335Y-120825451D01*
X241250500Y-120695070D01*
X241250500Y-102192347D01*
X241270502Y-102124226D01*
X241287405Y-102103252D01*
X242103252Y-101287405D01*
X242165564Y-101253379D01*
X242192347Y-101250500D01*
X246100000Y-101250500D01*
X246100000Y-127050000D01*
X207508958Y-127050000D01*
X207440837Y-127029998D01*
X207394344Y-126976342D01*
X207385008Y-126946638D01*
X207378025Y-126908402D01*
X207378024Y-126908400D01*
X207377342Y-126904663D01*
X207280784Y-126593696D01*
X207147567Y-126296582D01*
X206979621Y-126017624D01*
X206977294Y-126014640D01*
X206977289Y-126014633D01*
X206781713Y-125763858D01*
X206781711Y-125763856D01*
X206779377Y-125760863D01*
X206549738Y-125530018D01*
X206516872Y-125504108D01*
X206297010Y-125330783D01*
X206294029Y-125328433D01*
X206015954Y-125159029D01*
X205872238Y-125093685D01*
X205722994Y-125025827D01*
X205722986Y-125025824D01*
X205719542Y-125024258D01*
X205409085Y-124926073D01*
X205267071Y-124899368D01*
X205092805Y-124866597D01*
X205092800Y-124866596D01*
X205089081Y-124865897D01*
X204764166Y-124844601D01*
X204760386Y-124844809D01*
X204760385Y-124844809D01*
X204663156Y-124850160D01*
X204439045Y-124862494D01*
X204435318Y-124863155D01*
X204435314Y-124863155D01*
X204176625Y-124909001D01*
X204118429Y-124919315D01*
X204114804Y-124920420D01*
X204114799Y-124920421D01*
X203913196Y-124981866D01*
X203806961Y-125014244D01*
X203803497Y-125015775D01*
X203803490Y-125015778D01*
X203643636Y-125086449D01*
X203509153Y-125145903D01*
X203505899Y-125147839D01*
X203505893Y-125147842D01*
X203232578Y-125310447D01*
X203229319Y-125312386D01*
X203226318Y-125314701D01*
X203226314Y-125314704D01*
X203107221Y-125406584D01*
X202971513Y-125511282D01*
X202968812Y-125513941D01*
X202968805Y-125513947D01*
X202742177Y-125737044D01*
X202739469Y-125739710D01*
X202737105Y-125742677D01*
X202737102Y-125742680D01*
X202722613Y-125760863D01*
X202536548Y-125994360D01*
X202365690Y-126271544D01*
X202229369Y-126567247D01*
X202228210Y-126570848D01*
X202228207Y-126570854D01*
X202219682Y-126597327D01*
X202129560Y-126877185D01*
X202128841Y-126880901D01*
X202128839Y-126880909D01*
X202115872Y-126947934D01*
X202083295Y-127011015D01*
X202021784Y-127046469D01*
X201992166Y-127050000D01*
X157876000Y-127050000D01*
X157807879Y-127029998D01*
X157761386Y-126976342D01*
X157750000Y-126924000D01*
X157750000Y-120536665D01*
X203794994Y-120536665D01*
X203795510Y-120542809D01*
X203807981Y-120691317D01*
X203810592Y-120722414D01*
X203861971Y-120901595D01*
X203947176Y-121067385D01*
X204062959Y-121213468D01*
X204204912Y-121334279D01*
X204367627Y-121425217D01*
X204544907Y-121482819D01*
X204729998Y-121504890D01*
X204736133Y-121504418D01*
X204736135Y-121504418D01*
X204909710Y-121491062D01*
X204909715Y-121491061D01*
X204915851Y-121490589D01*
X204921781Y-121488933D01*
X204921783Y-121488933D01*
X205089459Y-121442117D01*
X205089458Y-121442117D01*
X205095387Y-121440462D01*
X205261768Y-121356417D01*
X205272432Y-121348086D01*
X205403794Y-121245454D01*
X205403795Y-121245453D01*
X205408655Y-121241656D01*
X205530454Y-121100550D01*
X205622526Y-120938474D01*
X205681364Y-120761601D01*
X205689253Y-120699157D01*
X205704285Y-120580170D01*
X205704286Y-120580163D01*
X205704727Y-120576668D01*
X205705099Y-120550000D01*
X205686909Y-120364487D01*
X205685128Y-120358588D01*
X205685127Y-120358583D01*
X205634814Y-120191939D01*
X205633033Y-120186040D01*
X205545522Y-120021456D01*
X205541632Y-120016686D01*
X205541629Y-120016682D01*
X205431605Y-119881780D01*
X205431602Y-119881777D01*
X205427710Y-119877005D01*
X205422056Y-119872327D01*
X205288834Y-119762116D01*
X205284085Y-119758187D01*
X205120116Y-119669529D01*
X205031082Y-119641969D01*
X204947936Y-119616231D01*
X204947933Y-119616230D01*
X204942049Y-119614409D01*
X204935924Y-119613765D01*
X204935923Y-119613765D01*
X204762796Y-119595568D01*
X204762795Y-119595568D01*
X204756668Y-119594924D01*
X204678549Y-119602033D01*
X204577171Y-119611259D01*
X204577168Y-119611260D01*
X204571032Y-119611818D01*
X204565122Y-119613557D01*
X204565119Y-119613558D01*
X204398129Y-119662707D01*
X204392214Y-119664448D01*
X204227023Y-119750807D01*
X204081752Y-119867608D01*
X203961935Y-120010401D01*
X203958971Y-120015793D01*
X203958968Y-120015797D01*
X203884256Y-120151699D01*
X203872135Y-120173746D01*
X203815772Y-120351424D01*
X203794994Y-120536665D01*
X157750000Y-120536665D01*
X157750000Y-117550000D01*
X203219196Y-117550000D01*
X203240281Y-117683126D01*
X203301472Y-117803220D01*
X203396780Y-117898528D01*
X203516874Y-117959719D01*
X203526663Y-117961269D01*
X203526665Y-117961270D01*
X203640207Y-117979253D01*
X203650000Y-117980804D01*
X203659793Y-117979253D01*
X203773335Y-117961270D01*
X203773337Y-117961269D01*
X203783126Y-117959719D01*
X203903220Y-117898528D01*
X203936681Y-117865067D01*
X203998993Y-117831041D01*
X204069808Y-117836106D01*
X204130358Y-117883887D01*
X204211594Y-118004780D01*
X204211597Y-118004783D01*
X204215830Y-118011083D01*
X204221442Y-118016190D01*
X204221445Y-118016193D01*
X204335612Y-118120077D01*
X204335616Y-118120080D01*
X204341233Y-118125191D01*
X204370643Y-118141159D01*
X204473897Y-118197221D01*
X204524218Y-118247303D01*
X204539475Y-118316641D01*
X204514823Y-118383220D01*
X204496568Y-118401260D01*
X204496780Y-118401472D01*
X204401472Y-118496780D01*
X204340281Y-118616874D01*
X204319196Y-118750000D01*
X204340281Y-118883126D01*
X204401472Y-119003220D01*
X204496780Y-119098528D01*
X204616874Y-119159719D01*
X204626663Y-119161269D01*
X204626665Y-119161270D01*
X204740207Y-119179253D01*
X204750000Y-119180804D01*
X204759793Y-119179253D01*
X204873335Y-119161270D01*
X204873337Y-119161269D01*
X204883126Y-119159719D01*
X205003220Y-119098528D01*
X205098528Y-119003220D01*
X205159719Y-118883126D01*
X205180804Y-118750000D01*
X205159719Y-118616874D01*
X205098528Y-118496780D01*
X205003220Y-118401472D01*
X205004228Y-118400464D01*
X204967288Y-118352558D01*
X204961214Y-118281822D01*
X204994348Y-118219031D01*
X205028088Y-118194283D01*
X205140498Y-118137747D01*
X205269423Y-118027634D01*
X205273852Y-118021471D01*
X205273857Y-118021465D01*
X205335352Y-117935886D01*
X205391346Y-117892238D01*
X205462050Y-117885792D01*
X205495770Y-117900511D01*
X205496780Y-117898528D01*
X205616874Y-117959719D01*
X205626663Y-117961269D01*
X205626665Y-117961270D01*
X205740207Y-117979253D01*
X205750000Y-117980804D01*
X205759793Y-117979253D01*
X205873335Y-117961270D01*
X205873337Y-117961269D01*
X205883126Y-117959719D01*
X206003220Y-117898528D01*
X206098528Y-117803220D01*
X206159719Y-117683126D01*
X206180804Y-117550000D01*
X206159719Y-117416874D01*
X206098528Y-117296780D01*
X206003220Y-117201472D01*
X205883126Y-117140281D01*
X205873337Y-117138731D01*
X205873335Y-117138730D01*
X205759793Y-117120747D01*
X205750000Y-117119196D01*
X205740207Y-117120747D01*
X205626665Y-117138730D01*
X205626663Y-117138731D01*
X205616874Y-117140281D01*
X205496780Y-117201472D01*
X205495275Y-117198518D01*
X205444542Y-117216623D01*
X205375389Y-117200546D01*
X205333502Y-117162196D01*
X205318441Y-117140281D01*
X205279312Y-117083349D01*
X205267514Y-117072837D01*
X205158392Y-116975612D01*
X205158388Y-116975610D01*
X205152721Y-116970560D01*
X205146011Y-116967007D01*
X205146005Y-116967003D01*
X205026683Y-116903825D01*
X204975840Y-116854272D01*
X204959858Y-116785098D01*
X204983812Y-116718264D01*
X205003398Y-116698706D01*
X205003220Y-116698528D01*
X205098528Y-116603220D01*
X205159719Y-116483126D01*
X205180804Y-116350000D01*
X205159719Y-116216874D01*
X205098528Y-116096780D01*
X205003220Y-116001472D01*
X204883126Y-115940281D01*
X204873337Y-115938731D01*
X204873335Y-115938730D01*
X204759793Y-115920747D01*
X204750000Y-115919196D01*
X204740207Y-115920747D01*
X204626665Y-115938730D01*
X204626663Y-115938731D01*
X204616874Y-115940281D01*
X204496780Y-116001472D01*
X204401472Y-116096780D01*
X204340281Y-116216874D01*
X204319196Y-116350000D01*
X204340281Y-116483126D01*
X204401472Y-116603220D01*
X204496780Y-116698528D01*
X204495665Y-116699643D01*
X204532280Y-116747123D01*
X204538357Y-116817859D01*
X204505227Y-116880652D01*
X204472656Y-116904806D01*
X204360117Y-116962892D01*
X204353369Y-116966375D01*
X204225604Y-117077831D01*
X204128113Y-117216547D01*
X204125465Y-117214686D01*
X204085956Y-117254838D01*
X204016706Y-117270489D01*
X203949988Y-117246217D01*
X203935585Y-117233837D01*
X203903220Y-117201472D01*
X203783126Y-117140281D01*
X203773337Y-117138731D01*
X203773335Y-117138730D01*
X203659793Y-117120747D01*
X203650000Y-117119196D01*
X203640207Y-117120747D01*
X203526665Y-117138730D01*
X203526663Y-117138731D01*
X203516874Y-117140281D01*
X203396780Y-117201472D01*
X203301472Y-117296780D01*
X203240281Y-117416874D01*
X203219196Y-117550000D01*
X157750000Y-117550000D01*
X157750000Y-112126000D01*
X157770002Y-112057879D01*
X157823658Y-112011386D01*
X157876000Y-112000000D01*
X174030000Y-112000000D01*
X174030000Y-87976500D01*
X174050002Y-87908379D01*
X174103658Y-87861886D01*
X174156000Y-87850500D01*
X202140496Y-87850500D01*
X202208617Y-87870502D01*
X202229591Y-87887405D01*
X204212595Y-89870409D01*
X204246621Y-89932721D01*
X204249500Y-89959504D01*
X204249500Y-113672366D01*
X204229498Y-113740487D01*
X204202453Y-113770562D01*
X204081752Y-113867608D01*
X203961935Y-114010401D01*
X203958971Y-114015793D01*
X203958968Y-114015797D01*
X203884256Y-114151699D01*
X203872135Y-114173746D01*
X203815772Y-114351424D01*
X203794994Y-114536665D01*
X203810592Y-114722414D01*
X203861971Y-114901595D01*
X203947176Y-115067385D01*
X204062959Y-115213468D01*
X204204912Y-115334279D01*
X204367627Y-115425217D01*
X204544907Y-115482819D01*
X204729998Y-115504890D01*
X204736133Y-115504418D01*
X204736135Y-115504418D01*
X204909710Y-115491062D01*
X204909715Y-115491061D01*
X204915851Y-115490589D01*
X204921781Y-115488933D01*
X204921783Y-115488933D01*
X205089459Y-115442117D01*
X205089458Y-115442117D01*
X205095387Y-115440462D01*
X205261768Y-115356417D01*
X205286255Y-115337286D01*
X205403794Y-115245454D01*
X205403795Y-115245453D01*
X205408655Y-115241656D01*
X205530454Y-115100550D01*
X205622526Y-114938474D01*
X205681364Y-114761601D01*
X205704727Y-114576668D01*
X205705099Y-114550000D01*
X205686909Y-114364487D01*
X205685128Y-114358588D01*
X205685127Y-114358583D01*
X205634814Y-114191939D01*
X205633033Y-114186040D01*
X205545522Y-114021456D01*
X205541632Y-114016686D01*
X205541629Y-114016682D01*
X205431605Y-113881780D01*
X205431602Y-113881777D01*
X205427710Y-113877005D01*
X205422961Y-113873076D01*
X205296184Y-113768196D01*
X205256446Y-113709362D01*
X205250500Y-113671112D01*
X205250500Y-89769520D01*
X205251755Y-89758291D01*
X205251171Y-89758244D01*
X205251891Y-89749297D01*
X205253872Y-89740541D01*
X205250742Y-89690090D01*
X205250500Y-89682289D01*
X205250500Y-89665086D01*
X205249865Y-89660650D01*
X205249864Y-89660639D01*
X205248907Y-89653958D01*
X205247876Y-89643897D01*
X205245553Y-89606453D01*
X205244997Y-89597491D01*
X205241948Y-89589045D01*
X205241175Y-89585313D01*
X205237521Y-89570655D01*
X205236454Y-89567008D01*
X205235182Y-89558123D01*
X205215931Y-89515782D01*
X205212119Y-89506419D01*
X205199378Y-89471125D01*
X205199378Y-89471124D01*
X205196330Y-89462682D01*
X205191032Y-89455430D01*
X205189252Y-89452083D01*
X205181609Y-89439002D01*
X205179574Y-89435820D01*
X205175860Y-89427651D01*
X205145505Y-89392423D01*
X205139215Y-89384502D01*
X205130809Y-89372995D01*
X205119344Y-89361530D01*
X205112986Y-89354683D01*
X205088164Y-89325876D01*
X205082303Y-89319074D01*
X205074769Y-89314190D01*
X205068006Y-89308291D01*
X205068059Y-89308230D01*
X205057506Y-89299692D01*
X203023409Y-87265595D01*
X202989383Y-87203283D01*
X202994448Y-87132468D01*
X203036995Y-87075632D01*
X203103515Y-87050821D01*
X203112504Y-87050500D01*
X242840496Y-87050500D01*
X242908617Y-87070502D01*
G37*
%TD.AperFunction*%
%TA.AperFunction,Conductor*%
G36*
X202057730Y-68070002D02*
G01*
X202104223Y-68123658D01*
X202113788Y-68154659D01*
X202115399Y-68164034D01*
X202115402Y-68164046D01*
X202116045Y-68167789D01*
X202117133Y-68171428D01*
X202117134Y-68171431D01*
X202140697Y-68250218D01*
X202209341Y-68479749D01*
X202339439Y-68778242D01*
X202504455Y-69058944D01*
X202506756Y-69061959D01*
X202699698Y-69314775D01*
X202699703Y-69314781D01*
X202701998Y-69317788D01*
X202929208Y-69551025D01*
X203182792Y-69755276D01*
X203459078Y-69927583D01*
X203754063Y-70065451D01*
X204063474Y-70166881D01*
X204382830Y-70230405D01*
X204386602Y-70230692D01*
X204386610Y-70230693D01*
X204703728Y-70254815D01*
X204703733Y-70254815D01*
X204707505Y-70255102D01*
X205032795Y-70240615D01*
X205353989Y-70187154D01*
X205666434Y-70095493D01*
X205965604Y-69966959D01*
X205968882Y-69965055D01*
X205968888Y-69965052D01*
X206132708Y-69869897D01*
X206247165Y-69803415D01*
X206507040Y-69607230D01*
X206741464Y-69381245D01*
X206743862Y-69378300D01*
X206944643Y-69131678D01*
X206944647Y-69131672D01*
X206947040Y-69128733D01*
X207120792Y-68853354D01*
X207260202Y-68559095D01*
X207363251Y-68250218D01*
X207383574Y-68150772D01*
X207416811Y-68088035D01*
X207478689Y-68053227D01*
X207507023Y-68050000D01*
X246100000Y-68050000D01*
X246100000Y-83681040D01*
X246066588Y-83752206D01*
X246049500Y-83861955D01*
X246049500Y-92180480D01*
X246048245Y-92191709D01*
X246048829Y-92191756D01*
X246048109Y-92200703D01*
X246046128Y-92209459D01*
X246046684Y-92218419D01*
X246049258Y-92259909D01*
X246049500Y-92267711D01*
X246049500Y-92284914D01*
X246050135Y-92289350D01*
X246050136Y-92289361D01*
X246051093Y-92296042D01*
X246052124Y-92306098D01*
X246055003Y-92352509D01*
X246058052Y-92360955D01*
X246058825Y-92364687D01*
X246062479Y-92379345D01*
X246063546Y-92382992D01*
X246064818Y-92391877D01*
X246084068Y-92434214D01*
X246087881Y-92443581D01*
X246100000Y-92477152D01*
X246100000Y-94049500D01*
X245009504Y-94049500D01*
X244941383Y-94029498D01*
X244920409Y-94012595D01*
X244187405Y-93279591D01*
X244153379Y-93217279D01*
X244150500Y-93190496D01*
X244150500Y-87169519D01*
X244151755Y-87158290D01*
X244151171Y-87158243D01*
X244151891Y-87149296D01*
X244153872Y-87140540D01*
X244150742Y-87090089D01*
X244150500Y-87082288D01*
X244150500Y-87065086D01*
X244148905Y-87053949D01*
X244147877Y-87043909D01*
X244145553Y-87006452D01*
X244144997Y-86997490D01*
X244141948Y-86989044D01*
X244141178Y-86985327D01*
X244137518Y-86970647D01*
X244136455Y-86967011D01*
X244135182Y-86958123D01*
X244115934Y-86915788D01*
X244112121Y-86906423D01*
X244099379Y-86871127D01*
X244099378Y-86871126D01*
X244096330Y-86862682D01*
X244091032Y-86855430D01*
X244089243Y-86852066D01*
X244081614Y-86839010D01*
X244079575Y-86835822D01*
X244075860Y-86827651D01*
X244070001Y-86820851D01*
X244069998Y-86820847D01*
X244045495Y-86792411D01*
X244039203Y-86784487D01*
X244033685Y-86776933D01*
X244033683Y-86776931D01*
X244030808Y-86772995D01*
X244019350Y-86761537D01*
X244012992Y-86754690D01*
X243988164Y-86725876D01*
X243982303Y-86719074D01*
X243974769Y-86714190D01*
X243968006Y-86708291D01*
X243968059Y-86708230D01*
X243957505Y-86699692D01*
X243503066Y-86245252D01*
X243496011Y-86236423D01*
X243495566Y-86236802D01*
X243489747Y-86229965D01*
X243484958Y-86222375D01*
X243447057Y-86188902D01*
X243441371Y-86183557D01*
X243429219Y-86171405D01*
X243425638Y-86168721D01*
X243425631Y-86168715D01*
X243420228Y-86164666D01*
X243412389Y-86158284D01*
X243384257Y-86133439D01*
X243384256Y-86133439D01*
X243377531Y-86127499D01*
X243369406Y-86123685D01*
X243366240Y-86121605D01*
X243353274Y-86113814D01*
X243349939Y-86111988D01*
X243342753Y-86106602D01*
X243334351Y-86103452D01*
X243334347Y-86103450D01*
X243299199Y-86090274D01*
X243289880Y-86086347D01*
X243289488Y-86086163D01*
X243247794Y-86066588D01*
X243238925Y-86065207D01*
X243235307Y-86064101D01*
X243220641Y-86060253D01*
X243216951Y-86059442D01*
X243208549Y-86056292D01*
X243199603Y-86055627D01*
X243199602Y-86055627D01*
X243162172Y-86052846D01*
X243152122Y-86051692D01*
X243138045Y-86049500D01*
X243121827Y-86049500D01*
X243112490Y-86049154D01*
X243097969Y-86048075D01*
X243065618Y-86045671D01*
X243056841Y-86047544D01*
X243047886Y-86048155D01*
X243047881Y-86048075D01*
X243034382Y-86049500D01*
X174156000Y-86049500D01*
X174087879Y-86029498D01*
X174041386Y-85975842D01*
X174030000Y-85923500D01*
X174030000Y-83050000D01*
X157876000Y-83050000D01*
X157807879Y-83029998D01*
X157761386Y-82976342D01*
X157750000Y-82924000D01*
X157750000Y-81350000D01*
X164119196Y-81350000D01*
X164140281Y-81483126D01*
X164201472Y-81603220D01*
X164296780Y-81698528D01*
X164416874Y-81759719D01*
X164426663Y-81761269D01*
X164426665Y-81761270D01*
X164540207Y-81779253D01*
X164550000Y-81780804D01*
X164559793Y-81779253D01*
X164673335Y-81761270D01*
X164673337Y-81761269D01*
X164683126Y-81759719D01*
X164803220Y-81698528D01*
X164898528Y-81603220D01*
X164959719Y-81483126D01*
X164980804Y-81350000D01*
X164978314Y-81334279D01*
X164961270Y-81226665D01*
X164961269Y-81226663D01*
X164959719Y-81216874D01*
X164898528Y-81096780D01*
X164803220Y-81001472D01*
X164683126Y-80940281D01*
X164673337Y-80938731D01*
X164673335Y-80938730D01*
X164559793Y-80920747D01*
X164550000Y-80919196D01*
X164540207Y-80920747D01*
X164426665Y-80938730D01*
X164426663Y-80938731D01*
X164416874Y-80940281D01*
X164296780Y-81001472D01*
X164201472Y-81096780D01*
X164140281Y-81216874D01*
X164138731Y-81226663D01*
X164138730Y-81226665D01*
X164121686Y-81334279D01*
X164119196Y-81350000D01*
X157750000Y-81350000D01*
X157750000Y-80536665D01*
X203794994Y-80536665D01*
X203810592Y-80722414D01*
X203861971Y-80901595D01*
X203947176Y-81067385D01*
X204062959Y-81213468D01*
X204204912Y-81334279D01*
X204210290Y-81337285D01*
X204210292Y-81337286D01*
X204237731Y-81352621D01*
X204367627Y-81425217D01*
X204544907Y-81482819D01*
X204729998Y-81504890D01*
X204736133Y-81504418D01*
X204736135Y-81504418D01*
X204909710Y-81491062D01*
X204909715Y-81491061D01*
X204915851Y-81490589D01*
X204921781Y-81488933D01*
X204921783Y-81488933D01*
X205089459Y-81442117D01*
X205089458Y-81442117D01*
X205095387Y-81440462D01*
X205261768Y-81356417D01*
X205269982Y-81350000D01*
X205403794Y-81245454D01*
X205403795Y-81245453D01*
X205408655Y-81241656D01*
X205530454Y-81100550D01*
X205536579Y-81089769D01*
X205586738Y-81001472D01*
X205622526Y-80938474D01*
X205681364Y-80761601D01*
X205704727Y-80576668D01*
X205705099Y-80550000D01*
X205686909Y-80364487D01*
X205685128Y-80358588D01*
X205685127Y-80358583D01*
X205634814Y-80191939D01*
X205633033Y-80186040D01*
X205545522Y-80021456D01*
X205541632Y-80016686D01*
X205541629Y-80016682D01*
X205431605Y-79881780D01*
X205431602Y-79881777D01*
X205427710Y-79877005D01*
X205422056Y-79872327D01*
X205288834Y-79762116D01*
X205284085Y-79758187D01*
X205120116Y-79669529D01*
X205031083Y-79641969D01*
X204947936Y-79616231D01*
X204947933Y-79616230D01*
X204942049Y-79614409D01*
X204935924Y-79613765D01*
X204935923Y-79613765D01*
X204762796Y-79595568D01*
X204762795Y-79595568D01*
X204756668Y-79594924D01*
X204678549Y-79602033D01*
X204577171Y-79611259D01*
X204577168Y-79611260D01*
X204571032Y-79611818D01*
X204565122Y-79613557D01*
X204565119Y-79613558D01*
X204398129Y-79662707D01*
X204392214Y-79664448D01*
X204227023Y-79750807D01*
X204081752Y-79867608D01*
X203961935Y-80010401D01*
X203958971Y-80015793D01*
X203958968Y-80015797D01*
X203884256Y-80151699D01*
X203872135Y-80173746D01*
X203815772Y-80351424D01*
X203794994Y-80536665D01*
X157750000Y-80536665D01*
X157750000Y-77550000D01*
X203419196Y-77550000D01*
X203440281Y-77683126D01*
X203501472Y-77803220D01*
X203596780Y-77898528D01*
X203716874Y-77959719D01*
X203726663Y-77961269D01*
X203726665Y-77961270D01*
X203840207Y-77979253D01*
X203850000Y-77980804D01*
X203859793Y-77979253D01*
X203973335Y-77961270D01*
X203973337Y-77961269D01*
X203983126Y-77959719D01*
X204031265Y-77935191D01*
X204101042Y-77922087D01*
X204166827Y-77948787D01*
X204193049Y-77977182D01*
X204209956Y-78002342D01*
X204215830Y-78011083D01*
X204221448Y-78016195D01*
X204335612Y-78120077D01*
X204335616Y-78120080D01*
X204341233Y-78125191D01*
X204370643Y-78141159D01*
X204473897Y-78197221D01*
X204524218Y-78247303D01*
X204539475Y-78316641D01*
X204514823Y-78383220D01*
X204496568Y-78401260D01*
X204496780Y-78401472D01*
X204401472Y-78496780D01*
X204340281Y-78616874D01*
X204319196Y-78750000D01*
X204340281Y-78883126D01*
X204401472Y-79003220D01*
X204496780Y-79098528D01*
X204616874Y-79159719D01*
X204626663Y-79161269D01*
X204626665Y-79161270D01*
X204740207Y-79179253D01*
X204750000Y-79180804D01*
X204759793Y-79179253D01*
X204873335Y-79161270D01*
X204873337Y-79161269D01*
X204883126Y-79159719D01*
X205003220Y-79098528D01*
X205098528Y-79003220D01*
X205159719Y-78883126D01*
X205180804Y-78750000D01*
X205159719Y-78616874D01*
X205098528Y-78496780D01*
X205003220Y-78401472D01*
X205004228Y-78400464D01*
X204967288Y-78352558D01*
X204961214Y-78281822D01*
X204994348Y-78219031D01*
X205028088Y-78194283D01*
X205140498Y-78137747D01*
X205269423Y-78027634D01*
X205308333Y-77973485D01*
X205364328Y-77929837D01*
X205435031Y-77923391D01*
X205467860Y-77934745D01*
X205508039Y-77955218D01*
X205508043Y-77955219D01*
X205516874Y-77959719D01*
X205526663Y-77961269D01*
X205526665Y-77961270D01*
X205640207Y-77979253D01*
X205650000Y-77980804D01*
X205659793Y-77979253D01*
X205773335Y-77961270D01*
X205773337Y-77961269D01*
X205783126Y-77959719D01*
X205903220Y-77898528D01*
X205998528Y-77803220D01*
X206059719Y-77683126D01*
X206080804Y-77550000D01*
X206059719Y-77416874D01*
X205998528Y-77296780D01*
X205903220Y-77201472D01*
X205783126Y-77140281D01*
X205773337Y-77138731D01*
X205773335Y-77138730D01*
X205659793Y-77120747D01*
X205650000Y-77119196D01*
X205640207Y-77120747D01*
X205526665Y-77138730D01*
X205526663Y-77138731D01*
X205516874Y-77140281D01*
X205508043Y-77144781D01*
X205508039Y-77144782D01*
X205468364Y-77164998D01*
X205398587Y-77178103D01*
X205332802Y-77151403D01*
X205307321Y-77124100D01*
X205283619Y-77089614D01*
X205283614Y-77089608D01*
X205279312Y-77083349D01*
X205233563Y-77042588D01*
X205158392Y-76975612D01*
X205158388Y-76975610D01*
X205152721Y-76970560D01*
X205146011Y-76967007D01*
X205146005Y-76967003D01*
X205026683Y-76903825D01*
X204975840Y-76854272D01*
X204959858Y-76785098D01*
X204983812Y-76718264D01*
X205003398Y-76698706D01*
X205003220Y-76698528D01*
X205098528Y-76603220D01*
X205159719Y-76483126D01*
X205180804Y-76350000D01*
X205159719Y-76216874D01*
X205098528Y-76096780D01*
X205003220Y-76001472D01*
X204883126Y-75940281D01*
X204873337Y-75938731D01*
X204873335Y-75938730D01*
X204759793Y-75920747D01*
X204750000Y-75919196D01*
X204740207Y-75920747D01*
X204626665Y-75938730D01*
X204626663Y-75938731D01*
X204616874Y-75940281D01*
X204496780Y-76001472D01*
X204401472Y-76096780D01*
X204340281Y-76216874D01*
X204319196Y-76350000D01*
X204340281Y-76483126D01*
X204401472Y-76603220D01*
X204496780Y-76698528D01*
X204495665Y-76699643D01*
X204532280Y-76747123D01*
X204538357Y-76817859D01*
X204505227Y-76880652D01*
X204472656Y-76904806D01*
X204360117Y-76962892D01*
X204353369Y-76966375D01*
X204225604Y-77077831D01*
X204221234Y-77084049D01*
X204192220Y-77125331D01*
X204136686Y-77169563D01*
X204066054Y-77176749D01*
X204031930Y-77165148D01*
X204004954Y-77151403D01*
X203983126Y-77140281D01*
X203973337Y-77138731D01*
X203973335Y-77138730D01*
X203859793Y-77120747D01*
X203850000Y-77119196D01*
X203840207Y-77120747D01*
X203726665Y-77138730D01*
X203726663Y-77138731D01*
X203716874Y-77140281D01*
X203596780Y-77201472D01*
X203501472Y-77296780D01*
X203440281Y-77416874D01*
X203419196Y-77550000D01*
X157750000Y-77550000D01*
X157750000Y-74536665D01*
X203794994Y-74536665D01*
X203810592Y-74722414D01*
X203861971Y-74901595D01*
X203947176Y-75067385D01*
X204062959Y-75213468D01*
X204204912Y-75334279D01*
X204367627Y-75425217D01*
X204544907Y-75482819D01*
X204729998Y-75504890D01*
X204736133Y-75504418D01*
X204736135Y-75504418D01*
X204909710Y-75491062D01*
X204909715Y-75491061D01*
X204915851Y-75490589D01*
X204921781Y-75488933D01*
X204921783Y-75488933D01*
X205089459Y-75442117D01*
X205089458Y-75442117D01*
X205095387Y-75440462D01*
X205261768Y-75356417D01*
X205286255Y-75337286D01*
X205403794Y-75245454D01*
X205403795Y-75245453D01*
X205408655Y-75241656D01*
X205530454Y-75100550D01*
X205622526Y-74938474D01*
X205681364Y-74761601D01*
X205704727Y-74576668D01*
X205705099Y-74550000D01*
X205686909Y-74364487D01*
X205685128Y-74358588D01*
X205685127Y-74358583D01*
X205634814Y-74191939D01*
X205633033Y-74186040D01*
X205545522Y-74021456D01*
X205541632Y-74016686D01*
X205541629Y-74016682D01*
X205431605Y-73881780D01*
X205431602Y-73881777D01*
X205427710Y-73877005D01*
X205422056Y-73872327D01*
X205288834Y-73762116D01*
X205284085Y-73758187D01*
X205120116Y-73669529D01*
X205031082Y-73641969D01*
X204947936Y-73616231D01*
X204947933Y-73616230D01*
X204942049Y-73614409D01*
X204935924Y-73613765D01*
X204935923Y-73613765D01*
X204762796Y-73595568D01*
X204762795Y-73595568D01*
X204756668Y-73594924D01*
X204678549Y-73602033D01*
X204577171Y-73611259D01*
X204577168Y-73611260D01*
X204571032Y-73611818D01*
X204565122Y-73613557D01*
X204565119Y-73613558D01*
X204398129Y-73662707D01*
X204392214Y-73664448D01*
X204227023Y-73750807D01*
X204081752Y-73867608D01*
X203961935Y-74010401D01*
X203958971Y-74015793D01*
X203958968Y-74015797D01*
X203884256Y-74151699D01*
X203872135Y-74173746D01*
X203815772Y-74351424D01*
X203794994Y-74536665D01*
X157750000Y-74536665D01*
X157750000Y-68176000D01*
X157770002Y-68107879D01*
X157823658Y-68061386D01*
X157876000Y-68050000D01*
X201989609Y-68050000D01*
X202057730Y-68070002D01*
G37*
%TD.AperFunction*%
%TD*%
%TA.AperFunction,Conductor*%
%TO.N,Net-(D10-Pad1)*%
G36*
X245492121Y-127570002D02*
G01*
X245538614Y-127623658D01*
X245550000Y-127676000D01*
X245550000Y-129924000D01*
X245529998Y-129992121D01*
X245476342Y-130038614D01*
X245424000Y-130050000D01*
X206290427Y-130050000D01*
X206222306Y-130029998D01*
X206175813Y-129976342D01*
X206165709Y-129906068D01*
X206195203Y-129841488D01*
X206227141Y-129815046D01*
X206231217Y-129812679D01*
X206247165Y-129803415D01*
X206507040Y-129607230D01*
X206741464Y-129381245D01*
X206743862Y-129378300D01*
X206944643Y-129131678D01*
X206944647Y-129131672D01*
X206947040Y-129128733D01*
X207120792Y-128853354D01*
X207260202Y-128559095D01*
X207363251Y-128250218D01*
X207428446Y-127931199D01*
X207450034Y-127665785D01*
X207475492Y-127599510D01*
X207532741Y-127557520D01*
X207575619Y-127550000D01*
X245424000Y-127550000D01*
X245492121Y-127570002D01*
G37*
%TD.AperFunction*%
%TA.AperFunction,Conductor*%
G36*
X201994360Y-127570002D02*
G01*
X202040853Y-127623658D01*
X202052083Y-127669735D01*
X202060902Y-127846879D01*
X202061543Y-127850610D01*
X202061544Y-127850618D01*
X202076030Y-127934916D01*
X202116045Y-128167789D01*
X202117133Y-128171428D01*
X202117134Y-128171431D01*
X202140697Y-128250218D01*
X202209341Y-128479749D01*
X202339439Y-128778242D01*
X202504455Y-129058944D01*
X202506756Y-129061959D01*
X202699698Y-129314775D01*
X202699703Y-129314781D01*
X202701998Y-129317788D01*
X202929208Y-129551025D01*
X203182792Y-129755276D01*
X203281908Y-129817090D01*
X203329122Y-129870107D01*
X203340178Y-129940238D01*
X203311564Y-130005213D01*
X203252364Y-130044403D01*
X203215229Y-130050000D01*
X158790427Y-130050000D01*
X158722306Y-130029998D01*
X158675813Y-129976342D01*
X158665709Y-129906068D01*
X158695203Y-129841488D01*
X158727141Y-129815046D01*
X158731217Y-129812679D01*
X158747165Y-129803415D01*
X159007040Y-129607230D01*
X159241464Y-129381245D01*
X159243862Y-129378300D01*
X159444643Y-129131678D01*
X159444647Y-129131672D01*
X159447040Y-129128733D01*
X159620792Y-128853354D01*
X159760202Y-128559095D01*
X159863251Y-128250218D01*
X159928446Y-127931199D01*
X159950034Y-127665785D01*
X159975492Y-127599510D01*
X160032741Y-127557520D01*
X160075619Y-127550000D01*
X201926239Y-127550000D01*
X201994360Y-127570002D01*
G37*
%TD.AperFunction*%
%TA.AperFunction,Conductor*%
G36*
X154958512Y-68993836D02*
G01*
X154984621Y-69025205D01*
X155004455Y-69058944D01*
X155006756Y-69061959D01*
X155199698Y-69314775D01*
X155199703Y-69314781D01*
X155201998Y-69317788D01*
X155429208Y-69551025D01*
X155682792Y-69755276D01*
X155959078Y-69927583D01*
X156254063Y-70065451D01*
X156563474Y-70166881D01*
X156882830Y-70230405D01*
X156886602Y-70230692D01*
X156886610Y-70230693D01*
X157133557Y-70249477D01*
X157199964Y-70274588D01*
X157242254Y-70331616D01*
X157250000Y-70375114D01*
X157250000Y-124726124D01*
X157229998Y-124794245D01*
X157176342Y-124840738D01*
X157130924Y-124851934D01*
X156939045Y-124862494D01*
X156935318Y-124863155D01*
X156935314Y-124863155D01*
X156676625Y-124909001D01*
X156618429Y-124919315D01*
X156614804Y-124920420D01*
X156614799Y-124920421D01*
X156413196Y-124981866D01*
X156306961Y-125014244D01*
X156303497Y-125015775D01*
X156303490Y-125015778D01*
X156127268Y-125093685D01*
X156009153Y-125145903D01*
X156005899Y-125147839D01*
X156005893Y-125147842D01*
X155853983Y-125238219D01*
X155729319Y-125312386D01*
X155726318Y-125314701D01*
X155726314Y-125314704D01*
X155567282Y-125437397D01*
X155471513Y-125511282D01*
X155468812Y-125513941D01*
X155468805Y-125513947D01*
X155452480Y-125530018D01*
X155239469Y-125739710D01*
X155036548Y-125994360D01*
X155034557Y-125997590D01*
X154983260Y-126080809D01*
X154930488Y-126128302D01*
X154860416Y-126139726D01*
X154795292Y-126111452D01*
X154755793Y-126052458D01*
X154750000Y-126014693D01*
X154750000Y-69089060D01*
X154770002Y-69020939D01*
X154823658Y-68974446D01*
X154893932Y-68964342D01*
X154958512Y-68993836D01*
G37*
%TD.AperFunction*%
%TA.AperFunction,Conductor*%
G36*
X245492121Y-65070002D02*
G01*
X245538614Y-65123658D01*
X245550000Y-65176000D01*
X245550000Y-67424000D01*
X245529998Y-67492121D01*
X245476342Y-67538614D01*
X245424000Y-67550000D01*
X207574069Y-67550000D01*
X207505948Y-67529998D01*
X207459455Y-67476342D01*
X207448297Y-67431583D01*
X207436069Y-67228755D01*
X207436069Y-67228751D01*
X207435841Y-67224977D01*
X207431399Y-67200651D01*
X207378025Y-66908404D01*
X207377342Y-66904663D01*
X207280784Y-66593696D01*
X207147567Y-66296582D01*
X206979621Y-66017624D01*
X206977294Y-66014640D01*
X206977289Y-66014633D01*
X206781713Y-65763858D01*
X206781711Y-65763856D01*
X206779377Y-65760863D01*
X206549738Y-65530018D01*
X206294029Y-65328433D01*
X206220444Y-65283605D01*
X206172675Y-65231082D01*
X206160884Y-65161072D01*
X206188817Y-65095801D01*
X206247603Y-65055992D01*
X206285997Y-65050000D01*
X245424000Y-65050000D01*
X245492121Y-65070002D01*
G37*
%TD.AperFunction*%
%TA.AperFunction,Conductor*%
G36*
X203280251Y-65070002D02*
G01*
X203326744Y-65123658D01*
X203336848Y-65193932D01*
X203307354Y-65258512D01*
X203276552Y-65284285D01*
X203232585Y-65310442D01*
X203232574Y-65310450D01*
X203229319Y-65312386D01*
X202971513Y-65511282D01*
X202968812Y-65513941D01*
X202968805Y-65513947D01*
X202742177Y-65737044D01*
X202739469Y-65739710D01*
X202737105Y-65742677D01*
X202737102Y-65742680D01*
X202722613Y-65760863D01*
X202536548Y-65994360D01*
X202365690Y-66271544D01*
X202229369Y-66567247D01*
X202228210Y-66570848D01*
X202228207Y-66570854D01*
X202219682Y-66597327D01*
X202129560Y-66877185D01*
X202128841Y-66880901D01*
X202128839Y-66880909D01*
X202068428Y-67193151D01*
X202068427Y-67193160D01*
X202067709Y-67196870D01*
X202067442Y-67200646D01*
X202067441Y-67200651D01*
X202050997Y-67432899D01*
X202026234Y-67499437D01*
X201969429Y-67542024D01*
X201925312Y-67550000D01*
X160074069Y-67550000D01*
X160005948Y-67529998D01*
X159959455Y-67476342D01*
X159948297Y-67431583D01*
X159936069Y-67228755D01*
X159936069Y-67228751D01*
X159935841Y-67224977D01*
X159931399Y-67200651D01*
X159878025Y-66908404D01*
X159877342Y-66904663D01*
X159780784Y-66593696D01*
X159647567Y-66296582D01*
X159479621Y-66017624D01*
X159477294Y-66014640D01*
X159477289Y-66014633D01*
X159281713Y-65763858D01*
X159281711Y-65763856D01*
X159279377Y-65760863D01*
X159049738Y-65530018D01*
X158794029Y-65328433D01*
X158720444Y-65283605D01*
X158672675Y-65231082D01*
X158660884Y-65161072D01*
X158688817Y-65095801D01*
X158747603Y-65055992D01*
X158785997Y-65050000D01*
X203212130Y-65050000D01*
X203280251Y-65070002D01*
G37*
%TD.AperFunction*%
%TD*%
%TA.AperFunction,Conductor*%
%TO.N,WS_GNDBUS*%
G36*
X173362121Y-83570002D02*
G01*
X173408614Y-83623658D01*
X173420000Y-83676000D01*
X173420000Y-85923500D01*
X173399998Y-85991621D01*
X173346342Y-86038114D01*
X173294000Y-86049500D01*
X160959520Y-86049500D01*
X160948291Y-86048245D01*
X160948244Y-86048829D01*
X160939297Y-86048109D01*
X160930541Y-86046128D01*
X160880091Y-86049258D01*
X160872289Y-86049500D01*
X160855086Y-86049500D01*
X160850650Y-86050135D01*
X160850639Y-86050136D01*
X160843958Y-86051093D01*
X160833902Y-86052124D01*
X160787491Y-86055003D01*
X160779045Y-86058052D01*
X160775313Y-86058825D01*
X160760655Y-86062479D01*
X160757008Y-86063546D01*
X160748123Y-86064818D01*
X160705786Y-86084068D01*
X160696419Y-86087881D01*
X160652682Y-86103670D01*
X160645430Y-86108968D01*
X160642083Y-86110748D01*
X160629002Y-86118391D01*
X160625820Y-86120426D01*
X160617651Y-86124140D01*
X160610852Y-86129998D01*
X160610851Y-86129999D01*
X160582424Y-86154494D01*
X160574509Y-86160780D01*
X160562995Y-86169191D01*
X160551530Y-86180656D01*
X160544683Y-86187014D01*
X160509074Y-86217697D01*
X160504190Y-86225231D01*
X160498291Y-86231994D01*
X160498230Y-86231941D01*
X160489692Y-86242494D01*
X159770252Y-86961934D01*
X159761422Y-86968989D01*
X159761802Y-86969436D01*
X159754971Y-86975250D01*
X159747375Y-86980042D01*
X159741432Y-86986771D01*
X159741431Y-86986772D01*
X159713903Y-87017942D01*
X159708557Y-87023629D01*
X159696405Y-87035781D01*
X159693721Y-87039362D01*
X159693715Y-87039369D01*
X159689666Y-87044772D01*
X159683284Y-87052611D01*
X159658439Y-87080743D01*
X159652499Y-87087469D01*
X159648685Y-87095594D01*
X159646605Y-87098760D01*
X159638814Y-87111726D01*
X159636988Y-87115061D01*
X159631602Y-87122247D01*
X159628452Y-87130649D01*
X159628450Y-87130653D01*
X159615274Y-87165801D01*
X159611348Y-87175118D01*
X159591588Y-87217206D01*
X159590207Y-87226075D01*
X159589101Y-87229693D01*
X159585253Y-87244359D01*
X159584442Y-87248049D01*
X159581292Y-87256451D01*
X159580627Y-87265397D01*
X159580627Y-87265398D01*
X159577846Y-87302828D01*
X159576692Y-87312877D01*
X159574500Y-87326955D01*
X159574500Y-87343173D01*
X159574154Y-87352510D01*
X159570671Y-87399382D01*
X159572544Y-87408159D01*
X159573155Y-87417114D01*
X159573075Y-87417119D01*
X159574500Y-87430618D01*
X159574500Y-87540696D01*
X159554498Y-87608817D01*
X159518502Y-87645461D01*
X159504690Y-87654690D01*
X159497797Y-87665006D01*
X159467036Y-87711042D01*
X159467035Y-87711044D01*
X159460143Y-87721359D01*
X159444500Y-87800000D01*
X159444500Y-89400000D01*
X159460143Y-89478641D01*
X159467035Y-89488956D01*
X159467036Y-89488958D01*
X159497797Y-89534994D01*
X159504690Y-89545310D01*
X159515006Y-89552203D01*
X159561042Y-89582964D01*
X159561044Y-89582965D01*
X159571359Y-89589857D01*
X159583526Y-89592277D01*
X159583528Y-89592278D01*
X159625169Y-89600561D01*
X159650000Y-89605500D01*
X160500000Y-89605500D01*
X160524831Y-89600561D01*
X160566472Y-89592278D01*
X160566474Y-89592277D01*
X160578641Y-89589857D01*
X160588956Y-89582965D01*
X160588958Y-89582964D01*
X160634994Y-89552203D01*
X160645310Y-89545310D01*
X160652203Y-89534994D01*
X160682964Y-89488958D01*
X160682965Y-89488956D01*
X160689857Y-89478641D01*
X160705500Y-89400000D01*
X160705500Y-87800000D01*
X160689857Y-87721359D01*
X160682965Y-87711044D01*
X160682964Y-87711042D01*
X160645310Y-87654690D01*
X160647696Y-87653096D01*
X160622575Y-87607092D01*
X160627640Y-87536277D01*
X160656600Y-87491214D01*
X161060410Y-87087404D01*
X161122721Y-87053380D01*
X161149504Y-87050500D01*
X161414842Y-87050500D01*
X161482963Y-87070502D01*
X161529456Y-87124158D01*
X161539560Y-87194432D01*
X161510066Y-87259012D01*
X161501676Y-87267328D01*
X161497375Y-87270042D01*
X161463962Y-87307875D01*
X161463903Y-87307942D01*
X161458557Y-87313629D01*
X161446405Y-87325781D01*
X161443721Y-87329362D01*
X161443715Y-87329369D01*
X161439666Y-87334772D01*
X161433284Y-87342611D01*
X161402499Y-87377469D01*
X161398685Y-87385594D01*
X161396605Y-87388760D01*
X161388814Y-87401726D01*
X161386988Y-87405061D01*
X161381602Y-87412247D01*
X161378452Y-87420649D01*
X161378450Y-87420653D01*
X161365274Y-87455801D01*
X161361348Y-87465118D01*
X161341588Y-87507206D01*
X161340207Y-87516075D01*
X161339101Y-87519693D01*
X161335254Y-87534355D01*
X161334442Y-87538048D01*
X161331292Y-87546451D01*
X161330627Y-87555399D01*
X161329004Y-87562781D01*
X161294840Y-87625017D01*
X161275951Y-87640484D01*
X161254690Y-87654690D01*
X161247797Y-87665006D01*
X161217036Y-87711042D01*
X161217035Y-87711044D01*
X161210143Y-87721359D01*
X161194500Y-87800000D01*
X161194500Y-89400000D01*
X161210143Y-89478641D01*
X161217035Y-89488956D01*
X161217036Y-89488958D01*
X161247797Y-89534994D01*
X161254690Y-89545310D01*
X161265006Y-89552203D01*
X161268502Y-89554539D01*
X161314030Y-89609016D01*
X161324500Y-89659304D01*
X161324500Y-89705480D01*
X161323245Y-89716709D01*
X161323829Y-89716756D01*
X161323109Y-89725703D01*
X161321128Y-89734459D01*
X161321684Y-89743419D01*
X161324258Y-89784909D01*
X161324500Y-89792711D01*
X161324500Y-89809914D01*
X161325135Y-89814350D01*
X161325136Y-89814361D01*
X161326093Y-89821042D01*
X161327124Y-89831098D01*
X161330003Y-89877509D01*
X161333052Y-89885955D01*
X161333825Y-89889687D01*
X161337479Y-89904345D01*
X161338546Y-89907992D01*
X161339818Y-89916877D01*
X161359068Y-89959214D01*
X161362881Y-89968581D01*
X161378670Y-90012318D01*
X161383968Y-90019570D01*
X161385748Y-90022917D01*
X161393391Y-90035998D01*
X161395426Y-90039180D01*
X161399140Y-90047349D01*
X161404998Y-90054148D01*
X161404999Y-90054149D01*
X161429494Y-90082576D01*
X161435780Y-90090491D01*
X161444191Y-90102005D01*
X161455656Y-90113470D01*
X161462014Y-90120317D01*
X161492697Y-90155926D01*
X161500231Y-90160810D01*
X161506994Y-90166709D01*
X161506941Y-90166770D01*
X161517494Y-90175308D01*
X162221591Y-90879405D01*
X162255617Y-90941717D01*
X162250552Y-91012532D01*
X162208005Y-91069368D01*
X162141485Y-91094179D01*
X162132496Y-91094500D01*
X161400000Y-91094500D01*
X161383028Y-91097876D01*
X161333528Y-91107722D01*
X161333526Y-91107723D01*
X161321359Y-91110143D01*
X161311044Y-91117035D01*
X161311042Y-91117036D01*
X161294450Y-91128123D01*
X161254690Y-91154690D01*
X161247797Y-91165006D01*
X161217036Y-91211042D01*
X161217035Y-91211044D01*
X161210143Y-91221359D01*
X161207723Y-91233526D01*
X161207722Y-91233528D01*
X161203215Y-91256189D01*
X161194500Y-91300000D01*
X161194500Y-92900000D01*
X161210143Y-92978641D01*
X161217035Y-92988956D01*
X161217036Y-92988958D01*
X161247561Y-93034641D01*
X161254690Y-93045310D01*
X161265006Y-93052203D01*
X161311042Y-93082964D01*
X161311044Y-93082965D01*
X161321359Y-93089857D01*
X161344179Y-93094396D01*
X161348083Y-93095173D01*
X161410993Y-93128082D01*
X161446123Y-93189778D01*
X161449500Y-93218752D01*
X161449500Y-96431918D01*
X161429498Y-96500039D01*
X161412595Y-96521013D01*
X159836692Y-98096916D01*
X159836668Y-98096937D01*
X159836653Y-98096944D01*
X159746944Y-98186653D01*
X159742440Y-98195493D01*
X159736958Y-98206252D01*
X159726632Y-98223104D01*
X159713697Y-98240907D01*
X159706898Y-98261832D01*
X159699334Y-98280093D01*
X159689347Y-98299694D01*
X159685904Y-98321429D01*
X159681291Y-98340641D01*
X159674493Y-98361566D01*
X159674493Y-98488434D01*
X159674498Y-98488449D01*
X159674500Y-98488479D01*
X159674500Y-101886221D01*
X159654498Y-101954342D01*
X159600842Y-102000835D01*
X159594905Y-102002753D01*
X159594996Y-102002972D01*
X159583527Y-102007723D01*
X159571359Y-102010143D01*
X159561044Y-102017035D01*
X159561042Y-102017036D01*
X159518502Y-102045461D01*
X159504690Y-102054690D01*
X159497797Y-102065006D01*
X159467036Y-102111042D01*
X159467035Y-102111044D01*
X159460143Y-102121359D01*
X159444500Y-102200000D01*
X159444500Y-103800000D01*
X159460143Y-103878641D01*
X159467035Y-103888956D01*
X159467036Y-103888958D01*
X159497797Y-103934994D01*
X159504690Y-103945310D01*
X159515006Y-103952203D01*
X159561042Y-103982964D01*
X159561044Y-103982965D01*
X159571359Y-103989857D01*
X159583526Y-103992277D01*
X159583528Y-103992278D01*
X159625169Y-104000561D01*
X159650000Y-104005500D01*
X160500000Y-104005500D01*
X160524831Y-104000561D01*
X160566472Y-103992278D01*
X160566474Y-103992277D01*
X160578641Y-103989857D01*
X160588956Y-103982965D01*
X160588958Y-103982964D01*
X160634994Y-103952203D01*
X160645310Y-103945310D01*
X160652203Y-103934994D01*
X160682964Y-103888958D01*
X160682965Y-103888956D01*
X160689857Y-103878641D01*
X160705500Y-103800000D01*
X160705500Y-102200000D01*
X160689857Y-102121359D01*
X160682965Y-102111044D01*
X160682964Y-102111042D01*
X160652203Y-102065006D01*
X160645310Y-102054690D01*
X160631498Y-102045461D01*
X160588958Y-102017036D01*
X160588956Y-102017035D01*
X160578641Y-102010143D01*
X160566473Y-102007723D01*
X160555004Y-102002972D01*
X160556581Y-101999164D01*
X160513995Y-101976879D01*
X160478873Y-101915179D01*
X160475500Y-101886221D01*
X160475500Y-98643082D01*
X160495502Y-98574961D01*
X160512405Y-98553987D01*
X162088308Y-96978084D01*
X162088332Y-96978063D01*
X162088347Y-96978056D01*
X162178056Y-96888347D01*
X162188042Y-96868748D01*
X162198368Y-96851896D01*
X162211303Y-96834093D01*
X162218102Y-96813168D01*
X162225666Y-96794907D01*
X162231152Y-96784140D01*
X162231152Y-96784139D01*
X162235653Y-96775306D01*
X162239096Y-96753571D01*
X162243709Y-96734357D01*
X162247443Y-96722865D01*
X162247443Y-96722864D01*
X162250507Y-96713434D01*
X162250507Y-96586566D01*
X162250502Y-96586551D01*
X162250500Y-96586521D01*
X162250500Y-93203794D01*
X162270502Y-93135673D01*
X162324288Y-93090723D01*
X162328641Y-93089857D01*
X162395310Y-93045310D01*
X162402439Y-93034641D01*
X162432964Y-92988958D01*
X162432965Y-92988956D01*
X162439857Y-92978641D01*
X162455500Y-92900000D01*
X162455500Y-91417504D01*
X162475502Y-91349383D01*
X162529158Y-91302890D01*
X162599432Y-91292786D01*
X162664012Y-91322280D01*
X162670595Y-91328409D01*
X162782595Y-91440409D01*
X162816621Y-91502721D01*
X162819500Y-91529504D01*
X162819500Y-97030496D01*
X162799498Y-97098617D01*
X162782595Y-97119591D01*
X161520252Y-98381934D01*
X161511422Y-98388989D01*
X161511802Y-98389436D01*
X161504971Y-98395250D01*
X161497375Y-98400042D01*
X161491432Y-98406771D01*
X161491431Y-98406772D01*
X161463903Y-98437942D01*
X161458557Y-98443629D01*
X161446405Y-98455781D01*
X161443721Y-98459362D01*
X161443715Y-98459369D01*
X161439666Y-98464772D01*
X161433284Y-98472611D01*
X161419270Y-98488479D01*
X161402499Y-98507469D01*
X161398685Y-98515594D01*
X161396605Y-98518760D01*
X161388814Y-98531726D01*
X161386988Y-98535061D01*
X161381602Y-98542247D01*
X161378452Y-98550649D01*
X161378450Y-98550653D01*
X161365274Y-98585801D01*
X161361348Y-98595118D01*
X161341588Y-98637206D01*
X161340207Y-98646075D01*
X161339101Y-98649693D01*
X161335253Y-98664359D01*
X161334442Y-98668049D01*
X161331292Y-98676451D01*
X161330627Y-98685397D01*
X161330627Y-98685398D01*
X161327846Y-98722828D01*
X161326692Y-98732877D01*
X161324500Y-98746955D01*
X161324500Y-98763173D01*
X161324154Y-98772510D01*
X161320671Y-98819382D01*
X161322544Y-98828159D01*
X161323155Y-98837114D01*
X161323075Y-98837119D01*
X161324500Y-98850618D01*
X161324500Y-101940696D01*
X161304498Y-102008817D01*
X161268502Y-102045461D01*
X161254690Y-102054690D01*
X161247797Y-102065006D01*
X161217036Y-102111042D01*
X161217035Y-102111044D01*
X161210143Y-102121359D01*
X161194500Y-102200000D01*
X161194500Y-103800000D01*
X161210143Y-103878641D01*
X161217035Y-103888956D01*
X161217036Y-103888958D01*
X161247797Y-103934994D01*
X161254690Y-103945310D01*
X161265006Y-103952203D01*
X161311042Y-103982964D01*
X161311044Y-103982965D01*
X161321359Y-103989857D01*
X161333526Y-103992277D01*
X161333528Y-103992278D01*
X161375169Y-104000561D01*
X161400000Y-104005500D01*
X162250000Y-104005500D01*
X162274831Y-104000561D01*
X162316472Y-103992278D01*
X162316474Y-103992277D01*
X162328641Y-103989857D01*
X162338956Y-103982965D01*
X162338958Y-103982964D01*
X162384994Y-103952203D01*
X162395310Y-103945310D01*
X162402203Y-103934994D01*
X162432964Y-103888958D01*
X162432965Y-103888956D01*
X162439857Y-103878641D01*
X162455500Y-103800000D01*
X162455500Y-102200000D01*
X162439857Y-102121359D01*
X162432965Y-102111044D01*
X162432964Y-102111042D01*
X162402203Y-102065006D01*
X162395310Y-102054690D01*
X162381498Y-102045461D01*
X162335970Y-101990984D01*
X162325500Y-101940696D01*
X162325500Y-99044504D01*
X162345502Y-98976383D01*
X162362405Y-98955409D01*
X163624748Y-97693066D01*
X163633578Y-97686011D01*
X163633198Y-97685564D01*
X163640029Y-97679750D01*
X163647625Y-97674958D01*
X163681098Y-97637057D01*
X163686443Y-97631371D01*
X163698595Y-97619219D01*
X163705332Y-97610229D01*
X163711713Y-97602392D01*
X163736558Y-97574260D01*
X163742501Y-97567531D01*
X163746316Y-97559405D01*
X163748390Y-97556248D01*
X163756189Y-97543269D01*
X163758014Y-97539936D01*
X163763397Y-97532753D01*
X163779719Y-97489216D01*
X163783644Y-97479902D01*
X163799597Y-97445921D01*
X163799598Y-97445918D01*
X163803412Y-97437794D01*
X163804793Y-97428924D01*
X163805907Y-97425280D01*
X163809743Y-97410656D01*
X163810557Y-97406954D01*
X163813708Y-97398549D01*
X163817154Y-97352173D01*
X163818308Y-97342125D01*
X163819750Y-97332862D01*
X163819750Y-97332861D01*
X163820500Y-97328045D01*
X163820500Y-97311828D01*
X163820846Y-97302491D01*
X163823664Y-97264567D01*
X163824329Y-97255619D01*
X163822456Y-97246843D01*
X163821845Y-97237886D01*
X163821925Y-97237881D01*
X163820500Y-97224382D01*
X163820500Y-91339519D01*
X163821755Y-91328290D01*
X163821171Y-91328243D01*
X163821891Y-91319296D01*
X163823872Y-91310540D01*
X163820742Y-91260089D01*
X163820500Y-91252288D01*
X163820500Y-91235086D01*
X163819865Y-91230650D01*
X163819864Y-91230639D01*
X163818907Y-91223958D01*
X163817876Y-91213897D01*
X163815553Y-91176453D01*
X163814997Y-91167491D01*
X163811948Y-91159045D01*
X163811175Y-91155313D01*
X163807521Y-91140655D01*
X163806454Y-91137008D01*
X163805182Y-91128123D01*
X163785931Y-91085782D01*
X163782119Y-91076419D01*
X163769378Y-91041125D01*
X163769378Y-91041124D01*
X163766330Y-91032682D01*
X163761032Y-91025430D01*
X163759252Y-91022083D01*
X163751609Y-91009002D01*
X163749574Y-91005820D01*
X163745860Y-90997651D01*
X163715505Y-90962423D01*
X163709215Y-90954502D01*
X163700809Y-90942995D01*
X163689344Y-90931530D01*
X163682986Y-90924683D01*
X163658164Y-90895876D01*
X163652303Y-90889074D01*
X163644769Y-90884190D01*
X163638006Y-90878291D01*
X163638059Y-90878230D01*
X163627506Y-90869692D01*
X162431504Y-89673690D01*
X162397478Y-89611378D01*
X162402543Y-89540563D01*
X162415835Y-89514592D01*
X162432963Y-89488958D01*
X162439857Y-89478641D01*
X162455500Y-89400000D01*
X162455500Y-87976500D01*
X162475502Y-87908379D01*
X162529158Y-87861886D01*
X162581500Y-87850500D01*
X173294000Y-87850500D01*
X173362121Y-87870502D01*
X173408614Y-87924158D01*
X173420000Y-87976500D01*
X173420000Y-111424000D01*
X173399998Y-111492121D01*
X173346342Y-111538614D01*
X173294000Y-111550000D01*
X157876000Y-111550000D01*
X157807879Y-111529998D01*
X157761386Y-111476342D01*
X157750000Y-111424000D01*
X157750000Y-110050000D01*
X164119196Y-110050000D01*
X164140281Y-110183126D01*
X164201472Y-110303220D01*
X164296780Y-110398528D01*
X164416874Y-110459719D01*
X164426663Y-110461269D01*
X164426665Y-110461270D01*
X164540207Y-110479253D01*
X164550000Y-110480804D01*
X164559793Y-110479253D01*
X164673335Y-110461270D01*
X164673337Y-110461269D01*
X164683126Y-110459719D01*
X164803220Y-110398528D01*
X164898528Y-110303220D01*
X164959719Y-110183126D01*
X164980804Y-110050000D01*
X164959719Y-109916874D01*
X164898528Y-109796780D01*
X164803220Y-109701472D01*
X164683126Y-109640281D01*
X164673337Y-109638731D01*
X164673335Y-109638730D01*
X164559793Y-109620747D01*
X164550000Y-109619196D01*
X164540207Y-109620747D01*
X164426665Y-109638730D01*
X164426663Y-109638731D01*
X164416874Y-109640281D01*
X164296780Y-109701472D01*
X164201472Y-109796780D01*
X164140281Y-109916874D01*
X164119196Y-110050000D01*
X157750000Y-110050000D01*
X157750000Y-106767548D01*
X159445000Y-106767548D01*
X159445000Y-107293813D01*
X159446207Y-107306067D01*
X159458184Y-107366279D01*
X159467499Y-107388768D01*
X159498150Y-107434641D01*
X159515359Y-107451850D01*
X159561232Y-107482501D01*
X159583721Y-107491816D01*
X159643933Y-107503793D01*
X159656187Y-107505000D01*
X159802885Y-107505000D01*
X159818124Y-107500525D01*
X159819329Y-107499135D01*
X159821000Y-107491452D01*
X159821000Y-106772115D01*
X159819659Y-106767548D01*
X160329000Y-106767548D01*
X160329000Y-107486885D01*
X160333475Y-107502124D01*
X160334865Y-107503329D01*
X160342548Y-107505000D01*
X160493813Y-107505000D01*
X160506067Y-107503793D01*
X160566279Y-107491816D01*
X160588768Y-107482501D01*
X160634641Y-107451850D01*
X160651850Y-107434641D01*
X160682501Y-107388768D01*
X160691816Y-107366279D01*
X160703793Y-107306067D01*
X160705000Y-107293813D01*
X160705000Y-106772115D01*
X160700525Y-106756876D01*
X160699135Y-106755671D01*
X160691452Y-106754000D01*
X160347115Y-106754000D01*
X160331876Y-106758475D01*
X160330671Y-106759865D01*
X160329000Y-106767548D01*
X159819659Y-106767548D01*
X159816525Y-106756876D01*
X159815135Y-106755671D01*
X159807452Y-106754000D01*
X159463115Y-106754000D01*
X159447876Y-106758475D01*
X159446671Y-106759865D01*
X159445000Y-106767548D01*
X157750000Y-106767548D01*
X157750000Y-105706187D01*
X159445000Y-105706187D01*
X159445000Y-106227885D01*
X159449475Y-106243124D01*
X159450865Y-106244329D01*
X159458548Y-106246000D01*
X159802885Y-106246000D01*
X159818124Y-106241525D01*
X159819329Y-106240135D01*
X159821000Y-106232452D01*
X159821000Y-105513115D01*
X159819659Y-105508548D01*
X160329000Y-105508548D01*
X160329000Y-106227885D01*
X160333475Y-106243124D01*
X160334865Y-106244329D01*
X160342548Y-106246000D01*
X160686885Y-106246000D01*
X160702124Y-106241525D01*
X160703329Y-106240135D01*
X160705000Y-106232452D01*
X160705000Y-105706187D01*
X160704391Y-105700000D01*
X161194500Y-105700000D01*
X161194500Y-107300000D01*
X161210143Y-107378641D01*
X161217035Y-107388956D01*
X161217036Y-107388958D01*
X161247561Y-107434641D01*
X161254690Y-107445310D01*
X161265006Y-107452203D01*
X161311042Y-107482964D01*
X161311044Y-107482965D01*
X161321359Y-107489857D01*
X161333526Y-107492277D01*
X161333528Y-107492278D01*
X161374990Y-107500525D01*
X161400000Y-107505500D01*
X162250000Y-107505500D01*
X162275010Y-107500525D01*
X162316472Y-107492278D01*
X162316474Y-107492277D01*
X162328641Y-107489857D01*
X162338956Y-107482965D01*
X162338958Y-107482964D01*
X162384994Y-107452203D01*
X162395310Y-107445310D01*
X162402439Y-107434641D01*
X162432964Y-107388958D01*
X162432965Y-107388956D01*
X162439857Y-107378641D01*
X162455500Y-107300000D01*
X162455500Y-105700000D01*
X162439857Y-105621359D01*
X162432965Y-105611044D01*
X162432964Y-105611042D01*
X162402203Y-105565006D01*
X162395310Y-105554690D01*
X162384994Y-105547797D01*
X162338958Y-105517036D01*
X162338956Y-105517035D01*
X162328641Y-105510143D01*
X162316474Y-105507723D01*
X162316472Y-105507722D01*
X162266972Y-105497876D01*
X162250000Y-105494500D01*
X161400000Y-105494500D01*
X161383028Y-105497876D01*
X161333528Y-105507722D01*
X161333526Y-105507723D01*
X161321359Y-105510143D01*
X161311044Y-105517035D01*
X161311042Y-105517036D01*
X161265006Y-105547797D01*
X161254690Y-105554690D01*
X161247797Y-105565006D01*
X161217036Y-105611042D01*
X161217035Y-105611044D01*
X161210143Y-105621359D01*
X161194500Y-105700000D01*
X160704391Y-105700000D01*
X160703793Y-105693933D01*
X160691816Y-105633721D01*
X160682501Y-105611232D01*
X160651850Y-105565359D01*
X160634641Y-105548150D01*
X160588768Y-105517499D01*
X160566279Y-105508184D01*
X160506067Y-105496207D01*
X160493813Y-105495000D01*
X160347115Y-105495000D01*
X160331876Y-105499475D01*
X160330671Y-105500865D01*
X160329000Y-105508548D01*
X159819659Y-105508548D01*
X159816525Y-105497876D01*
X159815135Y-105496671D01*
X159807452Y-105495000D01*
X159656187Y-105495000D01*
X159643933Y-105496207D01*
X159583721Y-105508184D01*
X159561232Y-105517499D01*
X159515359Y-105548150D01*
X159498150Y-105565359D01*
X159467499Y-105611232D01*
X159458184Y-105633721D01*
X159446207Y-105693933D01*
X159445000Y-105706187D01*
X157750000Y-105706187D01*
X157750000Y-92367548D01*
X159445000Y-92367548D01*
X159445000Y-92893813D01*
X159446207Y-92906067D01*
X159458184Y-92966279D01*
X159467499Y-92988768D01*
X159498150Y-93034641D01*
X159515359Y-93051850D01*
X159561232Y-93082501D01*
X159583721Y-93091816D01*
X159643933Y-93103793D01*
X159656187Y-93105000D01*
X159802885Y-93105000D01*
X159818124Y-93100525D01*
X159819329Y-93099135D01*
X159821000Y-93091452D01*
X159821000Y-92372115D01*
X159819659Y-92367548D01*
X160329000Y-92367548D01*
X160329000Y-93086885D01*
X160333475Y-93102124D01*
X160334865Y-93103329D01*
X160342548Y-93105000D01*
X160493813Y-93105000D01*
X160506067Y-93103793D01*
X160566279Y-93091816D01*
X160588768Y-93082501D01*
X160634641Y-93051850D01*
X160651850Y-93034641D01*
X160682501Y-92988768D01*
X160691816Y-92966279D01*
X160703793Y-92906067D01*
X160705000Y-92893813D01*
X160705000Y-92372115D01*
X160700525Y-92356876D01*
X160699135Y-92355671D01*
X160691452Y-92354000D01*
X160347115Y-92354000D01*
X160331876Y-92358475D01*
X160330671Y-92359865D01*
X160329000Y-92367548D01*
X159819659Y-92367548D01*
X159816525Y-92356876D01*
X159815135Y-92355671D01*
X159807452Y-92354000D01*
X159463115Y-92354000D01*
X159447876Y-92358475D01*
X159446671Y-92359865D01*
X159445000Y-92367548D01*
X157750000Y-92367548D01*
X157750000Y-91306187D01*
X159445000Y-91306187D01*
X159445000Y-91827885D01*
X159449475Y-91843124D01*
X159450865Y-91844329D01*
X159458548Y-91846000D01*
X159802885Y-91846000D01*
X159818124Y-91841525D01*
X159819329Y-91840135D01*
X159821000Y-91832452D01*
X159821000Y-91113115D01*
X159819659Y-91108548D01*
X160329000Y-91108548D01*
X160329000Y-91827885D01*
X160333475Y-91843124D01*
X160334865Y-91844329D01*
X160342548Y-91846000D01*
X160686885Y-91846000D01*
X160702124Y-91841525D01*
X160703329Y-91840135D01*
X160705000Y-91832452D01*
X160705000Y-91306187D01*
X160703793Y-91293933D01*
X160691816Y-91233721D01*
X160682501Y-91211232D01*
X160651850Y-91165359D01*
X160634641Y-91148150D01*
X160588768Y-91117499D01*
X160566279Y-91108184D01*
X160506067Y-91096207D01*
X160493813Y-91095000D01*
X160347115Y-91095000D01*
X160331876Y-91099475D01*
X160330671Y-91100865D01*
X160329000Y-91108548D01*
X159819659Y-91108548D01*
X159816525Y-91097876D01*
X159815135Y-91096671D01*
X159807452Y-91095000D01*
X159656187Y-91095000D01*
X159643933Y-91096207D01*
X159583721Y-91108184D01*
X159561232Y-91117499D01*
X159515359Y-91148150D01*
X159498150Y-91165359D01*
X159467499Y-91211232D01*
X159458184Y-91233721D01*
X159446207Y-91293933D01*
X159445000Y-91306187D01*
X157750000Y-91306187D01*
X157750000Y-83676000D01*
X157770002Y-83607879D01*
X157823658Y-83561386D01*
X157876000Y-83550000D01*
X173294000Y-83550000D01*
X173362121Y-83570002D01*
G37*
%TD.AperFunction*%
%TD*%
M02*
