%TF.GenerationSoftware,KiCad,Pcbnew,(5.99.0-11174-ge2a2c3282a)*%
%TF.CreationDate,2021-07-05T22:54:39+02:00*%
%TF.ProjectId,flatlight_rev20_LEDSIDE,666c6174-6c69-4676-9874-5f7265763230,rev?*%
%TF.SameCoordinates,Original*%
%TF.FileFunction,Legend,Bot*%
%TF.FilePolarity,Positive*%
%FSLAX46Y46*%
G04 Gerber Fmt 4.6, Leading zero omitted, Abs format (unit mm)*
G04 Created by KiCad (PCBNEW (5.99.0-11174-ge2a2c3282a)) date 2021-07-05 22:54:39*
%MOMM*%
%LPD*%
G01*
G04 APERTURE LIST*
%ADD10C,0.150000*%
%ADD11C,0.100000*%
%ADD12C,0.120000*%
G04 APERTURE END LIST*
D10*
%TO.C,D35*%
X164007142Y-107850000D02*
X164054761Y-107897619D01*
X164102380Y-107850000D01*
X164054761Y-107802380D01*
X164007142Y-107850000D01*
X164102380Y-107850000D01*
D11*
%TO.C,logo11*%
X209369047Y-97002380D02*
X209369047Y-97716666D01*
X209416666Y-97859523D01*
X209511904Y-97954761D01*
X209654761Y-98002380D01*
X209750000Y-98002380D01*
X208416666Y-98002380D02*
X208892857Y-98002380D01*
X208892857Y-97002380D01*
X207511904Y-97907142D02*
X207559523Y-97954761D01*
X207702380Y-98002380D01*
X207797619Y-98002380D01*
X207940476Y-97954761D01*
X208035714Y-97859523D01*
X208083333Y-97764285D01*
X208130952Y-97573809D01*
X208130952Y-97430952D01*
X208083333Y-97240476D01*
X208035714Y-97145238D01*
X207940476Y-97050000D01*
X207797619Y-97002380D01*
X207702380Y-97002380D01*
X207559523Y-97050000D01*
X207511904Y-97097619D01*
X206797619Y-97002380D02*
X206797619Y-97716666D01*
X206845238Y-97859523D01*
X206940476Y-97954761D01*
X207083333Y-98002380D01*
X207178571Y-98002380D01*
X205845238Y-98002380D02*
X206321428Y-98002380D01*
X206321428Y-97002380D01*
X204940476Y-97907142D02*
X204988095Y-97954761D01*
X205130952Y-98002380D01*
X205226190Y-98002380D01*
X205369047Y-97954761D01*
X205464285Y-97859523D01*
X205511904Y-97764285D01*
X205559523Y-97573809D01*
X205559523Y-97430952D01*
X205511904Y-97240476D01*
X205464285Y-97145238D01*
X205369047Y-97050000D01*
X205226190Y-97002380D01*
X205130952Y-97002380D01*
X204988095Y-97050000D01*
X204940476Y-97097619D01*
X204226190Y-97002380D02*
X204226190Y-97716666D01*
X204273809Y-97859523D01*
X204369047Y-97954761D01*
X204511904Y-98002380D01*
X204607142Y-98002380D01*
X203273809Y-98002380D02*
X203750000Y-98002380D01*
X203750000Y-97002380D01*
X202369047Y-97907142D02*
X202416666Y-97954761D01*
X202559523Y-98002380D01*
X202654761Y-98002380D01*
X202797619Y-97954761D01*
X202892857Y-97859523D01*
X202940476Y-97764285D01*
X202988095Y-97573809D01*
X202988095Y-97430952D01*
X202940476Y-97240476D01*
X202892857Y-97145238D01*
X202797619Y-97050000D01*
X202654761Y-97002380D01*
X202559523Y-97002380D01*
X202416666Y-97050000D01*
X202369047Y-97097619D01*
X201654761Y-97002380D02*
X201654761Y-97716666D01*
X201702380Y-97859523D01*
X201797619Y-97954761D01*
X201940476Y-98002380D01*
X202035714Y-98002380D01*
X200702380Y-98002380D02*
X201178571Y-98002380D01*
X201178571Y-97002380D01*
X199797619Y-97907142D02*
X199845238Y-97954761D01*
X199988095Y-98002380D01*
X200083333Y-98002380D01*
X200226190Y-97954761D01*
X200321428Y-97859523D01*
X200369047Y-97764285D01*
X200416666Y-97573809D01*
X200416666Y-97430952D01*
X200369047Y-97240476D01*
X200321428Y-97145238D01*
X200226190Y-97050000D01*
X200083333Y-97002380D01*
X199988095Y-97002380D01*
X199845238Y-97050000D01*
X199797619Y-97097619D01*
D10*
%TO.C,D34*%
X164007142Y-93450000D02*
X164054761Y-93497619D01*
X164102380Y-93450000D01*
X164054761Y-93402380D01*
X164007142Y-93450000D01*
X164102380Y-93450000D01*
D11*
%TO.C,J5*%
X251200000Y-106171428D02*
X251200000Y-106600000D01*
X251228571Y-106685714D01*
X251285714Y-106742857D01*
X251371428Y-106771428D01*
X251428571Y-106771428D01*
X250628571Y-106171428D02*
X250914285Y-106171428D01*
X250942857Y-106457142D01*
X250914285Y-106428571D01*
X250857142Y-106400000D01*
X250714285Y-106400000D01*
X250657142Y-106428571D01*
X250628571Y-106457142D01*
X250600000Y-106514285D01*
X250600000Y-106657142D01*
X250628571Y-106714285D01*
X250657142Y-106742857D01*
X250714285Y-106771428D01*
X250857142Y-106771428D01*
X250914285Y-106742857D01*
X250942857Y-106714285D01*
D12*
%TO.C,logo11*%
X198750000Y-96550000D02*
X198750000Y-98550000D01*
X210750000Y-98550000D02*
X210750000Y-96550000D01*
X210750000Y-96550000D02*
X198750000Y-96550000D01*
X198750000Y-98550000D02*
X210750000Y-98550000D01*
%TO.C,J5*%
X254110000Y-103550000D02*
X254110000Y-89490000D01*
X251990000Y-103550000D02*
X251990000Y-89490000D01*
X251990000Y-103550000D02*
X254110000Y-103550000D01*
X251990000Y-89490000D02*
X254110000Y-89490000D01*
X251990000Y-104550000D02*
X251990000Y-105610000D01*
X251990000Y-105610000D02*
X253050000Y-105610000D01*
%TD*%
M02*
