%TF.GenerationSoftware,KiCad,Pcbnew,(5.99.0-11593-g5155093ec0)*%
%TF.CreationDate,2021-08-09T14:05:58+02:00*%
%TF.ProjectId,flatlight_rev21_eside,666c6174-6c69-4676-9874-5f7265763231,rev?*%
%TF.SameCoordinates,Original*%
%TF.FileFunction,Legend,Top*%
%TF.FilePolarity,Positive*%
%FSLAX46Y46*%
G04 Gerber Fmt 4.6, Leading zero omitted, Abs format (unit mm)*
G04 Created by KiCad (PCBNEW (5.99.0-11593-g5155093ec0)) date 2021-08-09 14:05:58*
%MOMM*%
%LPD*%
G01*
G04 APERTURE LIST*
%ADD10C,0.100000*%
%ADD11C,0.120000*%
%ADD12C,0.200000*%
%ADD13C,0.150000*%
%ADD14C,0.010000*%
G04 APERTURE END LIST*
D10*
X105464285Y-76264285D02*
X105435714Y-76292857D01*
X105350000Y-76321428D01*
X105292857Y-76321428D01*
X105207142Y-76292857D01*
X105150000Y-76235714D01*
X105121428Y-76178571D01*
X105092857Y-76064285D01*
X105092857Y-75978571D01*
X105121428Y-75864285D01*
X105150000Y-75807142D01*
X105207142Y-75750000D01*
X105292857Y-75721428D01*
X105350000Y-75721428D01*
X105435714Y-75750000D01*
X105464285Y-75778571D01*
X105692857Y-76292857D02*
X105778571Y-76321428D01*
X105921428Y-76321428D01*
X105978571Y-76292857D01*
X106007142Y-76264285D01*
X106035714Y-76207142D01*
X106035714Y-76150000D01*
X106007142Y-76092857D01*
X105978571Y-76064285D01*
X105921428Y-76035714D01*
X105807142Y-76007142D01*
X105750000Y-75978571D01*
X105721428Y-75950000D01*
X105692857Y-75892857D01*
X105692857Y-75835714D01*
X105721428Y-75778571D01*
X105750000Y-75750000D01*
X105807142Y-75721428D01*
X105950000Y-75721428D01*
X106035714Y-75750000D01*
X106607142Y-76321428D02*
X106264285Y-76321428D01*
X106435714Y-76321428D02*
X106435714Y-75721428D01*
X106378571Y-75807142D01*
X106321428Y-75864285D01*
X106264285Y-75892857D01*
X105464285Y-77064285D02*
X105435714Y-77092857D01*
X105350000Y-77121428D01*
X105292857Y-77121428D01*
X105207142Y-77092857D01*
X105150000Y-77035714D01*
X105121428Y-76978571D01*
X105092857Y-76864285D01*
X105092857Y-76778571D01*
X105121428Y-76664285D01*
X105150000Y-76607142D01*
X105207142Y-76550000D01*
X105292857Y-76521428D01*
X105350000Y-76521428D01*
X105435714Y-76550000D01*
X105464285Y-76578571D01*
X105692857Y-77092857D02*
X105778571Y-77121428D01*
X105921428Y-77121428D01*
X105978571Y-77092857D01*
X106007142Y-77064285D01*
X106035714Y-77007142D01*
X106035714Y-76950000D01*
X106007142Y-76892857D01*
X105978571Y-76864285D01*
X105921428Y-76835714D01*
X105807142Y-76807142D01*
X105750000Y-76778571D01*
X105721428Y-76750000D01*
X105692857Y-76692857D01*
X105692857Y-76635714D01*
X105721428Y-76578571D01*
X105750000Y-76550000D01*
X105807142Y-76521428D01*
X105950000Y-76521428D01*
X106035714Y-76550000D01*
X106407142Y-76521428D02*
X106464285Y-76521428D01*
X106521428Y-76550000D01*
X106550000Y-76578571D01*
X106578571Y-76635714D01*
X106607142Y-76750000D01*
X106607142Y-76892857D01*
X106578571Y-77007142D01*
X106550000Y-77064285D01*
X106521428Y-77092857D01*
X106464285Y-77121428D01*
X106407142Y-77121428D01*
X106350000Y-77092857D01*
X106321428Y-77064285D01*
X106292857Y-77007142D01*
X106264285Y-76892857D01*
X106264285Y-76750000D01*
X106292857Y-76635714D01*
X106321428Y-76578571D01*
X106350000Y-76550000D01*
X106407142Y-76521428D01*
X84725000Y-88475000D02*
X84696428Y-88532142D01*
X84696428Y-88617857D01*
X84725000Y-88703571D01*
X84782142Y-88760714D01*
X84839285Y-88789285D01*
X84953571Y-88817857D01*
X85039285Y-88817857D01*
X85153571Y-88789285D01*
X85210714Y-88760714D01*
X85267857Y-88703571D01*
X85296428Y-88617857D01*
X85296428Y-88560714D01*
X85267857Y-88475000D01*
X85239285Y-88446428D01*
X85039285Y-88446428D01*
X85039285Y-88560714D01*
X85125000Y-88217857D02*
X85125000Y-87932142D01*
X85296428Y-88275000D02*
X84696428Y-88075000D01*
X85296428Y-87875000D01*
X84696428Y-87760714D02*
X84696428Y-87417857D01*
X85296428Y-87589285D02*
X84696428Y-87589285D01*
X84982142Y-87217857D02*
X84982142Y-87017857D01*
X85296428Y-86932142D02*
X85296428Y-87217857D01*
X84696428Y-87217857D01*
X84696428Y-86932142D01*
X78146428Y-85053571D02*
X78146428Y-84710714D01*
X78746428Y-84882142D02*
X78146428Y-84882142D01*
X78746428Y-84510714D02*
X78146428Y-84510714D01*
X78746428Y-84225000D02*
X78146428Y-84225000D01*
X78575000Y-84025000D01*
X78146428Y-83825000D01*
X78746428Y-83825000D01*
X78432142Y-83539285D02*
X78432142Y-83339285D01*
X78746428Y-83253571D02*
X78746428Y-83539285D01*
X78146428Y-83539285D01*
X78146428Y-83253571D01*
X68457142Y-84814285D02*
X68457142Y-85014285D01*
X68771428Y-85014285D02*
X68171428Y-85014285D01*
X68171428Y-84728571D01*
X68714285Y-84157142D02*
X68742857Y-84185714D01*
X68771428Y-84271428D01*
X68771428Y-84328571D01*
X68742857Y-84414285D01*
X68685714Y-84471428D01*
X68628571Y-84500000D01*
X68514285Y-84528571D01*
X68428571Y-84528571D01*
X68314285Y-84500000D01*
X68257142Y-84471428D01*
X68200000Y-84414285D01*
X68171428Y-84328571D01*
X68171428Y-84271428D01*
X68200000Y-84185714D01*
X68228571Y-84157142D01*
X66571428Y-85085714D02*
X66571428Y-84742857D01*
X67171428Y-84914285D02*
X66571428Y-84914285D01*
X66571428Y-84428571D02*
X66571428Y-84314285D01*
X66600000Y-84257142D01*
X66657142Y-84200000D01*
X66771428Y-84171428D01*
X66971428Y-84171428D01*
X67085714Y-84200000D01*
X67142857Y-84257142D01*
X67171428Y-84314285D01*
X67171428Y-84428571D01*
X67142857Y-84485714D01*
X67085714Y-84542857D01*
X66971428Y-84571428D01*
X66771428Y-84571428D01*
X66657142Y-84542857D01*
X66600000Y-84485714D01*
X66571428Y-84428571D01*
D11*
%TO.C,R20*%
X132414285Y-76271428D02*
X132214285Y-75985714D01*
X132071428Y-76271428D02*
X132071428Y-75671428D01*
X132300000Y-75671428D01*
X132357142Y-75700000D01*
X132385714Y-75728571D01*
X132414285Y-75785714D01*
X132414285Y-75871428D01*
X132385714Y-75928571D01*
X132357142Y-75957142D01*
X132300000Y-75985714D01*
X132071428Y-75985714D01*
X132642857Y-75728571D02*
X132671428Y-75700000D01*
X132728571Y-75671428D01*
X132871428Y-75671428D01*
X132928571Y-75700000D01*
X132957142Y-75728571D01*
X132985714Y-75785714D01*
X132985714Y-75842857D01*
X132957142Y-75928571D01*
X132614285Y-76271428D01*
X132985714Y-76271428D01*
X133357142Y-75671428D02*
X133414285Y-75671428D01*
X133471428Y-75700000D01*
X133500000Y-75728571D01*
X133528571Y-75785714D01*
X133557142Y-75900000D01*
X133557142Y-76042857D01*
X133528571Y-76157142D01*
X133500000Y-76214285D01*
X133471428Y-76242857D01*
X133414285Y-76271428D01*
X133357142Y-76271428D01*
X133300000Y-76242857D01*
X133271428Y-76214285D01*
X133242857Y-76157142D01*
X133214285Y-76042857D01*
X133214285Y-75900000D01*
X133242857Y-75785714D01*
X133271428Y-75728571D01*
X133300000Y-75700000D01*
X133357142Y-75671428D01*
%TO.C,C26*%
X111364285Y-73164285D02*
X111335714Y-73192857D01*
X111250000Y-73221428D01*
X111192857Y-73221428D01*
X111107142Y-73192857D01*
X111050000Y-73135714D01*
X111021428Y-73078571D01*
X110992857Y-72964285D01*
X110992857Y-72878571D01*
X111021428Y-72764285D01*
X111050000Y-72707142D01*
X111107142Y-72650000D01*
X111192857Y-72621428D01*
X111250000Y-72621428D01*
X111335714Y-72650000D01*
X111364285Y-72678571D01*
X111592857Y-72678571D02*
X111621428Y-72650000D01*
X111678571Y-72621428D01*
X111821428Y-72621428D01*
X111878571Y-72650000D01*
X111907142Y-72678571D01*
X111935714Y-72735714D01*
X111935714Y-72792857D01*
X111907142Y-72878571D01*
X111564285Y-73221428D01*
X111935714Y-73221428D01*
X112450000Y-72621428D02*
X112335714Y-72621428D01*
X112278571Y-72650000D01*
X112250000Y-72678571D01*
X112192857Y-72764285D01*
X112164285Y-72878571D01*
X112164285Y-73107142D01*
X112192857Y-73164285D01*
X112221428Y-73192857D01*
X112278571Y-73221428D01*
X112392857Y-73221428D01*
X112450000Y-73192857D01*
X112478571Y-73164285D01*
X112507142Y-73107142D01*
X112507142Y-72964285D01*
X112478571Y-72907142D01*
X112450000Y-72878571D01*
X112392857Y-72850000D01*
X112278571Y-72850000D01*
X112221428Y-72878571D01*
X112192857Y-72907142D01*
X112164285Y-72964285D01*
%TO.C,C4*%
X97850000Y-83464285D02*
X97821428Y-83492857D01*
X97735714Y-83521428D01*
X97678571Y-83521428D01*
X97592857Y-83492857D01*
X97535714Y-83435714D01*
X97507142Y-83378571D01*
X97478571Y-83264285D01*
X97478571Y-83178571D01*
X97507142Y-83064285D01*
X97535714Y-83007142D01*
X97592857Y-82950000D01*
X97678571Y-82921428D01*
X97735714Y-82921428D01*
X97821428Y-82950000D01*
X97850000Y-82978571D01*
X98364285Y-83121428D02*
X98364285Y-83521428D01*
X98221428Y-82892857D02*
X98078571Y-83321428D01*
X98450000Y-83321428D01*
%TO.C,RN6*%
X93635714Y-71871428D02*
X93435714Y-71585714D01*
X93292857Y-71871428D02*
X93292857Y-71271428D01*
X93521428Y-71271428D01*
X93578571Y-71300000D01*
X93607142Y-71328571D01*
X93635714Y-71385714D01*
X93635714Y-71471428D01*
X93607142Y-71528571D01*
X93578571Y-71557142D01*
X93521428Y-71585714D01*
X93292857Y-71585714D01*
X93892857Y-71871428D02*
X93892857Y-71271428D01*
X94235714Y-71871428D01*
X94235714Y-71271428D01*
X94778571Y-71271428D02*
X94664285Y-71271428D01*
X94607142Y-71300000D01*
X94578571Y-71328571D01*
X94521428Y-71414285D01*
X94492857Y-71528571D01*
X94492857Y-71757142D01*
X94521428Y-71814285D01*
X94550000Y-71842857D01*
X94607142Y-71871428D01*
X94721428Y-71871428D01*
X94778571Y-71842857D01*
X94807142Y-71814285D01*
X94835714Y-71757142D01*
X94835714Y-71614285D01*
X94807142Y-71557142D01*
X94778571Y-71528571D01*
X94721428Y-71500000D01*
X94607142Y-71500000D01*
X94550000Y-71528571D01*
X94521428Y-71557142D01*
X94492857Y-71614285D01*
%TO.C,C20*%
X121840019Y-91085714D02*
X121868591Y-91114285D01*
X121897162Y-91200000D01*
X121897162Y-91257142D01*
X121868591Y-91342857D01*
X121811448Y-91400000D01*
X121754305Y-91428571D01*
X121640019Y-91457142D01*
X121554305Y-91457142D01*
X121440019Y-91428571D01*
X121382876Y-91400000D01*
X121325734Y-91342857D01*
X121297162Y-91257142D01*
X121297162Y-91200000D01*
X121325734Y-91114285D01*
X121354305Y-91085714D01*
X121354305Y-90857142D02*
X121325734Y-90828571D01*
X121297162Y-90771428D01*
X121297162Y-90628571D01*
X121325734Y-90571428D01*
X121354305Y-90542857D01*
X121411448Y-90514285D01*
X121468591Y-90514285D01*
X121554305Y-90542857D01*
X121897162Y-90885714D01*
X121897162Y-90514285D01*
X121297162Y-90142857D02*
X121297162Y-90085714D01*
X121325734Y-90028571D01*
X121354305Y-90000000D01*
X121411448Y-89971428D01*
X121525734Y-89942857D01*
X121668591Y-89942857D01*
X121782876Y-89971428D01*
X121840019Y-90000000D01*
X121868591Y-90028571D01*
X121897162Y-90085714D01*
X121897162Y-90142857D01*
X121868591Y-90200000D01*
X121840019Y-90228571D01*
X121782876Y-90257142D01*
X121668591Y-90285714D01*
X121525734Y-90285714D01*
X121411448Y-90257142D01*
X121354305Y-90228571D01*
X121325734Y-90200000D01*
X121297162Y-90142857D01*
%TO.C,R7*%
X59700000Y-89921428D02*
X59500000Y-89635714D01*
X59357142Y-89921428D02*
X59357142Y-89321428D01*
X59585714Y-89321428D01*
X59642857Y-89350000D01*
X59671428Y-89378571D01*
X59700000Y-89435714D01*
X59700000Y-89521428D01*
X59671428Y-89578571D01*
X59642857Y-89607142D01*
X59585714Y-89635714D01*
X59357142Y-89635714D01*
X59900000Y-89321428D02*
X60300000Y-89321428D01*
X60042857Y-89921428D01*
%TO.C,U2*%
X64442857Y-76971428D02*
X64442857Y-77457142D01*
X64471428Y-77514285D01*
X64500000Y-77542857D01*
X64557142Y-77571428D01*
X64671428Y-77571428D01*
X64728571Y-77542857D01*
X64757142Y-77514285D01*
X64785714Y-77457142D01*
X64785714Y-76971428D01*
X65042857Y-77028571D02*
X65071428Y-77000000D01*
X65128571Y-76971428D01*
X65271428Y-76971428D01*
X65328571Y-77000000D01*
X65357142Y-77028571D01*
X65385714Y-77085714D01*
X65385714Y-77142857D01*
X65357142Y-77228571D01*
X65014285Y-77571428D01*
X65385714Y-77571428D01*
%TO.C,J3*%
X138225000Y-51136428D02*
X138225000Y-51565000D01*
X138196428Y-51650714D01*
X138139285Y-51707857D01*
X138053571Y-51736428D01*
X137996428Y-51736428D01*
X138453571Y-51136428D02*
X138825000Y-51136428D01*
X138625000Y-51365000D01*
X138710714Y-51365000D01*
X138767857Y-51393571D01*
X138796428Y-51422142D01*
X138825000Y-51479285D01*
X138825000Y-51622142D01*
X138796428Y-51679285D01*
X138767857Y-51707857D01*
X138710714Y-51736428D01*
X138539285Y-51736428D01*
X138482142Y-51707857D01*
X138453571Y-51679285D01*
%TO.C,C3*%
X67364285Y-70700000D02*
X67392857Y-70728571D01*
X67421428Y-70814285D01*
X67421428Y-70871428D01*
X67392857Y-70957142D01*
X67335714Y-71014285D01*
X67278571Y-71042857D01*
X67164285Y-71071428D01*
X67078571Y-71071428D01*
X66964285Y-71042857D01*
X66907142Y-71014285D01*
X66850000Y-70957142D01*
X66821428Y-70871428D01*
X66821428Y-70814285D01*
X66850000Y-70728571D01*
X66878571Y-70700000D01*
X66821428Y-70500000D02*
X66821428Y-70128571D01*
X67050000Y-70328571D01*
X67050000Y-70242857D01*
X67078571Y-70185714D01*
X67107142Y-70157142D01*
X67164285Y-70128571D01*
X67307142Y-70128571D01*
X67364285Y-70157142D01*
X67392857Y-70185714D01*
X67421428Y-70242857D01*
X67421428Y-70414285D01*
X67392857Y-70471428D01*
X67364285Y-70500000D01*
%TO.C,J1*%
X42771428Y-78775000D02*
X43200000Y-78775000D01*
X43285714Y-78803571D01*
X43342857Y-78860714D01*
X43371428Y-78946428D01*
X43371428Y-79003571D01*
X43371428Y-78175000D02*
X43371428Y-78517857D01*
X43371428Y-78346428D02*
X42771428Y-78346428D01*
X42857142Y-78403571D01*
X42914285Y-78460714D01*
X42942857Y-78517857D01*
%TO.C,FB1*%
X47750000Y-85357142D02*
X47550000Y-85357142D01*
X47550000Y-85671428D02*
X47550000Y-85071428D01*
X47835714Y-85071428D01*
X48264285Y-85357142D02*
X48350000Y-85385714D01*
X48378571Y-85414285D01*
X48407142Y-85471428D01*
X48407142Y-85557142D01*
X48378571Y-85614285D01*
X48350000Y-85642857D01*
X48292857Y-85671428D01*
X48064285Y-85671428D01*
X48064285Y-85071428D01*
X48264285Y-85071428D01*
X48321428Y-85100000D01*
X48350000Y-85128571D01*
X48378571Y-85185714D01*
X48378571Y-85242857D01*
X48350000Y-85300000D01*
X48321428Y-85328571D01*
X48264285Y-85357142D01*
X48064285Y-85357142D01*
X48978571Y-85671428D02*
X48635714Y-85671428D01*
X48807142Y-85671428D02*
X48807142Y-85071428D01*
X48750000Y-85157142D01*
X48692857Y-85214285D01*
X48635714Y-85242857D01*
%TO.C,C9*%
X80814285Y-81050000D02*
X80842857Y-81078571D01*
X80871428Y-81164285D01*
X80871428Y-81221428D01*
X80842857Y-81307142D01*
X80785714Y-81364285D01*
X80728571Y-81392857D01*
X80614285Y-81421428D01*
X80528571Y-81421428D01*
X80414285Y-81392857D01*
X80357142Y-81364285D01*
X80300000Y-81307142D01*
X80271428Y-81221428D01*
X80271428Y-81164285D01*
X80300000Y-81078571D01*
X80328571Y-81050000D01*
X80871428Y-80764285D02*
X80871428Y-80650000D01*
X80842857Y-80592857D01*
X80814285Y-80564285D01*
X80728571Y-80507142D01*
X80614285Y-80478571D01*
X80385714Y-80478571D01*
X80328571Y-80507142D01*
X80300000Y-80535714D01*
X80271428Y-80592857D01*
X80271428Y-80707142D01*
X80300000Y-80764285D01*
X80328571Y-80792857D01*
X80385714Y-80821428D01*
X80528571Y-80821428D01*
X80585714Y-80792857D01*
X80614285Y-80764285D01*
X80642857Y-80707142D01*
X80642857Y-80592857D01*
X80614285Y-80535714D01*
X80585714Y-80507142D01*
X80528571Y-80478571D01*
%TO.C,R10*%
X68064285Y-89771428D02*
X67864285Y-89485714D01*
X67721428Y-89771428D02*
X67721428Y-89171428D01*
X67950000Y-89171428D01*
X68007142Y-89200000D01*
X68035714Y-89228571D01*
X68064285Y-89285714D01*
X68064285Y-89371428D01*
X68035714Y-89428571D01*
X68007142Y-89457142D01*
X67950000Y-89485714D01*
X67721428Y-89485714D01*
X68635714Y-89771428D02*
X68292857Y-89771428D01*
X68464285Y-89771428D02*
X68464285Y-89171428D01*
X68407142Y-89257142D01*
X68350000Y-89314285D01*
X68292857Y-89342857D01*
X69007142Y-89171428D02*
X69064285Y-89171428D01*
X69121428Y-89200000D01*
X69150000Y-89228571D01*
X69178571Y-89285714D01*
X69207142Y-89400000D01*
X69207142Y-89542857D01*
X69178571Y-89657142D01*
X69150000Y-89714285D01*
X69121428Y-89742857D01*
X69064285Y-89771428D01*
X69007142Y-89771428D01*
X68950000Y-89742857D01*
X68921428Y-89714285D01*
X68892857Y-89657142D01*
X68864285Y-89542857D01*
X68864285Y-89400000D01*
X68892857Y-89285714D01*
X68921428Y-89228571D01*
X68950000Y-89200000D01*
X69007142Y-89171428D01*
%TO.C,SW6*%
X97200000Y-90442857D02*
X97285714Y-90471428D01*
X97428571Y-90471428D01*
X97485714Y-90442857D01*
X97514285Y-90414285D01*
X97542857Y-90357142D01*
X97542857Y-90300000D01*
X97514285Y-90242857D01*
X97485714Y-90214285D01*
X97428571Y-90185714D01*
X97314285Y-90157142D01*
X97257142Y-90128571D01*
X97228571Y-90100000D01*
X97200000Y-90042857D01*
X97200000Y-89985714D01*
X97228571Y-89928571D01*
X97257142Y-89900000D01*
X97314285Y-89871428D01*
X97457142Y-89871428D01*
X97542857Y-89900000D01*
X97742857Y-89871428D02*
X97885714Y-90471428D01*
X98000000Y-90042857D01*
X98114285Y-90471428D01*
X98257142Y-89871428D01*
X98742857Y-89871428D02*
X98628571Y-89871428D01*
X98571428Y-89900000D01*
X98542857Y-89928571D01*
X98485714Y-90014285D01*
X98457142Y-90128571D01*
X98457142Y-90357142D01*
X98485714Y-90414285D01*
X98514285Y-90442857D01*
X98571428Y-90471428D01*
X98685714Y-90471428D01*
X98742857Y-90442857D01*
X98771428Y-90414285D01*
X98800000Y-90357142D01*
X98800000Y-90214285D01*
X98771428Y-90157142D01*
X98742857Y-90128571D01*
X98685714Y-90100000D01*
X98571428Y-90100000D01*
X98514285Y-90128571D01*
X98485714Y-90157142D01*
X98457142Y-90214285D01*
%TO.C,C18*%
X135114285Y-87164285D02*
X135085714Y-87192857D01*
X135000000Y-87221428D01*
X134942857Y-87221428D01*
X134857142Y-87192857D01*
X134800000Y-87135714D01*
X134771428Y-87078571D01*
X134742857Y-86964285D01*
X134742857Y-86878571D01*
X134771428Y-86764285D01*
X134800000Y-86707142D01*
X134857142Y-86650000D01*
X134942857Y-86621428D01*
X135000000Y-86621428D01*
X135085714Y-86650000D01*
X135114285Y-86678571D01*
X135685714Y-87221428D02*
X135342857Y-87221428D01*
X135514285Y-87221428D02*
X135514285Y-86621428D01*
X135457142Y-86707142D01*
X135400000Y-86764285D01*
X135342857Y-86792857D01*
X136028571Y-86878571D02*
X135971428Y-86850000D01*
X135942857Y-86821428D01*
X135914285Y-86764285D01*
X135914285Y-86735714D01*
X135942857Y-86678571D01*
X135971428Y-86650000D01*
X136028571Y-86621428D01*
X136142857Y-86621428D01*
X136200000Y-86650000D01*
X136228571Y-86678571D01*
X136257142Y-86735714D01*
X136257142Y-86764285D01*
X136228571Y-86821428D01*
X136200000Y-86850000D01*
X136142857Y-86878571D01*
X136028571Y-86878571D01*
X135971428Y-86907142D01*
X135942857Y-86935714D01*
X135914285Y-86992857D01*
X135914285Y-87107142D01*
X135942857Y-87164285D01*
X135971428Y-87192857D01*
X136028571Y-87221428D01*
X136142857Y-87221428D01*
X136200000Y-87192857D01*
X136228571Y-87164285D01*
X136257142Y-87107142D01*
X136257142Y-86992857D01*
X136228571Y-86935714D01*
X136200000Y-86907142D01*
X136142857Y-86878571D01*
%TO.C,C10*%
X105338551Y-83814285D02*
X105309980Y-83842857D01*
X105224266Y-83871428D01*
X105167123Y-83871428D01*
X105081408Y-83842857D01*
X105024266Y-83785714D01*
X104995694Y-83728571D01*
X104967123Y-83614285D01*
X104967123Y-83528571D01*
X104995694Y-83414285D01*
X105024266Y-83357142D01*
X105081408Y-83300000D01*
X105167123Y-83271428D01*
X105224266Y-83271428D01*
X105309980Y-83300000D01*
X105338551Y-83328571D01*
X105909980Y-83871428D02*
X105567123Y-83871428D01*
X105738551Y-83871428D02*
X105738551Y-83271428D01*
X105681408Y-83357142D01*
X105624266Y-83414285D01*
X105567123Y-83442857D01*
X106281408Y-83271428D02*
X106338551Y-83271428D01*
X106395694Y-83300000D01*
X106424266Y-83328571D01*
X106452837Y-83385714D01*
X106481408Y-83500000D01*
X106481408Y-83642857D01*
X106452837Y-83757142D01*
X106424266Y-83814285D01*
X106395694Y-83842857D01*
X106338551Y-83871428D01*
X106281408Y-83871428D01*
X106224266Y-83842857D01*
X106195694Y-83814285D01*
X106167123Y-83757142D01*
X106138551Y-83642857D01*
X106138551Y-83500000D01*
X106167123Y-83385714D01*
X106195694Y-83328571D01*
X106224266Y-83300000D01*
X106281408Y-83271428D01*
D12*
%TO.C,logo2*%
X85606686Y-58752380D02*
X85606686Y-59466666D01*
X85559067Y-59609523D01*
X85463829Y-59704761D01*
X85320972Y-59752380D01*
X85225734Y-59752380D01*
X86559067Y-59752380D02*
X86082876Y-59752380D01*
X86082876Y-58752380D01*
X87463829Y-59657142D02*
X87416210Y-59704761D01*
X87273353Y-59752380D01*
X87178114Y-59752380D01*
X87035257Y-59704761D01*
X86940019Y-59609523D01*
X86892400Y-59514285D01*
X86844781Y-59323809D01*
X86844781Y-59180952D01*
X86892400Y-58990476D01*
X86940019Y-58895238D01*
X87035257Y-58800000D01*
X87178114Y-58752380D01*
X87273353Y-58752380D01*
X87416210Y-58800000D01*
X87463829Y-58847619D01*
X88178114Y-58752380D02*
X88178114Y-59466666D01*
X88130495Y-59609523D01*
X88035257Y-59704761D01*
X87892400Y-59752380D01*
X87797162Y-59752380D01*
X89130495Y-59752380D02*
X88654305Y-59752380D01*
X88654305Y-58752380D01*
X90035257Y-59657142D02*
X89987638Y-59704761D01*
X89844781Y-59752380D01*
X89749543Y-59752380D01*
X89606686Y-59704761D01*
X89511448Y-59609523D01*
X89463829Y-59514285D01*
X89416210Y-59323809D01*
X89416210Y-59180952D01*
X89463829Y-58990476D01*
X89511448Y-58895238D01*
X89606686Y-58800000D01*
X89749543Y-58752380D01*
X89844781Y-58752380D01*
X89987638Y-58800000D01*
X90035257Y-58847619D01*
X90749543Y-58752380D02*
X90749543Y-59466666D01*
X90701924Y-59609523D01*
X90606686Y-59704761D01*
X90463829Y-59752380D01*
X90368591Y-59752380D01*
X91701924Y-59752380D02*
X91225734Y-59752380D01*
X91225734Y-58752380D01*
X92606686Y-59657142D02*
X92559067Y-59704761D01*
X92416210Y-59752380D01*
X92320972Y-59752380D01*
X92178114Y-59704761D01*
X92082876Y-59609523D01*
X92035257Y-59514285D01*
X91987638Y-59323809D01*
X91987638Y-59180952D01*
X92035257Y-58990476D01*
X92082876Y-58895238D01*
X92178114Y-58800000D01*
X92320972Y-58752380D01*
X92416210Y-58752380D01*
X92559067Y-58800000D01*
X92606686Y-58847619D01*
X93320972Y-58752380D02*
X93320972Y-59466666D01*
X93273353Y-59609523D01*
X93178114Y-59704761D01*
X93035257Y-59752380D01*
X92940019Y-59752380D01*
X94273353Y-59752380D02*
X93797162Y-59752380D01*
X93797162Y-58752380D01*
X95178114Y-59657142D02*
X95130495Y-59704761D01*
X94987638Y-59752380D01*
X94892400Y-59752380D01*
X94749543Y-59704761D01*
X94654305Y-59609523D01*
X94606686Y-59514285D01*
X94559067Y-59323809D01*
X94559067Y-59180952D01*
X94606686Y-58990476D01*
X94654305Y-58895238D01*
X94749543Y-58800000D01*
X94892400Y-58752380D01*
X94987638Y-58752380D01*
X95130495Y-58800000D01*
X95178114Y-58847619D01*
D11*
%TO.C,C15*%
X133940019Y-86414285D02*
X133911448Y-86442857D01*
X133825734Y-86471428D01*
X133768591Y-86471428D01*
X133682876Y-86442857D01*
X133625734Y-86385714D01*
X133597162Y-86328571D01*
X133568591Y-86214285D01*
X133568591Y-86128571D01*
X133597162Y-86014285D01*
X133625734Y-85957142D01*
X133682876Y-85900000D01*
X133768591Y-85871428D01*
X133825734Y-85871428D01*
X133911448Y-85900000D01*
X133940019Y-85928571D01*
X134511448Y-86471428D02*
X134168591Y-86471428D01*
X134340019Y-86471428D02*
X134340019Y-85871428D01*
X134282876Y-85957142D01*
X134225734Y-86014285D01*
X134168591Y-86042857D01*
X135054305Y-85871428D02*
X134768591Y-85871428D01*
X134740019Y-86157142D01*
X134768591Y-86128571D01*
X134825734Y-86100000D01*
X134968591Y-86100000D01*
X135025734Y-86128571D01*
X135054305Y-86157142D01*
X135082876Y-86214285D01*
X135082876Y-86357142D01*
X135054305Y-86414285D01*
X135025734Y-86442857D01*
X134968591Y-86471428D01*
X134825734Y-86471428D01*
X134768591Y-86442857D01*
X134740019Y-86414285D01*
%TO.C,R22*%
X127190019Y-90821428D02*
X126990019Y-90535714D01*
X126847162Y-90821428D02*
X126847162Y-90221428D01*
X127075734Y-90221428D01*
X127132876Y-90250000D01*
X127161448Y-90278571D01*
X127190019Y-90335714D01*
X127190019Y-90421428D01*
X127161448Y-90478571D01*
X127132876Y-90507142D01*
X127075734Y-90535714D01*
X126847162Y-90535714D01*
X127418591Y-90278571D02*
X127447162Y-90250000D01*
X127504305Y-90221428D01*
X127647162Y-90221428D01*
X127704305Y-90250000D01*
X127732876Y-90278571D01*
X127761448Y-90335714D01*
X127761448Y-90392857D01*
X127732876Y-90478571D01*
X127390019Y-90821428D01*
X127761448Y-90821428D01*
X127990019Y-90278571D02*
X128018591Y-90250000D01*
X128075734Y-90221428D01*
X128218591Y-90221428D01*
X128275734Y-90250000D01*
X128304305Y-90278571D01*
X128332876Y-90335714D01*
X128332876Y-90392857D01*
X128304305Y-90478571D01*
X127961448Y-90821428D01*
X128332876Y-90821428D01*
%TO.C,C1*%
X70824266Y-89714285D02*
X70795694Y-89742857D01*
X70709980Y-89771428D01*
X70652837Y-89771428D01*
X70567123Y-89742857D01*
X70509980Y-89685714D01*
X70481408Y-89628571D01*
X70452837Y-89514285D01*
X70452837Y-89428571D01*
X70481408Y-89314285D01*
X70509980Y-89257142D01*
X70567123Y-89200000D01*
X70652837Y-89171428D01*
X70709980Y-89171428D01*
X70795694Y-89200000D01*
X70824266Y-89228571D01*
X71395694Y-89771428D02*
X71052837Y-89771428D01*
X71224266Y-89771428D02*
X71224266Y-89171428D01*
X71167123Y-89257142D01*
X71109980Y-89314285D01*
X71052837Y-89342857D01*
%TO.C,R3*%
X51370000Y-90421428D02*
X51170000Y-90135714D01*
X51027142Y-90421428D02*
X51027142Y-89821428D01*
X51255714Y-89821428D01*
X51312857Y-89850000D01*
X51341428Y-89878571D01*
X51370000Y-89935714D01*
X51370000Y-90021428D01*
X51341428Y-90078571D01*
X51312857Y-90107142D01*
X51255714Y-90135714D01*
X51027142Y-90135714D01*
X51570000Y-89821428D02*
X51941428Y-89821428D01*
X51741428Y-90050000D01*
X51827142Y-90050000D01*
X51884285Y-90078571D01*
X51912857Y-90107142D01*
X51941428Y-90164285D01*
X51941428Y-90307142D01*
X51912857Y-90364285D01*
X51884285Y-90392857D01*
X51827142Y-90421428D01*
X51655714Y-90421428D01*
X51598571Y-90392857D01*
X51570000Y-90364285D01*
%TO.C,R13*%
X56740019Y-78971428D02*
X56540019Y-78685714D01*
X56397162Y-78971428D02*
X56397162Y-78371428D01*
X56625734Y-78371428D01*
X56682876Y-78400000D01*
X56711448Y-78428571D01*
X56740019Y-78485714D01*
X56740019Y-78571428D01*
X56711448Y-78628571D01*
X56682876Y-78657142D01*
X56625734Y-78685714D01*
X56397162Y-78685714D01*
X57311448Y-78971428D02*
X56968591Y-78971428D01*
X57140019Y-78971428D02*
X57140019Y-78371428D01*
X57082876Y-78457142D01*
X57025734Y-78514285D01*
X56968591Y-78542857D01*
X57511448Y-78371428D02*
X57882876Y-78371428D01*
X57682876Y-78600000D01*
X57768591Y-78600000D01*
X57825734Y-78628571D01*
X57854305Y-78657142D01*
X57882876Y-78714285D01*
X57882876Y-78857142D01*
X57854305Y-78914285D01*
X57825734Y-78942857D01*
X57768591Y-78971428D01*
X57597162Y-78971428D01*
X57540019Y-78942857D01*
X57511448Y-78914285D01*
%TO.C,C8*%
X103450000Y-83464285D02*
X103421428Y-83492857D01*
X103335714Y-83521428D01*
X103278571Y-83521428D01*
X103192857Y-83492857D01*
X103135714Y-83435714D01*
X103107142Y-83378571D01*
X103078571Y-83264285D01*
X103078571Y-83178571D01*
X103107142Y-83064285D01*
X103135714Y-83007142D01*
X103192857Y-82950000D01*
X103278571Y-82921428D01*
X103335714Y-82921428D01*
X103421428Y-82950000D01*
X103450000Y-82978571D01*
X103792857Y-83178571D02*
X103735714Y-83150000D01*
X103707142Y-83121428D01*
X103678571Y-83064285D01*
X103678571Y-83035714D01*
X103707142Y-82978571D01*
X103735714Y-82950000D01*
X103792857Y-82921428D01*
X103907142Y-82921428D01*
X103964285Y-82950000D01*
X103992857Y-82978571D01*
X104021428Y-83035714D01*
X104021428Y-83064285D01*
X103992857Y-83121428D01*
X103964285Y-83150000D01*
X103907142Y-83178571D01*
X103792857Y-83178571D01*
X103735714Y-83207142D01*
X103707142Y-83235714D01*
X103678571Y-83292857D01*
X103678571Y-83407142D01*
X103707142Y-83464285D01*
X103735714Y-83492857D01*
X103792857Y-83521428D01*
X103907142Y-83521428D01*
X103964285Y-83492857D01*
X103992857Y-83464285D01*
X104021428Y-83407142D01*
X104021428Y-83292857D01*
X103992857Y-83235714D01*
X103964285Y-83207142D01*
X103907142Y-83178571D01*
%TO.C,C25*%
X137114285Y-84864285D02*
X137085714Y-84892857D01*
X137000000Y-84921428D01*
X136942857Y-84921428D01*
X136857142Y-84892857D01*
X136800000Y-84835714D01*
X136771428Y-84778571D01*
X136742857Y-84664285D01*
X136742857Y-84578571D01*
X136771428Y-84464285D01*
X136800000Y-84407142D01*
X136857142Y-84350000D01*
X136942857Y-84321428D01*
X137000000Y-84321428D01*
X137085714Y-84350000D01*
X137114285Y-84378571D01*
X137342857Y-84378571D02*
X137371428Y-84350000D01*
X137428571Y-84321428D01*
X137571428Y-84321428D01*
X137628571Y-84350000D01*
X137657142Y-84378571D01*
X137685714Y-84435714D01*
X137685714Y-84492857D01*
X137657142Y-84578571D01*
X137314285Y-84921428D01*
X137685714Y-84921428D01*
X138228571Y-84321428D02*
X137942857Y-84321428D01*
X137914285Y-84607142D01*
X137942857Y-84578571D01*
X138000000Y-84550000D01*
X138142857Y-84550000D01*
X138200000Y-84578571D01*
X138228571Y-84607142D01*
X138257142Y-84664285D01*
X138257142Y-84807142D01*
X138228571Y-84864285D01*
X138200000Y-84892857D01*
X138142857Y-84921428D01*
X138000000Y-84921428D01*
X137942857Y-84892857D01*
X137914285Y-84864285D01*
%TO.C,C24*%
X133164285Y-84914285D02*
X133135714Y-84942857D01*
X133050000Y-84971428D01*
X132992857Y-84971428D01*
X132907142Y-84942857D01*
X132850000Y-84885714D01*
X132821428Y-84828571D01*
X132792857Y-84714285D01*
X132792857Y-84628571D01*
X132821428Y-84514285D01*
X132850000Y-84457142D01*
X132907142Y-84400000D01*
X132992857Y-84371428D01*
X133050000Y-84371428D01*
X133135714Y-84400000D01*
X133164285Y-84428571D01*
X133392857Y-84428571D02*
X133421428Y-84400000D01*
X133478571Y-84371428D01*
X133621428Y-84371428D01*
X133678571Y-84400000D01*
X133707142Y-84428571D01*
X133735714Y-84485714D01*
X133735714Y-84542857D01*
X133707142Y-84628571D01*
X133364285Y-84971428D01*
X133735714Y-84971428D01*
X134250000Y-84571428D02*
X134250000Y-84971428D01*
X134107142Y-84342857D02*
X133964285Y-84771428D01*
X134335714Y-84771428D01*
%TO.C,R2*%
X54800000Y-87421428D02*
X54600000Y-87135714D01*
X54457142Y-87421428D02*
X54457142Y-86821428D01*
X54685714Y-86821428D01*
X54742857Y-86850000D01*
X54771428Y-86878571D01*
X54800000Y-86935714D01*
X54800000Y-87021428D01*
X54771428Y-87078571D01*
X54742857Y-87107142D01*
X54685714Y-87135714D01*
X54457142Y-87135714D01*
X55028571Y-86878571D02*
X55057142Y-86850000D01*
X55114285Y-86821428D01*
X55257142Y-86821428D01*
X55314285Y-86850000D01*
X55342857Y-86878571D01*
X55371428Y-86935714D01*
X55371428Y-86992857D01*
X55342857Y-87078571D01*
X55000000Y-87421428D01*
X55371428Y-87421428D01*
%TO.C,R15*%
X100714285Y-70321428D02*
X100514285Y-70035714D01*
X100371428Y-70321428D02*
X100371428Y-69721428D01*
X100600000Y-69721428D01*
X100657142Y-69750000D01*
X100685714Y-69778571D01*
X100714285Y-69835714D01*
X100714285Y-69921428D01*
X100685714Y-69978571D01*
X100657142Y-70007142D01*
X100600000Y-70035714D01*
X100371428Y-70035714D01*
X101285714Y-70321428D02*
X100942857Y-70321428D01*
X101114285Y-70321428D02*
X101114285Y-69721428D01*
X101057142Y-69807142D01*
X101000000Y-69864285D01*
X100942857Y-69892857D01*
X101828571Y-69721428D02*
X101542857Y-69721428D01*
X101514285Y-70007142D01*
X101542857Y-69978571D01*
X101600000Y-69950000D01*
X101742857Y-69950000D01*
X101800000Y-69978571D01*
X101828571Y-70007142D01*
X101857142Y-70064285D01*
X101857142Y-70207142D01*
X101828571Y-70264285D01*
X101800000Y-70292857D01*
X101742857Y-70321428D01*
X101600000Y-70321428D01*
X101542857Y-70292857D01*
X101514285Y-70264285D01*
D13*
%TO.C,BT1*%
X49571428Y-43080952D02*
X49571428Y-42319047D01*
X49952380Y-42700000D02*
X49190476Y-42700000D01*
X49571428Y-38380952D02*
X49571428Y-37619047D01*
X49571428Y-36180952D02*
X49571428Y-35419047D01*
X49952380Y-35800000D02*
X49190476Y-35800000D01*
X56528571Y-43919047D02*
X56576190Y-43776190D01*
X56623809Y-43728571D01*
X56719047Y-43680952D01*
X56861904Y-43680952D01*
X56957142Y-43728571D01*
X57004761Y-43776190D01*
X57052380Y-43871428D01*
X57052380Y-44252380D01*
X56052380Y-44252380D01*
X56052380Y-43919047D01*
X56100000Y-43823809D01*
X56147619Y-43776190D01*
X56242857Y-43728571D01*
X56338095Y-43728571D01*
X56433333Y-43776190D01*
X56480952Y-43823809D01*
X56528571Y-43919047D01*
X56528571Y-44252380D01*
X56100000Y-42728571D02*
X56052380Y-42823809D01*
X56052380Y-42966666D01*
X56100000Y-43109523D01*
X56195238Y-43204761D01*
X56290476Y-43252380D01*
X56480952Y-43300000D01*
X56623809Y-43300000D01*
X56814285Y-43252380D01*
X56909523Y-43204761D01*
X57004761Y-43109523D01*
X57052380Y-42966666D01*
X57052380Y-42871428D01*
X57004761Y-42728571D01*
X56957142Y-42680952D01*
X56623809Y-42680952D01*
X56623809Y-42871428D01*
X57052380Y-42204761D02*
X57052380Y-42014285D01*
X57004761Y-41919047D01*
X56957142Y-41871428D01*
X56814285Y-41776190D01*
X56623809Y-41728571D01*
X56242857Y-41728571D01*
X56147619Y-41776190D01*
X56100000Y-41823809D01*
X56052380Y-41919047D01*
X56052380Y-42109523D01*
X56100000Y-42204761D01*
X56147619Y-42252380D01*
X56242857Y-42300000D01*
X56480952Y-42300000D01*
X56576190Y-42252380D01*
X56623809Y-42204761D01*
X56671428Y-42109523D01*
X56671428Y-41919047D01*
X56623809Y-41823809D01*
X56576190Y-41776190D01*
X56480952Y-41728571D01*
X56052380Y-41395238D02*
X56052380Y-40776190D01*
X56433333Y-41109523D01*
X56433333Y-40966666D01*
X56480952Y-40871428D01*
X56528571Y-40823809D01*
X56623809Y-40776190D01*
X56861904Y-40776190D01*
X56957142Y-40823809D01*
X57004761Y-40871428D01*
X57052380Y-40966666D01*
X57052380Y-41252380D01*
X57004761Y-41347619D01*
X56957142Y-41395238D01*
X56052380Y-40157142D02*
X56052380Y-40061904D01*
X56100000Y-39966666D01*
X56147619Y-39919047D01*
X56242857Y-39871428D01*
X56433333Y-39823809D01*
X56671428Y-39823809D01*
X56861904Y-39871428D01*
X56957142Y-39919047D01*
X57004761Y-39966666D01*
X57052380Y-40061904D01*
X57052380Y-40157142D01*
X57004761Y-40252380D01*
X56957142Y-40300000D01*
X56861904Y-40347619D01*
X56671428Y-40395238D01*
X56433333Y-40395238D01*
X56242857Y-40347619D01*
X56147619Y-40300000D01*
X56100000Y-40252380D01*
X56052380Y-40157142D01*
X56766666Y-39442857D02*
X56766666Y-38966666D01*
X57052380Y-39538095D02*
X56052380Y-39204761D01*
X57052380Y-38871428D01*
X56528571Y-38204761D02*
X56576190Y-38061904D01*
X56623809Y-38014285D01*
X56719047Y-37966666D01*
X56861904Y-37966666D01*
X56957142Y-38014285D01*
X57004761Y-38061904D01*
X57052380Y-38157142D01*
X57052380Y-38538095D01*
X56052380Y-38538095D01*
X56052380Y-38204761D01*
X56100000Y-38109523D01*
X56147619Y-38061904D01*
X56242857Y-38014285D01*
X56338095Y-38014285D01*
X56433333Y-38061904D01*
X56480952Y-38109523D01*
X56528571Y-38204761D01*
X56528571Y-38538095D01*
X56528571Y-37538095D02*
X56528571Y-37204761D01*
X57052380Y-37061904D02*
X57052380Y-37538095D01*
X56052380Y-37538095D01*
X56052380Y-37061904D01*
X49571428Y-45280952D02*
X49571428Y-44519047D01*
X52957142Y-45742857D02*
X53004761Y-45695238D01*
X53052380Y-45742857D01*
X53004761Y-45790476D01*
X52957142Y-45742857D01*
X53052380Y-45742857D01*
X52671428Y-45742857D02*
X52100000Y-45790476D01*
X52052380Y-45742857D01*
X52100000Y-45695238D01*
X52671428Y-45742857D01*
X52052380Y-45742857D01*
X52957142Y-44504761D02*
X53004761Y-44457142D01*
X53052380Y-44504761D01*
X53004761Y-44552380D01*
X52957142Y-44504761D01*
X53052380Y-44504761D01*
X52671428Y-44504761D02*
X52100000Y-44552380D01*
X52052380Y-44504761D01*
X52100000Y-44457142D01*
X52671428Y-44504761D01*
X52052380Y-44504761D01*
X53052380Y-43266666D02*
X52052380Y-43266666D01*
X52052380Y-42885714D01*
X52100000Y-42790476D01*
X52147619Y-42742857D01*
X52242857Y-42695238D01*
X52385714Y-42695238D01*
X52480952Y-42742857D01*
X52528571Y-42790476D01*
X52576190Y-42885714D01*
X52576190Y-43266666D01*
X52052380Y-42076190D02*
X52052380Y-41885714D01*
X52100000Y-41790476D01*
X52195238Y-41695238D01*
X52385714Y-41647619D01*
X52719047Y-41647619D01*
X52909523Y-41695238D01*
X53004761Y-41790476D01*
X53052380Y-41885714D01*
X53052380Y-42076190D01*
X53004761Y-42171428D01*
X52909523Y-42266666D01*
X52719047Y-42314285D01*
X52385714Y-42314285D01*
X52195238Y-42266666D01*
X52100000Y-42171428D01*
X52052380Y-42076190D01*
X53052380Y-40742857D02*
X53052380Y-41219047D01*
X52052380Y-41219047D01*
X52766666Y-40457142D02*
X52766666Y-39980952D01*
X53052380Y-40552380D02*
X52052380Y-40219047D01*
X53052380Y-39885714D01*
X53052380Y-38980952D02*
X52576190Y-39314285D01*
X53052380Y-39552380D02*
X52052380Y-39552380D01*
X52052380Y-39171428D01*
X52100000Y-39076190D01*
X52147619Y-39028571D01*
X52242857Y-38980952D01*
X52385714Y-38980952D01*
X52480952Y-39028571D01*
X52528571Y-39076190D01*
X52576190Y-39171428D01*
X52576190Y-39552380D01*
X53052380Y-38552380D02*
X52052380Y-38552380D01*
X52052380Y-38219047D02*
X52052380Y-37647619D01*
X53052380Y-37933333D02*
X52052380Y-37933333D01*
X52576190Y-37123809D02*
X53052380Y-37123809D01*
X52052380Y-37457142D02*
X52576190Y-37123809D01*
X52052380Y-36790476D01*
X52957142Y-35695238D02*
X53004761Y-35647619D01*
X53052380Y-35695238D01*
X53004761Y-35742857D01*
X52957142Y-35695238D01*
X53052380Y-35695238D01*
X52671428Y-35695238D02*
X52100000Y-35742857D01*
X52052380Y-35695238D01*
X52100000Y-35647619D01*
X52671428Y-35695238D01*
X52052380Y-35695238D01*
X52957142Y-34457142D02*
X53004761Y-34409523D01*
X53052380Y-34457142D01*
X53004761Y-34504761D01*
X52957142Y-34457142D01*
X53052380Y-34457142D01*
X52671428Y-34457142D02*
X52100000Y-34504761D01*
X52052380Y-34457142D01*
X52100000Y-34409523D01*
X52671428Y-34457142D01*
X52052380Y-34457142D01*
D11*
%TO.C,RN4*%
X128701448Y-71071428D02*
X128501448Y-70785714D01*
X128358591Y-71071428D02*
X128358591Y-70471428D01*
X128587162Y-70471428D01*
X128644305Y-70500000D01*
X128672876Y-70528571D01*
X128701448Y-70585714D01*
X128701448Y-70671428D01*
X128672876Y-70728571D01*
X128644305Y-70757142D01*
X128587162Y-70785714D01*
X128358591Y-70785714D01*
X128958591Y-71071428D02*
X128958591Y-70471428D01*
X129301448Y-71071428D01*
X129301448Y-70471428D01*
X129844305Y-70671428D02*
X129844305Y-71071428D01*
X129701448Y-70442857D02*
X129558591Y-70871428D01*
X129930019Y-70871428D01*
%TO.C,R4*%
X91300000Y-85521428D02*
X91100000Y-85235714D01*
X90957142Y-85521428D02*
X90957142Y-84921428D01*
X91185714Y-84921428D01*
X91242857Y-84950000D01*
X91271428Y-84978571D01*
X91300000Y-85035714D01*
X91300000Y-85121428D01*
X91271428Y-85178571D01*
X91242857Y-85207142D01*
X91185714Y-85235714D01*
X90957142Y-85235714D01*
X91814285Y-85121428D02*
X91814285Y-85521428D01*
X91671428Y-84892857D02*
X91528571Y-85321428D01*
X91900000Y-85321428D01*
%TO.C,L2*%
X133671428Y-77900000D02*
X133671428Y-78185714D01*
X133071428Y-78185714D01*
X133128571Y-77728571D02*
X133100000Y-77700000D01*
X133071428Y-77642857D01*
X133071428Y-77500000D01*
X133100000Y-77442857D01*
X133128571Y-77414285D01*
X133185714Y-77385714D01*
X133242857Y-77385714D01*
X133328571Y-77414285D01*
X133671428Y-77757142D01*
X133671428Y-77385714D01*
%TO.C,SW4*%
X112200000Y-90442857D02*
X112285714Y-90471428D01*
X112428571Y-90471428D01*
X112485714Y-90442857D01*
X112514285Y-90414285D01*
X112542857Y-90357142D01*
X112542857Y-90300000D01*
X112514285Y-90242857D01*
X112485714Y-90214285D01*
X112428571Y-90185714D01*
X112314285Y-90157142D01*
X112257142Y-90128571D01*
X112228571Y-90100000D01*
X112200000Y-90042857D01*
X112200000Y-89985714D01*
X112228571Y-89928571D01*
X112257142Y-89900000D01*
X112314285Y-89871428D01*
X112457142Y-89871428D01*
X112542857Y-89900000D01*
X112742857Y-89871428D02*
X112885714Y-90471428D01*
X113000000Y-90042857D01*
X113114285Y-90471428D01*
X113257142Y-89871428D01*
X113742857Y-90071428D02*
X113742857Y-90471428D01*
X113600000Y-89842857D02*
X113457142Y-90271428D01*
X113828571Y-90271428D01*
%TO.C,JP1*%
X108221428Y-77200000D02*
X108650000Y-77200000D01*
X108735714Y-77228571D01*
X108792857Y-77285714D01*
X108821428Y-77371428D01*
X108821428Y-77428571D01*
X108821428Y-76914285D02*
X108221428Y-76914285D01*
X108221428Y-76685714D01*
X108250000Y-76628571D01*
X108278571Y-76600000D01*
X108335714Y-76571428D01*
X108421428Y-76571428D01*
X108478571Y-76600000D01*
X108507142Y-76628571D01*
X108535714Y-76685714D01*
X108535714Y-76914285D01*
X108821428Y-76000000D02*
X108821428Y-76342857D01*
X108821428Y-76171428D02*
X108221428Y-76171428D01*
X108307142Y-76228571D01*
X108364285Y-76285714D01*
X108392857Y-76342857D01*
%TO.C,L1*%
X72125734Y-75321428D02*
X71840019Y-75321428D01*
X71840019Y-74721428D01*
X72640019Y-75321428D02*
X72297162Y-75321428D01*
X72468591Y-75321428D02*
X72468591Y-74721428D01*
X72411448Y-74807142D01*
X72354305Y-74864285D01*
X72297162Y-74892857D01*
%TO.C,C2*%
X73250000Y-89714285D02*
X73221428Y-89742857D01*
X73135714Y-89771428D01*
X73078571Y-89771428D01*
X72992857Y-89742857D01*
X72935714Y-89685714D01*
X72907142Y-89628571D01*
X72878571Y-89514285D01*
X72878571Y-89428571D01*
X72907142Y-89314285D01*
X72935714Y-89257142D01*
X72992857Y-89200000D01*
X73078571Y-89171428D01*
X73135714Y-89171428D01*
X73221428Y-89200000D01*
X73250000Y-89228571D01*
X73478571Y-89228571D02*
X73507142Y-89200000D01*
X73564285Y-89171428D01*
X73707142Y-89171428D01*
X73764285Y-89200000D01*
X73792857Y-89228571D01*
X73821428Y-89285714D01*
X73821428Y-89342857D01*
X73792857Y-89428571D01*
X73450000Y-89771428D01*
X73821428Y-89771428D01*
%TO.C,RN2*%
X129321428Y-79364285D02*
X129035714Y-79564285D01*
X129321428Y-79707142D02*
X128721428Y-79707142D01*
X128721428Y-79478571D01*
X128750000Y-79421428D01*
X128778571Y-79392857D01*
X128835714Y-79364285D01*
X128921428Y-79364285D01*
X128978571Y-79392857D01*
X129007142Y-79421428D01*
X129035714Y-79478571D01*
X129035714Y-79707142D01*
X129321428Y-79107142D02*
X128721428Y-79107142D01*
X129321428Y-78764285D01*
X128721428Y-78764285D01*
X128778571Y-78507142D02*
X128750000Y-78478571D01*
X128721428Y-78421428D01*
X128721428Y-78278571D01*
X128750000Y-78221428D01*
X128778571Y-78192857D01*
X128835714Y-78164285D01*
X128892857Y-78164285D01*
X128978571Y-78192857D01*
X129321428Y-78535714D01*
X129321428Y-78164285D01*
%TO.C,C27*%
X111364285Y-74264285D02*
X111335714Y-74292857D01*
X111250000Y-74321428D01*
X111192857Y-74321428D01*
X111107142Y-74292857D01*
X111050000Y-74235714D01*
X111021428Y-74178571D01*
X110992857Y-74064285D01*
X110992857Y-73978571D01*
X111021428Y-73864285D01*
X111050000Y-73807142D01*
X111107142Y-73750000D01*
X111192857Y-73721428D01*
X111250000Y-73721428D01*
X111335714Y-73750000D01*
X111364285Y-73778571D01*
X111592857Y-73778571D02*
X111621428Y-73750000D01*
X111678571Y-73721428D01*
X111821428Y-73721428D01*
X111878571Y-73750000D01*
X111907142Y-73778571D01*
X111935714Y-73835714D01*
X111935714Y-73892857D01*
X111907142Y-73978571D01*
X111564285Y-74321428D01*
X111935714Y-74321428D01*
X112135714Y-73721428D02*
X112535714Y-73721428D01*
X112278571Y-74321428D01*
%TO.C,F1*%
X57825734Y-75257142D02*
X57625734Y-75257142D01*
X57625734Y-75571428D02*
X57625734Y-74971428D01*
X57911448Y-74971428D01*
X58454305Y-75571428D02*
X58111448Y-75571428D01*
X58282876Y-75571428D02*
X58282876Y-74971428D01*
X58225734Y-75057142D01*
X58168591Y-75114285D01*
X58111448Y-75142857D01*
%TO.C,C19*%
X117890019Y-91064285D02*
X117861448Y-91092857D01*
X117775734Y-91121428D01*
X117718591Y-91121428D01*
X117632876Y-91092857D01*
X117575734Y-91035714D01*
X117547162Y-90978571D01*
X117518591Y-90864285D01*
X117518591Y-90778571D01*
X117547162Y-90664285D01*
X117575734Y-90607142D01*
X117632876Y-90550000D01*
X117718591Y-90521428D01*
X117775734Y-90521428D01*
X117861448Y-90550000D01*
X117890019Y-90578571D01*
X118461448Y-91121428D02*
X118118591Y-91121428D01*
X118290019Y-91121428D02*
X118290019Y-90521428D01*
X118232876Y-90607142D01*
X118175734Y-90664285D01*
X118118591Y-90692857D01*
X118747162Y-91121428D02*
X118861448Y-91121428D01*
X118918591Y-91092857D01*
X118947162Y-91064285D01*
X119004305Y-90978571D01*
X119032876Y-90864285D01*
X119032876Y-90635714D01*
X119004305Y-90578571D01*
X118975734Y-90550000D01*
X118918591Y-90521428D01*
X118804305Y-90521428D01*
X118747162Y-90550000D01*
X118718591Y-90578571D01*
X118690019Y-90635714D01*
X118690019Y-90778571D01*
X118718591Y-90835714D01*
X118747162Y-90864285D01*
X118804305Y-90892857D01*
X118918591Y-90892857D01*
X118975734Y-90864285D01*
X119004305Y-90835714D01*
X119032876Y-90778571D01*
%TO.C,C13*%
X66214285Y-71185714D02*
X66242857Y-71214285D01*
X66271428Y-71300000D01*
X66271428Y-71357142D01*
X66242857Y-71442857D01*
X66185714Y-71500000D01*
X66128571Y-71528571D01*
X66014285Y-71557142D01*
X65928571Y-71557142D01*
X65814285Y-71528571D01*
X65757142Y-71500000D01*
X65700000Y-71442857D01*
X65671428Y-71357142D01*
X65671428Y-71300000D01*
X65700000Y-71214285D01*
X65728571Y-71185714D01*
X66271428Y-70614285D02*
X66271428Y-70957142D01*
X66271428Y-70785714D02*
X65671428Y-70785714D01*
X65757142Y-70842857D01*
X65814285Y-70900000D01*
X65842857Y-70957142D01*
X65671428Y-70414285D02*
X65671428Y-70042857D01*
X65900000Y-70242857D01*
X65900000Y-70157142D01*
X65928571Y-70100000D01*
X65957142Y-70071428D01*
X66014285Y-70042857D01*
X66157142Y-70042857D01*
X66214285Y-70071428D01*
X66242857Y-70100000D01*
X66271428Y-70157142D01*
X66271428Y-70328571D01*
X66242857Y-70385714D01*
X66214285Y-70414285D01*
%TO.C,R17*%
X108264285Y-70371428D02*
X108064285Y-70085714D01*
X107921428Y-70371428D02*
X107921428Y-69771428D01*
X108150000Y-69771428D01*
X108207142Y-69800000D01*
X108235714Y-69828571D01*
X108264285Y-69885714D01*
X108264285Y-69971428D01*
X108235714Y-70028571D01*
X108207142Y-70057142D01*
X108150000Y-70085714D01*
X107921428Y-70085714D01*
X108835714Y-70371428D02*
X108492857Y-70371428D01*
X108664285Y-70371428D02*
X108664285Y-69771428D01*
X108607142Y-69857142D01*
X108550000Y-69914285D01*
X108492857Y-69942857D01*
X109035714Y-69771428D02*
X109435714Y-69771428D01*
X109178571Y-70371428D01*
%TO.C,R5*%
X95900000Y-83521428D02*
X95700000Y-83235714D01*
X95557142Y-83521428D02*
X95557142Y-82921428D01*
X95785714Y-82921428D01*
X95842857Y-82950000D01*
X95871428Y-82978571D01*
X95900000Y-83035714D01*
X95900000Y-83121428D01*
X95871428Y-83178571D01*
X95842857Y-83207142D01*
X95785714Y-83235714D01*
X95557142Y-83235714D01*
X96442857Y-82921428D02*
X96157142Y-82921428D01*
X96128571Y-83207142D01*
X96157142Y-83178571D01*
X96214285Y-83150000D01*
X96357142Y-83150000D01*
X96414285Y-83178571D01*
X96442857Y-83207142D01*
X96471428Y-83264285D01*
X96471428Y-83407142D01*
X96442857Y-83464285D01*
X96414285Y-83492857D01*
X96357142Y-83521428D01*
X96214285Y-83521428D01*
X96157142Y-83492857D01*
X96128571Y-83464285D01*
%TO.C,C28*%
X133764285Y-90064285D02*
X133735714Y-90092857D01*
X133650000Y-90121428D01*
X133592857Y-90121428D01*
X133507142Y-90092857D01*
X133450000Y-90035714D01*
X133421428Y-89978571D01*
X133392857Y-89864285D01*
X133392857Y-89778571D01*
X133421428Y-89664285D01*
X133450000Y-89607142D01*
X133507142Y-89550000D01*
X133592857Y-89521428D01*
X133650000Y-89521428D01*
X133735714Y-89550000D01*
X133764285Y-89578571D01*
X133992857Y-89578571D02*
X134021428Y-89550000D01*
X134078571Y-89521428D01*
X134221428Y-89521428D01*
X134278571Y-89550000D01*
X134307142Y-89578571D01*
X134335714Y-89635714D01*
X134335714Y-89692857D01*
X134307142Y-89778571D01*
X133964285Y-90121428D01*
X134335714Y-90121428D01*
X134678571Y-89778571D02*
X134621428Y-89750000D01*
X134592857Y-89721428D01*
X134564285Y-89664285D01*
X134564285Y-89635714D01*
X134592857Y-89578571D01*
X134621428Y-89550000D01*
X134678571Y-89521428D01*
X134792857Y-89521428D01*
X134850000Y-89550000D01*
X134878571Y-89578571D01*
X134907142Y-89635714D01*
X134907142Y-89664285D01*
X134878571Y-89721428D01*
X134850000Y-89750000D01*
X134792857Y-89778571D01*
X134678571Y-89778571D01*
X134621428Y-89807142D01*
X134592857Y-89835714D01*
X134564285Y-89892857D01*
X134564285Y-90007142D01*
X134592857Y-90064285D01*
X134621428Y-90092857D01*
X134678571Y-90121428D01*
X134792857Y-90121428D01*
X134850000Y-90092857D01*
X134878571Y-90064285D01*
X134907142Y-90007142D01*
X134907142Y-89892857D01*
X134878571Y-89835714D01*
X134850000Y-89807142D01*
X134792857Y-89778571D01*
%TO.C,U1*%
X100318591Y-82871428D02*
X100318591Y-83357142D01*
X100347162Y-83414285D01*
X100375734Y-83442857D01*
X100432876Y-83471428D01*
X100547162Y-83471428D01*
X100604305Y-83442857D01*
X100632876Y-83414285D01*
X100661448Y-83357142D01*
X100661448Y-82871428D01*
X101261448Y-83471428D02*
X100918591Y-83471428D01*
X101090019Y-83471428D02*
X101090019Y-82871428D01*
X101032876Y-82957142D01*
X100975734Y-83014285D01*
X100918591Y-83042857D01*
%TO.C,TFT1*%
X118071428Y-62592857D02*
X118071428Y-62250000D01*
X118671428Y-62421428D02*
X118071428Y-62421428D01*
X118357142Y-61850000D02*
X118357142Y-62050000D01*
X118671428Y-62050000D02*
X118071428Y-62050000D01*
X118071428Y-61764285D01*
X118071428Y-61621428D02*
X118071428Y-61278571D01*
X118671428Y-61450000D02*
X118071428Y-61450000D01*
X118671428Y-60764285D02*
X118671428Y-61107142D01*
X118671428Y-60935714D02*
X118071428Y-60935714D01*
X118157142Y-60992857D01*
X118214285Y-61050000D01*
X118242857Y-61107142D01*
%TO.C,R12*%
X56740019Y-83621428D02*
X56540019Y-83335714D01*
X56397162Y-83621428D02*
X56397162Y-83021428D01*
X56625734Y-83021428D01*
X56682876Y-83050000D01*
X56711448Y-83078571D01*
X56740019Y-83135714D01*
X56740019Y-83221428D01*
X56711448Y-83278571D01*
X56682876Y-83307142D01*
X56625734Y-83335714D01*
X56397162Y-83335714D01*
X57311448Y-83621428D02*
X56968591Y-83621428D01*
X57140019Y-83621428D02*
X57140019Y-83021428D01*
X57082876Y-83107142D01*
X57025734Y-83164285D01*
X56968591Y-83192857D01*
X57540019Y-83078571D02*
X57568591Y-83050000D01*
X57625734Y-83021428D01*
X57768591Y-83021428D01*
X57825734Y-83050000D01*
X57854305Y-83078571D01*
X57882876Y-83135714D01*
X57882876Y-83192857D01*
X57854305Y-83278571D01*
X57511448Y-83621428D01*
X57882876Y-83621428D01*
%TO.C,C22*%
X136814285Y-80114285D02*
X136785714Y-80142857D01*
X136700000Y-80171428D01*
X136642857Y-80171428D01*
X136557142Y-80142857D01*
X136500000Y-80085714D01*
X136471428Y-80028571D01*
X136442857Y-79914285D01*
X136442857Y-79828571D01*
X136471428Y-79714285D01*
X136500000Y-79657142D01*
X136557142Y-79600000D01*
X136642857Y-79571428D01*
X136700000Y-79571428D01*
X136785714Y-79600000D01*
X136814285Y-79628571D01*
X137042857Y-79628571D02*
X137071428Y-79600000D01*
X137128571Y-79571428D01*
X137271428Y-79571428D01*
X137328571Y-79600000D01*
X137357142Y-79628571D01*
X137385714Y-79685714D01*
X137385714Y-79742857D01*
X137357142Y-79828571D01*
X137014285Y-80171428D01*
X137385714Y-80171428D01*
X137614285Y-79628571D02*
X137642857Y-79600000D01*
X137700000Y-79571428D01*
X137842857Y-79571428D01*
X137900000Y-79600000D01*
X137928571Y-79628571D01*
X137957142Y-79685714D01*
X137957142Y-79742857D01*
X137928571Y-79828571D01*
X137585714Y-80171428D01*
X137957142Y-80171428D01*
%TO.C,C16*%
X121114285Y-71414285D02*
X121085714Y-71442857D01*
X121000000Y-71471428D01*
X120942857Y-71471428D01*
X120857142Y-71442857D01*
X120800000Y-71385714D01*
X120771428Y-71328571D01*
X120742857Y-71214285D01*
X120742857Y-71128571D01*
X120771428Y-71014285D01*
X120800000Y-70957142D01*
X120857142Y-70900000D01*
X120942857Y-70871428D01*
X121000000Y-70871428D01*
X121085714Y-70900000D01*
X121114285Y-70928571D01*
X121685714Y-71471428D02*
X121342857Y-71471428D01*
X121514285Y-71471428D02*
X121514285Y-70871428D01*
X121457142Y-70957142D01*
X121400000Y-71014285D01*
X121342857Y-71042857D01*
X122200000Y-70871428D02*
X122085714Y-70871428D01*
X122028571Y-70900000D01*
X122000000Y-70928571D01*
X121942857Y-71014285D01*
X121914285Y-71128571D01*
X121914285Y-71357142D01*
X121942857Y-71414285D01*
X121971428Y-71442857D01*
X122028571Y-71471428D01*
X122142857Y-71471428D01*
X122200000Y-71442857D01*
X122228571Y-71414285D01*
X122257142Y-71357142D01*
X122257142Y-71214285D01*
X122228571Y-71157142D01*
X122200000Y-71128571D01*
X122142857Y-71100000D01*
X122028571Y-71100000D01*
X121971428Y-71128571D01*
X121942857Y-71157142D01*
X121914285Y-71214285D01*
%TO.C,C5*%
X76150000Y-80214285D02*
X76121428Y-80242857D01*
X76035714Y-80271428D01*
X75978571Y-80271428D01*
X75892857Y-80242857D01*
X75835714Y-80185714D01*
X75807142Y-80128571D01*
X75778571Y-80014285D01*
X75778571Y-79928571D01*
X75807142Y-79814285D01*
X75835714Y-79757142D01*
X75892857Y-79700000D01*
X75978571Y-79671428D01*
X76035714Y-79671428D01*
X76121428Y-79700000D01*
X76150000Y-79728571D01*
X76692857Y-79671428D02*
X76407142Y-79671428D01*
X76378571Y-79957142D01*
X76407142Y-79928571D01*
X76464285Y-79900000D01*
X76607142Y-79900000D01*
X76664285Y-79928571D01*
X76692857Y-79957142D01*
X76721428Y-80014285D01*
X76721428Y-80157142D01*
X76692857Y-80214285D01*
X76664285Y-80242857D01*
X76607142Y-80271428D01*
X76464285Y-80271428D01*
X76407142Y-80242857D01*
X76378571Y-80214285D01*
%TO.C,Q2*%
X103092857Y-71478571D02*
X103035714Y-71450000D01*
X102978571Y-71392857D01*
X102892857Y-71307142D01*
X102835714Y-71278571D01*
X102778571Y-71278571D01*
X102807142Y-71421428D02*
X102750000Y-71392857D01*
X102692857Y-71335714D01*
X102664285Y-71221428D01*
X102664285Y-71021428D01*
X102692857Y-70907142D01*
X102750000Y-70850000D01*
X102807142Y-70821428D01*
X102921428Y-70821428D01*
X102978571Y-70850000D01*
X103035714Y-70907142D01*
X103064285Y-71021428D01*
X103064285Y-71221428D01*
X103035714Y-71335714D01*
X102978571Y-71392857D01*
X102921428Y-71421428D01*
X102807142Y-71421428D01*
X103292857Y-70878571D02*
X103321428Y-70850000D01*
X103378571Y-70821428D01*
X103521428Y-70821428D01*
X103578571Y-70850000D01*
X103607142Y-70878571D01*
X103635714Y-70935714D01*
X103635714Y-70992857D01*
X103607142Y-71078571D01*
X103264285Y-71421428D01*
X103635714Y-71421428D01*
%TO.C,C6*%
X81314285Y-75550000D02*
X81342857Y-75578571D01*
X81371428Y-75664285D01*
X81371428Y-75721428D01*
X81342857Y-75807142D01*
X81285714Y-75864285D01*
X81228571Y-75892857D01*
X81114285Y-75921428D01*
X81028571Y-75921428D01*
X80914285Y-75892857D01*
X80857142Y-75864285D01*
X80800000Y-75807142D01*
X80771428Y-75721428D01*
X80771428Y-75664285D01*
X80800000Y-75578571D01*
X80828571Y-75550000D01*
X80771428Y-75035714D02*
X80771428Y-75150000D01*
X80800000Y-75207142D01*
X80828571Y-75235714D01*
X80914285Y-75292857D01*
X81028571Y-75321428D01*
X81257142Y-75321428D01*
X81314285Y-75292857D01*
X81342857Y-75264285D01*
X81371428Y-75207142D01*
X81371428Y-75092857D01*
X81342857Y-75035714D01*
X81314285Y-75007142D01*
X81257142Y-74978571D01*
X81114285Y-74978571D01*
X81057142Y-75007142D01*
X81028571Y-75035714D01*
X81000000Y-75092857D01*
X81000000Y-75207142D01*
X81028571Y-75264285D01*
X81057142Y-75292857D01*
X81114285Y-75321428D01*
%TO.C,R11*%
X85914285Y-90271428D02*
X85714285Y-89985714D01*
X85571428Y-90271428D02*
X85571428Y-89671428D01*
X85800000Y-89671428D01*
X85857142Y-89700000D01*
X85885714Y-89728571D01*
X85914285Y-89785714D01*
X85914285Y-89871428D01*
X85885714Y-89928571D01*
X85857142Y-89957142D01*
X85800000Y-89985714D01*
X85571428Y-89985714D01*
X86485714Y-90271428D02*
X86142857Y-90271428D01*
X86314285Y-90271428D02*
X86314285Y-89671428D01*
X86257142Y-89757142D01*
X86200000Y-89814285D01*
X86142857Y-89842857D01*
X87057142Y-90271428D02*
X86714285Y-90271428D01*
X86885714Y-90271428D02*
X86885714Y-89671428D01*
X86828571Y-89757142D01*
X86771428Y-89814285D01*
X86714285Y-89842857D01*
%TO.C,U6*%
X85842857Y-70821428D02*
X85842857Y-71307142D01*
X85871428Y-71364285D01*
X85900000Y-71392857D01*
X85957142Y-71421428D01*
X86071428Y-71421428D01*
X86128571Y-71392857D01*
X86157142Y-71364285D01*
X86185714Y-71307142D01*
X86185714Y-70821428D01*
X86728571Y-70821428D02*
X86614285Y-70821428D01*
X86557142Y-70850000D01*
X86528571Y-70878571D01*
X86471428Y-70964285D01*
X86442857Y-71078571D01*
X86442857Y-71307142D01*
X86471428Y-71364285D01*
X86500000Y-71392857D01*
X86557142Y-71421428D01*
X86671428Y-71421428D01*
X86728571Y-71392857D01*
X86757142Y-71364285D01*
X86785714Y-71307142D01*
X86785714Y-71164285D01*
X86757142Y-71107142D01*
X86728571Y-71078571D01*
X86671428Y-71050000D01*
X86557142Y-71050000D01*
X86500000Y-71078571D01*
X86471428Y-71107142D01*
X86442857Y-71164285D01*
%TO.C,SW1*%
X79550000Y-90092857D02*
X79635714Y-90121428D01*
X79778571Y-90121428D01*
X79835714Y-90092857D01*
X79864285Y-90064285D01*
X79892857Y-90007142D01*
X79892857Y-89950000D01*
X79864285Y-89892857D01*
X79835714Y-89864285D01*
X79778571Y-89835714D01*
X79664285Y-89807142D01*
X79607142Y-89778571D01*
X79578571Y-89750000D01*
X79550000Y-89692857D01*
X79550000Y-89635714D01*
X79578571Y-89578571D01*
X79607142Y-89550000D01*
X79664285Y-89521428D01*
X79807142Y-89521428D01*
X79892857Y-89550000D01*
X80092857Y-89521428D02*
X80235714Y-90121428D01*
X80350000Y-89692857D01*
X80464285Y-90121428D01*
X80607142Y-89521428D01*
X81150000Y-90121428D02*
X80807142Y-90121428D01*
X80978571Y-90121428D02*
X80978571Y-89521428D01*
X80921428Y-89607142D01*
X80864285Y-89664285D01*
X80807142Y-89692857D01*
%TO.C,U5*%
X110392857Y-74921428D02*
X110392857Y-75407142D01*
X110421428Y-75464285D01*
X110450000Y-75492857D01*
X110507142Y-75521428D01*
X110621428Y-75521428D01*
X110678571Y-75492857D01*
X110707142Y-75464285D01*
X110735714Y-75407142D01*
X110735714Y-74921428D01*
X111307142Y-74921428D02*
X111021428Y-74921428D01*
X110992857Y-75207142D01*
X111021428Y-75178571D01*
X111078571Y-75150000D01*
X111221428Y-75150000D01*
X111278571Y-75178571D01*
X111307142Y-75207142D01*
X111335714Y-75264285D01*
X111335714Y-75407142D01*
X111307142Y-75464285D01*
X111278571Y-75492857D01*
X111221428Y-75521428D01*
X111078571Y-75521428D01*
X111021428Y-75492857D01*
X110992857Y-75464285D01*
%TO.C,U3*%
X59092857Y-78371428D02*
X59092857Y-78857142D01*
X59121428Y-78914285D01*
X59150000Y-78942857D01*
X59207142Y-78971428D01*
X59321428Y-78971428D01*
X59378571Y-78942857D01*
X59407142Y-78914285D01*
X59435714Y-78857142D01*
X59435714Y-78371428D01*
X59664285Y-78371428D02*
X60035714Y-78371428D01*
X59835714Y-78600000D01*
X59921428Y-78600000D01*
X59978571Y-78628571D01*
X60007142Y-78657142D01*
X60035714Y-78714285D01*
X60035714Y-78857142D01*
X60007142Y-78914285D01*
X59978571Y-78942857D01*
X59921428Y-78971428D01*
X59750000Y-78971428D01*
X59692857Y-78942857D01*
X59664285Y-78914285D01*
%TO.C,R6*%
X84371428Y-81050000D02*
X84085714Y-81250000D01*
X84371428Y-81392857D02*
X83771428Y-81392857D01*
X83771428Y-81164285D01*
X83800000Y-81107142D01*
X83828571Y-81078571D01*
X83885714Y-81050000D01*
X83971428Y-81050000D01*
X84028571Y-81078571D01*
X84057142Y-81107142D01*
X84085714Y-81164285D01*
X84085714Y-81392857D01*
X83771428Y-80535714D02*
X83771428Y-80650000D01*
X83800000Y-80707142D01*
X83828571Y-80735714D01*
X83914285Y-80792857D01*
X84028571Y-80821428D01*
X84257142Y-80821428D01*
X84314285Y-80792857D01*
X84342857Y-80764285D01*
X84371428Y-80707142D01*
X84371428Y-80592857D01*
X84342857Y-80535714D01*
X84314285Y-80507142D01*
X84257142Y-80478571D01*
X84114285Y-80478571D01*
X84057142Y-80507142D01*
X84028571Y-80535714D01*
X84000000Y-80592857D01*
X84000000Y-80707142D01*
X84028571Y-80764285D01*
X84057142Y-80792857D01*
X84114285Y-80821428D01*
%TO.C,R18*%
X135171428Y-70685714D02*
X134885714Y-70885714D01*
X135171428Y-71028571D02*
X134571428Y-71028571D01*
X134571428Y-70800000D01*
X134600000Y-70742857D01*
X134628571Y-70714285D01*
X134685714Y-70685714D01*
X134771428Y-70685714D01*
X134828571Y-70714285D01*
X134857142Y-70742857D01*
X134885714Y-70800000D01*
X134885714Y-71028571D01*
X135171428Y-70114285D02*
X135171428Y-70457142D01*
X135171428Y-70285714D02*
X134571428Y-70285714D01*
X134657142Y-70342857D01*
X134714285Y-70400000D01*
X134742857Y-70457142D01*
X134828571Y-69771428D02*
X134800000Y-69828571D01*
X134771428Y-69857142D01*
X134714285Y-69885714D01*
X134685714Y-69885714D01*
X134628571Y-69857142D01*
X134600000Y-69828571D01*
X134571428Y-69771428D01*
X134571428Y-69657142D01*
X134600000Y-69600000D01*
X134628571Y-69571428D01*
X134685714Y-69542857D01*
X134714285Y-69542857D01*
X134771428Y-69571428D01*
X134800000Y-69600000D01*
X134828571Y-69657142D01*
X134828571Y-69771428D01*
X134857142Y-69828571D01*
X134885714Y-69857142D01*
X134942857Y-69885714D01*
X135057142Y-69885714D01*
X135114285Y-69857142D01*
X135142857Y-69828571D01*
X135171428Y-69771428D01*
X135171428Y-69657142D01*
X135142857Y-69600000D01*
X135114285Y-69571428D01*
X135057142Y-69542857D01*
X134942857Y-69542857D01*
X134885714Y-69571428D01*
X134857142Y-69600000D01*
X134828571Y-69657142D01*
%TO.C,L3*%
X135500000Y-85021428D02*
X135214285Y-85021428D01*
X135214285Y-84421428D01*
X135642857Y-84421428D02*
X136014285Y-84421428D01*
X135814285Y-84650000D01*
X135900000Y-84650000D01*
X135957142Y-84678571D01*
X135985714Y-84707142D01*
X136014285Y-84764285D01*
X136014285Y-84907142D01*
X135985714Y-84964285D01*
X135957142Y-84992857D01*
X135900000Y-85021428D01*
X135728571Y-85021428D01*
X135671428Y-84992857D01*
X135642857Y-84964285D01*
%TO.C,Q1*%
X93342857Y-77728571D02*
X93285714Y-77700000D01*
X93228571Y-77642857D01*
X93142857Y-77557142D01*
X93085714Y-77528571D01*
X93028571Y-77528571D01*
X93057142Y-77671428D02*
X93000000Y-77642857D01*
X92942857Y-77585714D01*
X92914285Y-77471428D01*
X92914285Y-77271428D01*
X92942857Y-77157142D01*
X93000000Y-77100000D01*
X93057142Y-77071428D01*
X93171428Y-77071428D01*
X93228571Y-77100000D01*
X93285714Y-77157142D01*
X93314285Y-77271428D01*
X93314285Y-77471428D01*
X93285714Y-77585714D01*
X93228571Y-77642857D01*
X93171428Y-77671428D01*
X93057142Y-77671428D01*
X93885714Y-77671428D02*
X93542857Y-77671428D01*
X93714285Y-77671428D02*
X93714285Y-77071428D01*
X93657142Y-77157142D01*
X93600000Y-77214285D01*
X93542857Y-77242857D01*
%TO.C,C11*%
X64814285Y-89714285D02*
X64785714Y-89742857D01*
X64700000Y-89771428D01*
X64642857Y-89771428D01*
X64557142Y-89742857D01*
X64500000Y-89685714D01*
X64471428Y-89628571D01*
X64442857Y-89514285D01*
X64442857Y-89428571D01*
X64471428Y-89314285D01*
X64500000Y-89257142D01*
X64557142Y-89200000D01*
X64642857Y-89171428D01*
X64700000Y-89171428D01*
X64785714Y-89200000D01*
X64814285Y-89228571D01*
X65385714Y-89771428D02*
X65042857Y-89771428D01*
X65214285Y-89771428D02*
X65214285Y-89171428D01*
X65157142Y-89257142D01*
X65100000Y-89314285D01*
X65042857Y-89342857D01*
X65957142Y-89771428D02*
X65614285Y-89771428D01*
X65785714Y-89771428D02*
X65785714Y-89171428D01*
X65728571Y-89257142D01*
X65671428Y-89314285D01*
X65614285Y-89342857D01*
%TO.C,C12*%
X62814285Y-71035714D02*
X62842857Y-71064285D01*
X62871428Y-71150000D01*
X62871428Y-71207142D01*
X62842857Y-71292857D01*
X62785714Y-71350000D01*
X62728571Y-71378571D01*
X62614285Y-71407142D01*
X62528571Y-71407142D01*
X62414285Y-71378571D01*
X62357142Y-71350000D01*
X62300000Y-71292857D01*
X62271428Y-71207142D01*
X62271428Y-71150000D01*
X62300000Y-71064285D01*
X62328571Y-71035714D01*
X62871428Y-70464285D02*
X62871428Y-70807142D01*
X62871428Y-70635714D02*
X62271428Y-70635714D01*
X62357142Y-70692857D01*
X62414285Y-70750000D01*
X62442857Y-70807142D01*
X62328571Y-70235714D02*
X62300000Y-70207142D01*
X62271428Y-70150000D01*
X62271428Y-70007142D01*
X62300000Y-69950000D01*
X62328571Y-69921428D01*
X62385714Y-69892857D01*
X62442857Y-69892857D01*
X62528571Y-69921428D01*
X62871428Y-70264285D01*
X62871428Y-69892857D01*
%TO.C,C7*%
X81000000Y-77814285D02*
X80971428Y-77842857D01*
X80885714Y-77871428D01*
X80828571Y-77871428D01*
X80742857Y-77842857D01*
X80685714Y-77785714D01*
X80657142Y-77728571D01*
X80628571Y-77614285D01*
X80628571Y-77528571D01*
X80657142Y-77414285D01*
X80685714Y-77357142D01*
X80742857Y-77300000D01*
X80828571Y-77271428D01*
X80885714Y-77271428D01*
X80971428Y-77300000D01*
X81000000Y-77328571D01*
X81200000Y-77271428D02*
X81600000Y-77271428D01*
X81342857Y-77871428D01*
%TO.C,RN3*%
X112971428Y-86164285D02*
X112685714Y-86364285D01*
X112971428Y-86507142D02*
X112371428Y-86507142D01*
X112371428Y-86278571D01*
X112400000Y-86221428D01*
X112428571Y-86192857D01*
X112485714Y-86164285D01*
X112571428Y-86164285D01*
X112628571Y-86192857D01*
X112657142Y-86221428D01*
X112685714Y-86278571D01*
X112685714Y-86507142D01*
X112971428Y-85907142D02*
X112371428Y-85907142D01*
X112971428Y-85564285D01*
X112371428Y-85564285D01*
X112371428Y-85335714D02*
X112371428Y-84964285D01*
X112600000Y-85164285D01*
X112600000Y-85078571D01*
X112628571Y-85021428D01*
X112657142Y-84992857D01*
X112714285Y-84964285D01*
X112857142Y-84964285D01*
X112914285Y-84992857D01*
X112942857Y-85021428D01*
X112971428Y-85078571D01*
X112971428Y-85250000D01*
X112942857Y-85307142D01*
X112914285Y-85335714D01*
%TO.C,C29*%
X85764285Y-77214285D02*
X85735714Y-77242857D01*
X85650000Y-77271428D01*
X85592857Y-77271428D01*
X85507142Y-77242857D01*
X85450000Y-77185714D01*
X85421428Y-77128571D01*
X85392857Y-77014285D01*
X85392857Y-76928571D01*
X85421428Y-76814285D01*
X85450000Y-76757142D01*
X85507142Y-76700000D01*
X85592857Y-76671428D01*
X85650000Y-76671428D01*
X85735714Y-76700000D01*
X85764285Y-76728571D01*
X85992857Y-76728571D02*
X86021428Y-76700000D01*
X86078571Y-76671428D01*
X86221428Y-76671428D01*
X86278571Y-76700000D01*
X86307142Y-76728571D01*
X86335714Y-76785714D01*
X86335714Y-76842857D01*
X86307142Y-76928571D01*
X85964285Y-77271428D01*
X86335714Y-77271428D01*
X86621428Y-77271428D02*
X86735714Y-77271428D01*
X86792857Y-77242857D01*
X86821428Y-77214285D01*
X86878571Y-77128571D01*
X86907142Y-77014285D01*
X86907142Y-76785714D01*
X86878571Y-76728571D01*
X86850000Y-76700000D01*
X86792857Y-76671428D01*
X86678571Y-76671428D01*
X86621428Y-76700000D01*
X86592857Y-76728571D01*
X86564285Y-76785714D01*
X86564285Y-76928571D01*
X86592857Y-76985714D01*
X86621428Y-77014285D01*
X86678571Y-77042857D01*
X86792857Y-77042857D01*
X86850000Y-77014285D01*
X86878571Y-76985714D01*
X86907142Y-76928571D01*
%TO.C,D1*%
X45057142Y-86971428D02*
X45057142Y-86371428D01*
X45200000Y-86371428D01*
X45285714Y-86400000D01*
X45342857Y-86457142D01*
X45371428Y-86514285D01*
X45400000Y-86628571D01*
X45400000Y-86714285D01*
X45371428Y-86828571D01*
X45342857Y-86885714D01*
X45285714Y-86942857D01*
X45200000Y-86971428D01*
X45057142Y-86971428D01*
X45971428Y-86971428D02*
X45628571Y-86971428D01*
X45800000Y-86971428D02*
X45800000Y-86371428D01*
X45742857Y-86457142D01*
X45685714Y-86514285D01*
X45628571Y-86542857D01*
%TO.C,R1*%
X82621428Y-81050000D02*
X82335714Y-81250000D01*
X82621428Y-81392857D02*
X82021428Y-81392857D01*
X82021428Y-81164285D01*
X82050000Y-81107142D01*
X82078571Y-81078571D01*
X82135714Y-81050000D01*
X82221428Y-81050000D01*
X82278571Y-81078571D01*
X82307142Y-81107142D01*
X82335714Y-81164285D01*
X82335714Y-81392857D01*
X82621428Y-80478571D02*
X82621428Y-80821428D01*
X82621428Y-80650000D02*
X82021428Y-80650000D01*
X82107142Y-80707142D01*
X82164285Y-80764285D01*
X82192857Y-80821428D01*
%TO.C,R8*%
X61350000Y-89921428D02*
X61150000Y-89635714D01*
X61007142Y-89921428D02*
X61007142Y-89321428D01*
X61235714Y-89321428D01*
X61292857Y-89350000D01*
X61321428Y-89378571D01*
X61350000Y-89435714D01*
X61350000Y-89521428D01*
X61321428Y-89578571D01*
X61292857Y-89607142D01*
X61235714Y-89635714D01*
X61007142Y-89635714D01*
X61692857Y-89578571D02*
X61635714Y-89550000D01*
X61607142Y-89521428D01*
X61578571Y-89464285D01*
X61578571Y-89435714D01*
X61607142Y-89378571D01*
X61635714Y-89350000D01*
X61692857Y-89321428D01*
X61807142Y-89321428D01*
X61864285Y-89350000D01*
X61892857Y-89378571D01*
X61921428Y-89435714D01*
X61921428Y-89464285D01*
X61892857Y-89521428D01*
X61864285Y-89550000D01*
X61807142Y-89578571D01*
X61692857Y-89578571D01*
X61635714Y-89607142D01*
X61607142Y-89635714D01*
X61578571Y-89692857D01*
X61578571Y-89807142D01*
X61607142Y-89864285D01*
X61635714Y-89892857D01*
X61692857Y-89921428D01*
X61807142Y-89921428D01*
X61864285Y-89892857D01*
X61892857Y-89864285D01*
X61921428Y-89807142D01*
X61921428Y-89692857D01*
X61892857Y-89635714D01*
X61864285Y-89607142D01*
X61807142Y-89578571D01*
%TO.C,R21*%
X120197162Y-91135714D02*
X119911448Y-91335714D01*
X120197162Y-91478571D02*
X119597162Y-91478571D01*
X119597162Y-91250000D01*
X119625734Y-91192857D01*
X119654305Y-91164285D01*
X119711448Y-91135714D01*
X119797162Y-91135714D01*
X119854305Y-91164285D01*
X119882876Y-91192857D01*
X119911448Y-91250000D01*
X119911448Y-91478571D01*
X119654305Y-90907142D02*
X119625734Y-90878571D01*
X119597162Y-90821428D01*
X119597162Y-90678571D01*
X119625734Y-90621428D01*
X119654305Y-90592857D01*
X119711448Y-90564285D01*
X119768591Y-90564285D01*
X119854305Y-90592857D01*
X120197162Y-90935714D01*
X120197162Y-90564285D01*
X120197162Y-89992857D02*
X120197162Y-90335714D01*
X120197162Y-90164285D02*
X119597162Y-90164285D01*
X119682876Y-90221428D01*
X119740019Y-90278571D01*
X119768591Y-90335714D01*
%TO.C,U4*%
X117642857Y-85421428D02*
X117642857Y-85907142D01*
X117671428Y-85964285D01*
X117700000Y-85992857D01*
X117757142Y-86021428D01*
X117871428Y-86021428D01*
X117928571Y-85992857D01*
X117957142Y-85964285D01*
X117985714Y-85907142D01*
X117985714Y-85421428D01*
X118528571Y-85621428D02*
X118528571Y-86021428D01*
X118385714Y-85392857D02*
X118242857Y-85821428D01*
X118614285Y-85821428D01*
%TO.C,R16*%
X136421428Y-70685714D02*
X136135714Y-70885714D01*
X136421428Y-71028571D02*
X135821428Y-71028571D01*
X135821428Y-70800000D01*
X135850000Y-70742857D01*
X135878571Y-70714285D01*
X135935714Y-70685714D01*
X136021428Y-70685714D01*
X136078571Y-70714285D01*
X136107142Y-70742857D01*
X136135714Y-70800000D01*
X136135714Y-71028571D01*
X136421428Y-70114285D02*
X136421428Y-70457142D01*
X136421428Y-70285714D02*
X135821428Y-70285714D01*
X135907142Y-70342857D01*
X135964285Y-70400000D01*
X135992857Y-70457142D01*
X135821428Y-69600000D02*
X135821428Y-69714285D01*
X135850000Y-69771428D01*
X135878571Y-69800000D01*
X135964285Y-69857142D01*
X136078571Y-69885714D01*
X136307142Y-69885714D01*
X136364285Y-69857142D01*
X136392857Y-69828571D01*
X136421428Y-69771428D01*
X136421428Y-69657142D01*
X136392857Y-69600000D01*
X136364285Y-69571428D01*
X136307142Y-69542857D01*
X136164285Y-69542857D01*
X136107142Y-69571428D01*
X136078571Y-69600000D01*
X136050000Y-69657142D01*
X136050000Y-69771428D01*
X136078571Y-69828571D01*
X136107142Y-69857142D01*
X136164285Y-69885714D01*
%TO.C,RN1*%
X112921428Y-83514285D02*
X112635714Y-83714285D01*
X112921428Y-83857142D02*
X112321428Y-83857142D01*
X112321428Y-83628571D01*
X112350000Y-83571428D01*
X112378571Y-83542857D01*
X112435714Y-83514285D01*
X112521428Y-83514285D01*
X112578571Y-83542857D01*
X112607142Y-83571428D01*
X112635714Y-83628571D01*
X112635714Y-83857142D01*
X112921428Y-83257142D02*
X112321428Y-83257142D01*
X112921428Y-82914285D01*
X112321428Y-82914285D01*
X112921428Y-82314285D02*
X112921428Y-82657142D01*
X112921428Y-82485714D02*
X112321428Y-82485714D01*
X112407142Y-82542857D01*
X112464285Y-82600000D01*
X112492857Y-82657142D01*
%TO.C,Y1*%
X123414285Y-90835714D02*
X123414285Y-91121428D01*
X123214285Y-90521428D02*
X123414285Y-90835714D01*
X123614285Y-90521428D01*
X124128571Y-91121428D02*
X123785714Y-91121428D01*
X123957142Y-91121428D02*
X123957142Y-90521428D01*
X123900000Y-90607142D01*
X123842857Y-90664285D01*
X123785714Y-90692857D01*
%TO.C,R23*%
X131914285Y-71071428D02*
X131714285Y-70785714D01*
X131571428Y-71071428D02*
X131571428Y-70471428D01*
X131800000Y-70471428D01*
X131857142Y-70500000D01*
X131885714Y-70528571D01*
X131914285Y-70585714D01*
X131914285Y-70671428D01*
X131885714Y-70728571D01*
X131857142Y-70757142D01*
X131800000Y-70785714D01*
X131571428Y-70785714D01*
X132142857Y-70528571D02*
X132171428Y-70500000D01*
X132228571Y-70471428D01*
X132371428Y-70471428D01*
X132428571Y-70500000D01*
X132457142Y-70528571D01*
X132485714Y-70585714D01*
X132485714Y-70642857D01*
X132457142Y-70728571D01*
X132114285Y-71071428D01*
X132485714Y-71071428D01*
X132685714Y-70471428D02*
X133057142Y-70471428D01*
X132857142Y-70700000D01*
X132942857Y-70700000D01*
X133000000Y-70728571D01*
X133028571Y-70757142D01*
X133057142Y-70814285D01*
X133057142Y-70957142D01*
X133028571Y-71014285D01*
X133000000Y-71042857D01*
X132942857Y-71071428D01*
X132771428Y-71071428D01*
X132714285Y-71042857D01*
X132685714Y-71014285D01*
%TO.C,SW5*%
X104700000Y-90442857D02*
X104785714Y-90471428D01*
X104928571Y-90471428D01*
X104985714Y-90442857D01*
X105014285Y-90414285D01*
X105042857Y-90357142D01*
X105042857Y-90300000D01*
X105014285Y-90242857D01*
X104985714Y-90214285D01*
X104928571Y-90185714D01*
X104814285Y-90157142D01*
X104757142Y-90128571D01*
X104728571Y-90100000D01*
X104700000Y-90042857D01*
X104700000Y-89985714D01*
X104728571Y-89928571D01*
X104757142Y-89900000D01*
X104814285Y-89871428D01*
X104957142Y-89871428D01*
X105042857Y-89900000D01*
X105242857Y-89871428D02*
X105385714Y-90471428D01*
X105500000Y-90042857D01*
X105614285Y-90471428D01*
X105757142Y-89871428D01*
X106271428Y-89871428D02*
X105985714Y-89871428D01*
X105957142Y-90157142D01*
X105985714Y-90128571D01*
X106042857Y-90100000D01*
X106185714Y-90100000D01*
X106242857Y-90128571D01*
X106271428Y-90157142D01*
X106300000Y-90214285D01*
X106300000Y-90357142D01*
X106271428Y-90414285D01*
X106242857Y-90442857D01*
X106185714Y-90471428D01*
X106042857Y-90471428D01*
X105985714Y-90442857D01*
X105957142Y-90414285D01*
%TO.C,R14*%
X129364285Y-90821428D02*
X129164285Y-90535714D01*
X129021428Y-90821428D02*
X129021428Y-90221428D01*
X129250000Y-90221428D01*
X129307142Y-90250000D01*
X129335714Y-90278571D01*
X129364285Y-90335714D01*
X129364285Y-90421428D01*
X129335714Y-90478571D01*
X129307142Y-90507142D01*
X129250000Y-90535714D01*
X129021428Y-90535714D01*
X129935714Y-90821428D02*
X129592857Y-90821428D01*
X129764285Y-90821428D02*
X129764285Y-90221428D01*
X129707142Y-90307142D01*
X129650000Y-90364285D01*
X129592857Y-90392857D01*
X130450000Y-90421428D02*
X130450000Y-90821428D01*
X130307142Y-90192857D02*
X130164285Y-90621428D01*
X130535714Y-90621428D01*
%TO.C,C21*%
X132914285Y-80214285D02*
X132885714Y-80242857D01*
X132800000Y-80271428D01*
X132742857Y-80271428D01*
X132657142Y-80242857D01*
X132600000Y-80185714D01*
X132571428Y-80128571D01*
X132542857Y-80014285D01*
X132542857Y-79928571D01*
X132571428Y-79814285D01*
X132600000Y-79757142D01*
X132657142Y-79700000D01*
X132742857Y-79671428D01*
X132800000Y-79671428D01*
X132885714Y-79700000D01*
X132914285Y-79728571D01*
X133142857Y-79728571D02*
X133171428Y-79700000D01*
X133228571Y-79671428D01*
X133371428Y-79671428D01*
X133428571Y-79700000D01*
X133457142Y-79728571D01*
X133485714Y-79785714D01*
X133485714Y-79842857D01*
X133457142Y-79928571D01*
X133114285Y-80271428D01*
X133485714Y-80271428D01*
X134057142Y-80271428D02*
X133714285Y-80271428D01*
X133885714Y-80271428D02*
X133885714Y-79671428D01*
X133828571Y-79757142D01*
X133771428Y-79814285D01*
X133714285Y-79842857D01*
%TO.C,D2*%
X53921428Y-84242857D02*
X53321428Y-84242857D01*
X53321428Y-84100000D01*
X53350000Y-84014285D01*
X53407142Y-83957142D01*
X53464285Y-83928571D01*
X53578571Y-83900000D01*
X53664285Y-83900000D01*
X53778571Y-83928571D01*
X53835714Y-83957142D01*
X53892857Y-84014285D01*
X53921428Y-84100000D01*
X53921428Y-84242857D01*
X53378571Y-83671428D02*
X53350000Y-83642857D01*
X53321428Y-83585714D01*
X53321428Y-83442857D01*
X53350000Y-83385714D01*
X53378571Y-83357142D01*
X53435714Y-83328571D01*
X53492857Y-83328571D01*
X53578571Y-83357142D01*
X53921428Y-83700000D01*
X53921428Y-83328571D01*
%TO.C,R9*%
X66700000Y-89771428D02*
X66500000Y-89485714D01*
X66357142Y-89771428D02*
X66357142Y-89171428D01*
X66585714Y-89171428D01*
X66642857Y-89200000D01*
X66671428Y-89228571D01*
X66700000Y-89285714D01*
X66700000Y-89371428D01*
X66671428Y-89428571D01*
X66642857Y-89457142D01*
X66585714Y-89485714D01*
X66357142Y-89485714D01*
X66985714Y-89771428D02*
X67100000Y-89771428D01*
X67157142Y-89742857D01*
X67185714Y-89714285D01*
X67242857Y-89628571D01*
X67271428Y-89514285D01*
X67271428Y-89285714D01*
X67242857Y-89228571D01*
X67214285Y-89200000D01*
X67157142Y-89171428D01*
X67042857Y-89171428D01*
X66985714Y-89200000D01*
X66957142Y-89228571D01*
X66928571Y-89285714D01*
X66928571Y-89428571D01*
X66957142Y-89485714D01*
X66985714Y-89514285D01*
X67042857Y-89542857D01*
X67157142Y-89542857D01*
X67214285Y-89514285D01*
X67242857Y-89485714D01*
X67271428Y-89428571D01*
%TO.C,C49*%
X138714285Y-72185714D02*
X138742857Y-72214285D01*
X138771428Y-72300000D01*
X138771428Y-72357142D01*
X138742857Y-72442857D01*
X138685714Y-72500000D01*
X138628571Y-72528571D01*
X138514285Y-72557142D01*
X138428571Y-72557142D01*
X138314285Y-72528571D01*
X138257142Y-72500000D01*
X138200000Y-72442857D01*
X138171428Y-72357142D01*
X138171428Y-72300000D01*
X138200000Y-72214285D01*
X138228571Y-72185714D01*
X138371428Y-71671428D02*
X138771428Y-71671428D01*
X138142857Y-71814285D02*
X138571428Y-71957142D01*
X138571428Y-71585714D01*
X138771428Y-71328571D02*
X138771428Y-71214285D01*
X138742857Y-71157142D01*
X138714285Y-71128571D01*
X138628571Y-71071428D01*
X138514285Y-71042857D01*
X138285714Y-71042857D01*
X138228571Y-71071428D01*
X138200000Y-71100000D01*
X138171428Y-71157142D01*
X138171428Y-71271428D01*
X138200000Y-71328571D01*
X138228571Y-71357142D01*
X138285714Y-71385714D01*
X138428571Y-71385714D01*
X138485714Y-71357142D01*
X138514285Y-71328571D01*
X138542857Y-71271428D01*
X138542857Y-71157142D01*
X138514285Y-71100000D01*
X138485714Y-71071428D01*
X138428571Y-71042857D01*
%TO.C,C23*%
X138714285Y-80114285D02*
X138685714Y-80142857D01*
X138600000Y-80171428D01*
X138542857Y-80171428D01*
X138457142Y-80142857D01*
X138400000Y-80085714D01*
X138371428Y-80028571D01*
X138342857Y-79914285D01*
X138342857Y-79828571D01*
X138371428Y-79714285D01*
X138400000Y-79657142D01*
X138457142Y-79600000D01*
X138542857Y-79571428D01*
X138600000Y-79571428D01*
X138685714Y-79600000D01*
X138714285Y-79628571D01*
X138942857Y-79628571D02*
X138971428Y-79600000D01*
X139028571Y-79571428D01*
X139171428Y-79571428D01*
X139228571Y-79600000D01*
X139257142Y-79628571D01*
X139285714Y-79685714D01*
X139285714Y-79742857D01*
X139257142Y-79828571D01*
X138914285Y-80171428D01*
X139285714Y-80171428D01*
X139485714Y-79571428D02*
X139857142Y-79571428D01*
X139657142Y-79800000D01*
X139742857Y-79800000D01*
X139800000Y-79828571D01*
X139828571Y-79857142D01*
X139857142Y-79914285D01*
X139857142Y-80057142D01*
X139828571Y-80114285D01*
X139800000Y-80142857D01*
X139742857Y-80171428D01*
X139571428Y-80171428D01*
X139514285Y-80142857D01*
X139485714Y-80114285D01*
%TO.C,R19*%
X106214285Y-70371428D02*
X106014285Y-70085714D01*
X105871428Y-70371428D02*
X105871428Y-69771428D01*
X106100000Y-69771428D01*
X106157142Y-69800000D01*
X106185714Y-69828571D01*
X106214285Y-69885714D01*
X106214285Y-69971428D01*
X106185714Y-70028571D01*
X106157142Y-70057142D01*
X106100000Y-70085714D01*
X105871428Y-70085714D01*
X106785714Y-70371428D02*
X106442857Y-70371428D01*
X106614285Y-70371428D02*
X106614285Y-69771428D01*
X106557142Y-69857142D01*
X106500000Y-69914285D01*
X106442857Y-69942857D01*
X107071428Y-70371428D02*
X107185714Y-70371428D01*
X107242857Y-70342857D01*
X107271428Y-70314285D01*
X107328571Y-70228571D01*
X107357142Y-70114285D01*
X107357142Y-69885714D01*
X107328571Y-69828571D01*
X107300000Y-69800000D01*
X107242857Y-69771428D01*
X107128571Y-69771428D01*
X107071428Y-69800000D01*
X107042857Y-69828571D01*
X107014285Y-69885714D01*
X107014285Y-70028571D01*
X107042857Y-70085714D01*
X107071428Y-70114285D01*
X107128571Y-70142857D01*
X107242857Y-70142857D01*
X107300000Y-70114285D01*
X107328571Y-70085714D01*
X107357142Y-70028571D01*
%TO.C,C14*%
X125840019Y-90985714D02*
X125868591Y-91014285D01*
X125897162Y-91100000D01*
X125897162Y-91157142D01*
X125868591Y-91242857D01*
X125811448Y-91300000D01*
X125754305Y-91328571D01*
X125640019Y-91357142D01*
X125554305Y-91357142D01*
X125440019Y-91328571D01*
X125382876Y-91300000D01*
X125325734Y-91242857D01*
X125297162Y-91157142D01*
X125297162Y-91100000D01*
X125325734Y-91014285D01*
X125354305Y-90985714D01*
X125897162Y-90414285D02*
X125897162Y-90757142D01*
X125897162Y-90585714D02*
X125297162Y-90585714D01*
X125382876Y-90642857D01*
X125440019Y-90700000D01*
X125468591Y-90757142D01*
X125497162Y-89900000D02*
X125897162Y-89900000D01*
X125268591Y-90042857D02*
X125697162Y-90185714D01*
X125697162Y-89814285D01*
%TO.C,R20*%
X131988476Y-75022500D02*
X132462992Y-75022500D01*
X131988476Y-73977500D02*
X132462992Y-73977500D01*
%TO.C,C26*%
X114817164Y-72740000D02*
X115032836Y-72740000D01*
X114817164Y-73460000D02*
X115032836Y-73460000D01*
%TO.C,C4*%
X97415734Y-80959420D02*
X97415734Y-81240580D01*
X98435734Y-80959420D02*
X98435734Y-81240580D01*
%TO.C,RN6*%
X94275734Y-75240000D02*
X93775734Y-75240000D01*
X94275734Y-72960000D02*
X93775734Y-72960000D01*
%TO.C,C20*%
X121985734Y-88292164D02*
X121985734Y-88507836D01*
X121265734Y-88292164D02*
X121265734Y-88507836D01*
%TO.C,R7*%
X59327500Y-86762742D02*
X59327500Y-87237258D01*
X60372500Y-86762742D02*
X60372500Y-87237258D01*
%TO.C,U2*%
X65125734Y-78800000D02*
X65125734Y-79150000D01*
X65125734Y-78800000D02*
X65600734Y-78800000D01*
%TO.C,TP8*%
X140374266Y-84425000D02*
X140374266Y-85825000D01*
X138974266Y-84425000D02*
X140374266Y-84425000D01*
X138974266Y-85825000D02*
X138974266Y-84425000D01*
X140374266Y-85825000D02*
X138974266Y-85825000D01*
%TO.C,J3*%
X139755000Y-54235000D02*
X139755000Y-65725000D01*
X137095000Y-54235000D02*
X137665000Y-54235000D01*
X139755000Y-52840000D02*
X139755000Y-53600000D01*
X138425000Y-52840000D02*
X139755000Y-52840000D01*
X137095000Y-65725000D02*
X138117470Y-65725000D01*
X139185000Y-54235000D02*
X139755000Y-54235000D01*
X137095000Y-54235000D02*
X137095000Y-65725000D01*
X138732530Y-65725000D02*
X139755000Y-65725000D01*
%TO.C,C3*%
X68235734Y-73540580D02*
X68235734Y-73259420D01*
X67215734Y-73540580D02*
X67215734Y-73259420D01*
%TO.C,TP14*%
X41650000Y-42300000D02*
X43050000Y-42300000D01*
X41650000Y-43700000D02*
X41650000Y-42300000D01*
X43050000Y-43700000D02*
X41650000Y-43700000D01*
X43050000Y-42300000D02*
X43050000Y-43700000D01*
%TO.C,J1*%
X41525000Y-83130000D02*
X40575000Y-83130000D01*
X45500000Y-83130000D02*
X44645000Y-83130000D01*
X45500000Y-73970000D02*
X44645000Y-73970000D01*
X41525000Y-73970000D02*
X40575000Y-73970000D01*
X40575000Y-73970000D02*
X40575000Y-83130000D01*
%TO.C,FB1*%
X51435000Y-84027064D02*
X51435000Y-83572936D01*
X49965000Y-84027064D02*
X49965000Y-83572936D01*
%TO.C,C9*%
X81135734Y-84240580D02*
X81135734Y-83959420D01*
X80115734Y-84240580D02*
X80115734Y-83959420D01*
%TO.C,R10*%
X67977500Y-86762742D02*
X67977500Y-87237258D01*
X69022500Y-86762742D02*
X69022500Y-87237258D01*
D10*
%TO.C,SW6*%
X96650000Y-90625000D02*
X99250000Y-90625000D01*
D11*
X94587500Y-89875000D02*
X96600000Y-89875000D01*
X94587500Y-87475000D02*
X94587500Y-89875000D01*
X94587500Y-87475000D02*
X95850000Y-87475000D01*
X99300000Y-89875000D02*
X101300000Y-89875000D01*
D10*
X96650000Y-89625000D02*
X99250000Y-89625000D01*
D11*
X96875000Y-87375000D02*
X99025000Y-87375000D01*
X101300000Y-87475000D02*
X99950000Y-87475000D01*
X101300000Y-87475000D02*
X101300000Y-89875000D01*
D10*
X96650000Y-90625000D02*
X96650000Y-89625000D01*
X99250000Y-90625000D02*
X99250000Y-89625000D01*
D11*
%TO.C,C18*%
X133186986Y-88635000D02*
X132664482Y-88635000D01*
X133186986Y-87165000D02*
X132664482Y-87165000D01*
%TO.C,C10*%
X106610000Y-80561252D02*
X106610000Y-79138748D01*
X104790000Y-80561252D02*
X104790000Y-79138748D01*
%TO.C,logo2*%
X84225734Y-58300000D02*
X96225734Y-58300000D01*
X96225734Y-58300000D02*
X96225734Y-60300000D01*
X84225734Y-60300000D02*
X84225734Y-58300000D01*
X96225734Y-60300000D02*
X84225734Y-60300000D01*
%TO.C,C15*%
X132533570Y-86560000D02*
X132317898Y-86560000D01*
X132533570Y-85840000D02*
X132317898Y-85840000D01*
%TO.C,R22*%
X127103234Y-88637258D02*
X127103234Y-88162742D01*
X128148234Y-88637258D02*
X128148234Y-88162742D01*
%TO.C,C1*%
X71635000Y-87461252D02*
X71635000Y-86938748D01*
X70165000Y-87461252D02*
X70165000Y-86938748D01*
%TO.C,R3*%
X51232742Y-89192500D02*
X51707258Y-89192500D01*
X51232742Y-88147500D02*
X51707258Y-88147500D01*
%TO.C,R13*%
X57362992Y-79427500D02*
X56888476Y-79427500D01*
X57362992Y-80472500D02*
X56888476Y-80472500D01*
%TO.C,C8*%
X103015734Y-80640580D02*
X103015734Y-80359420D01*
X104035734Y-80640580D02*
X104035734Y-80359420D01*
%TO.C,C25*%
X138060000Y-82807836D02*
X138060000Y-82592164D01*
X137340000Y-82807836D02*
X137340000Y-82592164D01*
%TO.C,C24*%
X133140000Y-82807836D02*
X133140000Y-82592164D01*
X133860000Y-82807836D02*
X133860000Y-82592164D01*
%TO.C,R2*%
X51232742Y-86547500D02*
X51707258Y-86547500D01*
X51232742Y-87592500D02*
X51707258Y-87592500D01*
%TO.C,R15*%
X100365000Y-73472936D02*
X100365000Y-73927064D01*
X101835000Y-73472936D02*
X101835000Y-73927064D01*
%TO.C,BT1*%
X45300000Y-35500000D02*
X47000000Y-35500000D01*
X45300000Y-42400000D02*
X47000000Y-42400000D01*
X45300000Y-38300000D02*
X47000000Y-38300000D01*
X47000000Y-38300000D02*
X47000000Y-38300000D01*
X47000000Y-38300000D02*
X45300000Y-38300000D01*
X45300000Y-38300000D02*
X45300000Y-38300000D01*
X45300000Y-45200000D02*
X47000000Y-45200000D01*
X47000000Y-45200000D02*
X47000000Y-45200000D01*
X47000000Y-45200000D02*
X45300000Y-45200000D01*
X45300000Y-45200000D02*
X45300000Y-45200000D01*
%TO.C,TP12*%
X41650000Y-45950000D02*
X43050000Y-45950000D01*
X43050000Y-45950000D02*
X43050000Y-47350000D01*
X43050000Y-47350000D02*
X41650000Y-47350000D01*
X41650000Y-47350000D02*
X41650000Y-45950000D01*
%TO.C,RN4*%
X130205734Y-72860000D02*
X130205734Y-73360000D01*
X127925734Y-72860000D02*
X127925734Y-73360000D01*
%TO.C,R4*%
X88612992Y-85722500D02*
X88138476Y-85722500D01*
X88612992Y-84677500D02*
X88138476Y-84677500D01*
%TO.C,L2*%
X135210000Y-77637221D02*
X135210000Y-77962779D01*
X134190000Y-77637221D02*
X134190000Y-77962779D01*
D10*
%TO.C,SW4*%
X114250000Y-90625000D02*
X114250000Y-89625000D01*
D11*
X114300000Y-89875000D02*
X116300000Y-89875000D01*
D10*
X111650000Y-89625000D02*
X114250000Y-89625000D01*
D11*
X111875000Y-87375000D02*
X114025000Y-87375000D01*
X116300000Y-87475000D02*
X114950000Y-87475000D01*
X109587500Y-89875000D02*
X111600000Y-89875000D01*
D10*
X111650000Y-90625000D02*
X111650000Y-89625000D01*
D11*
X109587500Y-87475000D02*
X109587500Y-89875000D01*
D10*
X111650000Y-90625000D02*
X114250000Y-90625000D01*
D11*
X116300000Y-87475000D02*
X116300000Y-89875000D01*
X109587500Y-87475000D02*
X110850000Y-87475000D01*
%TO.C,TP13*%
X41650000Y-35400000D02*
X43050000Y-35400000D01*
X43050000Y-35400000D02*
X43050000Y-36800000D01*
X41650000Y-36800000D02*
X41650000Y-35400000D01*
X43050000Y-36800000D02*
X41650000Y-36800000D01*
%TO.C,JP1*%
X107100000Y-76150000D02*
X107100000Y-76200000D01*
%TO.C,L1*%
X75375734Y-72000000D02*
X69075734Y-72000000D01*
X75375734Y-78200000D02*
X69075734Y-78200000D01*
%TO.C,C2*%
X72565000Y-87461252D02*
X72565000Y-86938748D01*
X74035000Y-87461252D02*
X74035000Y-86938748D01*
%TO.C,RN2*%
X131550000Y-80040000D02*
X131050000Y-80040000D01*
X131550000Y-77760000D02*
X131050000Y-77760000D01*
%TO.C,C27*%
X114485154Y-75110000D02*
X114766314Y-75110000D01*
X114485154Y-74090000D02*
X114766314Y-74090000D01*
%TO.C,F1*%
X56825734Y-72800000D02*
X59225734Y-72800000D01*
X56825734Y-77800000D02*
X59225734Y-77800000D01*
%TO.C,C19*%
X118785734Y-88540580D02*
X118785734Y-88259420D01*
X117765734Y-88540580D02*
X117765734Y-88259420D01*
%TO.C,C13*%
X64840734Y-74461252D02*
X64840734Y-73938748D01*
X66310734Y-74461252D02*
X66310734Y-73938748D01*
%TO.C,R17*%
X108885734Y-73462742D02*
X108885734Y-73937258D01*
X107840734Y-73462742D02*
X107840734Y-73937258D01*
%TO.C,R5*%
X95503234Y-81337258D02*
X95503234Y-80862742D01*
X96548234Y-81337258D02*
X96548234Y-80862742D01*
%TO.C,C28*%
X132017898Y-89490000D02*
X132233570Y-89490000D01*
X132017898Y-90210000D02*
X132233570Y-90210000D01*
%TO.C,U1*%
X101355734Y-81110000D02*
X101355734Y-80500000D01*
X100095734Y-81110000D02*
X100095734Y-79890000D01*
%TO.C,TFT1*%
X121100000Y-60350000D02*
X121100000Y-62600000D01*
X130900000Y-60350000D02*
X130900000Y-62600000D01*
%TO.C,R12*%
X57362992Y-82572500D02*
X56888476Y-82572500D01*
X57362992Y-81527500D02*
X56888476Y-81527500D01*
%TO.C,C22*%
X137010000Y-77940580D02*
X137010000Y-77659420D01*
X135990000Y-77940580D02*
X135990000Y-77659420D01*
%TO.C,C16*%
X121367898Y-72910000D02*
X121583570Y-72910000D01*
X121367898Y-72190000D02*
X121583570Y-72190000D01*
%TO.C,C5*%
X72059420Y-79490000D02*
X72340580Y-79490000D01*
X72059420Y-80510000D02*
X72340580Y-80510000D01*
D13*
%TO.C,Q2*%
X102564738Y-74699888D02*
X102564738Y-75299888D01*
X102564738Y-75299888D02*
X103113234Y-75299888D01*
D11*
%TO.C,C6*%
X78936986Y-74715000D02*
X78414482Y-74715000D01*
X78936986Y-76185000D02*
X78414482Y-76185000D01*
%TO.C,R11*%
X86822500Y-87662742D02*
X86822500Y-88137258D01*
X85777500Y-87662742D02*
X85777500Y-88137258D01*
%TO.C,TP6*%
X140375000Y-82925000D02*
X138975000Y-82925000D01*
X140375000Y-81525000D02*
X140375000Y-82925000D01*
X138975000Y-82925000D02*
X138975000Y-81525000D01*
X138975000Y-81525000D02*
X140375000Y-81525000D01*
D10*
%TO.C,U6*%
X86825734Y-75437500D02*
X87545734Y-75437500D01*
X90025734Y-72737500D02*
X90025734Y-72957500D01*
X86725734Y-72737500D02*
X87545734Y-72737500D01*
X86825734Y-75437500D02*
X86825734Y-75217500D01*
X90025734Y-75437500D02*
X89305734Y-75437500D01*
X89305734Y-72737500D02*
X90025734Y-72737500D01*
X90025734Y-75217500D02*
X90025734Y-75437500D01*
%TO.C,SW1*%
X79025734Y-89275000D02*
X81625734Y-89275000D01*
D11*
X83675734Y-87125000D02*
X82325734Y-87125000D01*
X76963234Y-87125000D02*
X78225734Y-87125000D01*
X79250734Y-87025000D02*
X81400734Y-87025000D01*
D10*
X79025734Y-90275000D02*
X79025734Y-89275000D01*
X81625734Y-90275000D02*
X81625734Y-89275000D01*
D11*
X76963234Y-89525000D02*
X78975734Y-89525000D01*
X83675734Y-87125000D02*
X83675734Y-89525000D01*
X76963234Y-87125000D02*
X76963234Y-89525000D01*
D10*
X79025734Y-90275000D02*
X81625734Y-90275000D01*
D11*
X81675734Y-89525000D02*
X83675734Y-89525000D01*
%TO.C,U5*%
X112725734Y-75990000D02*
X115725734Y-75990000D01*
X109725734Y-81210000D02*
X115725734Y-81210000D01*
%TO.C,U3*%
X61025734Y-79440000D02*
X61825734Y-79440000D01*
X61025734Y-82560000D02*
X61825734Y-82560000D01*
X61025734Y-82560000D02*
X60225734Y-82560000D01*
X61025734Y-79440000D02*
X59225734Y-79440000D01*
%TO.C,R6*%
X84648234Y-83862742D02*
X84648234Y-84337258D01*
X83603234Y-83862742D02*
X83603234Y-84337258D01*
%TO.C,R18*%
X134903234Y-73662742D02*
X134903234Y-74137258D01*
X135948234Y-73662742D02*
X135948234Y-74137258D01*
%TO.C,L3*%
X135762779Y-81690000D02*
X135437221Y-81690000D01*
X135762779Y-82710000D02*
X135437221Y-82710000D01*
%TO.C,Q1*%
X87480734Y-83870000D02*
X93370734Y-83870000D01*
X87025734Y-78730000D02*
X93370734Y-78730000D01*
%TO.C,C11*%
X65710000Y-86859420D02*
X65710000Y-87140580D01*
X64690000Y-86859420D02*
X64690000Y-87140580D01*
%TO.C,C12*%
X63910734Y-74461252D02*
X63910734Y-73938748D01*
X62440734Y-74461252D02*
X62440734Y-73938748D01*
%TO.C,TP11*%
X41675000Y-33500000D02*
X41675000Y-32100000D01*
X41675000Y-32100000D02*
X43075000Y-32100000D01*
X43075000Y-33500000D02*
X41675000Y-33500000D01*
X43075000Y-32100000D02*
X43075000Y-33500000D01*
%TO.C,C7*%
X78616314Y-78160000D02*
X78335154Y-78160000D01*
X78616314Y-77140000D02*
X78335154Y-77140000D01*
%TO.C,RN3*%
X114775734Y-84610000D02*
X115275734Y-84610000D01*
X114775734Y-86890000D02*
X115275734Y-86890000D01*
%TO.C,C29*%
X88533570Y-77360000D02*
X88317898Y-77360000D01*
X88533570Y-76640000D02*
X88317898Y-76640000D01*
%TO.C,D1*%
X49270000Y-88970000D02*
X49670000Y-88970000D01*
X49670000Y-88970000D02*
X49670000Y-88670000D01*
%TO.C,R1*%
X82923714Y-83862742D02*
X82923714Y-84337258D01*
X81878714Y-83862742D02*
X81878714Y-84337258D01*
%TO.C,R8*%
X60977500Y-86762742D02*
X60977500Y-87237258D01*
X62022500Y-86762742D02*
X62022500Y-87237258D01*
D14*
%TO.C,logo6*%
X92287528Y-53934619D02*
X92298908Y-53953693D01*
X92298908Y-53953693D02*
X92324488Y-53997421D01*
X92324488Y-53997421D02*
X92363002Y-54063619D01*
X92363002Y-54063619D02*
X92413186Y-54150102D01*
X92413186Y-54150102D02*
X92473775Y-54254685D01*
X92473775Y-54254685D02*
X92543503Y-54375183D01*
X92543503Y-54375183D02*
X92621107Y-54509412D01*
X92621107Y-54509412D02*
X92705320Y-54655187D01*
X92705320Y-54655187D02*
X92794879Y-54810323D01*
X92794879Y-54810323D02*
X92886998Y-54970000D01*
X92886998Y-54970000D02*
X92981076Y-55133117D01*
X92981076Y-55133117D02*
X93071402Y-55289709D01*
X93071402Y-55289709D02*
X93156665Y-55437506D01*
X93156665Y-55437506D02*
X93235557Y-55574240D01*
X93235557Y-55574240D02*
X93306769Y-55697642D01*
X93306769Y-55697642D02*
X93368991Y-55805444D01*
X93368991Y-55805444D02*
X93420913Y-55895377D01*
X93420913Y-55895377D02*
X93461228Y-55965173D01*
X93461228Y-55965173D02*
X93488624Y-56012564D01*
X93488624Y-56012564D02*
X93501507Y-56034786D01*
X93501507Y-56034786D02*
X93522507Y-56072330D01*
X93522507Y-56072330D02*
X93533925Y-56095831D01*
X93533925Y-56095831D02*
X93534551Y-56099920D01*
X93534551Y-56099920D02*
X93520636Y-56092242D01*
X93520636Y-56092242D02*
X93481941Y-56070203D01*
X93481941Y-56070203D02*
X93420487Y-56034971D01*
X93420487Y-56034971D02*
X93338298Y-55987711D01*
X93338298Y-55987711D02*
X93237396Y-55929589D01*
X93237396Y-55929589D02*
X93119805Y-55861771D01*
X93119805Y-55861771D02*
X92987546Y-55785424D01*
X92987546Y-55785424D02*
X92842642Y-55701714D01*
X92842642Y-55701714D02*
X92687117Y-55611806D01*
X92687117Y-55611806D02*
X92522992Y-55516867D01*
X92522992Y-55516867D02*
X92460549Y-55480732D01*
X92460549Y-55480732D02*
X92293487Y-55384083D01*
X92293487Y-55384083D02*
X92134074Y-55291938D01*
X92134074Y-55291938D02*
X91984355Y-55205475D01*
X91984355Y-55205475D02*
X91846376Y-55125871D01*
X91846376Y-55125871D02*
X91722185Y-55054305D01*
X91722185Y-55054305D02*
X91613827Y-54991955D01*
X91613827Y-54991955D02*
X91523348Y-54939998D01*
X91523348Y-54939998D02*
X91452796Y-54899613D01*
X91452796Y-54899613D02*
X91404215Y-54871978D01*
X91404215Y-54871978D02*
X91379654Y-54858272D01*
X91379654Y-54858272D02*
X91377085Y-54856974D01*
X91377085Y-54856974D02*
X91384569Y-54845220D01*
X91384569Y-54845220D02*
X91410614Y-54813795D01*
X91410614Y-54813795D02*
X91452559Y-54765594D01*
X91452559Y-54765594D02*
X91507746Y-54703510D01*
X91507746Y-54703510D02*
X91573517Y-54630439D01*
X91573517Y-54630439D02*
X91647212Y-54549276D01*
X91647212Y-54549276D02*
X91726173Y-54462916D01*
X91726173Y-54462916D02*
X91807740Y-54374253D01*
X91807740Y-54374253D02*
X91889254Y-54286182D01*
X91889254Y-54286182D02*
X91968057Y-54201599D01*
X91968057Y-54201599D02*
X92041490Y-54123397D01*
X92041490Y-54123397D02*
X92106893Y-54054472D01*
X92106893Y-54054472D02*
X92161608Y-53997719D01*
X92161608Y-53997719D02*
X92202977Y-53956032D01*
X92202977Y-53956032D02*
X92217164Y-53942363D01*
X92217164Y-53942363D02*
X92264180Y-53898201D01*
X92264180Y-53898201D02*
X92287528Y-53934619D01*
X92287528Y-53934619D02*
X92287528Y-53934619D01*
G36*
X92287528Y-53934619D02*
G01*
X92298908Y-53953693D01*
X92324488Y-53997421D01*
X92363002Y-54063619D01*
X92413186Y-54150102D01*
X92473775Y-54254685D01*
X92543503Y-54375183D01*
X92621107Y-54509412D01*
X92705320Y-54655187D01*
X92794879Y-54810323D01*
X92886998Y-54970000D01*
X92981076Y-55133117D01*
X93071402Y-55289709D01*
X93156665Y-55437506D01*
X93235557Y-55574240D01*
X93306769Y-55697642D01*
X93368991Y-55805444D01*
X93420913Y-55895377D01*
X93461228Y-55965173D01*
X93488624Y-56012564D01*
X93501507Y-56034786D01*
X93522507Y-56072330D01*
X93533925Y-56095831D01*
X93534551Y-56099920D01*
X93520636Y-56092242D01*
X93481941Y-56070203D01*
X93420487Y-56034971D01*
X93338298Y-55987711D01*
X93237396Y-55929589D01*
X93119805Y-55861771D01*
X92987546Y-55785424D01*
X92842642Y-55701714D01*
X92687117Y-55611806D01*
X92522992Y-55516867D01*
X92460549Y-55480732D01*
X92293487Y-55384083D01*
X92134074Y-55291938D01*
X91984355Y-55205475D01*
X91846376Y-55125871D01*
X91722185Y-55054305D01*
X91613827Y-54991955D01*
X91523348Y-54939998D01*
X91452796Y-54899613D01*
X91404215Y-54871978D01*
X91379654Y-54858272D01*
X91377085Y-54856974D01*
X91384569Y-54845220D01*
X91410614Y-54813795D01*
X91452559Y-54765594D01*
X91507746Y-54703510D01*
X91573517Y-54630439D01*
X91647212Y-54549276D01*
X91726173Y-54462916D01*
X91807740Y-54374253D01*
X91889254Y-54286182D01*
X91968057Y-54201599D01*
X92041490Y-54123397D01*
X92106893Y-54054472D01*
X92161608Y-53997719D01*
X92202977Y-53956032D01*
X92217164Y-53942363D01*
X92264180Y-53898201D01*
X92287528Y-53934619D01*
G37*
X92287528Y-53934619D02*
X92298908Y-53953693D01*
X92324488Y-53997421D01*
X92363002Y-54063619D01*
X92413186Y-54150102D01*
X92473775Y-54254685D01*
X92543503Y-54375183D01*
X92621107Y-54509412D01*
X92705320Y-54655187D01*
X92794879Y-54810323D01*
X92886998Y-54970000D01*
X92981076Y-55133117D01*
X93071402Y-55289709D01*
X93156665Y-55437506D01*
X93235557Y-55574240D01*
X93306769Y-55697642D01*
X93368991Y-55805444D01*
X93420913Y-55895377D01*
X93461228Y-55965173D01*
X93488624Y-56012564D01*
X93501507Y-56034786D01*
X93522507Y-56072330D01*
X93533925Y-56095831D01*
X93534551Y-56099920D01*
X93520636Y-56092242D01*
X93481941Y-56070203D01*
X93420487Y-56034971D01*
X93338298Y-55987711D01*
X93237396Y-55929589D01*
X93119805Y-55861771D01*
X92987546Y-55785424D01*
X92842642Y-55701714D01*
X92687117Y-55611806D01*
X92522992Y-55516867D01*
X92460549Y-55480732D01*
X92293487Y-55384083D01*
X92134074Y-55291938D01*
X91984355Y-55205475D01*
X91846376Y-55125871D01*
X91722185Y-55054305D01*
X91613827Y-54991955D01*
X91523348Y-54939998D01*
X91452796Y-54899613D01*
X91404215Y-54871978D01*
X91379654Y-54858272D01*
X91377085Y-54856974D01*
X91384569Y-54845220D01*
X91410614Y-54813795D01*
X91452559Y-54765594D01*
X91507746Y-54703510D01*
X91573517Y-54630439D01*
X91647212Y-54549276D01*
X91726173Y-54462916D01*
X91807740Y-54374253D01*
X91889254Y-54286182D01*
X91968057Y-54201599D01*
X92041490Y-54123397D01*
X92106893Y-54054472D01*
X92161608Y-53997719D01*
X92202977Y-53956032D01*
X92217164Y-53942363D01*
X92264180Y-53898201D01*
X92287528Y-53934619D01*
X90464043Y-50785835D02*
X90487065Y-50823245D01*
X90487065Y-50823245D02*
X90522534Y-50882514D01*
X90522534Y-50882514D02*
X90568996Y-50961118D01*
X90568996Y-50961118D02*
X90624996Y-51056538D01*
X90624996Y-51056538D02*
X90689081Y-51166250D01*
X90689081Y-51166250D02*
X90759796Y-51287734D01*
X90759796Y-51287734D02*
X90835687Y-51418468D01*
X90835687Y-51418468D02*
X90915299Y-51555930D01*
X90915299Y-51555930D02*
X90997178Y-51697598D01*
X90997178Y-51697598D02*
X91079870Y-51840951D01*
X91079870Y-51840951D02*
X91161921Y-51983467D01*
X91161921Y-51983467D02*
X91241876Y-52122624D01*
X91241876Y-52122624D02*
X91318281Y-52255901D01*
X91318281Y-52255901D02*
X91389682Y-52380776D01*
X91389682Y-52380776D02*
X91454624Y-52494727D01*
X91454624Y-52494727D02*
X91511653Y-52595233D01*
X91511653Y-52595233D02*
X91559315Y-52679772D01*
X91559315Y-52679772D02*
X91596155Y-52745822D01*
X91596155Y-52745822D02*
X91620720Y-52790862D01*
X91620720Y-52790862D02*
X91631554Y-52812370D01*
X91631554Y-52812370D02*
X91631951Y-52813714D01*
X91631951Y-52813714D02*
X91618501Y-52831965D01*
X91618501Y-52831965D02*
X91581114Y-52859882D01*
X91581114Y-52859882D02*
X91524235Y-52894725D01*
X91524235Y-52894725D02*
X91452312Y-52933754D01*
X91452312Y-52933754D02*
X91377015Y-52970843D01*
X91377015Y-52970843D02*
X91274560Y-53015817D01*
X91274560Y-53015817D02*
X91166817Y-53056226D01*
X91166817Y-53056226D02*
X91050073Y-53092969D01*
X91050073Y-53092969D02*
X90920618Y-53126942D01*
X90920618Y-53126942D02*
X90774740Y-53159044D01*
X90774740Y-53159044D02*
X90608726Y-53190173D01*
X90608726Y-53190173D02*
X90418866Y-53221227D01*
X90418866Y-53221227D02*
X90222469Y-53250145D01*
X90222469Y-53250145D02*
X90051834Y-53275800D01*
X90051834Y-53275800D02*
X89908545Y-53301198D01*
X89908545Y-53301198D02*
X89789008Y-53327602D01*
X89789008Y-53327602D02*
X89689630Y-53356273D01*
X89689630Y-53356273D02*
X89606818Y-53388473D01*
X89606818Y-53388473D02*
X89536978Y-53425465D01*
X89536978Y-53425465D02*
X89476518Y-53468512D01*
X89476518Y-53468512D02*
X89421845Y-53518875D01*
X89421845Y-53518875D02*
X89404214Y-53537583D01*
X89404214Y-53537583D02*
X89366000Y-53581139D01*
X89366000Y-53581139D02*
X89337732Y-53616682D01*
X89337732Y-53616682D02*
X89324618Y-53637583D01*
X89324618Y-53637583D02*
X89324268Y-53639297D01*
X89324268Y-53639297D02*
X89319680Y-53649806D01*
X89319680Y-53649806D02*
X89303758Y-53649924D01*
X89303758Y-53649924D02*
X89273266Y-53638254D01*
X89273266Y-53638254D02*
X89224968Y-53613396D01*
X89224968Y-53613396D02*
X89155627Y-53573952D01*
X89155627Y-53573952D02*
X89107439Y-53545587D01*
X89107439Y-53545587D02*
X89035583Y-53501247D01*
X89035583Y-53501247D02*
X88979742Y-53463279D01*
X88979742Y-53463279D02*
X88943667Y-53434416D01*
X88943667Y-53434416D02*
X88931113Y-53417388D01*
X88931113Y-53417388D02*
X88931121Y-53417264D01*
X88931121Y-53417264D02*
X88938906Y-53401037D01*
X88938906Y-53401037D02*
X88960892Y-53360400D01*
X88960892Y-53360400D02*
X88995803Y-53297567D01*
X88995803Y-53297567D02*
X89042363Y-53214752D01*
X89042363Y-53214752D02*
X89099295Y-53114172D01*
X89099295Y-53114172D02*
X89165323Y-52998040D01*
X89165323Y-52998040D02*
X89239172Y-52868571D01*
X89239172Y-52868571D02*
X89319564Y-52727980D01*
X89319564Y-52727980D02*
X89405224Y-52578482D01*
X89405224Y-52578482D02*
X89494876Y-52422292D01*
X89494876Y-52422292D02*
X89587243Y-52261624D01*
X89587243Y-52261624D02*
X89681049Y-52098693D01*
X89681049Y-52098693D02*
X89775018Y-51935713D01*
X89775018Y-51935713D02*
X89867874Y-51774900D01*
X89867874Y-51774900D02*
X89958340Y-51618468D01*
X89958340Y-51618468D02*
X90045141Y-51468633D01*
X90045141Y-51468633D02*
X90127000Y-51327608D01*
X90127000Y-51327608D02*
X90202641Y-51197609D01*
X90202641Y-51197609D02*
X90270787Y-51080849D01*
X90270787Y-51080849D02*
X90330163Y-50979545D01*
X90330163Y-50979545D02*
X90379493Y-50895911D01*
X90379493Y-50895911D02*
X90417500Y-50832162D01*
X90417500Y-50832162D02*
X90442907Y-50790511D01*
X90442907Y-50790511D02*
X90454440Y-50773175D01*
X90454440Y-50773175D02*
X90454923Y-50772805D01*
X90454923Y-50772805D02*
X90464043Y-50785835D01*
X90464043Y-50785835D02*
X90464043Y-50785835D01*
G36*
X90464043Y-50785835D02*
G01*
X90487065Y-50823245D01*
X90522534Y-50882514D01*
X90568996Y-50961118D01*
X90624996Y-51056538D01*
X90689081Y-51166250D01*
X90759796Y-51287734D01*
X90835687Y-51418468D01*
X90915299Y-51555930D01*
X90997178Y-51697598D01*
X91079870Y-51840951D01*
X91161921Y-51983467D01*
X91241876Y-52122624D01*
X91318281Y-52255901D01*
X91389682Y-52380776D01*
X91454624Y-52494727D01*
X91511653Y-52595233D01*
X91559315Y-52679772D01*
X91596155Y-52745822D01*
X91620720Y-52790862D01*
X91631554Y-52812370D01*
X91631951Y-52813714D01*
X91618501Y-52831965D01*
X91581114Y-52859882D01*
X91524235Y-52894725D01*
X91452312Y-52933754D01*
X91377015Y-52970843D01*
X91274560Y-53015817D01*
X91166817Y-53056226D01*
X91050073Y-53092969D01*
X90920618Y-53126942D01*
X90774740Y-53159044D01*
X90608726Y-53190173D01*
X90418866Y-53221227D01*
X90222469Y-53250145D01*
X90051834Y-53275800D01*
X89908545Y-53301198D01*
X89789008Y-53327602D01*
X89689630Y-53356273D01*
X89606818Y-53388473D01*
X89536978Y-53425465D01*
X89476518Y-53468512D01*
X89421845Y-53518875D01*
X89404214Y-53537583D01*
X89366000Y-53581139D01*
X89337732Y-53616682D01*
X89324618Y-53637583D01*
X89324268Y-53639297D01*
X89319680Y-53649806D01*
X89303758Y-53649924D01*
X89273266Y-53638254D01*
X89224968Y-53613396D01*
X89155627Y-53573952D01*
X89107439Y-53545587D01*
X89035583Y-53501247D01*
X88979742Y-53463279D01*
X88943667Y-53434416D01*
X88931113Y-53417388D01*
X88931121Y-53417264D01*
X88938906Y-53401037D01*
X88960892Y-53360400D01*
X88995803Y-53297567D01*
X89042363Y-53214752D01*
X89099295Y-53114172D01*
X89165323Y-52998040D01*
X89239172Y-52868571D01*
X89319564Y-52727980D01*
X89405224Y-52578482D01*
X89494876Y-52422292D01*
X89587243Y-52261624D01*
X89681049Y-52098693D01*
X89775018Y-51935713D01*
X89867874Y-51774900D01*
X89958340Y-51618468D01*
X90045141Y-51468633D01*
X90127000Y-51327608D01*
X90202641Y-51197609D01*
X90270787Y-51080849D01*
X90330163Y-50979545D01*
X90379493Y-50895911D01*
X90417500Y-50832162D01*
X90442907Y-50790511D01*
X90454440Y-50773175D01*
X90454923Y-50772805D01*
X90464043Y-50785835D01*
G37*
X90464043Y-50785835D02*
X90487065Y-50823245D01*
X90522534Y-50882514D01*
X90568996Y-50961118D01*
X90624996Y-51056538D01*
X90689081Y-51166250D01*
X90759796Y-51287734D01*
X90835687Y-51418468D01*
X90915299Y-51555930D01*
X90997178Y-51697598D01*
X91079870Y-51840951D01*
X91161921Y-51983467D01*
X91241876Y-52122624D01*
X91318281Y-52255901D01*
X91389682Y-52380776D01*
X91454624Y-52494727D01*
X91511653Y-52595233D01*
X91559315Y-52679772D01*
X91596155Y-52745822D01*
X91620720Y-52790862D01*
X91631554Y-52812370D01*
X91631951Y-52813714D01*
X91618501Y-52831965D01*
X91581114Y-52859882D01*
X91524235Y-52894725D01*
X91452312Y-52933754D01*
X91377015Y-52970843D01*
X91274560Y-53015817D01*
X91166817Y-53056226D01*
X91050073Y-53092969D01*
X90920618Y-53126942D01*
X90774740Y-53159044D01*
X90608726Y-53190173D01*
X90418866Y-53221227D01*
X90222469Y-53250145D01*
X90051834Y-53275800D01*
X89908545Y-53301198D01*
X89789008Y-53327602D01*
X89689630Y-53356273D01*
X89606818Y-53388473D01*
X89536978Y-53425465D01*
X89476518Y-53468512D01*
X89421845Y-53518875D01*
X89404214Y-53537583D01*
X89366000Y-53581139D01*
X89337732Y-53616682D01*
X89324618Y-53637583D01*
X89324268Y-53639297D01*
X89319680Y-53649806D01*
X89303758Y-53649924D01*
X89273266Y-53638254D01*
X89224968Y-53613396D01*
X89155627Y-53573952D01*
X89107439Y-53545587D01*
X89035583Y-53501247D01*
X88979742Y-53463279D01*
X88943667Y-53434416D01*
X88931113Y-53417388D01*
X88931121Y-53417264D01*
X88938906Y-53401037D01*
X88960892Y-53360400D01*
X88995803Y-53297567D01*
X89042363Y-53214752D01*
X89099295Y-53114172D01*
X89165323Y-52998040D01*
X89239172Y-52868571D01*
X89319564Y-52727980D01*
X89405224Y-52578482D01*
X89494876Y-52422292D01*
X89587243Y-52261624D01*
X89681049Y-52098693D01*
X89775018Y-51935713D01*
X89867874Y-51774900D01*
X89958340Y-51618468D01*
X90045141Y-51468633D01*
X90127000Y-51327608D01*
X90202641Y-51197609D01*
X90270787Y-51080849D01*
X90330163Y-50979545D01*
X90379493Y-50895911D01*
X90417500Y-50832162D01*
X90442907Y-50790511D01*
X90454440Y-50773175D01*
X90454923Y-50772805D01*
X90464043Y-50785835D01*
X88622094Y-53991158D02*
X88654619Y-54003736D01*
X88654619Y-54003736D02*
X88704193Y-54028712D01*
X88704193Y-54028712D02*
X88775374Y-54067876D01*
X88775374Y-54067876D02*
X88780916Y-54070988D01*
X88780916Y-54070988D02*
X88846474Y-54108476D01*
X88846474Y-54108476D02*
X88901798Y-54141319D01*
X88901798Y-54141319D02*
X88941455Y-54166205D01*
X88941455Y-54166205D02*
X88960012Y-54179820D01*
X88960012Y-54179820D02*
X88960531Y-54180487D01*
X88960531Y-54180487D02*
X88956048Y-54199390D01*
X88956048Y-54199390D02*
X88935486Y-54241605D01*
X88935486Y-54241605D02*
X88900183Y-54304832D01*
X88900183Y-54304832D02*
X88851480Y-54386772D01*
X88851480Y-54386772D02*
X88790718Y-54485122D01*
X88790718Y-54485122D02*
X88719236Y-54597585D01*
X88719236Y-54597585D02*
X88701445Y-54625165D01*
X88701445Y-54625165D02*
X88655093Y-54701699D01*
X88655093Y-54701699D02*
X88621342Y-54767556D01*
X88621342Y-54767556D02*
X88603153Y-54816782D01*
X88603153Y-54816782D02*
X88601286Y-54826507D01*
X88601286Y-54826507D02*
X88602115Y-54869312D01*
X88602115Y-54869312D02*
X88611394Y-54937209D01*
X88611394Y-54937209D02*
X88627968Y-55025843D01*
X88627968Y-55025843D02*
X88650680Y-55130859D01*
X88650680Y-55130859D02*
X88678373Y-55247902D01*
X88678373Y-55247902D02*
X88709890Y-55372616D01*
X88709890Y-55372616D02*
X88744075Y-55500645D01*
X88744075Y-55500645D02*
X88779771Y-55627634D01*
X88779771Y-55627634D02*
X88815821Y-55749228D01*
X88815821Y-55749228D02*
X88851068Y-55861072D01*
X88851068Y-55861072D02*
X88884356Y-55958810D01*
X88884356Y-55958810D02*
X88914528Y-56038087D01*
X88914528Y-56038087D02*
X88935561Y-56085122D01*
X88935561Y-56085122D02*
X88960337Y-56135225D01*
X88960337Y-56135225D02*
X88983730Y-56183168D01*
X88983730Y-56183168D02*
X88984997Y-56185793D01*
X88984997Y-56185793D02*
X89023699Y-56234220D01*
X89023699Y-56234220D02*
X89080184Y-56266828D01*
X89080184Y-56266828D02*
X89145939Y-56282454D01*
X89145939Y-56282454D02*
X89212451Y-56279937D01*
X89212451Y-56279937D02*
X89271205Y-56258114D01*
X89271205Y-56258114D02*
X89304258Y-56229382D01*
X89304258Y-56229382D02*
X89351859Y-56150583D01*
X89351859Y-56150583D02*
X89386739Y-56052378D01*
X89386739Y-56052378D02*
X89405877Y-55944779D01*
X89405877Y-55944779D02*
X89408588Y-55883780D01*
X89408588Y-55883780D02*
X89397670Y-55769935D01*
X89397670Y-55769935D02*
X89365624Y-55675660D01*
X89365624Y-55675660D02*
X89310726Y-55596379D01*
X89310726Y-55596379D02*
X89293607Y-55578733D01*
X89293607Y-55578733D02*
X89242661Y-55529235D01*
X89242661Y-55529235D02*
X89239163Y-55179362D01*
X89239163Y-55179362D02*
X89235664Y-54829489D01*
X89235664Y-54829489D02*
X89324818Y-54694531D01*
X89324818Y-54694531D02*
X89366654Y-54633445D01*
X89366654Y-54633445D02*
X89406945Y-54578493D01*
X89406945Y-54578493D02*
X89439943Y-54537336D01*
X89439943Y-54537336D02*
X89454126Y-54522192D01*
X89454126Y-54522192D02*
X89494281Y-54484810D01*
X89494281Y-54484810D02*
X89548665Y-54514098D01*
X89548665Y-54514098D02*
X89583039Y-54535084D01*
X89583039Y-54535084D02*
X89601846Y-54551378D01*
X89601846Y-54551378D02*
X89603049Y-54554307D01*
X89603049Y-54554307D02*
X89615903Y-54566728D01*
X89615903Y-54566728D02*
X89637896Y-54575977D01*
X89637896Y-54575977D02*
X89659150Y-54584313D01*
X89659150Y-54584313D02*
X89691694Y-54600149D01*
X89691694Y-54600149D02*
X89738322Y-54625033D01*
X89738322Y-54625033D02*
X89801829Y-54660509D01*
X89801829Y-54660509D02*
X89885008Y-54708123D01*
X89885008Y-54708123D02*
X89990653Y-54769422D01*
X89990653Y-54769422D02*
X90048062Y-54802932D01*
X90048062Y-54802932D02*
X90115594Y-54843071D01*
X90115594Y-54843071D02*
X90159885Y-54871659D01*
X90159885Y-54871659D02*
X90184855Y-54892039D01*
X90184855Y-54892039D02*
X90194423Y-54907553D01*
X90194423Y-54907553D02*
X90192508Y-54921546D01*
X90192508Y-54921546D02*
X90190911Y-54924796D01*
X90190911Y-54924796D02*
X90175376Y-54945266D01*
X90175376Y-54945266D02*
X90142136Y-54983665D01*
X90142136Y-54983665D02*
X90095062Y-55035696D01*
X90095062Y-55035696D02*
X90038028Y-55097066D01*
X90038028Y-55097066D02*
X89988700Y-55149090D01*
X89988700Y-55149090D02*
X89875030Y-55272567D01*
X89875030Y-55272567D02*
X89786105Y-55379591D01*
X89786105Y-55379591D02*
X89721134Y-55471240D01*
X89721134Y-55471240D02*
X89679321Y-55548588D01*
X89679321Y-55548588D02*
X89665217Y-55587866D01*
X89665217Y-55587866D02*
X89659392Y-55622249D01*
X89659392Y-55622249D02*
X89653375Y-55680899D01*
X89653375Y-55680899D02*
X89647696Y-55757117D01*
X89647696Y-55757117D02*
X89642884Y-55844202D01*
X89642884Y-55844202D02*
X89640619Y-55899268D01*
X89640619Y-55899268D02*
X89637459Y-55994464D01*
X89637459Y-55994464D02*
X89636069Y-56064062D01*
X89636069Y-56064062D02*
X89636858Y-56113409D01*
X89636858Y-56113409D02*
X89640235Y-56147854D01*
X89640235Y-56147854D02*
X89646608Y-56172743D01*
X89646608Y-56172743D02*
X89656387Y-56193425D01*
X89656387Y-56193425D02*
X89664067Y-56206053D01*
X89664067Y-56206053D02*
X89708421Y-56254726D01*
X89708421Y-56254726D02*
X89765574Y-56288645D01*
X89765574Y-56288645D02*
X89825708Y-56303438D01*
X89825708Y-56303438D02*
X89870773Y-56298086D01*
X89870773Y-56298086D02*
X89911576Y-56274930D01*
X89911576Y-56274930D02*
X89962724Y-56233462D01*
X89962724Y-56233462D02*
X90017042Y-56180912D01*
X90017042Y-56180912D02*
X90067357Y-56124516D01*
X90067357Y-56124516D02*
X90106494Y-56071505D01*
X90106494Y-56071505D02*
X90120905Y-56045889D01*
X90120905Y-56045889D02*
X90142491Y-56010814D01*
X90142491Y-56010814D02*
X90181753Y-55957389D01*
X90181753Y-55957389D02*
X90235102Y-55889789D01*
X90235102Y-55889789D02*
X90298952Y-55812190D01*
X90298952Y-55812190D02*
X90369715Y-55728768D01*
X90369715Y-55728768D02*
X90443804Y-55643698D01*
X90443804Y-55643698D02*
X90517632Y-55561155D01*
X90517632Y-55561155D02*
X90587611Y-55485316D01*
X90587611Y-55485316D02*
X90650155Y-55420356D01*
X90650155Y-55420356D02*
X90699260Y-55372669D01*
X90699260Y-55372669D02*
X90753779Y-55325032D01*
X90753779Y-55325032D02*
X90799642Y-55289908D01*
X90799642Y-55289908D02*
X90831811Y-55270949D01*
X90831811Y-55270949D02*
X90842489Y-55268864D01*
X90842489Y-55268864D02*
X90858853Y-55277274D01*
X90858853Y-55277274D02*
X90899671Y-55299846D01*
X90899671Y-55299846D02*
X90962586Y-55335224D01*
X90962586Y-55335224D02*
X91045244Y-55382054D01*
X91045244Y-55382054D02*
X91145289Y-55438981D01*
X91145289Y-55438981D02*
X91260366Y-55504649D01*
X91260366Y-55504649D02*
X91388119Y-55577703D01*
X91388119Y-55577703D02*
X91526194Y-55656788D01*
X91526194Y-55656788D02*
X91672234Y-55740548D01*
X91672234Y-55740548D02*
X91823884Y-55827629D01*
X91823884Y-55827629D02*
X91978790Y-55916676D01*
X91978790Y-55916676D02*
X92134595Y-56006332D01*
X92134595Y-56006332D02*
X92288944Y-56095243D01*
X92288944Y-56095243D02*
X92439482Y-56182054D01*
X92439482Y-56182054D02*
X92583854Y-56265409D01*
X92583854Y-56265409D02*
X92719704Y-56343954D01*
X92719704Y-56343954D02*
X92844677Y-56416333D01*
X92844677Y-56416333D02*
X92956417Y-56481190D01*
X92956417Y-56481190D02*
X93052570Y-56537171D01*
X93052570Y-56537171D02*
X93130779Y-56582920D01*
X93130779Y-56582920D02*
X93188689Y-56617083D01*
X93188689Y-56617083D02*
X93223946Y-56638304D01*
X93223946Y-56638304D02*
X93234165Y-56644963D01*
X93234165Y-56644963D02*
X93220402Y-56646280D01*
X93220402Y-56646280D02*
X93177104Y-56647559D01*
X93177104Y-56647559D02*
X93105714Y-56648796D01*
X93105714Y-56648796D02*
X93007673Y-56649983D01*
X93007673Y-56649983D02*
X92884422Y-56651115D01*
X92884422Y-56651115D02*
X92737403Y-56652186D01*
X92737403Y-56652186D02*
X92568057Y-56653189D01*
X92568057Y-56653189D02*
X92377826Y-56654119D01*
X92377826Y-56654119D02*
X92168151Y-56654968D01*
X92168151Y-56654968D02*
X91940473Y-56655732D01*
X91940473Y-56655732D02*
X91696235Y-56656403D01*
X91696235Y-56656403D02*
X91436877Y-56656976D01*
X91436877Y-56656976D02*
X91163841Y-56657444D01*
X91163841Y-56657444D02*
X90878568Y-56657802D01*
X90878568Y-56657802D02*
X90582500Y-56658042D01*
X90582500Y-56658042D02*
X90277079Y-56658159D01*
X90277079Y-56658159D02*
X90148924Y-56658171D01*
X90148924Y-56658171D02*
X87048970Y-56658171D01*
X87048970Y-56658171D02*
X87270053Y-56274847D01*
X87270053Y-56274847D02*
X87316856Y-56193680D01*
X87316856Y-56193680D02*
X87377102Y-56089166D01*
X87377102Y-56089166D02*
X87448778Y-55964801D01*
X87448778Y-55964801D02*
X87529869Y-55824082D01*
X87529869Y-55824082D02*
X87618362Y-55670503D01*
X87618362Y-55670503D02*
X87712240Y-55507562D01*
X87712240Y-55507562D02*
X87809491Y-55338754D01*
X87809491Y-55338754D02*
X87908100Y-55167575D01*
X87908100Y-55167575D02*
X88006053Y-54997521D01*
X88006053Y-54997521D02*
X88030825Y-54954512D01*
X88030825Y-54954512D02*
X88121152Y-54797857D01*
X88121152Y-54797857D02*
X88207289Y-54648803D01*
X88207289Y-54648803D02*
X88287942Y-54509568D01*
X88287942Y-54509568D02*
X88361816Y-54382371D01*
X88361816Y-54382371D02*
X88427617Y-54269432D01*
X88427617Y-54269432D02*
X88484050Y-54172968D01*
X88484050Y-54172968D02*
X88529821Y-54095200D01*
X88529821Y-54095200D02*
X88563635Y-54038346D01*
X88563635Y-54038346D02*
X88584198Y-54004625D01*
X88584198Y-54004625D02*
X88589953Y-53996040D01*
X88589953Y-53996040D02*
X88602058Y-53989189D01*
X88602058Y-53989189D02*
X88622094Y-53991158D01*
X88622094Y-53991158D02*
X88622094Y-53991158D01*
G36*
X88622094Y-53991158D02*
G01*
X88654619Y-54003736D01*
X88704193Y-54028712D01*
X88775374Y-54067876D01*
X88780916Y-54070988D01*
X88846474Y-54108476D01*
X88901798Y-54141319D01*
X88941455Y-54166205D01*
X88960012Y-54179820D01*
X88960531Y-54180487D01*
X88956048Y-54199390D01*
X88935486Y-54241605D01*
X88900183Y-54304832D01*
X88851480Y-54386772D01*
X88790718Y-54485122D01*
X88719236Y-54597585D01*
X88701445Y-54625165D01*
X88655093Y-54701699D01*
X88621342Y-54767556D01*
X88603153Y-54816782D01*
X88601286Y-54826507D01*
X88602115Y-54869312D01*
X88611394Y-54937209D01*
X88627968Y-55025843D01*
X88650680Y-55130859D01*
X88678373Y-55247902D01*
X88709890Y-55372616D01*
X88744075Y-55500645D01*
X88779771Y-55627634D01*
X88815821Y-55749228D01*
X88851068Y-55861072D01*
X88884356Y-55958810D01*
X88914528Y-56038087D01*
X88935561Y-56085122D01*
X88960337Y-56135225D01*
X88983730Y-56183168D01*
X88984997Y-56185793D01*
X89023699Y-56234220D01*
X89080184Y-56266828D01*
X89145939Y-56282454D01*
X89212451Y-56279937D01*
X89271205Y-56258114D01*
X89304258Y-56229382D01*
X89351859Y-56150583D01*
X89386739Y-56052378D01*
X89405877Y-55944779D01*
X89408588Y-55883780D01*
X89397670Y-55769935D01*
X89365624Y-55675660D01*
X89310726Y-55596379D01*
X89293607Y-55578733D01*
X89242661Y-55529235D01*
X89239163Y-55179362D01*
X89235664Y-54829489D01*
X89324818Y-54694531D01*
X89366654Y-54633445D01*
X89406945Y-54578493D01*
X89439943Y-54537336D01*
X89454126Y-54522192D01*
X89494281Y-54484810D01*
X89548665Y-54514098D01*
X89583039Y-54535084D01*
X89601846Y-54551378D01*
X89603049Y-54554307D01*
X89615903Y-54566728D01*
X89637896Y-54575977D01*
X89659150Y-54584313D01*
X89691694Y-54600149D01*
X89738322Y-54625033D01*
X89801829Y-54660509D01*
X89885008Y-54708123D01*
X89990653Y-54769422D01*
X90048062Y-54802932D01*
X90115594Y-54843071D01*
X90159885Y-54871659D01*
X90184855Y-54892039D01*
X90194423Y-54907553D01*
X90192508Y-54921546D01*
X90190911Y-54924796D01*
X90175376Y-54945266D01*
X90142136Y-54983665D01*
X90095062Y-55035696D01*
X90038028Y-55097066D01*
X89988700Y-55149090D01*
X89875030Y-55272567D01*
X89786105Y-55379591D01*
X89721134Y-55471240D01*
X89679321Y-55548588D01*
X89665217Y-55587866D01*
X89659392Y-55622249D01*
X89653375Y-55680899D01*
X89647696Y-55757117D01*
X89642884Y-55844202D01*
X89640619Y-55899268D01*
X89637459Y-55994464D01*
X89636069Y-56064062D01*
X89636858Y-56113409D01*
X89640235Y-56147854D01*
X89646608Y-56172743D01*
X89656387Y-56193425D01*
X89664067Y-56206053D01*
X89708421Y-56254726D01*
X89765574Y-56288645D01*
X89825708Y-56303438D01*
X89870773Y-56298086D01*
X89911576Y-56274930D01*
X89962724Y-56233462D01*
X90017042Y-56180912D01*
X90067357Y-56124516D01*
X90106494Y-56071505D01*
X90120905Y-56045889D01*
X90142491Y-56010814D01*
X90181753Y-55957389D01*
X90235102Y-55889789D01*
X90298952Y-55812190D01*
X90369715Y-55728768D01*
X90443804Y-55643698D01*
X90517632Y-55561155D01*
X90587611Y-55485316D01*
X90650155Y-55420356D01*
X90699260Y-55372669D01*
X90753779Y-55325032D01*
X90799642Y-55289908D01*
X90831811Y-55270949D01*
X90842489Y-55268864D01*
X90858853Y-55277274D01*
X90899671Y-55299846D01*
X90962586Y-55335224D01*
X91045244Y-55382054D01*
X91145289Y-55438981D01*
X91260366Y-55504649D01*
X91388119Y-55577703D01*
X91526194Y-55656788D01*
X91672234Y-55740548D01*
X91823884Y-55827629D01*
X91978790Y-55916676D01*
X92134595Y-56006332D01*
X92288944Y-56095243D01*
X92439482Y-56182054D01*
X92583854Y-56265409D01*
X92719704Y-56343954D01*
X92844677Y-56416333D01*
X92956417Y-56481190D01*
X93052570Y-56537171D01*
X93130779Y-56582920D01*
X93188689Y-56617083D01*
X93223946Y-56638304D01*
X93234165Y-56644963D01*
X93220402Y-56646280D01*
X93177104Y-56647559D01*
X93105714Y-56648796D01*
X93007673Y-56649983D01*
X92884422Y-56651115D01*
X92737403Y-56652186D01*
X92568057Y-56653189D01*
X92377826Y-56654119D01*
X92168151Y-56654968D01*
X91940473Y-56655732D01*
X91696235Y-56656403D01*
X91436877Y-56656976D01*
X91163841Y-56657444D01*
X90878568Y-56657802D01*
X90582500Y-56658042D01*
X90277079Y-56658159D01*
X90148924Y-56658171D01*
X87048970Y-56658171D01*
X87270053Y-56274847D01*
X87316856Y-56193680D01*
X87377102Y-56089166D01*
X87448778Y-55964801D01*
X87529869Y-55824082D01*
X87618362Y-55670503D01*
X87712240Y-55507562D01*
X87809491Y-55338754D01*
X87908100Y-55167575D01*
X88006053Y-54997521D01*
X88030825Y-54954512D01*
X88121152Y-54797857D01*
X88207289Y-54648803D01*
X88287942Y-54509568D01*
X88361816Y-54382371D01*
X88427617Y-54269432D01*
X88484050Y-54172968D01*
X88529821Y-54095200D01*
X88563635Y-54038346D01*
X88584198Y-54004625D01*
X88589953Y-53996040D01*
X88602058Y-53989189D01*
X88622094Y-53991158D01*
G37*
X88622094Y-53991158D02*
X88654619Y-54003736D01*
X88704193Y-54028712D01*
X88775374Y-54067876D01*
X88780916Y-54070988D01*
X88846474Y-54108476D01*
X88901798Y-54141319D01*
X88941455Y-54166205D01*
X88960012Y-54179820D01*
X88960531Y-54180487D01*
X88956048Y-54199390D01*
X88935486Y-54241605D01*
X88900183Y-54304832D01*
X88851480Y-54386772D01*
X88790718Y-54485122D01*
X88719236Y-54597585D01*
X88701445Y-54625165D01*
X88655093Y-54701699D01*
X88621342Y-54767556D01*
X88603153Y-54816782D01*
X88601286Y-54826507D01*
X88602115Y-54869312D01*
X88611394Y-54937209D01*
X88627968Y-55025843D01*
X88650680Y-55130859D01*
X88678373Y-55247902D01*
X88709890Y-55372616D01*
X88744075Y-55500645D01*
X88779771Y-55627634D01*
X88815821Y-55749228D01*
X88851068Y-55861072D01*
X88884356Y-55958810D01*
X88914528Y-56038087D01*
X88935561Y-56085122D01*
X88960337Y-56135225D01*
X88983730Y-56183168D01*
X88984997Y-56185793D01*
X89023699Y-56234220D01*
X89080184Y-56266828D01*
X89145939Y-56282454D01*
X89212451Y-56279937D01*
X89271205Y-56258114D01*
X89304258Y-56229382D01*
X89351859Y-56150583D01*
X89386739Y-56052378D01*
X89405877Y-55944779D01*
X89408588Y-55883780D01*
X89397670Y-55769935D01*
X89365624Y-55675660D01*
X89310726Y-55596379D01*
X89293607Y-55578733D01*
X89242661Y-55529235D01*
X89239163Y-55179362D01*
X89235664Y-54829489D01*
X89324818Y-54694531D01*
X89366654Y-54633445D01*
X89406945Y-54578493D01*
X89439943Y-54537336D01*
X89454126Y-54522192D01*
X89494281Y-54484810D01*
X89548665Y-54514098D01*
X89583039Y-54535084D01*
X89601846Y-54551378D01*
X89603049Y-54554307D01*
X89615903Y-54566728D01*
X89637896Y-54575977D01*
X89659150Y-54584313D01*
X89691694Y-54600149D01*
X89738322Y-54625033D01*
X89801829Y-54660509D01*
X89885008Y-54708123D01*
X89990653Y-54769422D01*
X90048062Y-54802932D01*
X90115594Y-54843071D01*
X90159885Y-54871659D01*
X90184855Y-54892039D01*
X90194423Y-54907553D01*
X90192508Y-54921546D01*
X90190911Y-54924796D01*
X90175376Y-54945266D01*
X90142136Y-54983665D01*
X90095062Y-55035696D01*
X90038028Y-55097066D01*
X89988700Y-55149090D01*
X89875030Y-55272567D01*
X89786105Y-55379591D01*
X89721134Y-55471240D01*
X89679321Y-55548588D01*
X89665217Y-55587866D01*
X89659392Y-55622249D01*
X89653375Y-55680899D01*
X89647696Y-55757117D01*
X89642884Y-55844202D01*
X89640619Y-55899268D01*
X89637459Y-55994464D01*
X89636069Y-56064062D01*
X89636858Y-56113409D01*
X89640235Y-56147854D01*
X89646608Y-56172743D01*
X89656387Y-56193425D01*
X89664067Y-56206053D01*
X89708421Y-56254726D01*
X89765574Y-56288645D01*
X89825708Y-56303438D01*
X89870773Y-56298086D01*
X89911576Y-56274930D01*
X89962724Y-56233462D01*
X90017042Y-56180912D01*
X90067357Y-56124516D01*
X90106494Y-56071505D01*
X90120905Y-56045889D01*
X90142491Y-56010814D01*
X90181753Y-55957389D01*
X90235102Y-55889789D01*
X90298952Y-55812190D01*
X90369715Y-55728768D01*
X90443804Y-55643698D01*
X90517632Y-55561155D01*
X90587611Y-55485316D01*
X90650155Y-55420356D01*
X90699260Y-55372669D01*
X90753779Y-55325032D01*
X90799642Y-55289908D01*
X90831811Y-55270949D01*
X90842489Y-55268864D01*
X90858853Y-55277274D01*
X90899671Y-55299846D01*
X90962586Y-55335224D01*
X91045244Y-55382054D01*
X91145289Y-55438981D01*
X91260366Y-55504649D01*
X91388119Y-55577703D01*
X91526194Y-55656788D01*
X91672234Y-55740548D01*
X91823884Y-55827629D01*
X91978790Y-55916676D01*
X92134595Y-56006332D01*
X92288944Y-56095243D01*
X92439482Y-56182054D01*
X92583854Y-56265409D01*
X92719704Y-56343954D01*
X92844677Y-56416333D01*
X92956417Y-56481190D01*
X93052570Y-56537171D01*
X93130779Y-56582920D01*
X93188689Y-56617083D01*
X93223946Y-56638304D01*
X93234165Y-56644963D01*
X93220402Y-56646280D01*
X93177104Y-56647559D01*
X93105714Y-56648796D01*
X93007673Y-56649983D01*
X92884422Y-56651115D01*
X92737403Y-56652186D01*
X92568057Y-56653189D01*
X92377826Y-56654119D01*
X92168151Y-56654968D01*
X91940473Y-56655732D01*
X91696235Y-56656403D01*
X91436877Y-56656976D01*
X91163841Y-56657444D01*
X90878568Y-56657802D01*
X90582500Y-56658042D01*
X90277079Y-56658159D01*
X90148924Y-56658171D01*
X87048970Y-56658171D01*
X87270053Y-56274847D01*
X87316856Y-56193680D01*
X87377102Y-56089166D01*
X87448778Y-55964801D01*
X87529869Y-55824082D01*
X87618362Y-55670503D01*
X87712240Y-55507562D01*
X87809491Y-55338754D01*
X87908100Y-55167575D01*
X88006053Y-54997521D01*
X88030825Y-54954512D01*
X88121152Y-54797857D01*
X88207289Y-54648803D01*
X88287942Y-54509568D01*
X88361816Y-54382371D01*
X88427617Y-54269432D01*
X88484050Y-54172968D01*
X88529821Y-54095200D01*
X88563635Y-54038346D01*
X88584198Y-54004625D01*
X88589953Y-53996040D01*
X88602058Y-53989189D01*
X88622094Y-53991158D01*
D11*
%TO.C,R21*%
X120448234Y-88637258D02*
X120448234Y-88162742D01*
X119403234Y-88637258D02*
X119403234Y-88162742D01*
%TO.C,U4*%
X118915734Y-83610000D02*
X118915734Y-82960000D01*
X125485734Y-76390000D02*
X126135734Y-76390000D01*
X126135734Y-76390000D02*
X126135734Y-77040000D01*
X119565734Y-76390000D02*
X118915734Y-76390000D01*
X119565734Y-83610000D02*
X118915734Y-83610000D01*
X118915734Y-76390000D02*
X118915734Y-77040000D01*
X125485734Y-83610000D02*
X126135734Y-83610000D01*
%TO.C,R16*%
X137672500Y-74187258D02*
X137672500Y-73712742D01*
X136627500Y-74187258D02*
X136627500Y-73712742D01*
%TO.C,RN1*%
X114775734Y-84190000D02*
X115275734Y-84190000D01*
X114775734Y-81910000D02*
X115275734Y-81910000D01*
%TO.C,Y1*%
X122375000Y-89550000D02*
X125075000Y-89550000D01*
X122375000Y-87250000D02*
X122375000Y-89550000D01*
%TO.C,R23*%
X132008476Y-73322500D02*
X132482992Y-73322500D01*
X132008476Y-72277500D02*
X132482992Y-72277500D01*
%TO.C,SW5*%
X102087500Y-87475000D02*
X103350000Y-87475000D01*
D10*
X106750000Y-90625000D02*
X106750000Y-89625000D01*
X104150000Y-90625000D02*
X104150000Y-89625000D01*
D11*
X108800000Y-87475000D02*
X107450000Y-87475000D01*
X104375000Y-87375000D02*
X106525000Y-87375000D01*
D10*
X104150000Y-89625000D02*
X106750000Y-89625000D01*
X104150000Y-90625000D02*
X106750000Y-90625000D01*
D11*
X106800000Y-89875000D02*
X108800000Y-89875000D01*
X108800000Y-87475000D02*
X108800000Y-89875000D01*
X102087500Y-89875000D02*
X104100000Y-89875000D01*
X102087500Y-87475000D02*
X102087500Y-89875000D01*
%TO.C,G\u002A\u002A\u002A*%
G36*
X91166666Y-65300000D02*
G01*
X90966666Y-65300000D01*
X90966666Y-64866666D01*
X91166666Y-64866666D01*
X91166666Y-65300000D01*
G37*
G36*
X91166666Y-64200000D02*
G01*
X90966666Y-64200000D01*
X90966666Y-64000000D01*
X91166666Y-64000000D01*
X91166666Y-64200000D01*
G37*
G36*
X92266666Y-64216666D02*
G01*
X92483333Y-64216666D01*
X92483333Y-65083333D01*
X91834923Y-65083333D01*
X91829961Y-65187500D01*
X91825000Y-65291666D01*
X91612500Y-65296331D01*
X91400000Y-65300995D01*
X91400000Y-64866666D01*
X91184856Y-64866666D01*
X91175000Y-64641666D01*
X90966666Y-64631742D01*
X90966666Y-64433333D01*
X91400000Y-64433333D01*
X91400000Y-64216666D01*
X91616666Y-64216666D01*
X91616666Y-64433333D01*
X91833333Y-64433333D01*
X91833333Y-64633333D01*
X91616666Y-64633333D01*
X91616666Y-65083333D01*
X91833333Y-65083333D01*
X91833333Y-64866666D01*
X92050000Y-64866666D01*
X92050000Y-64416666D01*
X91833333Y-64416666D01*
X91833333Y-64216666D01*
X92050000Y-64216666D01*
X92050000Y-64000000D01*
X92266666Y-64000000D01*
X92266666Y-64216666D01*
G37*
G36*
X89000000Y-65300000D02*
G01*
X88686111Y-65300000D01*
X88587028Y-65299436D01*
X88499609Y-65297867D01*
X88429240Y-65295477D01*
X88381309Y-65292450D01*
X88361201Y-65288971D01*
X88361111Y-65288888D01*
X88357623Y-65269470D01*
X88354584Y-65222106D01*
X88352178Y-65152183D01*
X88350588Y-65065089D01*
X88350000Y-64966210D01*
X88350000Y-64650000D01*
X89000000Y-64650000D01*
X89000000Y-65300000D01*
G37*
G36*
X89433333Y-61166666D02*
G01*
X89433333Y-62683333D01*
X87916666Y-62683333D01*
X87916666Y-61383333D01*
X88133333Y-61383333D01*
X88133333Y-62483788D01*
X88679166Y-62479394D01*
X89225000Y-62475000D01*
X89229394Y-61929166D01*
X89233788Y-61383333D01*
X88133333Y-61383333D01*
X87916666Y-61383333D01*
X87916666Y-61166666D01*
X89433333Y-61166666D01*
G37*
G36*
X90950000Y-64416666D02*
G01*
X90750000Y-64416666D01*
X90750000Y-64216666D01*
X90950000Y-64216666D01*
X90950000Y-64416666D01*
G37*
G36*
X91720833Y-61603806D02*
G01*
X92041666Y-61608333D01*
X92046193Y-61929166D01*
X92050719Y-62250000D01*
X91400000Y-62250000D01*
X91400000Y-61599280D01*
X91720833Y-61603806D01*
G37*
G36*
X90083333Y-62033333D02*
G01*
X89866666Y-62033333D01*
X89866666Y-63133333D01*
X90083333Y-63133333D01*
X90083333Y-63566666D01*
X90316666Y-63566666D01*
X90316666Y-63350000D01*
X90516666Y-63350000D01*
X90516666Y-63566666D01*
X90966666Y-63566666D01*
X90966666Y-63350000D01*
X91166666Y-63350000D01*
X91166666Y-63766666D01*
X89884923Y-63766666D01*
X89879961Y-63662500D01*
X89875000Y-63558333D01*
X89771608Y-63553391D01*
X89668217Y-63548449D01*
X89663275Y-63445058D01*
X89658333Y-63341666D01*
X89554941Y-63336724D01*
X89451550Y-63331782D01*
X89441666Y-63125000D01*
X89337500Y-63120038D01*
X89233333Y-63115076D01*
X89233333Y-62917662D01*
X89445833Y-62912997D01*
X89658333Y-62908333D01*
X89662727Y-62362500D01*
X89667122Y-61816666D01*
X90083333Y-61816666D01*
X90083333Y-62033333D01*
G37*
G36*
X89000000Y-62250000D02*
G01*
X88349280Y-62250000D01*
X88353806Y-61929166D01*
X88358333Y-61608333D01*
X88679166Y-61603806D01*
X89000000Y-61599280D01*
X89000000Y-62250000D01*
G37*
G36*
X92483333Y-65733333D02*
G01*
X92266666Y-65733333D01*
X92266666Y-65516666D01*
X92483333Y-65516666D01*
X92483333Y-65733333D01*
G37*
G36*
X89866666Y-64216666D02*
G01*
X90300000Y-64216666D01*
X90300000Y-64633333D01*
X90101590Y-64633333D01*
X90096628Y-64529166D01*
X90091666Y-64425000D01*
X89666666Y-64415670D01*
X89666666Y-64000000D01*
X89866666Y-64000000D01*
X89866666Y-64216666D01*
G37*
G36*
X92483333Y-61166666D02*
G01*
X92483333Y-62683333D01*
X90966666Y-62683333D01*
X90966666Y-61383333D01*
X91166666Y-61383333D01*
X91166666Y-61922222D01*
X91166998Y-62053066D01*
X91167938Y-62173127D01*
X91169407Y-62278371D01*
X91171321Y-62364767D01*
X91173599Y-62428281D01*
X91176161Y-62464880D01*
X91177777Y-62472222D01*
X91196553Y-62474913D01*
X91244629Y-62477369D01*
X91317973Y-62479509D01*
X91412551Y-62481250D01*
X91524332Y-62482513D01*
X91649283Y-62483215D01*
X91727777Y-62483333D01*
X92266666Y-62483333D01*
X92266666Y-61383333D01*
X91166666Y-61383333D01*
X90966666Y-61383333D01*
X90966666Y-61166666D01*
X92483333Y-61166666D01*
G37*
G36*
X90516666Y-64200000D02*
G01*
X90316666Y-64200000D01*
X90316666Y-64000000D01*
X90516666Y-64000000D01*
X90516666Y-64200000D01*
G37*
G36*
X89866666Y-61383333D02*
G01*
X89666666Y-61383333D01*
X89666666Y-61166666D01*
X89866666Y-61166666D01*
X89866666Y-61383333D01*
G37*
G36*
X89000000Y-63133333D02*
G01*
X89216666Y-63133333D01*
X89216666Y-63350000D01*
X89433333Y-63350000D01*
X89433333Y-63550000D01*
X89216666Y-63550000D01*
X89216666Y-63783333D01*
X89433333Y-63783333D01*
X89433333Y-63983333D01*
X89017386Y-63983333D01*
X89012859Y-63662500D01*
X89008333Y-63341666D01*
X88783333Y-63331810D01*
X88783333Y-63550000D01*
X88566666Y-63550000D01*
X88566666Y-63983333D01*
X88350000Y-63983333D01*
X88350000Y-63550000D01*
X88133333Y-63550000D01*
X88133333Y-63350000D01*
X88350000Y-63350000D01*
X88350000Y-63133333D01*
X88783333Y-63133333D01*
X88783333Y-62916666D01*
X89000000Y-62916666D01*
X89000000Y-63133333D01*
G37*
G36*
X92483333Y-63116666D02*
G01*
X92266666Y-63116666D01*
X92266666Y-62916666D01*
X92483333Y-62916666D01*
X92483333Y-63116666D01*
G37*
G36*
X89433333Y-64216666D02*
G01*
X89433333Y-65733333D01*
X87916666Y-65733333D01*
X87916666Y-64416211D01*
X88133333Y-64416211D01*
X88133333Y-65516666D01*
X89233788Y-65516666D01*
X89225000Y-64425000D01*
X88679166Y-64420605D01*
X88133333Y-64416211D01*
X87916666Y-64416211D01*
X87916666Y-64216666D01*
X89433333Y-64216666D01*
G37*
G36*
X89866666Y-65733333D02*
G01*
X89666666Y-65733333D01*
X89666666Y-65516666D01*
X89866666Y-65516666D01*
X89866666Y-65733333D01*
G37*
G36*
X90733333Y-64866666D02*
G01*
X90516666Y-64866666D01*
X90516666Y-65083333D01*
X90300000Y-65083333D01*
X90300000Y-65300000D01*
X90533333Y-65300000D01*
X90533333Y-65083333D01*
X90733333Y-65083333D01*
X90733333Y-65516666D01*
X90950000Y-65516666D01*
X90950000Y-65733333D01*
X90533333Y-65733333D01*
X90533333Y-65516666D01*
X90300000Y-65516666D01*
X90300000Y-65733333D01*
X90100000Y-65733333D01*
X90100000Y-65300000D01*
X89883333Y-65300000D01*
X89883333Y-65083333D01*
X90100000Y-65083333D01*
X90100000Y-64866666D01*
X90316666Y-64866666D01*
X90316666Y-64650000D01*
X90533333Y-64650000D01*
X90533333Y-64433333D01*
X90733333Y-64433333D01*
X90733333Y-64866666D01*
G37*
G36*
X88133333Y-63983333D02*
G01*
X87916666Y-63983333D01*
X87916666Y-63783333D01*
X88133333Y-63783333D01*
X88133333Y-63983333D01*
G37*
G36*
X90733333Y-63333333D02*
G01*
X90533333Y-63333333D01*
X90533333Y-63133333D01*
X90733333Y-63133333D01*
X90733333Y-63333333D01*
G37*
G36*
X90733333Y-62250000D02*
G01*
X90533333Y-62250000D01*
X90533333Y-61816666D01*
X90733333Y-61816666D01*
X90733333Y-62250000D01*
G37*
G36*
X92050000Y-63566666D02*
G01*
X92266666Y-63566666D01*
X92266666Y-63350000D01*
X92483333Y-63350000D01*
X92483333Y-63766666D01*
X91833333Y-63766666D01*
X91833333Y-64200000D01*
X91616666Y-64200000D01*
X91616666Y-63766666D01*
X91400000Y-63766666D01*
X91400000Y-63566666D01*
X91833333Y-63566666D01*
X91833333Y-63350000D01*
X92050000Y-63350000D01*
X92050000Y-63566666D01*
G37*
G36*
X91383333Y-63983333D02*
G01*
X91183333Y-63983333D01*
X91183333Y-63783333D01*
X91383333Y-63783333D01*
X91383333Y-63983333D01*
G37*
G36*
X89866666Y-64866666D02*
G01*
X89666666Y-64866666D01*
X89666666Y-64650000D01*
X89866666Y-64650000D01*
X89866666Y-64866666D01*
G37*
G36*
X88133333Y-63333333D02*
G01*
X87916666Y-63333333D01*
X87916666Y-62916666D01*
X88133333Y-62916666D01*
X88133333Y-63333333D01*
G37*
G36*
X90300000Y-61383333D02*
G01*
X90533333Y-61383333D01*
X90533333Y-61166666D01*
X90733333Y-61166666D01*
X90733333Y-61600000D01*
X89883333Y-61600000D01*
X89883333Y-61383333D01*
X90100000Y-61383333D01*
X90100000Y-61166666D01*
X90300000Y-61166666D01*
X90300000Y-61383333D01*
G37*
G36*
X90308333Y-62258333D02*
G01*
X90412500Y-62263295D01*
X90516666Y-62268257D01*
X90516666Y-62466666D01*
X90298477Y-62466666D01*
X90308333Y-62691666D01*
X90525000Y-62691666D01*
X90529961Y-62587500D01*
X90534923Y-62483333D01*
X90733333Y-62483333D01*
X90733333Y-62900000D01*
X90516666Y-62900000D01*
X90516666Y-63116666D01*
X90100000Y-63116666D01*
X90100000Y-62033333D01*
X90298477Y-62033333D01*
X90308333Y-62258333D01*
G37*
G36*
X91833333Y-63116666D02*
G01*
X91616666Y-63116666D01*
X91616666Y-63333333D01*
X91400000Y-63333333D01*
X91400000Y-63116666D01*
X90750000Y-63116666D01*
X90750000Y-62916666D01*
X91833333Y-62916666D01*
X91833333Y-63116666D01*
G37*
%TO.C,R14*%
X129603234Y-88637258D02*
X129603234Y-88162742D01*
X130648234Y-88637258D02*
X130648234Y-88162742D01*
%TO.C,C21*%
X135307836Y-79640000D02*
X135092164Y-79640000D01*
X135307836Y-80360000D02*
X135092164Y-80360000D01*
D10*
%TO.C,D2*%
X52520000Y-85065000D02*
G75*
G03*
X52520000Y-85065000I-50000J0D01*
G01*
D11*
%TO.C,R9*%
X66327500Y-87237258D02*
X66327500Y-86762742D01*
X67372500Y-87237258D02*
X67372500Y-86762742D01*
%TO.C,C49*%
X138860000Y-74007836D02*
X138860000Y-73792164D01*
X138140000Y-74007836D02*
X138140000Y-73792164D01*
%TO.C,C23*%
X137565000Y-77961252D02*
X137565000Y-77438748D01*
X139035000Y-77961252D02*
X139035000Y-77438748D01*
%TO.C,R19*%
X106290734Y-73462742D02*
X106290734Y-73937258D01*
X107335734Y-73462742D02*
X107335734Y-73937258D01*
%TO.C,C14*%
X126085734Y-88292164D02*
X126085734Y-88507836D01*
X125365734Y-88292164D02*
X125365734Y-88507836D01*
%TD*%
M02*
