M48
; DRILL file {KiCad (5.99.0-11593-g5155093ec0)} date Mon Aug  9 14:06:02 2021
; FORMAT={-:-/ absolute / metric / decimal}
; #@! TF.CreationDate,2021-08-09T14:06:02+02:00
; #@! TF.GenerationSoftware,Kicad,Pcbnew,(5.99.0-11593-g5155093ec0)
; #@! TF.FileFunction,Plated,1,4,PTH
FMAT,2
METRIC
; #@! TA.AperFunction,Plated,PTH,ViaDrill
T1C0.200
; #@! TA.AperFunction,Plated,PTH,ComponentDrill
T2C0.200
; #@! TA.AperFunction,Plated,PTH,ViaDrill
T3C0.300
; #@! TA.AperFunction,Plated,PTH,ViaDrill
T4C0.400
; #@! TA.AperFunction,Plated,PTH,ComponentDrill
T5C0.400
; #@! TA.AperFunction,Plated,PTH,ViaDrill
T6C0.600
; #@! TA.AperFunction,Plated,PTH,ComponentDrill
T7C0.600
; #@! TA.AperFunction,Plated,PTH,ComponentDrill
T8C0.700
; #@! TA.AperFunction,Plated,PTH,ComponentDrill
T9C2.200
%
G90
G05
T1
X40.9Y-32.5
X40.9Y-33.9
X40.9Y-47.5
X40.9Y-50.0
X40.9Y-52.5
X40.9Y-55.0
X40.9Y-57.5
X40.9Y-60.0
X40.9Y-62.5
X40.9Y-65.0
X40.9Y-67.5
X40.9Y-70.0
X40.9Y-72.5
X41.0Y-84.4
X41.0Y-86.9
X41.2Y-74.2
X41.2Y-76.3
X41.2Y-78.5
X41.2Y-80.7
X41.2Y-82.9
X42.9Y-72.5
X43.2Y-84.4
X44.8Y-91.3
X44.9Y-72.5
X45.2Y-39.15
X45.2Y-46.1
X45.3Y-84.4
X45.65Y-27.6
X45.7Y-39.65
X45.7Y-46.6
X46.2Y-39.15
X46.2Y-46.1
X46.7Y-39.65
X46.7Y-46.6
X46.9Y-72.5
X47.2Y-39.15
X47.2Y-46.1
X47.3Y-84.4
X47.3Y-91.3
X48.15Y-27.6
X49.05Y-76.2
X49.05Y-80.65
X49.3Y-82.3
X49.3Y-83.3
X49.3Y-84.4
X49.35Y-75.7
X49.65Y-76.2
X49.65Y-80.65
X49.8Y-91.3
X49.95Y-75.7
X50.25Y-76.2
X50.25Y-80.65
X50.65Y-27.6
X52.3Y-91.3
X52.47Y-82.27
X52.5Y-85.5
X53.15Y-27.6
X53.25Y-87.9
X53.3Y-77.6
X53.45Y-87.05
X54.3Y-88.65
X54.7Y-80.0
X54.7Y-82.0
X54.8Y-91.3
X55.65Y-27.6
X57.3Y-91.3
X58.15Y-27.6
X58.626Y-81.0
X59.8Y-91.3
X60.55Y-73.25
X60.65Y-27.6
X61.0Y-79.0
X62.3Y-91.3
X63.15Y-27.6
X63.3Y-78.7
X63.4Y-81.0
X63.4Y-81.95
X63.875Y-78.1
X64.376Y-72.65
X64.376Y-73.8
X64.55Y-78.4
X64.8Y-91.3
X65.1Y-84.05
X65.65Y-27.6
X66.8Y-83.65
X67.3Y-91.3
X68.15Y-27.6
X69.8Y-91.3
X70.65Y-27.6
X72.3Y-91.3
X73.0Y-81.2
X73.15Y-27.6
X74.8Y-91.3
X75.65Y-27.6
X77.3Y-91.3
X78.15Y-27.6
X79.15Y-84.1
X79.7Y-91.3
X80.65Y-27.6
X81.2Y-75.4
X81.2Y-77.7
X82.2Y-91.3
X83.15Y-27.6
X83.75Y-87.1
X83.85Y-79.425
X84.7Y-91.3
X85.05Y-79.425
X85.6Y-74.8
X85.65Y-27.6
X86.175Y-79.425
X86.3Y-88.3
X87.0Y-91.3
X87.8Y-71.5
X88.6Y-71.5
X89.7Y-77.0
X91.6Y-74.0
X91.6Y-74.85
X93.9Y-84.6
X93.9Y-85.4
X93.9Y-86.3
X93.9Y-87.2
X94.05Y-27.6
X94.7Y-91.3
X96.0Y-79.1
X96.55Y-27.6
X97.2Y-91.3
X97.9Y-79.0
X99.05Y-27.6
X101.1Y-71.2
X101.55Y-27.6
X101.8Y-85.65
X101.8Y-89.85
X102.125Y-81.275
X104.05Y-27.6
X104.6Y-71.2
X104.7Y-91.3
X106.55Y-27.6
X106.8Y-71.2
X107.2Y-91.3
X107.45Y-75.8
X107.45Y-77.6
X107.6Y-80.4
X107.6Y-81.1
X108.376Y-71.2
X109.05Y-27.6
X109.2Y-77.975
X109.225Y-79.225
X109.7Y-91.3
X109.725Y-75.5
X110.05Y-81.65
X111.0Y-70.4
X111.3Y-91.15
X111.55Y-27.6
X112.025Y-75.5
X112.7Y-78.6
X112.725Y-81.65
X113.35Y-91.15
X113.7Y-70.4
X114.05Y-27.6
X115.35Y-91.3
X116.4Y-75.9
X116.55Y-27.6
X116.676Y-78.05
X116.676Y-78.771
X116.676Y-79.98
X117.1Y-88.4
X117.2Y-91.3
X118.0Y-74.275
X118.9Y-75.15
X119.05Y-27.6
X119.179Y-72.521
X119.45Y-74.5
X119.7Y-91.3
X119.9Y-72.5
X120.8Y-88.4
X121.275Y-85.225
X121.501Y-73.775
X121.55Y-27.6
X121.6Y-90.1
X121.626Y-86.7
X122.025Y-85.225
X122.2Y-91.3
X122.326Y-73.75
X123.0Y-90.1
X123.001Y-86.7
X123.126Y-72.55
X124.05Y-27.6
X124.426Y-90.051
X124.6Y-86.7
X124.7Y-91.3
X125.7Y-86.7
X125.726Y-90.051
X126.2Y-75.2
X126.55Y-27.6
X126.6Y-88.4
X126.75Y-65.8
X127.1Y-71.2
X127.2Y-91.3
X127.3Y-84.0
X127.7Y-69.9
X128.1Y-64.6
X128.8Y-63.8
X129.05Y-27.6
X129.4Y-84.0
X129.5Y-64.6
X129.7Y-91.3
X130.326Y-86.3
X130.726Y-86.9
X130.926Y-80.7
X131.126Y-86.3
X131.4Y-75.5
X131.426Y-71.5
X131.5Y-84.0
X131.526Y-86.9
X131.55Y-27.6
X132.1Y-61.5
X132.2Y-91.3
X132.7Y-71.5
X133.5Y-84.0
X133.9Y-80.6
X134.05Y-27.6
X134.7Y-91.3
X135.7Y-84.0
X136.7Y-79.8
X136.7Y-80.6
X137.7Y-84.0
X138.1Y-80.6
X139.7Y-78.1
X139.7Y-80.6
X139.8Y-33.1
X139.8Y-35.6
X139.8Y-38.1
X139.8Y-40.6
X139.8Y-43.1
X139.8Y-45.6
X139.8Y-48.1
X139.8Y-50.6
X139.8Y-53.1
X139.8Y-55.6
X139.8Y-58.1
X139.8Y-60.6
X139.8Y-63.1
X139.8Y-65.6
X139.8Y-68.1
X139.8Y-70.6
X139.8Y-73.1
X139.8Y-75.6
T2
X120.776Y-78.25
X120.776Y-79.4
X120.776Y-80.6
X120.776Y-81.75
X121.976Y-78.25
X121.976Y-79.4
X121.976Y-80.6
X121.976Y-81.75
X123.051Y-78.25
X123.051Y-79.4
X123.051Y-80.6
X123.051Y-81.75
X124.276Y-78.25
X124.276Y-79.4
X124.276Y-80.6
X124.276Y-81.75
T3
X41.85Y-37.55
X41.85Y-38.55
X41.85Y-39.55
X41.85Y-40.55
X41.85Y-41.55
X42.9Y-37.55
X42.9Y-38.55
X42.9Y-39.55
X42.9Y-40.55
X42.9Y-41.55
X66.9Y-76.5
X67.55Y-75.975
X67.625Y-77.725
X67.625Y-78.325
X67.726Y-74.9
X68.325Y-75.85
X69.45Y-76.85
X69.45Y-77.6
X70.1Y-79.625
X70.125Y-78.775
X70.3Y-76.85
X70.3Y-77.6
X71.625Y-78.775
X73.325Y-78.775
X74.6Y-80.5
X74.6Y-81.2
X86.326Y-80.65
X99.35Y-80.0
X99.35Y-80.9
X103.525Y-77.938
X103.526Y-78.625
X104.3Y-77.938
X104.3Y-78.625
X129.1Y-89.225
X134.7Y-76.0
X136.525Y-76.0
X138.3Y-76.0
T4
X85.9Y-72.2
T5
X41.05Y-29.3
X41.05Y-89.3
X41.533Y-28.133
X41.533Y-30.467
X41.533Y-88.133
X41.533Y-90.467
X42.7Y-27.65
X42.7Y-30.95
X42.7Y-87.65
X42.7Y-90.95
X43.867Y-28.133
X43.867Y-30.467
X43.867Y-88.133
X43.867Y-90.467
X44.35Y-29.3
X44.35Y-89.3
X88.55Y-29.3
X88.55Y-89.3
X89.033Y-28.133
X89.033Y-30.467
X89.033Y-88.133
X89.033Y-90.467
X90.2Y-27.65
X90.2Y-30.95
X90.2Y-87.65
X90.2Y-90.95
X91.367Y-28.133
X91.367Y-30.467
X91.367Y-88.133
X91.367Y-90.467
X91.85Y-29.3
X91.85Y-89.3
X136.05Y-29.3
X136.05Y-89.3
X136.533Y-28.133
X136.533Y-30.467
X136.533Y-88.133
X136.533Y-90.467
X137.7Y-27.65
X137.7Y-30.95
X137.7Y-87.65
X137.7Y-90.95
X138.867Y-28.133
X138.867Y-30.467
X138.867Y-88.133
X138.867Y-90.467
X139.35Y-29.3
X139.35Y-89.3
T6
X70.9Y-84.9
X72.1Y-84.9
X73.3Y-84.9
X137.15Y-71.7
T8
X138.425Y-53.6
X138.425Y-54.87
X138.425Y-56.14
X138.425Y-57.41
X138.425Y-58.68
X138.425Y-59.95
X138.425Y-61.22
X138.425Y-62.49
X138.425Y-63.76
X138.425Y-65.03
T9
X42.7Y-29.3
X42.7Y-89.3
X90.2Y-29.3
X90.2Y-89.3
X137.7Y-29.3
X137.7Y-89.3
T7
G00X43.785Y-74.23
M15
G01X42.485Y-74.23
M16
G05
G00X43.785Y-82.87
M15
G01X42.485Y-82.87
M16
G05
G00X47.46Y-74.23
M15
G01X46.46Y-74.23
M16
G05
G00X47.46Y-82.87
M15
G01X46.46Y-82.87
M16
G05
T0
M30
