%TF.GenerationSoftware,KiCad,Pcbnew,(5.99.0-11593-g5155093ec0)*%
%TF.CreationDate,2021-08-09T14:05:58+02:00*%
%TF.ProjectId,flatlight_rev21_eside,666c6174-6c69-4676-9874-5f7265763231,rev?*%
%TF.SameCoordinates,Original*%
%TF.FileFunction,Copper,L4,Bot*%
%TF.FilePolarity,Positive*%
%FSLAX46Y46*%
G04 Gerber Fmt 4.6, Leading zero omitted, Abs format (unit mm)*
G04 Created by KiCad (PCBNEW (5.99.0-11593-g5155093ec0)) date 2021-08-09 14:05:58*
%MOMM*%
%LPD*%
G01*
G04 APERTURE LIST*
%TA.AperFunction,ComponentPad*%
%ADD10C,0.700000*%
%TD*%
%TA.AperFunction,ComponentPad*%
%ADD11C,4.400000*%
%TD*%
%TA.AperFunction,ComponentPad*%
%ADD12R,1.000000X1.000000*%
%TD*%
%TA.AperFunction,ComponentPad*%
%ADD13O,1.000000X1.000000*%
%TD*%
%TA.AperFunction,ComponentPad*%
%ADD14O,2.300000X1.300000*%
%TD*%
%TA.AperFunction,ComponentPad*%
%ADD15O,2.600000X1.300000*%
%TD*%
%TA.AperFunction,ComponentPad*%
%ADD16C,0.500000*%
%TD*%
%TA.AperFunction,SMDPad,CuDef*%
%ADD17R,4.000000X4.000000*%
%TD*%
%TA.AperFunction,SMDPad,CuDef*%
%ADD18R,2.000000X1.600000*%
%TD*%
%TA.AperFunction,SMDPad,CuDef*%
%ADD19R,1.000000X2.000000*%
%TD*%
%TA.AperFunction,ViaPad*%
%ADD20C,0.600000*%
%TD*%
%TA.AperFunction,ViaPad*%
%ADD21C,1.000000*%
%TD*%
%TA.AperFunction,ViaPad*%
%ADD22C,0.450000*%
%TD*%
%TA.AperFunction,ViaPad*%
%ADD23C,0.800000*%
%TD*%
G04 APERTURE END LIST*
D10*
%TO.P,H1,1,1*%
%TO.N,SYSOUT*%
X88550000Y-89300000D03*
X91850000Y-89300000D03*
X89033274Y-88133274D03*
X90200000Y-90950000D03*
X89033274Y-90466726D03*
X91366726Y-90466726D03*
D11*
X90200000Y-89300000D03*
D10*
X90200000Y-87650000D03*
X91366726Y-88133274D03*
%TD*%
D12*
%TO.P,J3,1,Pin_1*%
%TO.N,GND*%
X138425000Y-53600000D03*
D13*
%TO.P,J3,2,Pin_2*%
%TO.N,ES_LED_PWM*%
X138425000Y-54870000D03*
%TO.P,J3,3,Pin_3*%
%TO.N,ES_FLASH_EN*%
X138425000Y-56140000D03*
%TO.P,J3,4,Pin_4*%
%TO.N,ES_TORCH_EN*%
X138425000Y-57410000D03*
%TO.P,J3,5,Pin_5*%
%TO.N,ES_WS_LDAT*%
X138425000Y-58680000D03*
%TO.P,J3,6,Pin_6*%
%TO.N,ES_WS_POWER*%
X138425000Y-59950000D03*
%TO.P,J3,7,Pin_7*%
%TO.N,ES_XP_LED_NTC*%
X138425000Y-61220000D03*
%TO.P,J3,8,Pin_8*%
%TO.N,ES_JS_LED_NTC*%
X138425000Y-62490000D03*
%TO.P,J3,9,Pin_9*%
%TO.N,+3V3*%
X138425000Y-63760000D03*
%TO.P,J3,10,Pin_10*%
%TO.N,GND*%
X138425000Y-65030000D03*
%TD*%
D10*
%TO.P,H3,1,1*%
%TO.N,GND*%
X136050000Y-29300000D03*
D11*
X137700000Y-29300000D03*
D10*
X136533274Y-28133274D03*
X137700000Y-27650000D03*
X138866726Y-28133274D03*
X138866726Y-30466726D03*
X137700000Y-30950000D03*
X136533274Y-30466726D03*
X139350000Y-29300000D03*
%TD*%
D14*
%TO.P,J1,S1,SHIELD*%
%TO.N,GNDPWR*%
X46960000Y-74230000D03*
D15*
X43135000Y-82870000D03*
X43135000Y-74230000D03*
D14*
X46960000Y-82870000D03*
%TD*%
D10*
%TO.P,H4,1,1*%
%TO.N,GND*%
X41050000Y-29300000D03*
D11*
X42700000Y-29300000D03*
D10*
X44350000Y-29300000D03*
X43866726Y-30466726D03*
X41533274Y-28133274D03*
X41533274Y-30466726D03*
X42700000Y-30950000D03*
X42700000Y-27650000D03*
X43866726Y-28133274D03*
%TD*%
%TO.P,H6,1,1*%
%TO.N,SYSOUT*%
X91850000Y-29300000D03*
X91366726Y-28133274D03*
X90200000Y-30950000D03*
D11*
X90200000Y-29300000D03*
D10*
X88550000Y-29300000D03*
X91366726Y-30466726D03*
X89033274Y-28133274D03*
X90200000Y-27650000D03*
X89033274Y-30466726D03*
%TD*%
D11*
%TO.P,H5,1,1*%
%TO.N,GND*%
X42700000Y-89300000D03*
D10*
X43866726Y-88133274D03*
X42700000Y-90950000D03*
X41533274Y-88133274D03*
X42700000Y-87650000D03*
X43866726Y-90466726D03*
X41533274Y-90466726D03*
X41050000Y-89300000D03*
X44350000Y-89300000D03*
%TD*%
%TO.P,H2,1,1*%
%TO.N,GND*%
X138866726Y-88133274D03*
D11*
X137700000Y-89300000D03*
D10*
X136050000Y-89300000D03*
X136533274Y-88133274D03*
X137700000Y-90950000D03*
X136533274Y-90466726D03*
X137700000Y-87650000D03*
X138866726Y-90466726D03*
X139350000Y-89300000D03*
%TD*%
D16*
%TO.P,U4,57,GND*%
%TO.N,GND*%
X124275734Y-78250000D03*
X121975734Y-78250000D03*
X120775734Y-79400000D03*
X123050734Y-81750000D03*
X121975734Y-79400000D03*
X121975734Y-80600000D03*
X121975734Y-81750000D03*
X123050734Y-78250000D03*
X120775734Y-78250000D03*
X123050734Y-80600000D03*
X120775734Y-80600000D03*
X124275734Y-80600000D03*
X124275734Y-79400000D03*
D17*
X122525734Y-80000000D03*
D16*
X124275734Y-81750000D03*
X120775734Y-81750000D03*
X123050734Y-79400000D03*
%TD*%
D18*
%TO.P,SW3,1,1*%
%TO.N,EN*%
X102800000Y-89800000D03*
%TO.P,SW3,2,2*%
%TO.N,GND*%
X108200000Y-89800000D03*
%TD*%
D19*
%TO.P,J2,1,Pin_1*%
%TO.N,GND*%
X115350000Y-90600000D03*
%TO.P,J2,2,Pin_2*%
%TO.N,TX*%
X113350000Y-90600000D03*
%TO.P,J2,3,Pin_3*%
%TO.N,RX*%
X111350000Y-90600000D03*
%TD*%
D18*
%TO.P,SW2,1,1*%
%TO.N,GPIO0*%
X102800000Y-85700000D03*
%TO.P,SW2,2,2*%
%TO.N,GND*%
X108200000Y-85700000D03*
%TD*%
D20*
%TO.N,+BATT*%
X42900000Y-38550000D03*
D21*
X70900000Y-84900000D03*
D20*
X41850000Y-37550000D03*
D21*
X73300000Y-84900000D03*
D20*
X42900000Y-37550000D03*
X41850000Y-39550000D03*
X41850000Y-38550000D03*
X41850000Y-40550000D03*
X42900000Y-41550000D03*
X41850000Y-41550000D03*
X42900000Y-40550000D03*
X42900000Y-39550000D03*
D21*
X137150000Y-71700000D03*
X72100000Y-84900000D03*
D22*
%TO.N,GND*%
X48150000Y-27600000D03*
X126550000Y-27600000D03*
X107200000Y-91300000D03*
X46700000Y-39650000D03*
X139800000Y-38100000D03*
X59800000Y-91300000D03*
X126200000Y-75200000D03*
X126750000Y-65800000D03*
D20*
X99350000Y-80000000D03*
D22*
X40900000Y-52500000D03*
X129050000Y-27600000D03*
X139800000Y-43100000D03*
X109050000Y-27600000D03*
X127200000Y-91300000D03*
X109700000Y-91300000D03*
X49300000Y-84400000D03*
X139800000Y-73100000D03*
X75650000Y-27600000D03*
X52300000Y-91300000D03*
X66800000Y-83650000D03*
X120800000Y-88400000D03*
X132200000Y-91300000D03*
X124050000Y-27600000D03*
X77300000Y-91300000D03*
X117100000Y-88400000D03*
X112025000Y-75500000D03*
X139800000Y-33100000D03*
X115350000Y-91300000D03*
X68150000Y-27600000D03*
X112700000Y-78600000D03*
X43200000Y-84400000D03*
X73000000Y-81200000D03*
X122200000Y-91300000D03*
X41000000Y-86900000D03*
D20*
X99350000Y-80900000D03*
D22*
X139800000Y-53100000D03*
X47300000Y-91300000D03*
X139800000Y-75600000D03*
X67300000Y-91300000D03*
X70650000Y-27600000D03*
X46200000Y-46100000D03*
X129400000Y-84000000D03*
X45200000Y-39150000D03*
X106550000Y-27600000D03*
X73150000Y-27600000D03*
X127300000Y-84000000D03*
X47200000Y-39150000D03*
X46200000Y-39150000D03*
X139800000Y-60600000D03*
X136700000Y-79800000D03*
X58150000Y-27600000D03*
X44800000Y-91300000D03*
X109725000Y-75500000D03*
X111550000Y-27600000D03*
D20*
X70100000Y-79625000D03*
D22*
X126600000Y-88400000D03*
X127700000Y-69900000D03*
X87000000Y-91300000D03*
D20*
X68325000Y-75850000D03*
D22*
X47200000Y-46100000D03*
X79700000Y-91300000D03*
X64375734Y-73800000D03*
X40900000Y-33900000D03*
X139800000Y-70600000D03*
X83150000Y-27600000D03*
X69800000Y-91300000D03*
X50650000Y-27600000D03*
X40900000Y-50000000D03*
D20*
X73325000Y-78775000D03*
D22*
X52500000Y-85500000D03*
X110050000Y-81650000D03*
X99050000Y-27600000D03*
X123001234Y-86700000D03*
X125700000Y-86700000D03*
X53300000Y-77600000D03*
X94050000Y-27600000D03*
X40900000Y-72500000D03*
X40900000Y-67500000D03*
X104050000Y-27600000D03*
X83850000Y-79425000D03*
X97200000Y-91300000D03*
X101550000Y-27600000D03*
X139800000Y-63100000D03*
X135700000Y-84000000D03*
X124425734Y-90050978D03*
X139800000Y-65600000D03*
X96550000Y-27600000D03*
X133500000Y-84000000D03*
X40900000Y-70000000D03*
X45700000Y-46600000D03*
X137700000Y-84000000D03*
X139800000Y-50600000D03*
X78150000Y-27600000D03*
X80650000Y-27600000D03*
X46900000Y-72500000D03*
X63150000Y-27600000D03*
X113700000Y-70400000D03*
X104600000Y-71200000D03*
X42900000Y-72500000D03*
X85650000Y-27600000D03*
X72300000Y-91300000D03*
X124700000Y-91300000D03*
X132100000Y-61500000D03*
X40900000Y-57500000D03*
X107600000Y-81100000D03*
X40900000Y-62500000D03*
X119700000Y-91300000D03*
X41000000Y-84400000D03*
X138100000Y-80600000D03*
X121550000Y-27600000D03*
X131400000Y-75500000D03*
X45700000Y-39650000D03*
X107600000Y-80400000D03*
X134700000Y-91300000D03*
X64800000Y-91300000D03*
X118000000Y-74275000D03*
D20*
X67550000Y-75975000D03*
D22*
X79150000Y-84100000D03*
X124600000Y-86700000D03*
X84700000Y-91300000D03*
X45300000Y-84400000D03*
X45200000Y-46100000D03*
X40900000Y-65000000D03*
X40900000Y-47500000D03*
X132700000Y-71500000D03*
X125725734Y-90050978D03*
X53150000Y-27600000D03*
X139800000Y-40600000D03*
X139800000Y-58100000D03*
X44900000Y-72500000D03*
X121625734Y-86700000D03*
X85050000Y-79425000D03*
X139800000Y-48100000D03*
X46700000Y-46600000D03*
X47300000Y-84400000D03*
X97900000Y-79000000D03*
X49800000Y-91300000D03*
X131425734Y-71500000D03*
X86175000Y-79425000D03*
X136700000Y-80600000D03*
X102125000Y-81275000D03*
X57300000Y-91300000D03*
X54800000Y-91300000D03*
X40900000Y-60000000D03*
X119050000Y-27600000D03*
X64375734Y-72650000D03*
X55650000Y-27600000D03*
X139700000Y-78100000D03*
X40900000Y-55000000D03*
X139800000Y-55600000D03*
X116550000Y-27600000D03*
X117200000Y-91300000D03*
X133900000Y-80600000D03*
D20*
X70125000Y-78775000D03*
D22*
X139800000Y-35600000D03*
X123000000Y-90100000D03*
X134050000Y-27600000D03*
X96000000Y-79100000D03*
X40900000Y-32500000D03*
X139800000Y-68100000D03*
X89700000Y-77000000D03*
D20*
X66900000Y-76500000D03*
D22*
X65650000Y-27600000D03*
X81200000Y-77700000D03*
X62300000Y-91300000D03*
X139700000Y-80600000D03*
X106800000Y-71200000D03*
X111000000Y-70400000D03*
D23*
X85900000Y-72200000D03*
D22*
X94700000Y-91300000D03*
X45650000Y-27600000D03*
D20*
X71625000Y-78775000D03*
D22*
X131500000Y-84000000D03*
X129700000Y-91300000D03*
X139800000Y-45600000D03*
X112725000Y-81650000D03*
X81200000Y-75400000D03*
X60650000Y-27600000D03*
X104700000Y-91300000D03*
X114050000Y-27600000D03*
X82200000Y-91300000D03*
X58625734Y-81000000D03*
X121600000Y-90100000D03*
X131550000Y-27600000D03*
X74800000Y-91300000D03*
D20*
%TO.N,LX*%
X70300000Y-76850000D03*
X69450000Y-76850000D03*
X67625234Y-78325000D03*
X67625000Y-77725000D03*
X70300000Y-77600000D03*
X69450000Y-77600000D03*
%TO.N,Net-(C3-Pad1)*%
X67725734Y-74900000D03*
D22*
X64550000Y-78400000D03*
D20*
%TO.N,SYS*%
X74600000Y-80500000D03*
X74600000Y-81200000D03*
D22*
X53250000Y-87900000D03*
%TO.N,+3V3*%
X129500000Y-64600000D03*
D20*
X136525000Y-76000000D03*
D22*
X131525734Y-86900000D03*
D20*
X103525000Y-77937500D03*
X134700000Y-76000000D03*
X104300000Y-77937500D03*
D22*
X123125734Y-72550000D03*
X130725734Y-86900000D03*
D20*
X103525734Y-78625000D03*
D22*
X130325734Y-86300000D03*
X131125734Y-86300000D03*
D20*
X138300000Y-76000000D03*
X104300000Y-78625000D03*
D22*
X128100000Y-64600000D03*
%TO.N,PWRMAIN_SW*%
X93900000Y-87200000D03*
X86300000Y-88300000D03*
D20*
%TO.N,EN*%
X129100000Y-89225000D03*
D22*
X101800000Y-89850000D03*
%TO.N,GNDPWR*%
X41200000Y-74200000D03*
X41200000Y-76300000D03*
X41200000Y-80700000D03*
X49300000Y-83300000D03*
X41200000Y-78500000D03*
X52470000Y-82270000D03*
X49300000Y-82300000D03*
X41200000Y-82900000D03*
%TO.N,VBUS*%
X60550000Y-73250000D03*
X63400000Y-81000000D03*
%TO.N,Net-(F1-Pad1)*%
X49350000Y-75700000D03*
X49650000Y-76200000D03*
X49950000Y-75700000D03*
X50250000Y-80650000D03*
X49050000Y-76200000D03*
X50250000Y-76200000D03*
X49650000Y-80650000D03*
X49050000Y-80650000D03*
%TO.N,CC1*%
X61000000Y-79000000D03*
X63400000Y-81950000D03*
%TO.N,RX*%
X111300000Y-91150000D03*
X121275000Y-85225000D03*
%TO.N,TX*%
X113350000Y-91150000D03*
X122025000Y-85225000D03*
%TO.N,INOK*%
X93900000Y-86300000D03*
X63875500Y-78100000D03*
X53450000Y-87050000D03*
%TO.N,STAT*%
X54300000Y-88650000D03*
X63300000Y-78700000D03*
X93900000Y-85400000D03*
%TO.N,U_N*%
X54700000Y-82000000D03*
X119450000Y-74500000D03*
%TO.N,U_P*%
X54700000Y-80000000D03*
X118900000Y-75150000D03*
%TO.N,Net-(R15-Pad1)*%
X128800000Y-63800000D03*
X101100000Y-71200000D03*
%TO.N,DISP_BACKLIGHT*%
X127100000Y-71200000D03*
X108375734Y-71200000D03*
%TO.N,ENBST*%
X93900000Y-84600000D03*
X65100000Y-84050000D03*
%TO.N,IMU_INT2*%
X91600000Y-74850000D03*
X122325734Y-73750000D03*
%TO.N,IMU_INT1*%
X85600000Y-74800000D03*
X121500734Y-73775000D03*
X91600000Y-74000000D03*
%TO.N,SCL*%
X119900000Y-72500000D03*
X88600000Y-71500000D03*
%TO.N,SDA*%
X119179122Y-72520878D03*
X87800000Y-71500000D03*
%TO.N,GPIO0*%
X130925734Y-80700000D03*
X101800000Y-85650000D03*
%TO.N,SPIQ*%
X116675734Y-79980500D03*
X109200000Y-77975000D03*
%TO.N,SPICS0*%
X116675734Y-78770878D03*
X107450000Y-77600000D03*
%TO.N,SPIWP*%
X116675734Y-78050000D03*
X109225000Y-79225000D03*
%TO.N,SPICS1*%
X107450000Y-75800000D03*
X116400000Y-75900000D03*
D20*
%TO.N,Net-(Q1-Pad2)*%
X86325734Y-80650000D03*
D22*
X83750000Y-87100000D03*
%TD*%
%TA.AperFunction,Conductor*%
%TO.N,GNDPWR*%
G36*
X41718803Y-73520002D02*
G01*
X41765296Y-73573658D01*
X41775400Y-73643932D01*
X41752618Y-73700061D01*
X41741516Y-73715342D01*
X41737094Y-73727736D01*
X41746235Y-73730000D01*
X44521018Y-73730000D01*
X44533641Y-73726293D01*
X44530099Y-73717566D01*
X44517380Y-73700059D01*
X44493522Y-73633191D01*
X44509604Y-73564040D01*
X44560519Y-73514561D01*
X44619317Y-73500000D01*
X45625682Y-73500000D01*
X45693803Y-73520002D01*
X45740296Y-73573658D01*
X45750400Y-73643932D01*
X45727618Y-73700061D01*
X45716516Y-73715342D01*
X45712094Y-73727736D01*
X45721235Y-73730000D01*
X47334000Y-73730000D01*
X47402121Y-73750002D01*
X47448614Y-73803658D01*
X47460000Y-73856000D01*
X47460000Y-75115885D01*
X47464475Y-75131124D01*
X47465865Y-75132329D01*
X47473548Y-75134000D01*
X47504083Y-75134000D01*
X47510643Y-75133656D01*
X47642424Y-75119806D01*
X47655265Y-75117076D01*
X47823439Y-75062433D01*
X47835428Y-75057095D01*
X47988569Y-74968679D01*
X47999188Y-74960963D01*
X48089690Y-74879476D01*
X48153698Y-74848759D01*
X48224151Y-74857524D01*
X48278682Y-74902987D01*
X48300000Y-74973113D01*
X48300000Y-81400000D01*
X52974000Y-81400000D01*
X53042121Y-81420002D01*
X53088614Y-81473658D01*
X53100000Y-81526000D01*
X53100000Y-83474000D01*
X53079998Y-83542121D01*
X53026342Y-83588614D01*
X52974000Y-83600000D01*
X48294318Y-83600000D01*
X48226197Y-83579998D01*
X48179704Y-83526342D01*
X48169600Y-83456068D01*
X48192382Y-83399939D01*
X48203484Y-83384658D01*
X48207906Y-83372264D01*
X48198765Y-83370000D01*
X45723982Y-83370000D01*
X45711359Y-83373707D01*
X45714901Y-83382434D01*
X45727620Y-83399941D01*
X45751478Y-83466809D01*
X45735396Y-83535960D01*
X45684481Y-83585439D01*
X45625683Y-83600000D01*
X44619318Y-83600000D01*
X44551197Y-83579998D01*
X44504704Y-83526342D01*
X44494600Y-83456068D01*
X44517382Y-83399939D01*
X44528484Y-83384658D01*
X44532906Y-83372264D01*
X44523765Y-83370000D01*
X41748982Y-83370000D01*
X41736359Y-83373707D01*
X41739901Y-83382434D01*
X41752620Y-83399941D01*
X41776478Y-83466809D01*
X41760396Y-83535960D01*
X41709481Y-83585439D01*
X41650683Y-83600000D01*
X40526000Y-83600000D01*
X40457879Y-83579998D01*
X40411386Y-83526342D01*
X40400000Y-83474000D01*
X40400000Y-82367736D01*
X41737094Y-82367736D01*
X41746235Y-82370000D01*
X42616885Y-82370000D01*
X42632124Y-82365525D01*
X42633329Y-82364135D01*
X42635000Y-82356452D01*
X42635000Y-81984115D01*
X42633659Y-81979548D01*
X43635000Y-81979548D01*
X43635000Y-82351885D01*
X43639475Y-82367124D01*
X43640865Y-82368329D01*
X43648548Y-82370000D01*
X44521018Y-82370000D01*
X44528727Y-82367736D01*
X45712094Y-82367736D01*
X45721235Y-82370000D01*
X46441885Y-82370000D01*
X46457124Y-82365525D01*
X46458329Y-82364135D01*
X46460000Y-82356452D01*
X46460000Y-82194365D01*
X46480002Y-82126244D01*
X46518766Y-82087803D01*
X46555125Y-82064863D01*
X46555129Y-82064859D01*
X46562720Y-82060070D01*
X46633834Y-81979548D01*
X47460000Y-81979548D01*
X47460000Y-82351885D01*
X47464475Y-82367124D01*
X47465865Y-82368329D01*
X47473548Y-82370000D01*
X48196018Y-82370000D01*
X48208641Y-82366293D01*
X48205099Y-82357566D01*
X48139386Y-82267118D01*
X48130597Y-82257357D01*
X47999188Y-82139037D01*
X47988569Y-82131321D01*
X47835428Y-82042905D01*
X47823439Y-82037567D01*
X47655265Y-81982924D01*
X47642424Y-81980194D01*
X47510643Y-81966344D01*
X47504083Y-81966000D01*
X47478115Y-81966000D01*
X47462876Y-81970475D01*
X47461671Y-81971865D01*
X47460000Y-81979548D01*
X46633834Y-81979548D01*
X46657623Y-81952612D01*
X46718553Y-81822837D01*
X46735500Y-81713991D01*
X46735500Y-81389060D01*
X46720323Y-81283082D01*
X46660984Y-81152572D01*
X46642598Y-81131234D01*
X46573260Y-81050763D01*
X46573257Y-81050760D01*
X46567400Y-81043963D01*
X46447095Y-80965985D01*
X46309739Y-80924907D01*
X46300763Y-80924852D01*
X46300762Y-80924852D01*
X46240555Y-80924484D01*
X46166376Y-80924031D01*
X46028529Y-80963428D01*
X45907280Y-81039930D01*
X45812377Y-81147388D01*
X45751447Y-81277163D01*
X45734500Y-81386009D01*
X45734500Y-81710940D01*
X45749677Y-81816918D01*
X45809016Y-81947428D01*
X45814877Y-81954230D01*
X45870356Y-82018617D01*
X45899669Y-82083279D01*
X45889370Y-82153525D01*
X45859212Y-82194501D01*
X45789405Y-82257355D01*
X45780614Y-82267118D01*
X45716516Y-82355342D01*
X45712094Y-82367736D01*
X44528727Y-82367736D01*
X44533641Y-82366293D01*
X44530099Y-82357566D01*
X44464386Y-82267118D01*
X44455597Y-82257357D01*
X44324188Y-82139037D01*
X44313569Y-82131321D01*
X44160428Y-82042905D01*
X44148439Y-82037567D01*
X43980265Y-81982924D01*
X43967424Y-81980194D01*
X43835643Y-81966344D01*
X43829083Y-81966000D01*
X43653115Y-81966000D01*
X43637876Y-81970475D01*
X43636671Y-81971865D01*
X43635000Y-81979548D01*
X42633659Y-81979548D01*
X42630525Y-81968876D01*
X42629135Y-81967671D01*
X42621452Y-81966000D01*
X42440917Y-81966000D01*
X42434357Y-81966344D01*
X42302576Y-81980194D01*
X42289735Y-81982924D01*
X42121561Y-82037567D01*
X42109572Y-82042905D01*
X41956431Y-82131321D01*
X41945812Y-82139037D01*
X41814405Y-82257355D01*
X41805614Y-82267118D01*
X41741516Y-82355342D01*
X41737094Y-82367736D01*
X40400000Y-82367736D01*
X40400000Y-74733707D01*
X41736359Y-74733707D01*
X41739901Y-74742434D01*
X41805614Y-74832882D01*
X41814403Y-74842643D01*
X41945812Y-74960963D01*
X41956431Y-74968679D01*
X42109572Y-75057095D01*
X42121561Y-75062433D01*
X42289735Y-75117076D01*
X42302576Y-75119806D01*
X42434357Y-75133656D01*
X42440917Y-75134000D01*
X42616885Y-75134000D01*
X42632124Y-75129525D01*
X42633329Y-75128135D01*
X42635000Y-75120452D01*
X42635000Y-74748115D01*
X42633659Y-74743548D01*
X43635000Y-74743548D01*
X43635000Y-75115885D01*
X43639475Y-75131124D01*
X43640865Y-75132329D01*
X43648548Y-75134000D01*
X43829083Y-75134000D01*
X43835643Y-75133656D01*
X43967424Y-75119806D01*
X43980265Y-75117076D01*
X44148439Y-75062433D01*
X44160428Y-75057095D01*
X44313569Y-74968679D01*
X44324188Y-74960963D01*
X44455595Y-74842645D01*
X44464386Y-74832882D01*
X44528484Y-74744658D01*
X44532391Y-74733707D01*
X45711359Y-74733707D01*
X45714901Y-74742434D01*
X45780614Y-74832882D01*
X45789403Y-74842643D01*
X45924732Y-74964493D01*
X45961972Y-75024939D01*
X45960621Y-75095923D01*
X45921591Y-75154185D01*
X45921708Y-75154322D01*
X45921223Y-75154735D01*
X45921107Y-75154908D01*
X45920503Y-75155347D01*
X45914870Y-75160141D01*
X45907280Y-75164930D01*
X45812377Y-75272388D01*
X45751447Y-75402163D01*
X45729391Y-75543823D01*
X45730555Y-75552725D01*
X45730555Y-75552728D01*
X45731814Y-75562354D01*
X45747980Y-75685979D01*
X45805720Y-75817203D01*
X45811497Y-75824076D01*
X45811498Y-75824077D01*
X45818792Y-75832754D01*
X45897970Y-75926948D01*
X46017313Y-76006390D01*
X46154157Y-76049142D01*
X46163129Y-76049306D01*
X46163132Y-76049307D01*
X46228463Y-76050504D01*
X46297499Y-76051770D01*
X46306533Y-76049307D01*
X46427158Y-76016421D01*
X46427160Y-76016420D01*
X46435817Y-76014060D01*
X46557991Y-75939045D01*
X46654200Y-75832754D01*
X46716710Y-75703733D01*
X46740496Y-75562354D01*
X46740647Y-75550000D01*
X46720323Y-75408082D01*
X46660984Y-75277572D01*
X46642598Y-75256234D01*
X46573260Y-75175763D01*
X46573257Y-75175760D01*
X46567400Y-75168963D01*
X46517465Y-75136597D01*
X46471184Y-75082764D01*
X46460000Y-75030867D01*
X46460000Y-74748115D01*
X46455525Y-74732876D01*
X46454135Y-74731671D01*
X46446452Y-74730000D01*
X45723982Y-74730000D01*
X45711359Y-74733707D01*
X44532391Y-74733707D01*
X44532906Y-74732264D01*
X44523765Y-74730000D01*
X43653115Y-74730000D01*
X43637876Y-74734475D01*
X43636671Y-74735865D01*
X43635000Y-74743548D01*
X42633659Y-74743548D01*
X42630525Y-74732876D01*
X42629135Y-74731671D01*
X42621452Y-74730000D01*
X41748982Y-74730000D01*
X41736359Y-74733707D01*
X40400000Y-74733707D01*
X40400000Y-73626000D01*
X40420002Y-73557879D01*
X40473658Y-73511386D01*
X40526000Y-73500000D01*
X41650682Y-73500000D01*
X41718803Y-73520002D01*
G37*
%TD.AperFunction*%
%TD*%
%TA.AperFunction,Conductor*%
%TO.N,+BATT*%
G36*
X43542121Y-35120002D02*
G01*
X43588614Y-35173658D01*
X43600000Y-35226000D01*
X43600000Y-43874000D01*
X43579998Y-43942121D01*
X43526342Y-43988614D01*
X43474000Y-44000000D01*
X41126000Y-44000000D01*
X41057879Y-43979998D01*
X41011386Y-43926342D01*
X41000000Y-43874000D01*
X41000000Y-35226000D01*
X41020002Y-35157879D01*
X41073658Y-35111386D01*
X41126000Y-35100000D01*
X43474000Y-35100000D01*
X43542121Y-35120002D01*
G37*
%TD.AperFunction*%
%TD*%
%TA.AperFunction,Conductor*%
%TO.N,GND*%
G36*
X87200000Y-90500000D02*
G01*
X55000000Y-90500000D01*
X55000000Y-88419440D01*
X79020635Y-88419440D01*
X79021799Y-88428342D01*
X79021799Y-88428345D01*
X79036202Y-88538489D01*
X79036203Y-88538493D01*
X79037367Y-88547394D01*
X79089339Y-88665510D01*
X79095116Y-88672383D01*
X79095117Y-88672384D01*
X79144224Y-88730804D01*
X79172373Y-88764291D01*
X79279794Y-88835796D01*
X79402967Y-88874278D01*
X79411937Y-88874442D01*
X79411941Y-88874443D01*
X79470676Y-88875519D01*
X79531989Y-88876643D01*
X79594239Y-88859671D01*
X79647826Y-88845062D01*
X79647827Y-88845062D01*
X79656489Y-88842700D01*
X79664139Y-88838003D01*
X79664141Y-88838002D01*
X79758806Y-88779878D01*
X79758809Y-88779875D01*
X79766458Y-88775179D01*
X79772484Y-88768522D01*
X79847034Y-88686161D01*
X79847037Y-88686157D01*
X79853056Y-88679507D01*
X79909322Y-88563375D01*
X79911031Y-88553220D01*
X79929924Y-88440917D01*
X79930731Y-88436120D01*
X79930867Y-88425000D01*
X79930071Y-88419440D01*
X80720635Y-88419440D01*
X80721799Y-88428342D01*
X80721799Y-88428345D01*
X80736202Y-88538489D01*
X80736203Y-88538493D01*
X80737367Y-88547394D01*
X80789339Y-88665510D01*
X80795116Y-88672383D01*
X80795117Y-88672384D01*
X80844224Y-88730804D01*
X80872373Y-88764291D01*
X80979794Y-88835796D01*
X81102967Y-88874278D01*
X81111937Y-88874442D01*
X81111941Y-88874443D01*
X81170676Y-88875519D01*
X81231989Y-88876643D01*
X81294239Y-88859671D01*
X81347826Y-88845062D01*
X81347827Y-88845062D01*
X81356489Y-88842700D01*
X81364139Y-88838003D01*
X81364141Y-88838002D01*
X81458806Y-88779878D01*
X81458809Y-88779875D01*
X81466458Y-88775179D01*
X81472484Y-88768522D01*
X81547034Y-88686161D01*
X81547037Y-88686157D01*
X81553056Y-88679507D01*
X81609322Y-88563375D01*
X81611031Y-88553220D01*
X81629924Y-88440917D01*
X81630731Y-88436120D01*
X81630867Y-88425000D01*
X81612966Y-88300000D01*
X85869196Y-88300000D01*
X85890281Y-88433126D01*
X85951472Y-88553220D01*
X86046780Y-88648528D01*
X86166874Y-88709719D01*
X86176663Y-88711269D01*
X86176665Y-88711270D01*
X86290207Y-88729253D01*
X86300000Y-88730804D01*
X86309793Y-88729253D01*
X86423335Y-88711270D01*
X86423337Y-88711269D01*
X86433126Y-88709719D01*
X86553220Y-88648528D01*
X86648528Y-88553220D01*
X86709719Y-88433126D01*
X86730804Y-88300000D01*
X86712312Y-88183247D01*
X86711270Y-88176665D01*
X86711269Y-88176663D01*
X86709719Y-88166874D01*
X86648528Y-88046780D01*
X86553220Y-87951472D01*
X86433126Y-87890281D01*
X86423337Y-87888731D01*
X86423335Y-87888730D01*
X86309793Y-87870747D01*
X86300000Y-87869196D01*
X86290207Y-87870747D01*
X86176665Y-87888730D01*
X86176663Y-87888731D01*
X86166874Y-87890281D01*
X86046780Y-87951472D01*
X85951472Y-88046780D01*
X85890281Y-88166874D01*
X85888731Y-88176663D01*
X85888730Y-88176665D01*
X85887688Y-88183247D01*
X85869196Y-88300000D01*
X81612966Y-88300000D01*
X81612573Y-88297259D01*
X81559162Y-88179788D01*
X81474927Y-88082028D01*
X81366640Y-88011841D01*
X81358045Y-88009271D01*
X81358044Y-88009270D01*
X81251608Y-87977438D01*
X81251606Y-87977438D01*
X81243007Y-87974866D01*
X81234032Y-87974811D01*
X81234031Y-87974811D01*
X81179375Y-87974477D01*
X81113965Y-87974078D01*
X81102209Y-87977438D01*
X80998520Y-88007072D01*
X80998518Y-88007073D01*
X80989889Y-88009539D01*
X80880753Y-88078399D01*
X80795330Y-88175122D01*
X80791516Y-88183245D01*
X80791515Y-88183247D01*
X80765528Y-88238598D01*
X80740488Y-88291932D01*
X80739108Y-88300798D01*
X80722016Y-88410567D01*
X80722016Y-88410571D01*
X80720635Y-88419440D01*
X79930071Y-88419440D01*
X79912573Y-88297259D01*
X79859162Y-88179788D01*
X79774927Y-88082028D01*
X79666640Y-88011841D01*
X79658045Y-88009271D01*
X79658044Y-88009270D01*
X79551608Y-87977438D01*
X79551606Y-87977438D01*
X79543007Y-87974866D01*
X79534032Y-87974811D01*
X79534031Y-87974811D01*
X79479375Y-87974477D01*
X79413965Y-87974078D01*
X79402209Y-87977438D01*
X79298520Y-88007072D01*
X79298518Y-88007073D01*
X79289889Y-88009539D01*
X79180753Y-88078399D01*
X79095330Y-88175122D01*
X79091516Y-88183245D01*
X79091515Y-88183247D01*
X79065528Y-88238598D01*
X79040488Y-88291932D01*
X79039108Y-88300798D01*
X79022016Y-88410567D01*
X79022016Y-88410571D01*
X79020635Y-88419440D01*
X55000000Y-88419440D01*
X55000000Y-87700000D01*
X75100000Y-87700000D01*
X75100000Y-87100000D01*
X83319196Y-87100000D01*
X83340281Y-87233126D01*
X83401472Y-87353220D01*
X83496780Y-87448528D01*
X83616874Y-87509719D01*
X83626663Y-87511269D01*
X83626665Y-87511270D01*
X83740207Y-87529253D01*
X83750000Y-87530804D01*
X83759793Y-87529253D01*
X83873335Y-87511270D01*
X83873337Y-87511269D01*
X83883126Y-87509719D01*
X84003220Y-87448528D01*
X84098528Y-87353220D01*
X84159719Y-87233126D01*
X84180804Y-87100000D01*
X84159719Y-86966874D01*
X84098528Y-86846780D01*
X84003220Y-86751472D01*
X83883126Y-86690281D01*
X83873337Y-86688731D01*
X83873335Y-86688730D01*
X83759793Y-86670747D01*
X83750000Y-86669196D01*
X83740207Y-86670747D01*
X83626665Y-86688730D01*
X83626663Y-86688731D01*
X83616874Y-86690281D01*
X83496780Y-86751472D01*
X83401472Y-86846780D01*
X83340281Y-86966874D01*
X83319196Y-87100000D01*
X75100000Y-87100000D01*
X75100000Y-83850000D01*
X65475645Y-83850000D01*
X65453028Y-83805612D01*
X65448528Y-83796780D01*
X65353220Y-83701472D01*
X65233126Y-83640281D01*
X65223337Y-83638731D01*
X65223335Y-83638730D01*
X65109793Y-83620747D01*
X65100000Y-83619196D01*
X65090207Y-83620747D01*
X64976665Y-83638730D01*
X64976663Y-83638731D01*
X64966874Y-83640281D01*
X64846780Y-83701472D01*
X64751472Y-83796780D01*
X64724355Y-83850000D01*
X58100000Y-83850000D01*
X58100000Y-81000000D01*
X62969196Y-81000000D01*
X62970747Y-81009793D01*
X62979803Y-81066968D01*
X62990281Y-81133126D01*
X63051472Y-81253220D01*
X63146780Y-81348528D01*
X63172855Y-81361814D01*
X63174659Y-81362733D01*
X63226274Y-81411481D01*
X63243340Y-81480396D01*
X63220439Y-81547598D01*
X63174659Y-81587267D01*
X63146780Y-81601472D01*
X63051472Y-81696780D01*
X62990281Y-81816874D01*
X62969196Y-81950000D01*
X62990281Y-82083126D01*
X63051472Y-82203220D01*
X63146780Y-82298528D01*
X63266874Y-82359719D01*
X63276663Y-82361269D01*
X63276665Y-82361270D01*
X63390207Y-82379253D01*
X63400000Y-82380804D01*
X63409793Y-82379253D01*
X63523335Y-82361270D01*
X63523337Y-82361269D01*
X63533126Y-82359719D01*
X63653220Y-82298528D01*
X63748528Y-82203220D01*
X63809719Y-82083126D01*
X63830804Y-81950000D01*
X63809719Y-81816874D01*
X63748528Y-81696780D01*
X63653220Y-81601472D01*
X63625341Y-81587267D01*
X63573726Y-81538519D01*
X63556660Y-81469604D01*
X63579561Y-81402402D01*
X63625341Y-81362733D01*
X63627145Y-81361814D01*
X63653220Y-81348528D01*
X63748528Y-81253220D01*
X63809719Y-81133126D01*
X63820198Y-81066968D01*
X63829253Y-81009793D01*
X63830804Y-81000000D01*
X63817690Y-80917203D01*
X63811270Y-80876665D01*
X63811269Y-80876663D01*
X63809719Y-80866874D01*
X63748528Y-80746780D01*
X63653220Y-80651472D01*
X63533126Y-80590281D01*
X63523337Y-80588731D01*
X63523335Y-80588730D01*
X63409793Y-80570747D01*
X63400000Y-80569196D01*
X63390207Y-80570747D01*
X63276665Y-80588730D01*
X63276663Y-80588731D01*
X63266874Y-80590281D01*
X63146780Y-80651472D01*
X63051472Y-80746780D01*
X62990281Y-80866874D01*
X62988731Y-80876663D01*
X62988730Y-80876665D01*
X62982310Y-80917203D01*
X62969196Y-81000000D01*
X58100000Y-81000000D01*
X58100000Y-80493823D01*
X74094391Y-80493823D01*
X74095555Y-80502725D01*
X74095555Y-80502728D01*
X74097441Y-80517149D01*
X74112980Y-80635979D01*
X74170720Y-80767203D01*
X74176498Y-80774077D01*
X74181240Y-80781695D01*
X74178513Y-80783392D01*
X74200680Y-80833951D01*
X74189510Y-80904064D01*
X74182407Y-80916693D01*
X74177377Y-80922388D01*
X74116447Y-81052163D01*
X74115066Y-81061035D01*
X74100939Y-81151770D01*
X74094391Y-81193823D01*
X74095555Y-81202725D01*
X74095555Y-81202728D01*
X74096814Y-81212354D01*
X74112980Y-81335979D01*
X74170720Y-81467203D01*
X74176497Y-81474076D01*
X74176498Y-81474077D01*
X74230667Y-81538519D01*
X74262970Y-81576948D01*
X74382313Y-81656390D01*
X74519157Y-81699142D01*
X74528129Y-81699306D01*
X74528132Y-81699307D01*
X74593463Y-81700504D01*
X74662499Y-81701770D01*
X74671533Y-81699307D01*
X74792158Y-81666421D01*
X74792160Y-81666420D01*
X74800817Y-81664060D01*
X74922991Y-81589045D01*
X74968725Y-81538519D01*
X75013178Y-81489407D01*
X75019200Y-81482754D01*
X75081710Y-81353733D01*
X75105496Y-81212354D01*
X75105647Y-81200000D01*
X75092241Y-81106390D01*
X75086596Y-81066968D01*
X75086595Y-81066965D01*
X75085323Y-81058082D01*
X75078803Y-81043741D01*
X75029699Y-80935742D01*
X75029698Y-80935740D01*
X75025984Y-80927572D01*
X75020125Y-80920773D01*
X75018212Y-80917781D01*
X74998361Y-80849616D01*
X75018720Y-80783285D01*
X75019200Y-80782754D01*
X75026735Y-80767203D01*
X75077795Y-80661814D01*
X75077795Y-80661813D01*
X75081710Y-80653733D01*
X75083377Y-80643823D01*
X85820125Y-80643823D01*
X85821289Y-80652725D01*
X85821289Y-80652728D01*
X85822548Y-80662354D01*
X85838714Y-80785979D01*
X85896454Y-80917203D01*
X85902231Y-80924076D01*
X85902232Y-80924077D01*
X85915118Y-80939407D01*
X85988704Y-81026948D01*
X86108047Y-81106390D01*
X86244891Y-81149142D01*
X86253863Y-81149306D01*
X86253866Y-81149307D01*
X86319197Y-81150504D01*
X86388233Y-81151770D01*
X86397267Y-81149307D01*
X86517892Y-81116421D01*
X86517894Y-81116420D01*
X86526551Y-81114060D01*
X86648725Y-81039045D01*
X86684067Y-81000000D01*
X86738912Y-80939407D01*
X86744934Y-80932754D01*
X86807444Y-80803733D01*
X86831230Y-80662354D01*
X86831381Y-80650000D01*
X86819809Y-80569196D01*
X86812330Y-80516968D01*
X86812329Y-80516965D01*
X86811057Y-80508082D01*
X86751718Y-80377572D01*
X86722821Y-80344036D01*
X86663994Y-80275763D01*
X86663991Y-80275760D01*
X86658134Y-80268963D01*
X86537829Y-80190985D01*
X86400473Y-80149907D01*
X86391497Y-80149852D01*
X86391496Y-80149852D01*
X86331289Y-80149484D01*
X86257110Y-80149031D01*
X86119263Y-80188428D01*
X85998014Y-80264930D01*
X85903111Y-80372388D01*
X85842181Y-80502163D01*
X85839876Y-80516968D01*
X85822733Y-80627074D01*
X85820125Y-80643823D01*
X75083377Y-80643823D01*
X75105496Y-80512354D01*
X75105647Y-80500000D01*
X75097473Y-80442924D01*
X75086596Y-80366968D01*
X75086595Y-80366965D01*
X75085323Y-80358082D01*
X75025984Y-80227572D01*
X74996382Y-80193217D01*
X74938260Y-80125763D01*
X74938257Y-80125760D01*
X74932400Y-80118963D01*
X74812095Y-80040985D01*
X74674739Y-79999907D01*
X74665763Y-79999852D01*
X74665762Y-79999852D01*
X74605555Y-79999484D01*
X74531376Y-79999031D01*
X74393529Y-80038428D01*
X74272280Y-80114930D01*
X74177377Y-80222388D01*
X74116447Y-80352163D01*
X74094391Y-80493823D01*
X58100000Y-80493823D01*
X58100000Y-79000000D01*
X60569196Y-79000000D01*
X60570747Y-79009793D01*
X60586574Y-79109719D01*
X60590281Y-79133126D01*
X60651472Y-79253220D01*
X60746780Y-79348528D01*
X60866874Y-79409719D01*
X60876663Y-79411269D01*
X60876665Y-79411270D01*
X60990207Y-79429253D01*
X61000000Y-79430804D01*
X61009793Y-79429253D01*
X61123335Y-79411270D01*
X61123337Y-79411269D01*
X61133126Y-79409719D01*
X61253220Y-79348528D01*
X61348528Y-79253220D01*
X61409719Y-79133126D01*
X61413427Y-79109719D01*
X61429253Y-79009793D01*
X61430804Y-79000000D01*
X61409719Y-78866874D01*
X61348528Y-78746780D01*
X61301748Y-78700000D01*
X62869196Y-78700000D01*
X62870747Y-78709793D01*
X62886574Y-78809719D01*
X62890281Y-78833126D01*
X62951472Y-78953220D01*
X63046780Y-79048528D01*
X63166874Y-79109719D01*
X63176663Y-79111269D01*
X63176665Y-79111270D01*
X63290207Y-79129253D01*
X63300000Y-79130804D01*
X63309793Y-79129253D01*
X63423335Y-79111270D01*
X63423337Y-79111269D01*
X63433126Y-79109719D01*
X63553220Y-79048528D01*
X63648528Y-78953220D01*
X63709719Y-78833126D01*
X63713427Y-78809719D01*
X63729253Y-78709793D01*
X63730804Y-78700000D01*
X63726723Y-78674232D01*
X63735823Y-78603821D01*
X63781545Y-78549507D01*
X63849373Y-78528535D01*
X63859418Y-78529253D01*
X63865707Y-78529253D01*
X63875500Y-78530804D01*
X64008626Y-78509719D01*
X64011809Y-78508097D01*
X64079254Y-78506170D01*
X64140052Y-78542832D01*
X64159491Y-78570828D01*
X64201472Y-78653220D01*
X64296780Y-78748528D01*
X64416874Y-78809719D01*
X64426663Y-78811269D01*
X64426665Y-78811270D01*
X64540207Y-78829253D01*
X64550000Y-78830804D01*
X64559793Y-78829253D01*
X64673335Y-78811270D01*
X64673337Y-78811269D01*
X64683126Y-78809719D01*
X64803220Y-78748528D01*
X64898528Y-78653220D01*
X64959719Y-78533126D01*
X64963427Y-78509719D01*
X64979253Y-78409793D01*
X64980804Y-78400000D01*
X64964139Y-78294782D01*
X64961270Y-78276665D01*
X64961269Y-78276663D01*
X64959719Y-78266874D01*
X64898528Y-78146780D01*
X64803220Y-78051472D01*
X64683126Y-77990281D01*
X64673337Y-77988731D01*
X64673335Y-77988730D01*
X64559793Y-77970747D01*
X64550000Y-77969196D01*
X64416874Y-77990281D01*
X64413691Y-77991903D01*
X64346246Y-77993830D01*
X64285448Y-77957168D01*
X64266009Y-77929172D01*
X64259127Y-77915665D01*
X64224028Y-77846780D01*
X64128720Y-77751472D01*
X64008626Y-77690281D01*
X63998837Y-77688731D01*
X63998835Y-77688730D01*
X63885293Y-77670747D01*
X63875500Y-77669196D01*
X63865707Y-77670747D01*
X63752165Y-77688730D01*
X63752163Y-77688731D01*
X63742374Y-77690281D01*
X63622280Y-77751472D01*
X63526972Y-77846780D01*
X63465781Y-77966874D01*
X63464231Y-77976663D01*
X63464230Y-77976665D01*
X63453095Y-78046972D01*
X63444696Y-78100000D01*
X63446247Y-78109793D01*
X63446247Y-78109794D01*
X63448777Y-78125768D01*
X63439677Y-78196179D01*
X63393955Y-78250493D01*
X63326127Y-78271465D01*
X63316082Y-78270747D01*
X63309793Y-78270747D01*
X63300000Y-78269196D01*
X63290207Y-78270747D01*
X63176665Y-78288730D01*
X63176663Y-78288731D01*
X63166874Y-78290281D01*
X63046780Y-78351472D01*
X62951472Y-78446780D01*
X62890281Y-78566874D01*
X62888731Y-78576663D01*
X62888730Y-78576665D01*
X62886269Y-78592203D01*
X62869196Y-78700000D01*
X61301748Y-78700000D01*
X61253220Y-78651472D01*
X61133126Y-78590281D01*
X61123337Y-78588731D01*
X61123335Y-78588730D01*
X61009793Y-78570747D01*
X61000000Y-78569196D01*
X60990207Y-78570747D01*
X60876665Y-78588730D01*
X60876663Y-78588731D01*
X60866874Y-78590281D01*
X60746780Y-78651472D01*
X60651472Y-78746780D01*
X60590281Y-78866874D01*
X60569196Y-79000000D01*
X58100000Y-79000000D01*
X58100000Y-77300000D01*
X67025734Y-77300000D01*
X67025734Y-79000000D01*
X68025000Y-79000000D01*
X68865487Y-78327611D01*
X68931175Y-78300675D01*
X68944198Y-78300000D01*
X71100000Y-78300000D01*
X71100000Y-76150000D01*
X68600000Y-76150000D01*
X67025734Y-77300000D01*
X58100000Y-77300000D01*
X58100000Y-74893823D01*
X67220125Y-74893823D01*
X67221289Y-74902725D01*
X67221289Y-74902728D01*
X67222548Y-74912354D01*
X67238714Y-75035979D01*
X67296454Y-75167203D01*
X67302231Y-75174076D01*
X67302232Y-75174077D01*
X67309526Y-75182754D01*
X67388704Y-75276948D01*
X67508047Y-75356390D01*
X67644891Y-75399142D01*
X67653863Y-75399306D01*
X67653866Y-75399307D01*
X67719197Y-75400504D01*
X67788233Y-75401770D01*
X67797267Y-75399307D01*
X67917892Y-75366421D01*
X67917894Y-75366420D01*
X67926551Y-75364060D01*
X68048725Y-75289045D01*
X68144934Y-75182754D01*
X68207444Y-75053733D01*
X68231230Y-74912354D01*
X68231381Y-74900000D01*
X68217060Y-74800000D01*
X85169196Y-74800000D01*
X85170747Y-74809793D01*
X85187751Y-74917149D01*
X85190281Y-74933126D01*
X85251472Y-75053220D01*
X85346780Y-75148528D01*
X85466874Y-75209719D01*
X85476663Y-75211269D01*
X85476665Y-75211270D01*
X85590207Y-75229253D01*
X85600000Y-75230804D01*
X85609793Y-75229253D01*
X85723335Y-75211270D01*
X85723337Y-75211269D01*
X85733126Y-75209719D01*
X85853220Y-75148528D01*
X85948528Y-75053220D01*
X86009719Y-74933126D01*
X86012250Y-74917149D01*
X86029253Y-74809793D01*
X86030804Y-74800000D01*
X86024165Y-74758082D01*
X86011270Y-74676665D01*
X86011269Y-74676663D01*
X86009719Y-74666874D01*
X85948528Y-74546780D01*
X85853220Y-74451472D01*
X85733126Y-74390281D01*
X85723337Y-74388731D01*
X85723335Y-74388730D01*
X85609793Y-74370747D01*
X85600000Y-74369196D01*
X85590207Y-74370747D01*
X85476665Y-74388730D01*
X85476663Y-74388731D01*
X85466874Y-74390281D01*
X85346780Y-74451472D01*
X85251472Y-74546780D01*
X85190281Y-74666874D01*
X85188731Y-74676663D01*
X85188730Y-74676665D01*
X85175835Y-74758082D01*
X85169196Y-74800000D01*
X68217060Y-74800000D01*
X68211057Y-74758082D01*
X68151718Y-74627572D01*
X68076062Y-74539769D01*
X68063994Y-74525763D01*
X68063991Y-74525760D01*
X68058134Y-74518963D01*
X67937829Y-74440985D01*
X67800473Y-74399907D01*
X67791497Y-74399852D01*
X67791496Y-74399852D01*
X67731289Y-74399484D01*
X67657110Y-74399031D01*
X67519263Y-74438428D01*
X67398014Y-74514930D01*
X67303111Y-74622388D01*
X67242181Y-74752163D01*
X67220125Y-74893823D01*
X58100000Y-74893823D01*
X58100000Y-73250000D01*
X60119196Y-73250000D01*
X60140281Y-73383126D01*
X60201472Y-73503220D01*
X60296780Y-73598528D01*
X60416874Y-73659719D01*
X60426663Y-73661269D01*
X60426665Y-73661270D01*
X60540207Y-73679253D01*
X60550000Y-73680804D01*
X60559793Y-73679253D01*
X60673335Y-73661270D01*
X60673337Y-73661269D01*
X60683126Y-73659719D01*
X60803220Y-73598528D01*
X60898528Y-73503220D01*
X60959719Y-73383126D01*
X60980804Y-73250000D01*
X60959719Y-73116874D01*
X60898528Y-72996780D01*
X60803220Y-72901472D01*
X60683126Y-72840281D01*
X60673337Y-72838731D01*
X60673335Y-72838730D01*
X60559793Y-72820747D01*
X60550000Y-72819196D01*
X60540207Y-72820747D01*
X60426665Y-72838730D01*
X60426663Y-72838731D01*
X60416874Y-72840281D01*
X60296780Y-72901472D01*
X60201472Y-72996780D01*
X60140281Y-73116874D01*
X60119196Y-73250000D01*
X58100000Y-73250000D01*
X58100000Y-34800000D01*
X87200000Y-34800000D01*
X87200000Y-90500000D01*
G37*
%TD.AperFunction*%
%TD*%
%TA.AperFunction,Conductor*%
%TO.N,Net-(F1-Pad1)*%
G36*
X50442121Y-75470002D02*
G01*
X50488614Y-75523658D01*
X50500000Y-75576000D01*
X50500000Y-80774000D01*
X50479998Y-80842121D01*
X50426342Y-80888614D01*
X50374000Y-80900000D01*
X48926000Y-80900000D01*
X48857879Y-80879998D01*
X48811386Y-80826342D01*
X48800000Y-80774000D01*
X48800000Y-75576000D01*
X48820002Y-75507879D01*
X48873658Y-75461386D01*
X48926000Y-75450000D01*
X50374000Y-75450000D01*
X50442121Y-75470002D01*
G37*
%TD.AperFunction*%
%TD*%
%TA.AperFunction,Conductor*%
%TO.N,LX*%
G36*
X70617855Y-76520002D02*
G01*
X70664348Y-76573658D01*
X70675734Y-76626000D01*
X70675734Y-77824000D01*
X70655732Y-77892121D01*
X70602076Y-77938614D01*
X70549734Y-77950000D01*
X68800000Y-77950000D01*
X68789510Y-77958399D01*
X67960259Y-78622357D01*
X67894581Y-78649320D01*
X67881507Y-78650000D01*
X67451734Y-78650000D01*
X67383613Y-78629998D01*
X67337120Y-78576342D01*
X67325734Y-78524000D01*
X67325734Y-77639063D01*
X67345736Y-77570942D01*
X67377498Y-77537255D01*
X68766823Y-76524192D01*
X68833649Y-76500218D01*
X68841059Y-76500000D01*
X70549734Y-76500000D01*
X70617855Y-76520002D01*
G37*
%TD.AperFunction*%
%TD*%
%TA.AperFunction,Conductor*%
%TO.N,GND*%
G36*
X88458711Y-27020002D02*
G01*
X88505204Y-27073658D01*
X88515308Y-27143932D01*
X88485814Y-27208512D01*
X88467562Y-27225756D01*
X88421513Y-27261282D01*
X88418812Y-27263941D01*
X88418805Y-27263947D01*
X88192177Y-27487044D01*
X88189469Y-27489710D01*
X88187105Y-27492677D01*
X88187102Y-27492680D01*
X88172613Y-27510863D01*
X87986548Y-27744360D01*
X87815690Y-28021544D01*
X87679369Y-28317247D01*
X87678210Y-28320848D01*
X87678207Y-28320854D01*
X87580722Y-28623576D01*
X87579560Y-28627185D01*
X87578841Y-28630901D01*
X87578839Y-28630909D01*
X87518428Y-28943151D01*
X87518427Y-28943160D01*
X87517709Y-28946870D01*
X87517442Y-28950646D01*
X87517441Y-28950651D01*
X87495244Y-29264153D01*
X87494712Y-29271669D01*
X87510902Y-29596879D01*
X87511543Y-29600610D01*
X87511544Y-29600618D01*
X87526030Y-29684916D01*
X87566045Y-29917789D01*
X87567133Y-29921428D01*
X87567134Y-29921431D01*
X87590697Y-30000218D01*
X87659341Y-30229749D01*
X87789439Y-30528242D01*
X87954455Y-30808944D01*
X87956756Y-30811959D01*
X88149698Y-31064775D01*
X88149703Y-31064781D01*
X88151998Y-31067788D01*
X88154642Y-31070502D01*
X88280794Y-31200000D01*
X88379208Y-31301025D01*
X88632792Y-31505276D01*
X88909078Y-31677583D01*
X89204063Y-31815451D01*
X89513474Y-31916881D01*
X89832830Y-31980405D01*
X89836602Y-31980692D01*
X89836610Y-31980693D01*
X90153728Y-32004815D01*
X90153733Y-32004815D01*
X90157505Y-32005102D01*
X90482795Y-31990615D01*
X90803989Y-31937154D01*
X91116434Y-31845493D01*
X91415604Y-31716959D01*
X91418882Y-31715055D01*
X91418888Y-31715052D01*
X91582708Y-31619897D01*
X91697165Y-31553415D01*
X91957040Y-31357230D01*
X92043116Y-31274253D01*
X92188730Y-31133881D01*
X92188733Y-31133877D01*
X92191464Y-31131245D01*
X92193862Y-31128300D01*
X92261236Y-31045543D01*
X118895144Y-31045543D01*
X118900000Y-31045543D01*
X118900000Y-59194123D01*
X118899955Y-59245449D01*
X118906098Y-59258242D01*
X118907227Y-59263210D01*
X118909785Y-59270535D01*
X118911994Y-59275125D01*
X118915150Y-59288962D01*
X118923994Y-59300061D01*
X118926364Y-59304985D01*
X118929916Y-59310647D01*
X118933312Y-59314916D01*
X118939453Y-59327705D01*
X118950536Y-59336568D01*
X118953707Y-59340554D01*
X118959191Y-59346048D01*
X118963173Y-59349227D01*
X118972015Y-59360323D01*
X118984793Y-59366486D01*
X118989064Y-59369896D01*
X118994714Y-59373454D01*
X118999634Y-59375832D01*
X119010715Y-59384694D01*
X119024543Y-59387874D01*
X119029124Y-59390088D01*
X119036449Y-59392661D01*
X119041420Y-59393799D01*
X119054202Y-59399965D01*
X119077213Y-59399985D01*
X119077211Y-59401997D01*
X119077277Y-59402012D01*
X119077277Y-59400000D01*
X119094123Y-59400000D01*
X119145449Y-59400045D01*
X119145445Y-59404850D01*
X119145543Y-59404856D01*
X119145543Y-59400000D01*
X132894123Y-59400000D01*
X132931258Y-59400033D01*
X132931260Y-59400033D01*
X132945449Y-59400045D01*
X132958242Y-59393902D01*
X132963210Y-59392773D01*
X132970535Y-59390215D01*
X132975125Y-59388006D01*
X132988962Y-59384850D01*
X133000061Y-59376006D01*
X133004985Y-59373636D01*
X133010647Y-59370084D01*
X133014916Y-59366688D01*
X133027705Y-59360547D01*
X133036568Y-59349464D01*
X133040554Y-59346293D01*
X133046048Y-59340809D01*
X133049227Y-59336827D01*
X133060323Y-59327985D01*
X133066486Y-59315207D01*
X133069896Y-59310936D01*
X133073454Y-59305286D01*
X133075832Y-59300366D01*
X133084694Y-59289285D01*
X133087874Y-59275457D01*
X133090088Y-59270876D01*
X133092661Y-59263551D01*
X133093799Y-59258580D01*
X133099965Y-59245798D01*
X133099985Y-59222787D01*
X133101997Y-59222789D01*
X133102012Y-59222723D01*
X133100000Y-59222723D01*
X133100000Y-59205877D01*
X133100045Y-59154551D01*
X133104850Y-59154555D01*
X133104856Y-59154457D01*
X133100000Y-59154457D01*
X133100000Y-53763548D01*
X137425000Y-53763548D01*
X137425000Y-54143915D01*
X137425369Y-54150729D01*
X137430789Y-54200621D01*
X137434414Y-54215867D01*
X137478767Y-54334177D01*
X137487299Y-54349763D01*
X137562430Y-54450009D01*
X137574991Y-54462570D01*
X137675237Y-54537701D01*
X137683598Y-54542278D01*
X137733745Y-54592536D01*
X137748759Y-54661927D01*
X137745131Y-54684133D01*
X137744282Y-54687438D01*
X137741524Y-54694513D01*
X137719394Y-54862611D01*
X137737999Y-55031135D01*
X137796266Y-55190356D01*
X137800502Y-55196659D01*
X137800502Y-55196660D01*
X137813574Y-55216113D01*
X137890830Y-55331083D01*
X137896446Y-55336193D01*
X137979958Y-55412184D01*
X138016880Y-55472824D01*
X138015157Y-55543800D01*
X137977987Y-55600326D01*
X137900604Y-55667831D01*
X137803113Y-55806547D01*
X137741524Y-55964513D01*
X137719394Y-56132611D01*
X137737999Y-56301135D01*
X137796266Y-56460356D01*
X137800502Y-56466659D01*
X137800502Y-56466660D01*
X137813574Y-56486113D01*
X137890830Y-56601083D01*
X137896446Y-56606193D01*
X137979958Y-56682184D01*
X138016880Y-56742824D01*
X138015157Y-56813800D01*
X137977987Y-56870326D01*
X137900604Y-56937831D01*
X137803113Y-57076547D01*
X137741524Y-57234513D01*
X137719394Y-57402611D01*
X137737999Y-57571135D01*
X137796266Y-57730356D01*
X137800502Y-57736659D01*
X137800502Y-57736660D01*
X137813574Y-57756113D01*
X137890830Y-57871083D01*
X137896446Y-57876193D01*
X137979958Y-57952184D01*
X138016880Y-58012824D01*
X138015157Y-58083800D01*
X137977987Y-58140326D01*
X137900604Y-58207831D01*
X137803113Y-58346547D01*
X137741524Y-58504513D01*
X137719394Y-58672611D01*
X137737999Y-58841135D01*
X137796266Y-59000356D01*
X137800502Y-59006659D01*
X137800502Y-59006660D01*
X137813574Y-59026113D01*
X137890830Y-59141083D01*
X137896446Y-59146193D01*
X137979958Y-59222184D01*
X138016880Y-59282824D01*
X138015157Y-59353800D01*
X137977987Y-59410326D01*
X137900604Y-59477831D01*
X137803113Y-59616547D01*
X137741524Y-59774513D01*
X137719394Y-59942611D01*
X137737999Y-60111135D01*
X137796266Y-60270356D01*
X137800502Y-60276659D01*
X137800502Y-60276660D01*
X137813574Y-60296113D01*
X137890830Y-60411083D01*
X137896446Y-60416193D01*
X137979958Y-60492184D01*
X138016880Y-60552824D01*
X138015157Y-60623800D01*
X137977987Y-60680326D01*
X137900604Y-60747831D01*
X137803113Y-60886547D01*
X137741524Y-61044513D01*
X137719394Y-61212611D01*
X137737999Y-61381135D01*
X137796266Y-61540356D01*
X137800502Y-61546659D01*
X137800502Y-61546660D01*
X137813574Y-61566113D01*
X137890830Y-61681083D01*
X137896446Y-61686193D01*
X137979958Y-61762184D01*
X138016880Y-61822824D01*
X138015157Y-61893800D01*
X137977987Y-61950326D01*
X137900604Y-62017831D01*
X137803113Y-62156547D01*
X137741524Y-62314513D01*
X137719394Y-62482611D01*
X137737999Y-62651135D01*
X137796266Y-62810356D01*
X137800502Y-62816659D01*
X137800502Y-62816660D01*
X137813574Y-62836113D01*
X137890830Y-62951083D01*
X137896446Y-62956193D01*
X137979958Y-63032184D01*
X138016880Y-63092824D01*
X138015157Y-63163800D01*
X137977987Y-63220326D01*
X137900604Y-63287831D01*
X137803113Y-63426547D01*
X137741524Y-63584513D01*
X137719394Y-63752611D01*
X137737999Y-63921135D01*
X137745620Y-63941959D01*
X137786336Y-64053220D01*
X137796266Y-64080356D01*
X137800502Y-64086659D01*
X137800502Y-64086660D01*
X137806779Y-64096001D01*
X137828171Y-64163698D01*
X137809567Y-64232214D01*
X137781149Y-64264474D01*
X137726751Y-64308211D01*
X137717992Y-64316789D01*
X137599853Y-64457581D01*
X137592927Y-64467695D01*
X137504383Y-64628757D01*
X137499555Y-64640021D01*
X137443981Y-64815211D01*
X137441433Y-64827201D01*
X137437530Y-64861996D01*
X137440082Y-64876527D01*
X137452628Y-64880000D01*
X139397016Y-64880000D01*
X139411443Y-64875764D01*
X139413505Y-64863411D01*
X139411303Y-64840958D01*
X139408921Y-64828925D01*
X139355801Y-64652985D01*
X139351126Y-64641644D01*
X139264846Y-64479373D01*
X139258059Y-64469157D01*
X139141899Y-64326731D01*
X139133255Y-64318027D01*
X139068653Y-64264584D01*
X139028914Y-64205750D01*
X139027292Y-64134772D01*
X139038553Y-64106799D01*
X139038930Y-64106114D01*
X139043361Y-64099947D01*
X139051237Y-64080356D01*
X139103766Y-63949687D01*
X139103767Y-63949685D01*
X139106601Y-63942634D01*
X139125507Y-63809793D01*
X139129909Y-63778862D01*
X139129909Y-63778859D01*
X139130490Y-63774778D01*
X139130645Y-63760000D01*
X139128840Y-63745080D01*
X139119375Y-63666874D01*
X139110276Y-63591680D01*
X139050345Y-63433077D01*
X139041584Y-63420330D01*
X138958614Y-63299608D01*
X138958613Y-63299607D01*
X138954312Y-63293349D01*
X138870663Y-63218820D01*
X138833107Y-63158570D01*
X138834088Y-63087580D01*
X138872652Y-63028933D01*
X138938648Y-62972567D01*
X138938651Y-62972564D01*
X138944423Y-62967634D01*
X139043361Y-62829947D01*
X139051237Y-62810356D01*
X139103766Y-62679687D01*
X139103767Y-62679685D01*
X139106601Y-62672634D01*
X139130490Y-62504778D01*
X139130645Y-62490000D01*
X139128840Y-62475080D01*
X139111188Y-62329220D01*
X139110276Y-62321680D01*
X139050345Y-62163077D01*
X138954312Y-62023349D01*
X138870663Y-61948820D01*
X138833107Y-61888570D01*
X138834088Y-61817580D01*
X138872652Y-61758933D01*
X138938648Y-61702567D01*
X138938651Y-61702564D01*
X138944423Y-61697634D01*
X139043361Y-61559947D01*
X139051237Y-61540356D01*
X139103766Y-61409687D01*
X139103767Y-61409685D01*
X139106601Y-61402634D01*
X139130490Y-61234778D01*
X139130645Y-61220000D01*
X139128840Y-61205080D01*
X139111188Y-61059220D01*
X139110276Y-61051680D01*
X139050345Y-60893077D01*
X138954312Y-60753349D01*
X138870663Y-60678820D01*
X138833107Y-60618570D01*
X138834088Y-60547580D01*
X138872652Y-60488933D01*
X138938648Y-60432567D01*
X138938651Y-60432564D01*
X138944423Y-60427634D01*
X139043361Y-60289947D01*
X139051237Y-60270356D01*
X139103766Y-60139687D01*
X139103767Y-60139685D01*
X139106601Y-60132634D01*
X139130490Y-59964778D01*
X139130645Y-59950000D01*
X139128840Y-59935080D01*
X139111188Y-59789220D01*
X139110276Y-59781680D01*
X139050345Y-59623077D01*
X138954312Y-59483349D01*
X138870663Y-59408820D01*
X138833107Y-59348570D01*
X138834088Y-59277580D01*
X138872652Y-59218933D01*
X138938648Y-59162567D01*
X138938651Y-59162564D01*
X138944423Y-59157634D01*
X139043361Y-59019947D01*
X139051380Y-59000000D01*
X139103766Y-58869687D01*
X139103767Y-58869685D01*
X139106601Y-58862634D01*
X139130490Y-58694778D01*
X139130645Y-58680000D01*
X139128840Y-58665080D01*
X139111188Y-58519220D01*
X139110276Y-58511680D01*
X139050345Y-58353077D01*
X138954312Y-58213349D01*
X138870663Y-58138820D01*
X138833107Y-58078570D01*
X138834088Y-58007580D01*
X138872652Y-57948933D01*
X138938648Y-57892567D01*
X138938651Y-57892564D01*
X138944423Y-57887634D01*
X139043361Y-57749947D01*
X139051237Y-57730356D01*
X139103766Y-57599687D01*
X139103767Y-57599685D01*
X139106601Y-57592634D01*
X139130490Y-57424778D01*
X139130645Y-57410000D01*
X139128840Y-57395080D01*
X139111188Y-57249220D01*
X139110276Y-57241680D01*
X139050345Y-57083077D01*
X138954312Y-56943349D01*
X138870663Y-56868820D01*
X138833107Y-56808570D01*
X138834088Y-56737580D01*
X138872652Y-56678933D01*
X138938648Y-56622567D01*
X138938651Y-56622564D01*
X138944423Y-56617634D01*
X139043361Y-56479947D01*
X139051237Y-56460356D01*
X139103766Y-56329687D01*
X139103767Y-56329685D01*
X139106601Y-56322634D01*
X139130490Y-56154778D01*
X139130645Y-56140000D01*
X139128840Y-56125080D01*
X139111188Y-55979220D01*
X139110276Y-55971680D01*
X139050345Y-55813077D01*
X138954312Y-55673349D01*
X138870663Y-55598820D01*
X138833107Y-55538570D01*
X138834088Y-55467580D01*
X138872652Y-55408933D01*
X138938648Y-55352567D01*
X138938651Y-55352564D01*
X138944423Y-55347634D01*
X139043361Y-55209947D01*
X139051237Y-55190356D01*
X139103766Y-55059687D01*
X139103767Y-55059685D01*
X139106601Y-55052634D01*
X139130490Y-54884778D01*
X139130645Y-54870000D01*
X139129751Y-54862611D01*
X139111189Y-54709223D01*
X139111189Y-54709221D01*
X139110276Y-54701680D01*
X139107591Y-54694574D01*
X139105779Y-54687197D01*
X139107880Y-54686681D01*
X139103340Y-54626714D01*
X139137105Y-54564261D01*
X139166061Y-54542465D01*
X139174762Y-54537701D01*
X139275009Y-54462570D01*
X139287570Y-54450009D01*
X139362701Y-54349763D01*
X139371233Y-54334177D01*
X139415586Y-54215867D01*
X139419211Y-54200621D01*
X139424631Y-54150729D01*
X139425000Y-54143915D01*
X139425000Y-53768115D01*
X139420525Y-53752876D01*
X139419135Y-53751671D01*
X139411452Y-53750000D01*
X137443115Y-53750000D01*
X137427876Y-53754475D01*
X137426671Y-53755865D01*
X137425000Y-53763548D01*
X133100000Y-53763548D01*
X133100000Y-53056085D01*
X137425000Y-53056085D01*
X137425000Y-53431885D01*
X137429475Y-53447124D01*
X137430865Y-53448329D01*
X137438548Y-53450000D01*
X138256885Y-53450000D01*
X138272124Y-53445525D01*
X138273329Y-53444135D01*
X138275000Y-53436452D01*
X138275000Y-52618115D01*
X138273659Y-52613548D01*
X138575000Y-52613548D01*
X138575000Y-53431885D01*
X138579475Y-53447124D01*
X138580865Y-53448329D01*
X138588548Y-53450000D01*
X139406885Y-53450000D01*
X139422124Y-53445525D01*
X139423329Y-53444135D01*
X139425000Y-53436452D01*
X139425000Y-53056085D01*
X139424631Y-53049271D01*
X139419211Y-52999379D01*
X139415586Y-52984133D01*
X139371233Y-52865823D01*
X139362701Y-52850237D01*
X139287570Y-52749991D01*
X139275009Y-52737430D01*
X139174763Y-52662299D01*
X139159177Y-52653767D01*
X139040867Y-52609414D01*
X139025621Y-52605789D01*
X138975729Y-52600369D01*
X138968915Y-52600000D01*
X138593115Y-52600000D01*
X138577876Y-52604475D01*
X138576671Y-52605865D01*
X138575000Y-52613548D01*
X138273659Y-52613548D01*
X138270525Y-52602876D01*
X138269135Y-52601671D01*
X138261452Y-52600000D01*
X137881085Y-52600000D01*
X137874271Y-52600369D01*
X137824379Y-52605789D01*
X137809133Y-52609414D01*
X137690823Y-52653767D01*
X137675237Y-52662299D01*
X137574991Y-52737430D01*
X137562430Y-52749991D01*
X137487299Y-52850237D01*
X137478767Y-52865823D01*
X137434414Y-52984133D01*
X137430789Y-52999379D01*
X137425369Y-53049271D01*
X137425000Y-53056085D01*
X133100000Y-53056085D01*
X133100000Y-31005877D01*
X133100045Y-30954551D01*
X133093902Y-30941758D01*
X133092773Y-30936790D01*
X133090215Y-30929465D01*
X133088006Y-30924875D01*
X133084850Y-30911038D01*
X133076006Y-30899939D01*
X133073636Y-30895015D01*
X133070084Y-30889353D01*
X133066688Y-30885084D01*
X133060547Y-30872295D01*
X133049464Y-30863432D01*
X133046293Y-30859446D01*
X133040809Y-30853952D01*
X133036827Y-30850773D01*
X133027985Y-30839677D01*
X133015207Y-30833514D01*
X133010936Y-30830104D01*
X133005286Y-30826546D01*
X133000366Y-30824168D01*
X132989285Y-30815306D01*
X132975457Y-30812126D01*
X132970876Y-30809912D01*
X132963551Y-30807339D01*
X132958580Y-30806201D01*
X132945798Y-30800035D01*
X132922787Y-30800015D01*
X132922789Y-30798003D01*
X132922723Y-30797988D01*
X132922723Y-30800000D01*
X132905877Y-30800000D01*
X132854551Y-30799955D01*
X132854555Y-30795150D01*
X132854457Y-30795144D01*
X132854457Y-30800000D01*
X119105877Y-30800000D01*
X119068742Y-30799967D01*
X119068740Y-30799967D01*
X119054551Y-30799955D01*
X119041758Y-30806098D01*
X119036790Y-30807227D01*
X119029465Y-30809785D01*
X119024875Y-30811994D01*
X119011038Y-30815150D01*
X118999939Y-30823994D01*
X118995015Y-30826364D01*
X118989353Y-30829916D01*
X118985084Y-30833312D01*
X118972295Y-30839453D01*
X118963432Y-30850536D01*
X118959446Y-30853707D01*
X118953952Y-30859191D01*
X118950773Y-30863173D01*
X118939677Y-30872015D01*
X118933514Y-30884793D01*
X118930104Y-30889064D01*
X118926546Y-30894714D01*
X118924168Y-30899634D01*
X118915306Y-30910715D01*
X118912126Y-30924543D01*
X118909912Y-30929124D01*
X118907339Y-30936449D01*
X118906201Y-30941420D01*
X118900035Y-30954202D01*
X118900015Y-30977213D01*
X118898003Y-30977211D01*
X118897988Y-30977277D01*
X118900000Y-30977277D01*
X118900000Y-30994123D01*
X118899955Y-31045449D01*
X118895150Y-31045445D01*
X118895144Y-31045543D01*
X92261236Y-31045543D01*
X92394643Y-30881678D01*
X92394647Y-30881672D01*
X92397040Y-30878733D01*
X92570792Y-30603354D01*
X92710202Y-30309095D01*
X92813251Y-30000218D01*
X92878446Y-29681199D01*
X92904843Y-29356658D01*
X92905436Y-29300000D01*
X92905125Y-29294830D01*
X92886069Y-28978755D01*
X92886069Y-28978751D01*
X92885841Y-28974977D01*
X92881399Y-28950651D01*
X92828025Y-28658404D01*
X92827342Y-28654663D01*
X92730784Y-28343696D01*
X92597567Y-28046582D01*
X92429621Y-27767624D01*
X92427294Y-27764640D01*
X92427289Y-27764633D01*
X92231713Y-27513858D01*
X92231711Y-27513856D01*
X92229377Y-27510863D01*
X91999738Y-27280018D01*
X91974757Y-27260324D01*
X91929885Y-27224950D01*
X91888772Y-27167068D01*
X91885478Y-27096148D01*
X91921050Y-27034706D01*
X91984193Y-27002249D01*
X92007891Y-27000000D01*
X137662976Y-27000000D01*
X137680182Y-27001953D01*
X137685813Y-27001963D01*
X137699642Y-27005143D01*
X137713483Y-27002011D01*
X137727668Y-27002036D01*
X137727667Y-27002796D01*
X137735559Y-27002151D01*
X137903772Y-27012326D01*
X137969627Y-27016310D01*
X137984731Y-27018144D01*
X138242928Y-27065460D01*
X138257701Y-27069101D01*
X138508322Y-27147198D01*
X138522540Y-27152591D01*
X138761922Y-27260327D01*
X138775375Y-27267388D01*
X139000029Y-27403196D01*
X139012543Y-27411833D01*
X139219188Y-27573729D01*
X139230576Y-27583819D01*
X139416181Y-27769424D01*
X139426271Y-27780812D01*
X139588167Y-27987457D01*
X139596804Y-27999971D01*
X139732612Y-28224625D01*
X139739673Y-28238078D01*
X139788842Y-28347327D01*
X139847408Y-28477456D01*
X139852802Y-28491678D01*
X139904756Y-28658404D01*
X139930899Y-28742299D01*
X139934540Y-28757072D01*
X139981856Y-29015269D01*
X139983690Y-29030373D01*
X139997831Y-29264145D01*
X139998061Y-29271972D01*
X139998037Y-29285815D01*
X139994857Y-29299642D01*
X139997989Y-29313482D01*
X139997980Y-29318371D01*
X140000000Y-29336448D01*
X140000000Y-81099000D01*
X139979998Y-81167121D01*
X139926342Y-81213614D01*
X139874000Y-81225000D01*
X138675000Y-81225000D01*
X138675000Y-83225000D01*
X139874000Y-83225000D01*
X139942121Y-83245002D01*
X139988614Y-83298658D01*
X140000000Y-83351000D01*
X140000000Y-89262976D01*
X139998047Y-89280182D01*
X139998037Y-89285813D01*
X139994857Y-89299642D01*
X139997989Y-89313483D01*
X139997964Y-89327668D01*
X139997204Y-89327667D01*
X139997849Y-89335559D01*
X139987958Y-89499077D01*
X139983690Y-89569627D01*
X139981856Y-89584731D01*
X139934540Y-89842928D01*
X139930899Y-89857701D01*
X139889063Y-89991959D01*
X139852804Y-90108317D01*
X139847409Y-90122540D01*
X139763449Y-90309095D01*
X139739676Y-90361916D01*
X139732612Y-90375375D01*
X139596804Y-90600029D01*
X139588167Y-90612543D01*
X139426271Y-90819188D01*
X139416181Y-90830576D01*
X139230576Y-91016181D01*
X139219188Y-91026271D01*
X139012543Y-91188167D01*
X139000029Y-91196804D01*
X138775375Y-91332612D01*
X138761922Y-91339673D01*
X138522540Y-91447409D01*
X138508322Y-91452802D01*
X138339928Y-91505276D01*
X138257701Y-91530899D01*
X138242928Y-91534540D01*
X137984731Y-91581856D01*
X137969627Y-91583690D01*
X137735855Y-91597831D01*
X137728028Y-91598061D01*
X137714185Y-91598037D01*
X137700358Y-91594857D01*
X137686518Y-91597989D01*
X137681629Y-91597980D01*
X137663552Y-91600000D01*
X116476000Y-91600000D01*
X116407879Y-91579998D01*
X116361386Y-91526342D01*
X116350000Y-91474000D01*
X116350000Y-90768115D01*
X116345525Y-90752876D01*
X116344135Y-90751671D01*
X116336452Y-90750000D01*
X114368115Y-90750000D01*
X114352876Y-90754475D01*
X114351671Y-90755865D01*
X114350000Y-90763548D01*
X114350000Y-91474000D01*
X114329998Y-91542121D01*
X114276342Y-91588614D01*
X114224000Y-91600000D01*
X114176500Y-91600000D01*
X114108379Y-91579998D01*
X114061886Y-91526342D01*
X114050500Y-91474000D01*
X114050500Y-89580252D01*
X114045693Y-89556085D01*
X114350000Y-89556085D01*
X114350000Y-90431885D01*
X114354475Y-90447124D01*
X114355865Y-90448329D01*
X114363548Y-90450000D01*
X115181885Y-90450000D01*
X115197124Y-90445525D01*
X115198329Y-90444135D01*
X115200000Y-90436452D01*
X115200000Y-89118115D01*
X115198659Y-89113548D01*
X115500000Y-89113548D01*
X115500000Y-90431885D01*
X115504475Y-90447124D01*
X115505865Y-90448329D01*
X115513548Y-90450000D01*
X116331885Y-90450000D01*
X116347124Y-90445525D01*
X116348329Y-90444135D01*
X116350000Y-90436452D01*
X116350000Y-89556085D01*
X116349631Y-89549271D01*
X116344211Y-89499379D01*
X116340586Y-89484133D01*
X116296233Y-89365823D01*
X116287701Y-89350237D01*
X116212570Y-89249991D01*
X116200009Y-89237430D01*
X116175182Y-89218823D01*
X128594391Y-89218823D01*
X128595555Y-89227725D01*
X128595555Y-89227728D01*
X128600203Y-89263267D01*
X128612980Y-89360979D01*
X128670720Y-89492203D01*
X128676497Y-89499076D01*
X128676498Y-89499077D01*
X128755523Y-89593089D01*
X128762970Y-89601948D01*
X128882313Y-89681390D01*
X129019157Y-89724142D01*
X129028129Y-89724306D01*
X129028132Y-89724307D01*
X129093463Y-89725504D01*
X129162499Y-89726770D01*
X129171533Y-89724307D01*
X129292158Y-89691421D01*
X129292160Y-89691420D01*
X129300817Y-89689060D01*
X129422991Y-89614045D01*
X129433188Y-89602780D01*
X129513178Y-89514407D01*
X129519200Y-89507754D01*
X129571064Y-89400707D01*
X129577795Y-89386814D01*
X129577795Y-89386813D01*
X129581710Y-89378733D01*
X129605496Y-89237354D01*
X129605647Y-89225000D01*
X129590505Y-89119268D01*
X129586596Y-89091968D01*
X129586595Y-89091965D01*
X129585323Y-89083082D01*
X129525984Y-88952572D01*
X129499442Y-88921769D01*
X129438260Y-88850763D01*
X129438257Y-88850760D01*
X129432400Y-88843963D01*
X129312095Y-88765985D01*
X129174739Y-88724907D01*
X129165763Y-88724852D01*
X129165762Y-88724852D01*
X129105555Y-88724484D01*
X129031376Y-88724031D01*
X128893529Y-88763428D01*
X128772280Y-88839930D01*
X128766338Y-88846658D01*
X128766337Y-88846659D01*
X128729394Y-88888489D01*
X128677377Y-88947388D01*
X128616447Y-89077163D01*
X128608971Y-89125179D01*
X128597099Y-89201432D01*
X128594391Y-89218823D01*
X116175182Y-89218823D01*
X116099763Y-89162299D01*
X116084177Y-89153767D01*
X115965867Y-89109414D01*
X115950621Y-89105789D01*
X115900729Y-89100369D01*
X115893915Y-89100000D01*
X115518115Y-89100000D01*
X115502876Y-89104475D01*
X115501671Y-89105865D01*
X115500000Y-89113548D01*
X115198659Y-89113548D01*
X115195525Y-89102876D01*
X115194135Y-89101671D01*
X115186452Y-89100000D01*
X114806085Y-89100000D01*
X114799271Y-89100369D01*
X114749379Y-89105789D01*
X114734133Y-89109414D01*
X114615823Y-89153767D01*
X114600237Y-89162299D01*
X114499991Y-89237430D01*
X114487430Y-89249991D01*
X114412299Y-89350237D01*
X114403767Y-89365823D01*
X114359414Y-89484133D01*
X114355789Y-89499379D01*
X114350369Y-89549271D01*
X114350000Y-89556085D01*
X114045693Y-89556085D01*
X114041288Y-89533939D01*
X114041288Y-89533938D01*
X114038867Y-89521769D01*
X113994552Y-89455448D01*
X113984239Y-89448557D01*
X113984237Y-89448555D01*
X113941162Y-89419773D01*
X113895634Y-89365296D01*
X113886787Y-89294853D01*
X113917428Y-89230809D01*
X113965070Y-89201432D01*
X113963856Y-89198626D01*
X113972093Y-89195062D01*
X113980755Y-89192700D01*
X113988405Y-89188003D01*
X113988407Y-89188002D01*
X114083072Y-89129878D01*
X114083075Y-89129875D01*
X114090724Y-89125179D01*
X114097118Y-89118115D01*
X114171300Y-89036161D01*
X114171303Y-89036157D01*
X114177322Y-89029507D01*
X114233588Y-88913375D01*
X114235297Y-88903220D01*
X114254190Y-88790917D01*
X114254997Y-88786120D01*
X114255065Y-88780530D01*
X114255074Y-88779859D01*
X114255074Y-88779853D01*
X114255133Y-88775000D01*
X114245784Y-88709719D01*
X114238112Y-88656145D01*
X114238111Y-88656142D01*
X114236839Y-88647259D01*
X114226071Y-88623576D01*
X114187145Y-88537962D01*
X114187143Y-88537959D01*
X114183428Y-88529788D01*
X114157625Y-88499842D01*
X114105051Y-88438826D01*
X114105049Y-88438824D01*
X114099193Y-88432028D01*
X113990906Y-88361841D01*
X113982311Y-88359271D01*
X113982310Y-88359270D01*
X113875874Y-88327438D01*
X113875872Y-88327438D01*
X113867273Y-88324866D01*
X113858298Y-88324811D01*
X113858297Y-88324811D01*
X113803641Y-88324477D01*
X113738231Y-88324078D01*
X113681716Y-88340230D01*
X113622786Y-88357072D01*
X113622784Y-88357073D01*
X113614155Y-88359539D01*
X113505019Y-88428399D01*
X113419596Y-88525122D01*
X113415782Y-88533245D01*
X113415781Y-88533247D01*
X113402141Y-88562299D01*
X113364754Y-88641932D01*
X113361973Y-88659793D01*
X113346282Y-88760567D01*
X113346282Y-88760571D01*
X113344901Y-88769440D01*
X113346065Y-88778342D01*
X113346065Y-88778345D01*
X113360468Y-88888489D01*
X113360469Y-88888493D01*
X113361633Y-88897394D01*
X113367819Y-88911453D01*
X113403740Y-88993089D01*
X113413605Y-89015510D01*
X113419382Y-89022383D01*
X113419383Y-89022384D01*
X113484626Y-89100000D01*
X113496639Y-89114291D01*
X113504116Y-89119268D01*
X113578246Y-89168613D01*
X113623869Y-89223010D01*
X113632840Y-89293437D01*
X113602311Y-89357535D01*
X113541974Y-89394952D01*
X113508427Y-89399500D01*
X112830252Y-89399500D01*
X112824184Y-89400707D01*
X112783939Y-89408712D01*
X112783938Y-89408712D01*
X112771769Y-89411133D01*
X112761453Y-89418026D01*
X112737342Y-89434137D01*
X112705448Y-89455448D01*
X112661133Y-89521769D01*
X112658712Y-89533938D01*
X112658712Y-89533939D01*
X112654307Y-89556085D01*
X112649500Y-89580252D01*
X112649500Y-91474000D01*
X112629498Y-91542121D01*
X112575842Y-91588614D01*
X112523500Y-91600000D01*
X112176500Y-91600000D01*
X112108379Y-91579998D01*
X112061886Y-91526342D01*
X112050500Y-91474000D01*
X112050500Y-89580252D01*
X112045693Y-89556085D01*
X112041288Y-89533939D01*
X112041288Y-89533938D01*
X112038867Y-89521769D01*
X111994552Y-89455448D01*
X111984239Y-89448557D01*
X111975766Y-89440084D01*
X111941740Y-89377772D01*
X111946805Y-89306957D01*
X111989352Y-89250121D01*
X112055872Y-89225310D01*
X112067169Y-89225010D01*
X112156255Y-89226643D01*
X112259019Y-89198626D01*
X112272092Y-89195062D01*
X112272093Y-89195062D01*
X112280755Y-89192700D01*
X112288405Y-89188003D01*
X112288407Y-89188002D01*
X112383072Y-89129878D01*
X112383075Y-89129875D01*
X112390724Y-89125179D01*
X112397118Y-89118115D01*
X112471300Y-89036161D01*
X112471303Y-89036157D01*
X112477322Y-89029507D01*
X112533588Y-88913375D01*
X112535297Y-88903220D01*
X112554190Y-88790917D01*
X112554997Y-88786120D01*
X112555065Y-88780530D01*
X112555074Y-88779859D01*
X112555074Y-88779853D01*
X112555133Y-88775000D01*
X112545784Y-88709719D01*
X112538112Y-88656145D01*
X112538111Y-88656142D01*
X112536839Y-88647259D01*
X112526071Y-88623576D01*
X112487145Y-88537962D01*
X112487143Y-88537959D01*
X112483428Y-88529788D01*
X112457625Y-88499842D01*
X112405051Y-88438826D01*
X112405049Y-88438824D01*
X112399193Y-88432028D01*
X112290906Y-88361841D01*
X112282311Y-88359271D01*
X112282310Y-88359270D01*
X112175874Y-88327438D01*
X112175872Y-88327438D01*
X112167273Y-88324866D01*
X112158298Y-88324811D01*
X112158297Y-88324811D01*
X112103641Y-88324477D01*
X112038231Y-88324078D01*
X111981716Y-88340230D01*
X111922786Y-88357072D01*
X111922784Y-88357073D01*
X111914155Y-88359539D01*
X111805019Y-88428399D01*
X111719596Y-88525122D01*
X111715782Y-88533245D01*
X111715781Y-88533247D01*
X111702141Y-88562299D01*
X111664754Y-88641932D01*
X111661973Y-88659793D01*
X111646282Y-88760567D01*
X111646282Y-88760571D01*
X111644901Y-88769440D01*
X111646065Y-88778342D01*
X111646065Y-88778345D01*
X111660468Y-88888489D01*
X111660469Y-88888493D01*
X111661633Y-88897394D01*
X111667819Y-88911453D01*
X111703740Y-88993089D01*
X111713605Y-89015510D01*
X111719382Y-89022383D01*
X111719383Y-89022384D01*
X111784626Y-89100000D01*
X111796639Y-89114291D01*
X111804116Y-89119268D01*
X111878246Y-89168613D01*
X111923869Y-89223010D01*
X111932840Y-89293437D01*
X111902311Y-89357535D01*
X111841974Y-89394952D01*
X111808427Y-89399500D01*
X110830252Y-89399500D01*
X110824184Y-89400707D01*
X110783939Y-89408712D01*
X110783938Y-89408712D01*
X110771769Y-89411133D01*
X110761453Y-89418026D01*
X110737342Y-89434137D01*
X110705448Y-89455448D01*
X110661133Y-89521769D01*
X110658712Y-89533938D01*
X110658712Y-89533939D01*
X110654307Y-89556085D01*
X110649500Y-89580252D01*
X110649500Y-91474000D01*
X110629498Y-91542121D01*
X110575842Y-91588614D01*
X110523500Y-91600000D01*
X92011486Y-91600000D01*
X91943365Y-91579998D01*
X91896872Y-91526342D01*
X91886768Y-91456068D01*
X91916262Y-91391488D01*
X91935570Y-91373438D01*
X91954014Y-91359515D01*
X91954020Y-91359510D01*
X91957040Y-91357230D01*
X92127545Y-91192863D01*
X92188730Y-91133881D01*
X92188733Y-91133877D01*
X92191464Y-91131245D01*
X92193862Y-91128300D01*
X92394643Y-90881678D01*
X92394647Y-90881672D01*
X92397040Y-90878733D01*
X92570792Y-90603354D01*
X92710202Y-90309095D01*
X92813251Y-90000218D01*
X92843950Y-89850000D01*
X101369196Y-89850000D01*
X101370747Y-89859793D01*
X101387904Y-89968115D01*
X101390281Y-89983126D01*
X101451472Y-90103220D01*
X101546780Y-90198528D01*
X101549782Y-90200058D01*
X101590914Y-90253398D01*
X101599500Y-90299113D01*
X101599500Y-90619748D01*
X101600707Y-90625816D01*
X101605663Y-90650729D01*
X101611133Y-90678231D01*
X101655448Y-90744552D01*
X101721769Y-90788867D01*
X101733938Y-90791288D01*
X101733939Y-90791288D01*
X101774184Y-90799293D01*
X101780252Y-90800500D01*
X103819748Y-90800500D01*
X103825816Y-90799293D01*
X103866061Y-90791288D01*
X103866062Y-90791288D01*
X103878231Y-90788867D01*
X103944552Y-90744552D01*
X103988867Y-90678231D01*
X103994338Y-90650729D01*
X103999293Y-90625816D01*
X104000500Y-90619748D01*
X104000500Y-89963548D01*
X106700000Y-89963548D01*
X106700000Y-90643915D01*
X106700369Y-90650729D01*
X106705789Y-90700621D01*
X106709414Y-90715867D01*
X106753767Y-90834177D01*
X106762299Y-90849763D01*
X106837430Y-90950009D01*
X106849991Y-90962570D01*
X106950237Y-91037701D01*
X106965823Y-91046233D01*
X107084133Y-91090586D01*
X107099379Y-91094211D01*
X107149271Y-91099631D01*
X107156085Y-91100000D01*
X108031885Y-91100000D01*
X108047124Y-91095525D01*
X108048329Y-91094135D01*
X108050000Y-91086452D01*
X108050000Y-89968115D01*
X108048659Y-89963548D01*
X108350000Y-89963548D01*
X108350000Y-91081885D01*
X108354475Y-91097124D01*
X108355865Y-91098329D01*
X108363548Y-91100000D01*
X109243915Y-91100000D01*
X109250729Y-91099631D01*
X109300621Y-91094211D01*
X109315867Y-91090586D01*
X109434177Y-91046233D01*
X109449763Y-91037701D01*
X109550009Y-90962570D01*
X109562570Y-90950009D01*
X109637701Y-90849763D01*
X109646233Y-90834177D01*
X109690586Y-90715867D01*
X109694211Y-90700621D01*
X109699631Y-90650729D01*
X109700000Y-90643915D01*
X109700000Y-89968115D01*
X109695525Y-89952876D01*
X109694135Y-89951671D01*
X109686452Y-89950000D01*
X108368115Y-89950000D01*
X108352876Y-89954475D01*
X108351671Y-89955865D01*
X108350000Y-89963548D01*
X108048659Y-89963548D01*
X108045525Y-89952876D01*
X108044135Y-89951671D01*
X108036452Y-89950000D01*
X106718115Y-89950000D01*
X106702876Y-89954475D01*
X106701671Y-89955865D01*
X106700000Y-89963548D01*
X104000500Y-89963548D01*
X104000500Y-89107703D01*
X104020502Y-89039582D01*
X104074158Y-88993089D01*
X104144432Y-88982985D01*
X104209012Y-89012479D01*
X104222949Y-89026626D01*
X104296639Y-89114291D01*
X104404060Y-89185796D01*
X104454108Y-89201432D01*
X104509773Y-89218823D01*
X104527233Y-89224278D01*
X104536203Y-89224442D01*
X104536207Y-89224443D01*
X104594942Y-89225519D01*
X104656255Y-89226643D01*
X104759019Y-89198626D01*
X104772092Y-89195062D01*
X104772093Y-89195062D01*
X104780755Y-89192700D01*
X104788405Y-89188003D01*
X104788407Y-89188002D01*
X104883072Y-89129878D01*
X104883075Y-89129875D01*
X104890724Y-89125179D01*
X104897118Y-89118115D01*
X104971300Y-89036161D01*
X104971303Y-89036157D01*
X104977322Y-89029507D01*
X105033588Y-88913375D01*
X105035297Y-88903220D01*
X105054190Y-88790917D01*
X105054997Y-88786120D01*
X105055065Y-88780530D01*
X105055074Y-88779859D01*
X105055074Y-88779853D01*
X105055133Y-88775000D01*
X105054337Y-88769440D01*
X105844901Y-88769440D01*
X105846065Y-88778342D01*
X105846065Y-88778345D01*
X105860468Y-88888489D01*
X105860469Y-88888493D01*
X105861633Y-88897394D01*
X105867819Y-88911453D01*
X105903740Y-88993089D01*
X105913605Y-89015510D01*
X105919382Y-89022383D01*
X105919383Y-89022384D01*
X105984626Y-89100000D01*
X105996639Y-89114291D01*
X106104060Y-89185796D01*
X106154108Y-89201432D01*
X106209773Y-89218823D01*
X106227233Y-89224278D01*
X106236203Y-89224442D01*
X106236207Y-89224443D01*
X106294942Y-89225519D01*
X106356255Y-89226643D01*
X106459019Y-89198626D01*
X106472092Y-89195062D01*
X106472093Y-89195062D01*
X106480755Y-89192700D01*
X106508074Y-89175926D01*
X106576588Y-89157329D01*
X106644283Y-89178725D01*
X106689664Y-89233325D01*
X106700000Y-89283302D01*
X106700000Y-89631885D01*
X106704475Y-89647124D01*
X106705865Y-89648329D01*
X106713548Y-89650000D01*
X108031885Y-89650000D01*
X108047124Y-89645525D01*
X108048329Y-89644135D01*
X108050000Y-89636452D01*
X108050000Y-88518115D01*
X108048659Y-88513548D01*
X108350000Y-88513548D01*
X108350000Y-89631885D01*
X108354475Y-89647124D01*
X108355865Y-89648329D01*
X108363548Y-89650000D01*
X109681885Y-89650000D01*
X109697124Y-89645525D01*
X109698329Y-89644135D01*
X109700000Y-89636452D01*
X109700000Y-88956085D01*
X109699631Y-88949271D01*
X109694211Y-88899379D01*
X109690586Y-88884133D01*
X109646233Y-88765823D01*
X109637701Y-88750237D01*
X109562570Y-88649991D01*
X109550009Y-88637430D01*
X109449763Y-88562299D01*
X109434177Y-88553767D01*
X109315867Y-88509414D01*
X109300621Y-88505789D01*
X109250729Y-88500369D01*
X109243915Y-88500000D01*
X108368115Y-88500000D01*
X108352876Y-88504475D01*
X108351671Y-88505865D01*
X108350000Y-88513548D01*
X108048659Y-88513548D01*
X108045525Y-88502876D01*
X108044135Y-88501671D01*
X108036452Y-88500000D01*
X107156085Y-88500000D01*
X107149271Y-88500369D01*
X107099379Y-88505789D01*
X107084133Y-88509414D01*
X106965823Y-88553767D01*
X106950237Y-88562299D01*
X106887666Y-88609194D01*
X106821160Y-88634042D01*
X106751777Y-88618989D01*
X106701547Y-88568815D01*
X106697400Y-88560518D01*
X106687146Y-88537964D01*
X106687144Y-88537961D01*
X106683428Y-88529788D01*
X106657625Y-88499842D01*
X106605051Y-88438826D01*
X106605049Y-88438824D01*
X106599193Y-88432028D01*
X106490906Y-88361841D01*
X106482311Y-88359271D01*
X106482310Y-88359270D01*
X106375874Y-88327438D01*
X106375872Y-88327438D01*
X106367273Y-88324866D01*
X106358298Y-88324811D01*
X106358297Y-88324811D01*
X106303641Y-88324477D01*
X106238231Y-88324078D01*
X106181716Y-88340230D01*
X106122786Y-88357072D01*
X106122784Y-88357073D01*
X106114155Y-88359539D01*
X106005019Y-88428399D01*
X105919596Y-88525122D01*
X105915782Y-88533245D01*
X105915781Y-88533247D01*
X105902141Y-88562299D01*
X105864754Y-88641932D01*
X105861973Y-88659793D01*
X105846282Y-88760567D01*
X105846282Y-88760571D01*
X105844901Y-88769440D01*
X105054337Y-88769440D01*
X105045784Y-88709719D01*
X105038112Y-88656145D01*
X105038111Y-88656142D01*
X105036839Y-88647259D01*
X105026071Y-88623576D01*
X104987145Y-88537962D01*
X104987143Y-88537959D01*
X104983428Y-88529788D01*
X104957625Y-88499842D01*
X104905051Y-88438826D01*
X104905049Y-88438824D01*
X104899193Y-88432028D01*
X104790906Y-88361841D01*
X104782311Y-88359271D01*
X104782310Y-88359270D01*
X104675874Y-88327438D01*
X104675872Y-88327438D01*
X104667273Y-88324866D01*
X104658298Y-88324811D01*
X104658297Y-88324811D01*
X104603641Y-88324477D01*
X104538231Y-88324078D01*
X104481716Y-88340230D01*
X104422786Y-88357072D01*
X104422784Y-88357073D01*
X104414155Y-88359539D01*
X104305019Y-88428399D01*
X104219596Y-88525122D01*
X104215782Y-88533245D01*
X104215781Y-88533247D01*
X104202141Y-88562299D01*
X104164754Y-88641932D01*
X104144901Y-88769440D01*
X104142895Y-88769128D01*
X104125482Y-88825859D01*
X104071264Y-88871694D01*
X104000872Y-88880941D01*
X103945092Y-88854640D01*
X103944552Y-88855448D01*
X103939150Y-88851838D01*
X103939148Y-88851837D01*
X103878231Y-88811133D01*
X103866062Y-88808712D01*
X103866061Y-88808712D01*
X103825816Y-88800707D01*
X103819748Y-88799500D01*
X101780252Y-88799500D01*
X101774184Y-88800707D01*
X101733939Y-88808712D01*
X101733938Y-88808712D01*
X101721769Y-88811133D01*
X101655448Y-88855448D01*
X101611133Y-88921769D01*
X101608712Y-88933938D01*
X101608712Y-88933939D01*
X101605388Y-88950651D01*
X101599500Y-88980252D01*
X101599500Y-89400887D01*
X101579498Y-89469008D01*
X101550745Y-89499452D01*
X101546780Y-89501472D01*
X101451472Y-89596780D01*
X101390281Y-89716874D01*
X101388731Y-89726663D01*
X101388730Y-89726665D01*
X101370747Y-89840207D01*
X101369196Y-89850000D01*
X92843950Y-89850000D01*
X92878446Y-89681199D01*
X92904843Y-89356658D01*
X92905436Y-89300000D01*
X92905041Y-89293437D01*
X92886069Y-88978755D01*
X92886069Y-88978751D01*
X92885841Y-88974977D01*
X92882287Y-88955514D01*
X92848304Y-88769440D01*
X96644901Y-88769440D01*
X96646065Y-88778342D01*
X96646065Y-88778345D01*
X96660468Y-88888489D01*
X96660469Y-88888493D01*
X96661633Y-88897394D01*
X96667819Y-88911453D01*
X96703740Y-88993089D01*
X96713605Y-89015510D01*
X96719382Y-89022383D01*
X96719383Y-89022384D01*
X96784626Y-89100000D01*
X96796639Y-89114291D01*
X96904060Y-89185796D01*
X96954108Y-89201432D01*
X97009773Y-89218823D01*
X97027233Y-89224278D01*
X97036203Y-89224442D01*
X97036207Y-89224443D01*
X97094942Y-89225519D01*
X97156255Y-89226643D01*
X97259019Y-89198626D01*
X97272092Y-89195062D01*
X97272093Y-89195062D01*
X97280755Y-89192700D01*
X97288405Y-89188003D01*
X97288407Y-89188002D01*
X97383072Y-89129878D01*
X97383075Y-89129875D01*
X97390724Y-89125179D01*
X97397118Y-89118115D01*
X97471300Y-89036161D01*
X97471303Y-89036157D01*
X97477322Y-89029507D01*
X97533588Y-88913375D01*
X97535297Y-88903220D01*
X97554190Y-88790917D01*
X97554997Y-88786120D01*
X97555065Y-88780530D01*
X97555074Y-88779859D01*
X97555074Y-88779853D01*
X97555133Y-88775000D01*
X97554337Y-88769440D01*
X98344901Y-88769440D01*
X98346065Y-88778342D01*
X98346065Y-88778345D01*
X98360468Y-88888489D01*
X98360469Y-88888493D01*
X98361633Y-88897394D01*
X98367819Y-88911453D01*
X98403740Y-88993089D01*
X98413605Y-89015510D01*
X98419382Y-89022383D01*
X98419383Y-89022384D01*
X98484626Y-89100000D01*
X98496639Y-89114291D01*
X98604060Y-89185796D01*
X98654108Y-89201432D01*
X98709773Y-89218823D01*
X98727233Y-89224278D01*
X98736203Y-89224442D01*
X98736207Y-89224443D01*
X98794942Y-89225519D01*
X98856255Y-89226643D01*
X98959019Y-89198626D01*
X98972092Y-89195062D01*
X98972093Y-89195062D01*
X98980755Y-89192700D01*
X98988405Y-89188003D01*
X98988407Y-89188002D01*
X99083072Y-89129878D01*
X99083075Y-89129875D01*
X99090724Y-89125179D01*
X99097118Y-89118115D01*
X99171300Y-89036161D01*
X99171303Y-89036157D01*
X99177322Y-89029507D01*
X99233588Y-88913375D01*
X99235297Y-88903220D01*
X99254190Y-88790917D01*
X99254997Y-88786120D01*
X99255065Y-88780530D01*
X99255074Y-88779859D01*
X99255074Y-88779853D01*
X99255133Y-88775000D01*
X99245784Y-88709719D01*
X99238112Y-88656145D01*
X99238111Y-88656142D01*
X99236839Y-88647259D01*
X99226071Y-88623576D01*
X99187145Y-88537962D01*
X99187143Y-88537959D01*
X99183428Y-88529788D01*
X99157625Y-88499842D01*
X99105051Y-88438826D01*
X99105049Y-88438824D01*
X99099193Y-88432028D01*
X98990906Y-88361841D01*
X98982311Y-88359271D01*
X98982310Y-88359270D01*
X98875874Y-88327438D01*
X98875872Y-88327438D01*
X98867273Y-88324866D01*
X98858298Y-88324811D01*
X98858297Y-88324811D01*
X98803641Y-88324477D01*
X98738231Y-88324078D01*
X98681716Y-88340230D01*
X98622786Y-88357072D01*
X98622784Y-88357073D01*
X98614155Y-88359539D01*
X98505019Y-88428399D01*
X98419596Y-88525122D01*
X98415782Y-88533245D01*
X98415781Y-88533247D01*
X98402141Y-88562299D01*
X98364754Y-88641932D01*
X98361973Y-88659793D01*
X98346282Y-88760567D01*
X98346282Y-88760571D01*
X98344901Y-88769440D01*
X97554337Y-88769440D01*
X97545784Y-88709719D01*
X97538112Y-88656145D01*
X97538111Y-88656142D01*
X97536839Y-88647259D01*
X97526071Y-88623576D01*
X97487145Y-88537962D01*
X97487143Y-88537959D01*
X97483428Y-88529788D01*
X97457625Y-88499842D01*
X97405051Y-88438826D01*
X97405049Y-88438824D01*
X97399193Y-88432028D01*
X97290906Y-88361841D01*
X97282311Y-88359271D01*
X97282310Y-88359270D01*
X97175874Y-88327438D01*
X97175872Y-88327438D01*
X97167273Y-88324866D01*
X97158298Y-88324811D01*
X97158297Y-88324811D01*
X97103641Y-88324477D01*
X97038231Y-88324078D01*
X96981716Y-88340230D01*
X96922786Y-88357072D01*
X96922784Y-88357073D01*
X96914155Y-88359539D01*
X96805019Y-88428399D01*
X96719596Y-88525122D01*
X96715782Y-88533245D01*
X96715781Y-88533247D01*
X96702141Y-88562299D01*
X96664754Y-88641932D01*
X96661973Y-88659793D01*
X96646282Y-88760567D01*
X96646282Y-88760571D01*
X96644901Y-88769440D01*
X92848304Y-88769440D01*
X92830578Y-88672384D01*
X92827342Y-88654663D01*
X92730784Y-88343696D01*
X92597567Y-88046582D01*
X92429621Y-87767624D01*
X92427294Y-87764640D01*
X92427289Y-87764633D01*
X92231713Y-87513858D01*
X92231711Y-87513856D01*
X92229377Y-87510863D01*
X91999738Y-87280018D01*
X91965502Y-87253028D01*
X91747010Y-87080783D01*
X91744029Y-87078433D01*
X91465954Y-86909029D01*
X91309328Y-86837815D01*
X91172994Y-86775827D01*
X91172986Y-86775824D01*
X91169542Y-86774258D01*
X90859085Y-86676073D01*
X90675323Y-86641517D01*
X90542805Y-86616597D01*
X90542800Y-86616596D01*
X90539081Y-86615897D01*
X90214166Y-86594601D01*
X90210386Y-86594809D01*
X90210385Y-86594809D01*
X90113156Y-86600160D01*
X89889045Y-86612494D01*
X89885318Y-86613155D01*
X89885314Y-86613155D01*
X89706858Y-86644782D01*
X89568429Y-86669315D01*
X89564804Y-86670420D01*
X89564799Y-86670421D01*
X89412201Y-86716930D01*
X89256961Y-86764244D01*
X89253497Y-86765775D01*
X89253490Y-86765778D01*
X89090546Y-86837815D01*
X88959153Y-86895903D01*
X88955899Y-86897839D01*
X88955893Y-86897842D01*
X88686622Y-87058041D01*
X88679319Y-87062386D01*
X88676318Y-87064701D01*
X88676314Y-87064704D01*
X88573029Y-87144388D01*
X88421513Y-87261282D01*
X88418812Y-87263941D01*
X88418805Y-87263947D01*
X88198516Y-87480804D01*
X88189469Y-87489710D01*
X88187105Y-87492677D01*
X88187102Y-87492680D01*
X88064306Y-87646780D01*
X87986548Y-87744360D01*
X87815690Y-88021544D01*
X87679369Y-88317247D01*
X87678210Y-88320848D01*
X87678207Y-88320854D01*
X87582199Y-88618989D01*
X87579560Y-88627185D01*
X87578841Y-88630901D01*
X87578839Y-88630909D01*
X87518428Y-88943151D01*
X87518427Y-88943160D01*
X87517709Y-88946870D01*
X87517442Y-88950646D01*
X87517441Y-88950651D01*
X87495327Y-89262976D01*
X87494712Y-89271669D01*
X87496139Y-89300337D01*
X87507769Y-89533939D01*
X87510902Y-89596879D01*
X87511543Y-89600610D01*
X87511544Y-89600618D01*
X87555720Y-89857701D01*
X87566045Y-89917789D01*
X87567133Y-89921428D01*
X87567134Y-89921431D01*
X87649600Y-90197176D01*
X87659341Y-90229749D01*
X87789439Y-90528242D01*
X87791362Y-90531514D01*
X87791364Y-90531517D01*
X87846800Y-90625816D01*
X87954455Y-90808944D01*
X87956756Y-90811959D01*
X88149698Y-91064775D01*
X88149703Y-91064781D01*
X88151998Y-91067788D01*
X88379208Y-91301025D01*
X88451825Y-91359515D01*
X88472133Y-91375872D01*
X88512638Y-91434181D01*
X88515189Y-91505131D01*
X88478976Y-91566198D01*
X88415496Y-91597993D01*
X88393095Y-91600000D01*
X42737024Y-91600000D01*
X42719818Y-91598047D01*
X42714187Y-91598037D01*
X42700358Y-91594857D01*
X42686517Y-91597989D01*
X42672332Y-91597964D01*
X42672333Y-91597204D01*
X42664441Y-91597849D01*
X42496228Y-91587674D01*
X42430373Y-91583690D01*
X42415269Y-91581856D01*
X42157072Y-91534540D01*
X42142299Y-91530899D01*
X42060072Y-91505276D01*
X41891678Y-91452802D01*
X41877460Y-91447409D01*
X41638078Y-91339673D01*
X41624625Y-91332612D01*
X41399971Y-91196804D01*
X41387457Y-91188167D01*
X41180812Y-91026271D01*
X41169424Y-91016181D01*
X40983819Y-90830576D01*
X40973729Y-90819188D01*
X40811833Y-90612543D01*
X40803196Y-90600029D01*
X40667388Y-90375375D01*
X40660324Y-90361916D01*
X40636552Y-90309095D01*
X40552591Y-90122540D01*
X40547196Y-90108317D01*
X40510938Y-89991959D01*
X40469101Y-89857701D01*
X40465460Y-89842928D01*
X40418144Y-89584731D01*
X40416310Y-89569627D01*
X40403563Y-89358893D01*
X40402188Y-89336166D01*
X40402784Y-89314157D01*
X40403530Y-89307670D01*
X40405142Y-89300716D01*
X40405143Y-89300000D01*
X40403154Y-89291282D01*
X40400000Y-89263267D01*
X40400000Y-88650000D01*
X53869196Y-88650000D01*
X53870747Y-88659793D01*
X53887920Y-88768217D01*
X53890281Y-88783126D01*
X53951472Y-88903220D01*
X54046780Y-88998528D01*
X54166874Y-89059719D01*
X54176663Y-89061269D01*
X54176665Y-89061270D01*
X54290207Y-89079253D01*
X54300000Y-89080804D01*
X54309793Y-89079253D01*
X54423335Y-89061270D01*
X54423337Y-89061269D01*
X54433126Y-89059719D01*
X54553220Y-88998528D01*
X54648528Y-88903220D01*
X54709719Y-88783126D01*
X54712081Y-88768217D01*
X54729253Y-88659793D01*
X54730804Y-88650000D01*
X54727780Y-88630909D01*
X54711270Y-88526665D01*
X54711269Y-88526663D01*
X54709719Y-88516874D01*
X54660074Y-88419440D01*
X79020635Y-88419440D01*
X79021799Y-88428342D01*
X79021799Y-88428345D01*
X79036202Y-88538489D01*
X79036203Y-88538493D01*
X79037367Y-88547394D01*
X79047952Y-88571450D01*
X79082866Y-88650798D01*
X79089339Y-88665510D01*
X79095116Y-88672383D01*
X79095117Y-88672384D01*
X79144224Y-88730804D01*
X79172373Y-88764291D01*
X79279794Y-88835796D01*
X79402967Y-88874278D01*
X79411937Y-88874442D01*
X79411941Y-88874443D01*
X79470676Y-88875519D01*
X79531989Y-88876643D01*
X79594239Y-88859671D01*
X79647826Y-88845062D01*
X79647827Y-88845062D01*
X79656489Y-88842700D01*
X79664139Y-88838003D01*
X79664141Y-88838002D01*
X79758806Y-88779878D01*
X79758809Y-88779875D01*
X79766458Y-88775179D01*
X79774927Y-88765823D01*
X79847034Y-88686161D01*
X79847037Y-88686157D01*
X79853056Y-88679507D01*
X79909322Y-88563375D01*
X79910939Y-88553767D01*
X79929924Y-88440917D01*
X79930731Y-88436120D01*
X79930867Y-88425000D01*
X79930071Y-88419440D01*
X80720635Y-88419440D01*
X80721799Y-88428342D01*
X80721799Y-88428345D01*
X80736202Y-88538489D01*
X80736203Y-88538493D01*
X80737367Y-88547394D01*
X80747952Y-88571450D01*
X80782866Y-88650798D01*
X80789339Y-88665510D01*
X80795116Y-88672383D01*
X80795117Y-88672384D01*
X80844224Y-88730804D01*
X80872373Y-88764291D01*
X80979794Y-88835796D01*
X81102967Y-88874278D01*
X81111937Y-88874442D01*
X81111941Y-88874443D01*
X81170676Y-88875519D01*
X81231989Y-88876643D01*
X81294239Y-88859671D01*
X81347826Y-88845062D01*
X81347827Y-88845062D01*
X81356489Y-88842700D01*
X81364139Y-88838003D01*
X81364141Y-88838002D01*
X81458806Y-88779878D01*
X81458809Y-88779875D01*
X81466458Y-88775179D01*
X81474927Y-88765823D01*
X81547034Y-88686161D01*
X81547037Y-88686157D01*
X81553056Y-88679507D01*
X81609322Y-88563375D01*
X81610939Y-88553767D01*
X81629924Y-88440917D01*
X81630731Y-88436120D01*
X81630867Y-88425000D01*
X81619743Y-88347327D01*
X81613846Y-88306145D01*
X81613845Y-88306142D01*
X81612965Y-88300000D01*
X85869196Y-88300000D01*
X85870747Y-88309793D01*
X85879764Y-88366721D01*
X85890281Y-88433126D01*
X85951472Y-88553220D01*
X86046780Y-88648528D01*
X86166874Y-88709719D01*
X86176663Y-88711269D01*
X86176665Y-88711270D01*
X86290207Y-88729253D01*
X86300000Y-88730804D01*
X86309793Y-88729253D01*
X86423335Y-88711270D01*
X86423337Y-88711269D01*
X86433126Y-88709719D01*
X86553220Y-88648528D01*
X86648528Y-88553220D01*
X86709719Y-88433126D01*
X86720237Y-88366721D01*
X86729253Y-88309793D01*
X86730804Y-88300000D01*
X86728240Y-88283809D01*
X86711270Y-88176665D01*
X86711269Y-88176663D01*
X86709719Y-88166874D01*
X86648528Y-88046780D01*
X86553220Y-87951472D01*
X86433126Y-87890281D01*
X86423337Y-87888731D01*
X86423335Y-87888730D01*
X86309793Y-87870747D01*
X86300000Y-87869196D01*
X86290207Y-87870747D01*
X86176665Y-87888730D01*
X86176663Y-87888731D01*
X86166874Y-87890281D01*
X86046780Y-87951472D01*
X85951472Y-88046780D01*
X85890281Y-88166874D01*
X85888731Y-88176663D01*
X85888730Y-88176665D01*
X85871760Y-88283809D01*
X85869196Y-88300000D01*
X81612965Y-88300000D01*
X81612573Y-88297259D01*
X81606458Y-88283809D01*
X81562879Y-88187962D01*
X81562877Y-88187959D01*
X81559162Y-88179788D01*
X81474927Y-88082028D01*
X81366640Y-88011841D01*
X81358045Y-88009271D01*
X81358044Y-88009270D01*
X81251608Y-87977438D01*
X81251606Y-87977438D01*
X81243007Y-87974866D01*
X81234032Y-87974811D01*
X81234031Y-87974811D01*
X81179375Y-87974477D01*
X81113965Y-87974078D01*
X81102209Y-87977438D01*
X80998520Y-88007072D01*
X80998518Y-88007073D01*
X80989889Y-88009539D01*
X80880753Y-88078399D01*
X80795330Y-88175122D01*
X80791516Y-88183245D01*
X80791515Y-88183247D01*
X80774637Y-88219196D01*
X80740488Y-88291932D01*
X80735369Y-88324811D01*
X80722016Y-88410567D01*
X80722016Y-88410571D01*
X80720635Y-88419440D01*
X79930071Y-88419440D01*
X79919743Y-88347327D01*
X79913846Y-88306145D01*
X79913845Y-88306142D01*
X79912573Y-88297259D01*
X79906458Y-88283809D01*
X79862879Y-88187962D01*
X79862877Y-88187959D01*
X79859162Y-88179788D01*
X79774927Y-88082028D01*
X79666640Y-88011841D01*
X79658045Y-88009271D01*
X79658044Y-88009270D01*
X79551608Y-87977438D01*
X79551606Y-87977438D01*
X79543007Y-87974866D01*
X79534032Y-87974811D01*
X79534031Y-87974811D01*
X79479375Y-87974477D01*
X79413965Y-87974078D01*
X79402209Y-87977438D01*
X79298520Y-88007072D01*
X79298518Y-88007073D01*
X79289889Y-88009539D01*
X79180753Y-88078399D01*
X79095330Y-88175122D01*
X79091516Y-88183245D01*
X79091515Y-88183247D01*
X79074637Y-88219196D01*
X79040488Y-88291932D01*
X79035369Y-88324811D01*
X79022016Y-88410567D01*
X79022016Y-88410571D01*
X79020635Y-88419440D01*
X54660074Y-88419440D01*
X54648528Y-88396780D01*
X54553220Y-88301472D01*
X54433126Y-88240281D01*
X54423337Y-88238731D01*
X54423335Y-88238730D01*
X54309793Y-88220747D01*
X54300000Y-88219196D01*
X54290207Y-88220747D01*
X54176665Y-88238730D01*
X54176663Y-88238731D01*
X54166874Y-88240281D01*
X54046780Y-88301472D01*
X53951472Y-88396780D01*
X53890281Y-88516874D01*
X53888731Y-88526663D01*
X53888730Y-88526665D01*
X53872220Y-88630909D01*
X53869196Y-88650000D01*
X40400000Y-88650000D01*
X40400000Y-87900000D01*
X52819196Y-87900000D01*
X52820747Y-87909793D01*
X52838447Y-88021544D01*
X52840281Y-88033126D01*
X52901472Y-88153220D01*
X52996780Y-88248528D01*
X53116874Y-88309719D01*
X53126663Y-88311269D01*
X53126665Y-88311270D01*
X53240207Y-88329253D01*
X53250000Y-88330804D01*
X53259793Y-88329253D01*
X53373335Y-88311270D01*
X53373337Y-88311269D01*
X53383126Y-88309719D01*
X53503220Y-88248528D01*
X53598528Y-88153220D01*
X53659719Y-88033126D01*
X53661554Y-88021544D01*
X53679253Y-87909793D01*
X53680804Y-87900000D01*
X53659719Y-87766874D01*
X53598528Y-87646780D01*
X53591516Y-87639768D01*
X53585689Y-87631748D01*
X53586895Y-87630872D01*
X53558012Y-87577978D01*
X53563077Y-87507163D01*
X53605624Y-87450327D01*
X53623931Y-87438928D01*
X53694385Y-87403030D01*
X53694387Y-87403029D01*
X53703220Y-87398528D01*
X53798528Y-87303220D01*
X53859719Y-87183126D01*
X53865855Y-87144388D01*
X53872885Y-87100000D01*
X83319196Y-87100000D01*
X83320747Y-87109793D01*
X83328736Y-87160231D01*
X83340281Y-87233126D01*
X83401472Y-87353220D01*
X83496780Y-87448528D01*
X83616874Y-87509719D01*
X83626663Y-87511269D01*
X83626665Y-87511270D01*
X83740207Y-87529253D01*
X83750000Y-87530804D01*
X83759793Y-87529253D01*
X83873335Y-87511270D01*
X83873337Y-87511269D01*
X83883126Y-87509719D01*
X84003220Y-87448528D01*
X84098528Y-87353220D01*
X84159719Y-87233126D01*
X84171265Y-87160231D01*
X84179253Y-87109793D01*
X84180804Y-87100000D01*
X84174847Y-87062386D01*
X84161270Y-86976665D01*
X84161269Y-86976663D01*
X84159719Y-86966874D01*
X84098528Y-86846780D01*
X84003220Y-86751472D01*
X83883126Y-86690281D01*
X83873337Y-86688731D01*
X83873335Y-86688730D01*
X83759793Y-86670747D01*
X83750000Y-86669196D01*
X83740207Y-86670747D01*
X83626665Y-86688730D01*
X83626663Y-86688731D01*
X83616874Y-86690281D01*
X83496780Y-86751472D01*
X83401472Y-86846780D01*
X83340281Y-86966874D01*
X83338731Y-86976663D01*
X83338730Y-86976665D01*
X83325153Y-87062386D01*
X83319196Y-87100000D01*
X53872885Y-87100000D01*
X53879253Y-87059793D01*
X53880804Y-87050000D01*
X53866239Y-86958041D01*
X53861270Y-86926665D01*
X53861269Y-86926663D01*
X53859719Y-86916874D01*
X53798528Y-86796780D01*
X53703220Y-86701472D01*
X53583126Y-86640281D01*
X53573337Y-86638731D01*
X53573335Y-86638730D01*
X53459793Y-86620747D01*
X53450000Y-86619196D01*
X53440207Y-86620747D01*
X53326665Y-86638730D01*
X53326663Y-86638731D01*
X53316874Y-86640281D01*
X53196780Y-86701472D01*
X53101472Y-86796780D01*
X53040281Y-86916874D01*
X53038731Y-86926663D01*
X53038730Y-86926665D01*
X53033761Y-86958041D01*
X53019196Y-87050000D01*
X53020747Y-87059793D01*
X53034146Y-87144388D01*
X53040281Y-87183126D01*
X53101472Y-87303220D01*
X53108483Y-87310231D01*
X53114311Y-87318252D01*
X53113105Y-87319128D01*
X53141988Y-87372022D01*
X53136923Y-87442837D01*
X53094376Y-87499673D01*
X53076069Y-87511072D01*
X53005615Y-87546970D01*
X53005613Y-87546971D01*
X52996780Y-87551472D01*
X52901472Y-87646780D01*
X52840281Y-87766874D01*
X52819196Y-87900000D01*
X40400000Y-87900000D01*
X40400000Y-84892611D01*
X70194394Y-84892611D01*
X70212999Y-85061135D01*
X70271266Y-85220356D01*
X70275502Y-85226659D01*
X70275502Y-85226660D01*
X70288574Y-85246113D01*
X70365830Y-85361083D01*
X70371442Y-85366190D01*
X70371445Y-85366193D01*
X70485612Y-85470077D01*
X70485616Y-85470080D01*
X70491233Y-85475191D01*
X70497906Y-85478814D01*
X70497910Y-85478817D01*
X70633558Y-85552467D01*
X70633560Y-85552468D01*
X70640235Y-85556092D01*
X70647584Y-85558020D01*
X70796883Y-85597188D01*
X70796885Y-85597188D01*
X70804233Y-85599116D01*
X70890609Y-85600473D01*
X70966161Y-85601660D01*
X70966164Y-85601660D01*
X70973760Y-85601779D01*
X70981165Y-85600083D01*
X70981166Y-85600083D01*
X71097112Y-85573528D01*
X71139029Y-85563928D01*
X71290498Y-85487747D01*
X71419423Y-85377634D01*
X71421540Y-85380113D01*
X71469809Y-85351114D01*
X71540774Y-85353260D01*
X71586435Y-85379833D01*
X71691233Y-85475191D01*
X71697906Y-85478814D01*
X71697910Y-85478817D01*
X71833558Y-85552467D01*
X71833560Y-85552468D01*
X71840235Y-85556092D01*
X71847584Y-85558020D01*
X71996883Y-85597188D01*
X71996885Y-85597188D01*
X72004233Y-85599116D01*
X72090609Y-85600473D01*
X72166161Y-85601660D01*
X72166164Y-85601660D01*
X72173760Y-85601779D01*
X72181165Y-85600083D01*
X72181166Y-85600083D01*
X72297112Y-85573528D01*
X72339029Y-85563928D01*
X72490498Y-85487747D01*
X72619423Y-85377634D01*
X72621540Y-85380113D01*
X72669809Y-85351114D01*
X72740774Y-85353260D01*
X72786435Y-85379833D01*
X72891233Y-85475191D01*
X72897906Y-85478814D01*
X72897910Y-85478817D01*
X73033558Y-85552467D01*
X73033560Y-85552468D01*
X73040235Y-85556092D01*
X73047584Y-85558020D01*
X73196883Y-85597188D01*
X73196885Y-85597188D01*
X73204233Y-85599116D01*
X73290609Y-85600473D01*
X73366161Y-85601660D01*
X73366164Y-85601660D01*
X73373760Y-85601779D01*
X73381165Y-85600083D01*
X73381166Y-85600083D01*
X73497112Y-85573528D01*
X73539029Y-85563928D01*
X73690498Y-85487747D01*
X73819423Y-85377634D01*
X73918361Y-85239947D01*
X73928307Y-85215207D01*
X73978766Y-85089687D01*
X73978767Y-85089685D01*
X73981601Y-85082634D01*
X74000687Y-84948528D01*
X74004909Y-84918862D01*
X74004909Y-84918859D01*
X74005490Y-84914778D01*
X74005645Y-84900000D01*
X74003840Y-84885080D01*
X73996178Y-84821769D01*
X73985276Y-84731680D01*
X73935518Y-84600000D01*
X93469196Y-84600000D01*
X93470747Y-84609793D01*
X93487796Y-84717434D01*
X93490281Y-84733126D01*
X93551472Y-84853220D01*
X93609157Y-84910905D01*
X93643183Y-84973217D01*
X93638118Y-85044032D01*
X93609157Y-85089095D01*
X93551472Y-85146780D01*
X93490281Y-85266874D01*
X93469196Y-85400000D01*
X93470747Y-85409793D01*
X93480296Y-85470080D01*
X93490281Y-85533126D01*
X93551472Y-85653220D01*
X93646780Y-85748528D01*
X93650666Y-85750508D01*
X93692135Y-85804288D01*
X93698210Y-85875024D01*
X93665077Y-85937815D01*
X93652936Y-85948335D01*
X93646780Y-85951472D01*
X93551472Y-86046780D01*
X93490281Y-86166874D01*
X93469196Y-86300000D01*
X93490281Y-86433126D01*
X93551472Y-86553220D01*
X93646780Y-86648528D01*
X93650666Y-86650508D01*
X93692135Y-86704288D01*
X93698210Y-86775024D01*
X93665077Y-86837815D01*
X93652936Y-86848335D01*
X93646780Y-86851472D01*
X93551472Y-86946780D01*
X93490281Y-87066874D01*
X93469196Y-87200000D01*
X93470747Y-87209793D01*
X93486574Y-87309719D01*
X93490281Y-87333126D01*
X93551472Y-87453220D01*
X93646780Y-87548528D01*
X93766874Y-87609719D01*
X93776663Y-87611269D01*
X93776665Y-87611270D01*
X93890207Y-87629253D01*
X93900000Y-87630804D01*
X93909793Y-87629253D01*
X94023335Y-87611270D01*
X94023337Y-87611269D01*
X94033126Y-87609719D01*
X94153220Y-87548528D01*
X94248528Y-87453220D01*
X94309719Y-87333126D01*
X94313427Y-87309719D01*
X94329253Y-87209793D01*
X94330804Y-87200000D01*
X94309719Y-87066874D01*
X94248528Y-86946780D01*
X94153220Y-86851472D01*
X94149334Y-86849492D01*
X94107865Y-86795712D01*
X94101790Y-86724976D01*
X94134923Y-86662185D01*
X94147064Y-86651665D01*
X94153220Y-86648528D01*
X94248528Y-86553220D01*
X94309719Y-86433126D01*
X94330804Y-86300000D01*
X94309719Y-86166874D01*
X94248528Y-86046780D01*
X94153220Y-85951472D01*
X94149334Y-85949492D01*
X94107865Y-85895712D01*
X94101790Y-85824976D01*
X94134923Y-85762185D01*
X94147064Y-85751665D01*
X94153220Y-85748528D01*
X94248528Y-85653220D01*
X94250169Y-85650000D01*
X101369196Y-85650000D01*
X101390281Y-85783126D01*
X101451472Y-85903220D01*
X101546780Y-85998528D01*
X101549782Y-86000058D01*
X101590914Y-86053398D01*
X101599500Y-86099113D01*
X101599500Y-86519748D01*
X101600707Y-86525816D01*
X101607553Y-86560231D01*
X101611133Y-86578231D01*
X101655448Y-86644552D01*
X101721769Y-86688867D01*
X101733938Y-86691288D01*
X101733939Y-86691288D01*
X101774184Y-86699293D01*
X101780252Y-86700500D01*
X103819748Y-86700500D01*
X103825816Y-86699293D01*
X103866061Y-86691288D01*
X103866062Y-86691288D01*
X103878231Y-86688867D01*
X103944552Y-86644552D01*
X103988867Y-86578231D01*
X103992448Y-86560231D01*
X103999293Y-86525816D01*
X104000500Y-86519748D01*
X104000500Y-85863548D01*
X106700000Y-85863548D01*
X106700000Y-86543915D01*
X106700369Y-86550729D01*
X106705789Y-86600621D01*
X106709414Y-86615867D01*
X106753767Y-86734177D01*
X106762299Y-86749763D01*
X106837430Y-86850009D01*
X106849991Y-86862570D01*
X106950237Y-86937701D01*
X106965823Y-86946233D01*
X107084133Y-86990586D01*
X107099379Y-86994211D01*
X107149271Y-86999631D01*
X107156085Y-87000000D01*
X108031885Y-87000000D01*
X108047124Y-86995525D01*
X108048329Y-86994135D01*
X108050000Y-86986452D01*
X108050000Y-85868115D01*
X108048659Y-85863548D01*
X108350000Y-85863548D01*
X108350000Y-86981885D01*
X108354475Y-86997124D01*
X108355865Y-86998329D01*
X108363548Y-87000000D01*
X109243915Y-87000000D01*
X109250729Y-86999631D01*
X109300621Y-86994211D01*
X109315867Y-86990586D01*
X109434177Y-86946233D01*
X109449763Y-86937701D01*
X109550009Y-86862570D01*
X109562570Y-86850009D01*
X109637701Y-86749763D01*
X109646233Y-86734177D01*
X109690586Y-86615867D01*
X109694211Y-86600621D01*
X109699631Y-86550729D01*
X109700000Y-86543915D01*
X109700000Y-86300000D01*
X129894930Y-86300000D01*
X129916015Y-86433126D01*
X129977206Y-86553220D01*
X130072514Y-86648528D01*
X130192608Y-86709719D01*
X130202400Y-86711270D01*
X130211833Y-86714335D01*
X130210990Y-86716930D01*
X130261523Y-86740881D01*
X130299054Y-86801146D01*
X130302115Y-86854633D01*
X130294930Y-86900000D01*
X130296481Y-86909793D01*
X130310060Y-86995525D01*
X130316015Y-87033126D01*
X130377206Y-87153220D01*
X130472514Y-87248528D01*
X130592608Y-87309719D01*
X130602397Y-87311269D01*
X130602399Y-87311270D01*
X130715941Y-87329253D01*
X130725734Y-87330804D01*
X130735527Y-87329253D01*
X130849069Y-87311270D01*
X130849071Y-87311269D01*
X130858860Y-87309719D01*
X130978954Y-87248528D01*
X131036639Y-87190843D01*
X131098951Y-87156817D01*
X131169766Y-87161882D01*
X131214829Y-87190843D01*
X131272514Y-87248528D01*
X131392608Y-87309719D01*
X131402397Y-87311269D01*
X131402399Y-87311270D01*
X131515941Y-87329253D01*
X131525734Y-87330804D01*
X131535527Y-87329253D01*
X131649069Y-87311270D01*
X131649071Y-87311269D01*
X131658860Y-87309719D01*
X131778954Y-87248528D01*
X131874262Y-87153220D01*
X131935453Y-87033126D01*
X131941409Y-86995525D01*
X131954987Y-86909793D01*
X131956538Y-86900000D01*
X131948109Y-86846780D01*
X131937004Y-86776665D01*
X131937003Y-86776663D01*
X131935453Y-86766874D01*
X131874262Y-86646780D01*
X131778954Y-86551472D01*
X131658860Y-86490281D01*
X131649068Y-86488730D01*
X131639635Y-86485665D01*
X131640478Y-86483070D01*
X131589945Y-86459119D01*
X131552414Y-86398854D01*
X131549353Y-86345367D01*
X131554987Y-86309794D01*
X131554987Y-86309793D01*
X131556538Y-86300000D01*
X131535453Y-86166874D01*
X131474262Y-86046780D01*
X131378954Y-85951472D01*
X131258860Y-85890281D01*
X131249071Y-85888731D01*
X131249069Y-85888730D01*
X131135527Y-85870747D01*
X131125734Y-85869196D01*
X131115941Y-85870747D01*
X131002399Y-85888730D01*
X131002397Y-85888731D01*
X130992608Y-85890281D01*
X130872514Y-85951472D01*
X130814829Y-86009157D01*
X130752517Y-86043183D01*
X130681702Y-86038118D01*
X130636639Y-86009157D01*
X130578954Y-85951472D01*
X130458860Y-85890281D01*
X130449071Y-85888731D01*
X130449069Y-85888730D01*
X130335527Y-85870747D01*
X130325734Y-85869196D01*
X130315941Y-85870747D01*
X130202399Y-85888730D01*
X130202397Y-85888731D01*
X130192608Y-85890281D01*
X130072514Y-85951472D01*
X129977206Y-86046780D01*
X129916015Y-86166874D01*
X129894930Y-86300000D01*
X109700000Y-86300000D01*
X109700000Y-85868115D01*
X109695525Y-85852876D01*
X109694135Y-85851671D01*
X109686452Y-85850000D01*
X108368115Y-85850000D01*
X108352876Y-85854475D01*
X108351671Y-85855865D01*
X108350000Y-85863548D01*
X108048659Y-85863548D01*
X108045525Y-85852876D01*
X108044135Y-85851671D01*
X108036452Y-85850000D01*
X106718115Y-85850000D01*
X106702876Y-85854475D01*
X106701671Y-85855865D01*
X106700000Y-85863548D01*
X104000500Y-85863548D01*
X104000500Y-84880252D01*
X103995693Y-84856085D01*
X106700000Y-84856085D01*
X106700000Y-85531885D01*
X106704475Y-85547124D01*
X106705865Y-85548329D01*
X106713548Y-85550000D01*
X108031885Y-85550000D01*
X108047124Y-85545525D01*
X108048329Y-85544135D01*
X108050000Y-85536452D01*
X108050000Y-84418115D01*
X108048659Y-84413548D01*
X108350000Y-84413548D01*
X108350000Y-85531885D01*
X108354475Y-85547124D01*
X108355865Y-85548329D01*
X108363548Y-85550000D01*
X109681885Y-85550000D01*
X109697124Y-85545525D01*
X109698329Y-85544135D01*
X109700000Y-85536452D01*
X109700000Y-85225000D01*
X120844196Y-85225000D01*
X120865281Y-85358126D01*
X120926472Y-85478220D01*
X121021780Y-85573528D01*
X121141874Y-85634719D01*
X121151663Y-85636269D01*
X121151665Y-85636270D01*
X121265207Y-85654253D01*
X121275000Y-85655804D01*
X121284793Y-85654253D01*
X121398335Y-85636270D01*
X121398337Y-85636269D01*
X121408126Y-85634719D01*
X121528220Y-85573528D01*
X121560905Y-85540843D01*
X121623217Y-85506817D01*
X121694032Y-85511882D01*
X121739095Y-85540843D01*
X121771780Y-85573528D01*
X121891874Y-85634719D01*
X121901663Y-85636269D01*
X121901665Y-85636270D01*
X122015207Y-85654253D01*
X122025000Y-85655804D01*
X122034793Y-85654253D01*
X122148335Y-85636270D01*
X122148337Y-85636269D01*
X122158126Y-85634719D01*
X122278220Y-85573528D01*
X122373528Y-85478220D01*
X122434719Y-85358126D01*
X122455804Y-85225000D01*
X122434719Y-85091874D01*
X122373528Y-84971780D01*
X122278220Y-84876472D01*
X122158126Y-84815281D01*
X122148337Y-84813731D01*
X122148335Y-84813730D01*
X122034793Y-84795747D01*
X122025000Y-84794196D01*
X122015207Y-84795747D01*
X121901665Y-84813730D01*
X121901663Y-84813731D01*
X121891874Y-84815281D01*
X121771780Y-84876472D01*
X121739095Y-84909157D01*
X121676783Y-84943183D01*
X121605968Y-84938118D01*
X121560905Y-84909157D01*
X121528220Y-84876472D01*
X121408126Y-84815281D01*
X121398337Y-84813731D01*
X121398335Y-84813730D01*
X121284793Y-84795747D01*
X121275000Y-84794196D01*
X121265207Y-84795747D01*
X121151665Y-84813730D01*
X121151663Y-84813731D01*
X121141874Y-84815281D01*
X121021780Y-84876472D01*
X120926472Y-84971780D01*
X120865281Y-85091874D01*
X120844196Y-85225000D01*
X109700000Y-85225000D01*
X109700000Y-84856085D01*
X109699631Y-84849271D01*
X109694211Y-84799379D01*
X109690586Y-84784133D01*
X109646233Y-84665823D01*
X109637701Y-84650237D01*
X109562570Y-84549991D01*
X109550009Y-84537430D01*
X109449763Y-84462299D01*
X109434177Y-84453767D01*
X109315867Y-84409414D01*
X109300621Y-84405789D01*
X109250729Y-84400369D01*
X109243915Y-84400000D01*
X108368115Y-84400000D01*
X108352876Y-84404475D01*
X108351671Y-84405865D01*
X108350000Y-84413548D01*
X108048659Y-84413548D01*
X108045525Y-84402876D01*
X108044135Y-84401671D01*
X108036452Y-84400000D01*
X107156085Y-84400000D01*
X107149271Y-84400369D01*
X107099379Y-84405789D01*
X107084133Y-84409414D01*
X106965823Y-84453767D01*
X106950237Y-84462299D01*
X106849991Y-84537430D01*
X106837430Y-84549991D01*
X106762299Y-84650237D01*
X106753767Y-84665823D01*
X106709414Y-84784133D01*
X106705789Y-84799379D01*
X106700369Y-84849271D01*
X106700000Y-84856085D01*
X103995693Y-84856085D01*
X103995123Y-84853220D01*
X103991288Y-84833939D01*
X103991288Y-84833938D01*
X103988867Y-84821769D01*
X103944552Y-84755448D01*
X103878231Y-84711133D01*
X103866062Y-84708712D01*
X103866061Y-84708712D01*
X103825816Y-84700707D01*
X103819748Y-84699500D01*
X101780252Y-84699500D01*
X101774184Y-84700707D01*
X101733939Y-84708712D01*
X101733938Y-84708712D01*
X101721769Y-84711133D01*
X101655448Y-84755448D01*
X101611133Y-84821769D01*
X101608712Y-84833938D01*
X101608712Y-84833939D01*
X101604877Y-84853220D01*
X101599500Y-84880252D01*
X101599500Y-85200887D01*
X101579498Y-85269008D01*
X101550745Y-85299452D01*
X101546780Y-85301472D01*
X101451472Y-85396780D01*
X101390281Y-85516874D01*
X101388731Y-85526663D01*
X101388730Y-85526665D01*
X101377255Y-85599116D01*
X101369196Y-85650000D01*
X94250169Y-85650000D01*
X94309719Y-85533126D01*
X94319705Y-85470080D01*
X94329253Y-85409793D01*
X94330804Y-85400000D01*
X94309719Y-85266874D01*
X94248528Y-85146780D01*
X94190843Y-85089095D01*
X94156817Y-85026783D01*
X94161882Y-84955968D01*
X94190843Y-84910905D01*
X94248528Y-84853220D01*
X94309719Y-84733126D01*
X94312205Y-84717434D01*
X94329253Y-84609793D01*
X94330804Y-84600000D01*
X94324521Y-84560330D01*
X94311270Y-84476665D01*
X94311269Y-84476663D01*
X94309719Y-84466874D01*
X94248528Y-84346780D01*
X94153220Y-84251472D01*
X94033126Y-84190281D01*
X94023337Y-84188731D01*
X94023335Y-84188730D01*
X93909793Y-84170747D01*
X93900000Y-84169196D01*
X93890207Y-84170747D01*
X93776665Y-84188730D01*
X93776663Y-84188731D01*
X93766874Y-84190281D01*
X93646780Y-84251472D01*
X93551472Y-84346780D01*
X93490281Y-84466874D01*
X93488731Y-84476663D01*
X93488730Y-84476665D01*
X93475479Y-84560330D01*
X93469196Y-84600000D01*
X73935518Y-84600000D01*
X73925345Y-84573077D01*
X73860861Y-84479253D01*
X73833614Y-84439608D01*
X73833613Y-84439607D01*
X73829312Y-84433349D01*
X73798465Y-84405865D01*
X73708392Y-84325612D01*
X73708388Y-84325610D01*
X73702721Y-84320560D01*
X73669972Y-84303220D01*
X73635080Y-84284746D01*
X73552881Y-84241224D01*
X73388441Y-84199919D01*
X73380843Y-84199879D01*
X73380841Y-84199879D01*
X73303668Y-84199475D01*
X73218895Y-84199031D01*
X73211508Y-84200805D01*
X73211504Y-84200805D01*
X73068162Y-84235220D01*
X73054032Y-84238612D01*
X73047288Y-84242093D01*
X73047285Y-84242094D01*
X72981594Y-84276000D01*
X72903369Y-84316375D01*
X72897647Y-84321367D01*
X72897645Y-84321368D01*
X72782265Y-84422020D01*
X72717783Y-84451728D01*
X72647475Y-84441858D01*
X72615617Y-84421147D01*
X72542062Y-84355612D01*
X72502721Y-84320560D01*
X72469972Y-84303220D01*
X72435080Y-84284746D01*
X72352881Y-84241224D01*
X72188441Y-84199919D01*
X72180843Y-84199879D01*
X72180841Y-84199879D01*
X72103668Y-84199475D01*
X72018895Y-84199031D01*
X72011508Y-84200805D01*
X72011504Y-84200805D01*
X71868162Y-84235220D01*
X71854032Y-84238612D01*
X71847288Y-84242093D01*
X71847285Y-84242094D01*
X71781594Y-84276000D01*
X71703369Y-84316375D01*
X71697647Y-84321367D01*
X71697645Y-84321368D01*
X71582265Y-84422020D01*
X71517783Y-84451728D01*
X71447475Y-84441858D01*
X71415617Y-84421147D01*
X71342062Y-84355612D01*
X71302721Y-84320560D01*
X71269972Y-84303220D01*
X71235080Y-84284746D01*
X71152881Y-84241224D01*
X70988441Y-84199919D01*
X70980843Y-84199879D01*
X70980841Y-84199879D01*
X70903668Y-84199475D01*
X70818895Y-84199031D01*
X70811508Y-84200805D01*
X70811504Y-84200805D01*
X70668162Y-84235220D01*
X70654032Y-84238612D01*
X70647288Y-84242093D01*
X70647285Y-84242094D01*
X70581594Y-84276000D01*
X70503369Y-84316375D01*
X70497647Y-84321367D01*
X70497645Y-84321368D01*
X70426069Y-84383808D01*
X70375604Y-84427831D01*
X70371237Y-84434045D01*
X70289749Y-84549991D01*
X70278113Y-84566547D01*
X70216524Y-84724513D01*
X70215532Y-84732046D01*
X70215532Y-84732047D01*
X70195596Y-84883483D01*
X70194394Y-84892611D01*
X40400000Y-84892611D01*
X40400000Y-84276000D01*
X40420002Y-84207879D01*
X40473658Y-84161386D01*
X40526000Y-84150000D01*
X53600000Y-84150000D01*
X53600000Y-84050000D01*
X64669196Y-84050000D01*
X64670747Y-84059793D01*
X64688075Y-84169196D01*
X64690281Y-84183126D01*
X64751472Y-84303220D01*
X64846780Y-84398528D01*
X64966874Y-84459719D01*
X64976663Y-84461269D01*
X64976665Y-84461270D01*
X65090207Y-84479253D01*
X65100000Y-84480804D01*
X65109793Y-84479253D01*
X65223335Y-84461270D01*
X65223337Y-84461269D01*
X65233126Y-84459719D01*
X65353220Y-84398528D01*
X65448528Y-84303220D01*
X65509719Y-84183126D01*
X65511926Y-84169196D01*
X65529253Y-84059793D01*
X65530804Y-84050000D01*
X65509719Y-83916874D01*
X65448528Y-83796780D01*
X65353220Y-83701472D01*
X65233126Y-83640281D01*
X65223337Y-83638731D01*
X65223335Y-83638730D01*
X65109793Y-83620747D01*
X65100000Y-83619196D01*
X65090207Y-83620747D01*
X64976665Y-83638730D01*
X64976663Y-83638731D01*
X64966874Y-83640281D01*
X64846780Y-83701472D01*
X64751472Y-83796780D01*
X64690281Y-83916874D01*
X64669196Y-84050000D01*
X53600000Y-84050000D01*
X53600000Y-82000000D01*
X54269196Y-82000000D01*
X54290281Y-82133126D01*
X54351472Y-82253220D01*
X54446780Y-82348528D01*
X54566874Y-82409719D01*
X54576663Y-82411269D01*
X54576665Y-82411270D01*
X54690207Y-82429253D01*
X54700000Y-82430804D01*
X54709793Y-82429253D01*
X54823335Y-82411270D01*
X54823337Y-82411269D01*
X54833126Y-82409719D01*
X54953220Y-82348528D01*
X55048528Y-82253220D01*
X55109719Y-82133126D01*
X55130804Y-82000000D01*
X55122885Y-81950000D01*
X55111270Y-81876665D01*
X55111269Y-81876663D01*
X55109719Y-81866874D01*
X55048528Y-81746780D01*
X54953220Y-81651472D01*
X54833126Y-81590281D01*
X54823337Y-81588731D01*
X54823335Y-81588730D01*
X54709793Y-81570747D01*
X54700000Y-81569196D01*
X54690207Y-81570747D01*
X54576665Y-81588730D01*
X54576663Y-81588731D01*
X54566874Y-81590281D01*
X54446780Y-81651472D01*
X54351472Y-81746780D01*
X54290281Y-81866874D01*
X54288731Y-81876663D01*
X54288730Y-81876665D01*
X54277115Y-81950000D01*
X54269196Y-82000000D01*
X53600000Y-82000000D01*
X53600000Y-80900000D01*
X51126000Y-80900000D01*
X51057879Y-80879998D01*
X51011386Y-80826342D01*
X51000000Y-80774000D01*
X51000000Y-80000000D01*
X54269196Y-80000000D01*
X54270747Y-80009793D01*
X54288592Y-80122459D01*
X54290281Y-80133126D01*
X54351472Y-80253220D01*
X54446780Y-80348528D01*
X54566874Y-80409719D01*
X54576663Y-80411269D01*
X54576665Y-80411270D01*
X54690207Y-80429253D01*
X54700000Y-80430804D01*
X54709793Y-80429253D01*
X54823335Y-80411270D01*
X54823337Y-80411269D01*
X54833126Y-80409719D01*
X54953220Y-80348528D01*
X55048528Y-80253220D01*
X55109719Y-80133126D01*
X55111409Y-80122459D01*
X55129253Y-80009793D01*
X55130804Y-80000000D01*
X55127716Y-79980500D01*
X55111270Y-79876665D01*
X55111269Y-79876663D01*
X55109719Y-79866874D01*
X55048528Y-79746780D01*
X54953220Y-79651472D01*
X54833126Y-79590281D01*
X54823337Y-79588731D01*
X54823335Y-79588730D01*
X54709793Y-79570747D01*
X54700000Y-79569196D01*
X54690207Y-79570747D01*
X54576665Y-79588730D01*
X54576663Y-79588731D01*
X54566874Y-79590281D01*
X54446780Y-79651472D01*
X54351472Y-79746780D01*
X54290281Y-79866874D01*
X54288731Y-79876663D01*
X54288730Y-79876665D01*
X54272284Y-79980500D01*
X54269196Y-80000000D01*
X51000000Y-80000000D01*
X51000000Y-74950000D01*
X48926000Y-74950000D01*
X48857879Y-74929998D01*
X48811386Y-74876342D01*
X48800000Y-74824000D01*
X48800000Y-73250000D01*
X60119196Y-73250000D01*
X60120747Y-73259793D01*
X60138168Y-73369782D01*
X60140281Y-73383126D01*
X60201472Y-73503220D01*
X60296780Y-73598528D01*
X60416874Y-73659719D01*
X60426663Y-73661269D01*
X60426665Y-73661270D01*
X60540207Y-73679253D01*
X60550000Y-73680804D01*
X60559793Y-73679253D01*
X60673335Y-73661270D01*
X60673337Y-73661269D01*
X60683126Y-73659719D01*
X60766798Y-73617086D01*
X60836573Y-73603982D01*
X60902358Y-73630682D01*
X60943265Y-73688709D01*
X60950000Y-73729353D01*
X60950000Y-78473358D01*
X60929998Y-78541479D01*
X60876342Y-78587972D01*
X60872838Y-78589336D01*
X60866874Y-78590281D01*
X60746780Y-78651472D01*
X60651472Y-78746780D01*
X60590281Y-78866874D01*
X60588731Y-78876663D01*
X60588730Y-78876665D01*
X60578259Y-78942778D01*
X60569196Y-79000000D01*
X60570747Y-79009793D01*
X60586998Y-79112395D01*
X60590281Y-79133126D01*
X60651472Y-79253220D01*
X60746780Y-79348528D01*
X60778494Y-79364687D01*
X60853619Y-79402965D01*
X60866874Y-79409719D01*
X60867290Y-79409785D01*
X60921543Y-79446884D01*
X60949179Y-79512281D01*
X60950000Y-79526642D01*
X60950000Y-83100000D01*
X79200000Y-83100000D01*
X79200000Y-80643823D01*
X85820125Y-80643823D01*
X85821289Y-80652725D01*
X85821289Y-80652728D01*
X85822445Y-80661564D01*
X85838714Y-80785979D01*
X85896454Y-80917203D01*
X85902231Y-80924076D01*
X85902232Y-80924077D01*
X85966052Y-81000000D01*
X85988704Y-81026948D01*
X86108047Y-81106390D01*
X86244891Y-81149142D01*
X86253863Y-81149306D01*
X86253866Y-81149307D01*
X86319197Y-81150504D01*
X86388233Y-81151770D01*
X86397267Y-81149307D01*
X86517892Y-81116421D01*
X86517894Y-81116420D01*
X86526551Y-81114060D01*
X86648725Y-81039045D01*
X86684067Y-81000000D01*
X86727742Y-80951748D01*
X86744934Y-80932754D01*
X86807444Y-80803733D01*
X86831230Y-80662354D01*
X86831381Y-80650000D01*
X86823716Y-80596472D01*
X120021749Y-80596472D01*
X120025133Y-80630982D01*
X120025734Y-80643277D01*
X120025734Y-81694548D01*
X120024741Y-81710340D01*
X120021945Y-81732476D01*
X120021749Y-81746472D01*
X120025133Y-81780982D01*
X120025734Y-81793277D01*
X120025734Y-82043915D01*
X120026103Y-82050729D01*
X120031523Y-82100621D01*
X120035148Y-82115867D01*
X120079501Y-82234177D01*
X120088033Y-82249763D01*
X120163164Y-82350009D01*
X120175725Y-82362570D01*
X120275971Y-82437701D01*
X120291557Y-82446233D01*
X120409867Y-82490586D01*
X120425113Y-82494211D01*
X120475005Y-82499631D01*
X120481819Y-82500000D01*
X120717234Y-82500000D01*
X120733898Y-82501107D01*
X120752948Y-82503649D01*
X120766938Y-82503942D01*
X120804565Y-82500518D01*
X120815984Y-82500000D01*
X121917234Y-82500000D01*
X121933898Y-82501107D01*
X121952948Y-82503649D01*
X121966938Y-82503942D01*
X122004565Y-82500518D01*
X122015984Y-82500000D01*
X122357619Y-82500000D01*
X122372858Y-82495525D01*
X122374063Y-82494135D01*
X122375734Y-82486452D01*
X122375734Y-82380247D01*
X122368204Y-82354602D01*
X122361384Y-82347782D01*
X122675734Y-82347782D01*
X122675734Y-82481885D01*
X122680209Y-82497124D01*
X122681599Y-82498329D01*
X122689282Y-82500000D01*
X122992234Y-82500000D01*
X123008898Y-82501107D01*
X123027948Y-82503649D01*
X123041938Y-82503942D01*
X123079565Y-82500518D01*
X123090984Y-82500000D01*
X124217234Y-82500000D01*
X124233898Y-82501107D01*
X124252948Y-82503649D01*
X124266938Y-82503942D01*
X124304565Y-82500518D01*
X124315984Y-82500000D01*
X124569649Y-82500000D01*
X124576463Y-82499631D01*
X124626355Y-82494211D01*
X124641601Y-82490586D01*
X124759911Y-82446233D01*
X124775497Y-82437701D01*
X124875743Y-82362570D01*
X124888304Y-82350009D01*
X124963435Y-82249763D01*
X124971967Y-82234177D01*
X125016320Y-82115867D01*
X125019945Y-82100621D01*
X125025365Y-82050729D01*
X125025734Y-82043915D01*
X125025734Y-81811564D01*
X125026960Y-81794028D01*
X125029635Y-81774996D01*
X125030241Y-81767114D01*
X125030425Y-81753963D01*
X125030038Y-81746062D01*
X125026519Y-81714687D01*
X125025734Y-81700642D01*
X125025734Y-80700000D01*
X130494930Y-80700000D01*
X130496481Y-80709793D01*
X130512640Y-80811814D01*
X130516015Y-80833126D01*
X130577206Y-80953220D01*
X130672514Y-81048528D01*
X130792608Y-81109719D01*
X130802397Y-81111269D01*
X130802399Y-81111270D01*
X130915941Y-81129253D01*
X130925734Y-81130804D01*
X130935527Y-81129253D01*
X131049069Y-81111270D01*
X131049071Y-81111269D01*
X131058860Y-81109719D01*
X131178954Y-81048528D01*
X131274262Y-80953220D01*
X131335453Y-80833126D01*
X131338829Y-80811814D01*
X131354987Y-80709793D01*
X131356538Y-80700000D01*
X131351335Y-80667149D01*
X131337004Y-80576665D01*
X131337003Y-80576663D01*
X131335453Y-80566874D01*
X131274262Y-80446780D01*
X131178954Y-80351472D01*
X131058860Y-80290281D01*
X131049071Y-80288731D01*
X131049069Y-80288730D01*
X130935527Y-80270747D01*
X130925734Y-80269196D01*
X130915941Y-80270747D01*
X130802399Y-80288730D01*
X130802397Y-80288731D01*
X130792608Y-80290281D01*
X130672514Y-80351472D01*
X130577206Y-80446780D01*
X130516015Y-80566874D01*
X130514465Y-80576663D01*
X130514464Y-80576665D01*
X130500133Y-80667149D01*
X130494930Y-80700000D01*
X125025734Y-80700000D01*
X125025734Y-80661564D01*
X125026960Y-80644028D01*
X125029635Y-80624996D01*
X125030241Y-80617114D01*
X125030425Y-80603963D01*
X125030038Y-80596062D01*
X125026519Y-80564687D01*
X125025734Y-80550642D01*
X125025734Y-80168115D01*
X125021259Y-80152876D01*
X125019869Y-80151671D01*
X125012186Y-80150000D01*
X124955981Y-80150000D01*
X124930336Y-80157530D01*
X124364829Y-80723037D01*
X124302517Y-80757063D01*
X124231702Y-80751998D01*
X124186639Y-80723037D01*
X123676046Y-80212444D01*
X123662102Y-80204830D01*
X123660269Y-80204961D01*
X123653654Y-80209212D01*
X122700678Y-81162188D01*
X122693064Y-81176132D01*
X122693195Y-81177965D01*
X122697446Y-81184580D01*
X123173771Y-81660905D01*
X123207797Y-81723217D01*
X123202732Y-81794032D01*
X123173771Y-81839095D01*
X122688546Y-82324320D01*
X122675734Y-82347782D01*
X122361384Y-82347782D01*
X121852697Y-81839095D01*
X121818671Y-81776783D01*
X121820506Y-81751132D01*
X122193064Y-81751132D01*
X122193195Y-81752965D01*
X122197446Y-81759580D01*
X122362922Y-81925056D01*
X122373011Y-81930565D01*
X122375734Y-81923264D01*
X122375734Y-81601736D01*
X122675734Y-81601736D01*
X122675734Y-81894753D01*
X122678971Y-81905778D01*
X122686062Y-81902540D01*
X122825790Y-81762812D01*
X122833404Y-81748868D01*
X122833273Y-81747035D01*
X122829022Y-81740420D01*
X122688546Y-81599944D01*
X122678457Y-81594435D01*
X122675734Y-81601736D01*
X122375734Y-81601736D01*
X122375734Y-81580247D01*
X122372497Y-81569222D01*
X122365406Y-81572460D01*
X122200678Y-81737188D01*
X122193064Y-81751132D01*
X121820506Y-81751132D01*
X121823736Y-81705968D01*
X121852697Y-81660905D01*
X122325790Y-81187812D01*
X122333404Y-81173868D01*
X122333273Y-81172035D01*
X122329022Y-81165420D01*
X121764734Y-80601132D01*
X122193064Y-80601132D01*
X122193195Y-80602965D01*
X122197446Y-80609580D01*
X122362922Y-80775056D01*
X122373011Y-80780565D01*
X122375734Y-80773264D01*
X122375734Y-80451736D01*
X122675734Y-80451736D01*
X122675734Y-80744753D01*
X122678971Y-80755778D01*
X122686062Y-80752540D01*
X122825790Y-80612812D01*
X122833404Y-80598868D01*
X122833273Y-80597035D01*
X122829022Y-80590420D01*
X122688546Y-80449944D01*
X122678457Y-80444435D01*
X122675734Y-80451736D01*
X122375734Y-80451736D01*
X122375734Y-80430247D01*
X122372497Y-80419222D01*
X122365406Y-80422460D01*
X122200678Y-80587188D01*
X122193064Y-80601132D01*
X121764734Y-80601132D01*
X121388546Y-80224944D01*
X121374602Y-80217330D01*
X121372769Y-80217461D01*
X121366154Y-80221712D01*
X120864829Y-80723037D01*
X120802517Y-80757063D01*
X120731702Y-80751998D01*
X120686639Y-80723037D01*
X120126414Y-80162812D01*
X120108880Y-80153237D01*
X120544956Y-80153237D01*
X120548194Y-80160328D01*
X120762922Y-80375056D01*
X120776866Y-80382670D01*
X120778699Y-80382539D01*
X120785314Y-80378288D01*
X121000790Y-80162812D01*
X121006018Y-80153237D01*
X121744956Y-80153237D01*
X121748194Y-80160328D01*
X121962922Y-80375056D01*
X121976866Y-80382670D01*
X121978699Y-80382539D01*
X121985314Y-80378288D01*
X122200790Y-80162812D01*
X122206018Y-80153237D01*
X122819956Y-80153237D01*
X122823194Y-80160328D01*
X123037922Y-80375056D01*
X123051866Y-80382670D01*
X123053699Y-80382539D01*
X123060314Y-80378288D01*
X123275790Y-80162812D01*
X123281018Y-80153237D01*
X124044956Y-80153237D01*
X124048194Y-80160328D01*
X124262922Y-80375056D01*
X124276866Y-80382670D01*
X124278699Y-80382539D01*
X124285314Y-80378288D01*
X124500790Y-80162812D01*
X124506299Y-80152723D01*
X124498998Y-80150000D01*
X124055981Y-80150000D01*
X124044956Y-80153237D01*
X123281018Y-80153237D01*
X123281299Y-80152723D01*
X123273998Y-80150000D01*
X122830981Y-80150000D01*
X122819956Y-80153237D01*
X122206018Y-80153237D01*
X122206299Y-80152723D01*
X122198998Y-80150000D01*
X121755981Y-80150000D01*
X121744956Y-80153237D01*
X121006018Y-80153237D01*
X121006299Y-80152723D01*
X120998998Y-80150000D01*
X120555981Y-80150000D01*
X120544956Y-80153237D01*
X120108880Y-80153237D01*
X120102952Y-80150000D01*
X120043849Y-80150000D01*
X120028610Y-80154475D01*
X120027405Y-80155865D01*
X120025734Y-80163548D01*
X120025734Y-80544548D01*
X120024741Y-80560340D01*
X120021945Y-80582476D01*
X120021749Y-80596472D01*
X86823716Y-80596472D01*
X86819477Y-80566874D01*
X86812330Y-80516968D01*
X86812329Y-80516965D01*
X86811057Y-80508082D01*
X86751718Y-80377572D01*
X86709890Y-80329028D01*
X86663994Y-80275763D01*
X86663991Y-80275760D01*
X86658134Y-80268963D01*
X86537829Y-80190985D01*
X86400473Y-80149907D01*
X86391497Y-80149852D01*
X86391496Y-80149852D01*
X86331289Y-80149484D01*
X86257110Y-80149031D01*
X86119263Y-80188428D01*
X85998014Y-80264930D01*
X85903111Y-80372388D01*
X85842181Y-80502163D01*
X85839891Y-80516874D01*
X85824284Y-80617114D01*
X85820125Y-80643823D01*
X79200000Y-80643823D01*
X79200000Y-79980500D01*
X116244930Y-79980500D01*
X116246481Y-79990293D01*
X116249570Y-80009793D01*
X116266015Y-80113626D01*
X116327206Y-80233720D01*
X116422514Y-80329028D01*
X116542608Y-80390219D01*
X116552397Y-80391769D01*
X116552399Y-80391770D01*
X116665941Y-80409753D01*
X116675734Y-80411304D01*
X116685527Y-80409753D01*
X116799069Y-80391770D01*
X116799071Y-80391769D01*
X116808860Y-80390219D01*
X116928954Y-80329028D01*
X117024262Y-80233720D01*
X117085453Y-80113626D01*
X117101899Y-80009793D01*
X117104987Y-79990293D01*
X117106538Y-79980500D01*
X117090092Y-79876665D01*
X117087004Y-79857165D01*
X117087003Y-79857163D01*
X117085453Y-79847374D01*
X117024262Y-79727280D01*
X116928954Y-79631972D01*
X116808860Y-79570781D01*
X116799071Y-79569231D01*
X116799069Y-79569230D01*
X116685527Y-79551247D01*
X116675734Y-79549696D01*
X116665941Y-79551247D01*
X116552399Y-79569230D01*
X116552397Y-79569231D01*
X116542608Y-79570781D01*
X116422514Y-79631972D01*
X116327206Y-79727280D01*
X116266015Y-79847374D01*
X116264465Y-79857163D01*
X116264464Y-79857165D01*
X116261376Y-79876665D01*
X116244930Y-79980500D01*
X79200000Y-79980500D01*
X79200000Y-79225000D01*
X108794196Y-79225000D01*
X108795747Y-79234793D01*
X108798431Y-79251736D01*
X108815281Y-79358126D01*
X108876472Y-79478220D01*
X108971780Y-79573528D01*
X109091874Y-79634719D01*
X109101663Y-79636269D01*
X109101665Y-79636270D01*
X109215207Y-79654253D01*
X109225000Y-79655804D01*
X109234793Y-79654253D01*
X109348335Y-79636270D01*
X109348337Y-79636269D01*
X109358126Y-79634719D01*
X109478220Y-79573528D01*
X109573528Y-79478220D01*
X109634719Y-79358126D01*
X109651570Y-79251736D01*
X109654253Y-79234793D01*
X109655804Y-79225000D01*
X109648771Y-79180597D01*
X109636270Y-79101665D01*
X109636269Y-79101663D01*
X109634719Y-79091874D01*
X109573528Y-78971780D01*
X109478220Y-78876472D01*
X109358126Y-78815281D01*
X109348337Y-78813731D01*
X109348335Y-78813730D01*
X109234793Y-78795747D01*
X109225000Y-78794196D01*
X109215207Y-78795747D01*
X109101665Y-78813730D01*
X109101663Y-78813731D01*
X109091874Y-78815281D01*
X108971780Y-78876472D01*
X108876472Y-78971780D01*
X108815281Y-79091874D01*
X108813731Y-79101663D01*
X108813730Y-79101665D01*
X108801229Y-79180597D01*
X108794196Y-79225000D01*
X79200000Y-79225000D01*
X79200000Y-77931323D01*
X103019391Y-77931323D01*
X103020555Y-77940225D01*
X103020555Y-77940228D01*
X103021738Y-77949271D01*
X103037980Y-78073479D01*
X103095720Y-78204703D01*
X103101495Y-78211573D01*
X103103847Y-78215352D01*
X103122863Y-78283755D01*
X103103447Y-78347007D01*
X103103111Y-78347388D01*
X103042181Y-78477163D01*
X103037112Y-78509719D01*
X103024116Y-78593191D01*
X103020125Y-78618823D01*
X103021289Y-78627725D01*
X103021289Y-78627728D01*
X103024394Y-78651472D01*
X103038714Y-78760979D01*
X103042331Y-78769199D01*
X103077237Y-78848528D01*
X103096454Y-78892203D01*
X103102231Y-78899076D01*
X103102232Y-78899077D01*
X103147744Y-78953220D01*
X103188704Y-79001948D01*
X103200489Y-79009793D01*
X103258680Y-79048528D01*
X103308047Y-79081390D01*
X103444891Y-79124142D01*
X103453863Y-79124306D01*
X103453866Y-79124307D01*
X103519197Y-79125504D01*
X103588233Y-79126770D01*
X103597267Y-79124307D01*
X103717892Y-79091421D01*
X103717894Y-79091420D01*
X103726551Y-79089060D01*
X103848725Y-79014045D01*
X103850727Y-79017305D01*
X103899241Y-78996238D01*
X103969313Y-79007655D01*
X103984652Y-79016381D01*
X104082313Y-79081390D01*
X104219157Y-79124142D01*
X104228129Y-79124306D01*
X104228132Y-79124307D01*
X104293463Y-79125504D01*
X104362499Y-79126770D01*
X104371533Y-79124307D01*
X104492158Y-79091421D01*
X104492160Y-79091420D01*
X104500817Y-79089060D01*
X104622991Y-79014045D01*
X104719200Y-78907754D01*
X104765501Y-78812188D01*
X104777795Y-78786814D01*
X104777795Y-78786813D01*
X104781710Y-78778733D01*
X104805496Y-78637354D01*
X104805647Y-78625000D01*
X104792157Y-78530804D01*
X104786596Y-78491968D01*
X104786595Y-78491965D01*
X104785323Y-78483082D01*
X104775274Y-78460979D01*
X104729698Y-78360741D01*
X104725984Y-78352572D01*
X104721928Y-78347864D01*
X104702464Y-78281033D01*
X104720871Y-78221064D01*
X104719200Y-78220254D01*
X104777795Y-78099314D01*
X104777795Y-78099313D01*
X104781710Y-78091233D01*
X104805496Y-77949854D01*
X104805647Y-77937500D01*
X104795580Y-77867203D01*
X104786596Y-77804468D01*
X104786595Y-77804465D01*
X104785323Y-77795582D01*
X104771793Y-77765823D01*
X104766179Y-77753477D01*
X104725984Y-77665072D01*
X104692724Y-77626472D01*
X104669914Y-77600000D01*
X107019196Y-77600000D01*
X107020747Y-77609793D01*
X107038016Y-77718823D01*
X107040281Y-77733126D01*
X107101472Y-77853220D01*
X107196780Y-77948528D01*
X107316874Y-78009719D01*
X107326663Y-78011269D01*
X107326665Y-78011270D01*
X107440207Y-78029253D01*
X107450000Y-78030804D01*
X107459793Y-78029253D01*
X107573335Y-78011270D01*
X107573337Y-78011269D01*
X107583126Y-78009719D01*
X107651266Y-77975000D01*
X108769196Y-77975000D01*
X108770747Y-77984793D01*
X108788113Y-78094435D01*
X108790281Y-78108126D01*
X108851472Y-78228220D01*
X108946780Y-78323528D01*
X109066874Y-78384719D01*
X109076663Y-78386269D01*
X109076665Y-78386270D01*
X109190207Y-78404253D01*
X109200000Y-78405804D01*
X109209793Y-78404253D01*
X109323335Y-78386270D01*
X109323337Y-78386269D01*
X109333126Y-78384719D01*
X109453220Y-78323528D01*
X109548528Y-78228220D01*
X109609719Y-78108126D01*
X109611888Y-78094435D01*
X109618926Y-78050000D01*
X116244930Y-78050000D01*
X116246481Y-78059793D01*
X116262496Y-78160905D01*
X116266015Y-78183126D01*
X116327206Y-78303220D01*
X116345330Y-78321344D01*
X116379356Y-78383656D01*
X116374291Y-78454471D01*
X116345330Y-78499534D01*
X116327206Y-78517658D01*
X116266015Y-78637752D01*
X116264465Y-78647541D01*
X116264464Y-78647543D01*
X116256156Y-78700000D01*
X116244930Y-78770878D01*
X116246481Y-78780671D01*
X116260942Y-78871972D01*
X116266015Y-78904004D01*
X116327206Y-79024098D01*
X116422514Y-79119406D01*
X116542608Y-79180597D01*
X116552397Y-79182147D01*
X116552399Y-79182148D01*
X116665941Y-79200131D01*
X116675734Y-79201682D01*
X116685527Y-79200131D01*
X116799069Y-79182148D01*
X116799071Y-79182147D01*
X116808860Y-79180597D01*
X116928954Y-79119406D01*
X117024262Y-79024098D01*
X117085453Y-78904004D01*
X117090527Y-78871972D01*
X117104987Y-78780671D01*
X117106538Y-78770878D01*
X117095312Y-78700000D01*
X117087004Y-78647543D01*
X117087003Y-78647541D01*
X117085453Y-78637752D01*
X117024262Y-78517658D01*
X117006138Y-78499534D01*
X116972112Y-78437222D01*
X116977177Y-78366407D01*
X117006138Y-78321344D01*
X117024262Y-78303220D01*
X117053177Y-78246472D01*
X120021749Y-78246472D01*
X120025133Y-78280982D01*
X120025734Y-78293277D01*
X120025734Y-79344548D01*
X120024741Y-79360340D01*
X120021945Y-79382476D01*
X120021749Y-79396472D01*
X120025133Y-79430982D01*
X120025734Y-79443277D01*
X120025734Y-79831885D01*
X120030209Y-79847124D01*
X120031599Y-79848329D01*
X120039282Y-79850000D01*
X120095487Y-79850000D01*
X120104761Y-79847277D01*
X120545169Y-79847277D01*
X120552470Y-79850000D01*
X120995487Y-79850000D01*
X121004761Y-79847277D01*
X121745169Y-79847277D01*
X121752470Y-79850000D01*
X122195487Y-79850000D01*
X122204761Y-79847277D01*
X122820169Y-79847277D01*
X122827470Y-79850000D01*
X123270487Y-79850000D01*
X123279761Y-79847277D01*
X124045169Y-79847277D01*
X124052470Y-79850000D01*
X124495487Y-79850000D01*
X124506512Y-79846763D01*
X124503274Y-79839672D01*
X124288546Y-79624944D01*
X124274602Y-79617330D01*
X124272769Y-79617461D01*
X124266154Y-79621712D01*
X124050678Y-79837188D01*
X124045169Y-79847277D01*
X123279761Y-79847277D01*
X123281512Y-79846763D01*
X123278274Y-79839672D01*
X123063546Y-79624944D01*
X123049602Y-79617330D01*
X123047769Y-79617461D01*
X123041154Y-79621712D01*
X122825678Y-79837188D01*
X122820169Y-79847277D01*
X122204761Y-79847277D01*
X122206512Y-79846763D01*
X122203274Y-79839672D01*
X121988546Y-79624944D01*
X121974602Y-79617330D01*
X121972769Y-79617461D01*
X121966154Y-79621712D01*
X121750678Y-79837188D01*
X121745169Y-79847277D01*
X121004761Y-79847277D01*
X121006512Y-79846763D01*
X121003274Y-79839672D01*
X120788546Y-79624944D01*
X120774602Y-79617330D01*
X120772769Y-79617461D01*
X120766154Y-79621712D01*
X120550678Y-79837188D01*
X120545169Y-79847277D01*
X120104761Y-79847277D01*
X120121132Y-79842470D01*
X120686639Y-79276963D01*
X120748951Y-79242937D01*
X120819766Y-79248002D01*
X120864829Y-79276963D01*
X121362922Y-79775056D01*
X121376866Y-79782670D01*
X121378699Y-79782539D01*
X121385314Y-79778288D01*
X121762470Y-79401132D01*
X122193064Y-79401132D01*
X122193195Y-79402965D01*
X122197446Y-79409580D01*
X122362922Y-79575056D01*
X122373011Y-79580565D01*
X122375734Y-79573264D01*
X122375734Y-79251736D01*
X122675734Y-79251736D01*
X122675734Y-79544753D01*
X122678971Y-79555778D01*
X122686062Y-79552540D01*
X122825790Y-79412812D01*
X122833404Y-79398868D01*
X122833273Y-79397035D01*
X122829022Y-79390420D01*
X122688546Y-79249944D01*
X122678457Y-79244435D01*
X122675734Y-79251736D01*
X122375734Y-79251736D01*
X122375734Y-79230247D01*
X122372497Y-79219222D01*
X122365406Y-79222460D01*
X122200678Y-79387188D01*
X122193064Y-79401132D01*
X121762470Y-79401132D01*
X122325790Y-78837812D01*
X122333404Y-78823868D01*
X122333273Y-78822035D01*
X122329022Y-78815420D01*
X121852697Y-78339095D01*
X121818671Y-78276783D01*
X121820506Y-78251132D01*
X122193064Y-78251132D01*
X122193195Y-78252965D01*
X122197446Y-78259580D01*
X122362922Y-78425056D01*
X122373011Y-78430565D01*
X122375734Y-78423264D01*
X122375734Y-78101736D01*
X122675734Y-78101736D01*
X122675734Y-78394753D01*
X122678971Y-78405778D01*
X122686062Y-78402540D01*
X122825790Y-78262812D01*
X122833404Y-78248868D01*
X122833273Y-78247035D01*
X122829022Y-78240420D01*
X122688546Y-78099944D01*
X122678457Y-78094435D01*
X122675734Y-78101736D01*
X122375734Y-78101736D01*
X122375734Y-78080247D01*
X122372497Y-78069222D01*
X122365406Y-78072460D01*
X122200678Y-78237188D01*
X122193064Y-78251132D01*
X121820506Y-78251132D01*
X121823736Y-78205968D01*
X121852697Y-78160905D01*
X122362922Y-77650680D01*
X122375734Y-77627218D01*
X122375734Y-77518115D01*
X122374393Y-77513548D01*
X122675734Y-77513548D01*
X122675734Y-77644753D01*
X122683264Y-77670398D01*
X123173771Y-78160905D01*
X123207797Y-78223217D01*
X123202732Y-78294032D01*
X123173771Y-78339095D01*
X122700678Y-78812188D01*
X122693064Y-78826132D01*
X122693195Y-78827965D01*
X122697446Y-78834580D01*
X123650422Y-79787556D01*
X123664366Y-79795170D01*
X123666199Y-79795039D01*
X123672814Y-79790788D01*
X124186639Y-79276963D01*
X124248951Y-79242937D01*
X124319766Y-79248002D01*
X124364829Y-79276963D01*
X124925054Y-79837188D01*
X124948516Y-79850000D01*
X125007619Y-79850000D01*
X125022858Y-79845525D01*
X125024063Y-79844135D01*
X125025734Y-79836452D01*
X125025734Y-79461564D01*
X125026960Y-79444028D01*
X125029635Y-79424996D01*
X125030241Y-79417114D01*
X125030425Y-79403963D01*
X125030038Y-79396062D01*
X125026519Y-79364687D01*
X125025734Y-79350642D01*
X125025734Y-78311564D01*
X125026960Y-78294028D01*
X125029635Y-78274996D01*
X125030241Y-78267114D01*
X125030425Y-78253963D01*
X125030038Y-78246062D01*
X125026519Y-78214687D01*
X125025734Y-78200642D01*
X125025734Y-77956085D01*
X125025365Y-77949271D01*
X125019945Y-77899379D01*
X125016320Y-77884133D01*
X124971967Y-77765823D01*
X124963435Y-77750237D01*
X124888304Y-77649991D01*
X124875743Y-77637430D01*
X124775497Y-77562299D01*
X124759911Y-77553767D01*
X124641601Y-77509414D01*
X124626355Y-77505789D01*
X124576463Y-77500369D01*
X124569649Y-77500000D01*
X124328142Y-77500000D01*
X124313223Y-77499114D01*
X124287996Y-77496106D01*
X124273999Y-77496008D01*
X124242586Y-77499310D01*
X124229415Y-77500000D01*
X123103142Y-77500000D01*
X123088223Y-77499114D01*
X123062996Y-77496106D01*
X123048999Y-77496008D01*
X123017586Y-77499310D01*
X123004415Y-77500000D01*
X122693849Y-77500000D01*
X122678610Y-77504475D01*
X122677405Y-77505865D01*
X122675734Y-77513548D01*
X122374393Y-77513548D01*
X122371259Y-77502876D01*
X122369869Y-77501671D01*
X122362186Y-77500000D01*
X122028142Y-77500000D01*
X122013223Y-77499114D01*
X121987996Y-77496106D01*
X121973999Y-77496008D01*
X121942586Y-77499310D01*
X121929415Y-77500000D01*
X120828142Y-77500000D01*
X120813223Y-77499114D01*
X120787996Y-77496106D01*
X120773999Y-77496008D01*
X120742586Y-77499310D01*
X120729415Y-77500000D01*
X120481819Y-77500000D01*
X120475005Y-77500369D01*
X120425113Y-77505789D01*
X120409867Y-77509414D01*
X120291557Y-77553767D01*
X120275971Y-77562299D01*
X120175725Y-77637430D01*
X120163164Y-77649991D01*
X120088033Y-77750237D01*
X120079501Y-77765823D01*
X120035148Y-77884133D01*
X120031523Y-77899379D01*
X120026103Y-77949271D01*
X120025734Y-77956085D01*
X120025734Y-78194548D01*
X120024741Y-78210340D01*
X120021945Y-78232476D01*
X120021749Y-78246472D01*
X117053177Y-78246472D01*
X117085453Y-78183126D01*
X117088973Y-78160905D01*
X117104987Y-78059793D01*
X117106538Y-78050000D01*
X117097384Y-77992203D01*
X117087004Y-77926665D01*
X117087003Y-77926663D01*
X117085453Y-77916874D01*
X117024262Y-77796780D01*
X116928954Y-77701472D01*
X116808860Y-77640281D01*
X116799071Y-77638731D01*
X116799069Y-77638730D01*
X116685527Y-77620747D01*
X116675734Y-77619196D01*
X116665941Y-77620747D01*
X116552399Y-77638730D01*
X116552397Y-77638731D01*
X116542608Y-77640281D01*
X116422514Y-77701472D01*
X116327206Y-77796780D01*
X116266015Y-77916874D01*
X116264465Y-77926663D01*
X116264464Y-77926665D01*
X116254084Y-77992203D01*
X116244930Y-78050000D01*
X109618926Y-78050000D01*
X109629253Y-77984793D01*
X109630804Y-77975000D01*
X109612745Y-77860979D01*
X109611270Y-77851665D01*
X109611269Y-77851663D01*
X109609719Y-77841874D01*
X109548528Y-77721780D01*
X109453220Y-77626472D01*
X109333126Y-77565281D01*
X109323337Y-77563731D01*
X109323335Y-77563730D01*
X109209793Y-77545747D01*
X109200000Y-77544196D01*
X109190207Y-77545747D01*
X109076665Y-77563730D01*
X109076663Y-77563731D01*
X109066874Y-77565281D01*
X108946780Y-77626472D01*
X108851472Y-77721780D01*
X108790281Y-77841874D01*
X108788731Y-77851663D01*
X108788730Y-77851665D01*
X108787255Y-77860979D01*
X108769196Y-77975000D01*
X107651266Y-77975000D01*
X107703220Y-77948528D01*
X107798528Y-77853220D01*
X107859719Y-77733126D01*
X107861985Y-77718823D01*
X107879253Y-77609793D01*
X107880804Y-77600000D01*
X107879253Y-77590207D01*
X107861270Y-77476665D01*
X107861269Y-77476663D01*
X107859719Y-77466874D01*
X107798528Y-77346780D01*
X107703220Y-77251472D01*
X107583126Y-77190281D01*
X107573337Y-77188731D01*
X107573335Y-77188730D01*
X107459793Y-77170747D01*
X107450000Y-77169196D01*
X107440207Y-77170747D01*
X107326665Y-77188730D01*
X107326663Y-77188731D01*
X107316874Y-77190281D01*
X107196780Y-77251472D01*
X107101472Y-77346780D01*
X107040281Y-77466874D01*
X107038731Y-77476663D01*
X107038730Y-77476665D01*
X107020747Y-77590207D01*
X107019196Y-77600000D01*
X104669914Y-77600000D01*
X104638260Y-77563263D01*
X104638257Y-77563260D01*
X104632400Y-77556463D01*
X104512095Y-77478485D01*
X104374739Y-77437407D01*
X104365763Y-77437352D01*
X104365762Y-77437352D01*
X104305555Y-77436984D01*
X104231376Y-77436531D01*
X104093529Y-77475928D01*
X104085942Y-77480715D01*
X104085940Y-77480716D01*
X103979062Y-77548151D01*
X103910777Y-77567585D01*
X103843297Y-77547322D01*
X103737095Y-77478485D01*
X103599739Y-77437407D01*
X103590763Y-77437352D01*
X103590762Y-77437352D01*
X103530555Y-77436984D01*
X103456376Y-77436531D01*
X103318529Y-77475928D01*
X103197280Y-77552430D01*
X103191338Y-77559158D01*
X103191337Y-77559159D01*
X103181955Y-77569782D01*
X103102377Y-77659888D01*
X103041447Y-77789663D01*
X103032554Y-77846780D01*
X103021641Y-77916874D01*
X103019391Y-77931323D01*
X79200000Y-77931323D01*
X79200000Y-75800000D01*
X107019196Y-75800000D01*
X107020747Y-75809793D01*
X107030156Y-75869196D01*
X107040281Y-75933126D01*
X107101472Y-76053220D01*
X107196780Y-76148528D01*
X107316874Y-76209719D01*
X107326663Y-76211269D01*
X107326665Y-76211270D01*
X107440207Y-76229253D01*
X107450000Y-76230804D01*
X107459793Y-76229253D01*
X107573335Y-76211270D01*
X107573337Y-76211269D01*
X107583126Y-76209719D01*
X107703220Y-76148528D01*
X107798528Y-76053220D01*
X107859719Y-75933126D01*
X107864966Y-75900000D01*
X115969196Y-75900000D01*
X115970747Y-75909793D01*
X115987751Y-76017149D01*
X115990281Y-76033126D01*
X116051472Y-76153220D01*
X116146780Y-76248528D01*
X116266874Y-76309719D01*
X116276663Y-76311269D01*
X116276665Y-76311270D01*
X116390207Y-76329253D01*
X116400000Y-76330804D01*
X116409793Y-76329253D01*
X116523335Y-76311270D01*
X116523337Y-76311269D01*
X116533126Y-76309719D01*
X116653220Y-76248528D01*
X116748528Y-76153220D01*
X116809719Y-76033126D01*
X116812250Y-76017149D01*
X116815944Y-75993823D01*
X134194391Y-75993823D01*
X134195555Y-76002725D01*
X134195555Y-76002728D01*
X134196814Y-76012354D01*
X134212980Y-76135979D01*
X134270720Y-76267203D01*
X134276497Y-76274076D01*
X134276498Y-76274077D01*
X134302675Y-76305218D01*
X134362970Y-76376948D01*
X134482313Y-76456390D01*
X134619157Y-76499142D01*
X134628129Y-76499306D01*
X134628132Y-76499307D01*
X134693463Y-76500504D01*
X134762499Y-76501770D01*
X134771533Y-76499307D01*
X134892158Y-76466421D01*
X134892160Y-76466420D01*
X134900817Y-76464060D01*
X135022991Y-76389045D01*
X135119200Y-76282754D01*
X135181710Y-76153733D01*
X135205496Y-76012354D01*
X135205647Y-76000000D01*
X135204762Y-75993823D01*
X136019391Y-75993823D01*
X136020555Y-76002725D01*
X136020555Y-76002728D01*
X136021814Y-76012354D01*
X136037980Y-76135979D01*
X136095720Y-76267203D01*
X136101497Y-76274076D01*
X136101498Y-76274077D01*
X136127675Y-76305218D01*
X136187970Y-76376948D01*
X136307313Y-76456390D01*
X136444157Y-76499142D01*
X136453129Y-76499306D01*
X136453132Y-76499307D01*
X136518463Y-76500504D01*
X136587499Y-76501770D01*
X136596533Y-76499307D01*
X136717158Y-76466421D01*
X136717160Y-76466420D01*
X136725817Y-76464060D01*
X136847991Y-76389045D01*
X136944200Y-76282754D01*
X137006710Y-76153733D01*
X137030496Y-76012354D01*
X137030647Y-76000000D01*
X137029762Y-75993823D01*
X137794391Y-75993823D01*
X137795555Y-76002725D01*
X137795555Y-76002728D01*
X137796814Y-76012354D01*
X137812980Y-76135979D01*
X137870720Y-76267203D01*
X137876497Y-76274076D01*
X137876498Y-76274077D01*
X137902675Y-76305218D01*
X137962970Y-76376948D01*
X138082313Y-76456390D01*
X138219157Y-76499142D01*
X138228129Y-76499306D01*
X138228132Y-76499307D01*
X138293463Y-76500504D01*
X138362499Y-76501770D01*
X138371533Y-76499307D01*
X138492158Y-76466421D01*
X138492160Y-76466420D01*
X138500817Y-76464060D01*
X138622991Y-76389045D01*
X138719200Y-76282754D01*
X138781710Y-76153733D01*
X138805496Y-76012354D01*
X138805647Y-76000000D01*
X138791326Y-75900000D01*
X138786596Y-75866968D01*
X138786595Y-75866965D01*
X138785323Y-75858082D01*
X138725984Y-75727572D01*
X138690145Y-75685979D01*
X138638260Y-75625763D01*
X138638257Y-75625760D01*
X138632400Y-75618963D01*
X138512095Y-75540985D01*
X138374739Y-75499907D01*
X138365763Y-75499852D01*
X138365762Y-75499852D01*
X138305555Y-75499484D01*
X138231376Y-75499031D01*
X138093529Y-75538428D01*
X137972280Y-75614930D01*
X137877377Y-75722388D01*
X137816447Y-75852163D01*
X137794391Y-75993823D01*
X137029762Y-75993823D01*
X137016326Y-75900000D01*
X137011596Y-75866968D01*
X137011595Y-75866965D01*
X137010323Y-75858082D01*
X136950984Y-75727572D01*
X136915145Y-75685979D01*
X136863260Y-75625763D01*
X136863257Y-75625760D01*
X136857400Y-75618963D01*
X136737095Y-75540985D01*
X136599739Y-75499907D01*
X136590763Y-75499852D01*
X136590762Y-75499852D01*
X136530555Y-75499484D01*
X136456376Y-75499031D01*
X136318529Y-75538428D01*
X136197280Y-75614930D01*
X136102377Y-75722388D01*
X136041447Y-75852163D01*
X136019391Y-75993823D01*
X135204762Y-75993823D01*
X135191326Y-75900000D01*
X135186596Y-75866968D01*
X135186595Y-75866965D01*
X135185323Y-75858082D01*
X135125984Y-75727572D01*
X135090145Y-75685979D01*
X135038260Y-75625763D01*
X135038257Y-75625760D01*
X135032400Y-75618963D01*
X134912095Y-75540985D01*
X134774739Y-75499907D01*
X134765763Y-75499852D01*
X134765762Y-75499852D01*
X134705555Y-75499484D01*
X134631376Y-75499031D01*
X134493529Y-75538428D01*
X134372280Y-75614930D01*
X134277377Y-75722388D01*
X134216447Y-75852163D01*
X134194391Y-75993823D01*
X116815944Y-75993823D01*
X116829253Y-75909793D01*
X116830804Y-75900000D01*
X116824165Y-75858082D01*
X116811270Y-75776665D01*
X116811269Y-75776663D01*
X116809719Y-75766874D01*
X116748528Y-75646780D01*
X116653220Y-75551472D01*
X116533126Y-75490281D01*
X116523337Y-75488731D01*
X116523335Y-75488730D01*
X116409793Y-75470747D01*
X116400000Y-75469196D01*
X116390207Y-75470747D01*
X116276665Y-75488730D01*
X116276663Y-75488731D01*
X116266874Y-75490281D01*
X116146780Y-75551472D01*
X116051472Y-75646780D01*
X115990281Y-75766874D01*
X115988731Y-75776663D01*
X115988730Y-75776665D01*
X115975835Y-75858082D01*
X115969196Y-75900000D01*
X107864966Y-75900000D01*
X107869845Y-75869196D01*
X107879253Y-75809793D01*
X107880804Y-75800000D01*
X107859719Y-75666874D01*
X107798528Y-75546780D01*
X107703220Y-75451472D01*
X107583126Y-75390281D01*
X107573337Y-75388731D01*
X107573335Y-75388730D01*
X107459793Y-75370747D01*
X107450000Y-75369196D01*
X107440207Y-75370747D01*
X107326665Y-75388730D01*
X107326663Y-75388731D01*
X107316874Y-75390281D01*
X107196780Y-75451472D01*
X107101472Y-75546780D01*
X107040281Y-75666874D01*
X107019196Y-75800000D01*
X79200000Y-75800000D01*
X79200000Y-74800000D01*
X85169196Y-74800000D01*
X85170747Y-74809793D01*
X85186574Y-74909719D01*
X85190281Y-74933126D01*
X85251472Y-75053220D01*
X85346780Y-75148528D01*
X85466874Y-75209719D01*
X85476663Y-75211269D01*
X85476665Y-75211270D01*
X85590207Y-75229253D01*
X85600000Y-75230804D01*
X85609793Y-75229253D01*
X85723335Y-75211270D01*
X85723337Y-75211269D01*
X85733126Y-75209719D01*
X85853220Y-75148528D01*
X85948528Y-75053220D01*
X86009719Y-74933126D01*
X86013427Y-74909719D01*
X86029253Y-74809793D01*
X86030804Y-74800000D01*
X86023395Y-74753220D01*
X86011270Y-74676665D01*
X86011269Y-74676663D01*
X86009719Y-74666874D01*
X85948528Y-74546780D01*
X85853220Y-74451472D01*
X85733126Y-74390281D01*
X85723337Y-74388731D01*
X85723335Y-74388730D01*
X85609793Y-74370747D01*
X85600000Y-74369196D01*
X85590207Y-74370747D01*
X85476665Y-74388730D01*
X85476663Y-74388731D01*
X85466874Y-74390281D01*
X85346780Y-74451472D01*
X85251472Y-74546780D01*
X85190281Y-74666874D01*
X85188731Y-74676663D01*
X85188730Y-74676665D01*
X85176605Y-74753220D01*
X85169196Y-74800000D01*
X79200000Y-74800000D01*
X79200000Y-74000000D01*
X91169196Y-74000000D01*
X91170747Y-74009793D01*
X91180156Y-74069196D01*
X91190281Y-74133126D01*
X91251472Y-74253220D01*
X91334157Y-74335905D01*
X91368183Y-74398217D01*
X91363118Y-74469032D01*
X91334157Y-74514095D01*
X91251472Y-74596780D01*
X91190281Y-74716874D01*
X91188731Y-74726663D01*
X91188730Y-74726665D01*
X91185923Y-74744388D01*
X91169196Y-74850000D01*
X91170747Y-74859793D01*
X91186900Y-74961777D01*
X91190281Y-74983126D01*
X91251472Y-75103220D01*
X91346780Y-75198528D01*
X91466874Y-75259719D01*
X91476663Y-75261269D01*
X91476665Y-75261270D01*
X91590207Y-75279253D01*
X91600000Y-75280804D01*
X91609793Y-75279253D01*
X91723335Y-75261270D01*
X91723337Y-75261269D01*
X91733126Y-75259719D01*
X91853220Y-75198528D01*
X91901748Y-75150000D01*
X118469196Y-75150000D01*
X118470747Y-75159793D01*
X118488075Y-75269196D01*
X118490281Y-75283126D01*
X118551472Y-75403220D01*
X118646780Y-75498528D01*
X118766874Y-75559719D01*
X118776663Y-75561269D01*
X118776665Y-75561270D01*
X118890207Y-75579253D01*
X118900000Y-75580804D01*
X118909793Y-75579253D01*
X119023335Y-75561270D01*
X119023337Y-75561269D01*
X119033126Y-75559719D01*
X119153220Y-75498528D01*
X119248528Y-75403220D01*
X119309719Y-75283126D01*
X119311926Y-75269196D01*
X119329253Y-75159793D01*
X119330804Y-75150000D01*
X119329253Y-75140206D01*
X119318920Y-75074963D01*
X119328020Y-75004552D01*
X119373742Y-74950238D01*
X119442280Y-74929581D01*
X119450000Y-74930804D01*
X119459793Y-74929253D01*
X119573335Y-74911270D01*
X119573337Y-74911269D01*
X119583126Y-74909719D01*
X119703220Y-74848528D01*
X119798528Y-74753220D01*
X119859719Y-74633126D01*
X119863427Y-74609719D01*
X119879253Y-74509793D01*
X119880804Y-74500000D01*
X119871457Y-74440985D01*
X119861270Y-74376665D01*
X119861269Y-74376663D01*
X119859719Y-74366874D01*
X119798528Y-74246780D01*
X119703220Y-74151472D01*
X119583126Y-74090281D01*
X119573337Y-74088731D01*
X119573335Y-74088730D01*
X119459793Y-74070747D01*
X119450000Y-74069196D01*
X119440207Y-74070747D01*
X119326665Y-74088730D01*
X119326663Y-74088731D01*
X119316874Y-74090281D01*
X119196780Y-74151472D01*
X119101472Y-74246780D01*
X119040281Y-74366874D01*
X119038731Y-74376663D01*
X119038730Y-74376665D01*
X119028543Y-74440985D01*
X119019196Y-74500000D01*
X119020747Y-74509793D01*
X119020747Y-74509794D01*
X119031080Y-74575037D01*
X119021980Y-74645448D01*
X118976258Y-74699762D01*
X118907720Y-74720419D01*
X118900000Y-74719196D01*
X118890207Y-74720747D01*
X118776665Y-74738730D01*
X118776663Y-74738731D01*
X118766874Y-74740281D01*
X118646780Y-74801472D01*
X118551472Y-74896780D01*
X118490281Y-75016874D01*
X118488731Y-75026663D01*
X118488730Y-75026665D01*
X118480254Y-75080183D01*
X118469196Y-75150000D01*
X91901748Y-75150000D01*
X91948528Y-75103220D01*
X92009719Y-74983126D01*
X92013101Y-74961777D01*
X92029253Y-74859793D01*
X92030804Y-74850000D01*
X92014077Y-74744388D01*
X92011270Y-74726665D01*
X92011269Y-74726663D01*
X92009719Y-74716874D01*
X91948528Y-74596780D01*
X91865843Y-74514095D01*
X91831817Y-74451783D01*
X91836882Y-74380968D01*
X91865843Y-74335905D01*
X91948528Y-74253220D01*
X92009719Y-74133126D01*
X92019845Y-74069196D01*
X92029253Y-74009793D01*
X92030804Y-74000000D01*
X92009719Y-73866874D01*
X91962907Y-73775000D01*
X121069930Y-73775000D01*
X121071481Y-73784793D01*
X121085505Y-73873335D01*
X121091015Y-73908126D01*
X121152206Y-74028220D01*
X121247514Y-74123528D01*
X121367608Y-74184719D01*
X121377397Y-74186269D01*
X121377399Y-74186270D01*
X121490941Y-74204253D01*
X121500734Y-74205804D01*
X121510527Y-74204253D01*
X121624069Y-74186270D01*
X121624071Y-74186269D01*
X121633860Y-74184719D01*
X121753954Y-74123528D01*
X121836639Y-74040843D01*
X121898951Y-74006817D01*
X121969766Y-74011882D01*
X122014829Y-74040843D01*
X122072514Y-74098528D01*
X122192608Y-74159719D01*
X122202397Y-74161269D01*
X122202399Y-74161270D01*
X122315941Y-74179253D01*
X122325734Y-74180804D01*
X122335527Y-74179253D01*
X122449069Y-74161270D01*
X122449071Y-74161269D01*
X122458860Y-74159719D01*
X122578954Y-74098528D01*
X122674262Y-74003220D01*
X122735453Y-73883126D01*
X122740467Y-73851472D01*
X122754987Y-73759793D01*
X122756538Y-73750000D01*
X122753268Y-73729353D01*
X122737004Y-73626665D01*
X122737003Y-73626663D01*
X122735453Y-73616874D01*
X122674262Y-73496780D01*
X122578954Y-73401472D01*
X122458860Y-73340281D01*
X122449071Y-73338731D01*
X122449069Y-73338730D01*
X122335527Y-73320747D01*
X122325734Y-73319196D01*
X122315941Y-73320747D01*
X122202399Y-73338730D01*
X122202397Y-73338731D01*
X122192608Y-73340281D01*
X122072514Y-73401472D01*
X121989829Y-73484157D01*
X121927517Y-73518183D01*
X121856702Y-73513118D01*
X121811639Y-73484157D01*
X121753954Y-73426472D01*
X121633860Y-73365281D01*
X121624071Y-73363731D01*
X121624069Y-73363730D01*
X121510527Y-73345747D01*
X121500734Y-73344196D01*
X121490941Y-73345747D01*
X121377399Y-73363730D01*
X121377397Y-73363731D01*
X121367608Y-73365281D01*
X121247514Y-73426472D01*
X121152206Y-73521780D01*
X121091015Y-73641874D01*
X121089465Y-73651663D01*
X121089464Y-73651665D01*
X121071481Y-73765207D01*
X121069930Y-73775000D01*
X91962907Y-73775000D01*
X91948528Y-73746780D01*
X91853220Y-73651472D01*
X91733126Y-73590281D01*
X91723337Y-73588731D01*
X91723335Y-73588730D01*
X91609793Y-73570747D01*
X91600000Y-73569196D01*
X91590207Y-73570747D01*
X91476665Y-73588730D01*
X91476663Y-73588731D01*
X91466874Y-73590281D01*
X91346780Y-73651472D01*
X91251472Y-73746780D01*
X91190281Y-73866874D01*
X91169196Y-74000000D01*
X79200000Y-74000000D01*
X79200000Y-72520878D01*
X118748318Y-72520878D01*
X118749869Y-72530671D01*
X118764546Y-72623335D01*
X118769403Y-72654004D01*
X118830594Y-72774098D01*
X118925902Y-72869406D01*
X119045996Y-72930597D01*
X119055785Y-72932147D01*
X119055787Y-72932148D01*
X119169329Y-72950131D01*
X119179122Y-72951682D01*
X119188915Y-72950131D01*
X119302457Y-72932148D01*
X119302459Y-72932147D01*
X119312248Y-72930597D01*
X119432342Y-72869406D01*
X119460905Y-72840843D01*
X119523217Y-72806817D01*
X119594032Y-72811882D01*
X119631534Y-72835984D01*
X119631748Y-72835689D01*
X119636900Y-72839432D01*
X119639095Y-72840843D01*
X119646780Y-72848528D01*
X119766874Y-72909719D01*
X119776663Y-72911269D01*
X119776665Y-72911270D01*
X119890207Y-72929253D01*
X119900000Y-72930804D01*
X119909793Y-72929253D01*
X120023335Y-72911270D01*
X120023337Y-72911269D01*
X120033126Y-72909719D01*
X120153220Y-72848528D01*
X120248528Y-72753220D01*
X120309719Y-72633126D01*
X120322885Y-72550000D01*
X122694930Y-72550000D01*
X122696481Y-72559793D01*
X122712802Y-72662837D01*
X122716015Y-72683126D01*
X122777206Y-72803220D01*
X122872514Y-72898528D01*
X122992608Y-72959719D01*
X123002397Y-72961269D01*
X123002399Y-72961270D01*
X123115941Y-72979253D01*
X123125734Y-72980804D01*
X123135527Y-72979253D01*
X123249069Y-72961270D01*
X123249071Y-72961269D01*
X123258860Y-72959719D01*
X123378954Y-72898528D01*
X123474262Y-72803220D01*
X123535453Y-72683126D01*
X123538667Y-72662837D01*
X123554987Y-72559793D01*
X123556538Y-72550000D01*
X123551926Y-72520878D01*
X123537004Y-72426665D01*
X123537003Y-72426663D01*
X123535453Y-72416874D01*
X123474262Y-72296780D01*
X123378954Y-72201472D01*
X123258860Y-72140281D01*
X123249071Y-72138731D01*
X123249069Y-72138730D01*
X123135527Y-72120747D01*
X123125734Y-72119196D01*
X123115941Y-72120747D01*
X123002399Y-72138730D01*
X123002397Y-72138731D01*
X122992608Y-72140281D01*
X122872514Y-72201472D01*
X122777206Y-72296780D01*
X122716015Y-72416874D01*
X122714465Y-72426663D01*
X122714464Y-72426665D01*
X122699542Y-72520878D01*
X122694930Y-72550000D01*
X120322885Y-72550000D01*
X120330804Y-72500000D01*
X120316239Y-72408041D01*
X120311270Y-72376665D01*
X120311269Y-72376663D01*
X120309719Y-72366874D01*
X120248528Y-72246780D01*
X120153220Y-72151472D01*
X120033126Y-72090281D01*
X120023337Y-72088731D01*
X120023335Y-72088730D01*
X119909793Y-72070747D01*
X119900000Y-72069196D01*
X119890207Y-72070747D01*
X119776665Y-72088730D01*
X119776663Y-72088731D01*
X119766874Y-72090281D01*
X119646780Y-72151472D01*
X119618217Y-72180035D01*
X119555905Y-72214061D01*
X119485090Y-72208996D01*
X119447588Y-72184894D01*
X119447374Y-72185189D01*
X119442222Y-72181446D01*
X119440027Y-72180035D01*
X119432342Y-72172350D01*
X119312248Y-72111159D01*
X119302459Y-72109609D01*
X119302457Y-72109608D01*
X119188915Y-72091625D01*
X119179122Y-72090074D01*
X119169329Y-72091625D01*
X119055787Y-72109608D01*
X119055785Y-72109609D01*
X119045996Y-72111159D01*
X118925902Y-72172350D01*
X118830594Y-72267658D01*
X118769403Y-72387752D01*
X118767853Y-72397541D01*
X118767852Y-72397543D01*
X118763240Y-72426665D01*
X118748318Y-72520878D01*
X79200000Y-72520878D01*
X79200000Y-71850000D01*
X60950000Y-71850000D01*
X60950000Y-72770647D01*
X60929998Y-72838768D01*
X60876342Y-72885261D01*
X60806068Y-72895365D01*
X60766799Y-72882915D01*
X60683126Y-72840281D01*
X60673337Y-72838731D01*
X60673335Y-72838730D01*
X60559793Y-72820747D01*
X60550000Y-72819196D01*
X60540207Y-72820747D01*
X60426665Y-72838730D01*
X60426663Y-72838731D01*
X60416874Y-72840281D01*
X60296780Y-72901472D01*
X60201472Y-72996780D01*
X60140281Y-73116874D01*
X60119196Y-73250000D01*
X48800000Y-73250000D01*
X48800000Y-73050000D01*
X40526000Y-73050000D01*
X40457879Y-73029998D01*
X40411386Y-72976342D01*
X40400000Y-72924000D01*
X40400000Y-71500000D01*
X87369196Y-71500000D01*
X87370747Y-71509793D01*
X87386574Y-71609719D01*
X87390281Y-71633126D01*
X87451472Y-71753220D01*
X87546780Y-71848528D01*
X87666874Y-71909719D01*
X87676663Y-71911269D01*
X87676665Y-71911270D01*
X87790207Y-71929253D01*
X87800000Y-71930804D01*
X87809793Y-71929253D01*
X87923335Y-71911270D01*
X87923337Y-71911269D01*
X87933126Y-71909719D01*
X88053220Y-71848528D01*
X88110905Y-71790843D01*
X88173217Y-71756817D01*
X88244032Y-71761882D01*
X88289095Y-71790843D01*
X88346780Y-71848528D01*
X88466874Y-71909719D01*
X88476663Y-71911269D01*
X88476665Y-71911270D01*
X88590207Y-71929253D01*
X88600000Y-71930804D01*
X88609793Y-71929253D01*
X88723335Y-71911270D01*
X88723337Y-71911269D01*
X88733126Y-71909719D01*
X88853220Y-71848528D01*
X88948528Y-71753220D01*
X88979410Y-71692611D01*
X136444394Y-71692611D01*
X136462999Y-71861135D01*
X136521266Y-72020356D01*
X136525502Y-72026659D01*
X136525502Y-72026660D01*
X136538574Y-72046113D01*
X136615830Y-72161083D01*
X136621442Y-72166190D01*
X136621445Y-72166193D01*
X136735612Y-72270077D01*
X136735616Y-72270080D01*
X136741233Y-72275191D01*
X136747906Y-72278814D01*
X136747910Y-72278817D01*
X136883558Y-72352467D01*
X136883560Y-72352468D01*
X136890235Y-72356092D01*
X136897584Y-72358020D01*
X137046883Y-72397188D01*
X137046885Y-72397188D01*
X137054233Y-72399116D01*
X137140609Y-72400473D01*
X137216161Y-72401660D01*
X137216164Y-72401660D01*
X137223760Y-72401779D01*
X137231165Y-72400083D01*
X137231166Y-72400083D01*
X137291586Y-72386245D01*
X137389029Y-72363928D01*
X137540498Y-72287747D01*
X137633304Y-72208483D01*
X137663651Y-72182564D01*
X137663652Y-72182563D01*
X137669423Y-72177634D01*
X137768361Y-72039947D01*
X137776237Y-72020356D01*
X137828766Y-71889687D01*
X137828767Y-71889685D01*
X137831601Y-71882634D01*
X137855490Y-71714778D01*
X137855645Y-71700000D01*
X137853840Y-71685080D01*
X137837859Y-71553028D01*
X137835276Y-71531680D01*
X137775345Y-71373077D01*
X137686071Y-71243183D01*
X137683614Y-71239608D01*
X137683613Y-71239607D01*
X137679312Y-71233349D01*
X137667514Y-71222837D01*
X137558392Y-71125612D01*
X137558388Y-71125610D01*
X137552721Y-71120560D01*
X137492605Y-71088730D01*
X137485080Y-71084746D01*
X137402881Y-71041224D01*
X137238441Y-70999919D01*
X137230843Y-70999879D01*
X137230841Y-70999879D01*
X137153668Y-70999475D01*
X137068895Y-70999031D01*
X137061508Y-71000805D01*
X137061504Y-71000805D01*
X136918162Y-71035220D01*
X136904032Y-71038612D01*
X136897288Y-71042093D01*
X136897285Y-71042094D01*
X136760117Y-71112892D01*
X136753369Y-71116375D01*
X136625604Y-71227831D01*
X136606079Y-71255612D01*
X136545394Y-71341959D01*
X136528113Y-71366547D01*
X136466524Y-71524513D01*
X136465532Y-71532046D01*
X136465532Y-71532047D01*
X136455307Y-71609719D01*
X136444394Y-71692611D01*
X88979410Y-71692611D01*
X89009719Y-71633126D01*
X89013427Y-71609719D01*
X89029253Y-71509793D01*
X89030804Y-71500000D01*
X89021996Y-71444388D01*
X89011270Y-71376665D01*
X89011269Y-71376663D01*
X89009719Y-71366874D01*
X88948528Y-71246780D01*
X88901748Y-71200000D01*
X100669196Y-71200000D01*
X100690281Y-71333126D01*
X100751472Y-71453220D01*
X100846780Y-71548528D01*
X100966874Y-71609719D01*
X100976663Y-71611269D01*
X100976665Y-71611270D01*
X101090207Y-71629253D01*
X101100000Y-71630804D01*
X101109793Y-71629253D01*
X101223335Y-71611270D01*
X101223337Y-71611269D01*
X101233126Y-71609719D01*
X101353220Y-71548528D01*
X101448528Y-71453220D01*
X101509719Y-71333126D01*
X101530804Y-71200000D01*
X107944930Y-71200000D01*
X107966015Y-71333126D01*
X108027206Y-71453220D01*
X108122514Y-71548528D01*
X108242608Y-71609719D01*
X108252397Y-71611269D01*
X108252399Y-71611270D01*
X108365941Y-71629253D01*
X108375734Y-71630804D01*
X108385527Y-71629253D01*
X108499069Y-71611270D01*
X108499071Y-71611269D01*
X108508860Y-71609719D01*
X108628954Y-71548528D01*
X108724262Y-71453220D01*
X108785453Y-71333126D01*
X108806538Y-71200000D01*
X126669196Y-71200000D01*
X126690281Y-71333126D01*
X126751472Y-71453220D01*
X126846780Y-71548528D01*
X126966874Y-71609719D01*
X126976663Y-71611269D01*
X126976665Y-71611270D01*
X127090207Y-71629253D01*
X127100000Y-71630804D01*
X127109793Y-71629253D01*
X127223335Y-71611270D01*
X127223337Y-71611269D01*
X127233126Y-71609719D01*
X127353220Y-71548528D01*
X127448528Y-71453220D01*
X127509719Y-71333126D01*
X127530804Y-71200000D01*
X127514139Y-71094782D01*
X127511270Y-71076665D01*
X127511269Y-71076663D01*
X127509719Y-71066874D01*
X127448528Y-70946780D01*
X127353220Y-70851472D01*
X127233126Y-70790281D01*
X127223337Y-70788731D01*
X127223335Y-70788730D01*
X127109793Y-70770747D01*
X127100000Y-70769196D01*
X127090207Y-70770747D01*
X126976665Y-70788730D01*
X126976663Y-70788731D01*
X126966874Y-70790281D01*
X126846780Y-70851472D01*
X126751472Y-70946780D01*
X126690281Y-71066874D01*
X126688731Y-71076663D01*
X126688730Y-71076665D01*
X126685861Y-71094782D01*
X126669196Y-71200000D01*
X108806538Y-71200000D01*
X108789873Y-71094782D01*
X108787004Y-71076665D01*
X108787003Y-71076663D01*
X108785453Y-71066874D01*
X108724262Y-70946780D01*
X108628954Y-70851472D01*
X108508860Y-70790281D01*
X108499071Y-70788731D01*
X108499069Y-70788730D01*
X108385527Y-70770747D01*
X108375734Y-70769196D01*
X108365941Y-70770747D01*
X108252399Y-70788730D01*
X108252397Y-70788731D01*
X108242608Y-70790281D01*
X108122514Y-70851472D01*
X108027206Y-70946780D01*
X107966015Y-71066874D01*
X107964465Y-71076663D01*
X107964464Y-71076665D01*
X107961595Y-71094782D01*
X107944930Y-71200000D01*
X101530804Y-71200000D01*
X101514139Y-71094782D01*
X101511270Y-71076665D01*
X101511269Y-71076663D01*
X101509719Y-71066874D01*
X101448528Y-70946780D01*
X101353220Y-70851472D01*
X101233126Y-70790281D01*
X101223337Y-70788731D01*
X101223335Y-70788730D01*
X101109793Y-70770747D01*
X101100000Y-70769196D01*
X101090207Y-70770747D01*
X100976665Y-70788730D01*
X100976663Y-70788731D01*
X100966874Y-70790281D01*
X100846780Y-70851472D01*
X100751472Y-70946780D01*
X100690281Y-71066874D01*
X100688731Y-71076663D01*
X100688730Y-71076665D01*
X100685861Y-71094782D01*
X100669196Y-71200000D01*
X88901748Y-71200000D01*
X88853220Y-71151472D01*
X88733126Y-71090281D01*
X88723337Y-71088731D01*
X88723335Y-71088730D01*
X88609793Y-71070747D01*
X88600000Y-71069196D01*
X88590207Y-71070747D01*
X88476665Y-71088730D01*
X88476663Y-71088731D01*
X88466874Y-71090281D01*
X88346780Y-71151472D01*
X88289095Y-71209157D01*
X88226783Y-71243183D01*
X88155968Y-71238118D01*
X88110905Y-71209157D01*
X88053220Y-71151472D01*
X87933126Y-71090281D01*
X87923337Y-71088731D01*
X87923335Y-71088730D01*
X87809793Y-71070747D01*
X87800000Y-71069196D01*
X87790207Y-71070747D01*
X87676665Y-71088730D01*
X87676663Y-71088731D01*
X87666874Y-71090281D01*
X87546780Y-71151472D01*
X87451472Y-71246780D01*
X87390281Y-71366874D01*
X87388731Y-71376663D01*
X87388730Y-71376665D01*
X87378004Y-71444388D01*
X87369196Y-71500000D01*
X40400000Y-71500000D01*
X40400000Y-66745543D01*
X118995144Y-66745543D01*
X119000000Y-66745543D01*
X119000000Y-67694123D01*
X118999955Y-67745449D01*
X119006098Y-67758242D01*
X119007227Y-67763210D01*
X119009785Y-67770535D01*
X119011994Y-67775125D01*
X119015150Y-67788962D01*
X119023994Y-67800061D01*
X119026364Y-67804985D01*
X119029916Y-67810647D01*
X119033312Y-67814916D01*
X119039453Y-67827705D01*
X119050536Y-67836568D01*
X119053707Y-67840554D01*
X119059191Y-67846048D01*
X119063173Y-67849227D01*
X119072015Y-67860323D01*
X119084793Y-67866486D01*
X119089064Y-67869896D01*
X119094714Y-67873454D01*
X119099634Y-67875832D01*
X119110715Y-67884694D01*
X119124543Y-67887874D01*
X119129124Y-67890088D01*
X119136449Y-67892661D01*
X119141420Y-67893799D01*
X119154202Y-67899965D01*
X119177213Y-67899985D01*
X119177211Y-67901997D01*
X119177277Y-67902012D01*
X119177277Y-67900000D01*
X119194123Y-67900000D01*
X119245449Y-67900045D01*
X119245445Y-67904850D01*
X119245543Y-67904856D01*
X119245543Y-67900000D01*
X132794123Y-67900000D01*
X132831258Y-67900033D01*
X132831260Y-67900033D01*
X132845449Y-67900045D01*
X132858242Y-67893902D01*
X132863210Y-67892773D01*
X132870535Y-67890215D01*
X132875125Y-67888006D01*
X132888962Y-67884850D01*
X132900061Y-67876006D01*
X132904985Y-67873636D01*
X132910647Y-67870084D01*
X132914916Y-67866688D01*
X132927705Y-67860547D01*
X132936568Y-67849464D01*
X132940554Y-67846293D01*
X132946048Y-67840809D01*
X132949227Y-67836827D01*
X132960323Y-67827985D01*
X132966486Y-67815207D01*
X132969896Y-67810936D01*
X132973454Y-67805286D01*
X132975832Y-67800366D01*
X132984694Y-67789285D01*
X132987874Y-67775457D01*
X132990088Y-67770876D01*
X132992661Y-67763551D01*
X132993799Y-67758580D01*
X132999965Y-67745798D01*
X132999985Y-67722787D01*
X133001997Y-67722789D01*
X133002012Y-67722723D01*
X133000000Y-67722723D01*
X133000000Y-67705877D01*
X133000045Y-67654551D01*
X133004850Y-67654555D01*
X133004856Y-67654457D01*
X133000000Y-67654457D01*
X133000000Y-66705877D01*
X133000045Y-66654551D01*
X132993902Y-66641758D01*
X132992773Y-66636790D01*
X132990215Y-66629465D01*
X132988006Y-66624875D01*
X132984850Y-66611038D01*
X132976006Y-66599939D01*
X132973636Y-66595015D01*
X132970084Y-66589353D01*
X132966688Y-66585084D01*
X132960547Y-66572295D01*
X132949464Y-66563432D01*
X132946293Y-66559446D01*
X132940809Y-66553952D01*
X132936827Y-66550773D01*
X132927985Y-66539677D01*
X132915207Y-66533514D01*
X132910936Y-66530104D01*
X132905286Y-66526546D01*
X132900366Y-66524168D01*
X132889285Y-66515306D01*
X132875457Y-66512126D01*
X132870876Y-66509912D01*
X132863551Y-66507339D01*
X132858580Y-66506201D01*
X132845798Y-66500035D01*
X132822787Y-66500015D01*
X132822789Y-66498003D01*
X132822723Y-66497988D01*
X132822723Y-66500000D01*
X132805877Y-66500000D01*
X132754551Y-66499955D01*
X132754555Y-66495150D01*
X132754457Y-66495144D01*
X132754457Y-66500000D01*
X119205877Y-66500000D01*
X119168742Y-66499967D01*
X119168740Y-66499967D01*
X119154551Y-66499955D01*
X119141758Y-66506098D01*
X119136790Y-66507227D01*
X119129465Y-66509785D01*
X119124875Y-66511994D01*
X119111038Y-66515150D01*
X119099939Y-66523994D01*
X119095015Y-66526364D01*
X119089353Y-66529916D01*
X119085084Y-66533312D01*
X119072295Y-66539453D01*
X119063432Y-66550536D01*
X119059446Y-66553707D01*
X119053952Y-66559191D01*
X119050773Y-66563173D01*
X119039677Y-66572015D01*
X119033514Y-66584793D01*
X119030104Y-66589064D01*
X119026546Y-66594714D01*
X119024168Y-66599634D01*
X119015306Y-66610715D01*
X119012126Y-66624543D01*
X119009912Y-66629124D01*
X119007339Y-66636449D01*
X119006201Y-66641420D01*
X119000035Y-66654202D01*
X119000015Y-66677213D01*
X118998003Y-66677211D01*
X118997988Y-66677277D01*
X119000000Y-66677277D01*
X119000000Y-66694123D01*
X118999955Y-66745449D01*
X118995150Y-66745445D01*
X118995144Y-66745543D01*
X40400000Y-66745543D01*
X40400000Y-65196164D01*
X137435390Y-65196164D01*
X137436153Y-65205252D01*
X137438368Y-65217317D01*
X137489025Y-65393980D01*
X137493543Y-65405392D01*
X137577546Y-65568844D01*
X137584196Y-65579162D01*
X137698350Y-65723189D01*
X137706873Y-65732015D01*
X137846833Y-65851129D01*
X137856905Y-65858130D01*
X138017334Y-65947790D01*
X138028574Y-65952701D01*
X138203367Y-66009494D01*
X138215341Y-66012127D01*
X138257011Y-66017096D01*
X138271418Y-66014669D01*
X138275000Y-66001901D01*
X138275000Y-65198115D01*
X138273659Y-65193548D01*
X138575000Y-65193548D01*
X138575000Y-66003342D01*
X138579354Y-66018170D01*
X138590951Y-66020230D01*
X138593347Y-66020045D01*
X138605423Y-66017916D01*
X138782430Y-65968494D01*
X138793881Y-65964053D01*
X138957919Y-65881193D01*
X138968276Y-65874620D01*
X139113100Y-65761470D01*
X139121986Y-65753009D01*
X139242070Y-65613890D01*
X139249144Y-65603862D01*
X139339919Y-65444068D01*
X139344913Y-65432852D01*
X139402921Y-65258473D01*
X139405641Y-65246502D01*
X139411771Y-65197974D01*
X139409468Y-65183694D01*
X139396476Y-65180000D01*
X138593115Y-65180000D01*
X138577876Y-65184475D01*
X138576671Y-65185865D01*
X138575000Y-65193548D01*
X138273659Y-65193548D01*
X138270525Y-65182876D01*
X138269135Y-65181671D01*
X138261452Y-65180000D01*
X137452148Y-65180000D01*
X137437452Y-65184315D01*
X137435390Y-65196164D01*
X40400000Y-65196164D01*
X40400000Y-64600000D01*
X127669196Y-64600000D01*
X127690281Y-64733126D01*
X127751472Y-64853220D01*
X127846780Y-64948528D01*
X127966874Y-65009719D01*
X127976663Y-65011269D01*
X127976665Y-65011270D01*
X128090207Y-65029253D01*
X128100000Y-65030804D01*
X128109793Y-65029253D01*
X128223335Y-65011270D01*
X128223337Y-65011269D01*
X128233126Y-65009719D01*
X128353220Y-64948528D01*
X128448528Y-64853220D01*
X128509719Y-64733126D01*
X128530804Y-64600000D01*
X128509719Y-64466874D01*
X128453693Y-64356917D01*
X128440589Y-64287140D01*
X128467289Y-64221355D01*
X128525317Y-64180449D01*
X128596248Y-64177409D01*
X128623162Y-64187447D01*
X128666874Y-64209719D01*
X128676663Y-64211269D01*
X128676665Y-64211270D01*
X128790207Y-64229253D01*
X128800000Y-64230804D01*
X128809793Y-64229253D01*
X128923335Y-64211270D01*
X128923337Y-64211269D01*
X128933126Y-64209719D01*
X128976837Y-64187447D01*
X129046614Y-64174343D01*
X129112398Y-64201043D01*
X129153305Y-64259070D01*
X129156346Y-64330002D01*
X129146307Y-64356917D01*
X129090281Y-64466874D01*
X129069196Y-64600000D01*
X129090281Y-64733126D01*
X129151472Y-64853220D01*
X129246780Y-64948528D01*
X129366874Y-65009719D01*
X129376663Y-65011269D01*
X129376665Y-65011270D01*
X129490207Y-65029253D01*
X129500000Y-65030804D01*
X129509793Y-65029253D01*
X129623335Y-65011270D01*
X129623337Y-65011269D01*
X129633126Y-65009719D01*
X129753220Y-64948528D01*
X129848528Y-64853220D01*
X129909719Y-64733126D01*
X129930804Y-64600000D01*
X129909719Y-64466874D01*
X129848528Y-64346780D01*
X129753220Y-64251472D01*
X129633126Y-64190281D01*
X129623337Y-64188731D01*
X129623335Y-64188730D01*
X129509793Y-64170747D01*
X129500000Y-64169196D01*
X129490207Y-64170747D01*
X129376665Y-64188730D01*
X129376663Y-64188731D01*
X129366874Y-64190281D01*
X129328725Y-64209719D01*
X129323163Y-64212553D01*
X129253386Y-64225657D01*
X129187602Y-64198957D01*
X129146695Y-64140930D01*
X129143654Y-64069998D01*
X129153693Y-64043083D01*
X129209719Y-63933126D01*
X129230804Y-63800000D01*
X129209719Y-63666874D01*
X129148528Y-63546780D01*
X129053220Y-63451472D01*
X128933126Y-63390281D01*
X128923337Y-63388731D01*
X128923335Y-63388730D01*
X128809793Y-63370747D01*
X128800000Y-63369196D01*
X128790207Y-63370747D01*
X128676665Y-63388730D01*
X128676663Y-63388731D01*
X128666874Y-63390281D01*
X128546780Y-63451472D01*
X128451472Y-63546780D01*
X128390281Y-63666874D01*
X128369196Y-63800000D01*
X128390281Y-63933126D01*
X128446307Y-64043083D01*
X128459411Y-64112860D01*
X128432711Y-64178645D01*
X128374683Y-64219551D01*
X128303752Y-64222591D01*
X128276837Y-64212553D01*
X128271275Y-64209719D01*
X128233126Y-64190281D01*
X128223337Y-64188731D01*
X128223335Y-64188730D01*
X128109793Y-64170747D01*
X128100000Y-64169196D01*
X128090207Y-64170747D01*
X127976665Y-64188730D01*
X127976663Y-64188731D01*
X127966874Y-64190281D01*
X127846780Y-64251472D01*
X127751472Y-64346780D01*
X127690281Y-64466874D01*
X127669196Y-64600000D01*
X40400000Y-64600000D01*
X40400000Y-44626000D01*
X40420002Y-44557879D01*
X40473658Y-44511386D01*
X40526000Y-44500000D01*
X44400000Y-44500000D01*
X44400000Y-34600000D01*
X40526000Y-34600000D01*
X40457879Y-34579998D01*
X40411386Y-34526342D01*
X40400000Y-34474000D01*
X40400000Y-29337312D01*
X40403254Y-29308860D01*
X40405142Y-29300716D01*
X40405143Y-29300000D01*
X40403560Y-29293060D01*
X40402769Y-29285990D01*
X40403963Y-29285856D01*
X40402168Y-29264153D01*
X40402169Y-29264145D01*
X40416310Y-29030373D01*
X40418144Y-29015269D01*
X40465460Y-28757072D01*
X40469101Y-28742299D01*
X40495244Y-28658404D01*
X40547198Y-28491678D01*
X40552592Y-28477456D01*
X40611158Y-28347327D01*
X40660327Y-28238078D01*
X40667388Y-28224625D01*
X40803196Y-27999971D01*
X40811833Y-27987457D01*
X40973729Y-27780812D01*
X40983819Y-27769424D01*
X41169424Y-27583819D01*
X41180812Y-27573729D01*
X41387457Y-27411833D01*
X41399971Y-27403196D01*
X41624625Y-27267388D01*
X41638078Y-27260327D01*
X41877460Y-27152591D01*
X41891678Y-27147198D01*
X42142299Y-27069101D01*
X42157072Y-27065460D01*
X42415269Y-27018144D01*
X42430373Y-27016310D01*
X42664145Y-27002169D01*
X42671972Y-27001939D01*
X42685815Y-27001963D01*
X42699642Y-27005143D01*
X42713482Y-27002011D01*
X42718371Y-27002020D01*
X42736448Y-27000000D01*
X88390590Y-27000000D01*
X88458711Y-27020002D01*
G37*
%TD.AperFunction*%
%TD*%
M02*
