%TF.GenerationSoftware,KiCad,Pcbnew,(5.99.0-10004-g132ec37b56)*%
%TF.CreationDate,2021-06-28T18:31:09+02:00*%
%TF.ProjectId,demo,64656d6f-2e6b-4696-9361-645f70636258,rev?*%
%TF.SameCoordinates,Original*%
%TF.FileFunction,Legend,Top*%
%TF.FilePolarity,Positive*%
%FSLAX46Y46*%
G04 Gerber Fmt 4.6, Leading zero omitted, Abs format (unit mm)*
G04 Created by KiCad (PCBNEW (5.99.0-10004-g132ec37b56)) date 2021-06-28 18:31:09*
%MOMM*%
%LPD*%
G01*
G04 APERTURE LIST*
%ADD10C,0.100000*%
%ADD11C,0.150000*%
G04 APERTURE END LIST*
D10*
%TO.C,H9*%
X156792857Y-124621428D02*
X156792857Y-124021428D01*
X156792857Y-124307142D02*
X157135714Y-124307142D01*
X157135714Y-124621428D02*
X157135714Y-124021428D01*
X157450000Y-124621428D02*
X157564285Y-124621428D01*
X157621428Y-124592857D01*
X157650000Y-124564285D01*
X157707142Y-124478571D01*
X157735714Y-124364285D01*
X157735714Y-124135714D01*
X157707142Y-124078571D01*
X157678571Y-124050000D01*
X157621428Y-124021428D01*
X157507142Y-124021428D01*
X157450000Y-124050000D01*
X157421428Y-124078571D01*
X157392857Y-124135714D01*
X157392857Y-124278571D01*
X157421428Y-124335714D01*
X157450000Y-124364285D01*
X157507142Y-124392857D01*
X157621428Y-124392857D01*
X157678571Y-124364285D01*
X157707142Y-124335714D01*
X157735714Y-124278571D01*
D11*
%TO.C,REF\u002A\u002A*%
X203416666Y-96952380D02*
X203083333Y-96476190D01*
X202845238Y-96952380D02*
X202845238Y-95952380D01*
X203226190Y-95952380D01*
X203321428Y-96000000D01*
X203369047Y-96047619D01*
X203416666Y-96142857D01*
X203416666Y-96285714D01*
X203369047Y-96380952D01*
X203321428Y-96428571D01*
X203226190Y-96476190D01*
X202845238Y-96476190D01*
X203845238Y-96428571D02*
X204178571Y-96428571D01*
X204321428Y-96952380D02*
X203845238Y-96952380D01*
X203845238Y-95952380D01*
X204321428Y-95952380D01*
X205083333Y-96428571D02*
X204750000Y-96428571D01*
X204750000Y-96952380D02*
X204750000Y-95952380D01*
X205226190Y-95952380D01*
X205750000Y-95952380D02*
X205750000Y-96190476D01*
X205511904Y-96095238D02*
X205750000Y-96190476D01*
X205988095Y-96095238D01*
X205607142Y-96380952D02*
X205750000Y-96190476D01*
X205892857Y-96380952D01*
X206511904Y-95952380D02*
X206511904Y-96190476D01*
X206273809Y-96095238D02*
X206511904Y-96190476D01*
X206750000Y-96095238D01*
X206369047Y-96380952D02*
X206511904Y-96190476D01*
X206654761Y-96380952D01*
X198730952Y-92152380D02*
X198730952Y-91152380D01*
X198969047Y-91152380D01*
X199111904Y-91200000D01*
X199207142Y-91295238D01*
X199254761Y-91390476D01*
X199302380Y-91580952D01*
X199302380Y-91723809D01*
X199254761Y-91914285D01*
X199207142Y-92009523D01*
X199111904Y-92104761D01*
X198969047Y-92152380D01*
X198730952Y-92152380D01*
X199921428Y-91152380D02*
X200111904Y-91152380D01*
X200207142Y-91200000D01*
X200302380Y-91295238D01*
X200350000Y-91485714D01*
X200350000Y-91819047D01*
X200302380Y-92009523D01*
X200207142Y-92104761D01*
X200111904Y-92152380D01*
X199921428Y-92152380D01*
X199826190Y-92104761D01*
X199730952Y-92009523D01*
X199683333Y-91819047D01*
X199683333Y-91485714D01*
X199730952Y-91295238D01*
X199826190Y-91200000D01*
X199921428Y-91152380D01*
X201540476Y-92152380D02*
X201540476Y-91152380D01*
X202111904Y-92152380D01*
X202111904Y-91152380D01*
X202778571Y-91152380D02*
X202969047Y-91152380D01*
X203064285Y-91200000D01*
X203159523Y-91295238D01*
X203207142Y-91485714D01*
X203207142Y-91819047D01*
X203159523Y-92009523D01*
X203064285Y-92104761D01*
X202969047Y-92152380D01*
X202778571Y-92152380D01*
X202683333Y-92104761D01*
X202588095Y-92009523D01*
X202540476Y-91819047D01*
X202540476Y-91485714D01*
X202588095Y-91295238D01*
X202683333Y-91200000D01*
X202778571Y-91152380D01*
X203492857Y-91152380D02*
X204064285Y-91152380D01*
X203778571Y-92152380D02*
X203778571Y-91152380D01*
X205159523Y-92152380D02*
X205159523Y-91152380D01*
X205397619Y-91152380D01*
X205540476Y-91200000D01*
X205635714Y-91295238D01*
X205683333Y-91390476D01*
X205730952Y-91580952D01*
X205730952Y-91723809D01*
X205683333Y-91914285D01*
X205635714Y-92009523D01*
X205540476Y-92104761D01*
X205397619Y-92152380D01*
X205159523Y-92152380D01*
X206159523Y-92152380D02*
X206159523Y-91152380D01*
X206588095Y-92104761D02*
X206730952Y-92152380D01*
X206969047Y-92152380D01*
X207064285Y-92104761D01*
X207111904Y-92057142D01*
X207159523Y-91961904D01*
X207159523Y-91866666D01*
X207111904Y-91771428D01*
X207064285Y-91723809D01*
X206969047Y-91676190D01*
X206778571Y-91628571D01*
X206683333Y-91580952D01*
X206635714Y-91533333D01*
X206588095Y-91438095D01*
X206588095Y-91342857D01*
X206635714Y-91247619D01*
X206683333Y-91200000D01*
X206778571Y-91152380D01*
X207016666Y-91152380D01*
X207159523Y-91200000D01*
X208159523Y-92057142D02*
X208111904Y-92104761D01*
X207969047Y-92152380D01*
X207873809Y-92152380D01*
X207730952Y-92104761D01*
X207635714Y-92009523D01*
X207588095Y-91914285D01*
X207540476Y-91723809D01*
X207540476Y-91580952D01*
X207588095Y-91390476D01*
X207635714Y-91295238D01*
X207730952Y-91200000D01*
X207873809Y-91152380D01*
X207969047Y-91152380D01*
X208111904Y-91200000D01*
X208159523Y-91247619D01*
X208540476Y-91866666D02*
X209016666Y-91866666D01*
X208445238Y-92152380D02*
X208778571Y-91152380D01*
X209111904Y-92152380D01*
X210016666Y-92152380D02*
X209683333Y-91676190D01*
X209445238Y-92152380D02*
X209445238Y-91152380D01*
X209826190Y-91152380D01*
X209921428Y-91200000D01*
X209969047Y-91247619D01*
X210016666Y-91342857D01*
X210016666Y-91485714D01*
X209969047Y-91580952D01*
X209921428Y-91628571D01*
X209826190Y-91676190D01*
X209445238Y-91676190D01*
X210445238Y-92152380D02*
X210445238Y-91152380D01*
X210683333Y-91152380D01*
X210826190Y-91200000D01*
X210921428Y-91295238D01*
X210969047Y-91390476D01*
X211016666Y-91580952D01*
X211016666Y-91723809D01*
X210969047Y-91914285D01*
X210921428Y-92009523D01*
X210826190Y-92104761D01*
X210683333Y-92152380D01*
X210445238Y-92152380D01*
D10*
%TO.C,H11*%
X204007142Y-124621428D02*
X204007142Y-124021428D01*
X204007142Y-124307142D02*
X204350000Y-124307142D01*
X204350000Y-124621428D02*
X204350000Y-124021428D01*
X204950000Y-124621428D02*
X204607142Y-124621428D01*
X204778571Y-124621428D02*
X204778571Y-124021428D01*
X204721428Y-124107142D01*
X204664285Y-124164285D01*
X204607142Y-124192857D01*
X205521428Y-124621428D02*
X205178571Y-124621428D01*
X205350000Y-124621428D02*
X205350000Y-124021428D01*
X205292857Y-124107142D01*
X205235714Y-124164285D01*
X205178571Y-124192857D01*
D11*
%TO.C,REF\u002A\u002A*%
X203416666Y-97502380D02*
X203083333Y-97026190D01*
X202845238Y-97502380D02*
X202845238Y-96502380D01*
X203226190Y-96502380D01*
X203321428Y-96550000D01*
X203369047Y-96597619D01*
X203416666Y-96692857D01*
X203416666Y-96835714D01*
X203369047Y-96930952D01*
X203321428Y-96978571D01*
X203226190Y-97026190D01*
X202845238Y-97026190D01*
X203845238Y-96978571D02*
X204178571Y-96978571D01*
X204321428Y-97502380D02*
X203845238Y-97502380D01*
X203845238Y-96502380D01*
X204321428Y-96502380D01*
X205083333Y-96978571D02*
X204750000Y-96978571D01*
X204750000Y-97502380D02*
X204750000Y-96502380D01*
X205226190Y-96502380D01*
X205750000Y-96502380D02*
X205750000Y-96740476D01*
X205511904Y-96645238D02*
X205750000Y-96740476D01*
X205988095Y-96645238D01*
X205607142Y-96930952D02*
X205750000Y-96740476D01*
X205892857Y-96930952D01*
X206511904Y-96502380D02*
X206511904Y-96740476D01*
X206273809Y-96645238D02*
X206511904Y-96740476D01*
X206750000Y-96645238D01*
X206369047Y-96930952D02*
X206511904Y-96740476D01*
X206654761Y-96930952D01*
D10*
%TO.C,H8*%
X251792857Y-124621428D02*
X251792857Y-124021428D01*
X251792857Y-124307142D02*
X252135714Y-124307142D01*
X252135714Y-124621428D02*
X252135714Y-124021428D01*
X252507142Y-124278571D02*
X252450000Y-124250000D01*
X252421428Y-124221428D01*
X252392857Y-124164285D01*
X252392857Y-124135714D01*
X252421428Y-124078571D01*
X252450000Y-124050000D01*
X252507142Y-124021428D01*
X252621428Y-124021428D01*
X252678571Y-124050000D01*
X252707142Y-124078571D01*
X252735714Y-124135714D01*
X252735714Y-124164285D01*
X252707142Y-124221428D01*
X252678571Y-124250000D01*
X252621428Y-124278571D01*
X252507142Y-124278571D01*
X252450000Y-124307142D01*
X252421428Y-124335714D01*
X252392857Y-124392857D01*
X252392857Y-124507142D01*
X252421428Y-124564285D01*
X252450000Y-124592857D01*
X252507142Y-124621428D01*
X252621428Y-124621428D01*
X252678571Y-124592857D01*
X252707142Y-124564285D01*
X252735714Y-124507142D01*
X252735714Y-124392857D01*
X252707142Y-124335714D01*
X252678571Y-124307142D01*
X252621428Y-124278571D01*
%TD*%
M02*
