%TF.GenerationSoftware,KiCad,Pcbnew,(5.99.0-10004-g132ec37b56)*%
%TF.CreationDate,2021-06-28T18:31:09+02:00*%
%TF.ProjectId,demo,64656d6f-2e6b-4696-9361-645f70636258,rev?*%
%TF.SameCoordinates,Original*%
%TF.FileFunction,Soldermask,Top*%
%TF.FilePolarity,Negative*%
%FSLAX46Y46*%
G04 Gerber Fmt 4.6, Leading zero omitted, Abs format (unit mm)*
G04 Created by KiCad (PCBNEW (5.99.0-10004-g132ec37b56)) date 2021-06-28 18:31:09*
%MOMM*%
%LPD*%
G01*
G04 APERTURE LIST*
%ADD10C,0.700000*%
%ADD11C,4.400000*%
%ADD12C,1.100000*%
%ADD13O,2.000000X27.200000*%
%ADD14O,29.300000X2.000000*%
%ADD15O,30.300000X2.000000*%
%ADD16O,49.000000X1.524000*%
%ADD17O,1.524000X65.500000*%
%ADD18R,1.350000X1.350000*%
%ADD19O,1.350000X1.350000*%
%ADD20C,0.600000*%
%ADD21C,1.000000*%
G04 APERTURE END LIST*
D10*
%TO.C,H10*%
X158416726Y-68716726D03*
X157250000Y-65900000D03*
X158900000Y-67550000D03*
X156083274Y-66383274D03*
X156083274Y-68716726D03*
X155600000Y-67550000D03*
X158416726Y-66383274D03*
X157250000Y-69200000D03*
D11*
X157250000Y-67550000D03*
%TD*%
D10*
%TO.C,H9*%
X158416726Y-126383274D03*
D11*
X157250000Y-127550000D03*
D10*
X158900000Y-127550000D03*
X157250000Y-125900000D03*
X157250000Y-129200000D03*
X158416726Y-128716726D03*
X156083274Y-128716726D03*
X155600000Y-127550000D03*
X156083274Y-126383274D03*
%TD*%
D12*
%TO.C,REF\u002A\u002A*%
X219400000Y-83900000D03*
D13*
X190600000Y-97000000D03*
D14*
X204750000Y-84400000D03*
D12*
X190100000Y-83900000D03*
D13*
X218900000Y-97000000D03*
D12*
X190100000Y-110100000D03*
X219400000Y-110100000D03*
D15*
X204750000Y-109600000D03*
%TD*%
D10*
%TO.C,H7*%
X203583274Y-68716726D03*
X205916726Y-68716726D03*
X203100000Y-67550000D03*
X204750000Y-69200000D03*
D11*
X204750000Y-67550000D03*
D10*
X206400000Y-67550000D03*
X204750000Y-65900000D03*
X203583274Y-66383274D03*
X205916726Y-66383274D03*
%TD*%
%TO.C,H11*%
X203583274Y-128716726D03*
X205916726Y-128716726D03*
X203583274Y-126383274D03*
X205916726Y-126383274D03*
X206400000Y-127550000D03*
X203100000Y-127550000D03*
X204750000Y-125900000D03*
X204750000Y-129200000D03*
D11*
X204750000Y-127550000D03*
%TD*%
D10*
%TO.C,H12*%
X251083274Y-66383274D03*
X252250000Y-65900000D03*
D11*
X252250000Y-67550000D03*
D10*
X252250000Y-69200000D03*
X250600000Y-67550000D03*
X251083274Y-68716726D03*
X253900000Y-67550000D03*
X253416726Y-68716726D03*
X253416726Y-66383274D03*
%TD*%
D16*
%TO.C,REF\u002A\u002A*%
X229750000Y-130550000D03*
X229750000Y-64550000D03*
X179750000Y-130550000D03*
D17*
X154250000Y-97550000D03*
D16*
X179750000Y-64550000D03*
D17*
X255250000Y-97550000D03*
%TD*%
D10*
%TO.C,H8*%
X253900000Y-127550000D03*
X253416726Y-126383274D03*
X251083274Y-128716726D03*
X252250000Y-129200000D03*
X252250000Y-125900000D03*
X253416726Y-128716726D03*
X250600000Y-127550000D03*
D11*
X252250000Y-127550000D03*
D10*
X251083274Y-126383274D03*
%TD*%
D18*
%TO.C,J5*%
X253050000Y-104550000D03*
D19*
X253050000Y-102550000D03*
X253050000Y-100550000D03*
X253050000Y-98550000D03*
X253050000Y-96550000D03*
X253050000Y-94550000D03*
X253050000Y-92550000D03*
X253050000Y-90550000D03*
%TD*%
D20*
X248750000Y-129050000D03*
X253450000Y-122550000D03*
X248750000Y-66050000D03*
X247750000Y-67050000D03*
X247750000Y-69050000D03*
X246750000Y-129050000D03*
X247750000Y-128050000D03*
X253450000Y-114550000D03*
X253450000Y-84550000D03*
X253450000Y-110550000D03*
X253450000Y-76550000D03*
X253450000Y-118550000D03*
X253450000Y-106550000D03*
X246750000Y-66050000D03*
X253450000Y-80550000D03*
X253450000Y-72550000D03*
X253450000Y-88550000D03*
D21*
X180250000Y-128050000D03*
X196750000Y-129050000D03*
X168750000Y-67050000D03*
X164250000Y-66050000D03*
X236250000Y-129050000D03*
X221250000Y-66050000D03*
X245200000Y-129050000D03*
X156750000Y-121550000D03*
X225750000Y-128050000D03*
X215250000Y-129050000D03*
X180750000Y-67050000D03*
X177250000Y-128050000D03*
X155750000Y-120050000D03*
X182250000Y-66050000D03*
X156750000Y-118550000D03*
X209250000Y-66050000D03*
X228750000Y-67050000D03*
X155750000Y-78050000D03*
X221250000Y-129050000D03*
X174750000Y-67050000D03*
X160750000Y-129050000D03*
X233250000Y-129050000D03*
X174250000Y-128050000D03*
X230250000Y-129050000D03*
X192750000Y-67050000D03*
X200250000Y-66050000D03*
X194250000Y-66050000D03*
X210750000Y-67050000D03*
X212250000Y-129050000D03*
X168250000Y-128050000D03*
X224250000Y-66050000D03*
X234750000Y-128050000D03*
X162250000Y-128050000D03*
X156750000Y-73550000D03*
X227250000Y-129050000D03*
X156750000Y-79550000D03*
X240750000Y-67050000D03*
X230250000Y-66050000D03*
X178750000Y-129050000D03*
X237750000Y-128050000D03*
X181750000Y-129050000D03*
X155750000Y-75050000D03*
X197250000Y-66050000D03*
X192250000Y-128050000D03*
X155750000Y-72050000D03*
X155750000Y-81050000D03*
X243750000Y-128050000D03*
X179250000Y-66050000D03*
X225750000Y-67050000D03*
X156750000Y-76550000D03*
X242250000Y-66050000D03*
X184750000Y-129050000D03*
X163750000Y-129050000D03*
X189250000Y-128050000D03*
X216750000Y-67050000D03*
X183750000Y-67050000D03*
X155750000Y-114050000D03*
X218250000Y-66050000D03*
X198250000Y-128050000D03*
X185250000Y-66050000D03*
X231750000Y-67050000D03*
X213750000Y-67050000D03*
X176250000Y-66050000D03*
X227250000Y-66050000D03*
X177750000Y-67050000D03*
X189750000Y-67050000D03*
X171750000Y-67050000D03*
X165250000Y-128050000D03*
X199750000Y-129050000D03*
X170250000Y-66050000D03*
X240750000Y-128050000D03*
X166750000Y-129050000D03*
X172750000Y-129050000D03*
X155750000Y-123050000D03*
X190750000Y-129050000D03*
X213750000Y-128050000D03*
X165750000Y-67050000D03*
X228750000Y-128050000D03*
X183250000Y-128050000D03*
X193750000Y-129050000D03*
X212250000Y-66050000D03*
X222750000Y-128050000D03*
X167250000Y-66050000D03*
X175750000Y-129050000D03*
X215250000Y-66050000D03*
X219750000Y-67050000D03*
X171250000Y-128050000D03*
X210750000Y-128050000D03*
X187750000Y-129050000D03*
X198750000Y-67050000D03*
X231750000Y-128050000D03*
X188250000Y-66050000D03*
X224250000Y-129050000D03*
X237750000Y-67050000D03*
X233250000Y-66050000D03*
X173250000Y-66050000D03*
X243750000Y-67050000D03*
X234750000Y-67050000D03*
X236250000Y-66050000D03*
X195250000Y-128050000D03*
X155750000Y-117050000D03*
X242250000Y-129050000D03*
X195750000Y-67050000D03*
X169750000Y-129050000D03*
X162750000Y-67050000D03*
X239250000Y-129050000D03*
X219750000Y-128050000D03*
X218250000Y-129050000D03*
X161250000Y-66050000D03*
X156750000Y-115550000D03*
X222750000Y-67050000D03*
X209250000Y-129050000D03*
X186750000Y-67050000D03*
X216750000Y-128050000D03*
X186250000Y-128050000D03*
X191250000Y-66050000D03*
X239250000Y-66050000D03*
M02*
