M48
; DRILL file {KiCad (5.99.0-10004-g132ec37b56)} date Mon Jun 28 18:31:51 2021
; FORMAT={-:-/ absolute / metric / decimal}
; #@! TF.CreationDate,2021-06-28T18:31:51+02:00
; #@! TF.GenerationSoftware,Kicad,Pcbnew,(5.99.0-10004-g132ec37b56)
; #@! TF.FileFunction,MixedPlating,1,4
FMAT,2
METRIC
; #@! TA.AperFunction,ViaDrill
T1C0.300
; #@! TA.AperFunction,ComponentDrill,Plated,PTH
T2C0.400
; #@! TA.AperFunction,ViaDrill
T3C0.800
; #@! TA.AperFunction,ComponentDrill,Plated,PTH
T4C0.800
; #@! TA.AperFunction,ComponentDrill,Plated,PTH
T5C1.000
; #@! TA.AperFunction,ComponentDrill,Plated,PTH
T6C2.200
%
G90
G05
T1
; via hole
X246.75Y-66.05
X246.75Y-129.05
X247.75Y-67.05
X247.75Y-69.05
X247.75Y-128.05
X248.75Y-66.05
X248.75Y-129.05
X253.45Y-72.55
X253.45Y-76.55
X253.45Y-80.55
X253.45Y-84.55
X253.45Y-88.55
X253.45Y-106.55
X253.45Y-110.55
X253.45Y-114.55
X253.45Y-118.55
X253.45Y-122.55
T2
; plated pad hole
X155.6Y-67.55
X155.6Y-127.55
X156.083Y-66.383
X156.083Y-68.717
X156.083Y-126.383
X156.083Y-128.717
X157.25Y-65.9
X157.25Y-69.2
X157.25Y-125.9
X157.25Y-129.2
X158.417Y-66.383
X158.417Y-68.717
X158.417Y-126.383
X158.417Y-128.717
X158.9Y-67.55
X158.9Y-127.55
X203.1Y-67.55
X203.1Y-127.55
X203.583Y-66.383
X203.583Y-68.717
X203.583Y-126.383
X203.583Y-128.717
X204.75Y-65.9
X204.75Y-69.2
X204.75Y-125.9
X204.75Y-129.2
X205.917Y-66.383
X205.917Y-68.717
X205.917Y-126.383
X205.917Y-128.717
X206.4Y-67.55
X206.4Y-127.55
X250.6Y-67.55
X250.6Y-127.55
X251.083Y-66.383
X251.083Y-68.717
X251.083Y-126.383
X251.083Y-128.717
X252.25Y-65.9
X252.25Y-69.2
X252.25Y-125.9
X252.25Y-129.2
X253.417Y-66.383
X253.417Y-68.717
X253.417Y-126.383
X253.417Y-128.717
X253.9Y-67.55
X253.9Y-127.55
T3
; via hole
X155.75Y-72.05
X155.75Y-75.05
X155.75Y-78.05
X155.75Y-81.05
X155.75Y-114.05
X155.75Y-117.05
X155.75Y-120.05
X155.75Y-123.05
X156.75Y-73.55
X156.75Y-76.55
X156.75Y-79.55
X156.75Y-115.55
X156.75Y-118.55
X156.75Y-121.55
X160.75Y-129.05
X161.25Y-66.05
X162.25Y-128.05
X162.75Y-67.05
X163.75Y-129.05
X164.25Y-66.05
X165.25Y-128.05
X165.75Y-67.05
X166.75Y-129.05
X167.25Y-66.05
X168.25Y-128.05
X168.75Y-67.05
X169.75Y-129.05
X170.25Y-66.05
X171.25Y-128.05
X171.75Y-67.05
X172.75Y-129.05
X173.25Y-66.05
X174.25Y-128.05
X174.75Y-67.05
X175.75Y-129.05
X176.25Y-66.05
X177.25Y-128.05
X177.75Y-67.05
X178.75Y-129.05
X179.25Y-66.05
X180.25Y-128.05
X180.75Y-67.05
X181.75Y-129.05
X182.25Y-66.05
X183.25Y-128.05
X183.75Y-67.05
X184.75Y-129.05
X185.25Y-66.05
X186.25Y-128.05
X186.75Y-67.05
X187.75Y-129.05
X188.25Y-66.05
X189.25Y-128.05
X189.75Y-67.05
X190.75Y-129.05
X191.25Y-66.05
X192.25Y-128.05
X192.75Y-67.05
X193.75Y-129.05
X194.25Y-66.05
X195.25Y-128.05
X195.75Y-67.05
X196.75Y-129.05
X197.25Y-66.05
X198.25Y-128.05
X198.75Y-67.05
X199.75Y-129.05
X200.25Y-66.05
X209.25Y-66.05
X209.25Y-129.05
X210.75Y-67.05
X210.75Y-128.05
X212.25Y-66.05
X212.25Y-129.05
X213.75Y-67.05
X213.75Y-128.05
X215.25Y-66.05
X215.25Y-129.05
X216.75Y-67.05
X216.75Y-128.05
X218.25Y-66.05
X218.25Y-129.05
X219.75Y-67.05
X219.75Y-128.05
X221.25Y-66.05
X221.25Y-129.05
X222.75Y-67.05
X222.75Y-128.05
X224.25Y-66.05
X224.25Y-129.05
X225.75Y-67.05
X225.75Y-128.05
X227.25Y-66.05
X227.25Y-129.05
X228.75Y-67.05
X228.75Y-128.05
X230.25Y-66.05
X230.25Y-129.05
X231.75Y-67.05
X231.75Y-128.05
X233.25Y-66.05
X233.25Y-129.05
X234.75Y-67.05
X234.75Y-128.05
X236.25Y-66.05
X236.25Y-129.05
X237.75Y-67.05
X237.75Y-128.05
X239.25Y-66.05
X239.25Y-129.05
X240.75Y-67.05
X240.75Y-128.05
X242.25Y-66.05
X242.25Y-129.05
X243.75Y-67.05
X243.75Y-128.05
X245.2Y-129.05
T4
; plated pad hole
X253.05Y-90.55
X253.05Y-92.55
X253.05Y-94.55
X253.05Y-96.55
X253.05Y-98.55
X253.05Y-100.55
X253.05Y-102.55
X253.05Y-104.55
T5
X190.1Y-83.9
X190.1Y-110.1
X219.4Y-83.9
X219.4Y-110.1
T6
X157.25Y-67.55
X157.25Y-127.55
X204.75Y-67.55
X204.75Y-127.55
X252.25Y-67.55
X252.25Y-127.55
T5
; plated pad hole
G00X154.25Y-128.3
M15
G01X154.25Y-66.8
M16
G05
G00X156.25Y-64.55
M15
G01X203.25Y-64.55
M16
G05
G00X203.25Y-130.55
M15
G01X156.25Y-130.55
M16
G05
G00X190.6Y-108.1
M15
G01X190.6Y-85.9
M16
G05
G00X217.4Y-84.4
M15
G01X192.1Y-84.4
M16
G05
G00X192.1Y-109.6
M15
G01X217.4Y-109.6
M16
G05
G00X218.9Y-85.9
M15
G01X218.9Y-108.1
M16
G05
G00X206.25Y-64.55
M15
G01X253.25Y-64.55
M16
G05
G00X253.25Y-130.55
M15
G01X206.25Y-130.55
M16
G05
G00X255.25Y-66.8
M15
G01X255.25Y-128.3
M16
G05
T0
M30
